<?xml version="1.0" encoding="utf-8" standalone="no"?>
<!DOCTYPE svg PUBLIC "-//W3C//DTD SVG 1.1//EN"
  "http://www.w3.org/Graphics/SVG/1.1/DTD/svg11.dtd">
<svg xmlns:xlink="http://www.w3.org/1999/xlink" width="572.4pt" height="317.35375pt" viewBox="0 0 572.4 317.35375" xmlns="http://www.w3.org/2000/svg" version="1.1">
 <metadata>
  <rdf:RDF xmlns:dc="http://purl.org/dc/elements/1.1/" xmlns:cc="http://creativecommons.org/ns#" xmlns:rdf="http://www.w3.org/1999/02/22-rdf-syntax-ns#">
   <cc:Work>
    <dc:type rdf:resource="http://purl.org/dc/dcmitype/StillImage"/>
    <dc:date>2026-02-18T22:41:46.470329</dc:date>
    <dc:format>image/svg+xml</dc:format>
    <dc:creator>
     <cc:Agent>
      <dc:title>Matplotlib v3.10.8, https://matplotlib.org/</dc:title>
     </cc:Agent>
    </dc:creator>
   </cc:Work>
  </rdf:RDF>
 </metadata>
 <defs>
  <style type="text/css">*{stroke-linejoin: round; stroke-linecap: butt}</style>
 </defs>
 <g id="figure_1">
  <g id="patch_1">
   <path d="M 0 317.35375 
L 572.4 317.35375 
L 572.4 0 
L 0 0 
z
" style="fill: #ffffff"/>
  </g>
  <g id="axes_1">
   <g id="patch_2">
    <path d="M 47.781818 131.23375 
L 189.818182 131.23375 
Q 197.427273 131.23375 197.427273 123.67375 
L 197.427273 32.95375 
Q 197.427273 25.39375 189.818182 25.39375 
L 47.781818 25.39375 
Q 40.172727 25.39375 40.172727 32.95375 
L 40.172727 123.67375 
Q 40.172727 131.23375 47.781818 131.23375 
z
" clip-path="url(#p93d1a52275)" style="fill: #f4a7a7; stroke: #c62828; stroke-width: 0.8; stroke-linejoin: miter"/>
   </g>
   <g id="patch_3">
    <path d="M 215.181818 131.23375 
L 357.218182 131.23375 
Q 364.827273 131.23375 364.827273 123.67375 
L 364.827273 32.95375 
Q 364.827273 25.39375 357.218182 25.39375 
L 215.181818 25.39375 
Q 207.572727 25.39375 207.572727 32.95375 
L 207.572727 123.67375 
Q 207.572727 131.23375 215.181818 131.23375 
z
" clip-path="url(#p93d1a52275)" style="fill: #f4a7a7; stroke: #c62828; stroke-width: 0.8; stroke-linejoin: miter"/>
   </g>
   <g id="patch_4">
    <path d="M 382.581818 131.23375 
L 524.618182 131.23375 
Q 532.227273 131.23375 532.227273 123.67375 
L 532.227273 32.95375 
Q 532.227273 25.39375 524.618182 25.39375 
L 382.581818 25.39375 
Q 374.972727 25.39375 374.972727 32.95375 
L 374.972727 123.67375 
Q 374.972727 131.23375 382.581818 131.23375 
z
" clip-path="url(#p93d1a52275)" style="fill: #f4a7a7; stroke: #c62828; stroke-width: 0.8; stroke-linejoin: miter"/>
   </g>
   <g id="patch_5">
    <path d="M 47.781818 252.19375 
L 189.818182 252.19375 
Q 197.427273 252.19375 197.427273 244.63375 
L 197.427273 153.91375 
Q 197.427273 146.35375 189.818182 146.35375 
L 47.781818 146.35375 
Q 40.172727 146.35375 40.172727 153.91375 
L 40.172727 244.63375 
Q 40.172727 252.19375 47.781818 252.19375 
z
" clip-path="url(#p93d1a52275)" style="fill: #f4a7a7; stroke: #c62828; stroke-width: 0.8; stroke-linejoin: miter"/>
   </g>
   <g id="patch_6">
    <path d="M 215.181818 252.19375 
L 357.218182 252.19375 
Q 364.827273 252.19375 364.827273 244.63375 
L 364.827273 153.91375 
Q 364.827273 146.35375 357.218182 146.35375 
L 215.181818 146.35375 
Q 207.572727 146.35375 207.572727 153.91375 
L 207.572727 244.63375 
Q 207.572727 252.19375 215.181818 252.19375 
z
" clip-path="url(#p93d1a52275)" style="fill: #f4a7a7; stroke: #c62828; stroke-width: 0.8; stroke-linejoin: miter"/>
   </g>
   <g id="patch_7">
    <path d="M 382.581818 252.19375 
L 524.618182 252.19375 
Q 532.227273 252.19375 532.227273 244.63375 
L 532.227273 153.91375 
Q 532.227273 146.35375 524.618182 146.35375 
L 382.581818 146.35375 
Q 374.972727 146.35375 374.972727 153.91375 
L 374.972727 244.63375 
Q 374.972727 252.19375 382.581818 252.19375 
z
" clip-path="url(#p93d1a52275)" style="fill: #f4a7a7; stroke: #c62828; stroke-width: 0.8; stroke-linejoin: miter"/>
   </g>
   <g id="text_1">
    <!-- ① 문장 단절 -->
    <g style="fill: #b71c1c" transform="translate(92.119844 66.830625) scale(0.11 -0.11)">
     <defs>
      <path id="AppleSDGothicNeo-Regular-2460" d="M 5389 2355 
C 5389 3795 4211 4973 2765 4973 
C 1318 4973 147 3795 147 2355 
C 147 902 1318 -269 2765 -269 
C 4211 -269 5389 902 5389 2355 
z
M 5011 2355 
C 5011 1107 3994 90 2765 90 
C 1536 90 525 1107 525 2355 
C 525 3597 1536 4614 2765 4614 
C 3994 4614 5011 3597 5011 2355 
z
M 2656 685 
L 3085 685 
L 3085 4006 
L 2714 4006 
L 1984 3616 
L 2067 3283 
L 2643 3590 
L 2656 685 
z
" transform="scale(0.015625)"/>
      <path id="AppleSDGothicNeo-Regular-20" transform="scale(0.015625)"/>
      <path id="AppleSDGothicNeo-Regular-bb38" d="M 4659 2867 
L 4659 4838 
L 877 4838 
L 877 2867 
L 4659 2867 
z
M 4173 3270 
L 1363 3270 
L 1363 4435 
L 4173 4435 
L 4173 3270 
z
M 3021 736 
L 3021 1837 
L 5293 1837 
L 5293 2240 
L 243 2240 
L 243 1837 
L 2534 1837 
L 2534 736 
L 3021 736 
z
M 4723 -269 
L 4723 134 
L 1357 134 
L 1357 1312 
L 870 1312 
L 870 -269 
L 4723 -269 
z
" transform="scale(0.015625)"/>
      <path id="AppleSDGothicNeo-Regular-c7a5" d="M 4621 621 
C 4621 1293 3910 1696 2739 1696 
C 1568 1696 864 1293 864 621 
C 864 -38 1568 -442 2739 -442 
C 3910 -442 4621 -38 4621 621 
z
M 275 4333 
L 1562 4333 
C 1562 4192 1555 4083 1555 4032 
C 1530 3290 819 2586 115 2317 
L 397 1939 
C 998 2195 1651 2797 1805 3322 
C 2035 2816 2605 2310 3142 2093 
L 3411 2483 
C 2771 2694 2106 3309 2061 4026 
C 2054 4083 2054 4192 2054 4333 
L 3328 4333 
L 3328 4742 
L 275 4742 
L 275 4333 
z
M 4122 621 
C 4122 205 3584 -38 2739 -38 
C 1894 -38 1370 205 1370 621 
C 1370 1056 1894 1286 2739 1286 
C 3584 1286 4122 1056 4122 621 
z
M 5408 3187 
L 5408 3597 
L 4544 3597 
L 4544 5146 
L 4058 5146 
L 4058 1709 
L 4544 1709 
L 4544 3187 
L 5408 3187 
z
" transform="scale(0.015625)"/>
      <path id="AppleSDGothicNeo-Regular-b2e8" d="M 5389 3117 
L 5389 3526 
L 4538 3526 
L 4538 5146 
L 4051 5146 
L 4051 1088 
L 4538 1088 
L 4538 3117 
L 5389 3117 
z
M 4755 -256 
L 4755 147 
L 1555 147 
L 1555 1453 
L 1062 1453 
L 1062 -256 
L 4755 -256 
z
M 922 2400 
L 922 4237 
L 3002 4237 
L 3002 4646 
L 435 4646 
L 435 1997 
L 890 1997 
C 1856 1997 2918 2080 3539 2189 
L 3494 2586 
C 2957 2477 1971 2400 1197 2400 
L 922 2400 
z
" transform="scale(0.015625)"/>
      <path id="AppleSDGothicNeo-Regular-c808" d="M 5024 -410 
L 5024 0 
L 1702 0 
L 1702 621 
L 4819 621 
L 4819 1971 
L 1197 1971 
L 1197 1562 
L 4333 1562 
L 4333 998 
L 1216 998 
L 1216 -410 
L 5024 -410 
z
M 352 4410 
L 1658 4410 
L 1658 4224 
C 1651 3482 915 2803 211 2534 
L 474 2163 
C 1075 2419 1754 2995 1907 3520 
C 2138 3014 2733 2534 3264 2317 
L 3533 2694 
C 2893 2906 2176 3501 2163 4218 
L 2157 4410 
L 3437 4410 
L 3437 4819 
L 352 4819 
L 352 4410 
z
M 4813 2266 
L 4813 5146 
L 4326 5146 
L 4326 3853 
L 3238 3853 
L 3238 3450 
L 4326 3450 
L 4326 2266 
L 4813 2266 
z
" transform="scale(0.015625)"/>
     </defs>
     <use xlink:href="#AppleSDGothicNeo-Regular-2460"/>
     <use xlink:href="#AppleSDGothicNeo-Regular-20" transform="translate(86.499985 0)"/>
     <use xlink:href="#AppleSDGothicNeo-Regular-bb38" transform="translate(112.799973 0)"/>
     <use xlink:href="#AppleSDGothicNeo-Regular-c7a5" transform="translate(199.299957 0)"/>
     <use xlink:href="#AppleSDGothicNeo-Regular-20" transform="translate(285.799942 0)"/>
     <use xlink:href="#AppleSDGothicNeo-Regular-b2e8" transform="translate(312.09993 0)"/>
     <use xlink:href="#AppleSDGothicNeo-Regular-c808" transform="translate(398.599915 0)"/>
    </g>
   </g>
   <g id="text_2">
    <!-- 짧고 끊긴 문장 -->
    <g style="fill: #333333" transform="translate(93.078281 101.480312) scale(0.09 -0.09)">
     <defs>
      <path id="AppleSDGothicNeo-Regular-c9e7" d="M 4614 -435 
L 4614 1830 
L 4154 1830 
L 4154 1062 
L 3328 1062 
L 3328 1830 
L 2861 1830 
L 2861 -435 
L 4614 -435 
z
M 2630 -301 
L 2566 83 
C 2246 6 1766 -38 1203 -38 
L 1203 563 
L 2458 563 
L 2458 1805 
L 717 1805 
L 717 1414 
L 1978 1414 
L 1978 922 
L 730 922 
L 730 -416 
L 1254 -416 
C 1773 -410 2310 -365 2630 -301 
z
M 3731 4371 
L 3731 4774 
L 2099 4774 
L 2099 4371 
L 2586 4371 
L 2586 4282 
C 2586 3456 2176 2829 1587 2451 
L 1894 2118 
C 2304 2394 2739 2938 2822 3360 
C 2938 3002 3322 2624 3680 2419 
L 3955 2778 
C 3443 3053 3053 3437 3046 4218 
L 3046 4371 
L 3731 4371 
z
M 1920 4371 
L 1920 4774 
L 288 4774 
L 288 4371 
L 1024 4371 
L 1024 4269 
C 1024 3584 646 3008 96 2688 
C 198 2579 294 2464 397 2362 
C 704 2560 1158 3040 1267 3456 
C 1344 3226 1613 2982 1805 2861 
C 1901 2970 1997 3078 2086 3194 
C 1754 3373 1478 3674 1478 4269 
L 1478 4371 
L 1920 4371 
z
M 5402 3386 
L 5402 3795 
L 4627 3795 
L 4627 5146 
L 4147 5146 
L 4147 2112 
L 4627 2112 
L 4627 3386 
L 5402 3386 
z
M 4154 -64 
L 3328 -64 
L 3328 685 
L 4154 685 
L 4154 -64 
z
" transform="scale(0.015625)"/>
      <path id="AppleSDGothicNeo-Regular-ace0" d="M 5293 358 
L 5293 768 
L 2656 768 
L 2656 2790 
L 2170 2790 
L 2170 768 
L 243 768 
L 243 358 
L 5293 358 
z
M 4614 4563 
L 762 4563 
L 762 4154 
L 4109 4154 
L 4109 3610 
C 4109 2874 4038 2029 3910 1504 
L 4390 1427 
C 4557 2138 4608 3008 4614 3859 
L 4614 4563 
z
" transform="scale(0.015625)"/>
      <path id="AppleSDGothicNeo-Regular-b04a" d="M 4659 4883 
L 2931 4883 
L 2931 4480 
L 4160 4480 
C 4160 4051 4090 3360 3974 2861 
L 2253 2861 
C 2374 3418 2483 4250 2483 4883 
L 704 4883 
L 704 4480 
L 1984 4480 
C 1984 4013 1882 3290 1760 2861 
L 243 2861 
L 243 2464 
L 5293 2464 
L 5293 2861 
L 4461 2861 
C 4576 3437 4659 4224 4659 4883 
z
M 4634 160 
C 4634 557 4243 851 3680 851 
C 3123 851 2733 563 2733 173 
C 2733 -218 3123 -486 3680 -486 
C 4243 -486 4634 -237 4634 160 
z
M 2509 -173 
L 2445 211 
C 2157 134 1658 64 1306 58 
L 1306 1664 
L 851 1664 
L 851 -352 
C 1459 -352 2118 -275 2509 -173 
z
M 4883 1011 
L 4883 1395 
L 2413 1395 
L 2413 1011 
L 4883 1011 
z
M 4301 1638 
L 4301 2029 
L 3008 2029 
L 3008 1638 
L 4301 1638 
z
M 4186 173 
C 4186 6 3987 -115 3686 -115 
C 3379 -115 3181 6 3181 173 
C 3181 346 3379 474 3686 474 
C 3987 474 4186 346 4186 173 
z
" transform="scale(0.015625)"/>
      <path id="AppleSDGothicNeo-Regular-ae34" d="M 5011 -314 
L 5011 96 
L 1734 96 
L 1734 1446 
L 1248 1446 
L 1248 -314 
L 5011 -314 
z
M 4813 1082 
L 4813 5146 
L 4326 5146 
L 4326 1082 
L 4813 1082 
z
M 634 4685 
L 634 4275 
L 2605 4275 
C 2458 3302 1517 2451 339 2144 
L 582 1734 
C 1997 2189 3059 3187 3142 4685 
L 634 4685 
z
" transform="scale(0.015625)"/>
     </defs>
     <use xlink:href="#AppleSDGothicNeo-Regular-c9e7"/>
     <use xlink:href="#AppleSDGothicNeo-Regular-ace0" transform="translate(86.499985 0)"/>
     <use xlink:href="#AppleSDGothicNeo-Regular-20" transform="translate(172.999969 0)"/>
     <use xlink:href="#AppleSDGothicNeo-Regular-b04a" transform="translate(199.299957 0)"/>
     <use xlink:href="#AppleSDGothicNeo-Regular-ae34" transform="translate(285.799942 0)"/>
     <use xlink:href="#AppleSDGothicNeo-Regular-20" transform="translate(372.299927 0)"/>
     <use xlink:href="#AppleSDGothicNeo-Regular-bb38" transform="translate(398.599915 0)"/>
     <use xlink:href="#AppleSDGothicNeo-Regular-c7a5" transform="translate(485.099899 0)"/>
    </g>
   </g>
   <g id="text_3">
    <!-- ② 문단 분절 -->
    <g style="fill: #b71c1c" transform="translate(259.519844 66.803125) scale(0.11 -0.11)">
     <defs>
      <path id="AppleSDGothicNeo-Regular-2461" d="M 5389 2355 
C 5389 3795 4211 4973 2765 4973 
C 1318 4973 147 3795 147 2355 
C 147 902 1318 -269 2765 -269 
C 4211 -269 5389 902 5389 2355 
z
M 5011 2355 
C 5011 1107 3994 90 2765 90 
C 1536 90 525 1107 525 2355 
C 525 3597 1536 4614 2765 4614 
C 3994 4614 5011 3597 5011 2355 
z
M 3827 659 
L 3827 1024 
L 2336 1024 
L 2579 1267 
C 3277 1939 3744 2464 3744 3072 
C 3744 3546 3450 4038 2733 4038 
C 2355 4038 2016 3891 1792 3693 
L 1939 3379 
C 2099 3514 2355 3674 2650 3674 
C 3142 3674 3296 3354 3296 3021 
C 3296 2522 2886 2067 2054 1267 
L 1709 934 
L 1709 659 
L 3827 659 
z
" transform="scale(0.015625)"/>
      <path id="AppleSDGothicNeo-Regular-bd84" d="M 4653 2829 
L 4653 4966 
L 4160 4966 
L 4160 4275 
L 1363 4275 
L 1363 4966 
L 877 4966 
L 877 2829 
L 4653 2829 
z
M 3002 723 
L 3002 1798 
L 5293 1798 
L 5293 2202 
L 243 2202 
L 243 1798 
L 2515 1798 
L 2515 723 
L 3002 723 
z
M 4730 -269 
L 4730 134 
L 1370 134 
L 1370 1248 
L 883 1248 
L 883 -269 
L 4730 -269 
z
M 4160 3238 
L 1363 3238 
L 1363 3872 
L 4160 3872 
L 4160 3238 
z
" transform="scale(0.015625)"/>
     </defs>
     <use xlink:href="#AppleSDGothicNeo-Regular-2461"/>
     <use xlink:href="#AppleSDGothicNeo-Regular-20" transform="translate(86.499985 0)"/>
     <use xlink:href="#AppleSDGothicNeo-Regular-bb38" transform="translate(112.799973 0)"/>
     <use xlink:href="#AppleSDGothicNeo-Regular-b2e8" transform="translate(199.299957 0)"/>
     <use xlink:href="#AppleSDGothicNeo-Regular-20" transform="translate(285.799942 0)"/>
     <use xlink:href="#AppleSDGothicNeo-Regular-bd84" transform="translate(312.09993 0)"/>
     <use xlink:href="#AppleSDGothicNeo-Regular-c808" transform="translate(398.599915 0)"/>
    </g>
   </g>
   <g id="text_4">
    <!-- 지나친 줄바꿈 -->
    <g style="fill: #333333" transform="translate(261.661641 101.453594) scale(0.09 -0.09)">
     <defs>
      <path id="AppleSDGothicNeo-Regular-c9c0" d="M 3699 1248 
C 2931 1664 2221 2566 2221 3610 
L 2221 4179 
L 3526 4179 
L 3526 4582 
L 410 4582 
L 410 4179 
L 1715 4179 
L 1715 3603 
C 1715 2547 1043 1594 224 1114 
L 525 755 
C 1171 1171 1786 1888 1971 2586 
C 2163 1926 2874 1222 3398 883 
L 3699 1248 
z
M 4346 5146 
L 4346 -448 
L 4832 -448 
L 4832 5146 
L 4346 5146 
z
" transform="scale(0.015625)"/>
      <path id="AppleSDGothicNeo-Regular-b098" d="M 3578 1632 
C 2970 1485 1875 1402 915 1395 
L 915 4589 
L 429 4589 
L 429 966 
L 768 966 
C 1619 966 2963 1062 3648 1222 
L 3578 1632 
z
M 4538 5146 
L 4051 5146 
L 4051 -448 
L 4538 -448 
L 4538 2509 
L 5453 2509 
L 5453 2925 
L 4538 2925 
L 4538 5146 
z
" transform="scale(0.015625)"/>
      <path id="AppleSDGothicNeo-Regular-ce5c" d="M 3514 3558 
L 3514 3962 
L 461 3962 
L 461 3558 
L 1734 3558 
L 1734 3514 
C 1734 2797 1037 2099 294 1875 
L 557 1485 
C 1203 1715 1818 2298 1978 2797 
C 2214 2285 2867 1798 3360 1651 
L 3622 2042 
C 2918 2208 2227 2803 2227 3520 
L 2227 3558 
L 3514 3558 
z
M 4947 -314 
L 4947 96 
L 1677 96 
L 1677 1363 
L 1190 1363 
L 1190 -314 
L 4947 -314 
z
M 4813 1037 
L 4813 5146 
L 4326 5146 
L 4326 1037 
L 4813 1037 
z
M 2746 4493 
L 2746 4902 
L 1222 4902 
L 1222 4493 
L 2746 4493 
z
" transform="scale(0.015625)"/>
      <path id="AppleSDGothicNeo-Regular-c904" d="M 4864 -371 
L 4864 32 
L 1331 32 
L 1331 538 
L 4672 538 
L 4672 1779 
L 3002 1779 
L 3002 2336 
L 5293 2336 
L 5293 2733 
L 243 2733 
L 243 2336 
L 2515 2336 
L 2515 1779 
L 845 1779 
L 845 1389 
L 4186 1389 
L 4186 902 
L 845 902 
L 845 -371 
L 4864 -371 
z
M 5030 3424 
C 4256 3494 3245 3859 3059 4493 
L 4819 4493 
L 4819 4896 
L 717 4896 
L 717 4493 
L 2490 4493 
C 2330 3846 1389 3494 525 3418 
L 742 3021 
C 1664 3142 2554 3571 2765 4077 
C 3046 3578 3910 3162 4806 3014 
L 5030 3424 
z
" transform="scale(0.015625)"/>
      <path id="AppleSDGothicNeo-Regular-bc14" d="M 5453 2509 
L 5453 2925 
L 4544 2925 
L 4544 5146 
L 4058 5146 
L 4058 -448 
L 4544 -448 
L 4544 2509 
L 5453 2509 
z
M 3059 941 
L 3059 4672 
L 2566 4672 
L 2566 3251 
L 915 3251 
L 915 4672 
L 429 4672 
L 429 941 
L 3059 941 
z
M 2566 1350 
L 915 1350 
L 915 2848 
L 2566 2848 
L 2566 1350 
z
" transform="scale(0.015625)"/>
      <path id="AppleSDGothicNeo-Regular-afc8" d="M 4704 4922 
L 2995 4922 
L 2995 4518 
L 4205 4518 
C 4205 4038 4147 3456 4019 2976 
L 2330 2976 
C 2458 3520 2554 4282 2554 4922 
L 755 4922 
L 755 4518 
L 2054 4518 
C 2054 4051 1952 3398 1843 2976 
L 243 2976 
L 243 2573 
L 2522 2573 
L 2522 1606 
L 890 1606 
L 890 -371 
L 4653 -371 
L 4653 1606 
L 3008 1606 
L 3008 2573 
L 5293 2573 
L 5293 2976 
L 4506 2976 
C 4627 3558 4717 4307 4704 4922 
z
M 4160 32 
L 1376 32 
L 1376 1210 
L 4160 1210 
L 4160 32 
z
" transform="scale(0.015625)"/>
     </defs>
     <use xlink:href="#AppleSDGothicNeo-Regular-c9c0"/>
     <use xlink:href="#AppleSDGothicNeo-Regular-b098" transform="translate(86.499985 0)"/>
     <use xlink:href="#AppleSDGothicNeo-Regular-ce5c" transform="translate(172.999969 0)"/>
     <use xlink:href="#AppleSDGothicNeo-Regular-20" transform="translate(259.499954 0)"/>
     <use xlink:href="#AppleSDGothicNeo-Regular-c904" transform="translate(285.799942 0)"/>
     <use xlink:href="#AppleSDGothicNeo-Regular-bc14" transform="translate(372.299927 0)"/>
     <use xlink:href="#AppleSDGothicNeo-Regular-afc8" transform="translate(458.799911 0)"/>
    </g>
   </g>
   <g id="text_5">
    <!-- ③ 번역투 -->
    <g style="fill: #b71c1c" transform="translate(433.123672 66.840937) scale(0.11 -0.11)">
     <defs>
      <path id="AppleSDGothicNeo-Regular-2462" d="M 5389 2355 
C 5389 3795 4211 4973 2765 4973 
C 1318 4973 147 3795 147 2355 
C 147 902 1318 -269 2765 -269 
C 4211 -269 5389 902 5389 2355 
z
M 5011 2355 
C 5011 1107 3994 90 2765 90 
C 1536 90 525 1107 525 2355 
C 525 3597 1536 4614 2765 4614 
C 3994 4614 5011 3597 5011 2355 
z
M 1754 864 
C 1914 762 2240 640 2611 640 
C 3411 640 3821 1107 3821 1638 
C 3821 2099 3494 2400 3091 2483 
C 3488 2650 3693 2944 3693 3283 
C 3693 3686 3398 4077 2746 4077 
C 2381 4077 2048 3949 1875 3821 
L 1997 3494 
C 2144 3590 2400 3712 2656 3712 
C 3072 3712 3245 3475 3245 3213 
C 3245 2822 2829 2656 2496 2656 
L 2253 2656 
L 2253 2310 
L 2496 2310 
C 2938 2310 3360 2112 3360 1645 
C 3366 1370 3187 998 2611 998 
C 2298 998 1997 1139 1869 1216 
L 1754 864 
z
" transform="scale(0.015625)"/>
      <path id="AppleSDGothicNeo-Regular-bc88" d="M 4326 3136 
L 4326 1069 
L 4813 1069 
L 4813 5146 
L 4326 5146 
L 4326 3546 
L 3347 3546 
L 3347 3136 
L 4326 3136 
z
M 4954 -262 
L 4954 141 
L 1670 141 
L 1670 1440 
L 1184 1440 
L 1184 -262 
L 4954 -262 
z
M 3053 1933 
L 3053 4774 
L 2560 4774 
L 2560 3757 
L 947 3757 
L 947 4774 
L 454 4774 
L 454 1933 
L 3053 1933 
z
M 2560 2336 
L 947 2336 
L 947 3354 
L 2560 3354 
L 2560 2336 
z
" transform="scale(0.015625)"/>
      <path id="AppleSDGothicNeo-Regular-c5ed" d="M 3309 3955 
L 4326 3955 
L 4326 3040 
L 3309 3040 
L 3302 2637 
L 4326 2637 
L 4326 1850 
L 4813 1850 
L 4813 5146 
L 4326 5146 
L 4326 4365 
L 3302 4365 
L 3309 3955 
z
M 1062 1555 
L 1062 1152 
L 4326 1152 
L 4326 -454 
L 4813 -454 
L 4813 1555 
L 1062 1555 
z
M 1741 4819 
C 954 4819 301 4282 301 3469 
C 301 2662 954 2150 1741 2150 
C 2528 2150 3174 2662 3174 3475 
C 3174 4294 2528 4819 1741 4819 
z
M 1741 4403 
C 2317 4403 2688 4032 2688 3469 
C 2688 2912 2310 2547 1741 2547 
C 1190 2547 787 2912 787 3475 
C 787 4038 1190 4403 1741 4403 
z
" transform="scale(0.015625)"/>
      <path id="AppleSDGothicNeo-Regular-d22c" d="M 4570 3386 
L 4570 3795 
L 1331 3795 
L 1331 4435 
L 4653 4435 
L 4653 4845 
L 845 4845 
L 845 2310 
L 4723 2310 
L 4723 2720 
L 1331 2720 
L 1331 3386 
L 4570 3386 
z
M 3002 -397 
L 3002 1338 
L 5293 1338 
L 5293 1747 
L 243 1747 
L 243 1338 
L 2515 1338 
L 2515 -397 
L 3002 -397 
z
" transform="scale(0.015625)"/>
     </defs>
     <use xlink:href="#AppleSDGothicNeo-Regular-2462"/>
     <use xlink:href="#AppleSDGothicNeo-Regular-20" transform="translate(86.499985 0)"/>
     <use xlink:href="#AppleSDGothicNeo-Regular-bc88" transform="translate(112.799973 0)"/>
     <use xlink:href="#AppleSDGothicNeo-Regular-c5ed" transform="translate(199.299957 0)"/>
     <use xlink:href="#AppleSDGothicNeo-Regular-d22c" transform="translate(285.799942 0)"/>
    </g>
   </g>
   <g id="text_6">
    <!-- 영어 직역 표현 -->
    <g style="fill: #333333" transform="translate(427.878281 101.462734) scale(0.09 -0.09)">
     <defs>
      <path id="AppleSDGothicNeo-Regular-c601" d="M 4819 602 
C 4819 1267 4134 1670 2912 1670 
C 1696 1670 1011 1267 1011 602 
C 1011 -45 1696 -461 2912 -461 
C 4134 -461 4819 -45 4819 602 
z
M 3309 2598 
L 4326 2598 
L 4326 1683 
L 4813 1683 
L 4813 5146 
L 4326 5146 
L 4326 4403 
L 3309 4403 
L 3309 3987 
L 4326 3987 
L 4326 3014 
L 3309 3014 
L 3309 2598 
z
M 4320 602 
C 4320 192 3802 -45 2912 -45 
C 2042 -45 1517 192 1517 602 
C 1517 1018 2042 1261 2912 1261 
C 3802 1261 4320 1018 4320 602 
z
M 1728 4806 
C 941 4806 288 4269 288 3462 
C 288 2650 947 2138 1728 2138 
C 2515 2138 3162 2650 3162 3469 
C 3162 4282 2515 4806 1728 4806 
z
M 1728 4390 
C 2304 4390 2675 4019 2675 3462 
C 2675 2899 2298 2534 1728 2534 
C 1178 2534 774 2899 774 3469 
C 774 4026 1178 4390 1728 4390 
z
" transform="scale(0.015625)"/>
      <path id="AppleSDGothicNeo-Regular-c5b4" d="M 314 2778 
C 314 1587 826 800 1728 800 
C 2579 800 3078 1504 3130 2579 
L 4326 2579 
L 4326 -448 
L 4813 -448 
L 4813 5146 
L 4326 5146 
L 4326 2995 
L 3130 2995 
C 3066 4058 2573 4755 1728 4755 
C 826 4755 314 3962 314 2778 
z
M 2656 2771 
C 2656 1862 2278 1222 1728 1222 
C 1171 1222 800 1862 800 2771 
C 800 3693 1171 4333 1728 4333 
C 2278 4333 2656 3693 2656 2771 
z
" transform="scale(0.015625)"/>
      <path id="AppleSDGothicNeo-Regular-c9c1" d="M 461 4320 
L 1734 4320 
C 1734 4224 1734 4096 1728 4032 
C 1696 3290 992 2566 288 2298 
L 570 1920 
C 1171 2176 1824 2797 1971 3322 
C 2202 2816 2784 2310 3322 2093 
L 3590 2483 
C 2957 2694 2272 3309 2234 4026 
C 2227 4096 2227 4218 2227 4320 
L 3539 4320 
L 3539 4730 
L 461 4730 
L 461 4320 
z
M 1075 1530 
L 1075 1126 
L 4326 1126 
L 4326 -448 
L 4813 -448 
L 4813 1530 
L 1075 1530 
z
M 4813 1824 
L 4813 5139 
L 4326 5139 
L 4326 1824 
L 4813 1824 
z
" transform="scale(0.015625)"/>
      <path id="AppleSDGothicNeo-Regular-d45c" d="M 5293 262 
L 5293 672 
L 3910 672 
L 3910 1862 
L 3424 1862 
L 3424 672 
L 2099 672 
L 2099 1862 
L 1613 1862 
L 1613 672 
L 243 672 
L 243 262 
L 5293 262 
z
M 4774 2150 
L 4774 2560 
L 3904 2560 
L 4096 3885 
L 3616 3962 
L 3450 2560 
L 2074 2560 
L 1971 3968 
L 1466 3917 
L 1613 2560 
L 736 2560 
L 736 2150 
L 4774 2150 
z
M 4781 4243 
L 4781 4653 
L 730 4653 
L 730 4243 
L 4781 4243 
z
" transform="scale(0.015625)"/>
      <path id="AppleSDGothicNeo-Regular-d604" d="M 4934 -262 
L 4934 141 
L 1664 141 
L 1664 1210 
L 1178 1210 
L 1178 -262 
L 4934 -262 
z
M 3392 3110 
L 4326 3110 
L 4326 2394 
L 3392 2394 
L 3392 1997 
L 4326 1997 
L 4326 947 
L 4813 947 
L 4813 5146 
L 4326 5146 
L 4326 3507 
L 3392 3507 
L 3392 3110 
z
M 2669 4518 
L 2669 4954 
L 1056 4954 
L 1056 4518 
L 2669 4518 
z
M 3450 3686 
L 3450 4083 
L 262 4083 
L 262 3686 
L 3450 3686 
z
M 3213 2445 
C 3213 3040 2643 3411 1882 3411 
C 1126 3411 550 3040 550 2445 
C 550 1862 1133 1472 1882 1472 
C 2643 1472 3213 1862 3213 2445 
z
M 2739 2445 
C 2739 2093 2355 1869 1882 1869 
C 1408 1869 1030 2093 1030 2445 
C 1030 2797 1408 3021 1882 3021 
C 2355 3021 2739 2797 2739 2445 
z
" transform="scale(0.015625)"/>
     </defs>
     <use xlink:href="#AppleSDGothicNeo-Regular-c601"/>
     <use xlink:href="#AppleSDGothicNeo-Regular-c5b4" transform="translate(86.499985 0)"/>
     <use xlink:href="#AppleSDGothicNeo-Regular-20" transform="translate(172.999969 0)"/>
     <use xlink:href="#AppleSDGothicNeo-Regular-c9c1" transform="translate(199.299957 0)"/>
     <use xlink:href="#AppleSDGothicNeo-Regular-c5ed" transform="translate(285.799942 0)"/>
     <use xlink:href="#AppleSDGothicNeo-Regular-20" transform="translate(372.299927 0)"/>
     <use xlink:href="#AppleSDGothicNeo-Regular-d45c" transform="translate(398.599915 0)"/>
     <use xlink:href="#AppleSDGothicNeo-Regular-d604" transform="translate(485.099899 0)"/>
    </g>
   </g>
   <g id="text_7">
    <!-- ④ 슬롭 워드 -->
    <g style="fill: #b71c1c" transform="translate(92.119844 187.795781) scale(0.11 -0.11)">
     <defs>
      <path id="AppleSDGothicNeo-Regular-2463" d="M 5389 2355 
C 5389 3795 4211 4973 2765 4973 
C 1318 4973 147 3795 147 2355 
C 147 902 1318 -269 2765 -269 
C 4211 -269 5389 902 5389 2355 
z
M 5011 2355 
C 5011 1107 3994 90 2765 90 
C 1536 90 525 1107 525 2355 
C 525 3597 1536 4614 2765 4614 
C 3994 4614 5011 3597 5011 2355 
z
M 3366 685 
L 3366 1594 
L 3834 1594 
L 3834 1946 
L 3366 1946 
L 3366 4006 
L 2893 4006 
L 1408 1882 
L 1408 1594 
L 2950 1594 
L 2950 685 
L 3366 685 
z
M 1856 1946 
L 2682 3091 
C 2758 3219 2842 3347 2950 3558 
C 2957 3379 2950 3238 2950 3066 
L 2950 1946 
L 1856 1946 
z
" transform="scale(0.015625)"/>
      <path id="AppleSDGothicNeo-Regular-c2ac" d="M 5293 2304 
L 5293 2707 
L 243 2707 
L 243 2304 
L 5293 2304 
z
M 4845 -410 
L 4845 -13 
L 1370 -13 
L 1370 531 
L 4634 531 
L 4634 1773 
L 851 1773 
L 851 1370 
L 4147 1370 
L 4147 896 
L 883 896 
L 883 -410 
L 4845 -410 
z
M 5018 3501 
C 4160 3578 3027 4160 3027 4915 
L 3027 5075 
L 2522 5075 
L 2522 4915 
C 2522 4166 1510 3597 538 3494 
L 755 3091 
C 1734 3251 2547 3770 2765 4314 
C 3034 3782 3872 3258 4806 3091 
L 5018 3501 
z
" transform="scale(0.015625)"/>
      <path id="AppleSDGothicNeo-Regular-b86d" d="M 4730 2790 
L 4730 3168 
L 1402 3168 
L 1402 3699 
L 4614 3699 
L 4614 4928 
L 896 4928 
L 896 4544 
L 4128 4544 
L 4128 4064 
L 915 4064 
L 915 2790 
L 2515 2790 
L 2515 2259 
L 243 2259 
L 243 1856 
L 5293 1856 
L 5293 2259 
L 3002 2259 
L 3002 2790 
L 4730 2790 
z
M 4627 -371 
L 4627 1594 
L 4141 1594 
L 4141 992 
L 1395 992 
L 1395 1581 
L 909 1581 
L 909 -371 
L 4627 -371 
z
M 4141 32 
L 1395 32 
L 1395 602 
L 4141 602 
L 4141 32 
z
" transform="scale(0.015625)"/>
      <path id="AppleSDGothicNeo-Regular-c6cc" d="M 3520 3712 
C 3520 4429 2918 4915 2054 4915 
C 1184 4915 582 4429 582 3712 
C 582 3014 1184 2528 2054 2528 
C 2912 2528 3520 3014 3520 3712 
z
M 4832 -448 
L 4832 5146 
L 4352 5146 
L 4352 1293 
L 3072 1293 
L 3072 890 
L 4352 890 
L 4352 -448 
L 4832 -448 
z
M 3046 3712 
C 3046 3219 2611 2938 2054 2938 
C 1491 2938 1050 3219 1050 3712 
C 1050 4224 1491 4506 2054 4506 
C 2611 4506 3046 4224 3046 3712 
z
M 2266 -282 
L 2266 1722 
C 2886 1754 3565 1805 3987 1862 
L 3949 2246 
C 3405 2182 2765 2144 2067 2118 
C 1453 2093 845 2086 179 2086 
L 250 1664 
C 755 1670 1254 1670 1779 1696 
L 1779 -282 
L 2266 -282 
z
" transform="scale(0.015625)"/>
      <path id="AppleSDGothicNeo-Regular-b4dc" d="M 4685 1958 
L 4685 2362 
L 1363 2362 
L 1363 4186 
L 4634 4186 
L 4634 4589 
L 877 4589 
L 877 1958 
L 4685 1958 
z
M 5293 320 
L 5293 730 
L 243 730 
L 243 320 
L 5293 320 
z
" transform="scale(0.015625)"/>
     </defs>
     <use xlink:href="#AppleSDGothicNeo-Regular-2463"/>
     <use xlink:href="#AppleSDGothicNeo-Regular-20" transform="translate(86.499985 0)"/>
     <use xlink:href="#AppleSDGothicNeo-Regular-c2ac" transform="translate(112.799973 0)"/>
     <use xlink:href="#AppleSDGothicNeo-Regular-b86d" transform="translate(199.299957 0)"/>
     <use xlink:href="#AppleSDGothicNeo-Regular-20" transform="translate(285.799942 0)"/>
     <use xlink:href="#AppleSDGothicNeo-Regular-c6cc" transform="translate(312.09993 0)"/>
     <use xlink:href="#AppleSDGothicNeo-Regular-b4dc" transform="translate(398.599915 0)"/>
    </g>
   </g>
   <g id="text_8">
    <!-- AI 과용 단어 -->
    <g style="fill: #333333" transform="translate(96.975 222.413594) scale(0.09 -0.09)">
     <defs>
      <path id="AppleSDGothicNeo-Regular-41" d="M 122 269 
L 608 269 
L 1050 1523 
L 2771 1523 
L 3226 269 
L 3757 269 
L 2189 4563 
L 1696 4563 
L 122 269 
z
M 1901 3885 
L 1914 3885 
L 2611 1952 
L 1197 1952 
L 1901 3885 
z
" transform="scale(0.015625)"/>
      <path id="AppleSDGothicNeo-Regular-49" d="M 576 269 
L 1082 269 
L 1082 4563 
L 576 4563 
L 576 269 
z
" transform="scale(0.015625)"/>
      <path id="AppleSDGothicNeo-Regular-acfc" d="M 5485 2394 
L 5485 2810 
L 4576 2810 
L 4576 5146 
L 4090 5146 
L 4090 -448 
L 4576 -448 
L 4576 2394 
L 5485 2394 
z
M 3770 966 
L 3731 1370 
C 3232 1293 2528 1242 1856 1210 
L 1856 2963 
L 1363 2963 
L 1363 1197 
C 947 1184 448 1190 141 1190 
L 211 762 
C 678 762 1299 781 1862 806 
C 2406 838 3232 896 3770 966 
z
M 3347 4557 
L 422 4557 
L 422 4147 
L 2854 4147 
C 2880 3520 2803 2598 2682 2054 
L 3149 1990 
C 3270 2534 3360 3699 3347 4557 
z
" transform="scale(0.015625)"/>
      <path id="AppleSDGothicNeo-Regular-c6a9" d="M 4723 3968 
C 4723 4608 3994 5024 2765 5024 
C 1542 5024 819 4608 819 3968 
C 819 3597 1069 3296 1530 3117 
L 1530 2317 
L 243 2317 
L 243 1914 
L 5293 1914 
L 5293 2317 
L 3987 2317 
L 3987 3110 
C 4461 3290 4723 3590 4723 3968 
z
M 4762 570 
C 4762 1210 4006 1562 2771 1562 
C 1549 1562 800 1210 800 570 
C 800 -70 1549 -416 2778 -416 
C 4006 -416 4762 -70 4762 570 
z
M 4250 3968 
C 4250 3565 3661 3315 2765 3315 
C 1869 3315 1293 3565 1293 3968 
C 1293 4384 1869 4634 2765 4634 
C 3661 4634 4250 4384 4250 3968 
z
M 2771 1139 
C 3674 1139 4269 941 4269 570 
C 4269 205 3680 6 2771 6 
C 1882 6 1286 205 1286 570 
C 1286 941 1882 1139 2771 1139 
z
M 2765 2925 
C 3040 2925 3277 2944 3501 2976 
L 3501 2317 
L 2016 2317 
L 2016 2982 
C 2240 2944 2490 2925 2765 2925 
z
" transform="scale(0.015625)"/>
     </defs>
     <use xlink:href="#AppleSDGothicNeo-Regular-41"/>
     <use xlink:href="#AppleSDGothicNeo-Regular-49" transform="translate(60.499985 0)"/>
     <use xlink:href="#AppleSDGothicNeo-Regular-20" transform="translate(86.399979 0)"/>
     <use xlink:href="#AppleSDGothicNeo-Regular-acfc" transform="translate(112.699966 0)"/>
     <use xlink:href="#AppleSDGothicNeo-Regular-c6a9" transform="translate(199.199951 0)"/>
     <use xlink:href="#AppleSDGothicNeo-Regular-20" transform="translate(285.699936 0)"/>
     <use xlink:href="#AppleSDGothicNeo-Regular-b2e8" transform="translate(311.999924 0)"/>
     <use xlink:href="#AppleSDGothicNeo-Regular-c5b4" transform="translate(398.499908 0)"/>
    </g>
   </g>
   <g id="text_9">
    <!-- ⑤ 종결 단조 -->
    <g style="fill: #b71c1c" transform="translate(259.519844 187.784609) scale(0.11 -0.11)">
     <defs>
      <path id="AppleSDGothicNeo-Regular-2464" d="M 5389 2355 
C 5389 3795 4211 4973 2765 4973 
C 1318 4973 147 3795 147 2355 
C 147 902 1318 -269 2765 -269 
C 4211 -269 5389 902 5389 2355 
z
M 5011 2355 
C 5011 1107 3994 90 2765 90 
C 1536 90 525 1107 525 2355 
C 525 3597 1536 4614 2765 4614 
C 3994 4614 5011 3597 5011 2355 
z
M 3782 4038 
L 2189 4038 
L 1978 2445 
C 2099 2464 2253 2477 2451 2477 
C 3104 2477 3392 2163 3392 1747 
C 3398 1299 3034 1018 2611 1018 
C 2310 1018 2042 1126 1894 1216 
L 1779 864 
C 1946 762 2246 659 2611 659 
C 3328 659 3840 1146 3840 1792 
C 3840 2221 3616 2509 3360 2650 
C 3162 2771 2918 2829 2656 2829 
C 2534 2829 2458 2822 2381 2803 
L 2515 3674 
L 3782 3674 
L 3782 4038 
z
" transform="scale(0.015625)"/>
      <path id="AppleSDGothicNeo-Regular-c885" d="M 4730 531 
C 4730 1152 4019 1485 2765 1485 
C 1517 1485 813 1126 813 531 
C 813 -77 1517 -435 2765 -435 
C 4019 -435 4730 -83 4730 531 
z
M 5043 3277 
C 4262 3354 3232 3789 3053 4454 
L 4832 4454 
L 4832 4858 
L 704 4858 
L 704 4454 
L 2490 4454 
C 2323 3795 1370 3354 506 3270 
L 730 2867 
C 1715 3008 2547 3507 2765 4026 
C 3046 3514 3885 3021 4819 2867 
L 5043 3277 
z
M 2765 1094 
C 3674 1094 4237 890 4237 531 
C 4237 160 3674 -38 2765 -38 
C 1862 -38 1306 160 1306 531 
C 1306 890 1862 1094 2765 1094 
z
M 5293 1939 
L 5293 2349 
L 3008 2349 
L 3008 3194 
L 2522 3194 
L 2522 2349 
L 243 2349 
L 243 1939 
L 5293 1939 
z
" transform="scale(0.015625)"/>
      <path id="AppleSDGothicNeo-Regular-acb0" d="M 5024 -416 
L 5024 -32 
L 1683 -32 
L 1683 640 
L 4813 640 
L 4813 1990 
L 1178 1990 
L 1178 1606 
L 4326 1606 
L 4326 992 
L 1197 992 
L 1197 -416 
L 5024 -416 
z
M 3104 4838 
L 550 4838 
L 550 4429 
L 2547 4429 
C 2362 3514 1542 2771 314 2464 
L 557 2067 
C 1952 2470 2989 3366 3104 4838 
z
M 3162 3936 
L 4326 3936 
L 4326 3290 
L 3091 3290 
L 3091 2899 
L 4326 2899 
L 4326 2298 
L 4813 2298 
L 4813 5146 
L 4326 5146 
L 4326 4320 
L 3162 4320 
L 3162 3936 
z
" transform="scale(0.015625)"/>
      <path id="AppleSDGothicNeo-Regular-c870" d="M 4870 4186 
L 4870 4576 
L 672 4576 
L 672 4186 
L 2515 4186 
L 2515 4070 
C 2515 3174 1331 2368 448 2214 
L 678 1805 
C 1606 2042 2534 2726 2765 3360 
C 3034 2746 3955 2048 4851 1792 
L 5101 2202 
C 4262 2368 3027 3187 3027 4070 
L 3027 4186 
L 4870 4186 
z
M 5293 262 
L 5293 672 
L 3002 672 
L 3002 2067 
L 2515 2067 
L 2515 672 
L 243 672 
L 243 262 
L 5293 262 
z
" transform="scale(0.015625)"/>
     </defs>
     <use xlink:href="#AppleSDGothicNeo-Regular-2464"/>
     <use xlink:href="#AppleSDGothicNeo-Regular-20" transform="translate(86.499985 0)"/>
     <use xlink:href="#AppleSDGothicNeo-Regular-c885" transform="translate(112.799973 0)"/>
     <use xlink:href="#AppleSDGothicNeo-Regular-acb0" transform="translate(199.299957 0)"/>
     <use xlink:href="#AppleSDGothicNeo-Regular-20" transform="translate(285.799942 0)"/>
     <use xlink:href="#AppleSDGothicNeo-Regular-b2e8" transform="translate(312.09993 0)"/>
     <use xlink:href="#AppleSDGothicNeo-Regular-c870" transform="translate(398.599915 0)"/>
    </g>
   </g>
   <g id="text_10">
    <!-- ~합니다만 반복 -->
    <g style="fill: #333333" transform="translate(259.263281 222.440312) scale(0.09 -0.09)">
     <defs>
      <path id="AppleSDGothicNeo-Regular-7e" d="M 1843 2547 
C 1670 2688 1434 2867 1184 2867 
C 800 2867 474 2643 326 1984 
L 704 1856 
C 800 2202 915 2419 1133 2419 
C 1312 2419 1434 2323 1632 2150 
C 1651 2131 1664 2106 1690 2086 
C 1920 1907 2138 1792 2387 1792 
C 2701 1792 3110 2074 3206 2688 
L 2829 2797 
C 2778 2464 2630 2240 2413 2240 
C 2202 2240 2054 2368 1843 2547 
z
" transform="scale(0.015625)"/>
      <path id="AppleSDGothicNeo-Regular-d569" d="M 5395 3155 
L 5395 3565 
L 4544 3565 
L 4544 5146 
L 4058 5146 
L 4058 1901 
L 4544 1901 
L 4544 3155 
L 5395 3155 
z
M 4544 -410 
L 4544 1632 
L 4058 1632 
L 4058 1030 
L 1510 1030 
L 1510 1626 
L 1024 1626 
L 1024 -410 
L 4544 -410 
z
M 4058 0 
L 1510 0 
L 1510 627 
L 4058 627 
L 4058 0 
z
M 2656 4659 
L 2656 5069 
L 1043 5069 
L 1043 4659 
L 2656 4659 
z
M 3475 3872 
L 3475 4269 
L 218 4269 
L 218 3872 
L 3475 3872 
z
M 3149 2739 
C 3149 3302 2605 3648 1850 3648 
C 1075 3648 550 3302 550 2739 
C 550 2189 1088 1837 1850 1837 
C 2605 1837 3149 2189 3149 2739 
z
M 2656 2739 
C 2656 2419 2285 2221 1850 2221 
C 1421 2221 1030 2419 1030 2739 
C 1030 3066 1414 3258 1850 3258 
C 2285 3258 2656 3066 2656 2739 
z
" transform="scale(0.015625)"/>
      <path id="AppleSDGothicNeo-Regular-b2c8" d="M 4774 5146 
L 4294 5146 
L 4294 -448 
L 4774 -448 
L 4774 5146 
z
M 3725 1606 
C 3059 1459 1766 1357 1050 1357 
L 1050 4563 
L 557 4563 
L 557 928 
L 806 928 
C 1664 928 3123 1037 3770 1184 
L 3725 1606 
z
" transform="scale(0.015625)"/>
      <path id="AppleSDGothicNeo-Regular-b2e4" d="M 4557 5146 
L 4070 5146 
L 4070 -448 
L 4557 -448 
L 4557 2515 
L 5466 2515 
L 5466 2925 
L 4557 2925 
L 4557 5146 
z
M 954 1338 
L 954 4154 
L 3117 4154 
L 3117 4563 
L 461 4563 
L 461 922 
L 1011 922 
C 1984 922 3091 998 3693 1114 
L 3642 1517 
C 3104 1402 1997 1338 1274 1338 
L 954 1338 
z
" transform="scale(0.015625)"/>
      <path id="AppleSDGothicNeo-Regular-b9cc" d="M 3085 2061 
L 3085 4653 
L 435 4653 
L 435 2061 
L 3085 2061 
z
M 2598 2464 
L 922 2464 
L 922 4250 
L 2598 4250 
L 2598 2464 
z
M 5395 3066 
L 5395 3475 
L 4544 3475 
L 4544 5146 
L 4058 5146 
L 4058 1082 
L 4544 1082 
L 4544 3066 
L 5395 3066 
z
M 4762 -256 
L 4762 147 
L 1530 147 
L 1530 1466 
L 1043 1466 
L 1043 -256 
L 4762 -256 
z
" transform="scale(0.015625)"/>
      <path id="AppleSDGothicNeo-Regular-bc18" d="M 5395 3072 
L 5395 3482 
L 4544 3482 
L 4544 5146 
L 4058 5146 
L 4058 1088 
L 4544 1088 
L 4544 3072 
L 5395 3072 
z
M 4762 -256 
L 4762 147 
L 1472 147 
L 1472 1466 
L 986 1466 
L 986 -256 
L 4762 -256 
z
M 3059 1933 
L 3059 4768 
L 2566 4768 
L 2566 3808 
L 902 3808 
L 902 4768 
L 416 4768 
L 416 1933 
L 3059 1933 
z
M 2566 2330 
L 902 2330 
L 902 3411 
L 2566 3411 
L 2566 2330 
z
" transform="scale(0.015625)"/>
      <path id="AppleSDGothicNeo-Regular-bcf5" d="M 4659 2893 
L 4659 5011 
L 4166 5011 
L 4166 4333 
L 1370 4333 
L 1370 5011 
L 883 5011 
L 883 2893 
L 2515 2893 
L 2515 2291 
L 243 2291 
L 243 1888 
L 5293 1888 
L 5293 2291 
L 3002 2291 
L 3002 2893 
L 4659 2893 
z
M 794 1331 
L 794 928 
L 4186 928 
L 4186 -486 
L 4672 -486 
L 4672 1331 
L 794 1331 
z
M 4166 3296 
L 1370 3296 
L 1370 3930 
L 4166 3930 
L 4166 3296 
z
" transform="scale(0.015625)"/>
     </defs>
     <use xlink:href="#AppleSDGothicNeo-Regular-7e"/>
     <use xlink:href="#AppleSDGothicNeo-Regular-d569" transform="translate(53.299988 0)"/>
     <use xlink:href="#AppleSDGothicNeo-Regular-b2c8" transform="translate(139.799973 0)"/>
     <use xlink:href="#AppleSDGothicNeo-Regular-b2e4" transform="translate(226.299957 0)"/>
     <use xlink:href="#AppleSDGothicNeo-Regular-b9cc" transform="translate(312.799942 0)"/>
     <use xlink:href="#AppleSDGothicNeo-Regular-20" transform="translate(399.299927 0)"/>
     <use xlink:href="#AppleSDGothicNeo-Regular-bc18" transform="translate(425.599915 0)"/>
     <use xlink:href="#AppleSDGothicNeo-Regular-bcf5" transform="translate(512.099899 0)"/>
    </g>
   </g>
   <g id="text_11">
    <!-- ⑥ 메타 해설 -->
    <g style="fill: #b71c1c" transform="translate(426.919844 187.795781) scale(0.11 -0.11)">
     <defs>
      <path id="AppleSDGothicNeo-Regular-2465" d="M 5389 2355 
C 5389 3795 4211 4973 2765 4973 
C 1318 4973 147 3795 147 2355 
C 147 902 1318 -269 2765 -269 
C 4211 -269 5389 902 5389 2355 
z
M 5011 2355 
C 5011 1107 3994 90 2765 90 
C 1536 90 525 1107 525 2355 
C 525 3597 1536 4614 2765 4614 
C 3994 4614 5011 3597 5011 2355 
z
M 3514 4070 
C 3430 4070 3302 4064 3174 4032 
C 2771 3974 2381 3802 2125 3552 
C 1792 3226 1568 2707 1568 2054 
C 1568 1178 2029 634 2733 634 
C 3424 634 3834 1197 3834 1805 
C 3834 2458 3430 2886 2835 2886 
C 2477 2886 2195 2714 2035 2515 
C 2112 3059 2477 3571 3162 3674 
C 3296 3693 3411 3699 3514 3693 
L 3514 4070 
z
M 2733 979 
C 2259 979 2003 1389 2003 1939 
C 2003 2016 2022 2080 2048 2131 
C 2170 2374 2426 2541 2701 2541 
C 3110 2541 3386 2266 3386 1773 
C 3386 1267 3187 979 2733 979 
z
" transform="scale(0.015625)"/>
      <path id="AppleSDGothicNeo-Regular-ba54" d="M 2630 1024 
L 2630 2650 
L 3418 2650 
L 3418 -166 
L 3891 -166 
L 3891 5011 
L 3418 5011 
L 3418 3059 
L 2630 3059 
L 2630 4531 
L 410 4531 
L 410 1024 
L 2630 1024 
z
M 2157 1427 
L 883 1427 
L 883 4128 
L 2157 4128 
L 2157 1427 
z
M 4960 -448 
L 4960 5146 
L 4480 5146 
L 4480 -448 
L 4960 -448 
z
" transform="scale(0.015625)"/>
      <path id="AppleSDGothicNeo-Regular-d0c0" d="M 941 1286 
L 941 2643 
L 3008 2643 
L 3008 3040 
L 941 3040 
L 941 4224 
L 3130 4224 
L 3130 4627 
L 448 4627 
L 448 864 
L 909 864 
C 1939 864 3008 954 3635 1069 
L 3578 1478 
C 3027 1350 1914 1286 941 1286 
z
M 4538 5146 
L 4058 5146 
L 4058 -448 
L 4538 -448 
L 4538 2515 
L 5440 2515 
L 5440 2925 
L 4538 2925 
L 4538 5146 
z
" transform="scale(0.015625)"/>
      <path id="AppleSDGothicNeo-Regular-d574" d="M 4960 -448 
L 4960 5146 
L 4480 5146 
L 4480 2861 
L 3808 2861 
L 3808 5011 
L 3334 5011 
L 3334 -166 
L 3808 -166 
L 3808 2451 
L 4480 2451 
L 4480 -448 
L 4960 -448 
z
M 2912 1939 
C 2912 2611 2413 3059 1690 3059 
C 973 3059 467 2618 467 1939 
C 467 1299 973 826 1690 826 
C 2413 826 2912 1267 2912 1939 
z
M 2445 1939 
C 2445 1517 2131 1229 1690 1229 
C 1248 1229 941 1504 941 1939 
C 941 2368 1248 2650 1690 2650 
C 2131 2650 2445 2368 2445 1939 
z
M 3014 3379 
L 3014 3782 
L 230 3782 
L 230 3379 
L 3014 3379 
z
M 2413 4294 
L 2413 4717 
L 883 4717 
L 883 4294 
L 2413 4294 
z
" transform="scale(0.015625)"/>
      <path id="AppleSDGothicNeo-Regular-c124" d="M 4326 3622 
L 4326 2259 
L 4813 2259 
L 4813 5146 
L 4326 5146 
L 4326 4032 
L 3181 4032 
L 3181 3622 
L 4326 3622 
z
M 3488 2797 
C 2893 2995 2106 3584 2106 4493 
L 2106 4954 
L 1613 4954 
L 1613 4474 
C 1613 3578 934 2918 198 2630 
L 499 2266 
C 1165 2579 1696 3085 1862 3661 
C 2131 3072 2675 2637 3213 2419 
L 3488 2797 
z
M 5024 -410 
L 5024 -6 
L 1690 -6 
L 1690 602 
L 4819 602 
L 4819 1952 
L 1171 1952 
L 1171 1549 
L 4333 1549 
L 4333 973 
L 1203 973 
L 1203 -410 
L 5024 -410 
z
" transform="scale(0.015625)"/>
     </defs>
     <use xlink:href="#AppleSDGothicNeo-Regular-2465"/>
     <use xlink:href="#AppleSDGothicNeo-Regular-20" transform="translate(86.499985 0)"/>
     <use xlink:href="#AppleSDGothicNeo-Regular-ba54" transform="translate(112.799973 0)"/>
     <use xlink:href="#AppleSDGothicNeo-Regular-d0c0" transform="translate(199.299957 0)"/>
     <use xlink:href="#AppleSDGothicNeo-Regular-20" transform="translate(285.799942 0)"/>
     <use xlink:href="#AppleSDGothicNeo-Regular-d574" transform="translate(312.09993 0)"/>
     <use xlink:href="#AppleSDGothicNeo-Regular-c124" transform="translate(398.599915 0)"/>
    </g>
   </g>
   <g id="text_12">
    <!-- 투어 가이드 문장 -->
    <g style="fill: #333333" transform="translate(423.985781 222.413594) scale(0.09 -0.09)">
     <defs>
      <path id="AppleSDGothicNeo-Regular-ac00" d="M 4544 5146 
L 4058 5146 
L 4058 -448 
L 4544 -448 
L 4544 2400 
L 5459 2400 
L 5459 2816 
L 4544 2816 
L 4544 5146 
z
M 3091 4544 
L 461 4544 
L 461 4134 
L 2566 4134 
C 2464 2874 1664 1696 269 1050 
L 570 666 
C 2010 1414 3059 2726 3091 4544 
z
" transform="scale(0.015625)"/>
      <path id="AppleSDGothicNeo-Regular-c774" d="M 4845 -448 
L 4845 5146 
L 4358 5146 
L 4358 -448 
L 4845 -448 
z
M 429 2752 
C 429 1562 954 768 1869 768 
C 2797 768 3315 1562 3315 2746 
C 3315 3930 2797 4723 1869 4723 
C 954 4723 429 3930 429 2752 
z
M 2854 2746 
C 2854 1830 2464 1190 1869 1190 
C 1280 1190 890 1830 890 2746 
C 890 3667 1280 4301 1869 4301 
C 2464 4301 2854 3667 2854 2746 
z
" transform="scale(0.015625)"/>
     </defs>
     <use xlink:href="#AppleSDGothicNeo-Regular-d22c"/>
     <use xlink:href="#AppleSDGothicNeo-Regular-c5b4" transform="translate(86.499985 0)"/>
     <use xlink:href="#AppleSDGothicNeo-Regular-20" transform="translate(172.999969 0)"/>
     <use xlink:href="#AppleSDGothicNeo-Regular-ac00" transform="translate(199.299957 0)"/>
     <use xlink:href="#AppleSDGothicNeo-Regular-c774" transform="translate(285.799942 0)"/>
     <use xlink:href="#AppleSDGothicNeo-Regular-b4dc" transform="translate(372.299927 0)"/>
     <use xlink:href="#AppleSDGothicNeo-Regular-20" transform="translate(458.799911 0)"/>
     <use xlink:href="#AppleSDGothicNeo-Regular-bb38" transform="translate(485.099899 0)"/>
     <use xlink:href="#AppleSDGothicNeo-Regular-c7a5" transform="translate(571.599884 0)"/>
    </g>
   </g>
   <g id="text_13">
    <!-- AI 글의 6가지 전형적 문제 -->
    <g transform="translate(214.415 17.95375) scale(0.14 -0.14)">
     <defs>
      <path id="AppleSDGothicNeo-Regular-ae00" d="M 4877 -371 
L 4877 19 
L 1331 19 
L 1331 659 
L 4659 659 
L 4659 2010 
L 800 2010 
L 800 1619 
L 4173 1619 
L 4173 1018 
L 845 1018 
L 845 -371 
L 4877 -371 
z
M 4666 4845 
L 858 4845 
L 858 4442 
L 4166 4442 
C 4166 3898 4115 3443 4006 3034 
L 243 3034 
L 243 2637 
L 5293 2637 
L 5293 3034 
L 4493 3034 
C 4608 3546 4666 4096 4666 4845 
z
" transform="scale(0.015625)"/>
      <path id="AppleSDGothicNeo-Regular-c758" d="M 4352 5146 
L 4352 -448 
L 4838 -448 
L 4838 5146 
L 4352 5146 
z
M 3469 3379 
C 3469 4198 2842 4710 2016 4710 
C 1203 4710 557 4166 557 3379 
C 557 2630 1190 2080 2016 2080 
C 2822 2080 3469 2586 3469 3379 
z
M 2995 3379 
C 2995 2854 2547 2490 2016 2490 
C 1472 2490 1030 2861 1030 3379 
C 1030 3904 1478 4294 2016 4294 
C 2560 4294 2995 3942 2995 3379 
z
M 4026 973 
L 3981 1370 
C 3571 1318 2848 1274 2067 1248 
C 1389 1210 730 1197 250 1203 
L 339 774 
C 762 781 1376 800 2035 832 
C 2746 864 3546 915 4026 973 
z
" transform="scale(0.015625)"/>
      <path id="AppleSDGothicNeo-Regular-36" d="M 1837 192 
C 2707 192 3232 826 3232 1645 
C 3232 2464 2656 2957 1939 2957 
C 1459 2957 1107 2733 877 2496 
C 941 3834 1350 4205 2080 4205 
C 2355 4205 2733 4096 2886 4006 
L 3034 4378 
C 2854 4486 2458 4634 2029 4634 
C 1037 4634 365 3968 365 2451 
L 365 2118 
C 365 896 877 192 1837 192 
z
M 1830 614 
C 1146 614 877 1139 877 1939 
L 877 1984 
C 1056 2240 1427 2528 1837 2528 
C 2355 2528 2720 2266 2720 1594 
C 2720 979 2387 614 1830 614 
z
" transform="scale(0.015625)"/>
      <path id="AppleSDGothicNeo-Regular-c804" d="M 403 4243 
L 1664 4243 
C 1664 3994 1664 3872 1658 3795 
C 1632 3059 928 2349 224 2074 
L 506 1696 
C 1107 1958 1754 2566 1907 3085 
C 2138 2579 2733 2048 3264 1830 
L 3539 2221 
C 2899 2432 2208 3072 2163 3789 
C 2157 3872 2157 3987 2157 4243 
L 3411 4243 
L 3411 4653 
L 403 4653 
L 403 4243 
z
M 4813 1050 
L 4813 5146 
L 4326 5146 
L 4326 3590 
L 3213 3590 
L 3213 3181 
L 4326 3181 
L 4326 1050 
L 4813 1050 
z
M 4934 -262 
L 4934 147 
L 1651 147 
L 1651 1459 
L 1165 1459 
L 1165 -262 
L 4934 -262 
z
" transform="scale(0.015625)"/>
      <path id="AppleSDGothicNeo-Regular-d615" d="M 4838 525 
C 4838 1120 4192 1491 2976 1491 
C 1760 1491 1133 1126 1133 525 
C 1133 -70 1760 -435 2976 -435 
C 4192 -435 4838 -70 4838 525 
z
M 2976 1094 
C 3827 1094 4333 883 4333 525 
C 4333 160 3827 -38 2976 -38 
C 2131 -38 1638 166 1638 525 
C 1638 877 2131 1094 2976 1094 
z
M 4813 1491 
L 4813 5146 
L 4326 5146 
L 4326 3686 
L 3341 3686 
L 3341 3290 
L 4326 3290 
L 4326 2650 
L 3341 2650 
L 3341 2246 
L 4326 2246 
L 4326 1491 
L 4813 1491 
z
M 2643 4621 
L 2643 5037 
L 1043 5037 
L 1043 4621 
L 2643 4621 
z
M 3386 3827 
L 3386 4218 
L 262 4218 
L 262 3827 
L 3386 3827 
z
M 3155 2611 
C 3155 3187 2605 3539 1862 3539 
C 1133 3539 582 3187 582 2611 
C 582 2042 1139 1683 1862 1683 
C 2605 1683 3155 2048 3155 2611 
z
M 2669 2611 
C 2669 2266 2304 2074 1862 2074 
C 1440 2074 1062 2266 1062 2611 
C 1062 2957 1434 3149 1862 3149 
C 2304 3149 2669 2957 2669 2611 
z
" transform="scale(0.015625)"/>
      <path id="AppleSDGothicNeo-Regular-c801" d="M 390 4301 
L 1664 4301 
C 1664 4192 1664 4038 1658 3968 
C 1632 3174 922 2464 218 2195 
L 480 1805 
C 1082 2067 1754 2739 1907 3264 
C 2138 2758 2720 2202 3258 1984 
L 3526 2374 
C 2886 2586 2208 3206 2163 3968 
C 2157 4038 2157 4186 2157 4301 
L 3405 4301 
L 3405 4710 
L 390 4710 
L 390 4301 
z
M 1088 1517 
L 1088 1114 
L 4326 1114 
L 4326 -448 
L 4819 -448 
L 4819 1517 
L 1088 1517 
z
M 4813 1811 
L 4813 5146 
L 4326 5146 
L 4326 3654 
L 3206 3654 
L 3206 3251 
L 4326 3251 
L 4326 1811 
L 4813 1811 
z
" transform="scale(0.015625)"/>
      <path id="AppleSDGothicNeo-Regular-c81c" d="M 3098 1229 
C 2406 1677 1882 2368 1882 3469 
L 1882 4083 
L 2957 4083 
L 2957 4486 
L 288 4486 
L 288 4083 
L 1402 4083 
L 1402 3456 
C 1402 2368 813 1485 154 1062 
L 480 723 
C 1024 1107 1530 1773 1645 2394 
C 1805 1805 2394 1152 2790 870 
L 3098 1229 
z
M 3853 -166 
L 3853 5011 
L 3373 5011 
L 3373 3091 
L 2477 3091 
L 2477 2688 
L 3373 2688 
L 3373 -166 
L 3853 -166 
z
M 4960 -448 
L 4960 5146 
L 4480 5146 
L 4480 -448 
L 4960 -448 
z
" transform="scale(0.015625)"/>
     </defs>
     <use xlink:href="#AppleSDGothicNeo-Regular-41"/>
     <use xlink:href="#AppleSDGothicNeo-Regular-49" transform="translate(60.499985 0)"/>
     <use xlink:href="#AppleSDGothicNeo-Regular-20" transform="translate(86.399979 0)"/>
     <use xlink:href="#AppleSDGothicNeo-Regular-ae00" transform="translate(112.699966 0)"/>
     <use xlink:href="#AppleSDGothicNeo-Regular-c758" transform="translate(199.199951 0)"/>
     <use xlink:href="#AppleSDGothicNeo-Regular-20" transform="translate(285.699936 0)"/>
     <use xlink:href="#AppleSDGothicNeo-Regular-36" transform="translate(311.999924 0)"/>
     <use xlink:href="#AppleSDGothicNeo-Regular-ac00" transform="translate(367.399918 0)"/>
     <use xlink:href="#AppleSDGothicNeo-Regular-c9c0" transform="translate(453.899902 0)"/>
     <use xlink:href="#AppleSDGothicNeo-Regular-20" transform="translate(540.399887 0)"/>
     <use xlink:href="#AppleSDGothicNeo-Regular-c804" transform="translate(566.699875 0)"/>
     <use xlink:href="#AppleSDGothicNeo-Regular-d615" transform="translate(653.19986 0)"/>
     <use xlink:href="#AppleSDGothicNeo-Regular-c801" transform="translate(739.699844 0)"/>
     <use xlink:href="#AppleSDGothicNeo-Regular-20" transform="translate(826.199829 0)"/>
     <use xlink:href="#AppleSDGothicNeo-Regular-bb38" transform="translate(852.499817 0)"/>
     <use xlink:href="#AppleSDGothicNeo-Regular-c81c" transform="translate(938.999802 0)"/>
    </g>
   </g>
  </g>
 </g>
 <defs>
  <clipPath id="p93d1a52275">
   <rect x="7.2" y="32.95375" width="558" height="277.2"/>
  </clipPath>
 </defs>
</svg>
