<?xml version="1.0" encoding="utf-8" standalone="no"?>
<!DOCTYPE svg PUBLIC "-//W3C//DTD SVG 1.1//EN"
  "http://www.w3.org/Graphics/SVG/1.1/DTD/svg11.dtd">
<svg xmlns:xlink="http://www.w3.org/1999/xlink" width="608.652pt" height="526.276406pt" viewBox="0 0 608.652 526.276406" xmlns="http://www.w3.org/2000/svg" version="1.1">
 <metadata>
  <rdf:RDF xmlns:dc="http://purl.org/dc/elements/1.1/" xmlns:cc="http://creativecommons.org/ns#" xmlns:rdf="http://www.w3.org/1999/02/22-rdf-syntax-ns#">
   <cc:Work>
    <dc:type rdf:resource="http://purl.org/dc/dcmitype/StillImage"/>
    <dc:date>2026-02-18T22:41:46.440195</dc:date>
    <dc:format>image/svg+xml</dc:format>
    <dc:creator>
     <cc:Agent>
      <dc:title>Matplotlib v3.10.8, https://matplotlib.org/</dc:title>
     </cc:Agent>
    </dc:creator>
   </cc:Work>
  </rdf:RDF>
 </metadata>
 <defs>
  <style type="text/css">*{stroke-linejoin: round; stroke-linecap: butt}</style>
 </defs>
 <g id="figure_1">
  <g id="patch_1">
   <path d="M 0 526.276406 
L 608.652 526.276406 
L 608.652 0 
L 0 0 
z
" style="fill: #ffffff"/>
  </g>
  <g id="axes_1">
   <g id="patch_2">
    <path d="M 450.72 278.465234 
C 450.72 249.343978 444.983747 220.505889 433.839525 193.601356 
C 422.695303 166.696824 406.359838 142.249072 385.768 121.657235 
C 365.176162 101.065397 340.728411 84.729932 313.823878 73.585709 
C 286.919345 62.441487 258.081256 56.705234 228.96 56.705234 
C 199.838744 56.705234 171.000655 62.441487 144.096122 73.585709 
C 117.191589 84.729932 92.743838 101.065397 72.152 121.657235 
C 51.560162 142.249072 35.224697 166.696824 24.080475 193.601356 
C 12.936253 220.505889 7.2 249.343978 7.2 278.465234 
C 7.2 307.586491 12.936253 336.42458 24.080475 363.329112 
C 35.224697 390.233645 51.560162 414.681396 72.152 435.273234 
C 92.743838 455.865072 117.191589 472.200537 144.096122 483.34476 
C 171.000655 494.488982 199.838744 500.225234 228.96 500.225234 
C 258.081256 500.225234 286.919345 494.488982 313.823878 483.34476 
C 340.728411 472.200537 365.176162 455.865072 385.768 435.273234 
C 406.359838 414.681396 422.695303 390.233645 433.839525 363.329112 
C 444.983747 336.42458 450.72 307.586491 450.72 278.465234 
M 228.96 278.465234 
C 228.96 278.465234 228.96 278.465234 228.96 278.465234 
C 228.96 278.465234 228.96 278.465234 228.96 278.465234 
C 228.96 278.465234 228.96 278.465234 228.96 278.465234 
C 228.96 278.465234 228.96 278.465234 228.96 278.465234 
C 228.96 278.465234 228.96 278.465234 228.96 278.465234 
C 228.96 278.465234 228.96 278.465234 228.96 278.465234 
C 228.96 278.465234 228.96 278.465234 228.96 278.465234 
C 228.96 278.465234 228.96 278.465234 228.96 278.465234 
C 228.96 278.465234 228.96 278.465234 228.96 278.465234 
C 228.96 278.465234 228.96 278.465234 228.96 278.465234 
C 228.96 278.465234 228.96 278.465234 228.96 278.465234 
C 228.96 278.465234 228.96 278.465234 228.96 278.465234 
C 228.96 278.465234 228.96 278.465234 228.96 278.465234 
C 228.96 278.465234 228.96 278.465234 228.96 278.465234 
C 228.96 278.465234 228.96 278.465234 228.96 278.465234 
C 228.96 278.465234 228.96 278.465234 228.96 278.465234 
z
" style="fill: #ffffff"/>
   </g>
   <g id="patch_3">
    <path d="M 228.96 56.705234 
L 344.189876 211.937234 
L 305.779917 322.817234 
L 228.96 411.521234 
L 152.140083 322.817234 
L 113.730124 211.937234 
z
" clip-path="url(#pffa07019bc)" style="fill: #a8c8e8; opacity: 0.1; stroke: #a8c8e8; stroke-linejoin: miter"/>
   </g>
   <g id="patch_4">
    <path d="M 228.96 101.057234 
L 382.599835 189.761234 
L 344.189876 344.993234 
L 228.96 455.873234 
L 113.730124 344.993234 
L 113.730124 211.937234 
z
" clip-path="url(#pffa07019bc)" style="fill: #c3aed6; opacity: 0.1; stroke: #c3aed6; stroke-linejoin: miter"/>
   </g>
   <g id="patch_5">
    <path d="M 228.96 234.113234 
L 421.009794 167.585234 
L 421.009794 389.345234 
L 228.96 411.521234 
L 36.910206 389.345234 
L 152.140083 234.113234 
z
" clip-path="url(#pffa07019bc)" style="fill: #a8d5ba; opacity: 0.1; stroke: #a8d5ba; stroke-linejoin: miter"/>
   </g>
   <g id="patch_6">
    <path d="M 228.96 56.705234 
L 305.779917 234.113234 
L 267.369959 300.641234 
L 228.96 367.169234 
L 152.140083 322.817234 
L 36.910206 167.585234 
z
" clip-path="url(#pffa07019bc)" style="fill: #ffe0a3; opacity: 0.1; stroke: #ffe0a3; stroke-linejoin: miter"/>
   </g>
   <g id="patch_7">
    <path d="M 228.96 145.409234 
L 305.779917 234.113234 
L 344.189876 344.993234 
L 228.96 500.225234 
L 152.140083 322.817234 
L 36.910206 167.585234 
z
" clip-path="url(#pffa07019bc)" style="fill: #f4a7a7; opacity: 0.1; stroke: #f4a7a7; stroke-linejoin: miter"/>
   </g>
   <g id="patch_8">
    <path d="M 228.96 189.761234 
L 382.599835 189.761234 
L 382.599835 367.169234 
L 228.96 411.521234 
L 36.910206 389.345234 
L 113.730124 211.937234 
z
" clip-path="url(#pffa07019bc)" style="fill: #e0e0e0; opacity: 0.1; stroke: #e0e0e0; stroke-linejoin: miter"/>
   </g>
   <g id="matplotlib.axis_1">
    <g id="xtick_1">
     <g id="line2d_1">
      <path d="M 228.96 278.465234 
L 228.96 56.705234 
" clip-path="url(#pffa07019bc)" style="fill: none; stroke: #b0b0b0; stroke-width: 0.8; stroke-linecap: square"/>
     </g>
     <g id="text_1">
      <!-- 친근감 -->
      <g transform="translate(214.6875 46.291406) scale(0.11 -0.11)">
       <defs>
        <path id="AppleSDGothicNeo-Regular-ce5c" d="M 3514 3558 
L 3514 3962 
L 461 3962 
L 461 3558 
L 1734 3558 
L 1734 3514 
C 1734 2797 1037 2099 294 1875 
L 557 1485 
C 1203 1715 1818 2298 1978 2797 
C 2214 2285 2867 1798 3360 1651 
L 3622 2042 
C 2918 2208 2227 2803 2227 3520 
L 2227 3558 
L 3514 3558 
z
M 4947 -314 
L 4947 96 
L 1677 96 
L 1677 1363 
L 1190 1363 
L 1190 -314 
L 4947 -314 
z
M 4813 1037 
L 4813 5146 
L 4326 5146 
L 4326 1037 
L 4813 1037 
z
M 2746 4493 
L 2746 4902 
L 1222 4902 
L 1222 4493 
L 2746 4493 
z
" transform="scale(0.015625)"/>
        <path id="AppleSDGothicNeo-Regular-adfc" d="M 5293 2144 
L 5293 2554 
L 4467 2554 
C 4589 3136 4640 3891 4640 4742 
L 877 4742 
L 877 4339 
L 4147 4339 
C 4147 3674 4109 3034 3994 2554 
L 243 2554 
L 243 2144 
L 5293 2144 
z
M 4800 -243 
L 4800 160 
L 1370 160 
L 1370 1517 
L 883 1517 
L 883 -243 
L 4800 -243 
z
" transform="scale(0.015625)"/>
        <path id="AppleSDGothicNeo-Regular-ac10" d="M 5395 3270 
L 5395 3674 
L 4544 3674 
L 4544 5146 
L 4058 5146 
L 4058 1914 
L 4544 1914 
L 4544 3270 
L 5395 3270 
z
M 4544 -371 
L 4544 1626 
L 1030 1626 
L 1030 -371 
L 4544 -371 
z
M 4058 32 
L 1517 32 
L 1517 1222 
L 4058 1222 
L 4058 32 
z
M 461 4717 
L 461 4307 
L 2490 4307 
C 2355 3296 1286 2496 186 2266 
L 410 1862 
C 1837 2272 2957 3181 3040 4717 
L 461 4717 
z
" transform="scale(0.015625)"/>
       </defs>
       <use xlink:href="#AppleSDGothicNeo-Regular-ce5c"/>
       <use xlink:href="#AppleSDGothicNeo-Regular-adfc" transform="translate(86.499985 0)"/>
       <use xlink:href="#AppleSDGothicNeo-Regular-ac10" transform="translate(172.999969 0)"/>
      </g>
     </g>
    </g>
    <g id="xtick_2">
     <g id="line2d_2">
      <path d="M 228.96 278.465234 
L 421.009794 167.585234 
" clip-path="url(#pffa07019bc)" style="fill: none; stroke: #b0b0b0; stroke-width: 0.8; stroke-linecap: square"/>
     </g>
     <g id="text_2">
      <!-- 전문성 -->
      <g transform="translate(418.861649 164.222109) scale(0.11 -0.11)">
       <defs>
        <path id="AppleSDGothicNeo-Regular-c804" d="M 403 4243 
L 1664 4243 
C 1664 3994 1664 3872 1658 3795 
C 1632 3059 928 2349 224 2074 
L 506 1696 
C 1107 1958 1754 2566 1907 3085 
C 2138 2579 2733 2048 3264 1830 
L 3539 2221 
C 2899 2432 2208 3072 2163 3789 
C 2157 3872 2157 3987 2157 4243 
L 3411 4243 
L 3411 4653 
L 403 4653 
L 403 4243 
z
M 4813 1050 
L 4813 5146 
L 4326 5146 
L 4326 3590 
L 3213 3590 
L 3213 3181 
L 4326 3181 
L 4326 1050 
L 4813 1050 
z
M 4934 -262 
L 4934 147 
L 1651 147 
L 1651 1459 
L 1165 1459 
L 1165 -262 
L 4934 -262 
z
" transform="scale(0.015625)"/>
        <path id="AppleSDGothicNeo-Regular-bb38" d="M 4659 2867 
L 4659 4838 
L 877 4838 
L 877 2867 
L 4659 2867 
z
M 4173 3270 
L 1363 3270 
L 1363 4435 
L 4173 4435 
L 4173 3270 
z
M 3021 736 
L 3021 1837 
L 5293 1837 
L 5293 2240 
L 243 2240 
L 243 1837 
L 2534 1837 
L 2534 736 
L 3021 736 
z
M 4723 -269 
L 4723 134 
L 1357 134 
L 1357 1312 
L 870 1312 
L 870 -269 
L 4723 -269 
z
" transform="scale(0.015625)"/>
        <path id="AppleSDGothicNeo-Regular-c131" d="M 4326 3456 
L 4326 1670 
L 4813 1670 
L 4813 5146 
L 4326 5146 
L 4326 3859 
L 3123 3859 
L 3123 3456 
L 4326 3456 
z
M 4870 614 
C 4870 1267 4198 1670 2995 1670 
C 1798 1670 1126 1267 1126 614 
C 1126 -38 1798 -442 2995 -442 
C 4198 -442 4870 -38 4870 614 
z
M 2995 1274 
C 3866 1274 4378 1030 4378 614 
C 4378 192 3866 -45 2995 -45 
C 2138 -45 1619 192 1619 614 
C 1619 1030 2138 1274 2995 1274 
z
M 3424 2483 
C 2790 2714 2054 3386 2054 4282 
L 2054 4826 
L 1562 4826 
L 1562 4269 
C 1562 3379 979 2662 173 2291 
L 474 1914 
C 1120 2240 1651 2829 1824 3405 
C 2042 2848 2598 2362 3136 2106 
L 3424 2483 
z
" transform="scale(0.015625)"/>
       </defs>
       <use xlink:href="#AppleSDGothicNeo-Regular-c804"/>
       <use xlink:href="#AppleSDGothicNeo-Regular-bb38" transform="translate(86.499985 0)"/>
       <use xlink:href="#AppleSDGothicNeo-Regular-c131" transform="translate(172.999969 0)"/>
      </g>
     </g>
    </g>
    <g id="xtick_3">
     <g id="line2d_3">
      <path d="M 228.96 278.465234 
L 421.009794 389.345234 
" clip-path="url(#pffa07019bc)" style="fill: none; stroke: #b0b0b0; stroke-width: 0.8; stroke-linecap: square"/>
     </g>
     <g id="text_3">
      <!-- 격식 -->
      <g transform="translate(423.619149 399.987266) scale(0.11 -0.11)">
       <defs>
        <path id="AppleSDGothicNeo-Regular-aca9" d="M 3098 2579 
L 4326 2579 
L 4326 1818 
L 4813 1818 
L 4813 5146 
L 4326 5146 
L 4326 4141 
L 3162 4141 
L 3162 3731 
L 4326 3731 
L 4326 2989 
L 3098 2989 
L 3098 2579 
z
M 4819 -448 
L 4819 1523 
L 1088 1523 
L 1088 1120 
L 4333 1120 
L 4333 -448 
L 4819 -448 
z
M 3110 4762 
L 563 4762 
L 563 4346 
L 2573 4346 
C 2426 3398 1459 2528 346 2278 
L 595 1882 
C 2016 2323 3002 3302 3110 4762 
z
" transform="scale(0.015625)"/>
        <path id="AppleSDGothicNeo-Regular-c2dd" d="M 4813 1811 
L 4813 5146 
L 4326 5146 
L 4326 1811 
L 4813 1811 
z
M 3622 2528 
C 2950 2758 2163 3443 2163 4339 
L 2163 4915 
L 1670 4915 
L 1670 4320 
C 1670 3430 992 2669 198 2342 
L 499 1952 
C 1203 2310 1760 2886 1933 3469 
C 2157 2893 2778 2387 3334 2144 
L 3622 2528 
z
M 4813 -448 
L 4813 1504 
L 1082 1504 
L 1082 1101 
L 4326 1101 
L 4326 -448 
L 4813 -448 
z
" transform="scale(0.015625)"/>
       </defs>
       <use xlink:href="#AppleSDGothicNeo-Regular-aca9"/>
       <use xlink:href="#AppleSDGothicNeo-Regular-c2dd" transform="translate(86.499985 0)"/>
      </g>
     </g>
    </g>
    <g id="xtick_4">
     <g id="line2d_4">
      <path d="M 228.96 278.465234 
L 228.96 500.225234 
" clip-path="url(#pffa07019bc)" style="fill: none; stroke: #b0b0b0; stroke-width: 0.8; stroke-linecap: square"/>
     </g>
     <g id="text_4">
      <!-- 설득력 -->
      <g transform="translate(214.6875 517.911094) scale(0.11 -0.11)">
       <defs>
        <path id="AppleSDGothicNeo-Regular-c124" d="M 4326 3622 
L 4326 2259 
L 4813 2259 
L 4813 5146 
L 4326 5146 
L 4326 4032 
L 3181 4032 
L 3181 3622 
L 4326 3622 
z
M 3488 2797 
C 2893 2995 2106 3584 2106 4493 
L 2106 4954 
L 1613 4954 
L 1613 4474 
C 1613 3578 934 2918 198 2630 
L 499 2266 
C 1165 2579 1696 3085 1862 3661 
C 2131 3072 2675 2637 3213 2419 
L 3488 2797 
z
M 5024 -410 
L 5024 -6 
L 1690 -6 
L 1690 602 
L 4819 602 
L 4819 1952 
L 1171 1952 
L 1171 1549 
L 4333 1549 
L 4333 973 
L 1203 973 
L 1203 -410 
L 5024 -410 
z
" transform="scale(0.015625)"/>
        <path id="AppleSDGothicNeo-Regular-b4dd" d="M 800 1389 
L 800 986 
L 4160 986 
L 4160 -486 
L 4646 -486 
L 4646 1389 
L 800 1389 
z
M 5293 2035 
L 5293 2445 
L 243 2445 
L 243 2035 
L 5293 2035 
z
M 4698 3066 
L 4698 3475 
L 1350 3475 
L 1350 4493 
L 4672 4493 
L 4672 4902 
L 864 4902 
L 864 3066 
L 4698 3066 
z
" transform="scale(0.015625)"/>
        <path id="AppleSDGothicNeo-Regular-b825" d="M 3194 2419 
C 2656 2323 1875 2304 1120 2304 
L 928 2304 
L 928 3219 
L 2931 3219 
L 2931 4819 
L 442 4819 
L 442 4416 
L 2445 4416 
L 2445 3616 
L 442 3616 
L 442 1907 
L 1101 1907 
C 1754 1907 2701 1946 3238 2035 
L 3194 2419 
z
M 4813 1696 
L 4813 5146 
L 4326 5146 
L 4326 4301 
L 3302 4301 
L 3302 3898 
L 4326 3898 
L 4326 3142 
L 3302 3142 
L 3302 2746 
L 4326 2746 
L 4326 1696 
L 4813 1696 
z
M 1037 1389 
L 1037 986 
L 4326 986 
L 4326 -499 
L 4813 -499 
L 4813 1389 
L 1037 1389 
z
" transform="scale(0.015625)"/>
       </defs>
       <use xlink:href="#AppleSDGothicNeo-Regular-c124"/>
       <use xlink:href="#AppleSDGothicNeo-Regular-b4dd" transform="translate(86.499985 0)"/>
       <use xlink:href="#AppleSDGothicNeo-Regular-b825" transform="translate(172.999969 0)"/>
      </g>
     </g>
    </g>
    <g id="xtick_5">
     <g id="line2d_5">
      <path d="M 228.96 278.465234 
L 36.910206 389.345234 
" clip-path="url(#pffa07019bc)" style="fill: none; stroke: #b0b0b0; stroke-width: 0.8; stroke-linecap: square"/>
     </g>
     <g id="text_5">
      <!-- 객관성 -->
      <g transform="translate(10.513351 399.987266) scale(0.11 -0.11)">
       <defs>
        <path id="AppleSDGothicNeo-Regular-ac1d" d="M 4960 1843 
L 4960 5146 
L 4474 5146 
L 4474 3680 
L 3770 3680 
L 3770 5043 
L 3302 5043 
L 3302 1894 
L 3770 1894 
L 3770 3277 
L 4474 3277 
L 4474 1843 
L 4960 1843 
z
M 2662 4723 
L 499 4723 
L 499 4320 
L 2144 4320 
C 2054 3443 1402 2611 282 2163 
L 602 1792 
C 1888 2413 2637 3360 2662 4723 
z
M 4960 -448 
L 4960 1555 
L 1235 1555 
L 1235 1158 
L 4467 1158 
L 4467 -448 
L 4960 -448 
z
" transform="scale(0.015625)"/>
        <path id="AppleSDGothicNeo-Regular-ad00" d="M 5402 2938 
L 5402 3347 
L 4563 3347 
L 4563 5146 
L 4077 5146 
L 4077 947 
L 4563 947 
L 4563 2938 
L 5402 2938 
z
M 4787 -314 
L 4787 96 
L 1472 96 
L 1472 1318 
L 986 1318 
L 986 -314 
L 4787 -314 
z
M 3738 1952 
L 3686 2342 
C 3232 2266 2541 2221 1875 2195 
L 1875 3507 
L 1395 3507 
L 1395 2182 
C 979 2170 467 2170 147 2170 
L 211 1734 
C 666 1734 1344 1766 1920 1786 
C 2451 1811 3232 1875 3738 1952 
z
M 3309 4742 
L 486 4742 
L 486 4333 
L 2810 4333 
C 2822 3904 2765 3226 2662 2848 
L 3136 2771 
C 3251 3238 3328 4038 3309 4742 
z
" transform="scale(0.015625)"/>
       </defs>
       <use xlink:href="#AppleSDGothicNeo-Regular-ac1d"/>
       <use xlink:href="#AppleSDGothicNeo-Regular-ad00" transform="translate(86.499985 0)"/>
       <use xlink:href="#AppleSDGothicNeo-Regular-c131" transform="translate(172.999969 0)"/>
      </g>
     </g>
    </g>
    <g id="xtick_6">
     <g id="line2d_6">
      <path d="M 228.96 278.465234 
L 36.910206 167.585234 
" clip-path="url(#pffa07019bc)" style="fill: none; stroke: #b0b0b0; stroke-width: 0.8; stroke-linecap: square"/>
     </g>
     <g id="text_6">
      <!-- 간결함 -->
      <g transform="translate(10.513351 164.199766) scale(0.11 -0.11)">
       <defs>
        <path id="AppleSDGothicNeo-Regular-ac04" d="M 5395 2982 
L 5395 3392 
L 4544 3392 
L 4544 5146 
L 4058 5146 
L 4058 960 
L 4544 960 
L 4544 2982 
L 5395 2982 
z
M 4717 -307 
L 4717 96 
L 1510 96 
L 1510 1421 
L 1024 1421 
L 1024 -307 
L 4717 -307 
z
M 435 4653 
L 435 4243 
L 2451 4243 
C 2310 3213 1408 2323 205 2016 
L 454 1606 
C 1882 2061 2918 3130 2982 4653 
L 435 4653 
z
" transform="scale(0.015625)"/>
        <path id="AppleSDGothicNeo-Regular-acb0" d="M 5024 -416 
L 5024 -32 
L 1683 -32 
L 1683 640 
L 4813 640 
L 4813 1990 
L 1178 1990 
L 1178 1606 
L 4326 1606 
L 4326 992 
L 1197 992 
L 1197 -416 
L 5024 -416 
z
M 3104 4838 
L 550 4838 
L 550 4429 
L 2547 4429 
C 2362 3514 1542 2771 314 2464 
L 557 2067 
C 1952 2470 2989 3366 3104 4838 
z
M 3162 3936 
L 4326 3936 
L 4326 3290 
L 3091 3290 
L 3091 2899 
L 4326 2899 
L 4326 2298 
L 4813 2298 
L 4813 5146 
L 4326 5146 
L 4326 4320 
L 3162 4320 
L 3162 3936 
z
" transform="scale(0.015625)"/>
        <path id="AppleSDGothicNeo-Regular-d568" d="M 5395 3091 
L 5395 3501 
L 4544 3501 
L 4544 5146 
L 4058 5146 
L 4058 1664 
L 4544 1664 
L 4544 3091 
L 5395 3091 
z
M 4544 -371 
L 4544 1376 
L 1005 1376 
L 1005 -371 
L 4544 -371 
z
M 4058 32 
L 1491 32 
L 1491 979 
L 4058 979 
L 4058 32 
z
M 2630 4614 
L 2630 5024 
L 1062 5024 
L 1062 4614 
L 2630 4614 
z
M 3475 3814 
L 3475 4218 
L 218 4218 
L 218 3814 
L 3475 3814 
z
M 3142 2650 
C 3142 3226 2579 3571 1843 3571 
C 1094 3571 544 3226 544 2650 
C 544 2086 1101 1728 1843 1728 
C 2579 1728 3142 2093 3142 2650 
z
M 2662 2650 
C 2662 2310 2278 2106 1843 2106 
C 1414 2106 1011 2310 1011 2650 
C 1011 2995 1408 3194 1843 3194 
C 2278 3194 2662 2995 2662 2650 
z
" transform="scale(0.015625)"/>
       </defs>
       <use xlink:href="#AppleSDGothicNeo-Regular-ac04"/>
       <use xlink:href="#AppleSDGothicNeo-Regular-acb0" transform="translate(86.499985 0)"/>
       <use xlink:href="#AppleSDGothicNeo-Regular-d568" transform="translate(172.999969 0)"/>
      </g>
     </g>
    </g>
   </g>
   <g id="matplotlib.axis_2">
    <g id="ytick_1">
     <g id="line2d_7">
      <path d="M 228.96 234.113234 
C 234.784251 234.113234 240.551869 235.260485 245.932776 237.489329 
C 251.313682 239.718174 256.203232 242.985267 260.3216 247.103634 
C 264.439968 251.222002 267.707061 256.111552 269.935905 261.492459 
C 272.164749 266.873365 273.312 272.640983 273.312 278.465234 
C 273.312 284.289486 272.164749 290.057103 269.935905 295.43801 
C 267.707061 300.818917 264.439968 305.708467 260.3216 309.826834 
C 256.203232 313.945202 251.313682 317.212295 245.932776 319.441139 
C 240.551869 321.669984 234.784251 322.817234 228.96 322.817234 
C 223.135749 322.817234 217.368131 321.669984 211.987224 319.441139 
C 206.606318 317.212295 201.716768 313.945202 197.5984 309.826834 
C 193.480032 305.708467 190.212939 300.818917 187.984095 295.43801 
C 185.755251 290.057103 184.608 284.289486 184.608 278.465234 
C 184.608 272.640983 185.755251 266.873365 187.984095 261.492459 
C 190.212939 256.111552 193.480032 251.222002 197.5984 247.103634 
C 201.716768 242.985267 206.606318 239.718174 211.987224 237.489329 
C 217.368131 235.260485 223.135749 234.113234 228.96 234.113234 
" clip-path="url(#pffa07019bc)" style="fill: none; stroke: #b0b0b0; stroke-width: 0.8; stroke-linecap: square"/>
     </g>
     <g id="text_7">
      <!-- 1 -->
      <g style="fill: #999999" transform="translate(228.96 233.265734) scale(0.08 -0.08)">
       <defs>
        <path id="AppleSDGothicNeo-Regular-31" d="M 1146 243 
L 1632 243 
L 1632 4634 
L 1363 4634 
L 352 4160 
L 352 3866 
L 1146 4051 
L 1146 243 
z
" transform="scale(0.015625)"/>
       </defs>
       <use xlink:href="#AppleSDGothicNeo-Regular-31"/>
      </g>
     </g>
    </g>
    <g id="ytick_2">
     <g id="line2d_8">
      <path d="M 228.96 189.761234 
C 240.608503 189.761234 252.143738 192.055735 262.905551 196.513424 
C 273.667364 200.971113 283.446465 207.505299 291.6832 215.742034 
C 299.919935 223.97877 306.454121 233.75787 310.91181 244.519683 
C 315.369499 255.281496 317.664 266.816732 317.664 278.465234 
C 317.664 290.113737 315.369499 301.648972 310.91181 312.410786 
C 306.454121 323.172599 299.919935 332.951699 291.6832 341.188434 
C 283.446465 349.425169 273.667364 355.959355 262.905551 360.417044 
C 252.143738 364.874733 240.608503 367.169234 228.96 367.169234 
C 217.311497 367.169234 205.776262 364.874733 195.014449 360.417044 
C 184.252636 355.959355 174.473535 349.425169 166.2368 341.188434 
C 158.000065 332.951699 151.465879 323.172599 147.00819 312.410786 
C 142.550501 301.648972 140.256 290.113737 140.256 278.465234 
C 140.256 266.816732 142.550501 255.281496 147.00819 244.519683 
C 151.465879 233.75787 158.000065 223.97877 166.2368 215.742034 
C 174.473535 207.505299 184.252636 200.971113 195.014449 196.513424 
C 205.776262 192.055735 217.311497 189.761234 228.96 189.761234 
" clip-path="url(#pffa07019bc)" style="fill: none; stroke: #b0b0b0; stroke-width: 0.8; stroke-linecap: square"/>
     </g>
     <g id="text_8">
      <!-- 2 -->
      <g style="fill: #999999" transform="translate(228.96 188.913734) scale(0.08 -0.08)">
       <defs>
        <path id="AppleSDGothicNeo-Regular-32" d="M 397 269 
L 3066 269 
L 3066 704 
L 1107 704 
L 1779 1382 
C 2522 2138 2970 2650 2970 3392 
C 2970 4160 2502 4640 1638 4640 
C 1152 4640 717 4422 448 4250 
L 595 3846 
C 845 4019 1190 4198 1555 4198 
C 2163 4198 2438 3917 2438 3347 
C 2438 2733 2029 2266 1421 1632 
L 397 570 
L 397 269 
z
" transform="scale(0.015625)"/>
       </defs>
       <use xlink:href="#AppleSDGothicNeo-Regular-32"/>
      </g>
     </g>
    </g>
    <g id="ytick_3">
     <g id="line2d_9">
      <path d="M 228.96 145.409234 
C 246.432754 145.409234 263.735607 148.850986 279.878327 155.537519 
C 296.021046 162.224053 310.689697 172.025332 323.0448 184.380434 
C 335.399903 196.735537 345.201182 211.404188 351.887715 227.546908 
C 358.574248 243.689627 362.016 260.992481 362.016 278.465234 
C 362.016 295.937988 358.574248 313.240842 351.887715 329.383561 
C 345.201182 345.526281 335.399903 360.194932 323.0448 372.550034 
C 310.689697 384.905137 296.021046 394.706416 279.878327 401.392949 
C 263.735607 408.079483 246.432754 411.521234 228.96 411.521234 
C 211.487246 411.521234 194.184393 408.079483 178.041673 401.392949 
C 161.898954 394.706416 147.230303 384.905137 134.8752 372.550034 
C 122.520097 360.194932 112.718818 345.526281 106.032285 329.383561 
C 99.345752 313.240842 95.904 295.937988 95.904 278.465234 
C 95.904 260.992481 99.345752 243.689627 106.032285 227.546908 
C 112.718818 211.404188 122.520097 196.735537 134.8752 184.380434 
C 147.230303 172.025332 161.898954 162.224053 178.041673 155.537519 
C 194.184393 148.850986 211.487246 145.409234 228.96 145.409234 
" clip-path="url(#pffa07019bc)" style="fill: none; stroke: #b0b0b0; stroke-width: 0.8; stroke-linecap: square"/>
     </g>
     <g id="text_9">
      <!-- 3 -->
      <g style="fill: #999999" transform="translate(228.96 144.561734) scale(0.08 -0.08)">
       <defs>
        <path id="AppleSDGothicNeo-Regular-33" d="M 1491 205 
C 2445 205 3053 730 3053 1478 
C 3053 2144 2630 2458 2074 2566 
C 2560 2726 2893 3040 2893 3571 
C 2893 4243 2368 4634 1600 4634 
C 1229 4634 723 4474 467 4301 
L 544 3891 
C 813 4045 1146 4198 1498 4198 
C 2022 4198 2362 4013 2362 3488 
C 2362 3008 1984 2726 1427 2726 
L 1043 2726 
L 1043 2291 
L 1459 2291 
C 2112 2291 2534 2029 2534 1478 
C 2534 947 2138 634 1427 634 
C 1107 634 678 755 435 915 
L 326 512 
C 563 346 992 205 1491 205 
z
" transform="scale(0.015625)"/>
       </defs>
       <use xlink:href="#AppleSDGothicNeo-Regular-33"/>
      </g>
     </g>
    </g>
    <g id="ytick_4">
     <g id="line2d_10">
      <path d="M 228.96 101.057234 
C 252.257005 101.057234 275.327476 105.646236 296.851102 114.561614 
C 318.374729 123.476992 337.93293 136.545364 354.4064 153.018835 
C 370.87987 169.492305 383.948242 189.050506 392.86362 210.574132 
C 401.778998 232.097758 406.368 255.168229 406.368 278.465234 
C 406.368 301.762239 401.778998 324.832711 392.86362 346.356337 
C 383.948242 367.879963 370.87987 387.438164 354.4064 403.911634 
C 337.93293 420.385105 318.374729 433.453477 296.851102 442.368854 
C 275.327476 451.284232 252.257005 455.873234 228.96 455.873234 
C 205.662995 455.873234 182.592524 451.284232 161.068898 442.368854 
C 139.545271 433.453477 119.98707 420.385105 103.5136 403.911634 
C 87.04013 387.438164 73.971758 367.879963 65.05638 346.356337 
C 56.141002 324.832711 51.552 301.762239 51.552 278.465234 
C 51.552 255.168229 56.141002 232.097758 65.05638 210.574132 
C 73.971758 189.050506 87.04013 169.492305 103.5136 153.018835 
C 119.98707 136.545364 139.545271 123.476992 161.068898 114.561614 
C 182.592524 105.646236 205.662995 101.057234 228.96 101.057234 
" clip-path="url(#pffa07019bc)" style="fill: none; stroke: #b0b0b0; stroke-width: 0.8; stroke-linecap: square"/>
     </g>
     <g id="text_10">
      <!-- 4 -->
      <g style="fill: #999999" transform="translate(228.96 100.209734) scale(0.08 -0.08)">
       <defs>
        <path id="AppleSDGothicNeo-Regular-34" d="M 2214 166 
L 2682 166 
L 2682 1171 
L 3398 1171 
L 3398 1587 
L 2682 1587 
L 2682 4621 
L 2285 4621 
L 186 1555 
L 186 1171 
L 2214 1171 
L 2214 166 
z
M 730 1587 
L 2214 3814 
L 2214 1587 
L 730 1587 
z
" transform="scale(0.015625)"/>
       </defs>
       <use xlink:href="#AppleSDGothicNeo-Regular-34"/>
      </g>
     </g>
    </g>
    <g id="ytick_5">
     <g id="line2d_11">
      <path d="M 228.96 56.705234 
C 258.081256 56.705234 286.919345 62.441487 313.823878 73.585709 
C 340.728411 84.729932 365.176162 101.065397 385.768 121.657235 
C 406.359838 142.249072 422.695303 166.696824 433.839525 193.601356 
C 444.983747 220.505889 450.72 249.343978 450.72 278.465234 
C 450.72 307.586491 444.983747 336.42458 433.839525 363.329112 
C 422.695303 390.233645 406.359838 414.681396 385.768 435.273234 
C 365.176162 455.865072 340.728411 472.200537 313.823878 483.34476 
C 286.919345 494.488982 258.081256 500.225234 228.96 500.225234 
C 199.838744 500.225234 171.000655 494.488982 144.096122 483.34476 
C 117.191589 472.200537 92.743838 455.865072 72.152 435.273234 
C 51.560162 414.681396 35.224697 390.233645 24.080475 363.329112 
C 12.936253 336.42458 7.2 307.586491 7.2 278.465234 
C 7.2 249.343978 12.936253 220.505889 24.080475 193.601356 
C 35.224697 166.696824 51.560162 142.249072 72.152 121.657235 
C 92.743838 101.065397 117.191589 84.729932 144.096122 73.585709 
C 171.000655 62.441487 199.838744 56.705234 228.96 56.705234 
" clip-path="url(#pffa07019bc)" style="fill: none; stroke: #b0b0b0; stroke-width: 0.8; stroke-linecap: square"/>
     </g>
     <g id="text_11">
      <!-- 5 -->
      <g style="fill: #999999" transform="translate(228.96 55.857734) scale(0.08 -0.08)">
       <defs>
        <path id="AppleSDGothicNeo-Regular-35" d="M 1395 192 
C 2342 192 2906 838 2906 1606 
C 2906 2509 2374 2918 1510 2918 
C 1331 2918 1069 2874 896 2829 
L 986 4134 
L 2752 4134 
L 2752 4570 
L 576 4570 
L 422 2317 
C 621 2406 1024 2528 1318 2528 
C 1990 2528 2374 2266 2374 1613 
C 2374 1005 1978 621 1299 621 
C 947 621 525 768 288 928 
L 192 518 
C 448 333 896 192 1395 192 
z
" transform="scale(0.015625)"/>
       </defs>
       <use xlink:href="#AppleSDGothicNeo-Regular-35"/>
      </g>
     </g>
    </g>
   </g>
   <g id="line2d_12">
    <path d="M 228.96 56.705234 
L 344.189876 211.937234 
L 305.779917 322.817234 
L 228.96 411.521234 
L 152.140083 322.817234 
L 113.730124 211.937234 
L 228.96 56.705234 
" clip-path="url(#pffa07019bc)" style="fill: none; stroke: #a8c8e8; stroke-width: 1.5; stroke-linecap: square"/>
    <defs>
     <path id="m61a4297190" d="M 0 3 
C 0.795609 3 1.55874 2.683901 2.12132 2.12132 
C 2.683901 1.55874 3 0.795609 3 0 
C 3 -0.795609 2.683901 -1.55874 2.12132 -2.12132 
C 1.55874 -2.683901 0.795609 -3 0 -3 
C -0.795609 -3 -1.55874 -2.683901 -2.12132 -2.12132 
C -2.683901 -1.55874 -3 -0.795609 -3 0 
C -3 0.795609 -2.683901 1.55874 -2.12132 2.12132 
C -1.55874 2.683901 -0.795609 3 0 3 
z
" style="stroke: #a8c8e8"/>
    </defs>
    <g clip-path="url(#pffa07019bc)">
     <use xlink:href="#m61a4297190" x="228.96" y="56.705234" style="fill: #a8c8e8; stroke: #a8c8e8"/>
     <use xlink:href="#m61a4297190" x="344.189876" y="211.937234" style="fill: #a8c8e8; stroke: #a8c8e8"/>
     <use xlink:href="#m61a4297190" x="305.779917" y="322.817234" style="fill: #a8c8e8; stroke: #a8c8e8"/>
     <use xlink:href="#m61a4297190" x="228.96" y="411.521234" style="fill: #a8c8e8; stroke: #a8c8e8"/>
     <use xlink:href="#m61a4297190" x="152.140083" y="322.817234" style="fill: #a8c8e8; stroke: #a8c8e8"/>
     <use xlink:href="#m61a4297190" x="113.730124" y="211.937234" style="fill: #a8c8e8; stroke: #a8c8e8"/>
     <use xlink:href="#m61a4297190" x="228.96" y="56.705234" style="fill: #a8c8e8; stroke: #a8c8e8"/>
    </g>
   </g>
   <g id="line2d_13">
    <path d="M 228.96 101.057234 
L 382.599835 189.761234 
L 344.189876 344.993234 
L 228.96 455.873234 
L 113.730124 344.993234 
L 113.730124 211.937234 
L 228.96 101.057234 
" clip-path="url(#pffa07019bc)" style="fill: none; stroke: #c3aed6; stroke-width: 1.5; stroke-linecap: square"/>
    <defs>
     <path id="mf7e488d00f" d="M 0 3 
C 0.795609 3 1.55874 2.683901 2.12132 2.12132 
C 2.683901 1.55874 3 0.795609 3 0 
C 3 -0.795609 2.683901 -1.55874 2.12132 -2.12132 
C 1.55874 -2.683901 0.795609 -3 0 -3 
C -0.795609 -3 -1.55874 -2.683901 -2.12132 -2.12132 
C -2.683901 -1.55874 -3 -0.795609 -3 0 
C -3 0.795609 -2.683901 1.55874 -2.12132 2.12132 
C -1.55874 2.683901 -0.795609 3 0 3 
z
" style="stroke: #c3aed6"/>
    </defs>
    <g clip-path="url(#pffa07019bc)">
     <use xlink:href="#mf7e488d00f" x="228.96" y="101.057234" style="fill: #c3aed6; stroke: #c3aed6"/>
     <use xlink:href="#mf7e488d00f" x="382.599835" y="189.761234" style="fill: #c3aed6; stroke: #c3aed6"/>
     <use xlink:href="#mf7e488d00f" x="344.189876" y="344.993234" style="fill: #c3aed6; stroke: #c3aed6"/>
     <use xlink:href="#mf7e488d00f" x="228.96" y="455.873234" style="fill: #c3aed6; stroke: #c3aed6"/>
     <use xlink:href="#mf7e488d00f" x="113.730124" y="344.993234" style="fill: #c3aed6; stroke: #c3aed6"/>
     <use xlink:href="#mf7e488d00f" x="113.730124" y="211.937234" style="fill: #c3aed6; stroke: #c3aed6"/>
     <use xlink:href="#mf7e488d00f" x="228.96" y="101.057234" style="fill: #c3aed6; stroke: #c3aed6"/>
    </g>
   </g>
   <g id="line2d_14">
    <path d="M 228.96 234.113234 
L 421.009794 167.585234 
L 421.009794 389.345234 
L 228.96 411.521234 
L 36.910206 389.345234 
L 152.140083 234.113234 
L 228.96 234.113234 
" clip-path="url(#pffa07019bc)" style="fill: none; stroke: #a8d5ba; stroke-width: 1.5; stroke-linecap: square"/>
    <defs>
     <path id="m04bace0046" d="M 0 3 
C 0.795609 3 1.55874 2.683901 2.12132 2.12132 
C 2.683901 1.55874 3 0.795609 3 0 
C 3 -0.795609 2.683901 -1.55874 2.12132 -2.12132 
C 1.55874 -2.683901 0.795609 -3 0 -3 
C -0.795609 -3 -1.55874 -2.683901 -2.12132 -2.12132 
C -2.683901 -1.55874 -3 -0.795609 -3 0 
C -3 0.795609 -2.683901 1.55874 -2.12132 2.12132 
C -1.55874 2.683901 -0.795609 3 0 3 
z
" style="stroke: #a8d5ba"/>
    </defs>
    <g clip-path="url(#pffa07019bc)">
     <use xlink:href="#m04bace0046" x="228.96" y="234.113234" style="fill: #a8d5ba; stroke: #a8d5ba"/>
     <use xlink:href="#m04bace0046" x="421.009794" y="167.585234" style="fill: #a8d5ba; stroke: #a8d5ba"/>
     <use xlink:href="#m04bace0046" x="421.009794" y="389.345234" style="fill: #a8d5ba; stroke: #a8d5ba"/>
     <use xlink:href="#m04bace0046" x="228.96" y="411.521234" style="fill: #a8d5ba; stroke: #a8d5ba"/>
     <use xlink:href="#m04bace0046" x="36.910206" y="389.345234" style="fill: #a8d5ba; stroke: #a8d5ba"/>
     <use xlink:href="#m04bace0046" x="152.140083" y="234.113234" style="fill: #a8d5ba; stroke: #a8d5ba"/>
     <use xlink:href="#m04bace0046" x="228.96" y="234.113234" style="fill: #a8d5ba; stroke: #a8d5ba"/>
    </g>
   </g>
   <g id="line2d_15">
    <path d="M 228.96 56.705234 
L 305.779917 234.113234 
L 267.369959 300.641234 
L 228.96 367.169234 
L 152.140083 322.817234 
L 36.910206 167.585234 
L 228.96 56.705234 
" clip-path="url(#pffa07019bc)" style="fill: none; stroke: #ffe0a3; stroke-width: 1.5; stroke-linecap: square"/>
    <defs>
     <path id="md94dcc4e37" d="M 0 3 
C 0.795609 3 1.55874 2.683901 2.12132 2.12132 
C 2.683901 1.55874 3 0.795609 3 0 
C 3 -0.795609 2.683901 -1.55874 2.12132 -2.12132 
C 1.55874 -2.683901 0.795609 -3 0 -3 
C -0.795609 -3 -1.55874 -2.683901 -2.12132 -2.12132 
C -2.683901 -1.55874 -3 -0.795609 -3 0 
C -3 0.795609 -2.683901 1.55874 -2.12132 2.12132 
C -1.55874 2.683901 -0.795609 3 0 3 
z
" style="stroke: #ffe0a3"/>
    </defs>
    <g clip-path="url(#pffa07019bc)">
     <use xlink:href="#md94dcc4e37" x="228.96" y="56.705234" style="fill: #ffe0a3; stroke: #ffe0a3"/>
     <use xlink:href="#md94dcc4e37" x="305.779917" y="234.113234" style="fill: #ffe0a3; stroke: #ffe0a3"/>
     <use xlink:href="#md94dcc4e37" x="267.369959" y="300.641234" style="fill: #ffe0a3; stroke: #ffe0a3"/>
     <use xlink:href="#md94dcc4e37" x="228.96" y="367.169234" style="fill: #ffe0a3; stroke: #ffe0a3"/>
     <use xlink:href="#md94dcc4e37" x="152.140083" y="322.817234" style="fill: #ffe0a3; stroke: #ffe0a3"/>
     <use xlink:href="#md94dcc4e37" x="36.910206" y="167.585234" style="fill: #ffe0a3; stroke: #ffe0a3"/>
     <use xlink:href="#md94dcc4e37" x="228.96" y="56.705234" style="fill: #ffe0a3; stroke: #ffe0a3"/>
    </g>
   </g>
   <g id="line2d_16">
    <path d="M 228.96 145.409234 
L 305.779917 234.113234 
L 344.189876 344.993234 
L 228.96 500.225234 
L 152.140083 322.817234 
L 36.910206 167.585234 
L 228.96 145.409234 
" clip-path="url(#pffa07019bc)" style="fill: none; stroke: #f4a7a7; stroke-width: 1.5; stroke-linecap: square"/>
    <defs>
     <path id="m081e6a01ba" d="M 0 3 
C 0.795609 3 1.55874 2.683901 2.12132 2.12132 
C 2.683901 1.55874 3 0.795609 3 0 
C 3 -0.795609 2.683901 -1.55874 2.12132 -2.12132 
C 1.55874 -2.683901 0.795609 -3 0 -3 
C -0.795609 -3 -1.55874 -2.683901 -2.12132 -2.12132 
C -2.683901 -1.55874 -3 -0.795609 -3 0 
C -3 0.795609 -2.683901 1.55874 -2.12132 2.12132 
C -1.55874 2.683901 -0.795609 3 0 3 
z
" style="stroke: #f4a7a7"/>
    </defs>
    <g clip-path="url(#pffa07019bc)">
     <use xlink:href="#m081e6a01ba" x="228.96" y="145.409234" style="fill: #f4a7a7; stroke: #f4a7a7"/>
     <use xlink:href="#m081e6a01ba" x="305.779917" y="234.113234" style="fill: #f4a7a7; stroke: #f4a7a7"/>
     <use xlink:href="#m081e6a01ba" x="344.189876" y="344.993234" style="fill: #f4a7a7; stroke: #f4a7a7"/>
     <use xlink:href="#m081e6a01ba" x="228.96" y="500.225234" style="fill: #f4a7a7; stroke: #f4a7a7"/>
     <use xlink:href="#m081e6a01ba" x="152.140083" y="322.817234" style="fill: #f4a7a7; stroke: #f4a7a7"/>
     <use xlink:href="#m081e6a01ba" x="36.910206" y="167.585234" style="fill: #f4a7a7; stroke: #f4a7a7"/>
     <use xlink:href="#m081e6a01ba" x="228.96" y="145.409234" style="fill: #f4a7a7; stroke: #f4a7a7"/>
    </g>
   </g>
   <g id="line2d_17">
    <path d="M 228.96 189.761234 
L 382.599835 189.761234 
L 382.599835 367.169234 
L 228.96 411.521234 
L 36.910206 389.345234 
L 113.730124 211.937234 
L 228.96 189.761234 
" clip-path="url(#pffa07019bc)" style="fill: none; stroke: #e0e0e0; stroke-width: 1.5; stroke-linecap: square"/>
    <defs>
     <path id="mfe37d6d14d" d="M 0 3 
C 0.795609 3 1.55874 2.683901 2.12132 2.12132 
C 2.683901 1.55874 3 0.795609 3 0 
C 3 -0.795609 2.683901 -1.55874 2.12132 -2.12132 
C 1.55874 -2.683901 0.795609 -3 0 -3 
C -0.795609 -3 -1.55874 -2.683901 -2.12132 -2.12132 
C -2.683901 -1.55874 -3 -0.795609 -3 0 
C -3 0.795609 -2.683901 1.55874 -2.12132 2.12132 
C -1.55874 2.683901 -0.795609 3 0 3 
z
" style="stroke: #e0e0e0"/>
    </defs>
    <g clip-path="url(#pffa07019bc)">
     <use xlink:href="#mfe37d6d14d" x="228.96" y="189.761234" style="fill: #e0e0e0; stroke: #e0e0e0"/>
     <use xlink:href="#mfe37d6d14d" x="382.599835" y="189.761234" style="fill: #e0e0e0; stroke: #e0e0e0"/>
     <use xlink:href="#mfe37d6d14d" x="382.599835" y="367.169234" style="fill: #e0e0e0; stroke: #e0e0e0"/>
     <use xlink:href="#mfe37d6d14d" x="228.96" y="411.521234" style="fill: #e0e0e0; stroke: #e0e0e0"/>
     <use xlink:href="#mfe37d6d14d" x="36.910206" y="389.345234" style="fill: #e0e0e0; stroke: #e0e0e0"/>
     <use xlink:href="#mfe37d6d14d" x="113.730124" y="211.937234" style="fill: #e0e0e0; stroke: #e0e0e0"/>
     <use xlink:href="#mfe37d6d14d" x="228.96" y="189.761234" style="fill: #e0e0e0; stroke: #e0e0e0"/>
    </g>
   </g>
   <g id="patch_9">
    <path d="M 228.96 56.705234 
C 199.838744 56.705234 171.000655 62.441487 144.096122 73.585709 
C 117.191589 84.729932 92.743838 101.065397 72.152 121.657235 
C 51.560162 142.249072 35.224697 166.696824 24.080475 193.601356 
C 12.936253 220.505889 7.2 249.343978 7.2 278.465234 
C 7.2 307.586491 12.936253 336.42458 24.080475 363.329112 
C 35.224697 390.233645 51.560162 414.681396 72.152 435.273234 
C 92.743838 455.865072 117.191589 472.200537 144.096122 483.34476 
C 171.000655 494.488982 199.838744 500.225234 228.96 500.225234 
C 258.081256 500.225234 286.919345 494.488982 313.823878 483.34476 
C 340.728411 472.200537 365.176162 455.865072 385.768 435.273234 
C 406.359838 414.681396 422.695303 390.233645 433.839525 363.329112 
C 444.983747 336.42458 450.72 307.586491 450.72 278.465234 
C 450.72 249.343978 444.983747 220.505889 433.839525 193.601356 
C 422.695303 166.696824 406.359838 142.249072 385.768 121.657235 
C 365.176162 101.065397 340.728411 84.729932 313.823878 73.585709 
C 286.919345 62.441487 258.081256 56.705234 228.96 56.705234 
" style="fill: none; stroke: #000000; stroke-width: 0.8; stroke-linejoin: miter; stroke-linecap: square"/>
   </g>
   <g id="text_12">
    <!-- 6가지 말투 레이더 차트 -->
    <g transform="translate(165.064219 17.95375) scale(0.14 -0.14)">
     <defs>
      <path id="AppleSDGothicNeo-Regular-36" d="M 1837 192 
C 2707 192 3232 826 3232 1645 
C 3232 2464 2656 2957 1939 2957 
C 1459 2957 1107 2733 877 2496 
C 941 3834 1350 4205 2080 4205 
C 2355 4205 2733 4096 2886 4006 
L 3034 4378 
C 2854 4486 2458 4634 2029 4634 
C 1037 4634 365 3968 365 2451 
L 365 2118 
C 365 896 877 192 1837 192 
z
M 1830 614 
C 1146 614 877 1139 877 1939 
L 877 1984 
C 1056 2240 1427 2528 1837 2528 
C 2355 2528 2720 2266 2720 1594 
C 2720 979 2387 614 1830 614 
z
" transform="scale(0.015625)"/>
      <path id="AppleSDGothicNeo-Regular-ac00" d="M 4544 5146 
L 4058 5146 
L 4058 -448 
L 4544 -448 
L 4544 2400 
L 5459 2400 
L 5459 2816 
L 4544 2816 
L 4544 5146 
z
M 3091 4544 
L 461 4544 
L 461 4134 
L 2566 4134 
C 2464 2874 1664 1696 269 1050 
L 570 666 
C 2010 1414 3059 2726 3091 4544 
z
" transform="scale(0.015625)"/>
      <path id="AppleSDGothicNeo-Regular-c9c0" d="M 3699 1248 
C 2931 1664 2221 2566 2221 3610 
L 2221 4179 
L 3526 4179 
L 3526 4582 
L 410 4582 
L 410 4179 
L 1715 4179 
L 1715 3603 
C 1715 2547 1043 1594 224 1114 
L 525 755 
C 1171 1171 1786 1888 1971 2586 
C 2163 1926 2874 1222 3398 883 
L 3699 1248 
z
M 4346 5146 
L 4346 -448 
L 4832 -448 
L 4832 5146 
L 4346 5146 
z
" transform="scale(0.015625)"/>
      <path id="AppleSDGothicNeo-Regular-20" transform="scale(0.015625)"/>
      <path id="AppleSDGothicNeo-Regular-b9d0" d="M 5395 3494 
L 5395 3904 
L 4544 3904 
L 4544 5146 
L 4058 5146 
L 4058 2285 
L 4544 2285 
L 4544 3494 
L 5395 3494 
z
M 4749 -410 
L 4749 -6 
L 1466 -6 
L 1466 634 
L 4544 634 
L 4544 1978 
L 979 1978 
L 979 1574 
L 4058 1574 
L 4058 1011 
L 979 1011 
L 979 -410 
L 4749 -410 
z
M 3098 2509 
L 3098 4794 
L 442 4794 
L 442 2509 
L 3098 2509 
z
M 2611 2912 
L 928 2912 
L 928 4390 
L 2611 4390 
L 2611 2912 
z
" transform="scale(0.015625)"/>
      <path id="AppleSDGothicNeo-Regular-d22c" d="M 4570 3386 
L 4570 3795 
L 1331 3795 
L 1331 4435 
L 4653 4435 
L 4653 4845 
L 845 4845 
L 845 2310 
L 4723 2310 
L 4723 2720 
L 1331 2720 
L 1331 3386 
L 4570 3386 
z
M 3002 -397 
L 3002 1338 
L 5293 1338 
L 5293 1747 
L 243 1747 
L 243 1338 
L 2515 1338 
L 2515 -397 
L 3002 -397 
z
" transform="scale(0.015625)"/>
      <path id="AppleSDGothicNeo-Regular-b808" d="M 4979 -448 
L 4979 5146 
L 4506 5146 
L 4506 -448 
L 4979 -448 
z
M 3904 -160 
L 3904 5011 
L 3430 5011 
L 3430 2970 
L 2707 2970 
L 2707 2566 
L 3430 2566 
L 3430 -160 
L 3904 -160 
z
M 2790 1485 
C 2170 1363 1389 1338 883 1338 
L 883 2611 
L 2451 2611 
L 2451 4525 
L 384 4525 
L 384 4122 
L 1958 4122 
L 1958 3014 
L 397 3014 
L 397 922 
L 877 922 
C 1632 922 2310 966 2854 1075 
L 2790 1485 
z
" transform="scale(0.015625)"/>
      <path id="AppleSDGothicNeo-Regular-c774" d="M 4845 -448 
L 4845 5146 
L 4358 5146 
L 4358 -448 
L 4845 -448 
z
M 429 2752 
C 429 1562 954 768 1869 768 
C 2797 768 3315 1562 3315 2746 
C 3315 3930 2797 4723 1869 4723 
C 954 4723 429 3930 429 2752 
z
M 2854 2746 
C 2854 1830 2464 1190 1869 1190 
C 1280 1190 890 1830 890 2746 
C 890 3667 1280 4301 1869 4301 
C 2464 4301 2854 3667 2854 2746 
z
" transform="scale(0.015625)"/>
      <path id="AppleSDGothicNeo-Regular-b354" d="M 4806 -448 
L 4806 5146 
L 4320 5146 
L 4320 3104 
L 2669 3104 
L 2669 2688 
L 4320 2688 
L 4320 -448 
L 4806 -448 
z
M 3475 1536 
C 2854 1414 1792 1331 960 1363 
L 960 4179 
L 3110 4179 
L 3110 4589 
L 474 4589 
L 474 947 
L 858 941 
C 1856 922 2912 998 3533 1114 
L 3475 1536 
z
" transform="scale(0.015625)"/>
      <path id="AppleSDGothicNeo-Regular-cc28" d="M 3546 1094 
C 2893 1344 2106 2150 2106 3168 
L 2106 3366 
L 3398 3366 
L 3398 3770 
L 320 3770 
L 320 3366 
L 1606 3366 
L 1606 3168 
C 1606 2131 851 1267 154 934 
L 448 570 
C 1043 890 1702 1626 1862 2221 
C 2061 1638 2694 992 3258 723 
L 3546 1094 
z
M 5446 2406 
L 5446 2822 
L 4544 2822 
L 4544 5146 
L 4058 5146 
L 4058 -448 
L 4544 -448 
L 4544 2406 
L 5446 2406 
z
M 2701 4378 
L 2701 4794 
L 1011 4794 
L 1011 4378 
L 2701 4378 
z
" transform="scale(0.015625)"/>
      <path id="AppleSDGothicNeo-Regular-d2b8" d="M 4525 2976 
L 4525 3386 
L 1350 3386 
L 1350 4198 
L 4634 4198 
L 4634 4608 
L 858 4608 
L 858 1696 
L 4691 1696 
L 4691 2106 
L 1350 2106 
L 1350 2976 
L 4525 2976 
z
M 5293 262 
L 5293 672 
L 243 672 
L 243 262 
L 5293 262 
z
" transform="scale(0.015625)"/>
     </defs>
     <use xlink:href="#AppleSDGothicNeo-Regular-36"/>
     <use xlink:href="#AppleSDGothicNeo-Regular-ac00" transform="translate(55.399994 0)"/>
     <use xlink:href="#AppleSDGothicNeo-Regular-c9c0" transform="translate(141.899979 0)"/>
     <use xlink:href="#AppleSDGothicNeo-Regular-20" transform="translate(228.399963 0)"/>
     <use xlink:href="#AppleSDGothicNeo-Regular-b9d0" transform="translate(254.699951 0)"/>
     <use xlink:href="#AppleSDGothicNeo-Regular-d22c" transform="translate(341.199936 0)"/>
     <use xlink:href="#AppleSDGothicNeo-Regular-20" transform="translate(427.699921 0)"/>
     <use xlink:href="#AppleSDGothicNeo-Regular-b808" transform="translate(453.999908 0)"/>
     <use xlink:href="#AppleSDGothicNeo-Regular-c774" transform="translate(540.499893 0)"/>
     <use xlink:href="#AppleSDGothicNeo-Regular-b354" transform="translate(626.999878 0)"/>
     <use xlink:href="#AppleSDGothicNeo-Regular-20" transform="translate(713.499863 0)"/>
     <use xlink:href="#AppleSDGothicNeo-Regular-cc28" transform="translate(739.79985 0)"/>
     <use xlink:href="#AppleSDGothicNeo-Regular-d2b8" transform="translate(826.299835 0)"/>
    </g>
   </g>
   <g id="legend_1">
    <g id="patch_10">
     <path d="M 530.038406 93.752609 
L 599.652 93.752609 
Q 601.452 93.752609 601.452 91.952609 
L 601.452 18.653234 
Q 601.452 16.853234 599.652 16.853234 
L 530.038406 16.853234 
Q 528.238406 16.853234 528.238406 18.653234 
L 528.238406 91.952609 
Q 528.238406 93.752609 530.038406 93.752609 
z
" style="fill: #ffffff; opacity: 0.8; stroke: #cccccc; stroke-linejoin: miter"/>
    </g>
    <g id="line2d_18">
     <path d="M 531.838406 24.216359 
L 540.838406 24.216359 
L 549.838406 24.216359 
" style="fill: none; stroke: #a8c8e8; stroke-width: 1.5; stroke-linecap: square"/>
     <g>
      <use xlink:href="#m61a4297190" x="540.838406" y="24.216359" style="fill: #a8c8e8; stroke: #a8c8e8"/>
     </g>
    </g>
    <g id="text_13">
     <!-- A. 강의형 -->
     <g transform="translate(557.038406 27.366359) scale(0.09 -0.09)">
      <defs>
       <path id="AppleSDGothicNeo-Regular-41" d="M 122 269 
L 608 269 
L 1050 1523 
L 2771 1523 
L 3226 269 
L 3757 269 
L 2189 4563 
L 1696 4563 
L 122 269 
z
M 1901 3885 
L 1914 3885 
L 2611 1952 
L 1197 1952 
L 1901 3885 
z
" transform="scale(0.015625)"/>
       <path id="AppleSDGothicNeo-Regular-2e" d="M 269 109 
L 826 109 
L 826 678 
L 269 678 
L 269 109 
z
" transform="scale(0.015625)"/>
       <path id="AppleSDGothicNeo-Regular-ac15" d="M 5395 3168 
L 5395 3571 
L 4544 3571 
L 4544 5146 
L 4058 5146 
L 4058 1702 
L 4544 1702 
L 4544 3168 
L 5395 3168 
z
M 4614 640 
C 4614 1306 3910 1715 2733 1715 
C 1562 1715 864 1306 864 640 
C 864 -26 1562 -435 2733 -435 
C 3910 -435 4614 -26 4614 640 
z
M 2733 1318 
C 3584 1318 4115 1069 4115 640 
C 4115 211 3584 -32 2733 -32 
C 1888 -32 1363 211 1363 640 
C 1363 1069 1888 1318 2733 1318 
z
M 448 4710 
L 448 4294 
L 2490 4294 
C 2349 3334 1312 2426 211 2182 
L 461 1779 
C 1888 2214 2957 3245 3040 4710 
L 448 4710 
z
" transform="scale(0.015625)"/>
       <path id="AppleSDGothicNeo-Regular-c758" d="M 4352 5146 
L 4352 -448 
L 4838 -448 
L 4838 5146 
L 4352 5146 
z
M 3469 3379 
C 3469 4198 2842 4710 2016 4710 
C 1203 4710 557 4166 557 3379 
C 557 2630 1190 2080 2016 2080 
C 2822 2080 3469 2586 3469 3379 
z
M 2995 3379 
C 2995 2854 2547 2490 2016 2490 
C 1472 2490 1030 2861 1030 3379 
C 1030 3904 1478 4294 2016 4294 
C 2560 4294 2995 3942 2995 3379 
z
M 4026 973 
L 3981 1370 
C 3571 1318 2848 1274 2067 1248 
C 1389 1210 730 1197 250 1203 
L 339 774 
C 762 781 1376 800 2035 832 
C 2746 864 3546 915 4026 973 
z
" transform="scale(0.015625)"/>
       <path id="AppleSDGothicNeo-Regular-d615" d="M 4838 525 
C 4838 1120 4192 1491 2976 1491 
C 1760 1491 1133 1126 1133 525 
C 1133 -70 1760 -435 2976 -435 
C 4192 -435 4838 -70 4838 525 
z
M 2976 1094 
C 3827 1094 4333 883 4333 525 
C 4333 160 3827 -38 2976 -38 
C 2131 -38 1638 166 1638 525 
C 1638 877 2131 1094 2976 1094 
z
M 4813 1491 
L 4813 5146 
L 4326 5146 
L 4326 3686 
L 3341 3686 
L 3341 3290 
L 4326 3290 
L 4326 2650 
L 3341 2650 
L 3341 2246 
L 4326 2246 
L 4326 1491 
L 4813 1491 
z
M 2643 4621 
L 2643 5037 
L 1043 5037 
L 1043 4621 
L 2643 4621 
z
M 3386 3827 
L 3386 4218 
L 262 4218 
L 262 3827 
L 3386 3827 
z
M 3155 2611 
C 3155 3187 2605 3539 1862 3539 
C 1133 3539 582 3187 582 2611 
C 582 2042 1139 1683 1862 1683 
C 2605 1683 3155 2048 3155 2611 
z
M 2669 2611 
C 2669 2266 2304 2074 1862 2074 
C 1440 2074 1062 2266 1062 2611 
C 1062 2957 1434 3149 1862 3149 
C 2304 3149 2669 2957 2669 2611 
z
" transform="scale(0.015625)"/>
      </defs>
      <use xlink:href="#AppleSDGothicNeo-Regular-41"/>
      <use xlink:href="#AppleSDGothicNeo-Regular-2e" transform="translate(60.499985 0)"/>
      <use xlink:href="#AppleSDGothicNeo-Regular-20" transform="translate(83.099976 0)"/>
      <use xlink:href="#AppleSDGothicNeo-Regular-ac15" transform="translate(109.399963 0)"/>
      <use xlink:href="#AppleSDGothicNeo-Regular-c758" transform="translate(195.899948 0)"/>
      <use xlink:href="#AppleSDGothicNeo-Regular-d615" transform="translate(282.399933 0)"/>
     </g>
    </g>
    <g id="line2d_19">
     <path d="M 531.838406 36.582922 
L 540.838406 36.582922 
L 549.838406 36.582922 
" style="fill: none; stroke: #c3aed6; stroke-width: 1.5; stroke-linecap: square"/>
     <g>
      <use xlink:href="#mf7e488d00f" x="540.838406" y="36.582922" style="fill: #c3aed6; stroke: #c3aed6"/>
     </g>
    </g>
    <g id="text_14">
     <!-- B. 경험자형 -->
     <g transform="translate(557.038406 39.732922) scale(0.09 -0.09)">
      <defs>
       <path id="AppleSDGothicNeo-Regular-42" d="M 550 269 
L 1990 269 
C 2957 269 3443 768 3443 1478 
C 3443 2131 3059 2432 2534 2515 
L 2534 2547 
C 3040 2694 3251 3034 3251 3482 
C 3251 4166 2854 4563 1862 4563 
L 550 4563 
L 550 269 
z
M 1056 691 
L 1056 2285 
L 1907 2285 
C 2547 2285 2906 2067 2906 1510 
C 2906 960 2579 691 1958 691 
L 1056 691 
z
M 1056 2688 
L 1056 4134 
L 1824 4134 
C 2426 4134 2733 3962 2733 3424 
C 2733 2867 2330 2688 1792 2688 
L 1056 2688 
z
" transform="scale(0.015625)"/>
       <path id="AppleSDGothicNeo-Regular-acbd" d="M 4858 640 
C 4858 1286 4166 1696 2957 1696 
C 1734 1696 1050 1286 1050 640 
C 1050 -13 1734 -422 2957 -422 
C 4166 -422 4858 -13 4858 640 
z
M 2957 1286 
C 3840 1286 4358 1050 4358 640 
C 4358 224 3840 -19 2957 -19 
C 2074 -19 1555 224 1555 640 
C 1555 1050 2074 1286 2957 1286 
z
M 3091 2560 
L 4326 2560 
L 4326 1613 
L 4813 1613 
L 4813 5146 
L 4326 5146 
L 4326 4134 
L 3181 4134 
L 3181 3731 
L 4326 3731 
L 4326 2963 
L 3091 2963 
L 3091 2560 
z
M 3123 4710 
L 550 4710 
L 550 4294 
L 2573 4294 
C 2406 3347 1459 2419 307 2099 
L 550 1683 
C 2029 2202 3040 3302 3123 4710 
z
" transform="scale(0.015625)"/>
       <path id="AppleSDGothicNeo-Regular-d5d8" d="M 4819 -365 
L 4819 1389 
L 1203 1389 
L 1203 -365 
L 4819 -365 
z
M 4333 38 
L 1690 38 
L 1690 986 
L 4333 986 
L 4333 38 
z
M 4813 1690 
L 4813 5146 
L 4326 5146 
L 4326 3341 
L 3366 3341 
L 3366 2938 
L 4326 2938 
L 4326 1690 
L 4813 1690 
z
M 2688 4614 
L 2688 5024 
L 1082 5024 
L 1082 4614 
L 2688 4614 
z
M 3501 3821 
L 3501 4218 
L 237 4218 
L 237 3821 
L 3501 3821 
z
M 3206 2650 
C 3206 3226 2637 3571 1882 3571 
C 1126 3571 557 3226 557 2650 
C 557 2086 1133 1728 1882 1728 
C 2637 1728 3206 2093 3206 2650 
z
M 2726 2650 
C 2726 2310 2330 2106 1882 2106 
C 1453 2106 1037 2310 1037 2650 
C 1037 2995 1446 3194 1882 3194 
C 2330 3194 2726 2995 2726 2650 
z
" transform="scale(0.015625)"/>
       <path id="AppleSDGothicNeo-Regular-c790" d="M 3558 1229 
C 2790 1664 2106 2541 2106 3584 
L 2106 4147 
L 3398 4147 
L 3398 4557 
L 307 4557 
L 307 4147 
L 1600 4147 
L 1600 3571 
C 1600 2566 954 1581 128 1094 
L 448 730 
C 1120 1197 1664 1888 1856 2566 
C 2054 1901 2739 1197 3264 864 
L 3558 1229 
z
M 5453 2464 
L 5453 2874 
L 4544 2874 
L 4544 5146 
L 4058 5146 
L 4058 -448 
L 4544 -448 
L 4544 2464 
L 5453 2464 
z
" transform="scale(0.015625)"/>
      </defs>
      <use xlink:href="#AppleSDGothicNeo-Regular-42"/>
      <use xlink:href="#AppleSDGothicNeo-Regular-2e" transform="translate(58.599991 0)"/>
      <use xlink:href="#AppleSDGothicNeo-Regular-20" transform="translate(81.199982 0)"/>
      <use xlink:href="#AppleSDGothicNeo-Regular-acbd" transform="translate(107.499969 0)"/>
      <use xlink:href="#AppleSDGothicNeo-Regular-d5d8" transform="translate(193.999954 0)"/>
      <use xlink:href="#AppleSDGothicNeo-Regular-c790" transform="translate(280.499939 0)"/>
      <use xlink:href="#AppleSDGothicNeo-Regular-d615" transform="translate(366.999924 0)"/>
     </g>
    </g>
    <g id="line2d_20">
     <path d="M 531.838406 48.949484 
L 540.838406 48.949484 
L 549.838406 48.949484 
" style="fill: none; stroke: #a8d5ba; stroke-width: 1.5; stroke-linecap: square"/>
     <g>
      <use xlink:href="#m04bace0046" x="540.838406" y="48.949484" style="fill: #a8d5ba; stroke: #a8d5ba"/>
     </g>
    </g>
    <g id="text_15">
     <!-- C. 보고서형 -->
     <g transform="translate(557.038406 52.099484) scale(0.09 -0.09)">
      <defs>
       <path id="AppleSDGothicNeo-Regular-43" d="M 2182 198 
C 2688 198 3078 314 3366 480 
L 3366 909 
C 3098 774 2778 627 2246 627 
C 1261 627 851 1267 851 2368 
L 851 2579 
C 851 3718 1427 4205 2240 4205 
C 2662 4205 2982 4109 3322 3974 
L 3322 4397 
C 3059 4538 2726 4634 2266 4634 
C 1171 4634 314 4032 314 2496 
L 314 2368 
C 314 915 1024 198 2182 198 
z
" transform="scale(0.015625)"/>
       <path id="AppleSDGothicNeo-Regular-bcf4" d="M 4678 1798 
L 4678 4762 
L 4192 4762 
L 4192 3731 
L 1344 3731 
L 1344 4762 
L 851 4762 
L 851 1798 
L 2515 1798 
L 2515 659 
L 243 659 
L 243 250 
L 5293 250 
L 5293 659 
L 3002 659 
L 3002 1798 
L 4678 1798 
z
M 4192 2202 
L 1344 2202 
L 1344 3328 
L 4192 3328 
L 4192 2202 
z
" transform="scale(0.015625)"/>
       <path id="AppleSDGothicNeo-Regular-ace0" d="M 5293 358 
L 5293 768 
L 2656 768 
L 2656 2790 
L 2170 2790 
L 2170 768 
L 243 768 
L 243 358 
L 5293 358 
z
M 4614 4563 
L 762 4563 
L 762 4154 
L 4109 4154 
L 4109 3610 
C 4109 2874 4038 2029 3910 1504 
L 4390 1427 
C 4557 2138 4608 3008 4614 3859 
L 4614 4563 
z
" transform="scale(0.015625)"/>
       <path id="AppleSDGothicNeo-Regular-c11c" d="M 4832 -448 
L 4832 5146 
L 4346 5146 
L 4346 3149 
L 3040 3149 
L 3040 2739 
L 4346 2739 
L 4346 -448 
L 4832 -448 
z
M 3590 1261 
C 2822 1709 2157 2618 2157 3642 
L 2157 4659 
L 1651 4659 
L 1651 3622 
C 1651 2630 1005 1638 192 1126 
L 512 762 
C 1158 1229 1709 1920 1907 2618 
C 2131 1946 2778 1235 3290 890 
L 3590 1261 
z
" transform="scale(0.015625)"/>
      </defs>
      <use xlink:href="#AppleSDGothicNeo-Regular-43"/>
      <use xlink:href="#AppleSDGothicNeo-Regular-2e" transform="translate(56.999985 0)"/>
      <use xlink:href="#AppleSDGothicNeo-Regular-20" transform="translate(79.599976 0)"/>
      <use xlink:href="#AppleSDGothicNeo-Regular-bcf4" transform="translate(105.899963 0)"/>
      <use xlink:href="#AppleSDGothicNeo-Regular-ace0" transform="translate(192.399948 0)"/>
      <use xlink:href="#AppleSDGothicNeo-Regular-c11c" transform="translate(278.899933 0)"/>
      <use xlink:href="#AppleSDGothicNeo-Regular-d615" transform="translate(365.399918 0)"/>
     </g>
    </g>
    <g id="line2d_21">
     <path d="M 531.838406 61.316047 
L 540.838406 61.316047 
L 549.838406 61.316047 
" style="fill: none; stroke: #ffe0a3; stroke-width: 1.5; stroke-linecap: square"/>
     <g>
      <use xlink:href="#md94dcc4e37" x="540.838406" y="61.316047" style="fill: #ffe0a3; stroke: #ffe0a3"/>
     </g>
    </g>
    <g id="text_16">
     <!-- D. 선배형 -->
     <g transform="translate(557.038406 64.466047) scale(0.09 -0.09)">
      <defs>
       <path id="AppleSDGothicNeo-Regular-44" d="M 550 269 
L 1830 269 
C 3226 269 3853 1056 3853 2406 
L 3853 2528 
C 3853 3898 3130 4563 1824 4563 
L 550 4563 
L 550 269 
z
M 1056 704 
L 1056 4128 
L 1773 4128 
C 2758 4128 3302 3718 3302 2528 
L 3302 2336 
C 3302 1190 2854 704 1843 704 
L 1056 704 
z
" transform="scale(0.015625)"/>
       <path id="AppleSDGothicNeo-Regular-c120" d="M 4813 1082 
L 4813 5146 
L 4326 5146 
L 4326 3731 
L 3136 3731 
L 3136 3322 
L 4326 3322 
L 4326 1082 
L 4813 1082 
z
M 4934 -275 
L 4934 128 
L 1702 128 
L 1702 1434 
L 1216 1434 
L 1216 -275 
L 4934 -275 
z
M 3514 2298 
C 2854 2541 2106 3213 2106 4147 
L 2106 4826 
L 1613 4826 
L 1613 4128 
C 1613 3226 934 2464 192 2138 
L 493 1760 
C 1101 2067 1702 2675 1869 3277 
C 2106 2688 2675 2163 3238 1914 
L 3514 2298 
z
" transform="scale(0.015625)"/>
       <path id="AppleSDGothicNeo-Regular-bc30" d="M 2662 954 
L 2662 4589 
L 2182 4589 
L 2182 3219 
L 909 3219 
L 909 4589 
L 429 4589 
L 429 954 
L 2662 954 
z
M 4960 -448 
L 4960 5146 
L 4480 5146 
L 4480 2848 
L 3795 2848 
L 3795 5011 
L 3322 5011 
L 3322 -166 
L 3795 -166 
L 3795 2438 
L 4480 2438 
L 4480 -448 
L 4960 -448 
z
M 2182 1363 
L 909 1363 
L 909 2816 
L 2182 2816 
L 2182 1363 
z
" transform="scale(0.015625)"/>
      </defs>
      <use xlink:href="#AppleSDGothicNeo-Regular-44"/>
      <use xlink:href="#AppleSDGothicNeo-Regular-2e" transform="translate(64.999985 0)"/>
      <use xlink:href="#AppleSDGothicNeo-Regular-20" transform="translate(87.599976 0)"/>
      <use xlink:href="#AppleSDGothicNeo-Regular-c120" transform="translate(113.899963 0)"/>
      <use xlink:href="#AppleSDGothicNeo-Regular-bc30" transform="translate(200.399948 0)"/>
      <use xlink:href="#AppleSDGothicNeo-Regular-d615" transform="translate(286.899933 0)"/>
     </g>
    </g>
    <g id="line2d_22">
     <path d="M 531.838406 73.682609 
L 540.838406 73.682609 
L 549.838406 73.682609 
" style="fill: none; stroke: #f4a7a7; stroke-width: 1.5; stroke-linecap: square"/>
     <g>
      <use xlink:href="#m081e6a01ba" x="540.838406" y="73.682609" style="fill: #f4a7a7; stroke: #f4a7a7"/>
     </g>
    </g>
    <g id="text_17">
     <!-- E. 마케팅형 -->
     <g transform="translate(557.038406 76.832609) scale(0.09 -0.09)">
      <defs>
       <path id="AppleSDGothicNeo-Regular-45" d="M 557 269 
L 3123 269 
L 3123 698 
L 1062 698 
L 1062 2266 
L 2637 2266 
L 2637 2694 
L 1062 2694 
L 1062 4134 
L 3104 4134 
L 3104 4563 
L 557 4563 
L 557 269 
z
" transform="scale(0.015625)"/>
       <path id="AppleSDGothicNeo-Regular-b9c8" d="M 3034 960 
L 3034 4570 
L 416 4570 
L 416 960 
L 3034 960 
z
M 2547 1363 
L 902 1363 
L 902 4166 
L 2547 4166 
L 2547 1363 
z
M 5459 2483 
L 5459 2893 
L 4544 2893 
L 4544 5146 
L 4058 5146 
L 4058 -448 
L 4544 -448 
L 4544 2483 
L 5459 2483 
z
" transform="scale(0.015625)"/>
       <path id="AppleSDGothicNeo-Regular-cf00" d="M 2637 4506 
L 461 4506 
L 461 4096 
L 2138 4096 
C 2125 3782 2080 3482 1997 3187 
L 230 3059 
L 339 2618 
L 1856 2790 
C 1562 2106 1030 1504 192 1050 
L 512 691 
C 1952 1574 2637 2790 2637 4506 
z
M 3872 -166 
L 3872 5011 
L 3405 5011 
L 3405 2970 
L 2541 2970 
L 2541 2566 
L 3405 2566 
L 3405 -166 
L 3872 -166 
z
M 4960 -448 
L 4960 5146 
L 4480 5146 
L 4480 -448 
L 4960 -448 
z
" transform="scale(0.015625)"/>
       <path id="AppleSDGothicNeo-Regular-d305" d="M 4851 608 
C 4851 1248 4173 1651 2970 1651 
C 1773 1651 1101 1248 1101 608 
C 1101 -26 1773 -422 2970 -422 
C 4173 -422 4851 -26 4851 608 
z
M 4813 5146 
L 4326 5146 
L 4326 1664 
L 4813 1664 
L 4813 5146 
z
M 4333 608 
C 4333 218 3834 -13 2970 -13 
C 2125 -13 1619 218 1619 608 
C 1619 1005 2125 1242 2970 1242 
C 3834 1242 4333 1005 4333 608 
z
M 3699 2598 
C 3021 2483 1952 2451 1197 2451 
L 1018 2451 
L 1018 3251 
L 3085 3251 
L 3085 3648 
L 1018 3648 
L 1018 4358 
L 3142 4358 
L 3142 4762 
L 531 4762 
L 531 2042 
L 1050 2042 
C 1862 2042 3104 2099 3750 2195 
L 3699 2598 
z
" transform="scale(0.015625)"/>
      </defs>
      <use xlink:href="#AppleSDGothicNeo-Regular-45"/>
      <use xlink:href="#AppleSDGothicNeo-Regular-2e" transform="translate(54.999985 0)"/>
      <use xlink:href="#AppleSDGothicNeo-Regular-20" transform="translate(77.599976 0)"/>
      <use xlink:href="#AppleSDGothicNeo-Regular-b9c8" transform="translate(103.899963 0)"/>
      <use xlink:href="#AppleSDGothicNeo-Regular-cf00" transform="translate(190.399948 0)"/>
      <use xlink:href="#AppleSDGothicNeo-Regular-d305" transform="translate(276.899933 0)"/>
      <use xlink:href="#AppleSDGothicNeo-Regular-d615" transform="translate(363.399918 0)"/>
     </g>
    </g>
    <g id="line2d_23">
     <path d="M 531.838406 86.049172 
L 540.838406 86.049172 
L 549.838406 86.049172 
" style="fill: none; stroke: #e0e0e0; stroke-width: 1.5; stroke-linecap: square"/>
     <g>
      <use xlink:href="#mfe37d6d14d" x="540.838406" y="86.049172" style="fill: #e0e0e0; stroke: #e0e0e0"/>
     </g>
    </g>
    <g id="text_18">
     <!-- F. 기사형 -->
     <g transform="translate(557.038406 89.199172) scale(0.09 -0.09)">
      <defs>
       <path id="AppleSDGothicNeo-Regular-46" d="M 550 269 
L 1056 269 
L 1056 2195 
L 2586 2195 
L 2586 2630 
L 1056 2630 
L 1056 4134 
L 3040 4134 
L 3040 4563 
L 550 4563 
L 550 269 
z
" transform="scale(0.015625)"/>
       <path id="AppleSDGothicNeo-Regular-ae30" d="M 4813 -448 
L 4813 5146 
L 4326 5146 
L 4326 -448 
L 4813 -448 
z
M 3168 4550 
L 506 4550 
L 506 4141 
L 2650 4141 
C 2547 2880 1715 1664 301 1043 
L 582 659 
C 2029 1344 3142 2733 3168 4550 
z
" transform="scale(0.015625)"/>
       <path id="AppleSDGothicNeo-Regular-c0ac" d="M 5446 2477 
L 5446 2886 
L 4544 2886 
L 4544 5146 
L 4058 5146 
L 4058 -448 
L 4544 -448 
L 4544 2477 
L 5446 2477 
z
M 3526 1286 
C 2752 1741 2048 2656 2048 3674 
L 2048 4653 
L 1549 4653 
L 1549 3661 
C 1549 2669 890 1664 77 1165 
L 390 787 
C 1050 1248 1594 1958 1792 2656 
C 2016 1978 2643 1312 3219 915 
L 3526 1286 
z
" transform="scale(0.015625)"/>
      </defs>
      <use xlink:href="#AppleSDGothicNeo-Regular-46"/>
      <use xlink:href="#AppleSDGothicNeo-Regular-2e" transform="translate(51.599991 0)"/>
      <use xlink:href="#AppleSDGothicNeo-Regular-20" transform="translate(74.199982 0)"/>
      <use xlink:href="#AppleSDGothicNeo-Regular-ae30" transform="translate(100.499969 0)"/>
      <use xlink:href="#AppleSDGothicNeo-Regular-c0ac" transform="translate(186.999954 0)"/>
      <use xlink:href="#AppleSDGothicNeo-Regular-d615" transform="translate(273.499939 0)"/>
     </g>
    </g>
   </g>
  </g>
 </g>
 <defs>
  <clipPath id="pffa07019bc">
   <path d="M 450.72 278.465234 
C 450.72 249.343978 444.983747 220.505889 433.839525 193.601356 
C 422.695303 166.696824 406.359838 142.249072 385.768 121.657235 
C 365.176162 101.065397 340.728411 84.729932 313.823878 73.585709 
C 286.919345 62.441487 258.081256 56.705234 228.96 56.705234 
C 199.838744 56.705234 171.000655 62.441487 144.096122 73.585709 
C 117.191589 84.729932 92.743838 101.065397 72.152 121.657235 
C 51.560162 142.249072 35.224697 166.696824 24.080475 193.601356 
C 12.936253 220.505889 7.2 249.343978 7.2 278.465234 
C 7.2 307.586491 12.936253 336.42458 24.080475 363.329112 
C 35.224697 390.233645 51.560162 414.681396 72.152 435.273234 
C 92.743838 455.865072 117.191589 472.200537 144.096122 483.34476 
C 171.000655 494.488982 199.838744 500.225234 228.96 500.225234 
C 258.081256 500.225234 286.919345 494.488982 313.823878 483.34476 
C 340.728411 472.200537 365.176162 455.865072 385.768 435.273234 
C 406.359838 414.681396 422.695303 390.233645 433.839525 363.329112 
C 444.983747 336.42458 450.72 307.586491 450.72 278.465234 
M 228.96 278.465234 
C 228.96 278.465234 228.96 278.465234 228.96 278.465234 
C 228.96 278.465234 228.96 278.465234 228.96 278.465234 
C 228.96 278.465234 228.96 278.465234 228.96 278.465234 
C 228.96 278.465234 228.96 278.465234 228.96 278.465234 
C 228.96 278.465234 228.96 278.465234 228.96 278.465234 
C 228.96 278.465234 228.96 278.465234 228.96 278.465234 
C 228.96 278.465234 228.96 278.465234 228.96 278.465234 
C 228.96 278.465234 228.96 278.465234 228.96 278.465234 
C 228.96 278.465234 228.96 278.465234 228.96 278.465234 
C 228.96 278.465234 228.96 278.465234 228.96 278.465234 
C 228.96 278.465234 228.96 278.465234 228.96 278.465234 
C 228.96 278.465234 228.96 278.465234 228.96 278.465234 
C 228.96 278.465234 228.96 278.465234 228.96 278.465234 
C 228.96 278.465234 228.96 278.465234 228.96 278.465234 
C 228.96 278.465234 228.96 278.465234 228.96 278.465234 
C 228.96 278.465234 228.96 278.465234 228.96 278.465234 
z
"/>
  </clipPath>
 </defs>
</svg>
