<?xml version="1.0" encoding="utf-8" standalone="no"?>
<!DOCTYPE svg PUBLIC "-//W3C//DTD SVG 1.1//EN"
  "http://www.w3.org/Graphics/SVG/1.1/DTD/svg11.dtd">
<svg xmlns:xlink="http://www.w3.org/1999/xlink" width="657pt" height="293.726875pt" viewBox="0 0 657 293.726875" xmlns="http://www.w3.org/2000/svg" version="1.1">
 <metadata>
  <rdf:RDF xmlns:dc="http://purl.org/dc/elements/1.1/" xmlns:cc="http://creativecommons.org/ns#" xmlns:rdf="http://www.w3.org/1999/02/22-rdf-syntax-ns#">
   <cc:Work>
    <dc:type rdf:resource="http://purl.org/dc/dcmitype/StillImage"/>
    <dc:date>2026-02-18T23:23:36.673362</dc:date>
    <dc:format>image/svg+xml</dc:format>
    <dc:creator>
     <cc:Agent>
      <dc:title>Matplotlib v3.10.8, https://matplotlib.org/</dc:title>
     </cc:Agent>
    </dc:creator>
   </cc:Work>
  </rdf:RDF>
 </metadata>
 <defs>
  <style type="text/css">*{stroke-linejoin: round; stroke-linecap: butt}</style>
 </defs>
 <g id="figure_1">
  <g id="patch_1">
   <path d="M 0 293.726875 
L 657 293.726875 
L 657 0 
L 0 0 
z
" style="fill: #ffffff"/>
  </g>
  <g id="axes_1">
   <g id="patch_2">
    <path d="M 73.551724 237.715841 
L 184.189655 237.715841 
Q 191.405172 237.715841 191.405172 229.522737 
L 191.405172 98.433082 
Q 191.405172 90.239978 184.189655 90.239978 
L 73.551724 90.239978 
Q 66.336207 90.239978 66.336207 98.433082 
L 66.336207 229.522737 
Q 66.336207 237.715841 73.551724 237.715841 
z
" clip-path="url(#p7721ccbb01)" style="fill: #e3f2fd; stroke: #002060; stroke-width: 1.2; stroke-linejoin: miter"/>
   </g>
   <g id="patch_3">
    <path d="M 203.431034 237.715841 
L 314.068966 237.715841 
Q 321.284483 237.715841 321.284483 229.522737 
L 321.284483 98.433082 
Q 321.284483 90.239978 314.068966 90.239978 
L 203.431034 90.239978 
Q 196.215517 90.239978 196.215517 98.433082 
L 196.215517 229.522737 
Q 196.215517 237.715841 203.431034 237.715841 
z
" clip-path="url(#p7721ccbb01)" style="fill: #f3e5f5; stroke: #4a148c; stroke-width: 1.2; stroke-linejoin: miter"/>
   </g>
   <g id="patch_4">
    <path d="M 333.310345 237.715841 
L 443.948276 237.715841 
Q 451.163793 237.715841 451.163793 229.522737 
L 451.163793 98.433082 
Q 451.163793 90.239978 443.948276 90.239978 
L 333.310345 90.239978 
Q 326.094828 90.239978 326.094828 98.433082 
L 326.094828 229.522737 
Q 326.094828 237.715841 333.310345 237.715841 
z
" clip-path="url(#p7721ccbb01)" style="fill: #e8f5e9; stroke: #2e7d32; stroke-width: 1.2; stroke-linejoin: miter"/>
   </g>
   <g id="patch_5">
    <path d="M 463.189655 237.715841 
L 573.827586 237.715841 
Q 581.043103 237.715841 581.043103 229.522737 
L 581.043103 98.433082 
Q 581.043103 90.239978 573.827586 90.239978 
L 463.189655 90.239978 
Q 455.974138 90.239978 455.974138 98.433082 
L 455.974138 229.522737 
Q 455.974138 237.715841 463.189655 237.715841 
z
" clip-path="url(#p7721ccbb01)" style="fill: #fffde7; stroke: #f57f17; stroke-width: 1.2; stroke-linejoin: miter"/>
   </g>
   <g id="text_1">
    <!-- 1단계 -->
    <g style="fill: #002060" transform="translate(117.392018 134.847527) scale(0.11 -0.11)">
     <defs>
      <path id="AppleSDGothicNeo-Regular-31" d="M 1146 243 
L 1632 243 
L 1632 4634 
L 1363 4634 
L 352 4160 
L 352 3866 
L 1146 4051 
L 1146 243 
z
" transform="scale(0.015625)"/>
      <path id="AppleSDGothicNeo-Regular-b2e8" d="M 5389 3117 
L 5389 3526 
L 4538 3526 
L 4538 5146 
L 4051 5146 
L 4051 1088 
L 4538 1088 
L 4538 3117 
L 5389 3117 
z
M 4755 -256 
L 4755 147 
L 1555 147 
L 1555 1453 
L 1062 1453 
L 1062 -256 
L 4755 -256 
z
M 922 2400 
L 922 4237 
L 3002 4237 
L 3002 4646 
L 435 4646 
L 435 1997 
L 890 1997 
C 1856 1997 2918 2080 3539 2189 
L 3494 2586 
C 2957 2477 1971 2400 1197 2400 
L 922 2400 
z
" transform="scale(0.015625)"/>
      <path id="AppleSDGothicNeo-Regular-acc4" d="M 3898 -166 
L 3898 5011 
L 3424 5011 
L 3424 3610 
L 2598 3610 
L 2598 3200 
L 3424 3200 
L 3424 2176 
L 2470 2176 
L 2470 1773 
L 3424 1773 
L 3424 -166 
L 3898 -166 
z
M 4960 -448 
L 4960 5146 
L 4480 5146 
L 4480 -448 
L 4960 -448 
z
M 2534 4448 
L 416 4448 
L 416 4038 
L 2048 4038 
C 1971 2874 1370 1747 205 1114 
L 525 749 
C 1818 1574 2496 2739 2534 4448 
z
" transform="scale(0.015625)"/>
     </defs>
     <use xlink:href="#AppleSDGothicNeo-Regular-31"/>
     <use xlink:href="#AppleSDGothicNeo-Regular-b2e8" transform="translate(35.699997 0)"/>
     <use xlink:href="#AppleSDGothicNeo-Regular-acc4" transform="translate(122.199982 0)"/>
    </g>
   </g>
   <g id="text_2">
    <!-- 대량의 텍스트 -->
    <g style="fill: #555555" transform="translate(104.33233 189.643504) scale(0.09 -0.09)">
     <defs>
      <path id="AppleSDGothicNeo-Regular-b300" d="M 4960 -448 
L 4960 5146 
L 4480 5146 
L 4480 2944 
L 3731 2944 
L 3731 5011 
L 3258 5011 
L 3258 -160 
L 3731 -160 
L 3731 2534 
L 4480 2534 
L 4480 -448 
L 4960 -448 
z
M 902 1414 
L 902 4051 
L 2586 4051 
L 2586 4461 
L 416 4461 
L 416 992 
L 787 992 
C 1517 992 2458 1056 2989 1158 
L 2944 1555 
C 2470 1453 1632 1414 1069 1414 
L 902 1414 
z
" transform="scale(0.015625)"/>
      <path id="AppleSDGothicNeo-Regular-b7c9" d="M 4602 589 
C 4602 1216 3962 1613 2752 1613 
C 1536 1613 902 1229 902 589 
C 902 -38 1536 -422 2752 -422 
C 3962 -422 4602 -32 4602 589 
z
M 3456 2624 
C 2797 2490 1670 2451 1024 2451 
L 954 2451 
L 954 3264 
L 2906 3264 
L 2906 4787 
L 448 4787 
L 448 4384 
L 2419 4384 
L 2419 3661 
L 461 3661 
L 461 2042 
L 992 2042 
C 1773 2042 2944 2125 3520 2227 
L 3456 2624 
z
M 2752 1210 
C 3597 1210 4102 986 4102 589 
C 4102 198 3597 -19 2752 -19 
C 1901 -19 1402 211 1402 589 
C 1402 979 1901 1210 2752 1210 
z
M 5389 3072 
L 4538 3072 
L 4538 3872 
L 5389 3872 
L 5389 4275 
L 4538 4275 
L 4538 5146 
L 4051 5146 
L 4051 1741 
L 4538 1741 
L 4538 2669 
L 5389 2669 
L 5389 3072 
z
" transform="scale(0.015625)"/>
      <path id="AppleSDGothicNeo-Regular-c758" d="M 4352 5146 
L 4352 -448 
L 4838 -448 
L 4838 5146 
L 4352 5146 
z
M 3469 3379 
C 3469 4198 2842 4710 2016 4710 
C 1203 4710 557 4166 557 3379 
C 557 2630 1190 2080 2016 2080 
C 2822 2080 3469 2586 3469 3379 
z
M 2995 3379 
C 2995 2854 2547 2490 2016 2490 
C 1472 2490 1030 2861 1030 3379 
C 1030 3904 1478 4294 2016 4294 
C 2560 4294 2995 3942 2995 3379 
z
M 4026 973 
L 3981 1370 
C 3571 1318 2848 1274 2067 1248 
C 1389 1210 730 1197 250 1203 
L 339 774 
C 762 781 1376 800 2035 832 
C 2746 864 3546 915 4026 973 
z
" transform="scale(0.015625)"/>
      <path id="AppleSDGothicNeo-Regular-20" transform="scale(0.015625)"/>
      <path id="AppleSDGothicNeo-Regular-d14d" d="M 986 2515 
L 986 3258 
L 2336 3258 
L 2336 3654 
L 986 3654 
L 986 4326 
L 2586 4326 
L 2586 4730 
L 506 4730 
L 506 2093 
L 864 2093 
C 1600 2093 2349 2144 2886 2253 
L 2822 2656 
C 2362 2554 1792 2515 1120 2515 
L 986 2515 
z
M 1184 1491 
L 1184 1088 
L 4467 1088 
L 4467 -448 
L 4960 -448 
L 4960 1491 
L 1184 1491 
z
M 3891 1818 
L 3891 5043 
L 3424 5043 
L 3424 3706 
L 2637 3706 
L 2637 3302 
L 3424 3302 
L 3424 1818 
L 3891 1818 
z
M 4960 1766 
L 4960 5146 
L 4474 5146 
L 4474 1766 
L 4960 1766 
z
" transform="scale(0.015625)"/>
      <path id="AppleSDGothicNeo-Regular-c2a4" d="M 5107 2266 
C 4250 2458 3021 3322 3021 4237 
L 3021 4678 
L 2515 4678 
L 2515 4237 
C 2515 3322 1350 2458 442 2278 
L 698 1862 
C 1670 2138 2560 2931 2758 3501 
C 2989 2931 3898 2138 4838 1856 
L 5107 2266 
z
M 5293 320 
L 5293 730 
L 243 730 
L 243 320 
L 5293 320 
z
" transform="scale(0.015625)"/>
      <path id="AppleSDGothicNeo-Regular-d2b8" d="M 4525 2976 
L 4525 3386 
L 1350 3386 
L 1350 4198 
L 4634 4198 
L 4634 4608 
L 858 4608 
L 858 1696 
L 4691 1696 
L 4691 2106 
L 1350 2106 
L 1350 2976 
L 4525 2976 
z
M 5293 262 
L 5293 672 
L 243 672 
L 243 262 
L 5293 262 
z
" transform="scale(0.015625)"/>
     </defs>
     <use xlink:href="#AppleSDGothicNeo-Regular-b300"/>
     <use xlink:href="#AppleSDGothicNeo-Regular-b7c9" transform="translate(86.499985 0)"/>
     <use xlink:href="#AppleSDGothicNeo-Regular-c758" transform="translate(172.999969 0)"/>
     <use xlink:href="#AppleSDGothicNeo-Regular-20" transform="translate(259.499954 0)"/>
     <use xlink:href="#AppleSDGothicNeo-Regular-d14d" transform="translate(285.799942 0)"/>
     <use xlink:href="#AppleSDGothicNeo-Regular-c2a4" transform="translate(372.299927 0)"/>
     <use xlink:href="#AppleSDGothicNeo-Regular-d2b8" transform="translate(458.799911 0)"/>
    </g>
    <!-- 학습 -->
    <g style="fill: #555555" transform="translate(121.08569 198.892692) scale(0.09 -0.09)">
     <defs>
      <path id="AppleSDGothicNeo-Regular-d559" d="M 5395 3098 
L 5395 3507 
L 4544 3507 
L 4544 5146 
L 4058 5146 
L 4058 1677 
L 4544 1677 
L 4544 3098 
L 5395 3098 
z
M 2630 4608 
L 2630 5024 
L 1018 5024 
L 1018 4608 
L 2630 4608 
z
M 3424 3814 
L 3424 4218 
L 218 4218 
L 218 3814 
L 3424 3814 
z
M 3085 2624 
C 3085 3194 2541 3552 1811 3552 
C 1075 3552 538 3194 538 2624 
C 538 2061 1082 1696 1811 1696 
C 2541 1696 3085 2067 3085 2624 
z
M 2598 2624 
C 2598 2291 2240 2086 1811 2086 
C 1395 2086 1018 2291 1018 2624 
C 1018 2957 1389 3162 1811 3162 
C 2240 3162 2598 2957 2598 2624 
z
M 922 1370 
L 922 966 
L 4058 966 
L 4058 -448 
L 4544 -448 
L 4544 1370 
L 922 1370 
z
" transform="scale(0.015625)"/>
      <path id="AppleSDGothicNeo-Regular-c2b5" d="M 5030 3418 
C 4166 3514 3027 4109 3027 4896 
L 3027 5075 
L 2522 5075 
L 2522 4896 
C 2522 4109 1402 3514 525 3418 
L 755 2995 
C 1600 3162 2528 3686 2771 4269 
C 3046 3686 3955 3155 4800 2995 
L 5030 3418 
z
M 5293 2144 
L 5293 2554 
L 243 2554 
L 243 2144 
L 5293 2144 
z
M 4653 -371 
L 4653 1754 
L 4160 1754 
L 4160 1094 
L 1376 1094 
L 1376 1747 
L 890 1747 
L 890 -371 
L 4653 -371 
z
M 4160 32 
L 1376 32 
L 1376 698 
L 4160 698 
L 4160 32 
z
" transform="scale(0.015625)"/>
     </defs>
     <use xlink:href="#AppleSDGothicNeo-Regular-d559"/>
     <use xlink:href="#AppleSDGothicNeo-Regular-c2b5" transform="translate(86.499985 0)"/>
    </g>
   </g>
   <g id="text_3">
    <!-- 2단계 -->
    <g style="fill: #4a148c" transform="translate(246.303672 134.847527) scale(0.11 -0.11)">
     <defs>
      <path id="AppleSDGothicNeo-Regular-32" d="M 397 269 
L 3066 269 
L 3066 704 
L 1107 704 
L 1779 1382 
C 2522 2138 2970 2650 2970 3392 
C 2970 4160 2502 4640 1638 4640 
C 1152 4640 717 4422 448 4250 
L 595 3846 
C 845 4019 1190 4198 1555 4198 
C 2163 4198 2438 3917 2438 3347 
C 2438 2733 2029 2266 1421 1632 
L 397 570 
L 397 269 
z
" transform="scale(0.015625)"/>
     </defs>
     <use xlink:href="#AppleSDGothicNeo-Regular-32"/>
     <use xlink:href="#AppleSDGothicNeo-Regular-b2e8" transform="translate(53.299988 0)"/>
     <use xlink:href="#AppleSDGothicNeo-Regular-acc4" transform="translate(139.799973 0)"/>
    </g>
   </g>
   <g id="text_4">
    <!-- 다음 단어 -->
    <g style="fill: #555555" transform="translate(241.996641 189.600473) scale(0.09 -0.09)">
     <defs>
      <path id="AppleSDGothicNeo-Regular-b2e4" d="M 4557 5146 
L 4070 5146 
L 4070 -448 
L 4557 -448 
L 4557 2515 
L 5466 2515 
L 5466 2925 
L 4557 2925 
L 4557 5146 
z
M 954 1338 
L 954 4154 
L 3117 4154 
L 3117 4563 
L 461 4563 
L 461 922 
L 1011 922 
C 1984 922 3091 998 3693 1114 
L 3642 1517 
C 3104 1402 1997 1338 1274 1338 
L 954 1338 
z
" transform="scale(0.015625)"/>
      <path id="AppleSDGothicNeo-Regular-c74c" d="M 5293 2035 
L 5293 2445 
L 243 2445 
L 243 2035 
L 5293 2035 
z
M 4678 -371 
L 4678 1453 
L 864 1453 
L 864 -371 
L 4678 -371 
z
M 4192 32 
L 1350 32 
L 1350 1056 
L 4192 1056 
L 4192 32 
z
M 4723 3949 
C 4723 4582 3994 4998 2765 4998 
C 1542 4998 819 4582 819 3949 
C 819 3315 1542 2899 2765 2899 
C 3994 2899 4723 3315 4723 3949 
z
M 4250 3949 
C 4250 3539 3661 3290 2765 3290 
C 1869 3290 1293 3539 1293 3949 
C 1293 4365 1869 4608 2765 4608 
C 3661 4608 4250 4365 4250 3949 
z
" transform="scale(0.015625)"/>
      <path id="AppleSDGothicNeo-Regular-c5b4" d="M 314 2778 
C 314 1587 826 800 1728 800 
C 2579 800 3078 1504 3130 2579 
L 4326 2579 
L 4326 -448 
L 4813 -448 
L 4813 5146 
L 4326 5146 
L 4326 2995 
L 3130 2995 
C 3066 4058 2573 4755 1728 4755 
C 826 4755 314 3962 314 2778 
z
M 2656 2771 
C 2656 1862 2278 1222 1728 1222 
C 1171 1222 800 1862 800 2771 
C 800 3693 1171 4333 1728 4333 
C 2278 4333 2656 3693 2656 2771 
z
" transform="scale(0.015625)"/>
     </defs>
     <use xlink:href="#AppleSDGothicNeo-Regular-b2e4"/>
     <use xlink:href="#AppleSDGothicNeo-Regular-c74c" transform="translate(86.499985 0)"/>
     <use xlink:href="#AppleSDGothicNeo-Regular-20" transform="translate(172.999969 0)"/>
     <use xlink:href="#AppleSDGothicNeo-Regular-b2e8" transform="translate(199.299957 0)"/>
     <use xlink:href="#AppleSDGothicNeo-Regular-c5b4" transform="translate(285.799942 0)"/>
    </g>
    <!-- 예측 능력 -->
    <g style="fill: #555555" transform="translate(241.996641 198.935723) scale(0.09 -0.09)">
     <defs>
      <path id="AppleSDGothicNeo-Regular-c608" d="M 1523 4691 
C 704 4691 288 3885 288 2746 
C 288 1594 704 794 1523 794 
C 2048 794 2400 1120 2592 1658 
L 3392 1658 
L 3392 -166 
L 3866 -166 
L 3866 5037 
L 3392 5037 
L 3392 3814 
L 2592 3814 
C 2406 4358 2048 4691 1523 4691 
z
M 2285 2746 
C 2285 1798 1990 1216 1523 1216 
C 1050 1216 762 1798 762 2746 
C 762 3674 1050 4269 1523 4269 
C 1990 4269 2285 3674 2285 2746 
z
M 4960 -448 
L 4960 5146 
L 4480 5146 
L 4480 -448 
L 4960 -448 
z
M 3392 3405 
L 3392 2067 
L 2694 2067 
C 2733 2266 2758 2496 2758 2746 
C 2758 2976 2739 3200 2701 3405 
L 3392 3405 
z
" transform="scale(0.015625)"/>
      <path id="AppleSDGothicNeo-Regular-ce21" d="M 5024 2989 
C 4243 3046 3219 3315 3040 3878 
L 4787 3878 
L 4787 4275 
L 755 4275 
L 755 3878 
L 2502 3878 
C 2336 3309 1363 3021 525 2976 
L 736 2573 
C 1600 2675 2483 2963 2765 3526 
C 3078 2970 3994 2688 4806 2579 
L 5024 2989 
z
M 774 1325 
L 774 922 
L 4192 922 
L 4192 -486 
L 4678 -486 
L 4678 1325 
L 774 1325 
z
M 5293 1779 
L 5293 2189 
L 243 2189 
L 243 1779 
L 5293 1779 
z
M 3661 4710 
L 3661 5133 
L 1869 5133 
L 1869 4710 
L 3661 4710 
z
" transform="scale(0.015625)"/>
      <path id="AppleSDGothicNeo-Regular-b2a5" d="M 5293 2131 
L 5293 2534 
L 243 2534 
L 243 2131 
L 5293 2131 
z
M 4710 3142 
L 4710 3546 
L 1434 3546 
L 1434 4998 
L 947 4998 
L 947 3142 
L 4710 3142 
z
M 4742 627 
C 4742 1293 3994 1664 2771 1664 
C 1555 1664 819 1293 819 627 
C 819 -45 1555 -416 2778 -416 
C 3994 -416 4742 -45 4742 627 
z
M 2771 1267 
C 3661 1267 4250 1062 4250 627 
C 4250 192 3661 -13 2771 -13 
C 1894 -13 1312 192 1312 627 
C 1312 1062 1894 1267 2771 1267 
z
" transform="scale(0.015625)"/>
      <path id="AppleSDGothicNeo-Regular-b825" d="M 3194 2419 
C 2656 2323 1875 2304 1120 2304 
L 928 2304 
L 928 3219 
L 2931 3219 
L 2931 4819 
L 442 4819 
L 442 4416 
L 2445 4416 
L 2445 3616 
L 442 3616 
L 442 1907 
L 1101 1907 
C 1754 1907 2701 1946 3238 2035 
L 3194 2419 
z
M 4813 1696 
L 4813 5146 
L 4326 5146 
L 4326 4301 
L 3302 4301 
L 3302 3898 
L 4326 3898 
L 4326 3142 
L 3302 3142 
L 3302 2746 
L 4326 2746 
L 4326 1696 
L 4813 1696 
z
M 1037 1389 
L 1037 986 
L 4326 986 
L 4326 -499 
L 4813 -499 
L 4813 1389 
L 1037 1389 
z
" transform="scale(0.015625)"/>
     </defs>
     <use xlink:href="#AppleSDGothicNeo-Regular-c608"/>
     <use xlink:href="#AppleSDGothicNeo-Regular-ce21" transform="translate(86.499985 0)"/>
     <use xlink:href="#AppleSDGothicNeo-Regular-20" transform="translate(172.999969 0)"/>
     <use xlink:href="#AppleSDGothicNeo-Regular-b2a5" transform="translate(199.299957 0)"/>
     <use xlink:href="#AppleSDGothicNeo-Regular-b825" transform="translate(285.799942 0)"/>
    </g>
   </g>
   <g id="text_5">
    <!-- 3단계 -->
    <g style="fill: #2e7d32" transform="translate(376.166654 134.847527) scale(0.11 -0.11)">
     <defs>
      <path id="AppleSDGothicNeo-Regular-33" d="M 1491 205 
C 2445 205 3053 730 3053 1478 
C 3053 2144 2630 2458 2074 2566 
C 2560 2726 2893 3040 2893 3571 
C 2893 4243 2368 4634 1600 4634 
C 1229 4634 723 4474 467 4301 
L 544 3891 
C 813 4045 1146 4198 1498 4198 
C 2022 4198 2362 4013 2362 3488 
C 2362 3008 1984 2726 1427 2726 
L 1043 2726 
L 1043 2291 
L 1459 2291 
C 2112 2291 2534 2029 2534 1478 
C 2534 947 2138 634 1427 634 
C 1107 634 678 755 435 915 
L 326 512 
C 563 346 992 205 1491 205 
z
" transform="scale(0.015625)"/>
     </defs>
     <use xlink:href="#AppleSDGothicNeo-Regular-33"/>
     <use xlink:href="#AppleSDGothicNeo-Regular-b2e8" transform="translate(53.599991 0)"/>
     <use xlink:href="#AppleSDGothicNeo-Regular-acc4" transform="translate(140.099976 0)"/>
    </g>
   </g>
   <g id="text_6">
    <!-- 사용자 질문에 -->
    <g style="fill: #555555" transform="translate(364.090951 189.648567) scale(0.09 -0.09)">
     <defs>
      <path id="AppleSDGothicNeo-Regular-c0ac" d="M 5446 2477 
L 5446 2886 
L 4544 2886 
L 4544 5146 
L 4058 5146 
L 4058 -448 
L 4544 -448 
L 4544 2477 
L 5446 2477 
z
M 3526 1286 
C 2752 1741 2048 2656 2048 3674 
L 2048 4653 
L 1549 4653 
L 1549 3661 
C 1549 2669 890 1664 77 1165 
L 390 787 
C 1050 1248 1594 1958 1792 2656 
C 2016 1978 2643 1312 3219 915 
L 3526 1286 
z
" transform="scale(0.015625)"/>
      <path id="AppleSDGothicNeo-Regular-c6a9" d="M 4723 3968 
C 4723 4608 3994 5024 2765 5024 
C 1542 5024 819 4608 819 3968 
C 819 3597 1069 3296 1530 3117 
L 1530 2317 
L 243 2317 
L 243 1914 
L 5293 1914 
L 5293 2317 
L 3987 2317 
L 3987 3110 
C 4461 3290 4723 3590 4723 3968 
z
M 4762 570 
C 4762 1210 4006 1562 2771 1562 
C 1549 1562 800 1210 800 570 
C 800 -70 1549 -416 2778 -416 
C 4006 -416 4762 -70 4762 570 
z
M 4250 3968 
C 4250 3565 3661 3315 2765 3315 
C 1869 3315 1293 3565 1293 3968 
C 1293 4384 1869 4634 2765 4634 
C 3661 4634 4250 4384 4250 3968 
z
M 2771 1139 
C 3674 1139 4269 941 4269 570 
C 4269 205 3680 6 2771 6 
C 1882 6 1286 205 1286 570 
C 1286 941 1882 1139 2771 1139 
z
M 2765 2925 
C 3040 2925 3277 2944 3501 2976 
L 3501 2317 
L 2016 2317 
L 2016 2982 
C 2240 2944 2490 2925 2765 2925 
z
" transform="scale(0.015625)"/>
      <path id="AppleSDGothicNeo-Regular-c790" d="M 3558 1229 
C 2790 1664 2106 2541 2106 3584 
L 2106 4147 
L 3398 4147 
L 3398 4557 
L 307 4557 
L 307 4147 
L 1600 4147 
L 1600 3571 
C 1600 2566 954 1581 128 1094 
L 448 730 
C 1120 1197 1664 1888 1856 2566 
C 2054 1901 2739 1197 3264 864 
L 3558 1229 
z
M 5453 2464 
L 5453 2874 
L 4544 2874 
L 4544 5146 
L 4058 5146 
L 4058 -448 
L 4544 -448 
L 4544 2464 
L 5453 2464 
z
" transform="scale(0.015625)"/>
      <path id="AppleSDGothicNeo-Regular-c9c8" d="M 5018 -410 
L 5018 -6 
L 1651 -6 
L 1651 608 
L 4813 608 
L 4813 1952 
L 1158 1952 
L 1158 1555 
L 4326 1555 
L 4326 973 
L 1158 973 
L 1158 -410 
L 5018 -410 
z
M 454 4397 
L 1741 4397 
L 1741 4230 
C 1728 3488 1043 2784 262 2509 
L 538 2138 
C 1178 2394 1837 3014 1984 3539 
C 2214 3034 2803 2528 3341 2310 
L 3610 2688 
C 2970 2899 2253 3507 2246 4224 
L 2240 4397 
L 3552 4397 
L 3552 4806 
L 454 4806 
L 454 4397 
z
M 4813 2259 
L 4813 5146 
L 4326 5146 
L 4326 2259 
L 4813 2259 
z
" transform="scale(0.015625)"/>
      <path id="AppleSDGothicNeo-Regular-bb38" d="M 4659 2867 
L 4659 4838 
L 877 4838 
L 877 2867 
L 4659 2867 
z
M 4173 3270 
L 1363 3270 
L 1363 4435 
L 4173 4435 
L 4173 3270 
z
M 3021 736 
L 3021 1837 
L 5293 1837 
L 5293 2240 
L 243 2240 
L 243 1837 
L 2534 1837 
L 2534 736 
L 3021 736 
z
M 4723 -269 
L 4723 134 
L 1357 134 
L 1357 1312 
L 870 1312 
L 870 -269 
L 4723 -269 
z
" transform="scale(0.015625)"/>
      <path id="AppleSDGothicNeo-Regular-c5d0" d="M 1562 4659 
C 749 4659 333 3866 333 2746 
C 333 1619 749 832 1562 832 
C 2330 832 2739 1517 2790 2528 
L 3392 2528 
L 3392 -179 
L 3866 -179 
L 3866 5037 
L 3392 5037 
L 3392 2931 
L 2790 2931 
C 2752 3949 2336 4659 1562 4659 
z
M 2310 2746 
C 2310 1837 2016 1261 1562 1261 
C 1114 1261 826 1837 826 2746 
C 826 3648 1114 4230 1562 4230 
C 2016 4230 2310 3648 2310 2746 
z
M 4960 -448 
L 4960 5146 
L 4480 5146 
L 4480 -448 
L 4960 -448 
z
" transform="scale(0.015625)"/>
     </defs>
     <use xlink:href="#AppleSDGothicNeo-Regular-c0ac"/>
     <use xlink:href="#AppleSDGothicNeo-Regular-c6a9" transform="translate(86.499985 0)"/>
     <use xlink:href="#AppleSDGothicNeo-Regular-c790" transform="translate(172.999969 0)"/>
     <use xlink:href="#AppleSDGothicNeo-Regular-20" transform="translate(259.499954 0)"/>
     <use xlink:href="#AppleSDGothicNeo-Regular-c9c8" transform="translate(285.799942 0)"/>
     <use xlink:href="#AppleSDGothicNeo-Regular-bb38" transform="translate(372.299927 0)"/>
     <use xlink:href="#AppleSDGothicNeo-Regular-c5d0" transform="translate(458.799911 0)"/>
    </g>
    <!-- 답변 생성 -->
    <g style="fill: #555555" transform="translate(371.875951 198.887629) scale(0.09 -0.09)">
     <defs>
      <path id="AppleSDGothicNeo-Regular-b2f5" d="M 5389 3418 
L 5389 3827 
L 4538 3827 
L 4538 5146 
L 4051 5146 
L 4051 2144 
L 4538 2144 
L 4538 3418 
L 5389 3418 
z
M 4538 -371 
L 4538 1856 
L 4058 1856 
L 4058 1133 
L 1510 1133 
L 1510 1837 
L 1024 1837 
L 1024 -371 
L 4538 -371 
z
M 4058 32 
L 1510 32 
L 1510 742 
L 4058 742 
L 4058 32 
z
M 947 2803 
L 947 4365 
L 2957 4365 
L 2957 4774 
L 454 4774 
L 454 2400 
L 915 2400 
C 1875 2400 2848 2483 3462 2592 
L 3424 2995 
C 2880 2886 1997 2803 1222 2803 
L 947 2803 
z
" transform="scale(0.015625)"/>
      <path id="AppleSDGothicNeo-Regular-bcc0" d="M 4813 5146 
L 4326 5146 
L 4326 4211 
L 3258 4211 
L 3258 3802 
L 4326 3802 
L 4326 2970 
L 3258 2970 
L 3258 2566 
L 4326 2566 
L 4326 1018 
L 4813 1018 
L 4813 5146 
z
M 4954 -262 
L 4954 147 
L 1696 147 
L 1696 1434 
L 1210 1434 
L 1210 -262 
L 4954 -262 
z
M 2950 1946 
L 2950 4774 
L 2458 4774 
L 2458 3750 
L 979 3750 
L 979 4774 
L 493 4774 
L 493 1946 
L 2950 1946 
z
M 2458 2349 
L 979 2349 
L 979 3347 
L 2458 3347 
L 2458 2349 
z
" transform="scale(0.015625)"/>
      <path id="AppleSDGothicNeo-Regular-c0dd" d="M 5011 595 
C 5011 1229 4301 1626 3104 1626 
C 1907 1626 1203 1229 1203 595 
C 1203 -38 1907 -435 3104 -435 
C 4301 -435 5011 -38 5011 595 
z
M 4960 1613 
L 4960 5146 
L 4474 5146 
L 4474 3667 
L 3776 3667 
L 3776 5043 
L 3302 5043 
L 3302 1888 
L 3776 1888 
L 3776 3258 
L 4474 3258 
L 4474 1613 
L 4960 1613 
z
M 3104 1216 
C 3962 1216 4493 973 4493 595 
C 4493 211 3962 -32 3104 -32 
C 2253 -32 1715 211 1715 595 
C 1715 973 2253 1216 3104 1216 
z
M 3072 2477 
C 2541 2707 1862 3277 1862 4134 
L 1862 4819 
L 1389 4819 
L 1389 4122 
C 1389 3283 787 2605 192 2285 
L 493 1914 
C 1011 2214 1498 2816 1638 3270 
C 1830 2835 2310 2342 2810 2106 
L 3072 2477 
z
" transform="scale(0.015625)"/>
      <path id="AppleSDGothicNeo-Regular-c131" d="M 4326 3456 
L 4326 1670 
L 4813 1670 
L 4813 5146 
L 4326 5146 
L 4326 3859 
L 3123 3859 
L 3123 3456 
L 4326 3456 
z
M 4870 614 
C 4870 1267 4198 1670 2995 1670 
C 1798 1670 1126 1267 1126 614 
C 1126 -38 1798 -442 2995 -442 
C 4198 -442 4870 -38 4870 614 
z
M 2995 1274 
C 3866 1274 4378 1030 4378 614 
C 4378 192 3866 -45 2995 -45 
C 2138 -45 1619 192 1619 614 
C 1619 1030 2138 1274 2995 1274 
z
M 3424 2483 
C 2790 2714 2054 3386 2054 4282 
L 2054 4826 
L 1562 4826 
L 1562 4269 
C 1562 3379 979 2662 173 2291 
L 474 1914 
C 1120 2240 1651 2829 1824 3405 
C 2042 2848 2598 2362 3136 2106 
L 3424 2483 
z
" transform="scale(0.015625)"/>
     </defs>
     <use xlink:href="#AppleSDGothicNeo-Regular-b2f5"/>
     <use xlink:href="#AppleSDGothicNeo-Regular-bcc0" transform="translate(86.499985 0)"/>
     <use xlink:href="#AppleSDGothicNeo-Regular-20" transform="translate(172.999969 0)"/>
     <use xlink:href="#AppleSDGothicNeo-Regular-c0dd" transform="translate(199.299957 0)"/>
     <use xlink:href="#AppleSDGothicNeo-Regular-c131" transform="translate(285.799942 0)"/>
    </g>
   </g>
   <g id="text_7">
    <!-- 4단계 -->
    <g style="fill: #f57f17" transform="translate(505.941121 134.847527) scale(0.11 -0.11)">
     <defs>
      <path id="AppleSDGothicNeo-Regular-34" d="M 2214 166 
L 2682 166 
L 2682 1171 
L 3398 1171 
L 3398 1587 
L 2682 1587 
L 2682 4621 
L 2285 4621 
L 186 1555 
L 186 1171 
L 2214 1171 
L 2214 166 
z
M 730 1587 
L 2214 3814 
L 2214 1587 
L 730 1587 
z
" transform="scale(0.015625)"/>
     </defs>
     <use xlink:href="#AppleSDGothicNeo-Regular-34"/>
     <use xlink:href="#AppleSDGothicNeo-Regular-b2e8" transform="translate(55.499985 0)"/>
     <use xlink:href="#AppleSDGothicNeo-Regular-acc4" transform="translate(141.999969 0)"/>
    </g>
   </g>
   <g id="text_8">
    <!-- 대화로 -->
    <g style="fill: #555555" transform="translate(506.831121 189.643504) scale(0.09 -0.09)">
     <defs>
      <path id="AppleSDGothicNeo-Regular-d654" d="M 3731 1062 
C 3360 1005 2765 954 2144 915 
L 2144 1446 
C 2803 1510 3232 1856 3232 2368 
C 3232 2957 2701 3315 1907 3315 
C 1120 3315 582 2950 582 2368 
C 582 1862 1005 1517 1651 1446 
L 1651 890 
C 1114 870 544 870 147 883 
L 237 461 
C 704 461 1293 461 1914 499 
C 2586 544 3328 614 3763 666 
L 3731 1062 
z
M 5453 2246 
L 5453 2662 
L 4557 2662 
L 4557 5146 
L 4064 5146 
L 4064 -448 
L 4557 -448 
L 4557 2246 
L 5453 2246 
z
M 2758 2368 
C 2758 2054 2419 1830 1907 1830 
C 1402 1830 1050 2054 1050 2368 
C 1050 2694 1402 2912 1907 2912 
C 2419 2912 2758 2694 2758 2368 
z
M 3590 3603 
L 3590 4006 
L 262 4006 
L 262 3603 
L 3590 3603 
z
M 2701 4461 
L 2701 4870 
L 1094 4870 
L 1094 4461 
L 2701 4461 
z
" transform="scale(0.015625)"/>
      <path id="AppleSDGothicNeo-Regular-b85c" d="M 5293 262 
L 5293 672 
L 3002 672 
L 3002 1626 
L 4826 1626 
L 4826 2035 
L 1350 2035 
L 1350 2970 
L 4666 2970 
L 4666 4678 
L 858 4678 
L 858 4269 
L 4179 4269 
L 4179 3373 
L 864 3373 
L 864 1626 
L 2515 1626 
L 2515 672 
L 243 672 
L 243 262 
L 5293 262 
z
" transform="scale(0.015625)"/>
     </defs>
     <use xlink:href="#AppleSDGothicNeo-Regular-b300"/>
     <use xlink:href="#AppleSDGothicNeo-Regular-d654" transform="translate(86.499985 0)"/>
     <use xlink:href="#AppleSDGothicNeo-Regular-b85c" transform="translate(172.999969 0)"/>
    </g>
    <!-- 답변 개선 -->
    <g style="fill: #555555" transform="translate(501.755261 198.892692) scale(0.09 -0.09)">
     <defs>
      <path id="AppleSDGothicNeo-Regular-ac1c" d="M 4960 -448 
L 4960 5146 
L 4480 5146 
L 4480 2944 
L 3750 2944 
L 3750 5011 
L 3270 5011 
L 3270 -166 
L 3750 -166 
L 3750 2541 
L 4480 2541 
L 4480 -448 
L 4960 -448 
z
M 2656 4486 
L 416 4486 
L 416 4077 
L 2144 4077 
C 2093 2938 1408 1747 224 1075 
L 550 717 
C 1875 1517 2637 2822 2656 4486 
z
" transform="scale(0.015625)"/>
      <path id="AppleSDGothicNeo-Regular-c120" d="M 4813 1082 
L 4813 5146 
L 4326 5146 
L 4326 3731 
L 3136 3731 
L 3136 3322 
L 4326 3322 
L 4326 1082 
L 4813 1082 
z
M 4934 -275 
L 4934 128 
L 1702 128 
L 1702 1434 
L 1216 1434 
L 1216 -275 
L 4934 -275 
z
M 3514 2298 
C 2854 2541 2106 3213 2106 4147 
L 2106 4826 
L 1613 4826 
L 1613 4128 
C 1613 3226 934 2464 192 2138 
L 493 1760 
C 1101 2067 1702 2675 1869 3277 
C 2106 2688 2675 2163 3238 1914 
L 3514 2298 
z
" transform="scale(0.015625)"/>
     </defs>
     <use xlink:href="#AppleSDGothicNeo-Regular-b2f5"/>
     <use xlink:href="#AppleSDGothicNeo-Regular-bcc0" transform="translate(86.499985 0)"/>
     <use xlink:href="#AppleSDGothicNeo-Regular-20" transform="translate(172.999969 0)"/>
     <use xlink:href="#AppleSDGothicNeo-Regular-ac1c" transform="translate(199.299957 0)"/>
     <use xlink:href="#AppleSDGothicNeo-Regular-c120" transform="translate(285.799942 0)"/>
    </g>
   </g>
   <g id="patch_6">
    <path d="M 186.186136 163.977909 
Q 193.808668 163.977909 199.195131 163.977909 
" style="fill: none; stroke: #002060; stroke-width: 2; stroke-linecap: round"/>
    <path d="M 195.195131 161.977909 
L 199.195131 163.977909 
L 195.195131 165.977909 
" style="fill: none; stroke: #002060; stroke-width: 2; stroke-linecap: round"/>
   </g>
   <g id="patch_7">
    <path d="M 316.065447 163.977909 
Q 323.687978 163.977909 329.074441 163.977909 
" style="fill: none; stroke: #002060; stroke-width: 2; stroke-linecap: round"/>
    <path d="M 325.074441 161.977909 
L 329.074441 163.977909 
L 325.074441 165.977909 
" style="fill: none; stroke: #002060; stroke-width: 2; stroke-linecap: round"/>
   </g>
   <g id="patch_8">
    <path d="M 445.944757 163.977909 
Q 453.567288 163.977909 458.953752 163.977909 
" style="fill: none; stroke: #002060; stroke-width: 2; stroke-linecap: round"/>
    <path d="M 454.953752 161.977909 
L 458.953752 163.977909 
L 454.953752 165.977909 
" style="fill: none; stroke: #002060; stroke-width: 2; stroke-linecap: round"/>
   </g>
   <g id="text_9">
    <!-- 생성형 AI 작동 원리 4단계 -->
    <g style="fill: #002060" transform="translate(256.708438 32.366875) scale(0.14 -0.14)">
     <defs>
      <path id="AppleSDGothicNeo-Regular-d615" d="M 4838 525 
C 4838 1120 4192 1491 2976 1491 
C 1760 1491 1133 1126 1133 525 
C 1133 -70 1760 -435 2976 -435 
C 4192 -435 4838 -70 4838 525 
z
M 2976 1094 
C 3827 1094 4333 883 4333 525 
C 4333 160 3827 -38 2976 -38 
C 2131 -38 1638 166 1638 525 
C 1638 877 2131 1094 2976 1094 
z
M 4813 1491 
L 4813 5146 
L 4326 5146 
L 4326 3686 
L 3341 3686 
L 3341 3290 
L 4326 3290 
L 4326 2650 
L 3341 2650 
L 3341 2246 
L 4326 2246 
L 4326 1491 
L 4813 1491 
z
M 2643 4621 
L 2643 5037 
L 1043 5037 
L 1043 4621 
L 2643 4621 
z
M 3386 3827 
L 3386 4218 
L 262 4218 
L 262 3827 
L 3386 3827 
z
M 3155 2611 
C 3155 3187 2605 3539 1862 3539 
C 1133 3539 582 3187 582 2611 
C 582 2042 1139 1683 1862 1683 
C 2605 1683 3155 2048 3155 2611 
z
M 2669 2611 
C 2669 2266 2304 2074 1862 2074 
C 1440 2074 1062 2266 1062 2611 
C 1062 2957 1434 3149 1862 3149 
C 2304 3149 2669 2957 2669 2611 
z
" transform="scale(0.015625)"/>
      <path id="AppleSDGothicNeo-Regular-41" d="M 122 269 
L 608 269 
L 1050 1523 
L 2771 1523 
L 3226 269 
L 3757 269 
L 2189 4563 
L 1696 4563 
L 122 269 
z
M 1901 3885 
L 1914 3885 
L 2611 1952 
L 1197 1952 
L 1901 3885 
z
" transform="scale(0.015625)"/>
      <path id="AppleSDGothicNeo-Regular-49" d="M 576 269 
L 1082 269 
L 1082 4563 
L 576 4563 
L 576 269 
z
" transform="scale(0.015625)"/>
      <path id="AppleSDGothicNeo-Regular-c791" d="M 275 4333 
L 1562 4333 
C 1562 4192 1555 4083 1555 4032 
C 1530 3290 819 2586 115 2317 
L 397 1939 
C 998 2195 1651 2797 1805 3322 
C 2035 2816 2605 2310 3142 2093 
L 3411 2483 
C 2771 2694 2106 3309 2061 4026 
C 2054 4083 2054 4192 2054 4333 
L 3328 4333 
L 3328 4742 
L 275 4742 
L 275 4333 
z
M 934 1530 
L 934 1126 
L 4058 1126 
L 4058 -454 
L 4544 -454 
L 4544 1530 
L 934 1530 
z
M 5389 3226 
L 5389 3635 
L 4538 3635 
L 4538 5146 
L 4051 5146 
L 4051 1824 
L 4538 1824 
L 4538 3226 
L 5389 3226 
z
" transform="scale(0.015625)"/>
      <path id="AppleSDGothicNeo-Regular-b3d9" d="M 4691 531 
C 4691 1165 3994 1504 2765 1504 
C 1542 1504 851 1139 851 531 
C 851 -90 1542 -448 2765 -448 
C 3994 -448 4691 -96 4691 531 
z
M 4685 3027 
L 4685 3430 
L 1350 3430 
L 1350 4474 
L 4659 4474 
L 4659 4877 
L 858 4877 
L 858 3027 
L 2522 3027 
L 2522 2317 
L 243 2317 
L 243 1914 
L 5293 1914 
L 5293 2317 
L 3008 2317 
L 3008 3027 
L 4685 3027 
z
M 2765 1107 
C 3654 1107 4192 890 4192 531 
C 4192 160 3654 -45 2765 -45 
C 1888 -45 1350 160 1350 531 
C 1350 890 1888 1107 2765 1107 
z
" transform="scale(0.015625)"/>
      <path id="AppleSDGothicNeo-Regular-c6d0" d="M 3501 3846 
C 3501 4480 2880 4883 2016 4883 
C 1152 4883 518 4480 518 3853 
C 518 3200 1152 2822 2016 2822 
C 2880 2822 3501 3206 3501 3846 
z
M 4838 845 
L 4838 5146 
L 4352 5146 
L 4352 1837 
L 3174 1837 
L 3174 1453 
L 4352 1453 
L 4352 845 
L 4838 845 
z
M 4954 -314 
L 4954 96 
L 1440 96 
L 1440 1306 
L 954 1306 
L 954 -314 
L 4954 -314 
z
M 3021 3846 
C 3021 3469 2618 3219 2016 3219 
C 1414 3219 1005 3469 1005 3846 
C 1005 4230 1414 4480 2016 4480 
C 2618 4480 3021 4224 3021 3846 
z
M 2298 1069 
L 2298 2118 
C 2886 2157 3507 2195 3859 2246 
L 3821 2624 
C 3277 2566 2669 2509 2048 2483 
C 1440 2464 755 2458 179 2464 
L 256 2048 
C 723 2048 1280 2067 1811 2086 
L 1811 1069 
L 2298 1069 
z
" transform="scale(0.015625)"/>
      <path id="AppleSDGothicNeo-Regular-b9ac" d="M 4352 5146 
L 4352 -448 
L 4838 -448 
L 4838 5146 
L 4352 5146 
z
M 3840 1478 
C 3162 1357 2054 1306 1165 1306 
L 1030 1306 
L 1030 2643 
L 3155 2643 
L 3155 4627 
L 518 4627 
L 518 4224 
L 2662 4224 
L 2662 3046 
L 544 3046 
L 544 890 
L 1114 890 
C 2342 890 3302 986 3885 1075 
L 3840 1478 
z
" transform="scale(0.015625)"/>
     </defs>
     <use xlink:href="#AppleSDGothicNeo-Regular-c0dd"/>
     <use xlink:href="#AppleSDGothicNeo-Regular-c131" transform="translate(86.499985 0)"/>
     <use xlink:href="#AppleSDGothicNeo-Regular-d615" transform="translate(172.999969 0)"/>
     <use xlink:href="#AppleSDGothicNeo-Regular-20" transform="translate(259.499954 0)"/>
     <use xlink:href="#AppleSDGothicNeo-Regular-41" transform="translate(285.799942 0)"/>
     <use xlink:href="#AppleSDGothicNeo-Regular-49" transform="translate(346.299927 0)"/>
     <use xlink:href="#AppleSDGothicNeo-Regular-20" transform="translate(372.199921 0)"/>
     <use xlink:href="#AppleSDGothicNeo-Regular-c791" transform="translate(398.499908 0)"/>
     <use xlink:href="#AppleSDGothicNeo-Regular-b3d9" transform="translate(484.999893 0)"/>
     <use xlink:href="#AppleSDGothicNeo-Regular-20" transform="translate(571.499878 0)"/>
     <use xlink:href="#AppleSDGothicNeo-Regular-c6d0" transform="translate(597.799866 0)"/>
     <use xlink:href="#AppleSDGothicNeo-Regular-b9ac" transform="translate(684.29985 0)"/>
     <use xlink:href="#AppleSDGothicNeo-Regular-20" transform="translate(770.799835 0)"/>
     <use xlink:href="#AppleSDGothicNeo-Regular-34" transform="translate(797.099823 0)"/>
     <use xlink:href="#AppleSDGothicNeo-Regular-b2e8" transform="translate(852.599808 0)"/>
     <use xlink:href="#AppleSDGothicNeo-Regular-acc4" transform="translate(939.099792 0)"/>
    </g>
   </g>
  </g>
 </g>
 <defs>
  <clipPath id="p7721ccbb01">
   <rect x="21.6" y="50.366875" width="613.8" height="221.76"/>
  </clipPath>
 </defs>
</svg>
