<?xml version="1.0" encoding="utf-8" standalone="no"?>
<!DOCTYPE svg PUBLIC "-//W3C//DTD SVG 1.1//EN"
  "http://www.w3.org/Graphics/SVG/1.1/DTD/svg11.dtd">
<svg xmlns:xlink="http://www.w3.org/1999/xlink" width="545.4pt" height="376.87375pt" viewBox="0 0 545.4 376.87375" xmlns="http://www.w3.org/2000/svg" version="1.1">
 <metadata>
  <rdf:RDF xmlns:dc="http://purl.org/dc/elements/1.1/" xmlns:cc="http://creativecommons.org/ns#" xmlns:rdf="http://www.w3.org/1999/02/22-rdf-syntax-ns#">
   <cc:Work>
    <dc:type rdf:resource="http://purl.org/dc/dcmitype/StillImage"/>
    <dc:date>2026-02-18T23:23:36.691833</dc:date>
    <dc:format>image/svg+xml</dc:format>
    <dc:creator>
     <cc:Agent>
      <dc:title>Matplotlib v3.10.8, https://matplotlib.org/</dc:title>
     </cc:Agent>
    </dc:creator>
   </cc:Work>
  </rdf:RDF>
 </metadata>
 <defs>
  <style type="text/css">*{stroke-linejoin: round; stroke-linecap: butt}</style>
 </defs>
 <g id="figure_1">
  <g id="patch_1">
   <path d="M 0 376.87375 
L 545.4 376.87375 
L 545.4 0 
L 0 0 
z
" style="fill: #ffffff"/>
  </g>
  <g id="axes_1">
   <g id="patch_2">
    <path d="M 71.548785 176.958465 
L 469.330963 176.958465 
Q 476.111341 176.958465 476.111341 170.494643 
L 476.111341 101.547215 
Q 476.111341 95.083394 469.330963 95.083394 
L 71.548785 95.083394 
Q 64.768407 95.083394 64.768407 101.547215 
L 64.768407 170.494643 
Q 64.768407 176.958465 71.548785 176.958465 
z
" clip-path="url(#pcc0dc6f36c)" style="fill: #ffebee; stroke: #c62828; stroke-width: 1.2; stroke-linejoin: miter"/>
   </g>
   <g id="patch_3">
    <path d="M 71.548785 263.142749 
L 469.330963 263.142749 
Q 476.111341 263.142749 476.111341 256.678928 
L 476.111341 187.7315 
Q 476.111341 181.267679 469.330963 181.267679 
L 71.548785 181.267679 
Q 64.768407 181.267679 64.768407 187.7315 
L 64.768407 256.678928 
Q 64.768407 263.142749 71.548785 263.142749 
z
" clip-path="url(#pcc0dc6f36c)" style="fill: #ffebee; stroke: #c62828; stroke-width: 1.2; stroke-linejoin: miter"/>
   </g>
   <g id="patch_4">
    <path d="M 125.791809 323.471749 
L 419.608191 323.471749 
Q 426.388569 323.471749 426.388569 317.007928 
L 426.388569 280.379606 
Q 426.388569 273.915785 419.608191 273.915785 
L 125.791809 273.915785 
Q 119.011431 273.915785 119.011431 280.379606 
L 119.011431 317.007928 
Q 119.011431 323.471749 125.791809 323.471749 
z
" clip-path="url(#pcc0dc6f36c)" style="fill: #e8f5e9; stroke: #2e7d32; stroke-width: 1.2; stroke-linejoin: miter"/>
   </g>
   <g id="text_1">
    <!-- X  오해 1 -->
    <g style="fill: #c62828" transform="translate(125.791809 127.066411) scale(0.12 -0.12)">
     <defs>
      <path id="AppleSDGothicNeo-Regular-58" d="M 218 269 
L 736 269 
L 1882 2086 
L 1901 2086 
L 3040 269 
L 3603 269 
L 2240 2458 
L 3526 4563 
L 3002 4563 
L 1971 2842 
L 1952 2842 
L 858 4563 
L 294 4563 
L 1632 2464 
L 218 269 
z
" transform="scale(0.015625)"/>
      <path id="AppleSDGothicNeo-Regular-20" transform="scale(0.015625)"/>
      <path id="AppleSDGothicNeo-Regular-c624" d="M 4781 3270 
C 4781 4192 3981 4794 2758 4794 
C 1555 4794 749 4192 749 3270 
C 749 2413 1446 1837 2515 1760 
L 2515 698 
L 243 698 
L 243 288 
L 5293 288 
L 5293 698 
L 3002 698 
L 3002 1760 
C 4077 1830 4781 2413 4781 3270 
z
M 4314 3264 
C 4314 2592 3699 2150 2758 2150 
C 1830 2150 1222 2592 1222 3264 
C 1222 3936 1830 4384 2758 4384 
C 3706 4384 4314 3936 4314 3264 
z
" transform="scale(0.015625)"/>
      <path id="AppleSDGothicNeo-Regular-d574" d="M 4960 -448 
L 4960 5146 
L 4480 5146 
L 4480 2861 
L 3808 2861 
L 3808 5011 
L 3334 5011 
L 3334 -166 
L 3808 -166 
L 3808 2451 
L 4480 2451 
L 4480 -448 
L 4960 -448 
z
M 2912 1939 
C 2912 2611 2413 3059 1690 3059 
C 973 3059 467 2618 467 1939 
C 467 1299 973 826 1690 826 
C 2413 826 2912 1267 2912 1939 
z
M 2445 1939 
C 2445 1517 2131 1229 1690 1229 
C 1248 1229 941 1504 941 1939 
C 941 2368 1248 2650 1690 2650 
C 2131 2650 2445 2368 2445 1939 
z
M 3014 3379 
L 3014 3782 
L 230 3782 
L 230 3379 
L 3014 3379 
z
M 2413 4294 
L 2413 4717 
L 883 4717 
L 883 4294 
L 2413 4294 
z
" transform="scale(0.015625)"/>
      <path id="AppleSDGothicNeo-Regular-31" d="M 1146 243 
L 1632 243 
L 1632 4634 
L 1363 4634 
L 352 4160 
L 352 3866 
L 1146 4051 
L 1146 243 
z
" transform="scale(0.015625)"/>
     </defs>
     <use xlink:href="#AppleSDGothicNeo-Regular-58"/>
     <use xlink:href="#AppleSDGothicNeo-Regular-20" transform="translate(59.699997 0)"/>
     <use xlink:href="#AppleSDGothicNeo-Regular-20" transform="translate(85.999985 0)"/>
     <use xlink:href="#AppleSDGothicNeo-Regular-c624" transform="translate(112.299973 0)"/>
     <use xlink:href="#AppleSDGothicNeo-Regular-d574" transform="translate(198.799957 0)"/>
     <use xlink:href="#AppleSDGothicNeo-Regular-20" transform="translate(285.299942 0)"/>
     <use xlink:href="#AppleSDGothicNeo-Regular-31" transform="translate(311.59993 0)"/>
    </g>
   </g>
   <g id="text_2">
    <!-- 데이터 양이 늘어나면 다양성도 늘어난다? -->
    <g style="fill: #333333" transform="translate(125.791809 151.532036) scale(0.09 -0.09)">
     <defs>
      <path id="AppleSDGothicNeo-Regular-b370" d="M 4960 -448 
L 4960 5146 
L 4480 5146 
L 4480 -448 
L 4960 -448 
z
M 3366 2573 
L 3366 -160 
L 3846 -160 
L 3846 5011 
L 3366 5011 
L 3366 2982 
L 2067 2982 
L 2067 2573 
L 3366 2573 
z
M 915 1363 
L 915 4064 
L 2656 4064 
L 2656 4467 
L 429 4467 
L 429 947 
L 1043 947 
C 1792 960 2419 1024 2944 1114 
L 2886 1530 
C 2368 1421 1594 1325 915 1363 
z
" transform="scale(0.015625)"/>
      <path id="AppleSDGothicNeo-Regular-c774" d="M 4845 -448 
L 4845 5146 
L 4358 5146 
L 4358 -448 
L 4845 -448 
z
M 429 2752 
C 429 1562 954 768 1869 768 
C 2797 768 3315 1562 3315 2746 
C 3315 3930 2797 4723 1869 4723 
C 954 4723 429 3930 429 2752 
z
M 2854 2746 
C 2854 1830 2464 1190 1869 1190 
C 1280 1190 890 1830 890 2746 
C 890 3667 1280 4301 1869 4301 
C 2464 4301 2854 3667 2854 2746 
z
" transform="scale(0.015625)"/>
      <path id="AppleSDGothicNeo-Regular-d130" d="M 922 1267 
L 922 2682 
L 2861 2682 
L 2861 3078 
L 922 3078 
L 922 4237 
L 3085 4237 
L 3085 4640 
L 435 4640 
L 435 851 
L 1011 851 
C 1997 851 2938 934 3552 1050 
L 3494 1459 
C 2938 1338 1965 1267 1043 1267 
L 922 1267 
z
M 4819 -448 
L 4819 5146 
L 4333 5146 
L 4333 3002 
L 3226 3002 
L 3226 2586 
L 4333 2586 
L 4333 -448 
L 4819 -448 
z
" transform="scale(0.015625)"/>
      <path id="AppleSDGothicNeo-Regular-c591" d="M 5395 3072 
L 4544 3072 
L 4544 3872 
L 5395 3872 
L 5395 4282 
L 4544 4282 
L 4544 5146 
L 4058 5146 
L 4058 1773 
L 4544 1773 
L 4544 2669 
L 5395 2669 
L 5395 3072 
z
M 4589 640 
C 4589 1274 3955 1715 2733 1715 
C 1517 1715 890 1286 890 640 
C 890 0 1517 -435 2733 -435 
C 3955 -435 4589 0 4589 640 
z
M 2733 1312 
C 3578 1312 4090 1050 4090 640 
C 4090 224 3578 -32 2733 -32 
C 1888 -32 1389 237 1389 640 
C 1389 1043 1888 1312 2733 1312 
z
M 1754 4838 
C 954 4838 301 4301 301 3488 
C 301 2669 954 2163 1754 2163 
C 2547 2163 3200 2669 3200 3494 
C 3200 4301 2547 4838 1754 4838 
z
M 1754 4442 
C 2342 4442 2733 4045 2733 3488 
C 2733 2938 2336 2560 1754 2560 
C 1190 2560 774 2938 774 3494 
C 774 4045 1190 4442 1754 4442 
z
" transform="scale(0.015625)"/>
      <path id="AppleSDGothicNeo-Regular-b298" d="M 5293 2413 
L 5293 2816 
L 243 2816 
L 243 2413 
L 5293 2413 
z
M 4858 -378 
L 4858 19 
L 1344 19 
L 1344 614 
L 4640 614 
L 4640 1920 
L 851 1920 
L 851 1530 
L 4154 1530 
L 4154 986 
L 851 986 
L 851 -378 
L 4858 -378 
z
M 4704 3309 
L 4704 3712 
L 1395 3712 
L 1395 5011 
L 909 5011 
L 909 3309 
L 4704 3309 
z
" transform="scale(0.015625)"/>
      <path id="AppleSDGothicNeo-Regular-c5b4" d="M 314 2778 
C 314 1587 826 800 1728 800 
C 2579 800 3078 1504 3130 2579 
L 4326 2579 
L 4326 -448 
L 4813 -448 
L 4813 5146 
L 4326 5146 
L 4326 2995 
L 3130 2995 
C 3066 4058 2573 4755 1728 4755 
C 826 4755 314 3962 314 2778 
z
M 2656 2771 
C 2656 1862 2278 1222 1728 1222 
C 1171 1222 800 1862 800 2771 
C 800 3693 1171 4333 1728 4333 
C 2278 4333 2656 3693 2656 2771 
z
" transform="scale(0.015625)"/>
      <path id="AppleSDGothicNeo-Regular-b098" d="M 3578 1632 
C 2970 1485 1875 1402 915 1395 
L 915 4589 
L 429 4589 
L 429 966 
L 768 966 
C 1619 966 2963 1062 3648 1222 
L 3578 1632 
z
M 4538 5146 
L 4051 5146 
L 4051 -448 
L 4538 -448 
L 4538 2509 
L 5453 2509 
L 5453 2925 
L 4538 2925 
L 4538 5146 
z
" transform="scale(0.015625)"/>
      <path id="AppleSDGothicNeo-Regular-ba74" d="M 4326 3770 
L 4326 2938 
L 3283 2938 
L 3283 2534 
L 4326 2534 
L 4326 1082 
L 4813 1082 
L 4813 5146 
L 4326 5146 
L 4326 4173 
L 3283 4173 
L 3283 3770 
L 4326 3770 
z
M 4934 -262 
L 4934 147 
L 1696 147 
L 1696 1453 
L 1210 1453 
L 1210 -262 
L 4934 -262 
z
M 3046 2035 
L 3046 4646 
L 493 4646 
L 493 2035 
L 3046 2035 
z
M 2554 2432 
L 979 2432 
L 979 4243 
L 2554 4243 
L 2554 2432 
z
" transform="scale(0.015625)"/>
      <path id="AppleSDGothicNeo-Regular-b2e4" d="M 4557 5146 
L 4070 5146 
L 4070 -448 
L 4557 -448 
L 4557 2515 
L 5466 2515 
L 5466 2925 
L 4557 2925 
L 4557 5146 
z
M 954 1338 
L 954 4154 
L 3117 4154 
L 3117 4563 
L 461 4563 
L 461 922 
L 1011 922 
C 1984 922 3091 998 3693 1114 
L 3642 1517 
C 3104 1402 1997 1338 1274 1338 
L 954 1338 
z
" transform="scale(0.015625)"/>
      <path id="AppleSDGothicNeo-Regular-c131" d="M 4326 3456 
L 4326 1670 
L 4813 1670 
L 4813 5146 
L 4326 5146 
L 4326 3859 
L 3123 3859 
L 3123 3456 
L 4326 3456 
z
M 4870 614 
C 4870 1267 4198 1670 2995 1670 
C 1798 1670 1126 1267 1126 614 
C 1126 -38 1798 -442 2995 -442 
C 4198 -442 4870 -38 4870 614 
z
M 2995 1274 
C 3866 1274 4378 1030 4378 614 
C 4378 192 3866 -45 2995 -45 
C 2138 -45 1619 192 1619 614 
C 1619 1030 2138 1274 2995 1274 
z
M 3424 2483 
C 2790 2714 2054 3386 2054 4282 
L 2054 4826 
L 1562 4826 
L 1562 4269 
C 1562 3379 979 2662 173 2291 
L 474 1914 
C 1120 2240 1651 2829 1824 3405 
C 2042 2848 2598 2362 3136 2106 
L 3424 2483 
z
" transform="scale(0.015625)"/>
      <path id="AppleSDGothicNeo-Regular-b3c4" d="M 5293 262 
L 5293 672 
L 3002 672 
L 3002 2042 
L 4723 2042 
L 4723 2445 
L 1344 2445 
L 1344 4269 
L 4691 4269 
L 4691 4672 
L 851 4672 
L 851 2042 
L 2515 2042 
L 2515 672 
L 243 672 
L 243 262 
L 5293 262 
z
" transform="scale(0.015625)"/>
      <path id="AppleSDGothicNeo-Regular-b09c" d="M 4538 5146 
L 4051 5146 
L 4051 1082 
L 4538 1082 
L 4538 3110 
L 5395 3110 
L 5395 3526 
L 4538 3526 
L 4538 5146 
z
M 4698 -269 
L 4698 134 
L 1491 134 
L 1491 1459 
L 1005 1459 
L 1005 -269 
L 4698 -269 
z
M 3488 2714 
C 2842 2566 1651 2470 915 2477 
L 915 4768 
L 429 4768 
L 429 2067 
L 922 2067 
C 1811 2067 2899 2170 3546 2310 
L 3488 2714 
z
" transform="scale(0.015625)"/>
      <path id="AppleSDGothicNeo-Regular-3f" d="M 973 1165 
L 1434 1165 
L 1434 1760 
C 1434 2074 1619 2208 1920 2458 
C 2368 2835 2560 3091 2560 3610 
C 2560 4346 2029 4730 1350 4730 
C 960 4730 550 4646 262 4518 
L 314 4122 
C 595 4224 864 4307 1235 4307 
C 1734 4307 2035 4064 2035 3590 
C 2035 3226 1901 2982 1619 2752 
C 1210 2406 973 2234 973 1786 
L 973 1165 
z
M 934 134 
L 1485 134 
L 1485 710 
L 934 710 
L 934 134 
z
" transform="scale(0.015625)"/>
     </defs>
     <use xlink:href="#AppleSDGothicNeo-Regular-b370"/>
     <use xlink:href="#AppleSDGothicNeo-Regular-c774" transform="translate(86.499985 0)"/>
     <use xlink:href="#AppleSDGothicNeo-Regular-d130" transform="translate(172.999969 0)"/>
     <use xlink:href="#AppleSDGothicNeo-Regular-20" transform="translate(259.499954 0)"/>
     <use xlink:href="#AppleSDGothicNeo-Regular-c591" transform="translate(285.799942 0)"/>
     <use xlink:href="#AppleSDGothicNeo-Regular-c774" transform="translate(372.299927 0)"/>
     <use xlink:href="#AppleSDGothicNeo-Regular-20" transform="translate(458.799911 0)"/>
     <use xlink:href="#AppleSDGothicNeo-Regular-b298" transform="translate(485.099899 0)"/>
     <use xlink:href="#AppleSDGothicNeo-Regular-c5b4" transform="translate(571.599884 0)"/>
     <use xlink:href="#AppleSDGothicNeo-Regular-b098" transform="translate(658.099869 0)"/>
     <use xlink:href="#AppleSDGothicNeo-Regular-ba74" transform="translate(744.599854 0)"/>
     <use xlink:href="#AppleSDGothicNeo-Regular-20" transform="translate(831.099838 0)"/>
     <use xlink:href="#AppleSDGothicNeo-Regular-b2e4" transform="translate(857.399826 0)"/>
     <use xlink:href="#AppleSDGothicNeo-Regular-c591" transform="translate(943.899811 0)"/>
     <use xlink:href="#AppleSDGothicNeo-Regular-c131" transform="translate(1030.399796 0)"/>
     <use xlink:href="#AppleSDGothicNeo-Regular-b3c4" transform="translate(1116.89978 0)"/>
     <use xlink:href="#AppleSDGothicNeo-Regular-20" transform="translate(1203.399765 0)"/>
     <use xlink:href="#AppleSDGothicNeo-Regular-b298" transform="translate(1229.699753 0)"/>
     <use xlink:href="#AppleSDGothicNeo-Regular-c5b4" transform="translate(1316.199738 0)"/>
     <use xlink:href="#AppleSDGothicNeo-Regular-b09c" transform="translate(1402.699722 0)"/>
     <use xlink:href="#AppleSDGothicNeo-Regular-b2e4" transform="translate(1489.199707 0)"/>
     <use xlink:href="#AppleSDGothicNeo-Regular-3f" transform="translate(1575.699692 0)"/>
    </g>
    <!-- -&gt; 같은 종류만 쌓이면 편향이 커진다 -->
    <g style="fill: #333333" transform="translate(125.791809 160.943224) scale(0.09 -0.09)">
     <defs>
      <path id="AppleSDGothicNeo-Regular-2d" d="M 333 2138 
L 2445 2138 
L 2445 2560 
L 333 2560 
L 333 2138 
z
" transform="scale(0.015625)"/>
      <path id="AppleSDGothicNeo-Regular-3e" d="M 3136 2189 
L 3136 2541 
L 525 4070 
L 525 3571 
L 2624 2355 
L 525 1197 
L 525 717 
L 3136 2189 
z
" transform="scale(0.015625)"/>
      <path id="AppleSDGothicNeo-Regular-ac19" d="M 5395 3334 
L 5395 3744 
L 4544 3744 
L 4544 5146 
L 4058 5146 
L 4058 2106 
L 4544 2106 
L 4544 3334 
L 5395 3334 
z
M 4710 -397 
L 4710 -19 
L 1504 -19 
L 1504 538 
L 4512 538 
L 4512 909 
L 1504 909 
L 1504 1427 
L 4582 1427 
L 4582 1811 
L 1018 1811 
L 1018 -397 
L 4710 -397 
z
M 429 4774 
L 429 4371 
L 2426 4371 
C 2234 3322 1382 2637 224 2317 
L 474 1926 
C 1888 2349 2854 3245 2982 4774 
L 429 4774 
z
" transform="scale(0.015625)"/>
      <path id="AppleSDGothicNeo-Regular-c740" d="M 5293 1862 
L 5293 2272 
L 243 2272 
L 243 1862 
L 5293 1862 
z
M 4723 -288 
L 4723 122 
L 1395 122 
L 1395 1344 
L 909 1344 
L 909 -288 
L 4723 -288 
z
M 4717 3885 
C 4717 4589 3987 4979 2771 4979 
C 1555 4979 826 4589 826 3885 
C 826 3168 1549 2778 2765 2778 
C 3987 2778 4717 3168 4717 3885 
z
M 2771 4576 
C 3661 4576 4237 4346 4237 3878 
C 4237 3424 3654 3187 2765 3187 
C 1882 3187 1312 3424 1312 3878 
C 1312 4346 1888 4576 2771 4576 
z
" transform="scale(0.015625)"/>
      <path id="AppleSDGothicNeo-Regular-c885" d="M 4730 531 
C 4730 1152 4019 1485 2765 1485 
C 1517 1485 813 1126 813 531 
C 813 -77 1517 -435 2765 -435 
C 4019 -435 4730 -83 4730 531 
z
M 5043 3277 
C 4262 3354 3232 3789 3053 4454 
L 4832 4454 
L 4832 4858 
L 704 4858 
L 704 4454 
L 2490 4454 
C 2323 3795 1370 3354 506 3270 
L 730 2867 
C 1715 3008 2547 3507 2765 4026 
C 3046 3514 3885 3021 4819 2867 
L 5043 3277 
z
M 2765 1094 
C 3674 1094 4237 890 4237 531 
C 4237 160 3674 -38 2765 -38 
C 1862 -38 1306 160 1306 531 
C 1306 890 1862 1094 2765 1094 
z
M 5293 1939 
L 5293 2349 
L 3008 2349 
L 3008 3194 
L 2522 3194 
L 2522 2349 
L 243 2349 
L 243 1939 
L 5293 1939 
z
" transform="scale(0.015625)"/>
      <path id="AppleSDGothicNeo-Regular-b958" d="M 4838 2381 
L 4838 2790 
L 1318 2790 
L 1318 3475 
L 4685 3475 
L 4685 4922 
L 845 4922 
L 845 4512 
L 4198 4512 
L 4198 3878 
L 832 3878 
L 832 2381 
L 4838 2381 
z
M 2054 -454 
L 2054 1350 
L 3462 1350 
L 3462 -454 
L 3955 -454 
L 3955 1350 
L 5293 1350 
L 5293 1760 
L 243 1760 
L 243 1350 
L 1568 1350 
L 1568 -454 
L 2054 -454 
z
" transform="scale(0.015625)"/>
      <path id="AppleSDGothicNeo-Regular-b9cc" d="M 3085 2061 
L 3085 4653 
L 435 4653 
L 435 2061 
L 3085 2061 
z
M 2598 2464 
L 922 2464 
L 922 4250 
L 2598 4250 
L 2598 2464 
z
M 5395 3066 
L 5395 3475 
L 4544 3475 
L 4544 5146 
L 4058 5146 
L 4058 1082 
L 4544 1082 
L 4544 3066 
L 5395 3066 
z
M 4762 -256 
L 4762 147 
L 1530 147 
L 1530 1466 
L 1043 1466 
L 1043 -256 
L 4762 -256 
z
" transform="scale(0.015625)"/>
      <path id="AppleSDGothicNeo-Regular-c313" d="M 5402 3475 
L 5402 3885 
L 4621 3885 
L 4621 5146 
L 4141 5146 
L 4141 2266 
L 4621 2266 
L 4621 3475 
L 5402 3475 
z
M 3942 2976 
C 3437 3258 3034 3667 3034 4486 
L 3034 4966 
L 2566 4966 
L 2566 4467 
C 2566 3648 2157 3046 1562 2669 
L 1869 2342 
C 2278 2618 2714 3168 2810 3584 
C 2931 3226 3309 2842 3661 2637 
L 3942 2976 
z
M 3795 1805 
L 3795 2208 
L 2080 2208 
L 2080 1805 
L 3795 1805 
z
M 2086 3405 
C 1766 3571 1485 3885 1485 4448 
L 1485 4909 
L 1024 4909 
L 1024 4461 
C 1024 3782 653 3232 96 2893 
L 403 2579 
C 710 2765 1158 3270 1267 3667 
C 1350 3456 1613 3181 1811 3072 
L 2086 3405 
z
M 4890 1126 
L 4890 1517 
L 979 1517 
L 979 1126 
L 4890 1126 
z
M 4454 198 
C 4454 614 4038 947 2938 947 
C 1850 947 1421 614 1421 198 
C 1421 -211 1856 -544 2938 -544 
C 4019 -544 4454 -211 4454 198 
z
M 3955 198 
C 3955 -32 3610 -186 2938 -186 
C 2253 -186 1926 -32 1926 198 
C 1926 422 2266 582 2938 582 
C 3629 582 3955 422 3955 198 
z
" transform="scale(0.015625)"/>
      <path id="AppleSDGothicNeo-Regular-d3b8" d="M 2848 3930 
L 2362 3987 
L 2227 2189 
C 2157 2189 2080 2182 2010 2182 
C 1811 2170 1619 2163 1421 2163 
L 1306 3974 
L 819 3917 
L 979 2163 
C 749 2157 499 2163 243 2163 
L 326 1728 
C 826 1728 1446 1747 2022 1766 
C 2624 1798 3046 1837 3456 1894 
L 3411 2278 
C 3219 2253 2963 2227 2656 2208 
L 2848 3930 
z
M 3328 3642 
L 4326 3642 
L 4326 2950 
L 3328 2950 
L 3328 2547 
L 4326 2547 
L 4326 1062 
L 4813 1062 
L 4813 5146 
L 4326 5146 
L 4326 4038 
L 3328 4038 
L 3328 3642 
z
M 4928 -288 
L 4928 122 
L 1658 122 
L 1658 1389 
L 1171 1389 
L 1171 -288 
L 4928 -288 
z
M 3360 4275 
L 3360 4678 
L 390 4678 
L 390 4275 
L 3360 4275 
z
" transform="scale(0.015625)"/>
      <path id="AppleSDGothicNeo-Regular-d5a5" d="M 4608 506 
C 4608 1107 3962 1485 2752 1485 
C 1542 1485 902 1114 902 506 
C 902 -96 1542 -461 2752 -461 
C 3962 -461 4608 -90 4608 506 
z
M 3174 2669 
C 3174 3245 2605 3590 1856 3590 
C 1094 3590 531 3245 531 2669 
C 531 2112 1101 1754 1856 1754 
C 2605 1754 3174 2112 3174 2669 
z
M 2752 1069 
C 3597 1069 4102 864 4102 506 
C 4102 147 3597 -51 2752 -51 
C 1907 -51 1408 154 1408 506 
C 1408 858 1907 1069 2752 1069 
z
M 5395 2893 
L 4544 2893 
L 4544 3635 
L 5395 3635 
L 5395 4045 
L 4544 4045 
L 4544 5146 
L 4058 5146 
L 4058 1613 
L 4544 1613 
L 4544 2483 
L 5395 2483 
L 5395 2893 
z
M 2694 2669 
C 2694 2349 2298 2138 1856 2138 
C 1421 2138 1005 2349 1005 2669 
C 1005 3008 1414 3206 1856 3206 
C 2298 3206 2694 3008 2694 2669 
z
M 3475 3834 
L 3475 4237 
L 179 4237 
L 179 3834 
L 3475 3834 
z
M 2656 4614 
L 2656 5024 
L 1018 5024 
L 1018 4614 
L 2656 4614 
z
" transform="scale(0.015625)"/>
      <path id="AppleSDGothicNeo-Regular-cee4" d="M 3078 4570 
L 499 4570 
L 499 4166 
L 2566 4166 
C 2554 3834 2496 3520 2406 3226 
L 256 3098 
L 358 2656 
L 2253 2822 
C 1856 1990 1152 1363 230 966 
L 544 595 
C 2074 1338 3059 2547 3078 4570 
z
M 4326 2528 
L 4326 -448 
L 4813 -448 
L 4813 5146 
L 4326 5146 
L 4326 2944 
L 3059 2944 
L 3059 2528 
L 4326 2528 
z
" transform="scale(0.015625)"/>
      <path id="AppleSDGothicNeo-Regular-c9c4" d="M 480 4218 
L 1754 4218 
C 1754 3981 1754 3872 1747 3795 
C 1702 3059 1011 2349 307 2074 
L 589 1696 
C 1190 1958 1843 2566 1990 3091 
C 2221 2586 2829 2061 3360 1843 
L 3635 2234 
C 2995 2445 2291 3072 2253 3789 
C 2246 3872 2246 3981 2246 4218 
L 3526 4218 
L 3526 4627 
L 480 4627 
L 480 4218 
z
M 4934 -301 
L 4934 102 
L 1690 102 
L 1690 1440 
L 1203 1440 
L 1203 -301 
L 4934 -301 
z
M 4813 1082 
L 4813 5146 
L 4326 5146 
L 4326 1082 
L 4813 1082 
z
" transform="scale(0.015625)"/>
     </defs>
     <use xlink:href="#AppleSDGothicNeo-Regular-2d"/>
     <use xlink:href="#AppleSDGothicNeo-Regular-3e" transform="translate(43.199997 0)"/>
     <use xlink:href="#AppleSDGothicNeo-Regular-20" transform="translate(100.799988 0)"/>
     <use xlink:href="#AppleSDGothicNeo-Regular-ac19" transform="translate(127.099976 0)"/>
     <use xlink:href="#AppleSDGothicNeo-Regular-c740" transform="translate(213.59996 0)"/>
     <use xlink:href="#AppleSDGothicNeo-Regular-20" transform="translate(300.099945 0)"/>
     <use xlink:href="#AppleSDGothicNeo-Regular-c885" transform="translate(326.399933 0)"/>
     <use xlink:href="#AppleSDGothicNeo-Regular-b958" transform="translate(412.899918 0)"/>
     <use xlink:href="#AppleSDGothicNeo-Regular-b9cc" transform="translate(499.399902 0)"/>
     <use xlink:href="#AppleSDGothicNeo-Regular-20" transform="translate(585.899887 0)"/>
     <use xlink:href="#AppleSDGothicNeo-Regular-c313" transform="translate(612.199875 0)"/>
     <use xlink:href="#AppleSDGothicNeo-Regular-c774" transform="translate(698.69986 0)"/>
     <use xlink:href="#AppleSDGothicNeo-Regular-ba74" transform="translate(785.199844 0)"/>
     <use xlink:href="#AppleSDGothicNeo-Regular-20" transform="translate(871.699829 0)"/>
     <use xlink:href="#AppleSDGothicNeo-Regular-d3b8" transform="translate(897.999817 0)"/>
     <use xlink:href="#AppleSDGothicNeo-Regular-d5a5" transform="translate(984.499802 0)"/>
     <use xlink:href="#AppleSDGothicNeo-Regular-c774" transform="translate(1070.999786 0)"/>
     <use xlink:href="#AppleSDGothicNeo-Regular-20" transform="translate(1157.499771 0)"/>
     <use xlink:href="#AppleSDGothicNeo-Regular-cee4" transform="translate(1183.799759 0)"/>
     <use xlink:href="#AppleSDGothicNeo-Regular-c9c4" transform="translate(1270.299744 0)"/>
     <use xlink:href="#AppleSDGothicNeo-Regular-b2e4" transform="translate(1356.799728 0)"/>
    </g>
   </g>
   <g id="text_3">
    <!-- X  오해 2 -->
    <g style="fill: #c62828" transform="translate(125.791809 213.250696) scale(0.12 -0.12)">
     <defs>
      <path id="AppleSDGothicNeo-Regular-32" d="M 397 269 
L 3066 269 
L 3066 704 
L 1107 704 
L 1779 1382 
C 2522 2138 2970 2650 2970 3392 
C 2970 4160 2502 4640 1638 4640 
C 1152 4640 717 4422 448 4250 
L 595 3846 
C 845 4019 1190 4198 1555 4198 
C 2163 4198 2438 3917 2438 3347 
C 2438 2733 2029 2266 1421 1632 
L 397 570 
L 397 269 
z
" transform="scale(0.015625)"/>
     </defs>
     <use xlink:href="#AppleSDGothicNeo-Regular-58"/>
     <use xlink:href="#AppleSDGothicNeo-Regular-20" transform="translate(59.699997 0)"/>
     <use xlink:href="#AppleSDGothicNeo-Regular-20" transform="translate(85.999985 0)"/>
     <use xlink:href="#AppleSDGothicNeo-Regular-c624" transform="translate(112.299973 0)"/>
     <use xlink:href="#AppleSDGothicNeo-Regular-d574" transform="translate(198.799957 0)"/>
     <use xlink:href="#AppleSDGothicNeo-Regular-20" transform="translate(285.299942 0)"/>
     <use xlink:href="#AppleSDGothicNeo-Regular-32" transform="translate(311.59993 0)"/>
    </g>
   </g>
   <g id="text_4">
    <!-- 모델이 커지면 현실을 더 잘 이해한다? -->
    <g style="fill: #333333" transform="translate(125.791809 237.797321) scale(0.09 -0.09)">
     <defs>
      <path id="AppleSDGothicNeo-Regular-baa8" d="M 5293 262 
L 5293 672 
L 3002 672 
L 3002 2010 
L 4672 2010 
L 4672 4646 
L 851 4646 
L 851 2010 
L 2515 2010 
L 2515 672 
L 243 672 
L 243 262 
L 5293 262 
z
M 4186 2413 
L 1338 2413 
L 1338 4243 
L 4186 4243 
L 4186 2413 
z
" transform="scale(0.015625)"/>
      <path id="AppleSDGothicNeo-Regular-b378" d="M 5165 -410 
L 5165 0 
L 1741 0 
L 1741 563 
L 4960 563 
L 4960 1894 
L 1235 1894 
L 1235 1491 
L 4467 1491 
L 4467 934 
L 1254 934 
L 1254 -410 
L 5165 -410 
z
M 3891 2253 
L 3891 5043 
L 3424 5043 
L 3424 3930 
L 2202 3930 
L 2202 3546 
L 3424 3546 
L 3424 2253 
L 3891 2253 
z
M 4960 2189 
L 4960 5146 
L 4474 5146 
L 4474 2189 
L 4960 2189 
z
M 947 2803 
L 947 4403 
L 2656 4403 
L 2656 4806 
L 454 4806 
L 454 2381 
L 813 2381 
C 1555 2381 2477 2458 3002 2560 
L 2957 2970 
C 2458 2861 1664 2803 947 2803 
z
" transform="scale(0.015625)"/>
      <path id="AppleSDGothicNeo-Regular-c9c0" d="M 3699 1248 
C 2931 1664 2221 2566 2221 3610 
L 2221 4179 
L 3526 4179 
L 3526 4582 
L 410 4582 
L 410 4179 
L 1715 4179 
L 1715 3603 
C 1715 2547 1043 1594 224 1114 
L 525 755 
C 1171 1171 1786 1888 1971 2586 
C 2163 1926 2874 1222 3398 883 
L 3699 1248 
z
M 4346 5146 
L 4346 -448 
L 4832 -448 
L 4832 5146 
L 4346 5146 
z
" transform="scale(0.015625)"/>
      <path id="AppleSDGothicNeo-Regular-d604" d="M 4934 -262 
L 4934 141 
L 1664 141 
L 1664 1210 
L 1178 1210 
L 1178 -262 
L 4934 -262 
z
M 3392 3110 
L 4326 3110 
L 4326 2394 
L 3392 2394 
L 3392 1997 
L 4326 1997 
L 4326 947 
L 4813 947 
L 4813 5146 
L 4326 5146 
L 4326 3507 
L 3392 3507 
L 3392 3110 
z
M 2669 4518 
L 2669 4954 
L 1056 4954 
L 1056 4518 
L 2669 4518 
z
M 3450 3686 
L 3450 4083 
L 262 4083 
L 262 3686 
L 3450 3686 
z
M 3213 2445 
C 3213 3040 2643 3411 1882 3411 
C 1126 3411 550 3040 550 2445 
C 550 1862 1133 1472 1882 1472 
C 2643 1472 3213 1862 3213 2445 
z
M 2739 2445 
C 2739 2093 2355 1869 1882 1869 
C 1408 1869 1030 2093 1030 2445 
C 1030 2797 1408 3021 1882 3021 
C 2355 3021 2739 2797 2739 2445 
z
" transform="scale(0.015625)"/>
      <path id="AppleSDGothicNeo-Regular-c2e4" d="M 4813 2285 
L 4813 5146 
L 4326 5146 
L 4326 2285 
L 4813 2285 
z
M 3584 2778 
C 2893 3027 2157 3571 2157 4474 
L 2157 4954 
L 1664 4954 
L 1664 4454 
C 1664 3558 954 2886 230 2598 
L 499 2227 
C 1171 2547 1754 3091 1926 3667 
C 2189 3078 2752 2618 3309 2400 
L 3584 2778 
z
M 5024 -384 
L 5024 13 
L 1664 13 
L 1664 640 
L 4813 640 
L 4813 1978 
L 1165 1978 
L 1165 1581 
L 4326 1581 
L 4326 1005 
L 1178 1005 
L 1178 -384 
L 5024 -384 
z
" transform="scale(0.015625)"/>
      <path id="AppleSDGothicNeo-Regular-c744" d="M 5293 2317 
L 5293 2726 
L 243 2726 
L 243 2317 
L 5293 2317 
z
M 4730 4096 
C 4730 4710 3987 5069 2771 5069 
C 1568 5069 826 4710 826 4096 
C 826 3482 1568 3130 2771 3130 
C 3987 3130 4730 3482 4730 4096 
z
M 2771 4672 
C 3661 4672 4237 4448 4237 4096 
C 4237 3750 3661 3533 2771 3533 
C 1894 3533 1325 3750 1325 4096 
C 1325 4448 1894 4672 2771 4672 
z
M 4845 -397 
L 4845 0 
L 1318 0 
L 1318 563 
L 4659 563 
L 4659 1818 
L 819 1818 
L 819 1427 
L 4173 1427 
L 4173 934 
L 832 934 
L 832 -397 
L 4845 -397 
z
" transform="scale(0.015625)"/>
      <path id="AppleSDGothicNeo-Regular-b354" d="M 4806 -448 
L 4806 5146 
L 4320 5146 
L 4320 3104 
L 2669 3104 
L 2669 2688 
L 4320 2688 
L 4320 -448 
L 4806 -448 
z
M 3475 1536 
C 2854 1414 1792 1331 960 1363 
L 960 4179 
L 3110 4179 
L 3110 4589 
L 474 4589 
L 474 947 
L 858 941 
C 1856 922 2912 998 3533 1114 
L 3475 1536 
z
" transform="scale(0.015625)"/>
      <path id="AppleSDGothicNeo-Regular-c798" d="M 4749 -410 
L 4749 0 
L 1510 0 
L 1510 621 
L 4538 621 
L 4538 1971 
L 1005 1971 
L 1005 1562 
L 4051 1562 
L 4051 998 
L 1024 998 
L 1024 -410 
L 4749 -410 
z
M 320 4390 
L 1542 4390 
L 1542 4230 
C 1510 3488 826 2803 122 2534 
L 403 2163 
C 1005 2426 1638 3002 1786 3526 
C 2016 3021 2592 2554 3130 2336 
L 3398 2714 
C 2758 2925 2086 3507 2048 4224 
L 2042 4390 
L 3302 4390 
L 3302 4800 
L 320 4800 
L 320 4390 
z
M 5389 3456 
L 5389 3866 
L 4538 3866 
L 4538 5146 
L 4051 5146 
L 4051 2266 
L 4538 2266 
L 4538 3456 
L 5389 3456 
z
" transform="scale(0.015625)"/>
      <path id="AppleSDGothicNeo-Regular-d55c" d="M 5395 2842 
L 5395 3251 
L 4544 3251 
L 4544 5146 
L 4058 5146 
L 4058 1018 
L 4544 1018 
L 4544 2842 
L 5395 2842 
z
M 4762 -269 
L 4762 141 
L 1523 141 
L 1523 1165 
L 1037 1165 
L 1037 -269 
L 4762 -269 
z
M 2630 4518 
L 2630 4947 
L 1018 4947 
L 1018 4518 
L 2630 4518 
z
M 3494 3693 
L 3494 4096 
L 218 4096 
L 218 3693 
L 3494 3693 
z
M 3174 2413 
C 3174 3014 2611 3392 1856 3392 
C 1107 3392 544 3014 544 2413 
C 544 1824 1114 1434 1856 1434 
C 2611 1434 3174 1824 3174 2413 
z
M 2714 2413 
C 2714 2048 2310 1824 1856 1824 
C 1408 1824 1005 2048 1005 2413 
C 1005 2784 1408 3008 1856 3008 
C 2310 3008 2714 2784 2714 2413 
z
" transform="scale(0.015625)"/>
     </defs>
     <use xlink:href="#AppleSDGothicNeo-Regular-baa8"/>
     <use xlink:href="#AppleSDGothicNeo-Regular-b378" transform="translate(86.499985 0)"/>
     <use xlink:href="#AppleSDGothicNeo-Regular-c774" transform="translate(172.999969 0)"/>
     <use xlink:href="#AppleSDGothicNeo-Regular-20" transform="translate(259.499954 0)"/>
     <use xlink:href="#AppleSDGothicNeo-Regular-cee4" transform="translate(285.799942 0)"/>
     <use xlink:href="#AppleSDGothicNeo-Regular-c9c0" transform="translate(372.299927 0)"/>
     <use xlink:href="#AppleSDGothicNeo-Regular-ba74" transform="translate(458.799911 0)"/>
     <use xlink:href="#AppleSDGothicNeo-Regular-20" transform="translate(545.299896 0)"/>
     <use xlink:href="#AppleSDGothicNeo-Regular-d604" transform="translate(571.599884 0)"/>
     <use xlink:href="#AppleSDGothicNeo-Regular-c2e4" transform="translate(658.099869 0)"/>
     <use xlink:href="#AppleSDGothicNeo-Regular-c744" transform="translate(744.599854 0)"/>
     <use xlink:href="#AppleSDGothicNeo-Regular-20" transform="translate(831.099838 0)"/>
     <use xlink:href="#AppleSDGothicNeo-Regular-b354" transform="translate(857.399826 0)"/>
     <use xlink:href="#AppleSDGothicNeo-Regular-20" transform="translate(943.899811 0)"/>
     <use xlink:href="#AppleSDGothicNeo-Regular-c798" transform="translate(970.199799 0)"/>
     <use xlink:href="#AppleSDGothicNeo-Regular-20" transform="translate(1056.699783 0)"/>
     <use xlink:href="#AppleSDGothicNeo-Regular-c774" transform="translate(1082.999771 0)"/>
     <use xlink:href="#AppleSDGothicNeo-Regular-d574" transform="translate(1169.499756 0)"/>
     <use xlink:href="#AppleSDGothicNeo-Regular-d55c" transform="translate(1255.999741 0)"/>
     <use xlink:href="#AppleSDGothicNeo-Regular-b2e4" transform="translate(1342.499725 0)"/>
     <use xlink:href="#AppleSDGothicNeo-Regular-3f" transform="translate(1428.99971 0)"/>
    </g>
    <!-- -&gt; 모델 크기와 세상에 대한 이해는 별개 -->
    <g style="fill: #333333" transform="translate(125.791809 247.046509) scale(0.09 -0.09)">
     <defs>
      <path id="AppleSDGothicNeo-Regular-d06c" d="M 4646 4531 
L 858 4531 
L 858 4128 
L 4141 4128 
L 4141 3552 
C 4141 3366 4128 3162 4115 2938 
L 685 2816 
L 781 2387 
L 4090 2560 
C 4051 1978 3981 1402 3923 1139 
L 4390 1075 
C 4557 1786 4640 3066 4646 3814 
L 4646 4531 
z
M 5293 365 
L 5293 774 
L 243 774 
L 243 365 
L 5293 365 
z
" transform="scale(0.015625)"/>
      <path id="AppleSDGothicNeo-Regular-ae30" d="M 4813 -448 
L 4813 5146 
L 4326 5146 
L 4326 -448 
L 4813 -448 
z
M 3168 4550 
L 506 4550 
L 506 4141 
L 2650 4141 
C 2547 2880 1715 1664 301 1043 
L 582 659 
C 2029 1344 3142 2733 3168 4550 
z
" transform="scale(0.015625)"/>
      <path id="AppleSDGothicNeo-Regular-c640" d="M 1914 4781 
C 1050 4781 397 4243 397 3430 
C 397 2688 934 2195 1677 2112 
L 1677 1178 
C 1107 1152 563 1152 147 1152 
L 237 723 
C 704 723 1254 742 1869 774 
C 2547 819 3315 877 3757 941 
L 3718 1331 
C 3360 1280 2790 1242 2163 1203 
L 2163 2112 
C 2899 2208 3437 2701 3437 3437 
C 3437 4250 2778 4781 1914 4781 
z
M 1914 4365 
C 2547 4365 2957 4000 2957 3424 
C 2957 2867 2541 2509 1914 2509 
C 1312 2509 870 2867 870 3430 
C 870 4000 1306 4365 1914 4365 
z
M 5453 2394 
L 5453 2803 
L 4557 2803 
L 4557 5146 
L 4064 5146 
L 4064 -448 
L 4557 -448 
L 4557 2394 
L 5453 2394 
z
" transform="scale(0.015625)"/>
      <path id="AppleSDGothicNeo-Regular-c138" d="M 4979 -448 
L 4979 5146 
L 4499 5146 
L 4499 -448 
L 4979 -448 
z
M 3872 -166 
L 3872 5011 
L 3398 5011 
L 3398 3130 
L 2406 3130 
L 2406 2720 
L 3398 2720 
L 3398 -166 
L 3872 -166 
z
M 3059 1318 
C 2451 1722 1798 2534 1798 3622 
L 1798 4627 
L 1318 4627 
L 1318 3610 
C 1318 2515 755 1562 122 1158 
L 422 794 
C 979 1197 1440 1926 1562 2566 
C 1741 1933 2330 1267 2758 960 
L 3059 1318 
z
" transform="scale(0.015625)"/>
      <path id="AppleSDGothicNeo-Regular-c0c1" d="M 3405 2566 
C 2771 2784 2035 3469 2035 4358 
L 2035 4877 
L 1542 4877 
L 1542 4339 
C 1542 3450 941 2746 141 2368 
L 410 1990 
C 1062 2330 1632 2886 1805 3482 
C 2029 2918 2579 2438 3117 2176 
L 3405 2566 
z
M 4621 627 
C 4621 1293 3917 1702 2739 1702 
C 1568 1702 870 1293 870 627 
C 870 -38 1568 -442 2739 -442 
C 3917 -442 4621 -38 4621 627 
z
M 2739 1299 
C 3590 1299 4122 1056 4122 627 
C 4122 198 3590 -38 2739 -38 
C 1894 -38 1370 198 1370 627 
C 1370 1056 1894 1299 2739 1299 
z
M 5395 3219 
L 5395 3629 
L 4544 3629 
L 4544 5146 
L 4058 5146 
L 4058 1696 
L 4544 1696 
L 4544 3219 
L 5395 3219 
z
" transform="scale(0.015625)"/>
      <path id="AppleSDGothicNeo-Regular-c5d0" d="M 1562 4659 
C 749 4659 333 3866 333 2746 
C 333 1619 749 832 1562 832 
C 2330 832 2739 1517 2790 2528 
L 3392 2528 
L 3392 -179 
L 3866 -179 
L 3866 5037 
L 3392 5037 
L 3392 2931 
L 2790 2931 
C 2752 3949 2336 4659 1562 4659 
z
M 2310 2746 
C 2310 1837 2016 1261 1562 1261 
C 1114 1261 826 1837 826 2746 
C 826 3648 1114 4230 1562 4230 
C 2016 4230 2310 3648 2310 2746 
z
M 4960 -448 
L 4960 5146 
L 4480 5146 
L 4480 -448 
L 4960 -448 
z
" transform="scale(0.015625)"/>
      <path id="AppleSDGothicNeo-Regular-b300" d="M 4960 -448 
L 4960 5146 
L 4480 5146 
L 4480 2944 
L 3731 2944 
L 3731 5011 
L 3258 5011 
L 3258 -160 
L 3731 -160 
L 3731 2534 
L 4480 2534 
L 4480 -448 
L 4960 -448 
z
M 902 1414 
L 902 4051 
L 2586 4051 
L 2586 4461 
L 416 4461 
L 416 992 
L 787 992 
C 1517 992 2458 1056 2989 1158 
L 2944 1555 
C 2470 1453 1632 1414 1069 1414 
L 902 1414 
z
" transform="scale(0.015625)"/>
      <path id="AppleSDGothicNeo-Regular-b294" d="M 5293 1850 
L 5293 2259 
L 243 2259 
L 243 1850 
L 5293 1850 
z
M 4755 -326 
L 4755 77 
L 1389 77 
L 1389 1325 
L 902 1325 
L 902 -326 
L 4755 -326 
z
M 4730 2957 
L 4730 3360 
L 1408 3360 
L 1408 4909 
L 922 4909 
L 922 2957 
L 4730 2957 
z
" transform="scale(0.015625)"/>
      <path id="AppleSDGothicNeo-Regular-bcc4" d="M 5018 -410 
L 5018 -13 
L 1664 -13 
L 1664 602 
L 4813 602 
L 4813 1914 
L 1171 1914 
L 1171 1517 
L 4326 1517 
L 4326 979 
L 1178 979 
L 1178 -410 
L 5018 -410 
z
M 4813 5146 
L 4326 5146 
L 4326 4371 
L 3290 4371 
L 3290 3968 
L 4326 3968 
L 4326 3309 
L 3290 3309 
L 3290 2906 
L 4326 2906 
L 4326 2202 
L 4813 2202 
L 4813 5146 
z
M 3008 2349 
L 3008 4890 
L 2522 4890 
L 2522 4038 
L 954 4038 
L 954 4890 
L 461 4890 
L 461 2349 
L 3008 2349 
z
M 2522 2752 
L 954 2752 
L 954 3635 
L 2522 3635 
L 2522 2752 
z
" transform="scale(0.015625)"/>
      <path id="AppleSDGothicNeo-Regular-ac1c" d="M 4960 -448 
L 4960 5146 
L 4480 5146 
L 4480 2944 
L 3750 2944 
L 3750 5011 
L 3270 5011 
L 3270 -166 
L 3750 -166 
L 3750 2541 
L 4480 2541 
L 4480 -448 
L 4960 -448 
z
M 2656 4486 
L 416 4486 
L 416 4077 
L 2144 4077 
C 2093 2938 1408 1747 224 1075 
L 550 717 
C 1875 1517 2637 2822 2656 4486 
z
" transform="scale(0.015625)"/>
     </defs>
     <use xlink:href="#AppleSDGothicNeo-Regular-2d"/>
     <use xlink:href="#AppleSDGothicNeo-Regular-3e" transform="translate(43.199997 0)"/>
     <use xlink:href="#AppleSDGothicNeo-Regular-20" transform="translate(100.799988 0)"/>
     <use xlink:href="#AppleSDGothicNeo-Regular-baa8" transform="translate(127.099976 0)"/>
     <use xlink:href="#AppleSDGothicNeo-Regular-b378" transform="translate(213.59996 0)"/>
     <use xlink:href="#AppleSDGothicNeo-Regular-20" transform="translate(300.099945 0)"/>
     <use xlink:href="#AppleSDGothicNeo-Regular-d06c" transform="translate(326.399933 0)"/>
     <use xlink:href="#AppleSDGothicNeo-Regular-ae30" transform="translate(412.899918 0)"/>
     <use xlink:href="#AppleSDGothicNeo-Regular-c640" transform="translate(499.399902 0)"/>
     <use xlink:href="#AppleSDGothicNeo-Regular-20" transform="translate(585.899887 0)"/>
     <use xlink:href="#AppleSDGothicNeo-Regular-c138" transform="translate(612.199875 0)"/>
     <use xlink:href="#AppleSDGothicNeo-Regular-c0c1" transform="translate(698.69986 0)"/>
     <use xlink:href="#AppleSDGothicNeo-Regular-c5d0" transform="translate(785.199844 0)"/>
     <use xlink:href="#AppleSDGothicNeo-Regular-20" transform="translate(871.699829 0)"/>
     <use xlink:href="#AppleSDGothicNeo-Regular-b300" transform="translate(897.999817 0)"/>
     <use xlink:href="#AppleSDGothicNeo-Regular-d55c" transform="translate(984.499802 0)"/>
     <use xlink:href="#AppleSDGothicNeo-Regular-20" transform="translate(1070.999786 0)"/>
     <use xlink:href="#AppleSDGothicNeo-Regular-c774" transform="translate(1097.299774 0)"/>
     <use xlink:href="#AppleSDGothicNeo-Regular-d574" transform="translate(1183.799759 0)"/>
     <use xlink:href="#AppleSDGothicNeo-Regular-b294" transform="translate(1270.299744 0)"/>
     <use xlink:href="#AppleSDGothicNeo-Regular-20" transform="translate(1356.799728 0)"/>
     <use xlink:href="#AppleSDGothicNeo-Regular-bcc4" transform="translate(1383.099716 0)"/>
     <use xlink:href="#AppleSDGothicNeo-Regular-ac1c" transform="translate(1469.599701 0)"/>
    </g>
   </g>
   <g id="text_5">
    <!-- 어떤 데이터를 선택하느냐는 가치 판단의 문제 -->
    <g style="fill: #2e7d32" transform="translate(183.950781 302.004704) scale(0.1 -0.1)">
     <defs>
      <path id="AppleSDGothicNeo-Regular-b5a4" d="M 4883 1069 
L 4883 5146 
L 4403 5146 
L 4403 3622 
L 3405 3622 
L 3405 3238 
L 4403 3238 
L 4403 1069 
L 4883 1069 
z
M 3962 2163 
L 3898 2554 
C 3571 2470 3027 2426 2611 2426 
L 2611 4269 
L 3661 4269 
L 3661 4672 
L 2131 4672 
L 2131 2010 
C 2822 2010 3520 2067 3962 2163 
z
M 4998 -262 
L 4998 141 
L 1722 141 
L 1722 1459 
L 1235 1459 
L 1235 -262 
L 4998 -262 
z
M 1965 2163 
L 1901 2560 
C 1638 2483 1216 2438 890 2438 
L 890 4269 
L 1779 4269 
L 1779 4672 
L 410 4672 
L 410 2022 
C 1101 2022 1606 2080 1965 2163 
z
" transform="scale(0.015625)"/>
      <path id="AppleSDGothicNeo-Regular-b97c" d="M 5293 2163 
L 5293 2541 
L 243 2541 
L 243 2163 
L 5293 2163 
z
M 4870 -346 
L 4870 38 
L 1312 38 
L 1312 550 
L 4698 550 
L 4698 1722 
L 832 1722 
L 832 1363 
L 4211 1363 
L 4211 896 
L 826 896 
L 826 -346 
L 4870 -346 
z
M 4774 2982 
L 4774 3347 
L 1370 3347 
L 1370 3789 
L 4666 3789 
L 4666 4960 
L 877 4960 
L 877 4576 
L 4179 4576 
L 4179 4141 
L 883 4141 
L 883 2982 
L 4774 2982 
z
" transform="scale(0.015625)"/>
      <path id="AppleSDGothicNeo-Regular-c120" d="M 4813 1082 
L 4813 5146 
L 4326 5146 
L 4326 3731 
L 3136 3731 
L 3136 3322 
L 4326 3322 
L 4326 1082 
L 4813 1082 
z
M 4934 -275 
L 4934 128 
L 1702 128 
L 1702 1434 
L 1216 1434 
L 1216 -275 
L 4934 -275 
z
M 3514 2298 
C 2854 2541 2106 3213 2106 4147 
L 2106 4826 
L 1613 4826 
L 1613 4128 
C 1613 3226 934 2464 192 2138 
L 493 1760 
C 1101 2067 1702 2675 1869 3277 
C 2106 2688 2675 2163 3238 1914 
L 3514 2298 
z
" transform="scale(0.015625)"/>
      <path id="AppleSDGothicNeo-Regular-d0dd" d="M 4960 1798 
L 4960 5146 
L 4474 5146 
L 4474 3674 
L 3763 3674 
L 3763 5043 
L 3296 5043 
L 3296 1830 
L 3763 1830 
L 3763 3270 
L 4474 3270 
L 4474 1798 
L 4960 1798 
z
M 986 2534 
L 986 3270 
L 2579 3270 
L 2579 3661 
L 986 3661 
L 986 4326 
L 2669 4326 
L 2669 4730 
L 506 4730 
L 506 2118 
L 864 2118 
C 1632 2118 2387 2163 2938 2272 
L 2867 2675 
C 2432 2579 1786 2534 1146 2534 
L 986 2534 
z
M 1184 1504 
L 1184 1094 
L 4467 1094 
L 4467 -448 
L 4960 -448 
L 4960 1504 
L 1184 1504 
z
" transform="scale(0.015625)"/>
      <path id="AppleSDGothicNeo-Regular-d558" d="M 5453 2374 
L 5453 2784 
L 4544 2784 
L 4544 5146 
L 4058 5146 
L 4058 -448 
L 4544 -448 
L 4544 2374 
L 5453 2374 
z
M 2694 4346 
L 2694 4762 
L 1050 4762 
L 1050 4346 
L 2694 4346 
z
M 3520 3398 
L 3520 3802 
L 218 3802 
L 218 3398 
L 3520 3398 
z
M 3187 1882 
C 3187 2541 2662 3040 1882 3040 
C 1101 3040 576 2534 576 1882 
C 576 1229 1101 730 1882 730 
C 2662 730 3187 1235 3187 1882 
z
M 2701 1882 
C 2701 1446 2362 1133 1882 1133 
C 1414 1133 1062 1446 1062 1882 
C 1062 2323 1414 2630 1882 2630 
C 2355 2630 2701 2323 2701 1882 
z
" transform="scale(0.015625)"/>
      <path id="AppleSDGothicNeo-Regular-b290" d="M 5293 346 
L 5293 755 
L 243 755 
L 243 346 
L 5293 346 
z
M 4685 2317 
L 4685 2720 
L 1382 2720 
L 1382 4659 
L 896 4659 
L 896 2317 
L 4685 2317 
z
" transform="scale(0.015625)"/>
      <path id="AppleSDGothicNeo-Regular-b0d0" d="M 5421 3744 
L 4531 3744 
L 4531 5146 
L 4045 5146 
L 4045 -448 
L 4531 -448 
L 4531 1677 
L 5421 1677 
L 5421 2093 
L 4531 2093 
L 4531 3334 
L 5421 3334 
L 5421 3744 
z
M 3533 1658 
C 2925 1510 1933 1414 966 1408 
L 966 4550 
L 480 4550 
L 480 979 
L 826 979 
C 1670 979 2899 1082 3578 1248 
L 3533 1658 
z
" transform="scale(0.015625)"/>
      <path id="AppleSDGothicNeo-Regular-ac00" d="M 4544 5146 
L 4058 5146 
L 4058 -448 
L 4544 -448 
L 4544 2400 
L 5459 2400 
L 5459 2816 
L 4544 2816 
L 4544 5146 
z
M 3091 4544 
L 461 4544 
L 461 4134 
L 2566 4134 
C 2464 2874 1664 1696 269 1050 
L 570 666 
C 2010 1414 3059 2726 3091 4544 
z
" transform="scale(0.015625)"/>
      <path id="AppleSDGothicNeo-Regular-ce58" d="M 3802 1050 
C 3085 1299 2253 2125 2253 3168 
L 2253 3334 
L 3558 3334 
L 3558 3738 
L 442 3738 
L 442 3334 
L 1754 3334 
L 1754 3162 
C 1754 2118 1005 1254 269 902 
L 557 544 
C 1165 864 1856 1626 2016 2221 
C 2214 1638 2938 941 3546 659 
L 3802 1050 
z
M 4851 -448 
L 4851 5146 
L 4358 5146 
L 4358 -448 
L 4851 -448 
z
M 2854 4371 
L 2854 4813 
L 1158 4813 
L 1158 4371 
L 2854 4371 
z
" transform="scale(0.015625)"/>
      <path id="AppleSDGothicNeo-Regular-d310" d="M 3674 2317 
C 3482 2278 3130 2259 2739 2234 
L 2886 3872 
L 2413 3930 
L 2304 2214 
C 2202 2208 2093 2202 1997 2202 
L 1485 2182 
L 1350 3930 
L 858 3866 
L 1043 2176 
L 237 2176 
L 307 1747 
C 806 1747 1434 1766 2029 1798 
C 2637 1830 3296 1869 3706 1933 
L 3674 2317 
z
M 4538 5146 
L 4058 5146 
L 4058 1082 
L 4538 1082 
L 4538 3046 
L 5395 3046 
L 5395 3462 
L 4538 3462 
L 4538 5146 
z
M 4755 -256 
L 4755 147 
L 1517 147 
L 1517 1350 
L 1030 1350 
L 1030 -256 
L 4755 -256 
z
M 3366 4198 
L 3366 4602 
L 384 4602 
L 384 4198 
L 3366 4198 
z
" transform="scale(0.015625)"/>
      <path id="AppleSDGothicNeo-Regular-b2e8" d="M 5389 3117 
L 5389 3526 
L 4538 3526 
L 4538 5146 
L 4051 5146 
L 4051 1088 
L 4538 1088 
L 4538 3117 
L 5389 3117 
z
M 4755 -256 
L 4755 147 
L 1555 147 
L 1555 1453 
L 1062 1453 
L 1062 -256 
L 4755 -256 
z
M 922 2400 
L 922 4237 
L 3002 4237 
L 3002 4646 
L 435 4646 
L 435 1997 
L 890 1997 
C 1856 1997 2918 2080 3539 2189 
L 3494 2586 
C 2957 2477 1971 2400 1197 2400 
L 922 2400 
z
" transform="scale(0.015625)"/>
      <path id="AppleSDGothicNeo-Regular-c758" d="M 4352 5146 
L 4352 -448 
L 4838 -448 
L 4838 5146 
L 4352 5146 
z
M 3469 3379 
C 3469 4198 2842 4710 2016 4710 
C 1203 4710 557 4166 557 3379 
C 557 2630 1190 2080 2016 2080 
C 2822 2080 3469 2586 3469 3379 
z
M 2995 3379 
C 2995 2854 2547 2490 2016 2490 
C 1472 2490 1030 2861 1030 3379 
C 1030 3904 1478 4294 2016 4294 
C 2560 4294 2995 3942 2995 3379 
z
M 4026 973 
L 3981 1370 
C 3571 1318 2848 1274 2067 1248 
C 1389 1210 730 1197 250 1203 
L 339 774 
C 762 781 1376 800 2035 832 
C 2746 864 3546 915 4026 973 
z
" transform="scale(0.015625)"/>
      <path id="AppleSDGothicNeo-Regular-bb38" d="M 4659 2867 
L 4659 4838 
L 877 4838 
L 877 2867 
L 4659 2867 
z
M 4173 3270 
L 1363 3270 
L 1363 4435 
L 4173 4435 
L 4173 3270 
z
M 3021 736 
L 3021 1837 
L 5293 1837 
L 5293 2240 
L 243 2240 
L 243 1837 
L 2534 1837 
L 2534 736 
L 3021 736 
z
M 4723 -269 
L 4723 134 
L 1357 134 
L 1357 1312 
L 870 1312 
L 870 -269 
L 4723 -269 
z
" transform="scale(0.015625)"/>
      <path id="AppleSDGothicNeo-Regular-c81c" d="M 3098 1229 
C 2406 1677 1882 2368 1882 3469 
L 1882 4083 
L 2957 4083 
L 2957 4486 
L 288 4486 
L 288 4083 
L 1402 4083 
L 1402 3456 
C 1402 2368 813 1485 154 1062 
L 480 723 
C 1024 1107 1530 1773 1645 2394 
C 1805 1805 2394 1152 2790 870 
L 3098 1229 
z
M 3853 -166 
L 3853 5011 
L 3373 5011 
L 3373 3091 
L 2477 3091 
L 2477 2688 
L 3373 2688 
L 3373 -166 
L 3853 -166 
z
M 4960 -448 
L 4960 5146 
L 4480 5146 
L 4480 -448 
L 4960 -448 
z
" transform="scale(0.015625)"/>
     </defs>
     <use xlink:href="#AppleSDGothicNeo-Regular-c5b4"/>
     <use xlink:href="#AppleSDGothicNeo-Regular-b5a4" transform="translate(86.499985 0)"/>
     <use xlink:href="#AppleSDGothicNeo-Regular-20" transform="translate(172.999969 0)"/>
     <use xlink:href="#AppleSDGothicNeo-Regular-b370" transform="translate(199.299957 0)"/>
     <use xlink:href="#AppleSDGothicNeo-Regular-c774" transform="translate(285.799942 0)"/>
     <use xlink:href="#AppleSDGothicNeo-Regular-d130" transform="translate(372.299927 0)"/>
     <use xlink:href="#AppleSDGothicNeo-Regular-b97c" transform="translate(458.799911 0)"/>
     <use xlink:href="#AppleSDGothicNeo-Regular-20" transform="translate(545.299896 0)"/>
     <use xlink:href="#AppleSDGothicNeo-Regular-c120" transform="translate(571.599884 0)"/>
     <use xlink:href="#AppleSDGothicNeo-Regular-d0dd" transform="translate(658.099869 0)"/>
     <use xlink:href="#AppleSDGothicNeo-Regular-d558" transform="translate(744.599854 0)"/>
     <use xlink:href="#AppleSDGothicNeo-Regular-b290" transform="translate(831.099838 0)"/>
     <use xlink:href="#AppleSDGothicNeo-Regular-b0d0" transform="translate(917.599823 0)"/>
     <use xlink:href="#AppleSDGothicNeo-Regular-b294" transform="translate(1004.099808 0)"/>
     <use xlink:href="#AppleSDGothicNeo-Regular-20" transform="translate(1090.599792 0)"/>
     <use xlink:href="#AppleSDGothicNeo-Regular-ac00" transform="translate(1116.89978 0)"/>
     <use xlink:href="#AppleSDGothicNeo-Regular-ce58" transform="translate(1203.399765 0)"/>
     <use xlink:href="#AppleSDGothicNeo-Regular-20" transform="translate(1289.89975 0)"/>
     <use xlink:href="#AppleSDGothicNeo-Regular-d310" transform="translate(1316.199738 0)"/>
     <use xlink:href="#AppleSDGothicNeo-Regular-b2e8" transform="translate(1402.699722 0)"/>
     <use xlink:href="#AppleSDGothicNeo-Regular-c758" transform="translate(1489.199707 0)"/>
     <use xlink:href="#AppleSDGothicNeo-Regular-20" transform="translate(1575.699692 0)"/>
     <use xlink:href="#AppleSDGothicNeo-Regular-bb38" transform="translate(1601.99968 0)"/>
     <use xlink:href="#AppleSDGothicNeo-Regular-c81c" transform="translate(1688.499664 0)"/>
    </g>
   </g>
   <g id="text_6">
    <!-- 데이터에 대한 오해 -->
    <g style="fill: #002060" transform="translate(220.578438 32.35375) scale(0.14 -0.14)">
     <use xlink:href="#AppleSDGothicNeo-Regular-b370"/>
     <use xlink:href="#AppleSDGothicNeo-Regular-c774" transform="translate(86.499985 0)"/>
     <use xlink:href="#AppleSDGothicNeo-Regular-d130" transform="translate(172.999969 0)"/>
     <use xlink:href="#AppleSDGothicNeo-Regular-c5d0" transform="translate(259.499954 0)"/>
     <use xlink:href="#AppleSDGothicNeo-Regular-20" transform="translate(345.999939 0)"/>
     <use xlink:href="#AppleSDGothicNeo-Regular-b300" transform="translate(372.299927 0)"/>
     <use xlink:href="#AppleSDGothicNeo-Regular-d55c" transform="translate(458.799911 0)"/>
     <use xlink:href="#AppleSDGothicNeo-Regular-20" transform="translate(545.299896 0)"/>
     <use xlink:href="#AppleSDGothicNeo-Regular-c624" transform="translate(571.599884 0)"/>
     <use xlink:href="#AppleSDGothicNeo-Regular-d574" transform="translate(658.099869 0)"/>
    </g>
   </g>
  </g>
 </g>
 <defs>
  <clipPath id="pcc0dc6f36c">
   <rect x="21.6" y="50.35375" width="502.2" height="304.92"/>
  </clipPath>
 </defs>
</svg>
