<?xml version="1.0" encoding="utf-8" standalone="no"?>
<!DOCTYPE svg PUBLIC "-//W3C//DTD SVG 1.1//EN"
  "http://www.w3.org/Graphics/SVG/1.1/DTD/svg11.dtd">
<svg xmlns:xlink="http://www.w3.org/1999/xlink" width="516.6pt" height="372.822188pt" viewBox="0 0 516.6 372.822188" xmlns="http://www.w3.org/2000/svg" version="1.1">
 <metadata>
  <rdf:RDF xmlns:dc="http://purl.org/dc/elements/1.1/" xmlns:cc="http://creativecommons.org/ns#" xmlns:rdf="http://www.w3.org/1999/02/22-rdf-syntax-ns#">
   <cc:Work>
    <dc:type rdf:resource="http://purl.org/dc/dcmitype/StillImage"/>
    <dc:date>2026-02-18T22:41:46.240152</dc:date>
    <dc:format>image/svg+xml</dc:format>
    <dc:creator>
     <cc:Agent>
      <dc:title>Matplotlib v3.10.8, https://matplotlib.org/</dc:title>
     </cc:Agent>
    </dc:creator>
   </cc:Work>
  </rdf:RDF>
 </metadata>
 <defs>
  <style type="text/css">*{stroke-linejoin: round; stroke-linecap: butt}</style>
 </defs>
 <g id="figure_1">
  <g id="patch_1">
   <path d="M 0 372.822188 
L 516.6 372.822188 
L 516.6 -0 
L 0 -0 
z
" style="fill: #ffffff"/>
  </g>
  <g id="axes_1">
   <g id="patch_2">
    <path d="M 57.42 182.670188 
L 248.256 182.670188 
Q 258.3 182.670188 258.3 171.582188 
L 258.3 49.614188 
Q 258.3 38.526187 248.256 38.526187 
L 57.42 38.526187 
Q 47.376 38.526187 47.376 49.614188 
L 47.376 171.582188 
Q 47.376 182.670188 57.42 182.670188 
z
" clip-path="url(#p7bfaaad923)" style="fill: #a8c8e8; stroke: #333333; stroke-width: 0.8; stroke-linejoin: miter"/>
   </g>
   <g id="patch_3">
    <path d="M 283.41 182.670188 
L 474.246 182.670188 
Q 484.29 182.670188 484.29 171.582188 
L 484.29 49.614188 
Q 484.29 38.526187 474.246 38.526187 
L 283.41 38.526187 
Q 273.366 38.526187 273.366 49.614188 
L 273.366 171.582188 
Q 273.366 182.670188 283.41 182.670188 
z
" clip-path="url(#p7bfaaad923)" style="fill: #c3aed6; stroke: #333333; stroke-width: 0.8; stroke-linejoin: miter"/>
   </g>
   <g id="patch_4">
    <path d="M 57.42 337.902188 
L 248.256 337.902188 
Q 258.3 337.902188 258.3 326.814188 
L 258.3 204.846188 
Q 258.3 193.758188 248.256 193.758188 
L 57.42 193.758188 
Q 47.376 193.758188 47.376 204.846188 
L 47.376 326.814188 
Q 47.376 337.902188 57.42 337.902188 
z
" clip-path="url(#p7bfaaad923)" style="fill: #a8d5ba; stroke: #333333; stroke-width: 0.8; stroke-linejoin: miter"/>
   </g>
   <g id="patch_5">
    <path d="M 283.41 337.902188 
L 474.246 337.902188 
Q 484.29 337.902188 484.29 326.814188 
L 484.29 204.846188 
Q 484.29 193.758188 474.246 193.758188 
L 283.41 193.758188 
Q 273.366 193.758188 273.366 204.846188 
L 273.366 326.814188 
Q 273.366 337.902188 283.41 337.902188 
z
" clip-path="url(#p7bfaaad923)" style="fill: #ffe0a3; stroke: #333333; stroke-width: 0.8; stroke-linejoin: miter"/>
   </g>
   <g id="text_1">
    <!-- 글쓰기와 창작 -->
    <g style="fill: #333333" transform="translate(120.120188 81.312937) scale(0.12 -0.12)">
     <defs>
      <path id="AppleSDGothicNeo-Regular-ae00" d="M 4877 -371 
L 4877 19 
L 1331 19 
L 1331 659 
L 4659 659 
L 4659 2010 
L 800 2010 
L 800 1619 
L 4173 1619 
L 4173 1018 
L 845 1018 
L 845 -371 
L 4877 -371 
z
M 4666 4845 
L 858 4845 
L 858 4442 
L 4166 4442 
C 4166 3898 4115 3443 4006 3034 
L 243 3034 
L 243 2637 
L 5293 2637 
L 5293 3034 
L 4493 3034 
C 4608 3546 4666 4096 4666 4845 
z
" transform="scale(0.015625)"/>
      <path id="AppleSDGothicNeo-Regular-c4f0" d="M 5293 320 
L 5293 730 
L 243 730 
L 243 320 
L 5293 320 
z
M 2720 2496 
C 2163 2778 1882 3302 1882 4058 
L 1882 4621 
L 1414 4621 
L 1414 4051 
C 1414 3296 1075 2566 301 2157 
L 576 1798 
C 1069 2067 1517 2598 1645 3066 
C 1786 2694 2118 2330 2451 2131 
L 2720 2496 
z
M 5222 2291 
C 4550 2611 4160 3194 4160 4006 
L 4160 4634 
L 3693 4634 
L 3693 4013 
C 3693 3194 3251 2464 2598 2086 
L 2893 1760 
C 3309 1997 3776 2560 3923 3059 
C 4083 2598 4518 2144 4947 1926 
L 5222 2291 
z
" transform="scale(0.015625)"/>
      <path id="AppleSDGothicNeo-Regular-ae30" d="M 4813 -448 
L 4813 5146 
L 4326 5146 
L 4326 -448 
L 4813 -448 
z
M 3168 4550 
L 506 4550 
L 506 4141 
L 2650 4141 
C 2547 2880 1715 1664 301 1043 
L 582 659 
C 2029 1344 3142 2733 3168 4550 
z
" transform="scale(0.015625)"/>
      <path id="AppleSDGothicNeo-Regular-c640" d="M 1914 4781 
C 1050 4781 397 4243 397 3430 
C 397 2688 934 2195 1677 2112 
L 1677 1178 
C 1107 1152 563 1152 147 1152 
L 237 723 
C 704 723 1254 742 1869 774 
C 2547 819 3315 877 3757 941 
L 3718 1331 
C 3360 1280 2790 1242 2163 1203 
L 2163 2112 
C 2899 2208 3437 2701 3437 3437 
C 3437 4250 2778 4781 1914 4781 
z
M 1914 4365 
C 2547 4365 2957 4000 2957 3424 
C 2957 2867 2541 2509 1914 2509 
C 1312 2509 870 2867 870 3430 
C 870 4000 1306 4365 1914 4365 
z
M 5453 2394 
L 5453 2803 
L 4557 2803 
L 4557 5146 
L 4064 5146 
L 4064 -448 
L 4557 -448 
L 4557 2394 
L 5453 2394 
z
" transform="scale(0.015625)"/>
      <path id="AppleSDGothicNeo-Regular-20" transform="scale(0.015625)"/>
      <path id="AppleSDGothicNeo-Regular-cc3d" d="M 4621 589 
C 4621 1235 3910 1632 2739 1632 
C 1568 1632 864 1235 864 589 
C 864 -51 1568 -442 2739 -442 
C 3910 -442 4621 -51 4621 589 
z
M 320 3648 
L 1574 3648 
C 1542 2957 890 2304 160 2086 
L 429 1715 
C 1069 1939 1651 2496 1837 2995 
C 2099 2490 2688 2029 3181 1875 
L 3430 2259 
C 2790 2413 2131 2970 2086 3648 
L 3322 3648 
L 3322 4045 
L 320 4045 
L 320 3648 
z
M 2739 1216 
C 3584 1216 4115 986 4115 589 
C 4115 192 3584 -32 2739 -32 
C 1894 -32 1363 192 1363 589 
C 1363 986 1894 1216 2739 1216 
z
M 5408 3123 
L 5408 3533 
L 4544 3533 
L 4544 5146 
L 4058 5146 
L 4058 1677 
L 4544 1677 
L 4544 3123 
L 5408 3123 
z
M 1050 4563 
L 2611 4563 
L 2611 4979 
L 1050 4979 
L 1050 4563 
z
" transform="scale(0.015625)"/>
      <path id="AppleSDGothicNeo-Regular-c791" d="M 275 4333 
L 1562 4333 
C 1562 4192 1555 4083 1555 4032 
C 1530 3290 819 2586 115 2317 
L 397 1939 
C 998 2195 1651 2797 1805 3322 
C 2035 2816 2605 2310 3142 2093 
L 3411 2483 
C 2771 2694 2106 3309 2061 4026 
C 2054 4083 2054 4192 2054 4333 
L 3328 4333 
L 3328 4742 
L 275 4742 
L 275 4333 
z
M 934 1530 
L 934 1126 
L 4058 1126 
L 4058 -454 
L 4544 -454 
L 4544 1530 
L 934 1530 
z
M 5389 3226 
L 5389 3635 
L 4538 3635 
L 4538 5146 
L 4051 5146 
L 4051 1824 
L 4538 1824 
L 4538 3226 
L 5389 3226 
z
" transform="scale(0.015625)"/>
     </defs>
     <use xlink:href="#AppleSDGothicNeo-Regular-ae00"/>
     <use xlink:href="#AppleSDGothicNeo-Regular-c4f0" transform="translate(86.499985 0)"/>
     <use xlink:href="#AppleSDGothicNeo-Regular-ae30" transform="translate(172.999969 0)"/>
     <use xlink:href="#AppleSDGothicNeo-Regular-c640" transform="translate(259.499954 0)"/>
     <use xlink:href="#AppleSDGothicNeo-Regular-20" transform="translate(345.999939 0)"/>
     <use xlink:href="#AppleSDGothicNeo-Regular-cc3d" transform="translate(372.299927 0)"/>
     <use xlink:href="#AppleSDGothicNeo-Regular-c791" transform="translate(458.799911 0)"/>
    </g>
   </g>
   <g id="text_2">
    <!-- AI와 함께 소설, 시, -->
    <g style="fill: #555555" transform="translate(120.011203 121.041703) scale(0.09 -0.09)">
     <defs>
      <path id="AppleSDGothicNeo-Regular-41" d="M 122 269 
L 608 269 
L 1050 1523 
L 2771 1523 
L 3226 269 
L 3757 269 
L 2189 4563 
L 1696 4563 
L 122 269 
z
M 1901 3885 
L 1914 3885 
L 2611 1952 
L 1197 1952 
L 1901 3885 
z
" transform="scale(0.015625)"/>
      <path id="AppleSDGothicNeo-Regular-49" d="M 576 269 
L 1082 269 
L 1082 4563 
L 576 4563 
L 576 269 
z
" transform="scale(0.015625)"/>
      <path id="AppleSDGothicNeo-Regular-d568" d="M 5395 3091 
L 5395 3501 
L 4544 3501 
L 4544 5146 
L 4058 5146 
L 4058 1664 
L 4544 1664 
L 4544 3091 
L 5395 3091 
z
M 4544 -371 
L 4544 1376 
L 1005 1376 
L 1005 -371 
L 4544 -371 
z
M 4058 32 
L 1491 32 
L 1491 979 
L 4058 979 
L 4058 32 
z
M 2630 4614 
L 2630 5024 
L 1062 5024 
L 1062 4614 
L 2630 4614 
z
M 3475 3814 
L 3475 4218 
L 218 4218 
L 218 3814 
L 3475 3814 
z
M 3142 2650 
C 3142 3226 2579 3571 1843 3571 
C 1094 3571 544 3226 544 2650 
C 544 2086 1101 1728 1843 1728 
C 2579 1728 3142 2093 3142 2650 
z
M 2662 2650 
C 2662 2310 2278 2106 1843 2106 
C 1414 2106 1011 2310 1011 2650 
C 1011 2995 1408 3194 1843 3194 
C 2278 3194 2662 2995 2662 2650 
z
" transform="scale(0.015625)"/>
      <path id="AppleSDGothicNeo-Regular-aed8" d="M 2842 4474 
L 1843 4474 
L 1843 4064 
L 2355 4064 
C 2374 3142 2259 1869 1421 851 
L 1824 582 
C 2291 1210 2554 1830 2682 2490 
L 3475 2490 
L 3475 -166 
L 3949 -166 
L 3949 5011 
L 3475 5011 
L 3475 2899 
L 2758 2899 
C 2822 3386 2835 3904 2842 4474 
z
M 4960 -448 
L 4960 5146 
L 4480 5146 
L 4480 -448 
L 4960 -448 
z
M 1594 4474 
L 326 4474 
L 326 4064 
L 1120 4064 
C 1120 3315 954 2099 122 1178 
L 506 909 
C 1331 1882 1594 3066 1594 4474 
z
" transform="scale(0.015625)"/>
      <path id="AppleSDGothicNeo-Regular-c18c" d="M 5094 2381 
C 4173 2560 3021 3366 3021 4326 
L 3021 4730 
L 2515 4730 
L 2515 4326 
C 2515 3366 1427 2566 448 2381 
L 704 1990 
C 1683 2259 2547 2950 2758 3590 
C 3002 2963 3846 2266 4826 1990 
L 5094 2381 
z
M 5293 262 
L 5293 672 
L 3002 672 
L 3002 2106 
L 2515 2106 
L 2515 672 
L 243 672 
L 243 262 
L 5293 262 
z
" transform="scale(0.015625)"/>
      <path id="AppleSDGothicNeo-Regular-c124" d="M 4326 3622 
L 4326 2259 
L 4813 2259 
L 4813 5146 
L 4326 5146 
L 4326 4032 
L 3181 4032 
L 3181 3622 
L 4326 3622 
z
M 3488 2797 
C 2893 2995 2106 3584 2106 4493 
L 2106 4954 
L 1613 4954 
L 1613 4474 
C 1613 3578 934 2918 198 2630 
L 499 2266 
C 1165 2579 1696 3085 1862 3661 
C 2131 3072 2675 2637 3213 2419 
L 3488 2797 
z
M 5024 -410 
L 5024 -6 
L 1690 -6 
L 1690 602 
L 4819 602 
L 4819 1952 
L 1171 1952 
L 1171 1549 
L 4333 1549 
L 4333 973 
L 1203 973 
L 1203 -410 
L 5024 -410 
z
" transform="scale(0.015625)"/>
      <path id="AppleSDGothicNeo-Regular-2c" d="M 122 -563 
L 467 -563 
L 941 685 
L 358 685 
L 122 -563 
z
" transform="scale(0.015625)"/>
      <path id="AppleSDGothicNeo-Regular-c2dc" d="M 4851 -448 
L 4851 5146 
L 4358 5146 
L 4358 -448 
L 4851 -448 
z
M 3648 1267 
C 2874 1728 2195 2643 2195 3667 
L 2195 4659 
L 1702 4659 
L 1702 3648 
C 1702 2656 1030 1638 211 1126 
L 531 762 
C 1178 1222 1754 1907 1958 2605 
C 2176 1933 2835 1242 3341 896 
L 3648 1267 
z
" transform="scale(0.015625)"/>
     </defs>
     <use xlink:href="#AppleSDGothicNeo-Regular-41"/>
     <use xlink:href="#AppleSDGothicNeo-Regular-49" transform="translate(60.499985 0)"/>
     <use xlink:href="#AppleSDGothicNeo-Regular-c640" transform="translate(86.399979 0)"/>
     <use xlink:href="#AppleSDGothicNeo-Regular-20" transform="translate(172.899963 0)"/>
     <use xlink:href="#AppleSDGothicNeo-Regular-d568" transform="translate(199.199951 0)"/>
     <use xlink:href="#AppleSDGothicNeo-Regular-aed8" transform="translate(285.699936 0)"/>
     <use xlink:href="#AppleSDGothicNeo-Regular-20" transform="translate(372.199921 0)"/>
     <use xlink:href="#AppleSDGothicNeo-Regular-c18c" transform="translate(398.499908 0)"/>
     <use xlink:href="#AppleSDGothicNeo-Regular-c124" transform="translate(484.999893 0)"/>
     <use xlink:href="#AppleSDGothicNeo-Regular-2c" transform="translate(571.499878 0)"/>
     <use xlink:href="#AppleSDGothicNeo-Regular-20" transform="translate(594.099869 0)"/>
     <use xlink:href="#AppleSDGothicNeo-Regular-c2dc" transform="translate(620.399857 0)"/>
     <use xlink:href="#AppleSDGothicNeo-Regular-2c" transform="translate(706.899841 0)"/>
    </g>
    <!-- 에세이를 쓰고 -->
    <g style="fill: #555555" transform="translate(128.299641 130.290891) scale(0.09 -0.09)">
     <defs>
      <path id="AppleSDGothicNeo-Regular-c5d0" d="M 1562 4659 
C 749 4659 333 3866 333 2746 
C 333 1619 749 832 1562 832 
C 2330 832 2739 1517 2790 2528 
L 3392 2528 
L 3392 -179 
L 3866 -179 
L 3866 5037 
L 3392 5037 
L 3392 2931 
L 2790 2931 
C 2752 3949 2336 4659 1562 4659 
z
M 2310 2746 
C 2310 1837 2016 1261 1562 1261 
C 1114 1261 826 1837 826 2746 
C 826 3648 1114 4230 1562 4230 
C 2016 4230 2310 3648 2310 2746 
z
M 4960 -448 
L 4960 5146 
L 4480 5146 
L 4480 -448 
L 4960 -448 
z
" transform="scale(0.015625)"/>
      <path id="AppleSDGothicNeo-Regular-c138" d="M 4979 -448 
L 4979 5146 
L 4499 5146 
L 4499 -448 
L 4979 -448 
z
M 3872 -166 
L 3872 5011 
L 3398 5011 
L 3398 3130 
L 2406 3130 
L 2406 2720 
L 3398 2720 
L 3398 -166 
L 3872 -166 
z
M 3059 1318 
C 2451 1722 1798 2534 1798 3622 
L 1798 4627 
L 1318 4627 
L 1318 3610 
C 1318 2515 755 1562 122 1158 
L 422 794 
C 979 1197 1440 1926 1562 2566 
C 1741 1933 2330 1267 2758 960 
L 3059 1318 
z
" transform="scale(0.015625)"/>
      <path id="AppleSDGothicNeo-Regular-c774" d="M 4845 -448 
L 4845 5146 
L 4358 5146 
L 4358 -448 
L 4845 -448 
z
M 429 2752 
C 429 1562 954 768 1869 768 
C 2797 768 3315 1562 3315 2746 
C 3315 3930 2797 4723 1869 4723 
C 954 4723 429 3930 429 2752 
z
M 2854 2746 
C 2854 1830 2464 1190 1869 1190 
C 1280 1190 890 1830 890 2746 
C 890 3667 1280 4301 1869 4301 
C 2464 4301 2854 3667 2854 2746 
z
" transform="scale(0.015625)"/>
      <path id="AppleSDGothicNeo-Regular-b97c" d="M 5293 2163 
L 5293 2541 
L 243 2541 
L 243 2163 
L 5293 2163 
z
M 4870 -346 
L 4870 38 
L 1312 38 
L 1312 550 
L 4698 550 
L 4698 1722 
L 832 1722 
L 832 1363 
L 4211 1363 
L 4211 896 
L 826 896 
L 826 -346 
L 4870 -346 
z
M 4774 2982 
L 4774 3347 
L 1370 3347 
L 1370 3789 
L 4666 3789 
L 4666 4960 
L 877 4960 
L 877 4576 
L 4179 4576 
L 4179 4141 
L 883 4141 
L 883 2982 
L 4774 2982 
z
" transform="scale(0.015625)"/>
      <path id="AppleSDGothicNeo-Regular-ace0" d="M 5293 358 
L 5293 768 
L 2656 768 
L 2656 2790 
L 2170 2790 
L 2170 768 
L 243 768 
L 243 358 
L 5293 358 
z
M 4614 4563 
L 762 4563 
L 762 4154 
L 4109 4154 
L 4109 3610 
C 4109 2874 4038 2029 3910 1504 
L 4390 1427 
C 4557 2138 4608 3008 4614 3859 
L 4614 4563 
z
" transform="scale(0.015625)"/>
     </defs>
     <use xlink:href="#AppleSDGothicNeo-Regular-c5d0"/>
     <use xlink:href="#AppleSDGothicNeo-Regular-c138" transform="translate(86.499985 0)"/>
     <use xlink:href="#AppleSDGothicNeo-Regular-c774" transform="translate(172.999969 0)"/>
     <use xlink:href="#AppleSDGothicNeo-Regular-b97c" transform="translate(259.499954 0)"/>
     <use xlink:href="#AppleSDGothicNeo-Regular-20" transform="translate(345.999939 0)"/>
     <use xlink:href="#AppleSDGothicNeo-Regular-c4f0" transform="translate(372.299927 0)"/>
     <use xlink:href="#AppleSDGothicNeo-Regular-ace0" transform="translate(458.799911 0)"/>
    </g>
    <!-- 문체를 실험 -->
    <g style="fill: #555555" transform="translate(132.192141 139.540078) scale(0.09 -0.09)">
     <defs>
      <path id="AppleSDGothicNeo-Regular-bb38" d="M 4659 2867 
L 4659 4838 
L 877 4838 
L 877 2867 
L 4659 2867 
z
M 4173 3270 
L 1363 3270 
L 1363 4435 
L 4173 4435 
L 4173 3270 
z
M 3021 736 
L 3021 1837 
L 5293 1837 
L 5293 2240 
L 243 2240 
L 243 1837 
L 2534 1837 
L 2534 736 
L 3021 736 
z
M 4723 -269 
L 4723 134 
L 1357 134 
L 1357 1312 
L 870 1312 
L 870 -269 
L 4723 -269 
z
" transform="scale(0.015625)"/>
      <path id="AppleSDGothicNeo-Regular-ccb4" d="M 2938 3322 
L 2938 3731 
L 282 3731 
L 282 3322 
L 1357 3322 
L 1357 3123 
C 1357 2080 813 1382 173 992 
L 448 659 
C 979 986 1478 1587 1606 2176 
C 1766 1594 2291 1062 2752 806 
L 3040 1165 
C 2470 1459 1856 2086 1856 3136 
L 1856 3322 
L 2938 3322 
z
M 3386 2317 
L 3386 -166 
L 3859 -166 
L 3859 5011 
L 3386 5011 
L 3386 2720 
L 2496 2720 
L 2496 2317 
L 3386 2317 
z
M 4986 -448 
L 4986 5146 
L 4506 5146 
L 4506 -448 
L 4986 -448 
z
M 877 4269 
L 2355 4269 
L 2355 4704 
L 877 4704 
L 877 4269 
z
" transform="scale(0.015625)"/>
      <path id="AppleSDGothicNeo-Regular-c2e4" d="M 4813 2285 
L 4813 5146 
L 4326 5146 
L 4326 2285 
L 4813 2285 
z
M 3584 2778 
C 2893 3027 2157 3571 2157 4474 
L 2157 4954 
L 1664 4954 
L 1664 4454 
C 1664 3558 954 2886 230 2598 
L 499 2227 
C 1171 2547 1754 3091 1926 3667 
C 2189 3078 2752 2618 3309 2400 
L 3584 2778 
z
M 5024 -384 
L 5024 13 
L 1664 13 
L 1664 640 
L 4813 640 
L 4813 1978 
L 1165 1978 
L 1165 1581 
L 4326 1581 
L 4326 1005 
L 1178 1005 
L 1178 -384 
L 5024 -384 
z
" transform="scale(0.015625)"/>
      <path id="AppleSDGothicNeo-Regular-d5d8" d="M 4819 -365 
L 4819 1389 
L 1203 1389 
L 1203 -365 
L 4819 -365 
z
M 4333 38 
L 1690 38 
L 1690 986 
L 4333 986 
L 4333 38 
z
M 4813 1690 
L 4813 5146 
L 4326 5146 
L 4326 3341 
L 3366 3341 
L 3366 2938 
L 4326 2938 
L 4326 1690 
L 4813 1690 
z
M 2688 4614 
L 2688 5024 
L 1082 5024 
L 1082 4614 
L 2688 4614 
z
M 3501 3821 
L 3501 4218 
L 237 4218 
L 237 3821 
L 3501 3821 
z
M 3206 2650 
C 3206 3226 2637 3571 1882 3571 
C 1126 3571 557 3226 557 2650 
C 557 2086 1133 1728 1882 1728 
C 2637 1728 3206 2093 3206 2650 
z
M 2726 2650 
C 2726 2310 2330 2106 1882 2106 
C 1453 2106 1037 2310 1037 2650 
C 1037 2995 1446 3194 1882 3194 
C 2330 3194 2726 2995 2726 2650 
z
" transform="scale(0.015625)"/>
     </defs>
     <use xlink:href="#AppleSDGothicNeo-Regular-bb38"/>
     <use xlink:href="#AppleSDGothicNeo-Regular-ccb4" transform="translate(86.499985 0)"/>
     <use xlink:href="#AppleSDGothicNeo-Regular-b97c" transform="translate(172.999969 0)"/>
     <use xlink:href="#AppleSDGothicNeo-Regular-20" transform="translate(259.499954 0)"/>
     <use xlink:href="#AppleSDGothicNeo-Regular-c2e4" transform="translate(285.799942 0)"/>
     <use xlink:href="#AppleSDGothicNeo-Regular-d5d8" transform="translate(372.299927 0)"/>
    </g>
   </g>
   <g id="text_3">
    <!-- 텍스트 분석 -->
    <g style="fill: #333333" transform="translate(351.300188 81.307312) scale(0.12 -0.12)">
     <defs>
      <path id="AppleSDGothicNeo-Regular-d14d" d="M 986 2515 
L 986 3258 
L 2336 3258 
L 2336 3654 
L 986 3654 
L 986 4326 
L 2586 4326 
L 2586 4730 
L 506 4730 
L 506 2093 
L 864 2093 
C 1600 2093 2349 2144 2886 2253 
L 2822 2656 
C 2362 2554 1792 2515 1120 2515 
L 986 2515 
z
M 1184 1491 
L 1184 1088 
L 4467 1088 
L 4467 -448 
L 4960 -448 
L 4960 1491 
L 1184 1491 
z
M 3891 1818 
L 3891 5043 
L 3424 5043 
L 3424 3706 
L 2637 3706 
L 2637 3302 
L 3424 3302 
L 3424 1818 
L 3891 1818 
z
M 4960 1766 
L 4960 5146 
L 4474 5146 
L 4474 1766 
L 4960 1766 
z
" transform="scale(0.015625)"/>
      <path id="AppleSDGothicNeo-Regular-c2a4" d="M 5107 2266 
C 4250 2458 3021 3322 3021 4237 
L 3021 4678 
L 2515 4678 
L 2515 4237 
C 2515 3322 1350 2458 442 2278 
L 698 1862 
C 1670 2138 2560 2931 2758 3501 
C 2989 2931 3898 2138 4838 1856 
L 5107 2266 
z
M 5293 320 
L 5293 730 
L 243 730 
L 243 320 
L 5293 320 
z
" transform="scale(0.015625)"/>
      <path id="AppleSDGothicNeo-Regular-d2b8" d="M 4525 2976 
L 4525 3386 
L 1350 3386 
L 1350 4198 
L 4634 4198 
L 4634 4608 
L 858 4608 
L 858 1696 
L 4691 1696 
L 4691 2106 
L 1350 2106 
L 1350 2976 
L 4525 2976 
z
M 5293 262 
L 5293 672 
L 243 672 
L 243 262 
L 5293 262 
z
" transform="scale(0.015625)"/>
      <path id="AppleSDGothicNeo-Regular-bd84" d="M 4653 2829 
L 4653 4966 
L 4160 4966 
L 4160 4275 
L 1363 4275 
L 1363 4966 
L 877 4966 
L 877 2829 
L 4653 2829 
z
M 3002 723 
L 3002 1798 
L 5293 1798 
L 5293 2202 
L 243 2202 
L 243 1798 
L 2515 1798 
L 2515 723 
L 3002 723 
z
M 4730 -269 
L 4730 134 
L 1370 134 
L 1370 1248 
L 883 1248 
L 883 -269 
L 4730 -269 
z
M 4160 3238 
L 1363 3238 
L 1363 3872 
L 4160 3872 
L 4160 3238 
z
" transform="scale(0.015625)"/>
      <path id="AppleSDGothicNeo-Regular-c11d" d="M 4326 3475 
L 4326 1862 
L 4813 1862 
L 4813 5146 
L 4326 5146 
L 4326 3885 
L 3187 3885 
L 3187 3475 
L 4326 3475 
z
M 4819 -448 
L 4819 1568 
L 1094 1568 
L 1094 1165 
L 4333 1165 
L 4333 -448 
L 4819 -448 
z
M 3462 2560 
C 2835 2784 2093 3462 2093 4358 
L 2093 4883 
L 1600 4883 
L 1600 4339 
C 1600 3450 979 2758 192 2394 
L 493 2016 
C 1197 2406 1696 2899 1862 3475 
C 2086 2918 2643 2432 3174 2176 
L 3462 2560 
z
" transform="scale(0.015625)"/>
     </defs>
     <use xlink:href="#AppleSDGothicNeo-Regular-d14d"/>
     <use xlink:href="#AppleSDGothicNeo-Regular-c2a4" transform="translate(86.499985 0)"/>
     <use xlink:href="#AppleSDGothicNeo-Regular-d2b8" transform="translate(172.999969 0)"/>
     <use xlink:href="#AppleSDGothicNeo-Regular-20" transform="translate(259.499954 0)"/>
     <use xlink:href="#AppleSDGothicNeo-Regular-bd84" transform="translate(285.799942 0)"/>
     <use xlink:href="#AppleSDGothicNeo-Regular-c11d" transform="translate(372.299927 0)"/>
    </g>
   </g>
   <g id="text_4">
    <!-- 수천 편의 문학 작품을 -->
    <g style="fill: #555555" transform="translate(340.245422 125.589656) scale(0.09 -0.09)">
     <defs>
      <path id="AppleSDGothicNeo-Regular-c218" d="M 3002 -454 
L 3002 1574 
L 5293 1574 
L 5293 1984 
L 243 1984 
L 243 1574 
L 2515 1574 
L 2515 -454 
L 3002 -454 
z
M 5088 2995 
C 4102 3117 3027 3834 3027 4595 
L 3027 4954 
L 2515 4954 
L 2515 4595 
C 2515 3834 1530 3123 454 2982 
L 691 2566 
C 1542 2733 2496 3277 2765 3930 
C 3104 3277 4019 2752 4858 2579 
L 5088 2995 
z
" transform="scale(0.015625)"/>
      <path id="AppleSDGothicNeo-Regular-cc9c" d="M 384 3584 
L 1651 3584 
L 1651 3469 
C 1651 2765 979 2086 237 1862 
L 499 1491 
C 1146 1715 1722 2266 1901 2765 
C 2163 2266 2758 1792 3251 1645 
L 3501 2022 
C 2848 2182 2157 2778 2157 3482 
L 2157 3584 
L 3398 3584 
L 3398 3981 
L 384 3981 
L 384 3584 
z
M 4813 5146 
L 4326 5146 
L 4326 3219 
L 3290 3219 
L 3290 2816 
L 4326 2816 
L 4326 1062 
L 4813 1062 
L 4813 5146 
z
M 4934 -262 
L 4934 141 
L 1702 141 
L 1702 1408 
L 1216 1408 
L 1216 -262 
L 4934 -262 
z
M 1114 4480 
L 2701 4480 
L 2701 4902 
L 1114 4902 
L 1114 4480 
z
" transform="scale(0.015625)"/>
      <path id="AppleSDGothicNeo-Regular-d3b8" d="M 2848 3930 
L 2362 3987 
L 2227 2189 
C 2157 2189 2080 2182 2010 2182 
C 1811 2170 1619 2163 1421 2163 
L 1306 3974 
L 819 3917 
L 979 2163 
C 749 2157 499 2163 243 2163 
L 326 1728 
C 826 1728 1446 1747 2022 1766 
C 2624 1798 3046 1837 3456 1894 
L 3411 2278 
C 3219 2253 2963 2227 2656 2208 
L 2848 3930 
z
M 3328 3642 
L 4326 3642 
L 4326 2950 
L 3328 2950 
L 3328 2547 
L 4326 2547 
L 4326 1062 
L 4813 1062 
L 4813 5146 
L 4326 5146 
L 4326 4038 
L 3328 4038 
L 3328 3642 
z
M 4928 -288 
L 4928 122 
L 1658 122 
L 1658 1389 
L 1171 1389 
L 1171 -288 
L 4928 -288 
z
M 3360 4275 
L 3360 4678 
L 390 4678 
L 390 4275 
L 3360 4275 
z
" transform="scale(0.015625)"/>
      <path id="AppleSDGothicNeo-Regular-c758" d="M 4352 5146 
L 4352 -448 
L 4838 -448 
L 4838 5146 
L 4352 5146 
z
M 3469 3379 
C 3469 4198 2842 4710 2016 4710 
C 1203 4710 557 4166 557 3379 
C 557 2630 1190 2080 2016 2080 
C 2822 2080 3469 2586 3469 3379 
z
M 2995 3379 
C 2995 2854 2547 2490 2016 2490 
C 1472 2490 1030 2861 1030 3379 
C 1030 3904 1478 4294 2016 4294 
C 2560 4294 2995 3942 2995 3379 
z
M 4026 973 
L 3981 1370 
C 3571 1318 2848 1274 2067 1248 
C 1389 1210 730 1197 250 1203 
L 339 774 
C 762 781 1376 800 2035 832 
C 2746 864 3546 915 4026 973 
z
" transform="scale(0.015625)"/>
      <path id="AppleSDGothicNeo-Regular-d559" d="M 5395 3098 
L 5395 3507 
L 4544 3507 
L 4544 5146 
L 4058 5146 
L 4058 1677 
L 4544 1677 
L 4544 3098 
L 5395 3098 
z
M 2630 4608 
L 2630 5024 
L 1018 5024 
L 1018 4608 
L 2630 4608 
z
M 3424 3814 
L 3424 4218 
L 218 4218 
L 218 3814 
L 3424 3814 
z
M 3085 2624 
C 3085 3194 2541 3552 1811 3552 
C 1075 3552 538 3194 538 2624 
C 538 2061 1082 1696 1811 1696 
C 2541 1696 3085 2067 3085 2624 
z
M 2598 2624 
C 2598 2291 2240 2086 1811 2086 
C 1395 2086 1018 2291 1018 2624 
C 1018 2957 1389 3162 1811 3162 
C 2240 3162 2598 2957 2598 2624 
z
M 922 1370 
L 922 966 
L 4058 966 
L 4058 -448 
L 4544 -448 
L 4544 1370 
L 922 1370 
z
" transform="scale(0.015625)"/>
      <path id="AppleSDGothicNeo-Regular-d488" d="M 4672 -371 
L 4672 1389 
L 3002 1389 
L 3002 2022 
L 5293 2022 
L 5293 2426 
L 243 2426 
L 243 2022 
L 2515 2022 
L 2515 1389 
L 851 1389 
L 851 -371 
L 4672 -371 
z
M 4192 32 
L 1344 32 
L 1344 986 
L 4192 986 
L 4192 32 
z
M 4730 2912 
L 4730 3315 
L 3885 3315 
L 4051 4224 
L 3546 4275 
L 3418 3315 
L 2086 3315 
L 1984 4269 
L 1478 4211 
L 1626 3315 
L 774 3315 
L 774 2912 
L 4730 2912 
z
M 4768 4480 
L 4768 4883 
L 736 4883 
L 736 4480 
L 4768 4480 
z
" transform="scale(0.015625)"/>
      <path id="AppleSDGothicNeo-Regular-c744" d="M 5293 2317 
L 5293 2726 
L 243 2726 
L 243 2317 
L 5293 2317 
z
M 4730 4096 
C 4730 4710 3987 5069 2771 5069 
C 1568 5069 826 4710 826 4096 
C 826 3482 1568 3130 2771 3130 
C 3987 3130 4730 3482 4730 4096 
z
M 2771 4672 
C 3661 4672 4237 4448 4237 4096 
C 4237 3750 3661 3533 2771 3533 
C 1894 3533 1325 3750 1325 4096 
C 1325 4448 1894 4672 2771 4672 
z
M 4845 -397 
L 4845 0 
L 1318 0 
L 1318 563 
L 4659 563 
L 4659 1818 
L 819 1818 
L 819 1427 
L 4173 1427 
L 4173 934 
L 832 934 
L 832 -397 
L 4845 -397 
z
" transform="scale(0.015625)"/>
     </defs>
     <use xlink:href="#AppleSDGothicNeo-Regular-c218"/>
     <use xlink:href="#AppleSDGothicNeo-Regular-cc9c" transform="translate(86.499985 0)"/>
     <use xlink:href="#AppleSDGothicNeo-Regular-20" transform="translate(172.999969 0)"/>
     <use xlink:href="#AppleSDGothicNeo-Regular-d3b8" transform="translate(199.299957 0)"/>
     <use xlink:href="#AppleSDGothicNeo-Regular-c758" transform="translate(285.799942 0)"/>
     <use xlink:href="#AppleSDGothicNeo-Regular-20" transform="translate(372.299927 0)"/>
     <use xlink:href="#AppleSDGothicNeo-Regular-bb38" transform="translate(398.599915 0)"/>
     <use xlink:href="#AppleSDGothicNeo-Regular-d559" transform="translate(485.099899 0)"/>
     <use xlink:href="#AppleSDGothicNeo-Regular-20" transform="translate(571.599884 0)"/>
     <use xlink:href="#AppleSDGothicNeo-Regular-c791" transform="translate(597.899872 0)"/>
     <use xlink:href="#AppleSDGothicNeo-Regular-d488" transform="translate(684.399857 0)"/>
     <use xlink:href="#AppleSDGothicNeo-Regular-c744" transform="translate(770.899841 0)"/>
    </g>
    <!-- 분석하고 패턴을 발견 -->
    <g style="fill: #555555" transform="translate(341.428781 134.838844) scale(0.09 -0.09)">
     <defs>
      <path id="AppleSDGothicNeo-Regular-d558" d="M 5453 2374 
L 5453 2784 
L 4544 2784 
L 4544 5146 
L 4058 5146 
L 4058 -448 
L 4544 -448 
L 4544 2374 
L 5453 2374 
z
M 2694 4346 
L 2694 4762 
L 1050 4762 
L 1050 4346 
L 2694 4346 
z
M 3520 3398 
L 3520 3802 
L 218 3802 
L 218 3398 
L 3520 3398 
z
M 3187 1882 
C 3187 2541 2662 3040 1882 3040 
C 1101 3040 576 2534 576 1882 
C 576 1229 1101 730 1882 730 
C 2662 730 3187 1235 3187 1882 
z
M 2701 1882 
C 2701 1446 2362 1133 1882 1133 
C 1414 1133 1062 1446 1062 1882 
C 1062 2323 1414 2630 1882 2630 
C 2355 2630 2701 2323 2701 1882 
z
" transform="scale(0.015625)"/>
      <path id="AppleSDGothicNeo-Regular-d328" d="M 4973 -448 
L 4973 5146 
L 4499 5146 
L 4499 2867 
L 3821 2867 
L 3821 5011 
L 3347 5011 
L 3347 -160 
L 3821 -160 
L 3821 2464 
L 4499 2464 
L 4499 -448 
L 4973 -448 
z
M 3059 1114 
C 3053 1242 3046 1370 3027 1498 
C 2835 1472 2586 1446 2317 1427 
C 2387 2176 2458 2944 2522 3693 
L 2035 3744 
C 1978 2970 1933 2163 1882 1395 
C 1830 1389 1779 1389 1734 1389 
C 1587 1382 1453 1370 1306 1370 
C 1261 2157 1203 2957 1158 3731 
L 672 3674 
C 730 2912 787 2125 851 1363 
L 166 1363 
L 243 928 
C 717 934 1242 960 1760 986 
C 2259 1018 2765 1062 3059 1114 
z
M 2886 4032 
L 2886 4442 
L 269 4442 
L 269 4032 
L 2886 4032 
z
" transform="scale(0.015625)"/>
      <path id="AppleSDGothicNeo-Regular-d134" d="M 4813 1062 
L 4813 5146 
L 4326 5146 
L 4326 3565 
L 3315 3565 
L 3315 3155 
L 4326 3155 
L 4326 1062 
L 4813 1062 
z
M 4966 -262 
L 4966 147 
L 1715 147 
L 1715 1402 
L 1229 1402 
L 1229 -262 
L 4966 -262 
z
M 960 2189 
L 960 3130 
L 2925 3130 
L 2925 3526 
L 960 3526 
L 960 4301 
L 3014 4301 
L 3014 4704 
L 480 4704 
L 480 1779 
L 986 1779 
C 1971 1786 2739 1818 3373 1939 
L 3309 2336 
C 2752 2221 1997 2189 1338 2189 
L 960 2189 
z
" transform="scale(0.015625)"/>
      <path id="AppleSDGothicNeo-Regular-bc1c" d="M 5395 3482 
L 5395 3891 
L 4544 3891 
L 4544 5146 
L 4058 5146 
L 4058 2253 
L 4544 2253 
L 4544 3482 
L 5395 3482 
z
M 4749 -410 
L 4749 -6 
L 1459 -6 
L 1459 608 
L 4544 608 
L 4544 1933 
L 966 1933 
L 966 1536 
L 4058 1536 
L 4058 986 
L 973 986 
L 973 -410 
L 4749 -410 
z
M 3053 2445 
L 3053 4928 
L 2560 4928 
L 2560 4109 
L 928 4109 
L 928 4928 
L 442 4928 
L 442 2445 
L 3053 2445 
z
M 2560 2848 
L 928 2848 
L 928 3706 
L 2560 3706 
L 2560 2848 
z
" transform="scale(0.015625)"/>
      <path id="AppleSDGothicNeo-Regular-acac" d="M 3098 2342 
L 4326 2342 
L 4326 1082 
L 4813 1082 
L 4813 5146 
L 4326 5146 
L 4326 4006 
L 3142 4006 
L 3142 3597 
L 4326 3597 
L 4326 2739 
L 3098 2739 
L 3098 2342 
z
M 3098 4678 
L 557 4678 
L 557 4269 
L 2554 4269 
C 2400 3302 1446 2458 294 2150 
L 589 1766 
C 2125 2291 3002 3296 3098 4678 
z
M 4966 -314 
L 4966 96 
L 1709 96 
L 1709 1446 
L 1222 1446 
L 1222 -314 
L 4966 -314 
z
" transform="scale(0.015625)"/>
     </defs>
     <use xlink:href="#AppleSDGothicNeo-Regular-bd84"/>
     <use xlink:href="#AppleSDGothicNeo-Regular-c11d" transform="translate(86.499985 0)"/>
     <use xlink:href="#AppleSDGothicNeo-Regular-d558" transform="translate(172.999969 0)"/>
     <use xlink:href="#AppleSDGothicNeo-Regular-ace0" transform="translate(259.499954 0)"/>
     <use xlink:href="#AppleSDGothicNeo-Regular-20" transform="translate(345.999939 0)"/>
     <use xlink:href="#AppleSDGothicNeo-Regular-d328" transform="translate(372.299927 0)"/>
     <use xlink:href="#AppleSDGothicNeo-Regular-d134" transform="translate(458.799911 0)"/>
     <use xlink:href="#AppleSDGothicNeo-Regular-c744" transform="translate(545.299896 0)"/>
     <use xlink:href="#AppleSDGothicNeo-Regular-20" transform="translate(631.799881 0)"/>
     <use xlink:href="#AppleSDGothicNeo-Regular-bc1c" transform="translate(658.099869 0)"/>
     <use xlink:href="#AppleSDGothicNeo-Regular-acac" transform="translate(744.599854 0)"/>
    </g>
   </g>
   <g id="text_5">
    <!-- 번역과 소통 -->
    <g style="fill: #333333" transform="translate(125.310188 236.5515) scale(0.12 -0.12)">
     <defs>
      <path id="AppleSDGothicNeo-Regular-bc88" d="M 4326 3136 
L 4326 1069 
L 4813 1069 
L 4813 5146 
L 4326 5146 
L 4326 3546 
L 3347 3546 
L 3347 3136 
L 4326 3136 
z
M 4954 -262 
L 4954 141 
L 1670 141 
L 1670 1440 
L 1184 1440 
L 1184 -262 
L 4954 -262 
z
M 3053 1933 
L 3053 4774 
L 2560 4774 
L 2560 3757 
L 947 3757 
L 947 4774 
L 454 4774 
L 454 1933 
L 3053 1933 
z
M 2560 2336 
L 947 2336 
L 947 3354 
L 2560 3354 
L 2560 2336 
z
" transform="scale(0.015625)"/>
      <path id="AppleSDGothicNeo-Regular-c5ed" d="M 3309 3955 
L 4326 3955 
L 4326 3040 
L 3309 3040 
L 3302 2637 
L 4326 2637 
L 4326 1850 
L 4813 1850 
L 4813 5146 
L 4326 5146 
L 4326 4365 
L 3302 4365 
L 3309 3955 
z
M 1062 1555 
L 1062 1152 
L 4326 1152 
L 4326 -454 
L 4813 -454 
L 4813 1555 
L 1062 1555 
z
M 1741 4819 
C 954 4819 301 4282 301 3469 
C 301 2662 954 2150 1741 2150 
C 2528 2150 3174 2662 3174 3475 
C 3174 4294 2528 4819 1741 4819 
z
M 1741 4403 
C 2317 4403 2688 4032 2688 3469 
C 2688 2912 2310 2547 1741 2547 
C 1190 2547 787 2912 787 3475 
C 787 4038 1190 4403 1741 4403 
z
" transform="scale(0.015625)"/>
      <path id="AppleSDGothicNeo-Regular-acfc" d="M 5485 2394 
L 5485 2810 
L 4576 2810 
L 4576 5146 
L 4090 5146 
L 4090 -448 
L 4576 -448 
L 4576 2394 
L 5485 2394 
z
M 3770 966 
L 3731 1370 
C 3232 1293 2528 1242 1856 1210 
L 1856 2963 
L 1363 2963 
L 1363 1197 
C 947 1184 448 1190 141 1190 
L 211 762 
C 678 762 1299 781 1862 806 
C 2406 838 3232 896 3770 966 
z
M 3347 4557 
L 422 4557 
L 422 4147 
L 2854 4147 
C 2880 3520 2803 2598 2682 2054 
L 3149 1990 
C 3270 2534 3360 3699 3347 4557 
z
" transform="scale(0.015625)"/>
      <path id="AppleSDGothicNeo-Regular-d1b5" d="M 4698 2701 
L 4698 3085 
L 1338 3085 
L 1338 3635 
L 4563 3635 
L 4563 4006 
L 1338 4006 
L 1338 4525 
L 4659 4525 
L 4659 4915 
L 851 4915 
L 851 2701 
L 2522 2701 
L 2522 2170 
L 243 2170 
L 243 1766 
L 5293 1766 
L 5293 2170 
L 3008 2170 
L 3008 2701 
L 4698 2701 
z
M 4730 480 
C 4730 1094 4045 1427 2765 1427 
C 1491 1427 813 1062 813 480 
C 813 -109 1491 -461 2765 -461 
C 4045 -461 4730 -122 4730 480 
z
M 2765 1037 
C 3674 1037 4237 826 4237 480 
C 4237 134 3674 -64 2765 -64 
C 1862 -64 1306 134 1306 480 
C 1306 826 1862 1037 2765 1037 
z
" transform="scale(0.015625)"/>
     </defs>
     <use xlink:href="#AppleSDGothicNeo-Regular-bc88"/>
     <use xlink:href="#AppleSDGothicNeo-Regular-c5ed" transform="translate(86.499985 0)"/>
     <use xlink:href="#AppleSDGothicNeo-Regular-acfc" transform="translate(172.999969 0)"/>
     <use xlink:href="#AppleSDGothicNeo-Regular-20" transform="translate(259.499954 0)"/>
     <use xlink:href="#AppleSDGothicNeo-Regular-c18c" transform="translate(285.799942 0)"/>
     <use xlink:href="#AppleSDGothicNeo-Regular-d1b5" transform="translate(372.299927 0)"/>
    </g>
   </g>
   <g id="text_6">
    <!-- 언어의 장벽을 넘어 -->
    <g style="fill: #555555" transform="translate(119.331281 280.817438) scale(0.09 -0.09)">
     <defs>
      <path id="AppleSDGothicNeo-Regular-c5b8" d="M 4326 3194 
L 4326 1069 
L 4813 1069 
L 4813 5146 
L 4326 5146 
L 4326 3597 
L 3405 3597 
L 3405 3194 
L 4326 3194 
z
M 4934 -262 
L 4934 141 
L 1690 141 
L 1690 1485 
L 1203 1485 
L 1203 -262 
L 4934 -262 
z
M 1728 4774 
C 909 4774 275 4198 275 3366 
C 275 2534 909 1984 1734 1984 
C 2554 1984 3181 2541 3181 3373 
C 3181 4205 2547 4774 1728 4774 
z
M 1728 4346 
C 2310 4346 2707 3942 2707 3366 
C 2707 2810 2310 2413 1734 2413 
C 1178 2413 755 2810 755 3373 
C 755 3942 1171 4346 1728 4346 
z
" transform="scale(0.015625)"/>
      <path id="AppleSDGothicNeo-Regular-c5b4" d="M 314 2778 
C 314 1587 826 800 1728 800 
C 2579 800 3078 1504 3130 2579 
L 4326 2579 
L 4326 -448 
L 4813 -448 
L 4813 5146 
L 4326 5146 
L 4326 2995 
L 3130 2995 
C 3066 4058 2573 4755 1728 4755 
C 826 4755 314 3962 314 2778 
z
M 2656 2771 
C 2656 1862 2278 1222 1728 1222 
C 1171 1222 800 1862 800 2771 
C 800 3693 1171 4333 1728 4333 
C 2278 4333 2656 3693 2656 2771 
z
" transform="scale(0.015625)"/>
      <path id="AppleSDGothicNeo-Regular-c7a5" d="M 4621 621 
C 4621 1293 3910 1696 2739 1696 
C 1568 1696 864 1293 864 621 
C 864 -38 1568 -442 2739 -442 
C 3910 -442 4621 -38 4621 621 
z
M 275 4333 
L 1562 4333 
C 1562 4192 1555 4083 1555 4032 
C 1530 3290 819 2586 115 2317 
L 397 1939 
C 998 2195 1651 2797 1805 3322 
C 2035 2816 2605 2310 3142 2093 
L 3411 2483 
C 2771 2694 2106 3309 2061 4026 
C 2054 4083 2054 4192 2054 4333 
L 3328 4333 
L 3328 4742 
L 275 4742 
L 275 4333 
z
M 4122 621 
C 4122 205 3584 -38 2739 -38 
C 1894 -38 1370 205 1370 621 
C 1370 1056 1894 1286 2739 1286 
C 3584 1286 4122 1056 4122 621 
z
M 5408 3187 
L 5408 3597 
L 4544 3597 
L 4544 5146 
L 4058 5146 
L 4058 1709 
L 4544 1709 
L 4544 3187 
L 5408 3187 
z
" transform="scale(0.015625)"/>
      <path id="AppleSDGothicNeo-Regular-bcbd" d="M 4813 5146 
L 4326 5146 
L 4326 4314 
L 3283 4314 
L 3283 3910 
L 4326 3910 
L 4326 3130 
L 3283 3130 
L 3283 2720 
L 4326 2720 
L 4326 1882 
L 4813 1882 
L 4813 5146 
z
M 4819 -448 
L 4819 1542 
L 1094 1542 
L 1094 1133 
L 4333 1133 
L 4333 -448 
L 4819 -448 
z
M 2950 2202 
L 2950 4870 
L 2458 4870 
L 2458 3923 
L 979 3923 
L 979 4870 
L 493 4870 
L 493 2202 
L 2950 2202 
z
M 2458 2605 
L 979 2605 
L 979 3520 
L 2458 3520 
L 2458 2605 
z
" transform="scale(0.015625)"/>
      <path id="AppleSDGothicNeo-Regular-b118" d="M 4819 -365 
L 4819 1638 
L 1190 1638 
L 1190 -365 
L 4819 -365 
z
M 4333 38 
L 1677 38 
L 1677 1235 
L 4333 1235 
L 4333 38 
z
M 4813 1971 
L 4813 5146 
L 4326 5146 
L 4326 4083 
L 2650 4083 
L 2650 3674 
L 4326 3674 
L 4326 1971 
L 4813 1971 
z
M 3450 2931 
C 2810 2790 1741 2701 986 2694 
L 986 4806 
L 506 4806 
L 506 2272 
L 922 2272 
C 1651 2272 2912 2394 3507 2522 
L 3450 2931 
z
" transform="scale(0.015625)"/>
     </defs>
     <use xlink:href="#AppleSDGothicNeo-Regular-c5b8"/>
     <use xlink:href="#AppleSDGothicNeo-Regular-c5b4" transform="translate(86.499985 0)"/>
     <use xlink:href="#AppleSDGothicNeo-Regular-c758" transform="translate(172.999969 0)"/>
     <use xlink:href="#AppleSDGothicNeo-Regular-20" transform="translate(259.499954 0)"/>
     <use xlink:href="#AppleSDGothicNeo-Regular-c7a5" transform="translate(285.799942 0)"/>
     <use xlink:href="#AppleSDGothicNeo-Regular-bcbd" transform="translate(372.299927 0)"/>
     <use xlink:href="#AppleSDGothicNeo-Regular-c744" transform="translate(458.799911 0)"/>
     <use xlink:href="#AppleSDGothicNeo-Regular-20" transform="translate(545.299896 0)"/>
     <use xlink:href="#AppleSDGothicNeo-Regular-b118" transform="translate(571.599884 0)"/>
     <use xlink:href="#AppleSDGothicNeo-Regular-c5b4" transform="translate(658.099869 0)"/>
    </g>
    <!-- 다양한 문화를 탐색 -->
    <g style="fill: #555555" transform="translate(119.331281 290.066625) scale(0.09 -0.09)">
     <defs>
      <path id="AppleSDGothicNeo-Regular-b2e4" d="M 4557 5146 
L 4070 5146 
L 4070 -448 
L 4557 -448 
L 4557 2515 
L 5466 2515 
L 5466 2925 
L 4557 2925 
L 4557 5146 
z
M 954 1338 
L 954 4154 
L 3117 4154 
L 3117 4563 
L 461 4563 
L 461 922 
L 1011 922 
C 1984 922 3091 998 3693 1114 
L 3642 1517 
C 3104 1402 1997 1338 1274 1338 
L 954 1338 
z
" transform="scale(0.015625)"/>
      <path id="AppleSDGothicNeo-Regular-c591" d="M 5395 3072 
L 4544 3072 
L 4544 3872 
L 5395 3872 
L 5395 4282 
L 4544 4282 
L 4544 5146 
L 4058 5146 
L 4058 1773 
L 4544 1773 
L 4544 2669 
L 5395 2669 
L 5395 3072 
z
M 4589 640 
C 4589 1274 3955 1715 2733 1715 
C 1517 1715 890 1286 890 640 
C 890 0 1517 -435 2733 -435 
C 3955 -435 4589 0 4589 640 
z
M 2733 1312 
C 3578 1312 4090 1050 4090 640 
C 4090 224 3578 -32 2733 -32 
C 1888 -32 1389 237 1389 640 
C 1389 1043 1888 1312 2733 1312 
z
M 1754 4838 
C 954 4838 301 4301 301 3488 
C 301 2669 954 2163 1754 2163 
C 2547 2163 3200 2669 3200 3494 
C 3200 4301 2547 4838 1754 4838 
z
M 1754 4442 
C 2342 4442 2733 4045 2733 3488 
C 2733 2938 2336 2560 1754 2560 
C 1190 2560 774 2938 774 3494 
C 774 4045 1190 4442 1754 4442 
z
" transform="scale(0.015625)"/>
      <path id="AppleSDGothicNeo-Regular-d55c" d="M 5395 2842 
L 5395 3251 
L 4544 3251 
L 4544 5146 
L 4058 5146 
L 4058 1018 
L 4544 1018 
L 4544 2842 
L 5395 2842 
z
M 4762 -269 
L 4762 141 
L 1523 141 
L 1523 1165 
L 1037 1165 
L 1037 -269 
L 4762 -269 
z
M 2630 4518 
L 2630 4947 
L 1018 4947 
L 1018 4518 
L 2630 4518 
z
M 3494 3693 
L 3494 4096 
L 218 4096 
L 218 3693 
L 3494 3693 
z
M 3174 2413 
C 3174 3014 2611 3392 1856 3392 
C 1107 3392 544 3014 544 2413 
C 544 1824 1114 1434 1856 1434 
C 2611 1434 3174 1824 3174 2413 
z
M 2714 2413 
C 2714 2048 2310 1824 1856 1824 
C 1408 1824 1005 2048 1005 2413 
C 1005 2784 1408 3008 1856 3008 
C 2310 3008 2714 2784 2714 2413 
z
" transform="scale(0.015625)"/>
      <path id="AppleSDGothicNeo-Regular-d654" d="M 3731 1062 
C 3360 1005 2765 954 2144 915 
L 2144 1446 
C 2803 1510 3232 1856 3232 2368 
C 3232 2957 2701 3315 1907 3315 
C 1120 3315 582 2950 582 2368 
C 582 1862 1005 1517 1651 1446 
L 1651 890 
C 1114 870 544 870 147 883 
L 237 461 
C 704 461 1293 461 1914 499 
C 2586 544 3328 614 3763 666 
L 3731 1062 
z
M 5453 2246 
L 5453 2662 
L 4557 2662 
L 4557 5146 
L 4064 5146 
L 4064 -448 
L 4557 -448 
L 4557 2246 
L 5453 2246 
z
M 2758 2368 
C 2758 2054 2419 1830 1907 1830 
C 1402 1830 1050 2054 1050 2368 
C 1050 2694 1402 2912 1907 2912 
C 2419 2912 2758 2694 2758 2368 
z
M 3590 3603 
L 3590 4006 
L 262 4006 
L 262 3603 
L 3590 3603 
z
M 2701 4461 
L 2701 4870 
L 1094 4870 
L 1094 4461 
L 2701 4461 
z
" transform="scale(0.015625)"/>
      <path id="AppleSDGothicNeo-Regular-d0d0" d="M 4538 -365 
L 4538 1562 
L 992 1562 
L 992 -365 
L 4538 -365 
z
M 5389 3354 
L 5389 3763 
L 4538 3763 
L 4538 5146 
L 4051 5146 
L 4051 1862 
L 4538 1862 
L 4538 3354 
L 5389 3354 
z
M 4051 38 
L 1478 38 
L 1478 1165 
L 4051 1165 
L 4051 38 
z
M 922 2458 
L 922 3283 
L 2963 3283 
L 2963 3680 
L 922 3680 
L 922 4422 
L 3008 4422 
L 3008 4826 
L 435 4826 
L 435 2054 
L 947 2054 
C 1882 2054 2835 2112 3456 2221 
L 3405 2611 
C 2714 2477 1677 2458 922 2458 
z
" transform="scale(0.015625)"/>
      <path id="AppleSDGothicNeo-Regular-c0c9" d="M 4960 1792 
L 4960 5146 
L 4474 5146 
L 4474 3706 
L 3763 3706 
L 3763 5043 
L 3290 5043 
L 3290 1837 
L 3763 1837 
L 3763 3296 
L 4474 3296 
L 4474 1792 
L 4960 1792 
z
M 4960 -448 
L 4960 1491 
L 1203 1491 
L 1203 1082 
L 4467 1082 
L 4467 -448 
L 4960 -448 
z
M 3040 2464 
C 2502 2694 1862 3277 1862 4134 
L 1862 4819 
L 1389 4819 
L 1389 4122 
C 1389 3283 787 2605 192 2285 
L 493 1914 
C 1011 2214 1498 2816 1638 3270 
C 1830 2835 2272 2330 2771 2093 
L 3040 2464 
z
" transform="scale(0.015625)"/>
     </defs>
     <use xlink:href="#AppleSDGothicNeo-Regular-b2e4"/>
     <use xlink:href="#AppleSDGothicNeo-Regular-c591" transform="translate(86.499985 0)"/>
     <use xlink:href="#AppleSDGothicNeo-Regular-d55c" transform="translate(172.999969 0)"/>
     <use xlink:href="#AppleSDGothicNeo-Regular-20" transform="translate(259.499954 0)"/>
     <use xlink:href="#AppleSDGothicNeo-Regular-bb38" transform="translate(285.799942 0)"/>
     <use xlink:href="#AppleSDGothicNeo-Regular-d654" transform="translate(372.299927 0)"/>
     <use xlink:href="#AppleSDGothicNeo-Regular-b97c" transform="translate(458.799911 0)"/>
     <use xlink:href="#AppleSDGothicNeo-Regular-20" transform="translate(545.299896 0)"/>
     <use xlink:href="#AppleSDGothicNeo-Regular-d0d0" transform="translate(571.599884 0)"/>
     <use xlink:href="#AppleSDGothicNeo-Regular-c0c9" transform="translate(658.099869 0)"/>
    </g>
   </g>
   <g id="text_7">
    <!-- 시각적 스토리텔링 -->
    <g style="fill: #333333" transform="translate(335.730188 236.574938) scale(0.12 -0.12)">
     <defs>
      <path id="AppleSDGothicNeo-Regular-ac01" d="M 5395 3322 
L 5395 3731 
L 4544 3731 
L 4544 5146 
L 4058 5146 
L 4058 1824 
L 4544 1824 
L 4544 3322 
L 5395 3322 
z
M 838 1530 
L 838 1126 
L 4058 1126 
L 4058 -486 
L 4544 -486 
L 4544 1530 
L 838 1530 
z
M 2989 4762 
L 448 4762 
L 448 4346 
L 2458 4346 
C 2304 3398 1344 2566 224 2317 
L 486 1907 
C 1907 2349 2880 3302 2989 4762 
z
" transform="scale(0.015625)"/>
      <path id="AppleSDGothicNeo-Regular-c801" d="M 390 4301 
L 1664 4301 
C 1664 4192 1664 4038 1658 3968 
C 1632 3174 922 2464 218 2195 
L 480 1805 
C 1082 2067 1754 2739 1907 3264 
C 2138 2758 2720 2202 3258 1984 
L 3526 2374 
C 2886 2586 2208 3206 2163 3968 
C 2157 4038 2157 4186 2157 4301 
L 3405 4301 
L 3405 4710 
L 390 4710 
L 390 4301 
z
M 1088 1517 
L 1088 1114 
L 4326 1114 
L 4326 -448 
L 4819 -448 
L 4819 1517 
L 1088 1517 
z
M 4813 1811 
L 4813 5146 
L 4326 5146 
L 4326 3654 
L 3206 3654 
L 3206 3251 
L 4326 3251 
L 4326 1811 
L 4813 1811 
z
" transform="scale(0.015625)"/>
      <path id="AppleSDGothicNeo-Regular-d1a0" d="M 4506 3027 
L 4506 3437 
L 1325 3437 
L 1325 4262 
L 4672 4262 
L 4672 4672 
L 838 4672 
L 838 1766 
L 2515 1766 
L 2515 672 
L 243 672 
L 243 262 
L 5293 262 
L 5293 672 
L 3002 672 
L 3002 1766 
L 4736 1766 
L 4736 2170 
L 1325 2170 
L 1325 3027 
L 4506 3027 
z
" transform="scale(0.015625)"/>
      <path id="AppleSDGothicNeo-Regular-b9ac" d="M 4352 5146 
L 4352 -448 
L 4838 -448 
L 4838 5146 
L 4352 5146 
z
M 3840 1478 
C 3162 1357 2054 1306 1165 1306 
L 1030 1306 
L 1030 2643 
L 3155 2643 
L 3155 4627 
L 518 4627 
L 518 4224 
L 2662 4224 
L 2662 3046 
L 544 3046 
L 544 890 
L 1114 890 
C 2342 890 3302 986 3885 1075 
L 3840 1478 
z
" transform="scale(0.015625)"/>
      <path id="AppleSDGothicNeo-Regular-d154" d="M 5165 -410 
L 5165 0 
L 1779 0 
L 1779 570 
L 4960 570 
L 4960 1882 
L 1274 1882 
L 1274 1478 
L 4467 1478 
L 4467 947 
L 1293 947 
L 1293 -410 
L 5165 -410 
z
M 3898 2214 
L 3898 5043 
L 3424 5043 
L 3424 3910 
L 2630 3910 
L 2630 3514 
L 3424 3514 
L 3424 2214 
L 3898 2214 
z
M 4960 2150 
L 4960 5146 
L 4474 5146 
L 4474 2150 
L 4960 2150 
z
M 986 2758 
L 986 3450 
L 2336 3450 
L 2336 3846 
L 986 3846 
L 986 4416 
L 2586 4416 
L 2586 4819 
L 506 4819 
L 506 2336 
L 864 2336 
C 1600 2336 2349 2381 2886 2490 
L 2822 2893 
C 2362 2790 1792 2758 1120 2758 
L 986 2758 
z
" transform="scale(0.015625)"/>
      <path id="AppleSDGothicNeo-Regular-b9c1" d="M 4813 1690 
L 4813 5146 
L 4326 5146 
L 4326 1690 
L 4813 1690 
z
M 4858 595 
C 4858 1242 4173 1645 2957 1645 
C 1741 1645 1050 1242 1050 595 
C 1050 -38 1741 -442 2957 -442 
C 4173 -442 4858 -38 4858 595 
z
M 2957 1261 
C 3840 1261 4358 1011 4358 595 
C 4358 186 3840 -58 2957 -58 
C 2074 -58 1555 186 1555 595 
C 1555 1011 2074 1261 2957 1261 
z
M 3629 2566 
C 3053 2451 1862 2419 986 2419 
L 986 3258 
L 3085 3258 
L 3085 4787 
L 493 4787 
L 493 4384 
L 2598 4384 
L 2598 3648 
L 499 3648 
L 499 2010 
L 1120 2010 
C 2112 2016 3110 2074 3686 2170 
L 3629 2566 
z
" transform="scale(0.015625)"/>
     </defs>
     <use xlink:href="#AppleSDGothicNeo-Regular-c2dc"/>
     <use xlink:href="#AppleSDGothicNeo-Regular-ac01" transform="translate(86.499985 0)"/>
     <use xlink:href="#AppleSDGothicNeo-Regular-c801" transform="translate(172.999969 0)"/>
     <use xlink:href="#AppleSDGothicNeo-Regular-20" transform="translate(259.499954 0)"/>
     <use xlink:href="#AppleSDGothicNeo-Regular-c2a4" transform="translate(285.799942 0)"/>
     <use xlink:href="#AppleSDGothicNeo-Regular-d1a0" transform="translate(372.299927 0)"/>
     <use xlink:href="#AppleSDGothicNeo-Regular-b9ac" transform="translate(458.799911 0)"/>
     <use xlink:href="#AppleSDGothicNeo-Regular-d154" transform="translate(545.299896 0)"/>
     <use xlink:href="#AppleSDGothicNeo-Regular-b9c1" transform="translate(631.799881 0)"/>
    </g>
   </g>
   <g id="text_8">
    <!-- 텍스트를 이미지로 변환 -->
    <g style="fill: #555555" transform="translate(337.536281 280.825875) scale(0.09 -0.09)">
     <defs>
      <path id="AppleSDGothicNeo-Regular-bbf8" d="M 4800 -448 
L 4800 5146 
L 4314 5146 
L 4314 -448 
L 4800 -448 
z
M 3194 992 
L 3194 4570 
L 550 4570 
L 550 992 
L 3194 992 
z
M 2707 1395 
L 1043 1395 
L 1043 4166 
L 2707 4166 
L 2707 1395 
z
" transform="scale(0.015625)"/>
      <path id="AppleSDGothicNeo-Regular-c9c0" d="M 3699 1248 
C 2931 1664 2221 2566 2221 3610 
L 2221 4179 
L 3526 4179 
L 3526 4582 
L 410 4582 
L 410 4179 
L 1715 4179 
L 1715 3603 
C 1715 2547 1043 1594 224 1114 
L 525 755 
C 1171 1171 1786 1888 1971 2586 
C 2163 1926 2874 1222 3398 883 
L 3699 1248 
z
M 4346 5146 
L 4346 -448 
L 4832 -448 
L 4832 5146 
L 4346 5146 
z
" transform="scale(0.015625)"/>
      <path id="AppleSDGothicNeo-Regular-b85c" d="M 5293 262 
L 5293 672 
L 3002 672 
L 3002 1626 
L 4826 1626 
L 4826 2035 
L 1350 2035 
L 1350 2970 
L 4666 2970 
L 4666 4678 
L 858 4678 
L 858 4269 
L 4179 4269 
L 4179 3373 
L 864 3373 
L 864 1626 
L 2515 1626 
L 2515 672 
L 243 672 
L 243 262 
L 5293 262 
z
" transform="scale(0.015625)"/>
      <path id="AppleSDGothicNeo-Regular-bcc0" d="M 4813 5146 
L 4326 5146 
L 4326 4211 
L 3258 4211 
L 3258 3802 
L 4326 3802 
L 4326 2970 
L 3258 2970 
L 3258 2566 
L 4326 2566 
L 4326 1018 
L 4813 1018 
L 4813 5146 
z
M 4954 -262 
L 4954 147 
L 1696 147 
L 1696 1434 
L 1210 1434 
L 1210 -262 
L 4954 -262 
z
M 2950 1946 
L 2950 4774 
L 2458 4774 
L 2458 3750 
L 979 3750 
L 979 4774 
L 493 4774 
L 493 1946 
L 2950 1946 
z
M 2458 2349 
L 979 2349 
L 979 3347 
L 2458 3347 
L 2458 2349 
z
" transform="scale(0.015625)"/>
      <path id="AppleSDGothicNeo-Regular-d658" d="M 3757 1466 
L 3731 1843 
C 3398 1792 2784 1741 2195 1702 
L 2195 2067 
C 2810 2118 3290 2368 3290 2861 
C 3290 3411 2688 3674 1965 3674 
C 1254 3674 653 3405 653 2854 
C 653 2374 1107 2125 1702 2067 
L 1702 1677 
C 1139 1658 576 1658 166 1658 
L 250 1248 
C 640 1248 1338 1267 1965 1306 
C 2630 1350 3354 1414 3757 1466 
z
M 5434 2733 
L 5434 3142 
L 4557 3142 
L 4557 5158 
L 4064 5158 
L 4064 794 
L 4557 794 
L 4557 2733 
L 5434 2733 
z
M 4698 -352 
L 4698 51 
L 1498 51 
L 1498 1037 
L 1011 1037 
L 1011 -352 
L 4698 -352 
z
M 3571 3859 
L 3571 4256 
L 320 4256 
L 320 3859 
L 3571 3859 
z
M 2835 2861 
C 2835 2579 2458 2438 1965 2438 
C 1478 2438 1114 2573 1114 2861 
C 1114 3149 1478 3283 1965 3283 
C 2458 3283 2835 3149 2835 2861 
z
M 2752 4595 
L 2752 5005 
L 1210 5005 
L 1210 4595 
L 2752 4595 
z
" transform="scale(0.015625)"/>
     </defs>
     <use xlink:href="#AppleSDGothicNeo-Regular-d14d"/>
     <use xlink:href="#AppleSDGothicNeo-Regular-c2a4" transform="translate(86.499985 0)"/>
     <use xlink:href="#AppleSDGothicNeo-Regular-d2b8" transform="translate(172.999969 0)"/>
     <use xlink:href="#AppleSDGothicNeo-Regular-b97c" transform="translate(259.499954 0)"/>
     <use xlink:href="#AppleSDGothicNeo-Regular-20" transform="translate(345.999939 0)"/>
     <use xlink:href="#AppleSDGothicNeo-Regular-c774" transform="translate(372.299927 0)"/>
     <use xlink:href="#AppleSDGothicNeo-Regular-bbf8" transform="translate(458.799911 0)"/>
     <use xlink:href="#AppleSDGothicNeo-Regular-c9c0" transform="translate(545.299896 0)"/>
     <use xlink:href="#AppleSDGothicNeo-Regular-b85c" transform="translate(631.799881 0)"/>
     <use xlink:href="#AppleSDGothicNeo-Regular-20" transform="translate(718.299866 0)"/>
     <use xlink:href="#AppleSDGothicNeo-Regular-bcc0" transform="translate(744.599854 0)"/>
     <use xlink:href="#AppleSDGothicNeo-Regular-d658" transform="translate(831.099838 0)"/>
    </g>
    <!-- 새로운 표현 방식 탐구 -->
    <g style="fill: #555555" transform="translate(340.245422 290.075063) scale(0.09 -0.09)">
     <defs>
      <path id="AppleSDGothicNeo-Regular-c0c8" d="M 4960 -448 
L 4960 5146 
L 4480 5146 
L 4480 2867 
L 3770 2867 
L 3770 5011 
L 3296 5011 
L 3296 -166 
L 3770 -166 
L 3770 2464 
L 4480 2464 
L 4480 -448 
L 4960 -448 
z
M 3072 1318 
C 2464 1722 1869 2534 1869 3622 
L 1869 4621 
L 1389 4621 
L 1389 3610 
C 1389 2515 762 1536 128 1133 
L 448 781 
C 1005 1184 1498 1926 1626 2566 
C 1798 1933 2330 1286 2758 973 
L 3072 1318 
z
" transform="scale(0.015625)"/>
      <path id="AppleSDGothicNeo-Regular-c6b4" d="M 4717 3878 
C 4717 4582 3987 4973 2771 4973 
C 1555 4973 826 4582 826 3878 
C 826 3168 1549 2771 2765 2771 
C 3987 2771 4717 3168 4717 3878 
z
M 2771 4570 
C 3661 4570 4237 4339 4237 3872 
C 4237 3418 3654 3181 2765 3181 
C 1882 3181 1312 3418 1312 3872 
C 1312 4339 1888 4570 2771 4570 
z
M 3034 762 
L 3034 1894 
L 5293 1894 
L 5293 2298 
L 243 2298 
L 243 1894 
L 2547 1894 
L 2547 762 
L 3034 762 
z
M 4723 -288 
L 4723 122 
L 1395 122 
L 1395 1344 
L 909 1344 
L 909 -288 
L 4723 -288 
z
" transform="scale(0.015625)"/>
      <path id="AppleSDGothicNeo-Regular-d45c" d="M 5293 262 
L 5293 672 
L 3910 672 
L 3910 1862 
L 3424 1862 
L 3424 672 
L 2099 672 
L 2099 1862 
L 1613 1862 
L 1613 672 
L 243 672 
L 243 262 
L 5293 262 
z
M 4774 2150 
L 4774 2560 
L 3904 2560 
L 4096 3885 
L 3616 3962 
L 3450 2560 
L 2074 2560 
L 1971 3968 
L 1466 3917 
L 1613 2560 
L 736 2560 
L 736 2150 
L 4774 2150 
z
M 4781 4243 
L 4781 4653 
L 730 4653 
L 730 4243 
L 4781 4243 
z
" transform="scale(0.015625)"/>
      <path id="AppleSDGothicNeo-Regular-d604" d="M 4934 -262 
L 4934 141 
L 1664 141 
L 1664 1210 
L 1178 1210 
L 1178 -262 
L 4934 -262 
z
M 3392 3110 
L 4326 3110 
L 4326 2394 
L 3392 2394 
L 3392 1997 
L 4326 1997 
L 4326 947 
L 4813 947 
L 4813 5146 
L 4326 5146 
L 4326 3507 
L 3392 3507 
L 3392 3110 
z
M 2669 4518 
L 2669 4954 
L 1056 4954 
L 1056 4518 
L 2669 4518 
z
M 3450 3686 
L 3450 4083 
L 262 4083 
L 262 3686 
L 3450 3686 
z
M 3213 2445 
C 3213 3040 2643 3411 1882 3411 
C 1126 3411 550 3040 550 2445 
C 550 1862 1133 1472 1882 1472 
C 2643 1472 3213 1862 3213 2445 
z
M 2739 2445 
C 2739 2093 2355 1869 1882 1869 
C 1408 1869 1030 2093 1030 2445 
C 1030 2797 1408 3021 1882 3021 
C 2355 3021 2739 2797 2739 2445 
z
" transform="scale(0.015625)"/>
      <path id="AppleSDGothicNeo-Regular-bc29" d="M 5395 3270 
L 5395 3674 
L 4544 3674 
L 4544 5146 
L 4058 5146 
L 4058 1805 
L 4544 1805 
L 4544 3270 
L 5395 3270 
z
M 4602 627 
C 4602 1267 3968 1690 2765 1690 
C 1587 1690 947 1267 947 627 
C 947 -19 1587 -435 2765 -435 
C 3942 -435 4602 -19 4602 627 
z
M 2765 1293 
C 3622 1293 4102 1037 4102 627 
C 4102 218 3622 -38 2765 -38 
C 1946 -38 1453 218 1453 627 
C 1453 1030 1933 1293 2765 1293 
z
M 3053 2182 
L 3053 4845 
L 2560 4845 
L 2560 3923 
L 915 3923 
L 915 4845 
L 429 4845 
L 429 2182 
L 3053 2182 
z
M 2560 2586 
L 915 2586 
L 915 3520 
L 2560 3520 
L 2560 2586 
z
" transform="scale(0.015625)"/>
      <path id="AppleSDGothicNeo-Regular-c2dd" d="M 4813 1811 
L 4813 5146 
L 4326 5146 
L 4326 1811 
L 4813 1811 
z
M 3622 2528 
C 2950 2758 2163 3443 2163 4339 
L 2163 4915 
L 1670 4915 
L 1670 4320 
C 1670 3430 992 2669 198 2342 
L 499 1952 
C 1203 2310 1760 2886 1933 3469 
C 2157 2893 2778 2387 3334 2144 
L 3622 2528 
z
M 4813 -448 
L 4813 1504 
L 1082 1504 
L 1082 1101 
L 4326 1101 
L 4326 -448 
L 4813 -448 
z
" transform="scale(0.015625)"/>
      <path id="AppleSDGothicNeo-Regular-ad6c" d="M 4634 4730 
L 838 4730 
L 838 4326 
L 4128 4326 
C 4128 3776 4096 2854 3942 2253 
L 243 2253 
L 243 1843 
L 2522 1843 
L 2522 -448 
L 3008 -448 
L 3008 1843 
L 5293 1843 
L 5293 2253 
L 4429 2253 
C 4614 3117 4634 3968 4634 4730 
z
" transform="scale(0.015625)"/>
     </defs>
     <use xlink:href="#AppleSDGothicNeo-Regular-c0c8"/>
     <use xlink:href="#AppleSDGothicNeo-Regular-b85c" transform="translate(86.499985 0)"/>
     <use xlink:href="#AppleSDGothicNeo-Regular-c6b4" transform="translate(172.999969 0)"/>
     <use xlink:href="#AppleSDGothicNeo-Regular-20" transform="translate(259.499954 0)"/>
     <use xlink:href="#AppleSDGothicNeo-Regular-d45c" transform="translate(285.799942 0)"/>
     <use xlink:href="#AppleSDGothicNeo-Regular-d604" transform="translate(372.299927 0)"/>
     <use xlink:href="#AppleSDGothicNeo-Regular-20" transform="translate(458.799911 0)"/>
     <use xlink:href="#AppleSDGothicNeo-Regular-bc29" transform="translate(485.099899 0)"/>
     <use xlink:href="#AppleSDGothicNeo-Regular-c2dd" transform="translate(571.599884 0)"/>
     <use xlink:href="#AppleSDGothicNeo-Regular-20" transform="translate(658.099869 0)"/>
     <use xlink:href="#AppleSDGothicNeo-Regular-d0d0" transform="translate(684.399857 0)"/>
     <use xlink:href="#AppleSDGothicNeo-Regular-ad6c" transform="translate(770.899841 0)"/>
    </g>
   </g>
   <g id="text_9">
    <!-- AI가 바꾸는 인문학 4영역 -->
    <g transform="translate(188.349219 17.982188) scale(0.14 -0.14)">
     <defs>
      <path id="AppleSDGothicNeo-Regular-ac00" d="M 4544 5146 
L 4058 5146 
L 4058 -448 
L 4544 -448 
L 4544 2400 
L 5459 2400 
L 5459 2816 
L 4544 2816 
L 4544 5146 
z
M 3091 4544 
L 461 4544 
L 461 4134 
L 2566 4134 
C 2464 2874 1664 1696 269 1050 
L 570 666 
C 2010 1414 3059 2726 3091 4544 
z
" transform="scale(0.015625)"/>
      <path id="AppleSDGothicNeo-Regular-bc14" d="M 5453 2509 
L 5453 2925 
L 4544 2925 
L 4544 5146 
L 4058 5146 
L 4058 -448 
L 4544 -448 
L 4544 2509 
L 5453 2509 
z
M 3059 941 
L 3059 4672 
L 2566 4672 
L 2566 3251 
L 915 3251 
L 915 4672 
L 429 4672 
L 429 941 
L 3059 941 
z
M 2566 1350 
L 915 1350 
L 915 2848 
L 2566 2848 
L 2566 1350 
z
" transform="scale(0.015625)"/>
      <path id="AppleSDGothicNeo-Regular-afb8" d="M 4710 4768 
L 2880 4768 
L 2880 4365 
L 4211 4365 
C 4218 3757 4115 2931 3987 2432 
L 2176 2432 
C 2342 3110 2458 3930 2458 4768 
L 646 4768 
L 646 4365 
L 1952 4365 
C 1952 3712 1824 2925 1690 2432 
L 243 2432 
L 243 2022 
L 2522 2022 
L 2522 -454 
L 3008 -454 
L 3008 2022 
L 5293 2022 
L 5293 2432 
L 4474 2432 
C 4627 3110 4710 3930 4710 4768 
z
" transform="scale(0.015625)"/>
      <path id="AppleSDGothicNeo-Regular-b294" d="M 5293 1850 
L 5293 2259 
L 243 2259 
L 243 1850 
L 5293 1850 
z
M 4755 -326 
L 4755 77 
L 1389 77 
L 1389 1325 
L 902 1325 
L 902 -326 
L 4755 -326 
z
M 4730 2957 
L 4730 3360 
L 1408 3360 
L 1408 4909 
L 922 4909 
L 922 2957 
L 4730 2957 
z
" transform="scale(0.015625)"/>
      <path id="AppleSDGothicNeo-Regular-c778" d="M 4813 1062 
L 4813 5146 
L 4326 5146 
L 4326 1062 
L 4813 1062 
z
M 4954 -262 
L 4954 141 
L 1651 141 
L 1651 1466 
L 1165 1466 
L 1165 -262 
L 4954 -262 
z
M 1869 4774 
C 1024 4774 365 4205 365 3373 
C 365 2541 1024 1990 1875 1990 
C 2726 1990 3379 2547 3379 3379 
C 3379 4211 2720 4774 1869 4774 
z
M 1869 4352 
C 2490 4352 2918 3949 2918 3373 
C 2918 2816 2490 2419 1875 2419 
C 1286 2419 832 2816 832 3379 
C 832 3949 1280 4352 1869 4352 
z
" transform="scale(0.015625)"/>
      <path id="AppleSDGothicNeo-Regular-34" d="M 2214 166 
L 2682 166 
L 2682 1171 
L 3398 1171 
L 3398 1587 
L 2682 1587 
L 2682 4621 
L 2285 4621 
L 186 1555 
L 186 1171 
L 2214 1171 
L 2214 166 
z
M 730 1587 
L 2214 3814 
L 2214 1587 
L 730 1587 
z
" transform="scale(0.015625)"/>
      <path id="AppleSDGothicNeo-Regular-c601" d="M 4819 602 
C 4819 1267 4134 1670 2912 1670 
C 1696 1670 1011 1267 1011 602 
C 1011 -45 1696 -461 2912 -461 
C 4134 -461 4819 -45 4819 602 
z
M 3309 2598 
L 4326 2598 
L 4326 1683 
L 4813 1683 
L 4813 5146 
L 4326 5146 
L 4326 4403 
L 3309 4403 
L 3309 3987 
L 4326 3987 
L 4326 3014 
L 3309 3014 
L 3309 2598 
z
M 4320 602 
C 4320 192 3802 -45 2912 -45 
C 2042 -45 1517 192 1517 602 
C 1517 1018 2042 1261 2912 1261 
C 3802 1261 4320 1018 4320 602 
z
M 1728 4806 
C 941 4806 288 4269 288 3462 
C 288 2650 947 2138 1728 2138 
C 2515 2138 3162 2650 3162 3469 
C 3162 4282 2515 4806 1728 4806 
z
M 1728 4390 
C 2304 4390 2675 4019 2675 3462 
C 2675 2899 2298 2534 1728 2534 
C 1178 2534 774 2899 774 3469 
C 774 4026 1178 4390 1728 4390 
z
" transform="scale(0.015625)"/>
     </defs>
     <use xlink:href="#AppleSDGothicNeo-Regular-41"/>
     <use xlink:href="#AppleSDGothicNeo-Regular-49" transform="translate(60.499985 0)"/>
     <use xlink:href="#AppleSDGothicNeo-Regular-ac00" transform="translate(86.399979 0)"/>
     <use xlink:href="#AppleSDGothicNeo-Regular-20" transform="translate(172.899963 0)"/>
     <use xlink:href="#AppleSDGothicNeo-Regular-bc14" transform="translate(199.199951 0)"/>
     <use xlink:href="#AppleSDGothicNeo-Regular-afb8" transform="translate(285.699936 0)"/>
     <use xlink:href="#AppleSDGothicNeo-Regular-b294" transform="translate(372.199921 0)"/>
     <use xlink:href="#AppleSDGothicNeo-Regular-20" transform="translate(458.699905 0)"/>
     <use xlink:href="#AppleSDGothicNeo-Regular-c778" transform="translate(484.999893 0)"/>
     <use xlink:href="#AppleSDGothicNeo-Regular-bb38" transform="translate(571.499878 0)"/>
     <use xlink:href="#AppleSDGothicNeo-Regular-d559" transform="translate(657.999863 0)"/>
     <use xlink:href="#AppleSDGothicNeo-Regular-20" transform="translate(744.499847 0)"/>
     <use xlink:href="#AppleSDGothicNeo-Regular-34" transform="translate(770.799835 0)"/>
     <use xlink:href="#AppleSDGothicNeo-Regular-c601" transform="translate(826.29982 0)"/>
     <use xlink:href="#AppleSDGothicNeo-Regular-c5ed" transform="translate(912.799805 0)"/>
    </g>
   </g>
  </g>
 </g>
 <defs>
  <clipPath id="p7bfaaad923">
   <rect x="7.2" y="32.982188" width="502.2" height="332.64"/>
  </clipPath>
 </defs>
</svg>
