<?xml version="1.0" encoding="utf-8" standalone="no"?>
<!DOCTYPE svg PUBLIC "-//W3C//DTD SVG 1.1//EN"
  "http://www.w3.org/Graphics/SVG/1.1/DTD/svg11.dtd">
<svg xmlns:xlink="http://www.w3.org/1999/xlink" width="628.2pt" height="317.35375pt" viewBox="0 0 628.2 317.35375" xmlns="http://www.w3.org/2000/svg" version="1.1">
 <metadata>
  <rdf:RDF xmlns:dc="http://purl.org/dc/elements/1.1/" xmlns:cc="http://creativecommons.org/ns#" xmlns:rdf="http://www.w3.org/1999/02/22-rdf-syntax-ns#">
   <cc:Work>
    <dc:type rdf:resource="http://purl.org/dc/dcmitype/StillImage"/>
    <dc:date>2026-02-18T22:41:46.536801</dc:date>
    <dc:format>image/svg+xml</dc:format>
    <dc:creator>
     <cc:Agent>
      <dc:title>Matplotlib v3.10.8, https://matplotlib.org/</dc:title>
     </cc:Agent>
    </dc:creator>
   </cc:Work>
  </rdf:RDF>
 </metadata>
 <defs>
  <style type="text/css">*{stroke-linejoin: round; stroke-linecap: butt}</style>
 </defs>
 <g id="figure_1">
  <g id="patch_1">
   <path d="M 0 317.35375 
L 628.2 317.35375 
L 628.2 0 
L 0 0 
z
" style="fill: #ffffff"/>
  </g>
  <g id="axes_1">
   <g id="patch_2">
    <path d="M 49.89913 131.23375 
L 306.093913 131.23375 
Q 314.1 131.23375 314.1 123.67375 
L 314.1 48.07375 
Q 314.1 40.51375 306.093913 40.51375 
L 49.89913 40.51375 
Q 41.893043 40.51375 41.893043 48.07375 
L 41.893043 123.67375 
Q 41.893043 131.23375 49.89913 131.23375 
z
" clip-path="url(#p5a192fe714)" style="fill: #a8c8e8; stroke: #333333; stroke-width: 0.8; stroke-linejoin: miter"/>
   </g>
   <g id="patch_3">
    <path d="M 338.118261 131.23375 
L 604.987826 131.23375 
Q 612.993913 131.23375 612.993913 123.67375 
L 612.993913 48.07375 
Q 612.993913 40.51375 604.987826 40.51375 
L 338.118261 40.51375 
Q 330.112174 40.51375 330.112174 48.07375 
L 330.112174 123.67375 
Q 330.112174 131.23375 338.118261 131.23375 
z
" clip-path="url(#p5a192fe714)" style="fill: #a8d5ba; stroke: #333333; stroke-width: 0.8; stroke-linejoin: miter"/>
   </g>
   <g id="patch_4">
    <path d="M 167.321739 252.19375 
L 487.565217 252.19375 
Q 495.571304 252.19375 495.571304 244.63375 
L 495.571304 169.03375 
Q 495.571304 161.47375 487.565217 161.47375 
L 167.321739 161.47375 
Q 159.315652 161.47375 159.315652 169.03375 
L 159.315652 244.63375 
Q 159.315652 252.19375 167.321739 252.19375 
z
" clip-path="url(#p5a192fe714)" style="fill: #ffe0a3; stroke: #333333; stroke-width: 0.8; stroke-linejoin: miter"/>
   </g>
   <g id="text_1">
    <!-- Part I  AI와 인문학의 만남 -->
    <g style="fill: #333333" transform="translate(121.820037 76.915781) scale(0.11 -0.11)">
     <defs>
      <path id="AppleSDGothicNeo-Regular-50" d="M 550 269 
L 1062 269 
L 1062 1990 
L 1939 1990 
C 2758 1990 3309 2451 3309 3296 
C 3309 4102 2842 4563 1875 4563 
L 550 4563 
L 550 269 
z
M 1062 2413 
L 1062 4134 
L 1824 4134 
C 2522 4134 2765 3872 2765 3264 
C 2765 2688 2502 2413 1837 2413 
L 1062 2413 
z
" transform="scale(0.015625)"/>
      <path id="AppleSDGothicNeo-Regular-61" d="M 1242 211 
C 1670 211 1939 365 2086 544 
L 2118 544 
L 2170 269 
L 2566 269 
L 2566 2566 
C 2566 3213 2176 3501 1478 3501 
C 1114 3501 806 3443 531 3328 
L 531 2976 
C 730 3034 979 3078 1286 3078 
C 1856 3078 2074 2950 2074 2458 
L 2074 2125 
L 1216 2022 
C 608 1952 250 1658 250 1101 
C 250 506 666 211 1242 211 
z
M 1363 595 
C 998 595 762 768 762 1114 
C 762 1478 954 1638 1344 1677 
L 2074 1760 
L 2074 826 
C 1939 691 1658 595 1363 595 
z
" transform="scale(0.015625)"/>
      <path id="AppleSDGothicNeo-Regular-72" d="M 467 269 
L 960 269 
L 960 2765 
C 1184 2925 1491 3040 1811 3040 
C 1862 3040 1958 3034 2042 3021 
L 2042 3462 
C 2010 3469 1920 3475 1850 3475 
C 1491 3475 1146 3290 966 3085 
L 934 3085 
L 934 3443 
L 467 3443 
L 467 269 
z
" transform="scale(0.015625)"/>
      <path id="AppleSDGothicNeo-Regular-74" d="M 1472 230 
C 1747 230 1882 301 2010 358 
L 2010 691 
C 1882 653 1734 634 1600 634 
C 1235 634 1133 755 1133 1062 
L 1133 3034 
L 1946 3034 
L 1946 3437 
L 1133 3437 
L 1133 4192 
L 646 4192 
L 646 3437 
L 192 3437 
L 192 3034 
L 646 3034 
L 646 986 
C 646 448 973 230 1472 230 
z
" transform="scale(0.015625)"/>
      <path id="AppleSDGothicNeo-Regular-20" transform="scale(0.015625)"/>
      <path id="AppleSDGothicNeo-Regular-49" d="M 576 269 
L 1082 269 
L 1082 4563 
L 576 4563 
L 576 269 
z
" transform="scale(0.015625)"/>
      <path id="AppleSDGothicNeo-Regular-41" d="M 122 269 
L 608 269 
L 1050 1523 
L 2771 1523 
L 3226 269 
L 3757 269 
L 2189 4563 
L 1696 4563 
L 122 269 
z
M 1901 3885 
L 1914 3885 
L 2611 1952 
L 1197 1952 
L 1901 3885 
z
" transform="scale(0.015625)"/>
      <path id="AppleSDGothicNeo-Regular-c640" d="M 1914 4781 
C 1050 4781 397 4243 397 3430 
C 397 2688 934 2195 1677 2112 
L 1677 1178 
C 1107 1152 563 1152 147 1152 
L 237 723 
C 704 723 1254 742 1869 774 
C 2547 819 3315 877 3757 941 
L 3718 1331 
C 3360 1280 2790 1242 2163 1203 
L 2163 2112 
C 2899 2208 3437 2701 3437 3437 
C 3437 4250 2778 4781 1914 4781 
z
M 1914 4365 
C 2547 4365 2957 4000 2957 3424 
C 2957 2867 2541 2509 1914 2509 
C 1312 2509 870 2867 870 3430 
C 870 4000 1306 4365 1914 4365 
z
M 5453 2394 
L 5453 2803 
L 4557 2803 
L 4557 5146 
L 4064 5146 
L 4064 -448 
L 4557 -448 
L 4557 2394 
L 5453 2394 
z
" transform="scale(0.015625)"/>
      <path id="AppleSDGothicNeo-Regular-c778" d="M 4813 1062 
L 4813 5146 
L 4326 5146 
L 4326 1062 
L 4813 1062 
z
M 4954 -262 
L 4954 141 
L 1651 141 
L 1651 1466 
L 1165 1466 
L 1165 -262 
L 4954 -262 
z
M 1869 4774 
C 1024 4774 365 4205 365 3373 
C 365 2541 1024 1990 1875 1990 
C 2726 1990 3379 2547 3379 3379 
C 3379 4211 2720 4774 1869 4774 
z
M 1869 4352 
C 2490 4352 2918 3949 2918 3373 
C 2918 2816 2490 2419 1875 2419 
C 1286 2419 832 2816 832 3379 
C 832 3949 1280 4352 1869 4352 
z
" transform="scale(0.015625)"/>
      <path id="AppleSDGothicNeo-Regular-bb38" d="M 4659 2867 
L 4659 4838 
L 877 4838 
L 877 2867 
L 4659 2867 
z
M 4173 3270 
L 1363 3270 
L 1363 4435 
L 4173 4435 
L 4173 3270 
z
M 3021 736 
L 3021 1837 
L 5293 1837 
L 5293 2240 
L 243 2240 
L 243 1837 
L 2534 1837 
L 2534 736 
L 3021 736 
z
M 4723 -269 
L 4723 134 
L 1357 134 
L 1357 1312 
L 870 1312 
L 870 -269 
L 4723 -269 
z
" transform="scale(0.015625)"/>
      <path id="AppleSDGothicNeo-Regular-d559" d="M 5395 3098 
L 5395 3507 
L 4544 3507 
L 4544 5146 
L 4058 5146 
L 4058 1677 
L 4544 1677 
L 4544 3098 
L 5395 3098 
z
M 2630 4608 
L 2630 5024 
L 1018 5024 
L 1018 4608 
L 2630 4608 
z
M 3424 3814 
L 3424 4218 
L 218 4218 
L 218 3814 
L 3424 3814 
z
M 3085 2624 
C 3085 3194 2541 3552 1811 3552 
C 1075 3552 538 3194 538 2624 
C 538 2061 1082 1696 1811 1696 
C 2541 1696 3085 2067 3085 2624 
z
M 2598 2624 
C 2598 2291 2240 2086 1811 2086 
C 1395 2086 1018 2291 1018 2624 
C 1018 2957 1389 3162 1811 3162 
C 2240 3162 2598 2957 2598 2624 
z
M 922 1370 
L 922 966 
L 4058 966 
L 4058 -448 
L 4544 -448 
L 4544 1370 
L 922 1370 
z
" transform="scale(0.015625)"/>
      <path id="AppleSDGothicNeo-Regular-c758" d="M 4352 5146 
L 4352 -448 
L 4838 -448 
L 4838 5146 
L 4352 5146 
z
M 3469 3379 
C 3469 4198 2842 4710 2016 4710 
C 1203 4710 557 4166 557 3379 
C 557 2630 1190 2080 2016 2080 
C 2822 2080 3469 2586 3469 3379 
z
M 2995 3379 
C 2995 2854 2547 2490 2016 2490 
C 1472 2490 1030 2861 1030 3379 
C 1030 3904 1478 4294 2016 4294 
C 2560 4294 2995 3942 2995 3379 
z
M 4026 973 
L 3981 1370 
C 3571 1318 2848 1274 2067 1248 
C 1389 1210 730 1197 250 1203 
L 339 774 
C 762 781 1376 800 2035 832 
C 2746 864 3546 915 4026 973 
z
" transform="scale(0.015625)"/>
      <path id="AppleSDGothicNeo-Regular-b9cc" d="M 3085 2061 
L 3085 4653 
L 435 4653 
L 435 2061 
L 3085 2061 
z
M 2598 2464 
L 922 2464 
L 922 4250 
L 2598 4250 
L 2598 2464 
z
M 5395 3066 
L 5395 3475 
L 4544 3475 
L 4544 5146 
L 4058 5146 
L 4058 1082 
L 4544 1082 
L 4544 3066 
L 5395 3066 
z
M 4762 -256 
L 4762 147 
L 1530 147 
L 1530 1466 
L 1043 1466 
L 1043 -256 
L 4762 -256 
z
" transform="scale(0.015625)"/>
      <path id="AppleSDGothicNeo-Regular-b0a8" d="M 5389 3462 
L 5389 3872 
L 4538 3872 
L 4538 5146 
L 4051 5146 
L 4051 2022 
L 4538 2022 
L 4538 3462 
L 5389 3462 
z
M 4538 -326 
L 4538 1677 
L 998 1677 
L 998 -326 
L 4538 -326 
z
M 4051 77 
L 1485 77 
L 1485 1274 
L 4051 1274 
L 4051 77 
z
M 3558 3027 
C 2906 2880 1837 2765 902 2784 
L 902 4819 
L 416 4819 
L 416 2368 
L 909 2368 
C 1798 2368 2957 2483 3603 2624 
L 3558 3027 
z
" transform="scale(0.015625)"/>
     </defs>
     <use xlink:href="#AppleSDGothicNeo-Regular-50"/>
     <use xlink:href="#AppleSDGothicNeo-Regular-61" transform="translate(55.299988 0)"/>
     <use xlink:href="#AppleSDGothicNeo-Regular-72" transform="translate(102.499985 0)"/>
     <use xlink:href="#AppleSDGothicNeo-Regular-74" transform="translate(137.099976 0)"/>
     <use xlink:href="#AppleSDGothicNeo-Regular-20" transform="translate(172.09996 0)"/>
     <use xlink:href="#AppleSDGothicNeo-Regular-49" transform="translate(198.399948 0)"/>
     <use xlink:href="#AppleSDGothicNeo-Regular-20" transform="translate(224.299942 0)"/>
     <use xlink:href="#AppleSDGothicNeo-Regular-20" transform="translate(250.59993 0)"/>
     <use xlink:href="#AppleSDGothicNeo-Regular-41" transform="translate(276.899918 0)"/>
     <use xlink:href="#AppleSDGothicNeo-Regular-49" transform="translate(337.399902 0)"/>
     <use xlink:href="#AppleSDGothicNeo-Regular-c640" transform="translate(363.299896 0)"/>
     <use xlink:href="#AppleSDGothicNeo-Regular-20" transform="translate(449.799881 0)"/>
     <use xlink:href="#AppleSDGothicNeo-Regular-c778" transform="translate(476.099869 0)"/>
     <use xlink:href="#AppleSDGothicNeo-Regular-bb38" transform="translate(562.599854 0)"/>
     <use xlink:href="#AppleSDGothicNeo-Regular-d559" transform="translate(649.099838 0)"/>
     <use xlink:href="#AppleSDGothicNeo-Regular-c758" transform="translate(735.599823 0)"/>
     <use xlink:href="#AppleSDGothicNeo-Regular-20" transform="translate(822.099808 0)"/>
     <use xlink:href="#AppleSDGothicNeo-Regular-b9cc" transform="translate(848.399796 0)"/>
     <use xlink:href="#AppleSDGothicNeo-Regular-b0a8" transform="translate(934.89978 0)"/>
    </g>
   </g>
   <g id="text_2">
    <!-- 1장 AI와 인문학  |  2장 생성형 AI -->
    <g style="fill: #555555" transform="translate(120.446444 106.493594) scale(0.09 -0.09)">
     <defs>
      <path id="AppleSDGothicNeo-Regular-31" d="M 1146 243 
L 1632 243 
L 1632 4634 
L 1363 4634 
L 352 4160 
L 352 3866 
L 1146 4051 
L 1146 243 
z
" transform="scale(0.015625)"/>
      <path id="AppleSDGothicNeo-Regular-c7a5" d="M 4621 621 
C 4621 1293 3910 1696 2739 1696 
C 1568 1696 864 1293 864 621 
C 864 -38 1568 -442 2739 -442 
C 3910 -442 4621 -38 4621 621 
z
M 275 4333 
L 1562 4333 
C 1562 4192 1555 4083 1555 4032 
C 1530 3290 819 2586 115 2317 
L 397 1939 
C 998 2195 1651 2797 1805 3322 
C 2035 2816 2605 2310 3142 2093 
L 3411 2483 
C 2771 2694 2106 3309 2061 4026 
C 2054 4083 2054 4192 2054 4333 
L 3328 4333 
L 3328 4742 
L 275 4742 
L 275 4333 
z
M 4122 621 
C 4122 205 3584 -38 2739 -38 
C 1894 -38 1370 205 1370 621 
C 1370 1056 1894 1286 2739 1286 
C 3584 1286 4122 1056 4122 621 
z
M 5408 3187 
L 5408 3597 
L 4544 3597 
L 4544 5146 
L 4058 5146 
L 4058 1709 
L 4544 1709 
L 4544 3187 
L 5408 3187 
z
" transform="scale(0.015625)"/>
      <path id="AppleSDGothicNeo-Regular-7c" d="M 691 -384 
L 1114 -384 
L 1114 4941 
L 691 4941 
L 691 -384 
z
" transform="scale(0.015625)"/>
      <path id="AppleSDGothicNeo-Regular-32" d="M 397 269 
L 3066 269 
L 3066 704 
L 1107 704 
L 1779 1382 
C 2522 2138 2970 2650 2970 3392 
C 2970 4160 2502 4640 1638 4640 
C 1152 4640 717 4422 448 4250 
L 595 3846 
C 845 4019 1190 4198 1555 4198 
C 2163 4198 2438 3917 2438 3347 
C 2438 2733 2029 2266 1421 1632 
L 397 570 
L 397 269 
z
" transform="scale(0.015625)"/>
      <path id="AppleSDGothicNeo-Regular-c0dd" d="M 5011 595 
C 5011 1229 4301 1626 3104 1626 
C 1907 1626 1203 1229 1203 595 
C 1203 -38 1907 -435 3104 -435 
C 4301 -435 5011 -38 5011 595 
z
M 4960 1613 
L 4960 5146 
L 4474 5146 
L 4474 3667 
L 3776 3667 
L 3776 5043 
L 3302 5043 
L 3302 1888 
L 3776 1888 
L 3776 3258 
L 4474 3258 
L 4474 1613 
L 4960 1613 
z
M 3104 1216 
C 3962 1216 4493 973 4493 595 
C 4493 211 3962 -32 3104 -32 
C 2253 -32 1715 211 1715 595 
C 1715 973 2253 1216 3104 1216 
z
M 3072 2477 
C 2541 2707 1862 3277 1862 4134 
L 1862 4819 
L 1389 4819 
L 1389 4122 
C 1389 3283 787 2605 192 2285 
L 493 1914 
C 1011 2214 1498 2816 1638 3270 
C 1830 2835 2310 2342 2810 2106 
L 3072 2477 
z
" transform="scale(0.015625)"/>
      <path id="AppleSDGothicNeo-Regular-c131" d="M 4326 3456 
L 4326 1670 
L 4813 1670 
L 4813 5146 
L 4326 5146 
L 4326 3859 
L 3123 3859 
L 3123 3456 
L 4326 3456 
z
M 4870 614 
C 4870 1267 4198 1670 2995 1670 
C 1798 1670 1126 1267 1126 614 
C 1126 -38 1798 -442 2995 -442 
C 4198 -442 4870 -38 4870 614 
z
M 2995 1274 
C 3866 1274 4378 1030 4378 614 
C 4378 192 3866 -45 2995 -45 
C 2138 -45 1619 192 1619 614 
C 1619 1030 2138 1274 2995 1274 
z
M 3424 2483 
C 2790 2714 2054 3386 2054 4282 
L 2054 4826 
L 1562 4826 
L 1562 4269 
C 1562 3379 979 2662 173 2291 
L 474 1914 
C 1120 2240 1651 2829 1824 3405 
C 2042 2848 2598 2362 3136 2106 
L 3424 2483 
z
" transform="scale(0.015625)"/>
      <path id="AppleSDGothicNeo-Regular-d615" d="M 4838 525 
C 4838 1120 4192 1491 2976 1491 
C 1760 1491 1133 1126 1133 525 
C 1133 -70 1760 -435 2976 -435 
C 4192 -435 4838 -70 4838 525 
z
M 2976 1094 
C 3827 1094 4333 883 4333 525 
C 4333 160 3827 -38 2976 -38 
C 2131 -38 1638 166 1638 525 
C 1638 877 2131 1094 2976 1094 
z
M 4813 1491 
L 4813 5146 
L 4326 5146 
L 4326 3686 
L 3341 3686 
L 3341 3290 
L 4326 3290 
L 4326 2650 
L 3341 2650 
L 3341 2246 
L 4326 2246 
L 4326 1491 
L 4813 1491 
z
M 2643 4621 
L 2643 5037 
L 1043 5037 
L 1043 4621 
L 2643 4621 
z
M 3386 3827 
L 3386 4218 
L 262 4218 
L 262 3827 
L 3386 3827 
z
M 3155 2611 
C 3155 3187 2605 3539 1862 3539 
C 1133 3539 582 3187 582 2611 
C 582 2042 1139 1683 1862 1683 
C 2605 1683 3155 2048 3155 2611 
z
M 2669 2611 
C 2669 2266 2304 2074 1862 2074 
C 1440 2074 1062 2266 1062 2611 
C 1062 2957 1434 3149 1862 3149 
C 2304 3149 2669 2957 2669 2611 
z
" transform="scale(0.015625)"/>
     </defs>
     <use xlink:href="#AppleSDGothicNeo-Regular-31"/>
     <use xlink:href="#AppleSDGothicNeo-Regular-c7a5" transform="translate(35.699997 0)"/>
     <use xlink:href="#AppleSDGothicNeo-Regular-20" transform="translate(122.199982 0)"/>
     <use xlink:href="#AppleSDGothicNeo-Regular-41" transform="translate(148.499969 0)"/>
     <use xlink:href="#AppleSDGothicNeo-Regular-49" transform="translate(208.999954 0)"/>
     <use xlink:href="#AppleSDGothicNeo-Regular-c640" transform="translate(234.899948 0)"/>
     <use xlink:href="#AppleSDGothicNeo-Regular-20" transform="translate(321.399933 0)"/>
     <use xlink:href="#AppleSDGothicNeo-Regular-c778" transform="translate(347.699921 0)"/>
     <use xlink:href="#AppleSDGothicNeo-Regular-bb38" transform="translate(434.199905 0)"/>
     <use xlink:href="#AppleSDGothicNeo-Regular-d559" transform="translate(520.69989 0)"/>
     <use xlink:href="#AppleSDGothicNeo-Regular-20" transform="translate(607.199875 0)"/>
     <use xlink:href="#AppleSDGothicNeo-Regular-20" transform="translate(633.499863 0)"/>
     <use xlink:href="#AppleSDGothicNeo-Regular-7c" transform="translate(659.79985 0)"/>
     <use xlink:href="#AppleSDGothicNeo-Regular-20" transform="translate(687.999847 0)"/>
     <use xlink:href="#AppleSDGothicNeo-Regular-20" transform="translate(714.299835 0)"/>
     <use xlink:href="#AppleSDGothicNeo-Regular-32" transform="translate(740.599823 0)"/>
     <use xlink:href="#AppleSDGothicNeo-Regular-c7a5" transform="translate(793.899811 0)"/>
     <use xlink:href="#AppleSDGothicNeo-Regular-20" transform="translate(880.399796 0)"/>
     <use xlink:href="#AppleSDGothicNeo-Regular-c0dd" transform="translate(906.699783 0)"/>
     <use xlink:href="#AppleSDGothicNeo-Regular-c131" transform="translate(993.199768 0)"/>
     <use xlink:href="#AppleSDGothicNeo-Regular-d615" transform="translate(1079.699753 0)"/>
     <use xlink:href="#AppleSDGothicNeo-Regular-20" transform="translate(1166.199738 0)"/>
     <use xlink:href="#AppleSDGothicNeo-Regular-41" transform="translate(1192.499725 0)"/>
     <use xlink:href="#AppleSDGothicNeo-Regular-49" transform="translate(1252.99971 0)"/>
    </g>
   </g>
   <g id="text_3">
    <!-- Part II  AI와 대화하기 -->
    <g style="fill: #333333" transform="translate(424.913043 76.915781) scale(0.11 -0.11)">
     <defs>
      <path id="AppleSDGothicNeo-Regular-b300" d="M 4960 -448 
L 4960 5146 
L 4480 5146 
L 4480 2944 
L 3731 2944 
L 3731 5011 
L 3258 5011 
L 3258 -160 
L 3731 -160 
L 3731 2534 
L 4480 2534 
L 4480 -448 
L 4960 -448 
z
M 902 1414 
L 902 4051 
L 2586 4051 
L 2586 4461 
L 416 4461 
L 416 992 
L 787 992 
C 1517 992 2458 1056 2989 1158 
L 2944 1555 
C 2470 1453 1632 1414 1069 1414 
L 902 1414 
z
" transform="scale(0.015625)"/>
      <path id="AppleSDGothicNeo-Regular-d654" d="M 3731 1062 
C 3360 1005 2765 954 2144 915 
L 2144 1446 
C 2803 1510 3232 1856 3232 2368 
C 3232 2957 2701 3315 1907 3315 
C 1120 3315 582 2950 582 2368 
C 582 1862 1005 1517 1651 1446 
L 1651 890 
C 1114 870 544 870 147 883 
L 237 461 
C 704 461 1293 461 1914 499 
C 2586 544 3328 614 3763 666 
L 3731 1062 
z
M 5453 2246 
L 5453 2662 
L 4557 2662 
L 4557 5146 
L 4064 5146 
L 4064 -448 
L 4557 -448 
L 4557 2246 
L 5453 2246 
z
M 2758 2368 
C 2758 2054 2419 1830 1907 1830 
C 1402 1830 1050 2054 1050 2368 
C 1050 2694 1402 2912 1907 2912 
C 2419 2912 2758 2694 2758 2368 
z
M 3590 3603 
L 3590 4006 
L 262 4006 
L 262 3603 
L 3590 3603 
z
M 2701 4461 
L 2701 4870 
L 1094 4870 
L 1094 4461 
L 2701 4461 
z
" transform="scale(0.015625)"/>
      <path id="AppleSDGothicNeo-Regular-d558" d="M 5453 2374 
L 5453 2784 
L 4544 2784 
L 4544 5146 
L 4058 5146 
L 4058 -448 
L 4544 -448 
L 4544 2374 
L 5453 2374 
z
M 2694 4346 
L 2694 4762 
L 1050 4762 
L 1050 4346 
L 2694 4346 
z
M 3520 3398 
L 3520 3802 
L 218 3802 
L 218 3398 
L 3520 3398 
z
M 3187 1882 
C 3187 2541 2662 3040 1882 3040 
C 1101 3040 576 2534 576 1882 
C 576 1229 1101 730 1882 730 
C 2662 730 3187 1235 3187 1882 
z
M 2701 1882 
C 2701 1446 2362 1133 1882 1133 
C 1414 1133 1062 1446 1062 1882 
C 1062 2323 1414 2630 1882 2630 
C 2355 2630 2701 2323 2701 1882 
z
" transform="scale(0.015625)"/>
      <path id="AppleSDGothicNeo-Regular-ae30" d="M 4813 -448 
L 4813 5146 
L 4326 5146 
L 4326 -448 
L 4813 -448 
z
M 3168 4550 
L 506 4550 
L 506 4141 
L 2650 4141 
C 2547 2880 1715 1664 301 1043 
L 582 659 
C 2029 1344 3142 2733 3168 4550 
z
" transform="scale(0.015625)"/>
     </defs>
     <use xlink:href="#AppleSDGothicNeo-Regular-50"/>
     <use xlink:href="#AppleSDGothicNeo-Regular-61" transform="translate(55.299988 0)"/>
     <use xlink:href="#AppleSDGothicNeo-Regular-72" transform="translate(102.499985 0)"/>
     <use xlink:href="#AppleSDGothicNeo-Regular-74" transform="translate(137.099976 0)"/>
     <use xlink:href="#AppleSDGothicNeo-Regular-20" transform="translate(172.09996 0)"/>
     <use xlink:href="#AppleSDGothicNeo-Regular-49" transform="translate(198.399948 0)"/>
     <use xlink:href="#AppleSDGothicNeo-Regular-49" transform="translate(224.299942 0)"/>
     <use xlink:href="#AppleSDGothicNeo-Regular-20" transform="translate(250.199936 0)"/>
     <use xlink:href="#AppleSDGothicNeo-Regular-20" transform="translate(276.499924 0)"/>
     <use xlink:href="#AppleSDGothicNeo-Regular-41" transform="translate(302.799911 0)"/>
     <use xlink:href="#AppleSDGothicNeo-Regular-49" transform="translate(363.299896 0)"/>
     <use xlink:href="#AppleSDGothicNeo-Regular-c640" transform="translate(389.19989 0)"/>
     <use xlink:href="#AppleSDGothicNeo-Regular-20" transform="translate(475.699875 0)"/>
     <use xlink:href="#AppleSDGothicNeo-Regular-b300" transform="translate(501.999863 0)"/>
     <use xlink:href="#AppleSDGothicNeo-Regular-d654" transform="translate(588.499847 0)"/>
     <use xlink:href="#AppleSDGothicNeo-Regular-d558" transform="translate(674.999832 0)"/>
     <use xlink:href="#AppleSDGothicNeo-Regular-ae30" transform="translate(761.499817 0)"/>
    </g>
   </g>
   <g id="text_4">
    <!-- 3장 프롬프트  |  4장 말투  |  5장 평가 -->
    <g style="fill: #555555" transform="translate(406.025309 106.493594) scale(0.09 -0.09)">
     <defs>
      <path id="AppleSDGothicNeo-Regular-33" d="M 1491 205 
C 2445 205 3053 730 3053 1478 
C 3053 2144 2630 2458 2074 2566 
C 2560 2726 2893 3040 2893 3571 
C 2893 4243 2368 4634 1600 4634 
C 1229 4634 723 4474 467 4301 
L 544 3891 
C 813 4045 1146 4198 1498 4198 
C 2022 4198 2362 4013 2362 3488 
C 2362 3008 1984 2726 1427 2726 
L 1043 2726 
L 1043 2291 
L 1459 2291 
C 2112 2291 2534 2029 2534 1478 
C 2534 947 2138 634 1427 634 
C 1107 634 678 755 435 915 
L 326 512 
C 563 346 992 205 1491 205 
z
" transform="scale(0.015625)"/>
      <path id="AppleSDGothicNeo-Regular-d504" d="M 4813 1805 
L 4813 2214 
L 3898 2214 
L 4122 3763 
L 3642 3840 
L 3443 2214 
L 2067 2214 
L 1952 3846 
L 1453 3776 
L 1606 2214 
L 691 2214 
L 691 1805 
L 4813 1805 
z
M 5293 294 
L 5293 710 
L 243 710 
L 243 294 
L 5293 294 
z
M 4819 4147 
L 4819 4557 
L 685 4557 
L 685 4147 
L 4819 4147 
z
" transform="scale(0.015625)"/>
      <path id="AppleSDGothicNeo-Regular-b86c" d="M 4723 2733 
L 4723 3117 
L 1402 3117 
L 1402 3680 
L 4614 3680 
L 4614 4954 
L 896 4954 
L 896 4570 
L 4128 4570 
L 4128 4051 
L 915 4051 
L 915 2733 
L 2515 2733 
L 2515 2170 
L 243 2170 
L 243 1766 
L 5293 1766 
L 5293 2170 
L 3002 2170 
L 3002 2733 
L 4723 2733 
z
M 4653 -371 
L 4653 1286 
L 890 1286 
L 890 -371 
L 4653 -371 
z
M 4160 32 
L 1376 32 
L 1376 883 
L 4160 883 
L 4160 32 
z
" transform="scale(0.015625)"/>
      <path id="AppleSDGothicNeo-Regular-d2b8" d="M 4525 2976 
L 4525 3386 
L 1350 3386 
L 1350 4198 
L 4634 4198 
L 4634 4608 
L 858 4608 
L 858 1696 
L 4691 1696 
L 4691 2106 
L 1350 2106 
L 1350 2976 
L 4525 2976 
z
M 5293 262 
L 5293 672 
L 243 672 
L 243 262 
L 5293 262 
z
" transform="scale(0.015625)"/>
      <path id="AppleSDGothicNeo-Regular-34" d="M 2214 166 
L 2682 166 
L 2682 1171 
L 3398 1171 
L 3398 1587 
L 2682 1587 
L 2682 4621 
L 2285 4621 
L 186 1555 
L 186 1171 
L 2214 1171 
L 2214 166 
z
M 730 1587 
L 2214 3814 
L 2214 1587 
L 730 1587 
z
" transform="scale(0.015625)"/>
      <path id="AppleSDGothicNeo-Regular-b9d0" d="M 5395 3494 
L 5395 3904 
L 4544 3904 
L 4544 5146 
L 4058 5146 
L 4058 2285 
L 4544 2285 
L 4544 3494 
L 5395 3494 
z
M 4749 -410 
L 4749 -6 
L 1466 -6 
L 1466 634 
L 4544 634 
L 4544 1978 
L 979 1978 
L 979 1574 
L 4058 1574 
L 4058 1011 
L 979 1011 
L 979 -410 
L 4749 -410 
z
M 3098 2509 
L 3098 4794 
L 442 4794 
L 442 2509 
L 3098 2509 
z
M 2611 2912 
L 928 2912 
L 928 4390 
L 2611 4390 
L 2611 2912 
z
" transform="scale(0.015625)"/>
      <path id="AppleSDGothicNeo-Regular-d22c" d="M 4570 3386 
L 4570 3795 
L 1331 3795 
L 1331 4435 
L 4653 4435 
L 4653 4845 
L 845 4845 
L 845 2310 
L 4723 2310 
L 4723 2720 
L 1331 2720 
L 1331 3386 
L 4570 3386 
z
M 3002 -397 
L 3002 1338 
L 5293 1338 
L 5293 1747 
L 243 1747 
L 243 1338 
L 2515 1338 
L 2515 -397 
L 3002 -397 
z
" transform="scale(0.015625)"/>
      <path id="AppleSDGothicNeo-Regular-35" d="M 1395 192 
C 2342 192 2906 838 2906 1606 
C 2906 2509 2374 2918 1510 2918 
C 1331 2918 1069 2874 896 2829 
L 986 4134 
L 2752 4134 
L 2752 4570 
L 576 4570 
L 422 2317 
C 621 2406 1024 2528 1318 2528 
C 1990 2528 2374 2266 2374 1613 
C 2374 1005 1978 621 1299 621 
C 947 621 525 768 288 928 
L 192 518 
C 448 333 896 192 1395 192 
z
" transform="scale(0.015625)"/>
      <path id="AppleSDGothicNeo-Regular-d3c9" d="M 4826 589 
C 4826 1235 4141 1638 2918 1638 
C 1702 1638 1018 1235 1018 589 
C 1018 -45 1702 -448 2918 -448 
C 4141 -448 4826 -45 4826 589 
z
M 3443 2554 
C 3226 2515 2861 2470 2656 2464 
L 2829 3981 
L 2349 4038 
L 2221 2451 
C 1965 2432 1677 2419 1434 2413 
L 1306 4032 
L 826 3968 
L 992 2413 
C 736 2406 454 2406 211 2406 
L 275 1971 
C 813 1978 1581 1997 2054 2035 
C 2618 2074 3110 2112 3488 2163 
L 3443 2554 
z
M 4813 1651 
L 4813 5146 
L 4326 5146 
L 4326 4154 
L 3379 4154 
L 3379 3763 
L 4326 3763 
L 4326 3136 
L 3379 3136 
L 3379 2746 
L 4326 2746 
L 4326 1651 
L 4813 1651 
z
M 4326 589 
C 4326 192 3808 -38 2918 -38 
C 2048 -38 1523 192 1523 589 
C 1523 986 2048 1222 2918 1222 
C 3808 1222 4326 986 4326 589 
z
M 3328 4301 
L 3328 4698 
L 358 4698 
L 358 4301 
L 3328 4301 
z
" transform="scale(0.015625)"/>
      <path id="AppleSDGothicNeo-Regular-ac00" d="M 4544 5146 
L 4058 5146 
L 4058 -448 
L 4544 -448 
L 4544 2400 
L 5459 2400 
L 5459 2816 
L 4544 2816 
L 4544 5146 
z
M 3091 4544 
L 461 4544 
L 461 4134 
L 2566 4134 
C 2464 2874 1664 1696 269 1050 
L 570 666 
C 2010 1414 3059 2726 3091 4544 
z
" transform="scale(0.015625)"/>
     </defs>
     <use xlink:href="#AppleSDGothicNeo-Regular-33"/>
     <use xlink:href="#AppleSDGothicNeo-Regular-c7a5" transform="translate(53.599991 0)"/>
     <use xlink:href="#AppleSDGothicNeo-Regular-20" transform="translate(140.099976 0)"/>
     <use xlink:href="#AppleSDGothicNeo-Regular-d504" transform="translate(166.399963 0)"/>
     <use xlink:href="#AppleSDGothicNeo-Regular-b86c" transform="translate(252.899948 0)"/>
     <use xlink:href="#AppleSDGothicNeo-Regular-d504" transform="translate(339.399933 0)"/>
     <use xlink:href="#AppleSDGothicNeo-Regular-d2b8" transform="translate(425.899918 0)"/>
     <use xlink:href="#AppleSDGothicNeo-Regular-20" transform="translate(512.399902 0)"/>
     <use xlink:href="#AppleSDGothicNeo-Regular-20" transform="translate(538.69989 0)"/>
     <use xlink:href="#AppleSDGothicNeo-Regular-7c" transform="translate(564.999878 0)"/>
     <use xlink:href="#AppleSDGothicNeo-Regular-20" transform="translate(593.199875 0)"/>
     <use xlink:href="#AppleSDGothicNeo-Regular-20" transform="translate(619.499863 0)"/>
     <use xlink:href="#AppleSDGothicNeo-Regular-34" transform="translate(645.79985 0)"/>
     <use xlink:href="#AppleSDGothicNeo-Regular-c7a5" transform="translate(701.299835 0)"/>
     <use xlink:href="#AppleSDGothicNeo-Regular-20" transform="translate(787.79982 0)"/>
     <use xlink:href="#AppleSDGothicNeo-Regular-b9d0" transform="translate(814.099808 0)"/>
     <use xlink:href="#AppleSDGothicNeo-Regular-d22c" transform="translate(900.599792 0)"/>
     <use xlink:href="#AppleSDGothicNeo-Regular-20" transform="translate(987.099777 0)"/>
     <use xlink:href="#AppleSDGothicNeo-Regular-20" transform="translate(1013.399765 0)"/>
     <use xlink:href="#AppleSDGothicNeo-Regular-7c" transform="translate(1039.699753 0)"/>
     <use xlink:href="#AppleSDGothicNeo-Regular-20" transform="translate(1067.89975 0)"/>
     <use xlink:href="#AppleSDGothicNeo-Regular-20" transform="translate(1094.199738 0)"/>
     <use xlink:href="#AppleSDGothicNeo-Regular-35" transform="translate(1120.499725 0)"/>
     <use xlink:href="#AppleSDGothicNeo-Regular-c7a5" transform="translate(1170.399719 0)"/>
     <use xlink:href="#AppleSDGothicNeo-Regular-20" transform="translate(1256.899704 0)"/>
     <use xlink:href="#AppleSDGothicNeo-Regular-d3c9" transform="translate(1283.199692 0)"/>
     <use xlink:href="#AppleSDGothicNeo-Regular-ac00" transform="translate(1369.699677 0)"/>
    </g>
   </g>
   <g id="patch_5">
    <path d="M 308.091526 85.87375 
Q 322.106079 85.87375 333.884565 85.87375 
" style="fill: none; stroke: #333333; stroke-width: 2; stroke-linecap: round"/>
    <path d="M 329.884565 83.87375 
L 333.884565 85.87375 
L 329.884565 87.87375 
" style="fill: none; stroke: #333333; stroke-width: 2; stroke-linecap: round"/>
   </g>
   <g id="text_5">
    <!-- 부록 -->
    <g style="fill: #333333" transform="translate(317.928478 197.819922) scale(0.11 -0.11)">
     <defs>
      <path id="AppleSDGothicNeo-Regular-bd80" d="M 4678 2464 
L 4678 4928 
L 4192 4928 
L 4192 4102 
L 1344 4102 
L 1344 4928 
L 851 4928 
L 851 2464 
L 4678 2464 
z
M 3002 -454 
L 3002 1389 
L 5293 1389 
L 5293 1798 
L 243 1798 
L 243 1389 
L 2515 1389 
L 2515 -454 
L 3002 -454 
z
M 4192 2867 
L 1344 2867 
L 1344 3706 
L 4192 3706 
L 4192 2867 
z
" transform="scale(0.015625)"/>
      <path id="AppleSDGothicNeo-Regular-b85d" d="M 4742 2682 
L 4742 3072 
L 1363 3072 
L 1363 3635 
L 4646 3635 
L 4646 4928 
L 870 4928 
L 870 4538 
L 4160 4538 
L 4160 4000 
L 877 4000 
L 877 2682 
L 2515 2682 
L 2515 2093 
L 243 2093 
L 243 1683 
L 5293 1683 
L 5293 2093 
L 3002 2093 
L 3002 2682 
L 4742 2682 
z
M 781 1197 
L 781 794 
L 4166 794 
L 4166 -486 
L 4659 -486 
L 4659 1197 
L 781 1197 
z
" transform="scale(0.015625)"/>
     </defs>
     <use xlink:href="#AppleSDGothicNeo-Regular-bd80"/>
     <use xlink:href="#AppleSDGothicNeo-Regular-b85d" transform="translate(86.499985 0)"/>
    </g>
   </g>
   <g id="text_6">
    <!-- AI 도구 비교  |  프롬프트 템플릿  |  한국어 글쓰기 가이드 -->
    <g style="fill: #555555" transform="translate(227.783244 227.494375) scale(0.09 -0.09)">
     <defs>
      <path id="AppleSDGothicNeo-Regular-b3c4" d="M 5293 262 
L 5293 672 
L 3002 672 
L 3002 2042 
L 4723 2042 
L 4723 2445 
L 1344 2445 
L 1344 4269 
L 4691 4269 
L 4691 4672 
L 851 4672 
L 851 2042 
L 2515 2042 
L 2515 672 
L 243 672 
L 243 262 
L 5293 262 
z
" transform="scale(0.015625)"/>
      <path id="AppleSDGothicNeo-Regular-ad6c" d="M 4634 4730 
L 838 4730 
L 838 4326 
L 4128 4326 
C 4128 3776 4096 2854 3942 2253 
L 243 2253 
L 243 1843 
L 2522 1843 
L 2522 -448 
L 3008 -448 
L 3008 1843 
L 5293 1843 
L 5293 2253 
L 4429 2253 
C 4614 3117 4634 3968 4634 4730 
z
" transform="scale(0.015625)"/>
      <path id="AppleSDGothicNeo-Regular-be44" d="M 4838 -448 
L 4838 5146 
L 4352 5146 
L 4352 -448 
L 4838 -448 
z
M 3187 941 
L 3187 4672 
L 2701 4672 
L 2701 3238 
L 1024 3238 
L 1024 4672 
L 544 4672 
L 544 941 
L 3187 941 
z
M 2701 1350 
L 1024 1350 
L 1024 2835 
L 2701 2835 
L 2701 1350 
z
" transform="scale(0.015625)"/>
      <path id="AppleSDGothicNeo-Regular-ad50" d="M 5293 378 
L 5293 787 
L 3411 787 
L 3411 2720 
L 2925 2720 
L 2925 787 
L 1997 787 
L 1997 2720 
L 1510 2720 
L 1510 787 
L 243 787 
L 243 378 
L 5293 378 
z
M 4672 4525 
L 774 4525 
L 774 4115 
L 4166 4115 
L 4166 3610 
C 4166 2874 4096 2029 3968 1504 
L 4454 1427 
C 4614 2138 4666 3008 4672 3859 
L 4672 4525 
z
" transform="scale(0.015625)"/>
      <path id="AppleSDGothicNeo-Regular-d15c" d="M 4960 -365 
L 4960 1523 
L 1293 1523 
L 1293 -365 
L 4960 -365 
z
M 3891 1875 
L 3891 5043 
L 3424 5043 
L 3424 3757 
L 2650 3757 
L 2650 3360 
L 3424 3360 
L 3424 1875 
L 3891 1875 
z
M 4467 38 
L 1779 38 
L 1779 1126 
L 4467 1126 
L 4467 38 
z
M 4960 1818 
L 4960 5146 
L 4474 5146 
L 4474 1818 
L 4960 1818 
z
M 941 2451 
L 941 3238 
L 2362 3238 
L 2362 3635 
L 941 3635 
L 941 4378 
L 2586 4378 
L 2586 4781 
L 454 4781 
L 454 2029 
L 819 2029 
C 1555 2029 2349 2074 2886 2182 
L 2829 2586 
C 2368 2483 1747 2451 1069 2451 
L 941 2451 
z
" transform="scale(0.015625)"/>
      <path id="AppleSDGothicNeo-Regular-d50c" d="M 4883 -397 
L 4883 6 
L 1350 6 
L 1350 538 
L 4672 538 
L 4672 1766 
L 838 1766 
L 838 1370 
L 4186 1370 
L 4186 902 
L 858 902 
L 858 -397 
L 4883 -397 
z
M 4794 3021 
L 4794 3424 
L 3904 3424 
L 4058 4256 
L 3552 4320 
L 3437 3424 
L 2074 3424 
L 1978 4307 
L 1472 4243 
L 1613 3424 
L 723 3424 
L 723 3021 
L 4794 3021 
z
M 5293 2195 
L 5293 2605 
L 243 2605 
L 243 2195 
L 5293 2195 
z
M 4794 4525 
L 4794 4928 
L 717 4928 
L 717 4525 
L 4794 4525 
z
" transform="scale(0.015625)"/>
      <path id="AppleSDGothicNeo-Regular-b9bf" d="M 4813 1408 
L 4813 5146 
L 4326 5146 
L 4326 1408 
L 4813 1408 
z
M 5165 -109 
C 4339 13 3264 627 3264 1414 
L 3264 1587 
L 2758 1587 
L 2758 1414 
C 2758 627 1734 0 838 -115 
C 928 -243 1018 -378 1114 -506 
C 1946 -339 2784 166 2995 717 
C 3232 198 4160 -358 4890 -506 
L 5165 -109 
z
M 3546 2515 
C 2963 2394 1888 2368 1011 2368 
L 1011 3213 
L 3002 3213 
L 3002 4781 
L 499 4781 
L 499 4378 
L 2515 4378 
L 2515 3603 
L 525 3603 
L 525 1958 
L 1146 1958 
C 2138 1965 3027 2022 3603 2118 
L 3546 2515 
z
" transform="scale(0.015625)"/>
      <path id="AppleSDGothicNeo-Regular-d55c" d="M 5395 2842 
L 5395 3251 
L 4544 3251 
L 4544 5146 
L 4058 5146 
L 4058 1018 
L 4544 1018 
L 4544 2842 
L 5395 2842 
z
M 4762 -269 
L 4762 141 
L 1523 141 
L 1523 1165 
L 1037 1165 
L 1037 -269 
L 4762 -269 
z
M 2630 4518 
L 2630 4947 
L 1018 4947 
L 1018 4518 
L 2630 4518 
z
M 3494 3693 
L 3494 4096 
L 218 4096 
L 218 3693 
L 3494 3693 
z
M 3174 2413 
C 3174 3014 2611 3392 1856 3392 
C 1107 3392 544 3014 544 2413 
C 544 1824 1114 1434 1856 1434 
C 2611 1434 3174 1824 3174 2413 
z
M 2714 2413 
C 2714 2048 2310 1824 1856 1824 
C 1408 1824 1005 2048 1005 2413 
C 1005 2784 1408 3008 1856 3008 
C 2310 3008 2714 2784 2714 2413 
z
" transform="scale(0.015625)"/>
      <path id="AppleSDGothicNeo-Regular-ad6d" d="M 781 1402 
L 781 998 
L 4160 998 
L 4160 -486 
L 4653 -486 
L 4653 1402 
L 3008 1402 
L 3008 2445 
L 5293 2445 
L 5293 2854 
L 4461 2854 
C 4595 3411 4659 4090 4659 4838 
L 858 4838 
L 858 4435 
L 4160 4435 
C 4160 3955 4090 3264 3974 2854 
L 243 2854 
L 243 2445 
L 2522 2445 
L 2522 1402 
L 781 1402 
z
" transform="scale(0.015625)"/>
      <path id="AppleSDGothicNeo-Regular-c5b4" d="M 314 2778 
C 314 1587 826 800 1728 800 
C 2579 800 3078 1504 3130 2579 
L 4326 2579 
L 4326 -448 
L 4813 -448 
L 4813 5146 
L 4326 5146 
L 4326 2995 
L 3130 2995 
C 3066 4058 2573 4755 1728 4755 
C 826 4755 314 3962 314 2778 
z
M 2656 2771 
C 2656 1862 2278 1222 1728 1222 
C 1171 1222 800 1862 800 2771 
C 800 3693 1171 4333 1728 4333 
C 2278 4333 2656 3693 2656 2771 
z
" transform="scale(0.015625)"/>
      <path id="AppleSDGothicNeo-Regular-ae00" d="M 4877 -371 
L 4877 19 
L 1331 19 
L 1331 659 
L 4659 659 
L 4659 2010 
L 800 2010 
L 800 1619 
L 4173 1619 
L 4173 1018 
L 845 1018 
L 845 -371 
L 4877 -371 
z
M 4666 4845 
L 858 4845 
L 858 4442 
L 4166 4442 
C 4166 3898 4115 3443 4006 3034 
L 243 3034 
L 243 2637 
L 5293 2637 
L 5293 3034 
L 4493 3034 
C 4608 3546 4666 4096 4666 4845 
z
" transform="scale(0.015625)"/>
      <path id="AppleSDGothicNeo-Regular-c4f0" d="M 5293 320 
L 5293 730 
L 243 730 
L 243 320 
L 5293 320 
z
M 2720 2496 
C 2163 2778 1882 3302 1882 4058 
L 1882 4621 
L 1414 4621 
L 1414 4051 
C 1414 3296 1075 2566 301 2157 
L 576 1798 
C 1069 2067 1517 2598 1645 3066 
C 1786 2694 2118 2330 2451 2131 
L 2720 2496 
z
M 5222 2291 
C 4550 2611 4160 3194 4160 4006 
L 4160 4634 
L 3693 4634 
L 3693 4013 
C 3693 3194 3251 2464 2598 2086 
L 2893 1760 
C 3309 1997 3776 2560 3923 3059 
C 4083 2598 4518 2144 4947 1926 
L 5222 2291 
z
" transform="scale(0.015625)"/>
      <path id="AppleSDGothicNeo-Regular-c774" d="M 4845 -448 
L 4845 5146 
L 4358 5146 
L 4358 -448 
L 4845 -448 
z
M 429 2752 
C 429 1562 954 768 1869 768 
C 2797 768 3315 1562 3315 2746 
C 3315 3930 2797 4723 1869 4723 
C 954 4723 429 3930 429 2752 
z
M 2854 2746 
C 2854 1830 2464 1190 1869 1190 
C 1280 1190 890 1830 890 2746 
C 890 3667 1280 4301 1869 4301 
C 2464 4301 2854 3667 2854 2746 
z
" transform="scale(0.015625)"/>
      <path id="AppleSDGothicNeo-Regular-b4dc" d="M 4685 1958 
L 4685 2362 
L 1363 2362 
L 1363 4186 
L 4634 4186 
L 4634 4589 
L 877 4589 
L 877 1958 
L 4685 1958 
z
M 5293 320 
L 5293 730 
L 243 730 
L 243 320 
L 5293 320 
z
" transform="scale(0.015625)"/>
     </defs>
     <use xlink:href="#AppleSDGothicNeo-Regular-41"/>
     <use xlink:href="#AppleSDGothicNeo-Regular-49" transform="translate(60.499985 0)"/>
     <use xlink:href="#AppleSDGothicNeo-Regular-20" transform="translate(86.399979 0)"/>
     <use xlink:href="#AppleSDGothicNeo-Regular-b3c4" transform="translate(112.699966 0)"/>
     <use xlink:href="#AppleSDGothicNeo-Regular-ad6c" transform="translate(199.199951 0)"/>
     <use xlink:href="#AppleSDGothicNeo-Regular-20" transform="translate(285.699936 0)"/>
     <use xlink:href="#AppleSDGothicNeo-Regular-be44" transform="translate(311.999924 0)"/>
     <use xlink:href="#AppleSDGothicNeo-Regular-ad50" transform="translate(398.499908 0)"/>
     <use xlink:href="#AppleSDGothicNeo-Regular-20" transform="translate(484.999893 0)"/>
     <use xlink:href="#AppleSDGothicNeo-Regular-20" transform="translate(511.299881 0)"/>
     <use xlink:href="#AppleSDGothicNeo-Regular-7c" transform="translate(537.599869 0)"/>
     <use xlink:href="#AppleSDGothicNeo-Regular-20" transform="translate(565.799866 0)"/>
     <use xlink:href="#AppleSDGothicNeo-Regular-20" transform="translate(592.099854 0)"/>
     <use xlink:href="#AppleSDGothicNeo-Regular-d504" transform="translate(618.399841 0)"/>
     <use xlink:href="#AppleSDGothicNeo-Regular-b86c" transform="translate(704.899826 0)"/>
     <use xlink:href="#AppleSDGothicNeo-Regular-d504" transform="translate(791.399811 0)"/>
     <use xlink:href="#AppleSDGothicNeo-Regular-d2b8" transform="translate(877.899796 0)"/>
     <use xlink:href="#AppleSDGothicNeo-Regular-20" transform="translate(964.39978 0)"/>
     <use xlink:href="#AppleSDGothicNeo-Regular-d15c" transform="translate(990.699768 0)"/>
     <use xlink:href="#AppleSDGothicNeo-Regular-d50c" transform="translate(1077.199753 0)"/>
     <use xlink:href="#AppleSDGothicNeo-Regular-b9bf" transform="translate(1163.699738 0)"/>
     <use xlink:href="#AppleSDGothicNeo-Regular-20" transform="translate(1250.199722 0)"/>
     <use xlink:href="#AppleSDGothicNeo-Regular-20" transform="translate(1276.49971 0)"/>
     <use xlink:href="#AppleSDGothicNeo-Regular-7c" transform="translate(1302.799698 0)"/>
     <use xlink:href="#AppleSDGothicNeo-Regular-20" transform="translate(1330.999695 0)"/>
     <use xlink:href="#AppleSDGothicNeo-Regular-20" transform="translate(1357.299683 0)"/>
     <use xlink:href="#AppleSDGothicNeo-Regular-d55c" transform="translate(1383.59967 0)"/>
     <use xlink:href="#AppleSDGothicNeo-Regular-ad6d" transform="translate(1470.099655 0)"/>
     <use xlink:href="#AppleSDGothicNeo-Regular-c5b4" transform="translate(1556.59964 0)"/>
     <use xlink:href="#AppleSDGothicNeo-Regular-20" transform="translate(1643.099625 0)"/>
     <use xlink:href="#AppleSDGothicNeo-Regular-ae00" transform="translate(1669.399612 0)"/>
     <use xlink:href="#AppleSDGothicNeo-Regular-c4f0" transform="translate(1755.899597 0)"/>
     <use xlink:href="#AppleSDGothicNeo-Regular-ae30" transform="translate(1842.399582 0)"/>
     <use xlink:href="#AppleSDGothicNeo-Regular-20" transform="translate(1928.899567 0)"/>
     <use xlink:href="#AppleSDGothicNeo-Regular-ac00" transform="translate(1955.199554 0)"/>
     <use xlink:href="#AppleSDGothicNeo-Regular-c774" transform="translate(2041.699539 0)"/>
     <use xlink:href="#AppleSDGothicNeo-Regular-b4dc" transform="translate(2128.199524 0)"/>
    </g>
   </g>
   <g id="patch_6">
    <path d="M 327.443478 125.675415 
Q 327.443478 146.355573 327.443478 165.35868 
" style="fill: none; stroke: #333333; stroke-width: 1.5; stroke-linecap: round"/>
    <path d="M 329.443478 161.35868 
L 327.443478 165.35868 
L 325.443478 161.35868 
" style="fill: none; stroke: #333333; stroke-width: 1.5; stroke-linecap: round"/>
   </g>
   <g id="text_7">
    <!-- 이 책의 로드맵 -->
    <g transform="translate(274.088437 17.95375) scale(0.14 -0.14)">
     <defs>
      <path id="AppleSDGothicNeo-Regular-cc45" d="M 4960 1728 
L 4960 5146 
L 4474 5146 
L 4474 3648 
L 3795 3648 
L 3795 5043 
L 3322 5043 
L 3322 1766 
L 3795 1766 
L 3795 3245 
L 4474 3245 
L 4474 1728 
L 4960 1728 
z
M 339 3667 
L 1382 3667 
C 1363 2867 755 2342 205 2125 
L 474 1760 
C 960 1990 1491 2451 1632 2899 
C 1818 2464 2336 2061 2746 1907 
L 3008 2285 
C 2509 2451 1888 2880 1862 3667 
L 2906 3667 
L 2906 4070 
L 339 4070 
L 339 3667 
z
M 4960 -448 
L 4960 1446 
L 1197 1446 
L 1197 1043 
L 4461 1043 
L 4461 -448 
L 4960 -448 
z
M 902 4557 
L 2349 4557 
L 2349 4973 
L 902 4973 
L 902 4557 
z
" transform="scale(0.015625)"/>
      <path id="AppleSDGothicNeo-Regular-b85c" d="M 5293 262 
L 5293 672 
L 3002 672 
L 3002 1626 
L 4826 1626 
L 4826 2035 
L 1350 2035 
L 1350 2970 
L 4666 2970 
L 4666 4678 
L 858 4678 
L 858 4269 
L 4179 4269 
L 4179 3373 
L 864 3373 
L 864 1626 
L 2515 1626 
L 2515 672 
L 243 672 
L 243 262 
L 5293 262 
z
" transform="scale(0.015625)"/>
      <path id="AppleSDGothicNeo-Regular-b9f5" d="M 4960 -371 
L 4960 1818 
L 4467 1818 
L 4467 1114 
L 1779 1114 
L 1779 1798 
L 1286 1798 
L 1286 -371 
L 4960 -371 
z
M 2714 2387 
L 2714 4781 
L 512 4781 
L 512 2387 
L 2714 2387 
z
M 4960 2106 
L 4960 5146 
L 4474 5146 
L 4474 3770 
L 3802 3770 
L 3802 5043 
L 3334 5043 
L 3334 2163 
L 3802 2163 
L 3802 3366 
L 4474 3366 
L 4474 2106 
L 4960 2106 
z
M 2240 2784 
L 986 2784 
L 986 4384 
L 2240 4384 
L 2240 2784 
z
M 4467 26 
L 1779 26 
L 1779 717 
L 4467 717 
L 4467 26 
z
" transform="scale(0.015625)"/>
     </defs>
     <use xlink:href="#AppleSDGothicNeo-Regular-c774"/>
     <use xlink:href="#AppleSDGothicNeo-Regular-20" transform="translate(86.499985 0)"/>
     <use xlink:href="#AppleSDGothicNeo-Regular-cc45" transform="translate(112.799973 0)"/>
     <use xlink:href="#AppleSDGothicNeo-Regular-c758" transform="translate(199.299957 0)"/>
     <use xlink:href="#AppleSDGothicNeo-Regular-20" transform="translate(285.799942 0)"/>
     <use xlink:href="#AppleSDGothicNeo-Regular-b85c" transform="translate(312.09993 0)"/>
     <use xlink:href="#AppleSDGothicNeo-Regular-b4dc" transform="translate(398.599915 0)"/>
     <use xlink:href="#AppleSDGothicNeo-Regular-b9f5" transform="translate(485.099899 0)"/>
    </g>
   </g>
  </g>
 </g>
 <defs>
  <clipPath id="p5a192fe714">
   <rect x="7.2" y="32.95375" width="613.8" height="277.2"/>
  </clipPath>
 </defs>
</svg>
