<?xml version="1.0" encoding="utf-8" standalone="no"?>
<!DOCTYPE svg PUBLIC "-//W3C//DTD SVG 1.1//EN"
  "http://www.w3.org/Graphics/SVG/1.1/DTD/svg11.dtd">
<svg xmlns:xlink="http://www.w3.org/1999/xlink" width="601.2pt" height="321.43375pt" viewBox="0 0 601.2 321.43375" xmlns="http://www.w3.org/2000/svg" version="1.1">
 <metadata>
  <rdf:RDF xmlns:dc="http://purl.org/dc/elements/1.1/" xmlns:cc="http://creativecommons.org/ns#" xmlns:rdf="http://www.w3.org/1999/02/22-rdf-syntax-ns#">
   <cc:Work>
    <dc:type rdf:resource="http://purl.org/dc/dcmitype/StillImage"/>
    <dc:date>2026-02-18T23:39:37.921760</dc:date>
    <dc:format>image/svg+xml</dc:format>
    <dc:creator>
     <cc:Agent>
      <dc:title>Matplotlib v3.10.8, https://matplotlib.org/</dc:title>
     </cc:Agent>
    </dc:creator>
   </cc:Work>
  </rdf:RDF>
 </metadata>
 <defs>
  <style type="text/css">*{stroke-linejoin: round; stroke-linecap: butt}</style>
 </defs>
 <g id="figure_1">
  <g id="patch_1">
   <path d="M 0 321.43375 
L 601.2 321.43375 
L 601.2 0 
L 0 0 
z
" style="fill: #ffffff"/>
  </g>
  <g id="axes_1">
   <g id="patch_2">
    <path d="M 34.281818 303.92006 
L 566.918182 303.92006 
Q 580.628256 303.92006 580.628256 287.789888 
L 580.628256 62.397612 
Q 580.628256 46.26744 566.918182 46.26744 
L 34.281818 46.26744 
Q 20.571744 46.26744 20.571744 62.397612 
L 20.571744 287.789888 
Q 20.571744 303.92006 34.281818 303.92006 
z
" clip-path="url(#p05ab65a4ac)" style="fill: #eef3fa; stroke: #e0e0e0; stroke-width: 0.8; stroke-linejoin: miter"/>
   </g>
   <g id="patch_3">
    <path d="M 74.383784 199.289009 
L 147.504177 199.289009 
Q 154.359214 199.289009 154.359214 191.223922 
L 154.359214 105.196336 
Q 154.359214 97.13125 147.504177 97.13125 
L 74.383784 97.13125 
Q 67.528747 97.13125 67.528747 105.196336 
L 67.528747 191.223922 
Q 67.528747 199.289009 74.383784 199.289009 
z
" clip-path="url(#p05ab65a4ac)" style="fill: #ffffff; stroke: #4080c0; stroke-width: 1.5; stroke-linejoin: miter"/>
   </g>
   <g id="patch_4">
    <path d="M 165.784275 199.289009 
L 238.904668 199.289009 
Q 245.759705 199.289009 245.759705 191.223922 
L 245.759705 105.196336 
Q 245.759705 97.13125 238.904668 97.13125 
L 165.784275 97.13125 
Q 158.929238 97.13125 158.929238 105.196336 
L 158.929238 191.223922 
Q 158.929238 199.289009 165.784275 199.289009 
z
" clip-path="url(#p05ab65a4ac)" style="fill: #ffffff; stroke: #9060b0; stroke-width: 1.5; stroke-linejoin: miter"/>
   </g>
   <g id="patch_5">
    <path d="M 257.184767 199.289009 
L 330.30516 199.289009 
Q 337.160197 199.289009 337.160197 191.223922 
L 337.160197 105.196336 
Q 337.160197 97.13125 330.30516 97.13125 
L 257.184767 97.13125 
Q 250.32973 97.13125 250.32973 105.196336 
L 250.32973 191.223922 
Q 250.32973 199.289009 257.184767 199.289009 
z
" clip-path="url(#p05ab65a4ac)" style="fill: #ffffff; stroke: #558838; stroke-width: 1.5; stroke-linejoin: miter"/>
   </g>
   <g id="patch_6">
    <path d="M 348.585258 199.289009 
L 421.705651 199.289009 
Q 428.560688 199.289009 428.560688 191.223922 
L 428.560688 105.196336 
Q 428.560688 97.13125 421.705651 97.13125 
L 348.585258 97.13125 
Q 341.730221 97.13125 341.730221 105.196336 
L 341.730221 191.223922 
Q 341.730221 199.289009 348.585258 199.289009 
z
" clip-path="url(#p05ab65a4ac)" style="fill: #ffffff; stroke: #e07050; stroke-width: 1.5; stroke-linejoin: miter"/>
   </g>
   <g id="patch_7">
    <path d="M 453.695823 210.042457 
L 526.816216 210.042457 
Q 533.671253 210.042457 533.671253 201.977371 
L 533.671253 94.442888 
Q 533.671253 86.377802 526.816216 86.377802 
L 453.695823 86.377802 
Q 446.840786 86.377802 446.840786 94.442888 
L 446.840786 201.977371 
Q 446.840786 210.042457 453.695823 210.042457 
z
" clip-path="url(#p05ab65a4ac)" style="fill: #e5edf8; stroke: #4080c0; stroke-width: 1.8; stroke-linejoin: miter"/>
   </g>
   <g id="text_1">
    <!-- 화자 -->
    <g style="fill: #4080c0" transform="translate(101.42898 151.852161) scale(0.11 -0.11)">
     <defs>
      <path id="AppleSDGothicNeo-Regular-d654" d="M 3731 1062 
C 3360 1005 2765 954 2144 915 
L 2144 1446 
C 2803 1510 3232 1856 3232 2368 
C 3232 2957 2701 3315 1907 3315 
C 1120 3315 582 2950 582 2368 
C 582 1862 1005 1517 1651 1446 
L 1651 890 
C 1114 870 544 870 147 883 
L 237 461 
C 704 461 1293 461 1914 499 
C 2586 544 3328 614 3763 666 
L 3731 1062 
z
M 5453 2246 
L 5453 2662 
L 4557 2662 
L 4557 5146 
L 4064 5146 
L 4064 -448 
L 4557 -448 
L 4557 2246 
L 5453 2246 
z
M 2758 2368 
C 2758 2054 2419 1830 1907 1830 
C 1402 1830 1050 2054 1050 2368 
C 1050 2694 1402 2912 1907 2912 
C 2419 2912 2758 2694 2758 2368 
z
M 3590 3603 
L 3590 4006 
L 262 4006 
L 262 3603 
L 3590 3603 
z
M 2701 4461 
L 2701 4870 
L 1094 4870 
L 1094 4461 
L 2701 4461 
z
" transform="scale(0.015625)"/>
      <path id="AppleSDGothicNeo-Regular-c790" d="M 3558 1229 
C 2790 1664 2106 2541 2106 3584 
L 2106 4147 
L 3398 4147 
L 3398 4557 
L 307 4557 
L 307 4147 
L 1600 4147 
L 1600 3571 
C 1600 2566 954 1581 128 1094 
L 448 730 
C 1120 1197 1664 1888 1856 2566 
C 2054 1901 2739 1197 3264 864 
L 3558 1229 
z
M 5453 2464 
L 5453 2874 
L 4544 2874 
L 4544 5146 
L 4058 5146 
L 4058 -448 
L 4544 -448 
L 4544 2464 
L 5453 2464 
z
" transform="scale(0.015625)"/>
     </defs>
     <use xlink:href="#AppleSDGothicNeo-Regular-d654"/>
     <use xlink:href="#AppleSDGothicNeo-Regular-c790" transform="translate(86.499985 0)"/>
    </g>
   </g>
   <g id="text_2">
    <!-- 독자 -->
    <g style="fill: #9060b0" transform="translate(192.829472 151.884817) scale(0.11 -0.11)">
     <defs>
      <path id="AppleSDGothicNeo-Regular-b3c5" d="M 4659 3027 
L 4659 3430 
L 1389 3430 
L 1389 4499 
L 4646 4499 
L 4646 4909 
L 902 4909 
L 902 3027 
L 2522 3027 
L 2522 2368 
L 243 2368 
L 243 1958 
L 5293 1958 
L 5293 2368 
L 3008 2368 
L 3008 3027 
L 4659 3027 
z
M 819 1370 
L 819 966 
L 4147 966 
L 4147 -486 
L 4634 -486 
L 4634 1370 
L 819 1370 
z
" transform="scale(0.015625)"/>
     </defs>
     <use xlink:href="#AppleSDGothicNeo-Regular-b3c5"/>
     <use xlink:href="#AppleSDGothicNeo-Regular-c790" transform="translate(86.499985 0)"/>
    </g>
   </g>
   <g id="text_3">
    <!-- 종결 어미 -->
    <g style="fill: #558838" transform="translate(273.268635 151.852161) scale(0.11 -0.11)">
     <defs>
      <path id="AppleSDGothicNeo-Regular-c885" d="M 4730 531 
C 4730 1152 4019 1485 2765 1485 
C 1517 1485 813 1126 813 531 
C 813 -77 1517 -435 2765 -435 
C 4019 -435 4730 -83 4730 531 
z
M 5043 3277 
C 4262 3354 3232 3789 3053 4454 
L 4832 4454 
L 4832 4858 
L 704 4858 
L 704 4454 
L 2490 4454 
C 2323 3795 1370 3354 506 3270 
L 730 2867 
C 1715 3008 2547 3507 2765 4026 
C 3046 3514 3885 3021 4819 2867 
L 5043 3277 
z
M 2765 1094 
C 3674 1094 4237 890 4237 531 
C 4237 160 3674 -38 2765 -38 
C 1862 -38 1306 160 1306 531 
C 1306 890 1862 1094 2765 1094 
z
M 5293 1939 
L 5293 2349 
L 3008 2349 
L 3008 3194 
L 2522 3194 
L 2522 2349 
L 243 2349 
L 243 1939 
L 5293 1939 
z
" transform="scale(0.015625)"/>
      <path id="AppleSDGothicNeo-Regular-acb0" d="M 5024 -416 
L 5024 -32 
L 1683 -32 
L 1683 640 
L 4813 640 
L 4813 1990 
L 1178 1990 
L 1178 1606 
L 4326 1606 
L 4326 992 
L 1197 992 
L 1197 -416 
L 5024 -416 
z
M 3104 4838 
L 550 4838 
L 550 4429 
L 2547 4429 
C 2362 3514 1542 2771 314 2464 
L 557 2067 
C 1952 2470 2989 3366 3104 4838 
z
M 3162 3936 
L 4326 3936 
L 4326 3290 
L 3091 3290 
L 3091 2899 
L 4326 2899 
L 4326 2298 
L 4813 2298 
L 4813 5146 
L 4326 5146 
L 4326 4320 
L 3162 4320 
L 3162 3936 
z
" transform="scale(0.015625)"/>
      <path id="AppleSDGothicNeo-Regular-20" transform="scale(0.015625)"/>
      <path id="AppleSDGothicNeo-Regular-c5b4" d="M 314 2778 
C 314 1587 826 800 1728 800 
C 2579 800 3078 1504 3130 2579 
L 4326 2579 
L 4326 -448 
L 4813 -448 
L 4813 5146 
L 4326 5146 
L 4326 2995 
L 3130 2995 
C 3066 4058 2573 4755 1728 4755 
C 826 4755 314 3962 314 2778 
z
M 2656 2771 
C 2656 1862 2278 1222 1728 1222 
C 1171 1222 800 1862 800 2771 
C 800 3693 1171 4333 1728 4333 
C 2278 4333 2656 3693 2656 2771 
z
" transform="scale(0.015625)"/>
      <path id="AppleSDGothicNeo-Regular-bbf8" d="M 4800 -448 
L 4800 5146 
L 4314 5146 
L 4314 -448 
L 4800 -448 
z
M 3194 992 
L 3194 4570 
L 550 4570 
L 550 992 
L 3194 992 
z
M 2707 1395 
L 1043 1395 
L 1043 4166 
L 2707 4166 
L 2707 1395 
z
" transform="scale(0.015625)"/>
     </defs>
     <use xlink:href="#AppleSDGothicNeo-Regular-c885"/>
     <use xlink:href="#AppleSDGothicNeo-Regular-acb0" transform="translate(86.499985 0)"/>
     <use xlink:href="#AppleSDGothicNeo-Regular-20" transform="translate(172.999969 0)"/>
     <use xlink:href="#AppleSDGothicNeo-Regular-c5b4" transform="translate(199.299957 0)"/>
     <use xlink:href="#AppleSDGothicNeo-Regular-bbf8" transform="translate(285.799942 0)"/>
    </g>
   </g>
   <g id="text_4">
    <!-- 비유 여부 -->
    <g style="fill: #e07050" transform="translate(364.669126 151.857317) scale(0.11 -0.11)">
     <defs>
      <path id="AppleSDGothicNeo-Regular-be44" d="M 4838 -448 
L 4838 5146 
L 4352 5146 
L 4352 -448 
L 4838 -448 
z
M 3187 941 
L 3187 4672 
L 2701 4672 
L 2701 3238 
L 1024 3238 
L 1024 4672 
L 544 4672 
L 544 941 
L 3187 941 
z
M 2701 1350 
L 1024 1350 
L 1024 2835 
L 2701 2835 
L 2701 1350 
z
" transform="scale(0.015625)"/>
      <path id="AppleSDGothicNeo-Regular-c720" d="M 4755 3674 
C 4755 4403 4006 4890 2765 4890 
C 1530 4890 781 4403 781 3674 
C 781 2950 1530 2464 2765 2464 
C 4006 2464 4755 2957 4755 3674 
z
M 2035 -448 
L 2035 1536 
L 3482 1536 
L 3482 -448 
L 3968 -448 
L 3968 1536 
L 5293 1536 
L 5293 1946 
L 243 1946 
L 243 1536 
L 1549 1536 
L 1549 -448 
L 2035 -448 
z
M 2765 4461 
C 3706 4461 4275 4154 4275 3674 
C 4275 3200 3706 2893 2765 2893 
C 1837 2893 1261 3200 1261 3674 
C 1261 4154 1837 4461 2765 4461 
z
" transform="scale(0.015625)"/>
      <path id="AppleSDGothicNeo-Regular-c5ec" d="M 4346 3494 
L 4346 2099 
L 3213 2099 
L 3213 1696 
L 4346 1696 
L 4346 -448 
L 4832 -448 
L 4832 5146 
L 4346 5146 
L 4346 3898 
L 3213 3898 
L 3213 3494 
L 4346 3494 
z
M 275 2778 
C 275 1587 774 800 1658 800 
C 2554 800 3046 1587 3046 2771 
C 3046 3962 2554 4755 1658 4755 
C 774 4755 275 3962 275 2778 
z
M 2566 2771 
C 2566 1862 2208 1222 1658 1222 
C 1120 1222 755 1862 755 2771 
C 755 3693 1120 4333 1658 4333 
C 2208 4333 2566 3693 2566 2771 
z
" transform="scale(0.015625)"/>
      <path id="AppleSDGothicNeo-Regular-bd80" d="M 4678 2464 
L 4678 4928 
L 4192 4928 
L 4192 4102 
L 1344 4102 
L 1344 4928 
L 851 4928 
L 851 2464 
L 4678 2464 
z
M 3002 -454 
L 3002 1389 
L 5293 1389 
L 5293 1798 
L 243 1798 
L 243 1389 
L 2515 1389 
L 2515 -454 
L 3002 -454 
z
M 4192 2867 
L 1344 2867 
L 1344 3706 
L 4192 3706 
L 4192 2867 
z
" transform="scale(0.015625)"/>
     </defs>
     <use xlink:href="#AppleSDGothicNeo-Regular-be44"/>
     <use xlink:href="#AppleSDGothicNeo-Regular-c720" transform="translate(86.499985 0)"/>
     <use xlink:href="#AppleSDGothicNeo-Regular-20" transform="translate(172.999969 0)"/>
     <use xlink:href="#AppleSDGothicNeo-Regular-c5ec" transform="translate(199.299957 0)"/>
     <use xlink:href="#AppleSDGothicNeo-Regular-bd80" transform="translate(285.799942 0)"/>
    </g>
   </g>
   <g id="text_5">
    <!-- + -->
    <g style="fill: #333333" transform="translate(154.585488 153.426379) scale(0.16 -0.16)">
     <defs>
      <path id="AppleSDGothicNeo-Regular-2b" d="M 1562 883 
L 2016 883 
L 2016 2125 
L 3206 2125 
L 3206 2554 
L 2016 2554 
L 2016 3808 
L 1562 3808 
L 1562 2554 
L 346 2554 
L 346 2125 
L 1562 2125 
L 1562 883 
z
" transform="scale(0.015625)"/>
     </defs>
     <use xlink:href="#AppleSDGothicNeo-Regular-2b"/>
    </g>
   </g>
   <g id="text_6">
    <!-- + -->
    <g style="fill: #333333" transform="translate(245.98598 153.426379) scale(0.16 -0.16)">
     <use xlink:href="#AppleSDGothicNeo-Regular-2b"/>
    </g>
   </g>
   <g id="text_7">
    <!-- + -->
    <g style="fill: #333333" transform="translate(337.386471 153.426379) scale(0.16 -0.16)">
     <use xlink:href="#AppleSDGothicNeo-Regular-2b"/>
    </g>
   </g>
   <g id="text_8">
    <!-- = -->
    <g style="fill: #333333" transform="translate(432.994018 154.078411) scale(0.18 -0.18)">
     <defs>
      <path id="AppleSDGothicNeo-Regular-3d" d="M 422 2816 
L 2970 2816 
L 2970 3226 
L 422 3226 
L 422 2816 
z
M 422 1542 
L 2970 1542 
L 2970 1952 
L 422 1952 
L 422 1542 
z
" transform="scale(0.015625)"/>
     </defs>
     <use xlink:href="#AppleSDGothicNeo-Regular-3d"/>
    </g>
   </g>
   <g id="text_9">
    <!-- 말투 -->
    <g style="fill: #4080c0" transform="translate(479.87602 145.981504) scale(0.12 -0.12)">
     <defs>
      <path id="AppleSDGothicNeo-Regular-b9d0" d="M 5395 3494 
L 5395 3904 
L 4544 3904 
L 4544 5146 
L 4058 5146 
L 4058 2285 
L 4544 2285 
L 4544 3494 
L 5395 3494 
z
M 4749 -410 
L 4749 -6 
L 1466 -6 
L 1466 634 
L 4544 634 
L 4544 1978 
L 979 1978 
L 979 1574 
L 4058 1574 
L 4058 1011 
L 979 1011 
L 979 -410 
L 4749 -410 
z
M 3098 2509 
L 3098 4794 
L 442 4794 
L 442 2509 
L 3098 2509 
z
M 2611 2912 
L 928 2912 
L 928 4390 
L 2611 4390 
L 2611 2912 
z
" transform="scale(0.015625)"/>
      <path id="AppleSDGothicNeo-Regular-d22c" d="M 4570 3386 
L 4570 3795 
L 1331 3795 
L 1331 4435 
L 4653 4435 
L 4653 4845 
L 845 4845 
L 845 2310 
L 4723 2310 
L 4723 2720 
L 1331 2720 
L 1331 3386 
L 4570 3386 
z
M 3002 -397 
L 3002 1338 
L 5293 1338 
L 5293 1747 
L 243 1747 
L 243 1338 
L 2515 1338 
L 2515 -397 
L 3002 -397 
z
" transform="scale(0.015625)"/>
     </defs>
     <use xlink:href="#AppleSDGothicNeo-Regular-b9d0"/>
     <use xlink:href="#AppleSDGothicNeo-Regular-d22c" transform="translate(86.499985 0)"/>
    </g>
    <!-- 결정! -->
    <g style="fill: #4080c0" transform="translate(478.328207 158.313754) scale(0.12 -0.12)">
     <defs>
      <path id="AppleSDGothicNeo-Regular-c815" d="M 4858 614 
C 4858 1274 4179 1683 2976 1683 
C 1779 1683 1107 1274 1107 614 
C 1107 -38 1779 -448 2976 -448 
C 4179 -448 4858 -38 4858 614 
z
M 390 4269 
L 1664 4269 
C 1664 4166 1664 4032 1658 3968 
C 1632 3174 922 2464 218 2195 
L 480 1805 
C 1082 2067 1754 2739 1907 3264 
C 2138 2758 2739 2234 3322 2003 
L 3610 2394 
C 2925 2598 2208 3206 2163 3968 
C 2157 4032 2157 4160 2157 4269 
L 3418 4269 
L 3418 4678 
L 390 4678 
L 390 4269 
z
M 2976 1274 
C 3853 1274 4358 1037 4358 614 
C 4358 198 3853 -38 2976 -38 
C 2118 -38 1600 198 1600 614 
C 1600 1037 2118 1274 2976 1274 
z
M 4326 3283 
L 4326 1670 
L 4813 1670 
L 4813 5146 
L 4326 5146 
L 4326 3693 
L 3200 3693 
L 3200 3283 
L 4326 3283 
z
" transform="scale(0.015625)"/>
      <path id="AppleSDGothicNeo-Regular-21" d="M 646 1235 
L 1075 1235 
L 1152 4794 
L 570 4794 
L 646 1235 
z
M 589 147 
L 1139 147 
L 1139 717 
L 589 717 
L 589 147 
z
" transform="scale(0.015625)"/>
     </defs>
     <use xlink:href="#AppleSDGothicNeo-Regular-acb0"/>
     <use xlink:href="#AppleSDGothicNeo-Regular-c815" transform="translate(86.499985 0)"/>
     <use xlink:href="#AppleSDGothicNeo-Regular-21" transform="translate(172.999969 0)"/>
    </g>
   </g>
   <g id="text_10">
    <!-- 이 네 가지를 조합하면 같은 내용도 완전히 다른 글이 됩니다 -->
    <g style="fill: #666666" transform="translate(173.541345 248.302101) scale(0.1 -0.1)">
     <defs>
      <path id="AppleSDGothicNeo-Regular-c774" d="M 4845 -448 
L 4845 5146 
L 4358 5146 
L 4358 -448 
L 4845 -448 
z
M 429 2752 
C 429 1562 954 768 1869 768 
C 2797 768 3315 1562 3315 2746 
C 3315 3930 2797 4723 1869 4723 
C 954 4723 429 3930 429 2752 
z
M 2854 2746 
C 2854 1830 2464 1190 1869 1190 
C 1280 1190 890 1830 890 2746 
C 890 3667 1280 4301 1869 4301 
C 2464 4301 2854 3667 2854 2746 
z
" transform="scale(0.015625)"/>
      <path id="AppleSDGothicNeo-Regular-b124" d="M 4960 -448 
L 4960 5146 
L 4480 5146 
L 4480 -448 
L 4960 -448 
z
M 3360 2867 
L 3360 -160 
L 3840 -160 
L 3840 5011 
L 3360 5011 
L 3360 3270 
L 2048 3270 
L 2048 2867 
L 3360 2867 
z
M 2874 1600 
C 2534 1523 1638 1414 1030 1414 
L 1030 4563 
L 544 4563 
L 544 986 
L 851 986 
C 1555 986 2470 1082 2931 1178 
L 2874 1600 
z
" transform="scale(0.015625)"/>
      <path id="AppleSDGothicNeo-Regular-ac00" d="M 4544 5146 
L 4058 5146 
L 4058 -448 
L 4544 -448 
L 4544 2400 
L 5459 2400 
L 5459 2816 
L 4544 2816 
L 4544 5146 
z
M 3091 4544 
L 461 4544 
L 461 4134 
L 2566 4134 
C 2464 2874 1664 1696 269 1050 
L 570 666 
C 2010 1414 3059 2726 3091 4544 
z
" transform="scale(0.015625)"/>
      <path id="AppleSDGothicNeo-Regular-c9c0" d="M 3699 1248 
C 2931 1664 2221 2566 2221 3610 
L 2221 4179 
L 3526 4179 
L 3526 4582 
L 410 4582 
L 410 4179 
L 1715 4179 
L 1715 3603 
C 1715 2547 1043 1594 224 1114 
L 525 755 
C 1171 1171 1786 1888 1971 2586 
C 2163 1926 2874 1222 3398 883 
L 3699 1248 
z
M 4346 5146 
L 4346 -448 
L 4832 -448 
L 4832 5146 
L 4346 5146 
z
" transform="scale(0.015625)"/>
      <path id="AppleSDGothicNeo-Regular-b97c" d="M 5293 2163 
L 5293 2541 
L 243 2541 
L 243 2163 
L 5293 2163 
z
M 4870 -346 
L 4870 38 
L 1312 38 
L 1312 550 
L 4698 550 
L 4698 1722 
L 832 1722 
L 832 1363 
L 4211 1363 
L 4211 896 
L 826 896 
L 826 -346 
L 4870 -346 
z
M 4774 2982 
L 4774 3347 
L 1370 3347 
L 1370 3789 
L 4666 3789 
L 4666 4960 
L 877 4960 
L 877 4576 
L 4179 4576 
L 4179 4141 
L 883 4141 
L 883 2982 
L 4774 2982 
z
" transform="scale(0.015625)"/>
      <path id="AppleSDGothicNeo-Regular-c870" d="M 4870 4186 
L 4870 4576 
L 672 4576 
L 672 4186 
L 2515 4186 
L 2515 4070 
C 2515 3174 1331 2368 448 2214 
L 678 1805 
C 1606 2042 2534 2726 2765 3360 
C 3034 2746 3955 2048 4851 1792 
L 5101 2202 
C 4262 2368 3027 3187 3027 4070 
L 3027 4186 
L 4870 4186 
z
M 5293 262 
L 5293 672 
L 3002 672 
L 3002 2067 
L 2515 2067 
L 2515 672 
L 243 672 
L 243 262 
L 5293 262 
z
" transform="scale(0.015625)"/>
      <path id="AppleSDGothicNeo-Regular-d569" d="M 5395 3155 
L 5395 3565 
L 4544 3565 
L 4544 5146 
L 4058 5146 
L 4058 1901 
L 4544 1901 
L 4544 3155 
L 5395 3155 
z
M 4544 -410 
L 4544 1632 
L 4058 1632 
L 4058 1030 
L 1510 1030 
L 1510 1626 
L 1024 1626 
L 1024 -410 
L 4544 -410 
z
M 4058 0 
L 1510 0 
L 1510 627 
L 4058 627 
L 4058 0 
z
M 2656 4659 
L 2656 5069 
L 1043 5069 
L 1043 4659 
L 2656 4659 
z
M 3475 3872 
L 3475 4269 
L 218 4269 
L 218 3872 
L 3475 3872 
z
M 3149 2739 
C 3149 3302 2605 3648 1850 3648 
C 1075 3648 550 3302 550 2739 
C 550 2189 1088 1837 1850 1837 
C 2605 1837 3149 2189 3149 2739 
z
M 2656 2739 
C 2656 2419 2285 2221 1850 2221 
C 1421 2221 1030 2419 1030 2739 
C 1030 3066 1414 3258 1850 3258 
C 2285 3258 2656 3066 2656 2739 
z
" transform="scale(0.015625)"/>
      <path id="AppleSDGothicNeo-Regular-d558" d="M 5453 2374 
L 5453 2784 
L 4544 2784 
L 4544 5146 
L 4058 5146 
L 4058 -448 
L 4544 -448 
L 4544 2374 
L 5453 2374 
z
M 2694 4346 
L 2694 4762 
L 1050 4762 
L 1050 4346 
L 2694 4346 
z
M 3520 3398 
L 3520 3802 
L 218 3802 
L 218 3398 
L 3520 3398 
z
M 3187 1882 
C 3187 2541 2662 3040 1882 3040 
C 1101 3040 576 2534 576 1882 
C 576 1229 1101 730 1882 730 
C 2662 730 3187 1235 3187 1882 
z
M 2701 1882 
C 2701 1446 2362 1133 1882 1133 
C 1414 1133 1062 1446 1062 1882 
C 1062 2323 1414 2630 1882 2630 
C 2355 2630 2701 2323 2701 1882 
z
" transform="scale(0.015625)"/>
      <path id="AppleSDGothicNeo-Regular-ba74" d="M 4326 3770 
L 4326 2938 
L 3283 2938 
L 3283 2534 
L 4326 2534 
L 4326 1082 
L 4813 1082 
L 4813 5146 
L 4326 5146 
L 4326 4173 
L 3283 4173 
L 3283 3770 
L 4326 3770 
z
M 4934 -262 
L 4934 147 
L 1696 147 
L 1696 1453 
L 1210 1453 
L 1210 -262 
L 4934 -262 
z
M 3046 2035 
L 3046 4646 
L 493 4646 
L 493 2035 
L 3046 2035 
z
M 2554 2432 
L 979 2432 
L 979 4243 
L 2554 4243 
L 2554 2432 
z
" transform="scale(0.015625)"/>
      <path id="AppleSDGothicNeo-Regular-ac19" d="M 5395 3334 
L 5395 3744 
L 4544 3744 
L 4544 5146 
L 4058 5146 
L 4058 2106 
L 4544 2106 
L 4544 3334 
L 5395 3334 
z
M 4710 -397 
L 4710 -19 
L 1504 -19 
L 1504 538 
L 4512 538 
L 4512 909 
L 1504 909 
L 1504 1427 
L 4582 1427 
L 4582 1811 
L 1018 1811 
L 1018 -397 
L 4710 -397 
z
M 429 4774 
L 429 4371 
L 2426 4371 
C 2234 3322 1382 2637 224 2317 
L 474 1926 
C 1888 2349 2854 3245 2982 4774 
L 429 4774 
z
" transform="scale(0.015625)"/>
      <path id="AppleSDGothicNeo-Regular-c740" d="M 5293 1862 
L 5293 2272 
L 243 2272 
L 243 1862 
L 5293 1862 
z
M 4723 -288 
L 4723 122 
L 1395 122 
L 1395 1344 
L 909 1344 
L 909 -288 
L 4723 -288 
z
M 4717 3885 
C 4717 4589 3987 4979 2771 4979 
C 1555 4979 826 4589 826 3885 
C 826 3168 1549 2778 2765 2778 
C 3987 2778 4717 3168 4717 3885 
z
M 2771 4576 
C 3661 4576 4237 4346 4237 3878 
C 4237 3424 3654 3187 2765 3187 
C 1882 3187 1312 3424 1312 3878 
C 1312 4346 1888 4576 2771 4576 
z
" transform="scale(0.015625)"/>
      <path id="AppleSDGothicNeo-Regular-b0b4" d="M 4960 -448 
L 4960 5146 
L 4480 5146 
L 4480 2918 
L 3744 2918 
L 3744 5011 
L 3270 5011 
L 3270 -160 
L 3744 -160 
L 3744 2509 
L 4480 2509 
L 4480 -448 
L 4960 -448 
z
M 2893 1626 
C 2483 1517 1555 1440 973 1453 
L 973 4531 
L 486 4531 
L 486 1030 
L 915 1030 
C 1626 1030 2483 1107 2950 1216 
L 2893 1626 
z
" transform="scale(0.015625)"/>
      <path id="AppleSDGothicNeo-Regular-c6a9" d="M 4723 3968 
C 4723 4608 3994 5024 2765 5024 
C 1542 5024 819 4608 819 3968 
C 819 3597 1069 3296 1530 3117 
L 1530 2317 
L 243 2317 
L 243 1914 
L 5293 1914 
L 5293 2317 
L 3987 2317 
L 3987 3110 
C 4461 3290 4723 3590 4723 3968 
z
M 4762 570 
C 4762 1210 4006 1562 2771 1562 
C 1549 1562 800 1210 800 570 
C 800 -70 1549 -416 2778 -416 
C 4006 -416 4762 -70 4762 570 
z
M 4250 3968 
C 4250 3565 3661 3315 2765 3315 
C 1869 3315 1293 3565 1293 3968 
C 1293 4384 1869 4634 2765 4634 
C 3661 4634 4250 4384 4250 3968 
z
M 2771 1139 
C 3674 1139 4269 941 4269 570 
C 4269 205 3680 6 2771 6 
C 1882 6 1286 205 1286 570 
C 1286 941 1882 1139 2771 1139 
z
M 2765 2925 
C 3040 2925 3277 2944 3501 2976 
L 3501 2317 
L 2016 2317 
L 2016 2982 
C 2240 2944 2490 2925 2765 2925 
z
" transform="scale(0.015625)"/>
      <path id="AppleSDGothicNeo-Regular-b3c4" d="M 5293 262 
L 5293 672 
L 3002 672 
L 3002 2042 
L 4723 2042 
L 4723 2445 
L 1344 2445 
L 1344 4269 
L 4691 4269 
L 4691 4672 
L 851 4672 
L 851 2042 
L 2515 2042 
L 2515 672 
L 243 672 
L 243 262 
L 5293 262 
z
" transform="scale(0.015625)"/>
      <path id="AppleSDGothicNeo-Regular-c644" d="M 3731 1792 
L 3693 2182 
C 3354 2138 2720 2074 2118 2042 
L 2118 2586 
C 2835 2669 3309 3104 3309 3725 
C 3309 4397 2733 4896 1888 4896 
C 1050 4896 461 4397 461 3731 
C 461 3117 928 2675 1632 2586 
L 1632 2022 
C 1082 1997 538 1990 147 1997 
L 224 1568 
C 621 1568 1331 1594 1958 1632 
C 2624 1670 3328 1747 3731 1792 
z
M 5402 2822 
L 5402 3232 
L 4557 3232 
L 4557 5146 
L 4064 5146 
L 4064 922 
L 4557 922 
L 4557 2822 
L 5402 2822 
z
M 2842 3731 
C 2842 3296 2477 2982 1888 2982 
C 1299 2982 947 3270 947 3731 
C 947 4147 1299 4480 1888 4480 
C 2477 4480 2842 4160 2842 3731 
z
M 4704 -326 
L 4704 77 
L 1491 77 
L 1491 1203 
L 1005 1203 
L 1005 -326 
L 4704 -326 
z
" transform="scale(0.015625)"/>
      <path id="AppleSDGothicNeo-Regular-c804" d="M 403 4243 
L 1664 4243 
C 1664 3994 1664 3872 1658 3795 
C 1632 3059 928 2349 224 2074 
L 506 1696 
C 1107 1958 1754 2566 1907 3085 
C 2138 2579 2733 2048 3264 1830 
L 3539 2221 
C 2899 2432 2208 3072 2163 3789 
C 2157 3872 2157 3987 2157 4243 
L 3411 4243 
L 3411 4653 
L 403 4653 
L 403 4243 
z
M 4813 1050 
L 4813 5146 
L 4326 5146 
L 4326 3590 
L 3213 3590 
L 3213 3181 
L 4326 3181 
L 4326 1050 
L 4813 1050 
z
M 4934 -262 
L 4934 147 
L 1651 147 
L 1651 1459 
L 1165 1459 
L 1165 -262 
L 4934 -262 
z
" transform="scale(0.015625)"/>
      <path id="AppleSDGothicNeo-Regular-d788" d="M 4845 -448 
L 4845 5146 
L 4358 5146 
L 4358 -448 
L 4845 -448 
z
M 2810 4365 
L 2810 4774 
L 1178 4774 
L 1178 4365 
L 2810 4365 
z
M 3674 3398 
L 3674 3802 
L 352 3802 
L 352 3398 
L 3674 3398 
z
M 3341 1882 
C 3341 2541 2816 3040 2035 3040 
C 1254 3040 730 2534 730 1882 
C 730 1229 1254 730 2035 730 
C 2816 730 3341 1235 3341 1882 
z
M 2854 1882 
C 2854 1440 2522 1126 2035 1126 
C 1555 1126 1210 1440 1210 1882 
C 1210 2330 1555 2637 2035 2637 
C 2509 2637 2854 2330 2854 1882 
z
" transform="scale(0.015625)"/>
      <path id="AppleSDGothicNeo-Regular-b2e4" d="M 4557 5146 
L 4070 5146 
L 4070 -448 
L 4557 -448 
L 4557 2515 
L 5466 2515 
L 5466 2925 
L 4557 2925 
L 4557 5146 
z
M 954 1338 
L 954 4154 
L 3117 4154 
L 3117 4563 
L 461 4563 
L 461 922 
L 1011 922 
C 1984 922 3091 998 3693 1114 
L 3642 1517 
C 3104 1402 1997 1338 1274 1338 
L 954 1338 
z
" transform="scale(0.015625)"/>
      <path id="AppleSDGothicNeo-Regular-b978" d="M 4762 2470 
L 4762 2867 
L 1363 2867 
L 1363 3520 
L 4653 3520 
L 4653 4902 
L 877 4902 
L 877 4506 
L 4160 4506 
L 4160 3891 
L 877 3891 
L 877 2470 
L 4762 2470 
z
M 5293 1542 
L 5293 1946 
L 243 1946 
L 243 1542 
L 5293 1542 
z
M 4723 -282 
L 4723 122 
L 1357 122 
L 1357 1171 
L 870 1171 
L 870 -282 
L 4723 -282 
z
" transform="scale(0.015625)"/>
      <path id="AppleSDGothicNeo-Regular-ae00" d="M 4877 -371 
L 4877 19 
L 1331 19 
L 1331 659 
L 4659 659 
L 4659 2010 
L 800 2010 
L 800 1619 
L 4173 1619 
L 4173 1018 
L 845 1018 
L 845 -371 
L 4877 -371 
z
M 4666 4845 
L 858 4845 
L 858 4442 
L 4166 4442 
C 4166 3898 4115 3443 4006 3034 
L 243 3034 
L 243 2637 
L 5293 2637 
L 5293 3034 
L 4493 3034 
C 4608 3546 4666 4096 4666 4845 
z
" transform="scale(0.015625)"/>
      <path id="AppleSDGothicNeo-Regular-b429" d="M 4826 -371 
L 4826 1645 
L 4339 1645 
L 4339 1056 
L 1670 1056 
L 1670 1632 
L 1184 1632 
L 1184 -371 
L 4826 -371 
z
M 3949 2182 
L 3904 2573 
C 3558 2522 2957 2477 2355 2451 
L 2355 3110 
L 3494 3110 
L 3494 3514 
L 1216 3514 
L 1216 4435 
L 3443 4435 
L 3443 4838 
L 730 4838 
L 730 3110 
L 1869 3110 
L 1869 2432 
C 1261 2413 678 2413 250 2413 
L 320 1984 
C 691 1984 1517 2003 2150 2035 
C 2829 2067 3507 2131 3949 2182 
z
M 4339 26 
L 1670 26 
L 1670 659 
L 4339 659 
L 4339 26 
z
M 4826 1946 
L 4826 5146 
L 4339 5146 
L 4339 1946 
L 4826 1946 
z
" transform="scale(0.015625)"/>
      <path id="AppleSDGothicNeo-Regular-b2c8" d="M 4774 5146 
L 4294 5146 
L 4294 -448 
L 4774 -448 
L 4774 5146 
z
M 3725 1606 
C 3059 1459 1766 1357 1050 1357 
L 1050 4563 
L 557 4563 
L 557 928 
L 806 928 
C 1664 928 3123 1037 3770 1184 
L 3725 1606 
z
" transform="scale(0.015625)"/>
     </defs>
     <use xlink:href="#AppleSDGothicNeo-Regular-c774"/>
     <use xlink:href="#AppleSDGothicNeo-Regular-20" transform="translate(86.499985 0)"/>
     <use xlink:href="#AppleSDGothicNeo-Regular-b124" transform="translate(112.799973 0)"/>
     <use xlink:href="#AppleSDGothicNeo-Regular-20" transform="translate(199.299957 0)"/>
     <use xlink:href="#AppleSDGothicNeo-Regular-ac00" transform="translate(225.599945 0)"/>
     <use xlink:href="#AppleSDGothicNeo-Regular-c9c0" transform="translate(312.09993 0)"/>
     <use xlink:href="#AppleSDGothicNeo-Regular-b97c" transform="translate(398.599915 0)"/>
     <use xlink:href="#AppleSDGothicNeo-Regular-20" transform="translate(485.099899 0)"/>
     <use xlink:href="#AppleSDGothicNeo-Regular-c870" transform="translate(511.399887 0)"/>
     <use xlink:href="#AppleSDGothicNeo-Regular-d569" transform="translate(597.899872 0)"/>
     <use xlink:href="#AppleSDGothicNeo-Regular-d558" transform="translate(684.399857 0)"/>
     <use xlink:href="#AppleSDGothicNeo-Regular-ba74" transform="translate(770.899841 0)"/>
     <use xlink:href="#AppleSDGothicNeo-Regular-20" transform="translate(857.399826 0)"/>
     <use xlink:href="#AppleSDGothicNeo-Regular-ac19" transform="translate(883.699814 0)"/>
     <use xlink:href="#AppleSDGothicNeo-Regular-c740" transform="translate(970.199799 0)"/>
     <use xlink:href="#AppleSDGothicNeo-Regular-20" transform="translate(1056.699783 0)"/>
     <use xlink:href="#AppleSDGothicNeo-Regular-b0b4" transform="translate(1082.999771 0)"/>
     <use xlink:href="#AppleSDGothicNeo-Regular-c6a9" transform="translate(1169.499756 0)"/>
     <use xlink:href="#AppleSDGothicNeo-Regular-b3c4" transform="translate(1255.999741 0)"/>
     <use xlink:href="#AppleSDGothicNeo-Regular-20" transform="translate(1342.499725 0)"/>
     <use xlink:href="#AppleSDGothicNeo-Regular-c644" transform="translate(1368.799713 0)"/>
     <use xlink:href="#AppleSDGothicNeo-Regular-c804" transform="translate(1455.299698 0)"/>
     <use xlink:href="#AppleSDGothicNeo-Regular-d788" transform="translate(1541.799683 0)"/>
     <use xlink:href="#AppleSDGothicNeo-Regular-20" transform="translate(1628.299667 0)"/>
     <use xlink:href="#AppleSDGothicNeo-Regular-b2e4" transform="translate(1654.599655 0)"/>
     <use xlink:href="#AppleSDGothicNeo-Regular-b978" transform="translate(1741.09964 0)"/>
     <use xlink:href="#AppleSDGothicNeo-Regular-20" transform="translate(1827.599625 0)"/>
     <use xlink:href="#AppleSDGothicNeo-Regular-ae00" transform="translate(1853.899612 0)"/>
     <use xlink:href="#AppleSDGothicNeo-Regular-c774" transform="translate(1940.399597 0)"/>
     <use xlink:href="#AppleSDGothicNeo-Regular-20" transform="translate(2026.899582 0)"/>
     <use xlink:href="#AppleSDGothicNeo-Regular-b429" transform="translate(2053.19957 0)"/>
     <use xlink:href="#AppleSDGothicNeo-Regular-b2c8" transform="translate(2139.699554 0)"/>
     <use xlink:href="#AppleSDGothicNeo-Regular-b2e4" transform="translate(2226.199539 0)"/>
    </g>
   </g>
   <g id="text_11">
    <!-- 말투 조합 공식 -->
    <g style="fill: #333333" transform="translate(260.588437 32.35375) scale(0.14 -0.14)">
     <defs>
      <path id="AppleSDGothicNeo-Regular-acf5" d="M 4762 608 
C 4762 1235 4064 1619 2758 1619 
C 1453 1619 742 1235 742 608 
C 742 -19 1453 -397 2758 -397 
C 4064 -397 4762 -19 4762 608 
z
M 4282 608 
C 4282 218 3693 -6 2758 -6 
C 1811 -6 1229 218 1229 608 
C 1229 992 1811 1222 2758 1222 
C 3693 1222 4282 992 4282 608 
z
M 5293 2074 
L 5293 2477 
L 2810 2477 
L 2810 3661 
L 2323 3661 
L 2323 2477 
L 243 2477 
L 243 2074 
L 5293 2074 
z
M 4698 4838 
L 800 4838 
L 800 4435 
L 4198 4435 
L 4192 3981 
C 4186 3725 4147 3219 4058 2912 
L 4538 2848 
C 4627 3194 4698 3872 4698 4339 
L 4698 4838 
z
" transform="scale(0.015625)"/>
      <path id="AppleSDGothicNeo-Regular-c2dd" d="M 4813 1811 
L 4813 5146 
L 4326 5146 
L 4326 1811 
L 4813 1811 
z
M 3622 2528 
C 2950 2758 2163 3443 2163 4339 
L 2163 4915 
L 1670 4915 
L 1670 4320 
C 1670 3430 992 2669 198 2342 
L 499 1952 
C 1203 2310 1760 2886 1933 3469 
C 2157 2893 2778 2387 3334 2144 
L 3622 2528 
z
M 4813 -448 
L 4813 1504 
L 1082 1504 
L 1082 1101 
L 4326 1101 
L 4326 -448 
L 4813 -448 
z
" transform="scale(0.015625)"/>
     </defs>
     <use xlink:href="#AppleSDGothicNeo-Regular-b9d0"/>
     <use xlink:href="#AppleSDGothicNeo-Regular-d22c" transform="translate(86.499985 0)"/>
     <use xlink:href="#AppleSDGothicNeo-Regular-20" transform="translate(172.999969 0)"/>
     <use xlink:href="#AppleSDGothicNeo-Regular-c870" transform="translate(199.299957 0)"/>
     <use xlink:href="#AppleSDGothicNeo-Regular-d569" transform="translate(285.799942 0)"/>
     <use xlink:href="#AppleSDGothicNeo-Regular-20" transform="translate(372.299927 0)"/>
     <use xlink:href="#AppleSDGothicNeo-Regular-acf5" transform="translate(398.599915 0)"/>
     <use xlink:href="#AppleSDGothicNeo-Regular-c2dd" transform="translate(485.099899 0)"/>
    </g>
   </g>
  </g>
 </g>
 <defs>
  <clipPath id="p05ab65a4ac">
   <rect x="21.6" y="50.35375" width="558" height="249.48"/>
  </clipPath>
 </defs>
</svg>
