<?xml version="1.0" encoding="utf-8" standalone="no"?>
<!DOCTYPE svg PUBLIC "-//W3C//DTD SVG 1.1//EN"
  "http://www.w3.org/Graphics/SVG/1.1/DTD/svg11.dtd">
<svg xmlns:xlink="http://www.w3.org/1999/xlink" width="637.452pt" height="555.076406pt" viewBox="0 0 637.452 555.076406" xmlns="http://www.w3.org/2000/svg" version="1.1">
 <metadata>
  <rdf:RDF xmlns:dc="http://purl.org/dc/elements/1.1/" xmlns:cc="http://creativecommons.org/ns#" xmlns:rdf="http://www.w3.org/1999/02/22-rdf-syntax-ns#">
   <cc:Work>
    <dc:type rdf:resource="http://purl.org/dc/dcmitype/StillImage"/>
    <dc:date>2026-02-18T23:23:36.784916</dc:date>
    <dc:format>image/svg+xml</dc:format>
    <dc:creator>
     <cc:Agent>
      <dc:title>Matplotlib v3.10.8, https://matplotlib.org/</dc:title>
     </cc:Agent>
    </dc:creator>
   </cc:Work>
  </rdf:RDF>
 </metadata>
 <defs>
  <style type="text/css">*{stroke-linejoin: round; stroke-linecap: butt}</style>
 </defs>
 <g id="figure_1">
  <g id="patch_1">
   <path d="M 0 555.076406 
L 637.452 555.076406 
L 637.452 0 
L 0 0 
z
" style="fill: #ffffff"/>
  </g>
  <g id="axes_1">
   <g id="patch_2">
    <path d="M 465.12 292.865234 
C 465.12 263.743978 459.383747 234.905889 448.239525 208.001356 
C 437.095303 181.096824 420.759838 156.649072 400.168 136.057235 
C 379.576162 115.465397 355.128411 99.129932 328.223878 87.985709 
C 301.319345 76.841487 272.481256 71.105234 243.36 71.105234 
C 214.238744 71.105234 185.400655 76.841487 158.496122 87.985709 
C 131.591589 99.129932 107.143838 115.465397 86.552 136.057235 
C 65.960162 156.649072 49.624697 181.096824 38.480475 208.001356 
C 27.336253 234.905889 21.6 263.743978 21.6 292.865234 
C 21.6 321.986491 27.336253 350.82458 38.480475 377.729112 
C 49.624697 404.633645 65.960162 429.081396 86.552 449.673234 
C 107.143838 470.265072 131.591589 486.600537 158.496122 497.74476 
C 185.400655 508.888982 214.238744 514.625234 243.36 514.625234 
C 272.481256 514.625234 301.319345 508.888982 328.223878 497.74476 
C 355.128411 486.600537 379.576162 470.265072 400.168 449.673234 
C 420.759838 429.081396 437.095303 404.633645 448.239525 377.729112 
C 459.383747 350.82458 465.12 321.986491 465.12 292.865234 
M 243.36 292.865234 
C 243.36 292.865234 243.36 292.865234 243.36 292.865234 
C 243.36 292.865234 243.36 292.865234 243.36 292.865234 
C 243.36 292.865234 243.36 292.865234 243.36 292.865234 
C 243.36 292.865234 243.36 292.865234 243.36 292.865234 
C 243.36 292.865234 243.36 292.865234 243.36 292.865234 
C 243.36 292.865234 243.36 292.865234 243.36 292.865234 
C 243.36 292.865234 243.36 292.865234 243.36 292.865234 
C 243.36 292.865234 243.36 292.865234 243.36 292.865234 
C 243.36 292.865234 243.36 292.865234 243.36 292.865234 
C 243.36 292.865234 243.36 292.865234 243.36 292.865234 
C 243.36 292.865234 243.36 292.865234 243.36 292.865234 
C 243.36 292.865234 243.36 292.865234 243.36 292.865234 
C 243.36 292.865234 243.36 292.865234 243.36 292.865234 
C 243.36 292.865234 243.36 292.865234 243.36 292.865234 
C 243.36 292.865234 243.36 292.865234 243.36 292.865234 
C 243.36 292.865234 243.36 292.865234 243.36 292.865234 
z
" style="fill: #ffffff"/>
   </g>
   <g id="patch_3">
    <path d="M 243.36 71.105234 
L 358.589876 226.337234 
L 320.179917 337.217234 
L 243.36 425.921234 
L 166.540083 337.217234 
L 128.130124 226.337234 
z
" clip-path="url(#pe91804c7cb)" style="fill: #002060; opacity: 0.08; stroke: #002060; stroke-linejoin: miter"/>
   </g>
   <g id="patch_4">
    <path d="M 243.36 115.457234 
L 396.999835 204.161234 
L 358.589876 359.393234 
L 243.36 470.273234 
L 128.130124 359.393234 
L 128.130124 226.337234 
z
" clip-path="url(#pe91804c7cb)" style="fill: #4a148c; opacity: 0.08; stroke: #4a148c; stroke-linejoin: miter"/>
   </g>
   <g id="patch_5">
    <path d="M 243.36 248.513234 
L 435.409794 181.985234 
L 435.409794 403.745234 
L 243.36 425.921234 
L 51.310206 403.745234 
L 166.540083 248.513234 
z
" clip-path="url(#pe91804c7cb)" style="fill: #2e7d32; opacity: 0.08; stroke: #2e7d32; stroke-linejoin: miter"/>
   </g>
   <g id="patch_6">
    <path d="M 243.36 71.105234 
L 320.179917 248.513234 
L 281.769959 315.041234 
L 243.36 381.569234 
L 166.540083 337.217234 
L 51.310206 181.985234 
z
" clip-path="url(#pe91804c7cb)" style="fill: #f57f17; opacity: 0.08; stroke: #f57f17; stroke-linejoin: miter"/>
   </g>
   <g id="patch_7">
    <path d="M 243.36 159.809234 
L 320.179917 248.513234 
L 358.589876 359.393234 
L 243.36 514.625234 
L 166.540083 337.217234 
L 51.310206 181.985234 
z
" clip-path="url(#pe91804c7cb)" style="fill: #c62828; opacity: 0.08; stroke: #c62828; stroke-linejoin: miter"/>
   </g>
   <g id="patch_8">
    <path d="M 243.36 204.161234 
L 396.999835 204.161234 
L 396.999835 381.569234 
L 243.36 425.921234 
L 51.310206 403.745234 
L 128.130124 226.337234 
z
" clip-path="url(#pe91804c7cb)" style="fill: #bdbdbd; opacity: 0.08; stroke: #bdbdbd; stroke-linejoin: miter"/>
   </g>
   <g id="matplotlib.axis_1">
    <g id="xtick_1">
     <g id="line2d_1">
      <path d="M 243.36 292.865234 
L 243.36 71.105234 
" clip-path="url(#pe91804c7cb)" style="fill: none; stroke: #b0b0b0; stroke-width: 0.8; stroke-linecap: square"/>
     </g>
     <g id="text_1">
      <!-- 친근감 -->
      <g transform="translate(229.0875 60.691406) scale(0.11 -0.11)">
       <defs>
        <path id="AppleSDGothicNeo-Regular-ce5c" d="M 3514 3558 
L 3514 3962 
L 461 3962 
L 461 3558 
L 1734 3558 
L 1734 3514 
C 1734 2797 1037 2099 294 1875 
L 557 1485 
C 1203 1715 1818 2298 1978 2797 
C 2214 2285 2867 1798 3360 1651 
L 3622 2042 
C 2918 2208 2227 2803 2227 3520 
L 2227 3558 
L 3514 3558 
z
M 4947 -314 
L 4947 96 
L 1677 96 
L 1677 1363 
L 1190 1363 
L 1190 -314 
L 4947 -314 
z
M 4813 1037 
L 4813 5146 
L 4326 5146 
L 4326 1037 
L 4813 1037 
z
M 2746 4493 
L 2746 4902 
L 1222 4902 
L 1222 4493 
L 2746 4493 
z
" transform="scale(0.015625)"/>
        <path id="AppleSDGothicNeo-Regular-adfc" d="M 5293 2144 
L 5293 2554 
L 4467 2554 
C 4589 3136 4640 3891 4640 4742 
L 877 4742 
L 877 4339 
L 4147 4339 
C 4147 3674 4109 3034 3994 2554 
L 243 2554 
L 243 2144 
L 5293 2144 
z
M 4800 -243 
L 4800 160 
L 1370 160 
L 1370 1517 
L 883 1517 
L 883 -243 
L 4800 -243 
z
" transform="scale(0.015625)"/>
        <path id="AppleSDGothicNeo-Regular-ac10" d="M 5395 3270 
L 5395 3674 
L 4544 3674 
L 4544 5146 
L 4058 5146 
L 4058 1914 
L 4544 1914 
L 4544 3270 
L 5395 3270 
z
M 4544 -371 
L 4544 1626 
L 1030 1626 
L 1030 -371 
L 4544 -371 
z
M 4058 32 
L 1517 32 
L 1517 1222 
L 4058 1222 
L 4058 32 
z
M 461 4717 
L 461 4307 
L 2490 4307 
C 2355 3296 1286 2496 186 2266 
L 410 1862 
C 1837 2272 2957 3181 3040 4717 
L 461 4717 
z
" transform="scale(0.015625)"/>
       </defs>
       <use xlink:href="#AppleSDGothicNeo-Regular-ce5c"/>
       <use xlink:href="#AppleSDGothicNeo-Regular-adfc" transform="translate(86.499985 0)"/>
       <use xlink:href="#AppleSDGothicNeo-Regular-ac10" transform="translate(172.999969 0)"/>
      </g>
     </g>
    </g>
    <g id="xtick_2">
     <g id="line2d_2">
      <path d="M 243.36 292.865234 
L 435.409794 181.985234 
" clip-path="url(#pe91804c7cb)" style="fill: none; stroke: #b0b0b0; stroke-width: 0.8; stroke-linecap: square"/>
     </g>
     <g id="text_2">
      <!-- 전문성 -->
      <g transform="translate(433.261649 178.622109) scale(0.11 -0.11)">
       <defs>
        <path id="AppleSDGothicNeo-Regular-c804" d="M 403 4243 
L 1664 4243 
C 1664 3994 1664 3872 1658 3795 
C 1632 3059 928 2349 224 2074 
L 506 1696 
C 1107 1958 1754 2566 1907 3085 
C 2138 2579 2733 2048 3264 1830 
L 3539 2221 
C 2899 2432 2208 3072 2163 3789 
C 2157 3872 2157 3987 2157 4243 
L 3411 4243 
L 3411 4653 
L 403 4653 
L 403 4243 
z
M 4813 1050 
L 4813 5146 
L 4326 5146 
L 4326 3590 
L 3213 3590 
L 3213 3181 
L 4326 3181 
L 4326 1050 
L 4813 1050 
z
M 4934 -262 
L 4934 147 
L 1651 147 
L 1651 1459 
L 1165 1459 
L 1165 -262 
L 4934 -262 
z
" transform="scale(0.015625)"/>
        <path id="AppleSDGothicNeo-Regular-bb38" d="M 4659 2867 
L 4659 4838 
L 877 4838 
L 877 2867 
L 4659 2867 
z
M 4173 3270 
L 1363 3270 
L 1363 4435 
L 4173 4435 
L 4173 3270 
z
M 3021 736 
L 3021 1837 
L 5293 1837 
L 5293 2240 
L 243 2240 
L 243 1837 
L 2534 1837 
L 2534 736 
L 3021 736 
z
M 4723 -269 
L 4723 134 
L 1357 134 
L 1357 1312 
L 870 1312 
L 870 -269 
L 4723 -269 
z
" transform="scale(0.015625)"/>
        <path id="AppleSDGothicNeo-Regular-c131" d="M 4326 3456 
L 4326 1670 
L 4813 1670 
L 4813 5146 
L 4326 5146 
L 4326 3859 
L 3123 3859 
L 3123 3456 
L 4326 3456 
z
M 4870 614 
C 4870 1267 4198 1670 2995 1670 
C 1798 1670 1126 1267 1126 614 
C 1126 -38 1798 -442 2995 -442 
C 4198 -442 4870 -38 4870 614 
z
M 2995 1274 
C 3866 1274 4378 1030 4378 614 
C 4378 192 3866 -45 2995 -45 
C 2138 -45 1619 192 1619 614 
C 1619 1030 2138 1274 2995 1274 
z
M 3424 2483 
C 2790 2714 2054 3386 2054 4282 
L 2054 4826 
L 1562 4826 
L 1562 4269 
C 1562 3379 979 2662 173 2291 
L 474 1914 
C 1120 2240 1651 2829 1824 3405 
C 2042 2848 2598 2362 3136 2106 
L 3424 2483 
z
" transform="scale(0.015625)"/>
       </defs>
       <use xlink:href="#AppleSDGothicNeo-Regular-c804"/>
       <use xlink:href="#AppleSDGothicNeo-Regular-bb38" transform="translate(86.499985 0)"/>
       <use xlink:href="#AppleSDGothicNeo-Regular-c131" transform="translate(172.999969 0)"/>
      </g>
     </g>
    </g>
    <g id="xtick_3">
     <g id="line2d_3">
      <path d="M 243.36 292.865234 
L 435.409794 403.745234 
" clip-path="url(#pe91804c7cb)" style="fill: none; stroke: #b0b0b0; stroke-width: 0.8; stroke-linecap: square"/>
     </g>
     <g id="text_3">
      <!-- 격식 -->
      <g transform="translate(438.019149 414.387266) scale(0.11 -0.11)">
       <defs>
        <path id="AppleSDGothicNeo-Regular-aca9" d="M 3098 2579 
L 4326 2579 
L 4326 1818 
L 4813 1818 
L 4813 5146 
L 4326 5146 
L 4326 4141 
L 3162 4141 
L 3162 3731 
L 4326 3731 
L 4326 2989 
L 3098 2989 
L 3098 2579 
z
M 4819 -448 
L 4819 1523 
L 1088 1523 
L 1088 1120 
L 4333 1120 
L 4333 -448 
L 4819 -448 
z
M 3110 4762 
L 563 4762 
L 563 4346 
L 2573 4346 
C 2426 3398 1459 2528 346 2278 
L 595 1882 
C 2016 2323 3002 3302 3110 4762 
z
" transform="scale(0.015625)"/>
        <path id="AppleSDGothicNeo-Regular-c2dd" d="M 4813 1811 
L 4813 5146 
L 4326 5146 
L 4326 1811 
L 4813 1811 
z
M 3622 2528 
C 2950 2758 2163 3443 2163 4339 
L 2163 4915 
L 1670 4915 
L 1670 4320 
C 1670 3430 992 2669 198 2342 
L 499 1952 
C 1203 2310 1760 2886 1933 3469 
C 2157 2893 2778 2387 3334 2144 
L 3622 2528 
z
M 4813 -448 
L 4813 1504 
L 1082 1504 
L 1082 1101 
L 4326 1101 
L 4326 -448 
L 4813 -448 
z
" transform="scale(0.015625)"/>
       </defs>
       <use xlink:href="#AppleSDGothicNeo-Regular-aca9"/>
       <use xlink:href="#AppleSDGothicNeo-Regular-c2dd" transform="translate(86.499985 0)"/>
      </g>
     </g>
    </g>
    <g id="xtick_4">
     <g id="line2d_4">
      <path d="M 243.36 292.865234 
L 243.36 514.625234 
" clip-path="url(#pe91804c7cb)" style="fill: none; stroke: #b0b0b0; stroke-width: 0.8; stroke-linecap: square"/>
     </g>
     <g id="text_4">
      <!-- 설득력 -->
      <g transform="translate(229.0875 532.311094) scale(0.11 -0.11)">
       <defs>
        <path id="AppleSDGothicNeo-Regular-c124" d="M 4326 3622 
L 4326 2259 
L 4813 2259 
L 4813 5146 
L 4326 5146 
L 4326 4032 
L 3181 4032 
L 3181 3622 
L 4326 3622 
z
M 3488 2797 
C 2893 2995 2106 3584 2106 4493 
L 2106 4954 
L 1613 4954 
L 1613 4474 
C 1613 3578 934 2918 198 2630 
L 499 2266 
C 1165 2579 1696 3085 1862 3661 
C 2131 3072 2675 2637 3213 2419 
L 3488 2797 
z
M 5024 -410 
L 5024 -6 
L 1690 -6 
L 1690 602 
L 4819 602 
L 4819 1952 
L 1171 1952 
L 1171 1549 
L 4333 1549 
L 4333 973 
L 1203 973 
L 1203 -410 
L 5024 -410 
z
" transform="scale(0.015625)"/>
        <path id="AppleSDGothicNeo-Regular-b4dd" d="M 800 1389 
L 800 986 
L 4160 986 
L 4160 -486 
L 4646 -486 
L 4646 1389 
L 800 1389 
z
M 5293 2035 
L 5293 2445 
L 243 2445 
L 243 2035 
L 5293 2035 
z
M 4698 3066 
L 4698 3475 
L 1350 3475 
L 1350 4493 
L 4672 4493 
L 4672 4902 
L 864 4902 
L 864 3066 
L 4698 3066 
z
" transform="scale(0.015625)"/>
        <path id="AppleSDGothicNeo-Regular-b825" d="M 3194 2419 
C 2656 2323 1875 2304 1120 2304 
L 928 2304 
L 928 3219 
L 2931 3219 
L 2931 4819 
L 442 4819 
L 442 4416 
L 2445 4416 
L 2445 3616 
L 442 3616 
L 442 1907 
L 1101 1907 
C 1754 1907 2701 1946 3238 2035 
L 3194 2419 
z
M 4813 1696 
L 4813 5146 
L 4326 5146 
L 4326 4301 
L 3302 4301 
L 3302 3898 
L 4326 3898 
L 4326 3142 
L 3302 3142 
L 3302 2746 
L 4326 2746 
L 4326 1696 
L 4813 1696 
z
M 1037 1389 
L 1037 986 
L 4326 986 
L 4326 -499 
L 4813 -499 
L 4813 1389 
L 1037 1389 
z
" transform="scale(0.015625)"/>
       </defs>
       <use xlink:href="#AppleSDGothicNeo-Regular-c124"/>
       <use xlink:href="#AppleSDGothicNeo-Regular-b4dd" transform="translate(86.499985 0)"/>
       <use xlink:href="#AppleSDGothicNeo-Regular-b825" transform="translate(172.999969 0)"/>
      </g>
     </g>
    </g>
    <g id="xtick_5">
     <g id="line2d_5">
      <path d="M 243.36 292.865234 
L 51.310206 403.745234 
" clip-path="url(#pe91804c7cb)" style="fill: none; stroke: #b0b0b0; stroke-width: 0.8; stroke-linecap: square"/>
     </g>
     <g id="text_5">
      <!-- 객관성 -->
      <g transform="translate(24.913351 414.387266) scale(0.11 -0.11)">
       <defs>
        <path id="AppleSDGothicNeo-Regular-ac1d" d="M 4960 1843 
L 4960 5146 
L 4474 5146 
L 4474 3680 
L 3770 3680 
L 3770 5043 
L 3302 5043 
L 3302 1894 
L 3770 1894 
L 3770 3277 
L 4474 3277 
L 4474 1843 
L 4960 1843 
z
M 2662 4723 
L 499 4723 
L 499 4320 
L 2144 4320 
C 2054 3443 1402 2611 282 2163 
L 602 1792 
C 1888 2413 2637 3360 2662 4723 
z
M 4960 -448 
L 4960 1555 
L 1235 1555 
L 1235 1158 
L 4467 1158 
L 4467 -448 
L 4960 -448 
z
" transform="scale(0.015625)"/>
        <path id="AppleSDGothicNeo-Regular-ad00" d="M 5402 2938 
L 5402 3347 
L 4563 3347 
L 4563 5146 
L 4077 5146 
L 4077 947 
L 4563 947 
L 4563 2938 
L 5402 2938 
z
M 4787 -314 
L 4787 96 
L 1472 96 
L 1472 1318 
L 986 1318 
L 986 -314 
L 4787 -314 
z
M 3738 1952 
L 3686 2342 
C 3232 2266 2541 2221 1875 2195 
L 1875 3507 
L 1395 3507 
L 1395 2182 
C 979 2170 467 2170 147 2170 
L 211 1734 
C 666 1734 1344 1766 1920 1786 
C 2451 1811 3232 1875 3738 1952 
z
M 3309 4742 
L 486 4742 
L 486 4333 
L 2810 4333 
C 2822 3904 2765 3226 2662 2848 
L 3136 2771 
C 3251 3238 3328 4038 3309 4742 
z
" transform="scale(0.015625)"/>
       </defs>
       <use xlink:href="#AppleSDGothicNeo-Regular-ac1d"/>
       <use xlink:href="#AppleSDGothicNeo-Regular-ad00" transform="translate(86.499985 0)"/>
       <use xlink:href="#AppleSDGothicNeo-Regular-c131" transform="translate(172.999969 0)"/>
      </g>
     </g>
    </g>
    <g id="xtick_6">
     <g id="line2d_6">
      <path d="M 243.36 292.865234 
L 51.310206 181.985234 
" clip-path="url(#pe91804c7cb)" style="fill: none; stroke: #b0b0b0; stroke-width: 0.8; stroke-linecap: square"/>
     </g>
     <g id="text_6">
      <!-- 간결함 -->
      <g transform="translate(24.913351 178.599766) scale(0.11 -0.11)">
       <defs>
        <path id="AppleSDGothicNeo-Regular-ac04" d="M 5395 2982 
L 5395 3392 
L 4544 3392 
L 4544 5146 
L 4058 5146 
L 4058 960 
L 4544 960 
L 4544 2982 
L 5395 2982 
z
M 4717 -307 
L 4717 96 
L 1510 96 
L 1510 1421 
L 1024 1421 
L 1024 -307 
L 4717 -307 
z
M 435 4653 
L 435 4243 
L 2451 4243 
C 2310 3213 1408 2323 205 2016 
L 454 1606 
C 1882 2061 2918 3130 2982 4653 
L 435 4653 
z
" transform="scale(0.015625)"/>
        <path id="AppleSDGothicNeo-Regular-acb0" d="M 5024 -416 
L 5024 -32 
L 1683 -32 
L 1683 640 
L 4813 640 
L 4813 1990 
L 1178 1990 
L 1178 1606 
L 4326 1606 
L 4326 992 
L 1197 992 
L 1197 -416 
L 5024 -416 
z
M 3104 4838 
L 550 4838 
L 550 4429 
L 2547 4429 
C 2362 3514 1542 2771 314 2464 
L 557 2067 
C 1952 2470 2989 3366 3104 4838 
z
M 3162 3936 
L 4326 3936 
L 4326 3290 
L 3091 3290 
L 3091 2899 
L 4326 2899 
L 4326 2298 
L 4813 2298 
L 4813 5146 
L 4326 5146 
L 4326 4320 
L 3162 4320 
L 3162 3936 
z
" transform="scale(0.015625)"/>
        <path id="AppleSDGothicNeo-Regular-d568" d="M 5395 3091 
L 5395 3501 
L 4544 3501 
L 4544 5146 
L 4058 5146 
L 4058 1664 
L 4544 1664 
L 4544 3091 
L 5395 3091 
z
M 4544 -371 
L 4544 1376 
L 1005 1376 
L 1005 -371 
L 4544 -371 
z
M 4058 32 
L 1491 32 
L 1491 979 
L 4058 979 
L 4058 32 
z
M 2630 4614 
L 2630 5024 
L 1062 5024 
L 1062 4614 
L 2630 4614 
z
M 3475 3814 
L 3475 4218 
L 218 4218 
L 218 3814 
L 3475 3814 
z
M 3142 2650 
C 3142 3226 2579 3571 1843 3571 
C 1094 3571 544 3226 544 2650 
C 544 2086 1101 1728 1843 1728 
C 2579 1728 3142 2093 3142 2650 
z
M 2662 2650 
C 2662 2310 2278 2106 1843 2106 
C 1414 2106 1011 2310 1011 2650 
C 1011 2995 1408 3194 1843 3194 
C 2278 3194 2662 2995 2662 2650 
z
" transform="scale(0.015625)"/>
       </defs>
       <use xlink:href="#AppleSDGothicNeo-Regular-ac04"/>
       <use xlink:href="#AppleSDGothicNeo-Regular-acb0" transform="translate(86.499985 0)"/>
       <use xlink:href="#AppleSDGothicNeo-Regular-d568" transform="translate(172.999969 0)"/>
      </g>
     </g>
    </g>
   </g>
   <g id="matplotlib.axis_2">
    <g id="ytick_1">
     <g id="line2d_7">
      <path d="M 243.36 248.513234 
C 249.184251 248.513234 254.951869 249.660485 260.332776 251.889329 
C 265.713682 254.118174 270.603232 257.385267 274.7216 261.503634 
C 278.839968 265.622002 282.107061 270.511552 284.335905 275.892459 
C 286.564749 281.273365 287.712 287.040983 287.712 292.865234 
C 287.712 298.689486 286.564749 304.457103 284.335905 309.83801 
C 282.107061 315.218917 278.839968 320.108467 274.7216 324.226834 
C 270.603232 328.345202 265.713682 331.612295 260.332776 333.841139 
C 254.951869 336.069984 249.184251 337.217234 243.36 337.217234 
C 237.535749 337.217234 231.768131 336.069984 226.387224 333.841139 
C 221.006318 331.612295 216.116768 328.345202 211.9984 324.226834 
C 207.880032 320.108467 204.612939 315.218917 202.384095 309.83801 
C 200.155251 304.457103 199.008 298.689486 199.008 292.865234 
C 199.008 287.040983 200.155251 281.273365 202.384095 275.892459 
C 204.612939 270.511552 207.880032 265.622002 211.9984 261.503634 
C 216.116768 257.385267 221.006318 254.118174 226.387224 251.889329 
C 231.768131 249.660485 237.535749 248.513234 243.36 248.513234 
" clip-path="url(#pe91804c7cb)" style="fill: none; stroke: #b0b0b0; stroke-width: 0.8; stroke-linecap: square"/>
     </g>
     <g id="text_7">
      <!-- 1 -->
      <g style="fill: #999999" transform="translate(243.36 247.665734) scale(0.08 -0.08)">
       <defs>
        <path id="AppleSDGothicNeo-Regular-31" d="M 1146 243 
L 1632 243 
L 1632 4634 
L 1363 4634 
L 352 4160 
L 352 3866 
L 1146 4051 
L 1146 243 
z
" transform="scale(0.015625)"/>
       </defs>
       <use xlink:href="#AppleSDGothicNeo-Regular-31"/>
      </g>
     </g>
    </g>
    <g id="ytick_2">
     <g id="line2d_8">
      <path d="M 243.36 204.161234 
C 255.008503 204.161234 266.543738 206.455735 277.305551 210.913424 
C 288.067364 215.371113 297.846465 221.905299 306.0832 230.142034 
C 314.319935 238.37877 320.854121 248.15787 325.31181 258.919683 
C 329.769499 269.681496 332.064 281.216732 332.064 292.865234 
C 332.064 304.513737 329.769499 316.048972 325.31181 326.810786 
C 320.854121 337.572599 314.319935 347.351699 306.0832 355.588434 
C 297.846465 363.825169 288.067364 370.359355 277.305551 374.817044 
C 266.543738 379.274733 255.008503 381.569234 243.36 381.569234 
C 231.711497 381.569234 220.176262 379.274733 209.414449 374.817044 
C 198.652636 370.359355 188.873535 363.825169 180.6368 355.588434 
C 172.400065 347.351699 165.865879 337.572599 161.40819 326.810786 
C 156.950501 316.048972 154.656 304.513737 154.656 292.865234 
C 154.656 281.216732 156.950501 269.681496 161.40819 258.919683 
C 165.865879 248.15787 172.400065 238.37877 180.6368 230.142034 
C 188.873535 221.905299 198.652636 215.371113 209.414449 210.913424 
C 220.176262 206.455735 231.711497 204.161234 243.36 204.161234 
" clip-path="url(#pe91804c7cb)" style="fill: none; stroke: #b0b0b0; stroke-width: 0.8; stroke-linecap: square"/>
     </g>
     <g id="text_8">
      <!-- 2 -->
      <g style="fill: #999999" transform="translate(243.36 203.313734) scale(0.08 -0.08)">
       <defs>
        <path id="AppleSDGothicNeo-Regular-32" d="M 397 269 
L 3066 269 
L 3066 704 
L 1107 704 
L 1779 1382 
C 2522 2138 2970 2650 2970 3392 
C 2970 4160 2502 4640 1638 4640 
C 1152 4640 717 4422 448 4250 
L 595 3846 
C 845 4019 1190 4198 1555 4198 
C 2163 4198 2438 3917 2438 3347 
C 2438 2733 2029 2266 1421 1632 
L 397 570 
L 397 269 
z
" transform="scale(0.015625)"/>
       </defs>
       <use xlink:href="#AppleSDGothicNeo-Regular-32"/>
      </g>
     </g>
    </g>
    <g id="ytick_3">
     <g id="line2d_9">
      <path d="M 243.36 159.809234 
C 260.832754 159.809234 278.135607 163.250986 294.278327 169.937519 
C 310.421046 176.624053 325.089697 186.425332 337.4448 198.780434 
C 349.799903 211.135537 359.601182 225.804188 366.287715 241.946908 
C 372.974248 258.089627 376.416 275.392481 376.416 292.865234 
C 376.416 310.337988 372.974248 327.640842 366.287715 343.783561 
C 359.601182 359.926281 349.799903 374.594932 337.4448 386.950034 
C 325.089697 399.305137 310.421046 409.106416 294.278327 415.792949 
C 278.135607 422.479483 260.832754 425.921234 243.36 425.921234 
C 225.887246 425.921234 208.584393 422.479483 192.441673 415.792949 
C 176.298954 409.106416 161.630303 399.305137 149.2752 386.950034 
C 136.920097 374.594932 127.118818 359.926281 120.432285 343.783561 
C 113.745752 327.640842 110.304 310.337988 110.304 292.865234 
C 110.304 275.392481 113.745752 258.089627 120.432285 241.946908 
C 127.118818 225.804188 136.920097 211.135537 149.2752 198.780434 
C 161.630303 186.425332 176.298954 176.624053 192.441673 169.937519 
C 208.584393 163.250986 225.887246 159.809234 243.36 159.809234 
" clip-path="url(#pe91804c7cb)" style="fill: none; stroke: #b0b0b0; stroke-width: 0.8; stroke-linecap: square"/>
     </g>
     <g id="text_9">
      <!-- 3 -->
      <g style="fill: #999999" transform="translate(243.36 158.961734) scale(0.08 -0.08)">
       <defs>
        <path id="AppleSDGothicNeo-Regular-33" d="M 1491 205 
C 2445 205 3053 730 3053 1478 
C 3053 2144 2630 2458 2074 2566 
C 2560 2726 2893 3040 2893 3571 
C 2893 4243 2368 4634 1600 4634 
C 1229 4634 723 4474 467 4301 
L 544 3891 
C 813 4045 1146 4198 1498 4198 
C 2022 4198 2362 4013 2362 3488 
C 2362 3008 1984 2726 1427 2726 
L 1043 2726 
L 1043 2291 
L 1459 2291 
C 2112 2291 2534 2029 2534 1478 
C 2534 947 2138 634 1427 634 
C 1107 634 678 755 435 915 
L 326 512 
C 563 346 992 205 1491 205 
z
" transform="scale(0.015625)"/>
       </defs>
       <use xlink:href="#AppleSDGothicNeo-Regular-33"/>
      </g>
     </g>
    </g>
    <g id="ytick_4">
     <g id="line2d_10">
      <path d="M 243.36 115.457234 
C 266.657005 115.457234 289.727476 120.046236 311.251102 128.961614 
C 332.774729 137.876992 352.33293 150.945364 368.8064 167.418835 
C 385.27987 183.892305 398.348242 203.450506 407.26362 224.974132 
C 416.178998 246.497758 420.768 269.568229 420.768 292.865234 
C 420.768 316.162239 416.178998 339.232711 407.26362 360.756337 
C 398.348242 382.279963 385.27987 401.838164 368.8064 418.311634 
C 352.33293 434.785105 332.774729 447.853477 311.251102 456.768854 
C 289.727476 465.684232 266.657005 470.273234 243.36 470.273234 
C 220.062995 470.273234 196.992524 465.684232 175.468898 456.768854 
C 153.945271 447.853477 134.38707 434.785105 117.9136 418.311634 
C 101.44013 401.838164 88.371758 382.279963 79.45638 360.756337 
C 70.541002 339.232711 65.952 316.162239 65.952 292.865234 
C 65.952 269.568229 70.541002 246.497758 79.45638 224.974132 
C 88.371758 203.450506 101.44013 183.892305 117.9136 167.418835 
C 134.38707 150.945364 153.945271 137.876992 175.468898 128.961614 
C 196.992524 120.046236 220.062995 115.457234 243.36 115.457234 
" clip-path="url(#pe91804c7cb)" style="fill: none; stroke: #b0b0b0; stroke-width: 0.8; stroke-linecap: square"/>
     </g>
     <g id="text_10">
      <!-- 4 -->
      <g style="fill: #999999" transform="translate(243.36 114.609734) scale(0.08 -0.08)">
       <defs>
        <path id="AppleSDGothicNeo-Regular-34" d="M 2214 166 
L 2682 166 
L 2682 1171 
L 3398 1171 
L 3398 1587 
L 2682 1587 
L 2682 4621 
L 2285 4621 
L 186 1555 
L 186 1171 
L 2214 1171 
L 2214 166 
z
M 730 1587 
L 2214 3814 
L 2214 1587 
L 730 1587 
z
" transform="scale(0.015625)"/>
       </defs>
       <use xlink:href="#AppleSDGothicNeo-Regular-34"/>
      </g>
     </g>
    </g>
    <g id="ytick_5">
     <g id="line2d_11">
      <path d="M 243.36 71.105234 
C 272.481256 71.105234 301.319345 76.841487 328.223878 87.985709 
C 355.128411 99.129932 379.576162 115.465397 400.168 136.057235 
C 420.759838 156.649072 437.095303 181.096824 448.239525 208.001356 
C 459.383747 234.905889 465.12 263.743978 465.12 292.865234 
C 465.12 321.986491 459.383747 350.82458 448.239525 377.729112 
C 437.095303 404.633645 420.759838 429.081396 400.168 449.673234 
C 379.576162 470.265072 355.128411 486.600537 328.223878 497.74476 
C 301.319345 508.888982 272.481256 514.625234 243.36 514.625234 
C 214.238744 514.625234 185.400655 508.888982 158.496122 497.74476 
C 131.591589 486.600537 107.143838 470.265072 86.552 449.673234 
C 65.960162 429.081396 49.624697 404.633645 38.480475 377.729112 
C 27.336253 350.82458 21.6 321.986491 21.6 292.865234 
C 21.6 263.743978 27.336253 234.905889 38.480475 208.001356 
C 49.624697 181.096824 65.960162 156.649072 86.552 136.057235 
C 107.143838 115.465397 131.591589 99.129932 158.496122 87.985709 
C 185.400655 76.841487 214.238744 71.105234 243.36 71.105234 
" clip-path="url(#pe91804c7cb)" style="fill: none; stroke: #b0b0b0; stroke-width: 0.8; stroke-linecap: square"/>
     </g>
     <g id="text_11">
      <!-- 5 -->
      <g style="fill: #999999" transform="translate(243.36 70.257734) scale(0.08 -0.08)">
       <defs>
        <path id="AppleSDGothicNeo-Regular-35" d="M 1395 192 
C 2342 192 2906 838 2906 1606 
C 2906 2509 2374 2918 1510 2918 
C 1331 2918 1069 2874 896 2829 
L 986 4134 
L 2752 4134 
L 2752 4570 
L 576 4570 
L 422 2317 
C 621 2406 1024 2528 1318 2528 
C 1990 2528 2374 2266 2374 1613 
C 2374 1005 1978 621 1299 621 
C 947 621 525 768 288 928 
L 192 518 
C 448 333 896 192 1395 192 
z
" transform="scale(0.015625)"/>
       </defs>
       <use xlink:href="#AppleSDGothicNeo-Regular-35"/>
      </g>
     </g>
    </g>
   </g>
   <g id="line2d_12">
    <path d="M 243.36 71.105234 
L 358.589876 226.337234 
L 320.179917 337.217234 
L 243.36 425.921234 
L 166.540083 337.217234 
L 128.130124 226.337234 
L 243.36 71.105234 
" clip-path="url(#pe91804c7cb)" style="fill: none; stroke: #002060; stroke-width: 1.8; stroke-linecap: square"/>
    <defs>
     <path id="m848ee63fc5" d="M 0 3 
C 0.795609 3 1.55874 2.683901 2.12132 2.12132 
C 2.683901 1.55874 3 0.795609 3 0 
C 3 -0.795609 2.683901 -1.55874 2.12132 -2.12132 
C 1.55874 -2.683901 0.795609 -3 0 -3 
C -0.795609 -3 -1.55874 -2.683901 -2.12132 -2.12132 
C -2.683901 -1.55874 -3 -0.795609 -3 0 
C -3 0.795609 -2.683901 1.55874 -2.12132 2.12132 
C -1.55874 2.683901 -0.795609 3 0 3 
z
" style="stroke: #002060"/>
    </defs>
    <g clip-path="url(#pe91804c7cb)">
     <use xlink:href="#m848ee63fc5" x="243.36" y="71.105234" style="fill: #002060; stroke: #002060"/>
     <use xlink:href="#m848ee63fc5" x="358.589876" y="226.337234" style="fill: #002060; stroke: #002060"/>
     <use xlink:href="#m848ee63fc5" x="320.179917" y="337.217234" style="fill: #002060; stroke: #002060"/>
     <use xlink:href="#m848ee63fc5" x="243.36" y="425.921234" style="fill: #002060; stroke: #002060"/>
     <use xlink:href="#m848ee63fc5" x="166.540083" y="337.217234" style="fill: #002060; stroke: #002060"/>
     <use xlink:href="#m848ee63fc5" x="128.130124" y="226.337234" style="fill: #002060; stroke: #002060"/>
     <use xlink:href="#m848ee63fc5" x="243.36" y="71.105234" style="fill: #002060; stroke: #002060"/>
    </g>
   </g>
   <g id="line2d_13">
    <path d="M 243.36 115.457234 
L 396.999835 204.161234 
L 358.589876 359.393234 
L 243.36 470.273234 
L 128.130124 359.393234 
L 128.130124 226.337234 
L 243.36 115.457234 
" clip-path="url(#pe91804c7cb)" style="fill: none; stroke: #4a148c; stroke-width: 1.8; stroke-linecap: square"/>
    <defs>
     <path id="m34c3c14123" d="M 0 3 
C 0.795609 3 1.55874 2.683901 2.12132 2.12132 
C 2.683901 1.55874 3 0.795609 3 0 
C 3 -0.795609 2.683901 -1.55874 2.12132 -2.12132 
C 1.55874 -2.683901 0.795609 -3 0 -3 
C -0.795609 -3 -1.55874 -2.683901 -2.12132 -2.12132 
C -2.683901 -1.55874 -3 -0.795609 -3 0 
C -3 0.795609 -2.683901 1.55874 -2.12132 2.12132 
C -1.55874 2.683901 -0.795609 3 0 3 
z
" style="stroke: #4a148c"/>
    </defs>
    <g clip-path="url(#pe91804c7cb)">
     <use xlink:href="#m34c3c14123" x="243.36" y="115.457234" style="fill: #4a148c; stroke: #4a148c"/>
     <use xlink:href="#m34c3c14123" x="396.999835" y="204.161234" style="fill: #4a148c; stroke: #4a148c"/>
     <use xlink:href="#m34c3c14123" x="358.589876" y="359.393234" style="fill: #4a148c; stroke: #4a148c"/>
     <use xlink:href="#m34c3c14123" x="243.36" y="470.273234" style="fill: #4a148c; stroke: #4a148c"/>
     <use xlink:href="#m34c3c14123" x="128.130124" y="359.393234" style="fill: #4a148c; stroke: #4a148c"/>
     <use xlink:href="#m34c3c14123" x="128.130124" y="226.337234" style="fill: #4a148c; stroke: #4a148c"/>
     <use xlink:href="#m34c3c14123" x="243.36" y="115.457234" style="fill: #4a148c; stroke: #4a148c"/>
    </g>
   </g>
   <g id="line2d_14">
    <path d="M 243.36 248.513234 
L 435.409794 181.985234 
L 435.409794 403.745234 
L 243.36 425.921234 
L 51.310206 403.745234 
L 166.540083 248.513234 
L 243.36 248.513234 
" clip-path="url(#pe91804c7cb)" style="fill: none; stroke: #2e7d32; stroke-width: 1.8; stroke-linecap: square"/>
    <defs>
     <path id="m37a7ff37ac" d="M 0 3 
C 0.795609 3 1.55874 2.683901 2.12132 2.12132 
C 2.683901 1.55874 3 0.795609 3 0 
C 3 -0.795609 2.683901 -1.55874 2.12132 -2.12132 
C 1.55874 -2.683901 0.795609 -3 0 -3 
C -0.795609 -3 -1.55874 -2.683901 -2.12132 -2.12132 
C -2.683901 -1.55874 -3 -0.795609 -3 0 
C -3 0.795609 -2.683901 1.55874 -2.12132 2.12132 
C -1.55874 2.683901 -0.795609 3 0 3 
z
" style="stroke: #2e7d32"/>
    </defs>
    <g clip-path="url(#pe91804c7cb)">
     <use xlink:href="#m37a7ff37ac" x="243.36" y="248.513234" style="fill: #2e7d32; stroke: #2e7d32"/>
     <use xlink:href="#m37a7ff37ac" x="435.409794" y="181.985234" style="fill: #2e7d32; stroke: #2e7d32"/>
     <use xlink:href="#m37a7ff37ac" x="435.409794" y="403.745234" style="fill: #2e7d32; stroke: #2e7d32"/>
     <use xlink:href="#m37a7ff37ac" x="243.36" y="425.921234" style="fill: #2e7d32; stroke: #2e7d32"/>
     <use xlink:href="#m37a7ff37ac" x="51.310206" y="403.745234" style="fill: #2e7d32; stroke: #2e7d32"/>
     <use xlink:href="#m37a7ff37ac" x="166.540083" y="248.513234" style="fill: #2e7d32; stroke: #2e7d32"/>
     <use xlink:href="#m37a7ff37ac" x="243.36" y="248.513234" style="fill: #2e7d32; stroke: #2e7d32"/>
    </g>
   </g>
   <g id="line2d_15">
    <path d="M 243.36 71.105234 
L 320.179917 248.513234 
L 281.769959 315.041234 
L 243.36 381.569234 
L 166.540083 337.217234 
L 51.310206 181.985234 
L 243.36 71.105234 
" clip-path="url(#pe91804c7cb)" style="fill: none; stroke: #f57f17; stroke-width: 1.8; stroke-linecap: square"/>
    <defs>
     <path id="m0cafa16f04" d="M 0 3 
C 0.795609 3 1.55874 2.683901 2.12132 2.12132 
C 2.683901 1.55874 3 0.795609 3 0 
C 3 -0.795609 2.683901 -1.55874 2.12132 -2.12132 
C 1.55874 -2.683901 0.795609 -3 0 -3 
C -0.795609 -3 -1.55874 -2.683901 -2.12132 -2.12132 
C -2.683901 -1.55874 -3 -0.795609 -3 0 
C -3 0.795609 -2.683901 1.55874 -2.12132 2.12132 
C -1.55874 2.683901 -0.795609 3 0 3 
z
" style="stroke: #f57f17"/>
    </defs>
    <g clip-path="url(#pe91804c7cb)">
     <use xlink:href="#m0cafa16f04" x="243.36" y="71.105234" style="fill: #f57f17; stroke: #f57f17"/>
     <use xlink:href="#m0cafa16f04" x="320.179917" y="248.513234" style="fill: #f57f17; stroke: #f57f17"/>
     <use xlink:href="#m0cafa16f04" x="281.769959" y="315.041234" style="fill: #f57f17; stroke: #f57f17"/>
     <use xlink:href="#m0cafa16f04" x="243.36" y="381.569234" style="fill: #f57f17; stroke: #f57f17"/>
     <use xlink:href="#m0cafa16f04" x="166.540083" y="337.217234" style="fill: #f57f17; stroke: #f57f17"/>
     <use xlink:href="#m0cafa16f04" x="51.310206" y="181.985234" style="fill: #f57f17; stroke: #f57f17"/>
     <use xlink:href="#m0cafa16f04" x="243.36" y="71.105234" style="fill: #f57f17; stroke: #f57f17"/>
    </g>
   </g>
   <g id="line2d_16">
    <path d="M 243.36 159.809234 
L 320.179917 248.513234 
L 358.589876 359.393234 
L 243.36 514.625234 
L 166.540083 337.217234 
L 51.310206 181.985234 
L 243.36 159.809234 
" clip-path="url(#pe91804c7cb)" style="fill: none; stroke: #c62828; stroke-width: 1.8; stroke-linecap: square"/>
    <defs>
     <path id="m701cc6d59d" d="M 0 3 
C 0.795609 3 1.55874 2.683901 2.12132 2.12132 
C 2.683901 1.55874 3 0.795609 3 0 
C 3 -0.795609 2.683901 -1.55874 2.12132 -2.12132 
C 1.55874 -2.683901 0.795609 -3 0 -3 
C -0.795609 -3 -1.55874 -2.683901 -2.12132 -2.12132 
C -2.683901 -1.55874 -3 -0.795609 -3 0 
C -3 0.795609 -2.683901 1.55874 -2.12132 2.12132 
C -1.55874 2.683901 -0.795609 3 0 3 
z
" style="stroke: #c62828"/>
    </defs>
    <g clip-path="url(#pe91804c7cb)">
     <use xlink:href="#m701cc6d59d" x="243.36" y="159.809234" style="fill: #c62828; stroke: #c62828"/>
     <use xlink:href="#m701cc6d59d" x="320.179917" y="248.513234" style="fill: #c62828; stroke: #c62828"/>
     <use xlink:href="#m701cc6d59d" x="358.589876" y="359.393234" style="fill: #c62828; stroke: #c62828"/>
     <use xlink:href="#m701cc6d59d" x="243.36" y="514.625234" style="fill: #c62828; stroke: #c62828"/>
     <use xlink:href="#m701cc6d59d" x="166.540083" y="337.217234" style="fill: #c62828; stroke: #c62828"/>
     <use xlink:href="#m701cc6d59d" x="51.310206" y="181.985234" style="fill: #c62828; stroke: #c62828"/>
     <use xlink:href="#m701cc6d59d" x="243.36" y="159.809234" style="fill: #c62828; stroke: #c62828"/>
    </g>
   </g>
   <g id="line2d_17">
    <path d="M 243.36 204.161234 
L 396.999835 204.161234 
L 396.999835 381.569234 
L 243.36 425.921234 
L 51.310206 403.745234 
L 128.130124 226.337234 
L 243.36 204.161234 
" clip-path="url(#pe91804c7cb)" style="fill: none; stroke: #bdbdbd; stroke-width: 1.8; stroke-linecap: square"/>
    <defs>
     <path id="m9df84f701d" d="M 0 3 
C 0.795609 3 1.55874 2.683901 2.12132 2.12132 
C 2.683901 1.55874 3 0.795609 3 0 
C 3 -0.795609 2.683901 -1.55874 2.12132 -2.12132 
C 1.55874 -2.683901 0.795609 -3 0 -3 
C -0.795609 -3 -1.55874 -2.683901 -2.12132 -2.12132 
C -2.683901 -1.55874 -3 -0.795609 -3 0 
C -3 0.795609 -2.683901 1.55874 -2.12132 2.12132 
C -1.55874 2.683901 -0.795609 3 0 3 
z
" style="stroke: #bdbdbd"/>
    </defs>
    <g clip-path="url(#pe91804c7cb)">
     <use xlink:href="#m9df84f701d" x="243.36" y="204.161234" style="fill: #bdbdbd; stroke: #bdbdbd"/>
     <use xlink:href="#m9df84f701d" x="396.999835" y="204.161234" style="fill: #bdbdbd; stroke: #bdbdbd"/>
     <use xlink:href="#m9df84f701d" x="396.999835" y="381.569234" style="fill: #bdbdbd; stroke: #bdbdbd"/>
     <use xlink:href="#m9df84f701d" x="243.36" y="425.921234" style="fill: #bdbdbd; stroke: #bdbdbd"/>
     <use xlink:href="#m9df84f701d" x="51.310206" y="403.745234" style="fill: #bdbdbd; stroke: #bdbdbd"/>
     <use xlink:href="#m9df84f701d" x="128.130124" y="226.337234" style="fill: #bdbdbd; stroke: #bdbdbd"/>
     <use xlink:href="#m9df84f701d" x="243.36" y="204.161234" style="fill: #bdbdbd; stroke: #bdbdbd"/>
    </g>
   </g>
   <g id="patch_9">
    <path d="M 243.36 71.105234 
C 214.238744 71.105234 185.400655 76.841487 158.496122 87.985709 
C 131.591589 99.129932 107.143838 115.465397 86.552 136.057235 
C 65.960162 156.649072 49.624697 181.096824 38.480475 208.001356 
C 27.336253 234.905889 21.6 263.743978 21.6 292.865234 
C 21.6 321.986491 27.336253 350.82458 38.480475 377.729112 
C 49.624697 404.633645 65.960162 429.081396 86.552 449.673234 
C 107.143838 470.265072 131.591589 486.600537 158.496122 497.74476 
C 185.400655 508.888982 214.238744 514.625234 243.36 514.625234 
C 272.481256 514.625234 301.319345 508.888982 328.223878 497.74476 
C 355.128411 486.600537 379.576162 470.265072 400.168 449.673234 
C 420.759838 429.081396 437.095303 404.633645 448.239525 377.729112 
C 459.383747 350.82458 465.12 321.986491 465.12 292.865234 
C 465.12 263.743978 459.383747 234.905889 448.239525 208.001356 
C 437.095303 181.096824 420.759838 156.649072 400.168 136.057235 
C 379.576162 115.465397 355.128411 99.129932 328.223878 87.985709 
C 301.319345 76.841487 272.481256 71.105234 243.36 71.105234 
" style="fill: none; stroke: #000000; stroke-width: 0.8; stroke-linejoin: miter; stroke-linecap: square"/>
   </g>
   <g id="text_12">
    <!-- 6가지 말투 레이더 차트 -->
    <g style="fill: #002060" transform="translate(179.464219 32.35375) scale(0.14 -0.14)">
     <defs>
      <path id="AppleSDGothicNeo-Regular-36" d="M 1837 192 
C 2707 192 3232 826 3232 1645 
C 3232 2464 2656 2957 1939 2957 
C 1459 2957 1107 2733 877 2496 
C 941 3834 1350 4205 2080 4205 
C 2355 4205 2733 4096 2886 4006 
L 3034 4378 
C 2854 4486 2458 4634 2029 4634 
C 1037 4634 365 3968 365 2451 
L 365 2118 
C 365 896 877 192 1837 192 
z
M 1830 614 
C 1146 614 877 1139 877 1939 
L 877 1984 
C 1056 2240 1427 2528 1837 2528 
C 2355 2528 2720 2266 2720 1594 
C 2720 979 2387 614 1830 614 
z
" transform="scale(0.015625)"/>
      <path id="AppleSDGothicNeo-Regular-ac00" d="M 4544 5146 
L 4058 5146 
L 4058 -448 
L 4544 -448 
L 4544 2400 
L 5459 2400 
L 5459 2816 
L 4544 2816 
L 4544 5146 
z
M 3091 4544 
L 461 4544 
L 461 4134 
L 2566 4134 
C 2464 2874 1664 1696 269 1050 
L 570 666 
C 2010 1414 3059 2726 3091 4544 
z
" transform="scale(0.015625)"/>
      <path id="AppleSDGothicNeo-Regular-c9c0" d="M 3699 1248 
C 2931 1664 2221 2566 2221 3610 
L 2221 4179 
L 3526 4179 
L 3526 4582 
L 410 4582 
L 410 4179 
L 1715 4179 
L 1715 3603 
C 1715 2547 1043 1594 224 1114 
L 525 755 
C 1171 1171 1786 1888 1971 2586 
C 2163 1926 2874 1222 3398 883 
L 3699 1248 
z
M 4346 5146 
L 4346 -448 
L 4832 -448 
L 4832 5146 
L 4346 5146 
z
" transform="scale(0.015625)"/>
      <path id="AppleSDGothicNeo-Regular-20" transform="scale(0.015625)"/>
      <path id="AppleSDGothicNeo-Regular-b9d0" d="M 5395 3494 
L 5395 3904 
L 4544 3904 
L 4544 5146 
L 4058 5146 
L 4058 2285 
L 4544 2285 
L 4544 3494 
L 5395 3494 
z
M 4749 -410 
L 4749 -6 
L 1466 -6 
L 1466 634 
L 4544 634 
L 4544 1978 
L 979 1978 
L 979 1574 
L 4058 1574 
L 4058 1011 
L 979 1011 
L 979 -410 
L 4749 -410 
z
M 3098 2509 
L 3098 4794 
L 442 4794 
L 442 2509 
L 3098 2509 
z
M 2611 2912 
L 928 2912 
L 928 4390 
L 2611 4390 
L 2611 2912 
z
" transform="scale(0.015625)"/>
      <path id="AppleSDGothicNeo-Regular-d22c" d="M 4570 3386 
L 4570 3795 
L 1331 3795 
L 1331 4435 
L 4653 4435 
L 4653 4845 
L 845 4845 
L 845 2310 
L 4723 2310 
L 4723 2720 
L 1331 2720 
L 1331 3386 
L 4570 3386 
z
M 3002 -397 
L 3002 1338 
L 5293 1338 
L 5293 1747 
L 243 1747 
L 243 1338 
L 2515 1338 
L 2515 -397 
L 3002 -397 
z
" transform="scale(0.015625)"/>
      <path id="AppleSDGothicNeo-Regular-b808" d="M 4979 -448 
L 4979 5146 
L 4506 5146 
L 4506 -448 
L 4979 -448 
z
M 3904 -160 
L 3904 5011 
L 3430 5011 
L 3430 2970 
L 2707 2970 
L 2707 2566 
L 3430 2566 
L 3430 -160 
L 3904 -160 
z
M 2790 1485 
C 2170 1363 1389 1338 883 1338 
L 883 2611 
L 2451 2611 
L 2451 4525 
L 384 4525 
L 384 4122 
L 1958 4122 
L 1958 3014 
L 397 3014 
L 397 922 
L 877 922 
C 1632 922 2310 966 2854 1075 
L 2790 1485 
z
" transform="scale(0.015625)"/>
      <path id="AppleSDGothicNeo-Regular-c774" d="M 4845 -448 
L 4845 5146 
L 4358 5146 
L 4358 -448 
L 4845 -448 
z
M 429 2752 
C 429 1562 954 768 1869 768 
C 2797 768 3315 1562 3315 2746 
C 3315 3930 2797 4723 1869 4723 
C 954 4723 429 3930 429 2752 
z
M 2854 2746 
C 2854 1830 2464 1190 1869 1190 
C 1280 1190 890 1830 890 2746 
C 890 3667 1280 4301 1869 4301 
C 2464 4301 2854 3667 2854 2746 
z
" transform="scale(0.015625)"/>
      <path id="AppleSDGothicNeo-Regular-b354" d="M 4806 -448 
L 4806 5146 
L 4320 5146 
L 4320 3104 
L 2669 3104 
L 2669 2688 
L 4320 2688 
L 4320 -448 
L 4806 -448 
z
M 3475 1536 
C 2854 1414 1792 1331 960 1363 
L 960 4179 
L 3110 4179 
L 3110 4589 
L 474 4589 
L 474 947 
L 858 941 
C 1856 922 2912 998 3533 1114 
L 3475 1536 
z
" transform="scale(0.015625)"/>
      <path id="AppleSDGothicNeo-Regular-cc28" d="M 3546 1094 
C 2893 1344 2106 2150 2106 3168 
L 2106 3366 
L 3398 3366 
L 3398 3770 
L 320 3770 
L 320 3366 
L 1606 3366 
L 1606 3168 
C 1606 2131 851 1267 154 934 
L 448 570 
C 1043 890 1702 1626 1862 2221 
C 2061 1638 2694 992 3258 723 
L 3546 1094 
z
M 5446 2406 
L 5446 2822 
L 4544 2822 
L 4544 5146 
L 4058 5146 
L 4058 -448 
L 4544 -448 
L 4544 2406 
L 5446 2406 
z
M 2701 4378 
L 2701 4794 
L 1011 4794 
L 1011 4378 
L 2701 4378 
z
" transform="scale(0.015625)"/>
      <path id="AppleSDGothicNeo-Regular-d2b8" d="M 4525 2976 
L 4525 3386 
L 1350 3386 
L 1350 4198 
L 4634 4198 
L 4634 4608 
L 858 4608 
L 858 1696 
L 4691 1696 
L 4691 2106 
L 1350 2106 
L 1350 2976 
L 4525 2976 
z
M 5293 262 
L 5293 672 
L 243 672 
L 243 262 
L 5293 262 
z
" transform="scale(0.015625)"/>
     </defs>
     <use xlink:href="#AppleSDGothicNeo-Regular-36"/>
     <use xlink:href="#AppleSDGothicNeo-Regular-ac00" transform="translate(55.399994 0)"/>
     <use xlink:href="#AppleSDGothicNeo-Regular-c9c0" transform="translate(141.899979 0)"/>
     <use xlink:href="#AppleSDGothicNeo-Regular-20" transform="translate(228.399963 0)"/>
     <use xlink:href="#AppleSDGothicNeo-Regular-b9d0" transform="translate(254.699951 0)"/>
     <use xlink:href="#AppleSDGothicNeo-Regular-d22c" transform="translate(341.199936 0)"/>
     <use xlink:href="#AppleSDGothicNeo-Regular-20" transform="translate(427.699921 0)"/>
     <use xlink:href="#AppleSDGothicNeo-Regular-b808" transform="translate(453.999908 0)"/>
     <use xlink:href="#AppleSDGothicNeo-Regular-c774" transform="translate(540.499893 0)"/>
     <use xlink:href="#AppleSDGothicNeo-Regular-b354" transform="translate(626.999878 0)"/>
     <use xlink:href="#AppleSDGothicNeo-Regular-20" transform="translate(713.499863 0)"/>
     <use xlink:href="#AppleSDGothicNeo-Regular-cc28" transform="translate(739.79985 0)"/>
     <use xlink:href="#AppleSDGothicNeo-Regular-d2b8" transform="translate(826.299835 0)"/>
    </g>
   </g>
   <g id="legend_1">
    <g id="patch_10">
     <path d="M 544.438406 108.152609 
L 614.052 108.152609 
Q 615.852 108.152609 615.852 106.352609 
L 615.852 33.053234 
Q 615.852 31.253234 614.052 31.253234 
L 544.438406 31.253234 
Q 542.638406 31.253234 542.638406 33.053234 
L 542.638406 106.352609 
Q 542.638406 108.152609 544.438406 108.152609 
z
" style="fill: #ffffff; opacity: 0.8; stroke: #cccccc; stroke-linejoin: miter"/>
    </g>
    <g id="line2d_18">
     <path d="M 546.238406 38.616359 
L 555.238406 38.616359 
L 564.238406 38.616359 
" style="fill: none; stroke: #002060; stroke-width: 1.8; stroke-linecap: square"/>
     <g>
      <use xlink:href="#m848ee63fc5" x="555.238406" y="38.616359" style="fill: #002060; stroke: #002060"/>
     </g>
    </g>
    <g id="text_13">
     <!-- A. 강의형 -->
     <g transform="translate(571.438406 41.766359) scale(0.09 -0.09)">
      <defs>
       <path id="AppleSDGothicNeo-Regular-41" d="M 122 269 
L 608 269 
L 1050 1523 
L 2771 1523 
L 3226 269 
L 3757 269 
L 2189 4563 
L 1696 4563 
L 122 269 
z
M 1901 3885 
L 1914 3885 
L 2611 1952 
L 1197 1952 
L 1901 3885 
z
" transform="scale(0.015625)"/>
       <path id="AppleSDGothicNeo-Regular-2e" d="M 269 109 
L 826 109 
L 826 678 
L 269 678 
L 269 109 
z
" transform="scale(0.015625)"/>
       <path id="AppleSDGothicNeo-Regular-ac15" d="M 5395 3168 
L 5395 3571 
L 4544 3571 
L 4544 5146 
L 4058 5146 
L 4058 1702 
L 4544 1702 
L 4544 3168 
L 5395 3168 
z
M 4614 640 
C 4614 1306 3910 1715 2733 1715 
C 1562 1715 864 1306 864 640 
C 864 -26 1562 -435 2733 -435 
C 3910 -435 4614 -26 4614 640 
z
M 2733 1318 
C 3584 1318 4115 1069 4115 640 
C 4115 211 3584 -32 2733 -32 
C 1888 -32 1363 211 1363 640 
C 1363 1069 1888 1318 2733 1318 
z
M 448 4710 
L 448 4294 
L 2490 4294 
C 2349 3334 1312 2426 211 2182 
L 461 1779 
C 1888 2214 2957 3245 3040 4710 
L 448 4710 
z
" transform="scale(0.015625)"/>
       <path id="AppleSDGothicNeo-Regular-c758" d="M 4352 5146 
L 4352 -448 
L 4838 -448 
L 4838 5146 
L 4352 5146 
z
M 3469 3379 
C 3469 4198 2842 4710 2016 4710 
C 1203 4710 557 4166 557 3379 
C 557 2630 1190 2080 2016 2080 
C 2822 2080 3469 2586 3469 3379 
z
M 2995 3379 
C 2995 2854 2547 2490 2016 2490 
C 1472 2490 1030 2861 1030 3379 
C 1030 3904 1478 4294 2016 4294 
C 2560 4294 2995 3942 2995 3379 
z
M 4026 973 
L 3981 1370 
C 3571 1318 2848 1274 2067 1248 
C 1389 1210 730 1197 250 1203 
L 339 774 
C 762 781 1376 800 2035 832 
C 2746 864 3546 915 4026 973 
z
" transform="scale(0.015625)"/>
       <path id="AppleSDGothicNeo-Regular-d615" d="M 4838 525 
C 4838 1120 4192 1491 2976 1491 
C 1760 1491 1133 1126 1133 525 
C 1133 -70 1760 -435 2976 -435 
C 4192 -435 4838 -70 4838 525 
z
M 2976 1094 
C 3827 1094 4333 883 4333 525 
C 4333 160 3827 -38 2976 -38 
C 2131 -38 1638 166 1638 525 
C 1638 877 2131 1094 2976 1094 
z
M 4813 1491 
L 4813 5146 
L 4326 5146 
L 4326 3686 
L 3341 3686 
L 3341 3290 
L 4326 3290 
L 4326 2650 
L 3341 2650 
L 3341 2246 
L 4326 2246 
L 4326 1491 
L 4813 1491 
z
M 2643 4621 
L 2643 5037 
L 1043 5037 
L 1043 4621 
L 2643 4621 
z
M 3386 3827 
L 3386 4218 
L 262 4218 
L 262 3827 
L 3386 3827 
z
M 3155 2611 
C 3155 3187 2605 3539 1862 3539 
C 1133 3539 582 3187 582 2611 
C 582 2042 1139 1683 1862 1683 
C 2605 1683 3155 2048 3155 2611 
z
M 2669 2611 
C 2669 2266 2304 2074 1862 2074 
C 1440 2074 1062 2266 1062 2611 
C 1062 2957 1434 3149 1862 3149 
C 2304 3149 2669 2957 2669 2611 
z
" transform="scale(0.015625)"/>
      </defs>
      <use xlink:href="#AppleSDGothicNeo-Regular-41"/>
      <use xlink:href="#AppleSDGothicNeo-Regular-2e" transform="translate(60.499985 0)"/>
      <use xlink:href="#AppleSDGothicNeo-Regular-20" transform="translate(83.099976 0)"/>
      <use xlink:href="#AppleSDGothicNeo-Regular-ac15" transform="translate(109.399963 0)"/>
      <use xlink:href="#AppleSDGothicNeo-Regular-c758" transform="translate(195.899948 0)"/>
      <use xlink:href="#AppleSDGothicNeo-Regular-d615" transform="translate(282.399933 0)"/>
     </g>
    </g>
    <g id="line2d_19">
     <path d="M 546.238406 50.982922 
L 555.238406 50.982922 
L 564.238406 50.982922 
" style="fill: none; stroke: #4a148c; stroke-width: 1.8; stroke-linecap: square"/>
     <g>
      <use xlink:href="#m34c3c14123" x="555.238406" y="50.982922" style="fill: #4a148c; stroke: #4a148c"/>
     </g>
    </g>
    <g id="text_14">
     <!-- B. 경험자형 -->
     <g transform="translate(571.438406 54.132922) scale(0.09 -0.09)">
      <defs>
       <path id="AppleSDGothicNeo-Regular-42" d="M 550 269 
L 1990 269 
C 2957 269 3443 768 3443 1478 
C 3443 2131 3059 2432 2534 2515 
L 2534 2547 
C 3040 2694 3251 3034 3251 3482 
C 3251 4166 2854 4563 1862 4563 
L 550 4563 
L 550 269 
z
M 1056 691 
L 1056 2285 
L 1907 2285 
C 2547 2285 2906 2067 2906 1510 
C 2906 960 2579 691 1958 691 
L 1056 691 
z
M 1056 2688 
L 1056 4134 
L 1824 4134 
C 2426 4134 2733 3962 2733 3424 
C 2733 2867 2330 2688 1792 2688 
L 1056 2688 
z
" transform="scale(0.015625)"/>
       <path id="AppleSDGothicNeo-Regular-acbd" d="M 4858 640 
C 4858 1286 4166 1696 2957 1696 
C 1734 1696 1050 1286 1050 640 
C 1050 -13 1734 -422 2957 -422 
C 4166 -422 4858 -13 4858 640 
z
M 2957 1286 
C 3840 1286 4358 1050 4358 640 
C 4358 224 3840 -19 2957 -19 
C 2074 -19 1555 224 1555 640 
C 1555 1050 2074 1286 2957 1286 
z
M 3091 2560 
L 4326 2560 
L 4326 1613 
L 4813 1613 
L 4813 5146 
L 4326 5146 
L 4326 4134 
L 3181 4134 
L 3181 3731 
L 4326 3731 
L 4326 2963 
L 3091 2963 
L 3091 2560 
z
M 3123 4710 
L 550 4710 
L 550 4294 
L 2573 4294 
C 2406 3347 1459 2419 307 2099 
L 550 1683 
C 2029 2202 3040 3302 3123 4710 
z
" transform="scale(0.015625)"/>
       <path id="AppleSDGothicNeo-Regular-d5d8" d="M 4819 -365 
L 4819 1389 
L 1203 1389 
L 1203 -365 
L 4819 -365 
z
M 4333 38 
L 1690 38 
L 1690 986 
L 4333 986 
L 4333 38 
z
M 4813 1690 
L 4813 5146 
L 4326 5146 
L 4326 3341 
L 3366 3341 
L 3366 2938 
L 4326 2938 
L 4326 1690 
L 4813 1690 
z
M 2688 4614 
L 2688 5024 
L 1082 5024 
L 1082 4614 
L 2688 4614 
z
M 3501 3821 
L 3501 4218 
L 237 4218 
L 237 3821 
L 3501 3821 
z
M 3206 2650 
C 3206 3226 2637 3571 1882 3571 
C 1126 3571 557 3226 557 2650 
C 557 2086 1133 1728 1882 1728 
C 2637 1728 3206 2093 3206 2650 
z
M 2726 2650 
C 2726 2310 2330 2106 1882 2106 
C 1453 2106 1037 2310 1037 2650 
C 1037 2995 1446 3194 1882 3194 
C 2330 3194 2726 2995 2726 2650 
z
" transform="scale(0.015625)"/>
       <path id="AppleSDGothicNeo-Regular-c790" d="M 3558 1229 
C 2790 1664 2106 2541 2106 3584 
L 2106 4147 
L 3398 4147 
L 3398 4557 
L 307 4557 
L 307 4147 
L 1600 4147 
L 1600 3571 
C 1600 2566 954 1581 128 1094 
L 448 730 
C 1120 1197 1664 1888 1856 2566 
C 2054 1901 2739 1197 3264 864 
L 3558 1229 
z
M 5453 2464 
L 5453 2874 
L 4544 2874 
L 4544 5146 
L 4058 5146 
L 4058 -448 
L 4544 -448 
L 4544 2464 
L 5453 2464 
z
" transform="scale(0.015625)"/>
      </defs>
      <use xlink:href="#AppleSDGothicNeo-Regular-42"/>
      <use xlink:href="#AppleSDGothicNeo-Regular-2e" transform="translate(58.599991 0)"/>
      <use xlink:href="#AppleSDGothicNeo-Regular-20" transform="translate(81.199982 0)"/>
      <use xlink:href="#AppleSDGothicNeo-Regular-acbd" transform="translate(107.499969 0)"/>
      <use xlink:href="#AppleSDGothicNeo-Regular-d5d8" transform="translate(193.999954 0)"/>
      <use xlink:href="#AppleSDGothicNeo-Regular-c790" transform="translate(280.499939 0)"/>
      <use xlink:href="#AppleSDGothicNeo-Regular-d615" transform="translate(366.999924 0)"/>
     </g>
    </g>
    <g id="line2d_20">
     <path d="M 546.238406 63.349484 
L 555.238406 63.349484 
L 564.238406 63.349484 
" style="fill: none; stroke: #2e7d32; stroke-width: 1.8; stroke-linecap: square"/>
     <g>
      <use xlink:href="#m37a7ff37ac" x="555.238406" y="63.349484" style="fill: #2e7d32; stroke: #2e7d32"/>
     </g>
    </g>
    <g id="text_15">
     <!-- C. 보고서형 -->
     <g transform="translate(571.438406 66.499484) scale(0.09 -0.09)">
      <defs>
       <path id="AppleSDGothicNeo-Regular-43" d="M 2182 198 
C 2688 198 3078 314 3366 480 
L 3366 909 
C 3098 774 2778 627 2246 627 
C 1261 627 851 1267 851 2368 
L 851 2579 
C 851 3718 1427 4205 2240 4205 
C 2662 4205 2982 4109 3322 3974 
L 3322 4397 
C 3059 4538 2726 4634 2266 4634 
C 1171 4634 314 4032 314 2496 
L 314 2368 
C 314 915 1024 198 2182 198 
z
" transform="scale(0.015625)"/>
       <path id="AppleSDGothicNeo-Regular-bcf4" d="M 4678 1798 
L 4678 4762 
L 4192 4762 
L 4192 3731 
L 1344 3731 
L 1344 4762 
L 851 4762 
L 851 1798 
L 2515 1798 
L 2515 659 
L 243 659 
L 243 250 
L 5293 250 
L 5293 659 
L 3002 659 
L 3002 1798 
L 4678 1798 
z
M 4192 2202 
L 1344 2202 
L 1344 3328 
L 4192 3328 
L 4192 2202 
z
" transform="scale(0.015625)"/>
       <path id="AppleSDGothicNeo-Regular-ace0" d="M 5293 358 
L 5293 768 
L 2656 768 
L 2656 2790 
L 2170 2790 
L 2170 768 
L 243 768 
L 243 358 
L 5293 358 
z
M 4614 4563 
L 762 4563 
L 762 4154 
L 4109 4154 
L 4109 3610 
C 4109 2874 4038 2029 3910 1504 
L 4390 1427 
C 4557 2138 4608 3008 4614 3859 
L 4614 4563 
z
" transform="scale(0.015625)"/>
       <path id="AppleSDGothicNeo-Regular-c11c" d="M 4832 -448 
L 4832 5146 
L 4346 5146 
L 4346 3149 
L 3040 3149 
L 3040 2739 
L 4346 2739 
L 4346 -448 
L 4832 -448 
z
M 3590 1261 
C 2822 1709 2157 2618 2157 3642 
L 2157 4659 
L 1651 4659 
L 1651 3622 
C 1651 2630 1005 1638 192 1126 
L 512 762 
C 1158 1229 1709 1920 1907 2618 
C 2131 1946 2778 1235 3290 890 
L 3590 1261 
z
" transform="scale(0.015625)"/>
      </defs>
      <use xlink:href="#AppleSDGothicNeo-Regular-43"/>
      <use xlink:href="#AppleSDGothicNeo-Regular-2e" transform="translate(56.999985 0)"/>
      <use xlink:href="#AppleSDGothicNeo-Regular-20" transform="translate(79.599976 0)"/>
      <use xlink:href="#AppleSDGothicNeo-Regular-bcf4" transform="translate(105.899963 0)"/>
      <use xlink:href="#AppleSDGothicNeo-Regular-ace0" transform="translate(192.399948 0)"/>
      <use xlink:href="#AppleSDGothicNeo-Regular-c11c" transform="translate(278.899933 0)"/>
      <use xlink:href="#AppleSDGothicNeo-Regular-d615" transform="translate(365.399918 0)"/>
     </g>
    </g>
    <g id="line2d_21">
     <path d="M 546.238406 75.716047 
L 555.238406 75.716047 
L 564.238406 75.716047 
" style="fill: none; stroke: #f57f17; stroke-width: 1.8; stroke-linecap: square"/>
     <g>
      <use xlink:href="#m0cafa16f04" x="555.238406" y="75.716047" style="fill: #f57f17; stroke: #f57f17"/>
     </g>
    </g>
    <g id="text_16">
     <!-- D. 선배형 -->
     <g transform="translate(571.438406 78.866047) scale(0.09 -0.09)">
      <defs>
       <path id="AppleSDGothicNeo-Regular-44" d="M 550 269 
L 1830 269 
C 3226 269 3853 1056 3853 2406 
L 3853 2528 
C 3853 3898 3130 4563 1824 4563 
L 550 4563 
L 550 269 
z
M 1056 704 
L 1056 4128 
L 1773 4128 
C 2758 4128 3302 3718 3302 2528 
L 3302 2336 
C 3302 1190 2854 704 1843 704 
L 1056 704 
z
" transform="scale(0.015625)"/>
       <path id="AppleSDGothicNeo-Regular-c120" d="M 4813 1082 
L 4813 5146 
L 4326 5146 
L 4326 3731 
L 3136 3731 
L 3136 3322 
L 4326 3322 
L 4326 1082 
L 4813 1082 
z
M 4934 -275 
L 4934 128 
L 1702 128 
L 1702 1434 
L 1216 1434 
L 1216 -275 
L 4934 -275 
z
M 3514 2298 
C 2854 2541 2106 3213 2106 4147 
L 2106 4826 
L 1613 4826 
L 1613 4128 
C 1613 3226 934 2464 192 2138 
L 493 1760 
C 1101 2067 1702 2675 1869 3277 
C 2106 2688 2675 2163 3238 1914 
L 3514 2298 
z
" transform="scale(0.015625)"/>
       <path id="AppleSDGothicNeo-Regular-bc30" d="M 2662 954 
L 2662 4589 
L 2182 4589 
L 2182 3219 
L 909 3219 
L 909 4589 
L 429 4589 
L 429 954 
L 2662 954 
z
M 4960 -448 
L 4960 5146 
L 4480 5146 
L 4480 2848 
L 3795 2848 
L 3795 5011 
L 3322 5011 
L 3322 -166 
L 3795 -166 
L 3795 2438 
L 4480 2438 
L 4480 -448 
L 4960 -448 
z
M 2182 1363 
L 909 1363 
L 909 2816 
L 2182 2816 
L 2182 1363 
z
" transform="scale(0.015625)"/>
      </defs>
      <use xlink:href="#AppleSDGothicNeo-Regular-44"/>
      <use xlink:href="#AppleSDGothicNeo-Regular-2e" transform="translate(64.999985 0)"/>
      <use xlink:href="#AppleSDGothicNeo-Regular-20" transform="translate(87.599976 0)"/>
      <use xlink:href="#AppleSDGothicNeo-Regular-c120" transform="translate(113.899963 0)"/>
      <use xlink:href="#AppleSDGothicNeo-Regular-bc30" transform="translate(200.399948 0)"/>
      <use xlink:href="#AppleSDGothicNeo-Regular-d615" transform="translate(286.899933 0)"/>
     </g>
    </g>
    <g id="line2d_22">
     <path d="M 546.238406 88.082609 
L 555.238406 88.082609 
L 564.238406 88.082609 
" style="fill: none; stroke: #c62828; stroke-width: 1.8; stroke-linecap: square"/>
     <g>
      <use xlink:href="#m701cc6d59d" x="555.238406" y="88.082609" style="fill: #c62828; stroke: #c62828"/>
     </g>
    </g>
    <g id="text_17">
     <!-- E. 마케팅형 -->
     <g transform="translate(571.438406 91.232609) scale(0.09 -0.09)">
      <defs>
       <path id="AppleSDGothicNeo-Regular-45" d="M 557 269 
L 3123 269 
L 3123 698 
L 1062 698 
L 1062 2266 
L 2637 2266 
L 2637 2694 
L 1062 2694 
L 1062 4134 
L 3104 4134 
L 3104 4563 
L 557 4563 
L 557 269 
z
" transform="scale(0.015625)"/>
       <path id="AppleSDGothicNeo-Regular-b9c8" d="M 3034 960 
L 3034 4570 
L 416 4570 
L 416 960 
L 3034 960 
z
M 2547 1363 
L 902 1363 
L 902 4166 
L 2547 4166 
L 2547 1363 
z
M 5459 2483 
L 5459 2893 
L 4544 2893 
L 4544 5146 
L 4058 5146 
L 4058 -448 
L 4544 -448 
L 4544 2483 
L 5459 2483 
z
" transform="scale(0.015625)"/>
       <path id="AppleSDGothicNeo-Regular-cf00" d="M 2637 4506 
L 461 4506 
L 461 4096 
L 2138 4096 
C 2125 3782 2080 3482 1997 3187 
L 230 3059 
L 339 2618 
L 1856 2790 
C 1562 2106 1030 1504 192 1050 
L 512 691 
C 1952 1574 2637 2790 2637 4506 
z
M 3872 -166 
L 3872 5011 
L 3405 5011 
L 3405 2970 
L 2541 2970 
L 2541 2566 
L 3405 2566 
L 3405 -166 
L 3872 -166 
z
M 4960 -448 
L 4960 5146 
L 4480 5146 
L 4480 -448 
L 4960 -448 
z
" transform="scale(0.015625)"/>
       <path id="AppleSDGothicNeo-Regular-d305" d="M 4851 608 
C 4851 1248 4173 1651 2970 1651 
C 1773 1651 1101 1248 1101 608 
C 1101 -26 1773 -422 2970 -422 
C 4173 -422 4851 -26 4851 608 
z
M 4813 5146 
L 4326 5146 
L 4326 1664 
L 4813 1664 
L 4813 5146 
z
M 4333 608 
C 4333 218 3834 -13 2970 -13 
C 2125 -13 1619 218 1619 608 
C 1619 1005 2125 1242 2970 1242 
C 3834 1242 4333 1005 4333 608 
z
M 3699 2598 
C 3021 2483 1952 2451 1197 2451 
L 1018 2451 
L 1018 3251 
L 3085 3251 
L 3085 3648 
L 1018 3648 
L 1018 4358 
L 3142 4358 
L 3142 4762 
L 531 4762 
L 531 2042 
L 1050 2042 
C 1862 2042 3104 2099 3750 2195 
L 3699 2598 
z
" transform="scale(0.015625)"/>
      </defs>
      <use xlink:href="#AppleSDGothicNeo-Regular-45"/>
      <use xlink:href="#AppleSDGothicNeo-Regular-2e" transform="translate(54.999985 0)"/>
      <use xlink:href="#AppleSDGothicNeo-Regular-20" transform="translate(77.599976 0)"/>
      <use xlink:href="#AppleSDGothicNeo-Regular-b9c8" transform="translate(103.899963 0)"/>
      <use xlink:href="#AppleSDGothicNeo-Regular-cf00" transform="translate(190.399948 0)"/>
      <use xlink:href="#AppleSDGothicNeo-Regular-d305" transform="translate(276.899933 0)"/>
      <use xlink:href="#AppleSDGothicNeo-Regular-d615" transform="translate(363.399918 0)"/>
     </g>
    </g>
    <g id="line2d_23">
     <path d="M 546.238406 100.449172 
L 555.238406 100.449172 
L 564.238406 100.449172 
" style="fill: none; stroke: #bdbdbd; stroke-width: 1.8; stroke-linecap: square"/>
     <g>
      <use xlink:href="#m9df84f701d" x="555.238406" y="100.449172" style="fill: #bdbdbd; stroke: #bdbdbd"/>
     </g>
    </g>
    <g id="text_18">
     <!-- F. 기사형 -->
     <g transform="translate(571.438406 103.599172) scale(0.09 -0.09)">
      <defs>
       <path id="AppleSDGothicNeo-Regular-46" d="M 550 269 
L 1056 269 
L 1056 2195 
L 2586 2195 
L 2586 2630 
L 1056 2630 
L 1056 4134 
L 3040 4134 
L 3040 4563 
L 550 4563 
L 550 269 
z
" transform="scale(0.015625)"/>
       <path id="AppleSDGothicNeo-Regular-ae30" d="M 4813 -448 
L 4813 5146 
L 4326 5146 
L 4326 -448 
L 4813 -448 
z
M 3168 4550 
L 506 4550 
L 506 4141 
L 2650 4141 
C 2547 2880 1715 1664 301 1043 
L 582 659 
C 2029 1344 3142 2733 3168 4550 
z
" transform="scale(0.015625)"/>
       <path id="AppleSDGothicNeo-Regular-c0ac" d="M 5446 2477 
L 5446 2886 
L 4544 2886 
L 4544 5146 
L 4058 5146 
L 4058 -448 
L 4544 -448 
L 4544 2477 
L 5446 2477 
z
M 3526 1286 
C 2752 1741 2048 2656 2048 3674 
L 2048 4653 
L 1549 4653 
L 1549 3661 
C 1549 2669 890 1664 77 1165 
L 390 787 
C 1050 1248 1594 1958 1792 2656 
C 2016 1978 2643 1312 3219 915 
L 3526 1286 
z
" transform="scale(0.015625)"/>
      </defs>
      <use xlink:href="#AppleSDGothicNeo-Regular-46"/>
      <use xlink:href="#AppleSDGothicNeo-Regular-2e" transform="translate(51.599991 0)"/>
      <use xlink:href="#AppleSDGothicNeo-Regular-20" transform="translate(74.199982 0)"/>
      <use xlink:href="#AppleSDGothicNeo-Regular-ae30" transform="translate(100.499969 0)"/>
      <use xlink:href="#AppleSDGothicNeo-Regular-c0ac" transform="translate(186.999954 0)"/>
      <use xlink:href="#AppleSDGothicNeo-Regular-d615" transform="translate(273.499939 0)"/>
     </g>
    </g>
   </g>
  </g>
 </g>
 <defs>
  <clipPath id="pe91804c7cb">
   <path d="M 465.12 292.865234 
C 465.12 263.743978 459.383747 234.905889 448.239525 208.001356 
C 437.095303 181.096824 420.759838 156.649072 400.168 136.057235 
C 379.576162 115.465397 355.128411 99.129932 328.223878 87.985709 
C 301.319345 76.841487 272.481256 71.105234 243.36 71.105234 
C 214.238744 71.105234 185.400655 76.841487 158.496122 87.985709 
C 131.591589 99.129932 107.143838 115.465397 86.552 136.057235 
C 65.960162 156.649072 49.624697 181.096824 38.480475 208.001356 
C 27.336253 234.905889 21.6 263.743978 21.6 292.865234 
C 21.6 321.986491 27.336253 350.82458 38.480475 377.729112 
C 49.624697 404.633645 65.960162 429.081396 86.552 449.673234 
C 107.143838 470.265072 131.591589 486.600537 158.496122 497.74476 
C 185.400655 508.888982 214.238744 514.625234 243.36 514.625234 
C 272.481256 514.625234 301.319345 508.888982 328.223878 497.74476 
C 355.128411 486.600537 379.576162 470.265072 400.168 449.673234 
C 420.759838 429.081396 437.095303 404.633645 448.239525 377.729112 
C 459.383747 350.82458 465.12 321.986491 465.12 292.865234 
M 243.36 292.865234 
C 243.36 292.865234 243.36 292.865234 243.36 292.865234 
C 243.36 292.865234 243.36 292.865234 243.36 292.865234 
C 243.36 292.865234 243.36 292.865234 243.36 292.865234 
C 243.36 292.865234 243.36 292.865234 243.36 292.865234 
C 243.36 292.865234 243.36 292.865234 243.36 292.865234 
C 243.36 292.865234 243.36 292.865234 243.36 292.865234 
C 243.36 292.865234 243.36 292.865234 243.36 292.865234 
C 243.36 292.865234 243.36 292.865234 243.36 292.865234 
C 243.36 292.865234 243.36 292.865234 243.36 292.865234 
C 243.36 292.865234 243.36 292.865234 243.36 292.865234 
C 243.36 292.865234 243.36 292.865234 243.36 292.865234 
C 243.36 292.865234 243.36 292.865234 243.36 292.865234 
C 243.36 292.865234 243.36 292.865234 243.36 292.865234 
C 243.36 292.865234 243.36 292.865234 243.36 292.865234 
C 243.36 292.865234 243.36 292.865234 243.36 292.865234 
C 243.36 292.865234 243.36 292.865234 243.36 292.865234 
z
"/>
  </clipPath>
 </defs>
</svg>
