<?xml version="1.0" encoding="utf-8" standalone="no"?>
<!DOCTYPE svg PUBLIC "-//W3C//DTD SVG 1.1//EN"
  "http://www.w3.org/Graphics/SVG/1.1/DTD/svg11.dtd">
<svg xmlns:xlink="http://www.w3.org/1999/xlink" width="489.6pt" height="432.31375pt" viewBox="0 0 489.6 432.31375" xmlns="http://www.w3.org/2000/svg" version="1.1">
 <metadata>
  <rdf:RDF xmlns:dc="http://purl.org/dc/elements/1.1/" xmlns:cc="http://creativecommons.org/ns#" xmlns:rdf="http://www.w3.org/1999/02/22-rdf-syntax-ns#">
   <cc:Work>
    <dc:type rdf:resource="http://purl.org/dc/dcmitype/StillImage"/>
    <dc:date>2026-02-18T23:23:36.573903</dc:date>
    <dc:format>image/svg+xml</dc:format>
    <dc:creator>
     <cc:Agent>
      <dc:title>Matplotlib v3.10.8, https://matplotlib.org/</dc:title>
     </cc:Agent>
    </dc:creator>
   </cc:Work>
  </rdf:RDF>
 </metadata>
 <defs>
  <style type="text/css">*{stroke-linejoin: round; stroke-linecap: butt}</style>
 </defs>
 <g id="figure_1">
  <g id="patch_1">
   <path d="M 0 432.31375 
L 489.6 432.31375 
L 489.6 0 
L 0 0 
z
" style="fill: #ffffff"/>
  </g>
  <g id="axes_1">
   <g id="patch_2">
    <path d="M 82.472727 364.060973 
L 407.127273 364.060973 
Q 411.185455 364.060973 411.185455 358.610882 
L 411.185455 304.109975 
Q 411.185455 298.659884 407.127273 298.659884 
L 82.472727 298.659884 
Q 78.414545 298.659884 78.414545 304.109975 
L 78.414545 358.610882 
Q 78.414545 364.060973 82.472727 364.060973 
z
" clip-path="url(#p8175d7d5f0)" style="fill: #e3f2fd; stroke: #002060; stroke-width: 1.2; stroke-linejoin: miter"/>
   </g>
   <g id="patch_3">
    <path d="M 123.054545 298.659884 
L 366.545455 298.659884 
Q 370.603636 298.659884 370.603636 293.209794 
L 370.603636 238.708886 
Q 370.603636 233.258795 366.545455 233.258795 
L 123.054545 233.258795 
Q 118.996364 233.258795 118.996364 238.708886 
L 118.996364 293.209794 
Q 118.996364 298.659884 123.054545 298.659884 
z
" clip-path="url(#p8175d7d5f0)" style="fill: #f3e5f5; stroke: #4a148c; stroke-width: 1.2; stroke-linejoin: miter"/>
   </g>
   <g id="patch_4">
    <path d="M 163.636364 233.258795 
L 325.963636 233.258795 
Q 330.021818 233.258795 330.021818 227.808705 
L 330.021818 173.307797 
Q 330.021818 167.857706 325.963636 167.857706 
L 163.636364 167.857706 
Q 159.578182 167.857706 159.578182 173.307797 
L 159.578182 227.808705 
Q 159.578182 233.258795 163.636364 233.258795 
z
" clip-path="url(#p8175d7d5f0)" style="fill: #e8f5e9; stroke: #2e7d32; stroke-width: 1.2; stroke-linejoin: miter"/>
   </g>
   <g id="patch_5">
    <path d="M 204.218182 167.857706 
L 285.381818 167.857706 
Q 289.44 167.857706 289.44 162.407616 
L 289.44 107.906708 
Q 289.44 102.456618 285.381818 102.456618 
L 204.218182 102.456618 
Q 200.16 102.456618 200.16 107.906708 
L 200.16 162.407616 
Q 200.16 167.857706 204.218182 167.857706 
z
" clip-path="url(#p8175d7d5f0)" style="fill: #fffde7; stroke: #f57f17; stroke-width: 1.2; stroke-linejoin: miter"/>
   </g>
   <g id="text_1">
    <!-- 인공지능 (AI) -->
    <g style="fill: #002060" transform="translate(213.473437 328.793445) scale(0.12 -0.12)">
     <defs>
      <path id="AppleSDGothicNeo-Regular-c778" d="M 4813 1062 
L 4813 5146 
L 4326 5146 
L 4326 1062 
L 4813 1062 
z
M 4954 -262 
L 4954 141 
L 1651 141 
L 1651 1466 
L 1165 1466 
L 1165 -262 
L 4954 -262 
z
M 1869 4774 
C 1024 4774 365 4205 365 3373 
C 365 2541 1024 1990 1875 1990 
C 2726 1990 3379 2547 3379 3379 
C 3379 4211 2720 4774 1869 4774 
z
M 1869 4352 
C 2490 4352 2918 3949 2918 3373 
C 2918 2816 2490 2419 1875 2419 
C 1286 2419 832 2816 832 3379 
C 832 3949 1280 4352 1869 4352 
z
" transform="scale(0.015625)"/>
      <path id="AppleSDGothicNeo-Regular-acf5" d="M 4762 608 
C 4762 1235 4064 1619 2758 1619 
C 1453 1619 742 1235 742 608 
C 742 -19 1453 -397 2758 -397 
C 4064 -397 4762 -19 4762 608 
z
M 4282 608 
C 4282 218 3693 -6 2758 -6 
C 1811 -6 1229 218 1229 608 
C 1229 992 1811 1222 2758 1222 
C 3693 1222 4282 992 4282 608 
z
M 5293 2074 
L 5293 2477 
L 2810 2477 
L 2810 3661 
L 2323 3661 
L 2323 2477 
L 243 2477 
L 243 2074 
L 5293 2074 
z
M 4698 4838 
L 800 4838 
L 800 4435 
L 4198 4435 
L 4192 3981 
C 4186 3725 4147 3219 4058 2912 
L 4538 2848 
C 4627 3194 4698 3872 4698 4339 
L 4698 4838 
z
" transform="scale(0.015625)"/>
      <path id="AppleSDGothicNeo-Regular-c9c0" d="M 3699 1248 
C 2931 1664 2221 2566 2221 3610 
L 2221 4179 
L 3526 4179 
L 3526 4582 
L 410 4582 
L 410 4179 
L 1715 4179 
L 1715 3603 
C 1715 2547 1043 1594 224 1114 
L 525 755 
C 1171 1171 1786 1888 1971 2586 
C 2163 1926 2874 1222 3398 883 
L 3699 1248 
z
M 4346 5146 
L 4346 -448 
L 4832 -448 
L 4832 5146 
L 4346 5146 
z
" transform="scale(0.015625)"/>
      <path id="AppleSDGothicNeo-Regular-b2a5" d="M 5293 2131 
L 5293 2534 
L 243 2534 
L 243 2131 
L 5293 2131 
z
M 4710 3142 
L 4710 3546 
L 1434 3546 
L 1434 4998 
L 947 4998 
L 947 3142 
L 4710 3142 
z
M 4742 627 
C 4742 1293 3994 1664 2771 1664 
C 1555 1664 819 1293 819 627 
C 819 -45 1555 -416 2778 -416 
C 3994 -416 4742 -45 4742 627 
z
M 2771 1267 
C 3661 1267 4250 1062 4250 627 
C 4250 192 3661 -13 2771 -13 
C 1894 -13 1312 192 1312 627 
C 1312 1062 1894 1267 2771 1267 
z
" transform="scale(0.015625)"/>
      <path id="AppleSDGothicNeo-Regular-20" transform="scale(0.015625)"/>
      <path id="AppleSDGothicNeo-Regular-28" d="M 1472 -384 
L 1914 -384 
C 1344 256 883 1235 883 2221 
L 883 2374 
C 883 3392 1344 4307 1914 4941 
L 1472 4941 
C 883 4339 365 3469 365 2330 
L 365 2227 
C 365 1094 883 218 1472 -384 
z
" transform="scale(0.015625)"/>
      <path id="AppleSDGothicNeo-Regular-41" d="M 122 269 
L 608 269 
L 1050 1523 
L 2771 1523 
L 3226 269 
L 3757 269 
L 2189 4563 
L 1696 4563 
L 122 269 
z
M 1901 3885 
L 1914 3885 
L 2611 1952 
L 1197 1952 
L 1901 3885 
z
" transform="scale(0.015625)"/>
      <path id="AppleSDGothicNeo-Regular-49" d="M 576 269 
L 1082 269 
L 1082 4563 
L 576 4563 
L 576 269 
z
" transform="scale(0.015625)"/>
      <path id="AppleSDGothicNeo-Regular-29" d="M 115 -384 
L 550 -384 
C 1146 218 1651 1088 1651 2227 
L 1651 2330 
C 1651 3462 1146 4339 550 4941 
L 115 4941 
C 678 4301 1146 3322 1146 2336 
L 1146 2176 
C 1146 1165 678 250 115 -384 
z
" transform="scale(0.015625)"/>
     </defs>
     <use xlink:href="#AppleSDGothicNeo-Regular-c778"/>
     <use xlink:href="#AppleSDGothicNeo-Regular-acf5" transform="translate(86.499985 0)"/>
     <use xlink:href="#AppleSDGothicNeo-Regular-c9c0" transform="translate(172.999969 0)"/>
     <use xlink:href="#AppleSDGothicNeo-Regular-b2a5" transform="translate(259.499954 0)"/>
     <use xlink:href="#AppleSDGothicNeo-Regular-20" transform="translate(345.999939 0)"/>
     <use xlink:href="#AppleSDGothicNeo-Regular-28" transform="translate(372.299927 0)"/>
     <use xlink:href="#AppleSDGothicNeo-Regular-41" transform="translate(403.999924 0)"/>
     <use xlink:href="#AppleSDGothicNeo-Regular-49" transform="translate(464.499908 0)"/>
     <use xlink:href="#AppleSDGothicNeo-Regular-29" transform="translate(490.399902 0)"/>
    </g>
   </g>
   <g id="text_2">
    <!-- 사람의 지능을 모방하는 모든 기술 -->
    <g style="fill: #555555" transform="translate(185.571562 346.330472) scale(0.09 -0.09)">
     <defs>
      <path id="AppleSDGothicNeo-Regular-c0ac" d="M 5446 2477 
L 5446 2886 
L 4544 2886 
L 4544 5146 
L 4058 5146 
L 4058 -448 
L 4544 -448 
L 4544 2477 
L 5446 2477 
z
M 3526 1286 
C 2752 1741 2048 2656 2048 3674 
L 2048 4653 
L 1549 4653 
L 1549 3661 
C 1549 2669 890 1664 77 1165 
L 390 787 
C 1050 1248 1594 1958 1792 2656 
C 2016 1978 2643 1312 3219 915 
L 3526 1286 
z
" transform="scale(0.015625)"/>
      <path id="AppleSDGothicNeo-Regular-b78c" d="M 5389 3251 
L 5389 3661 
L 4538 3661 
L 4538 5146 
L 4058 5146 
L 4058 1747 
L 4538 1747 
L 4538 3251 
L 5389 3251 
z
M 4538 -365 
L 4538 1459 
L 954 1459 
L 954 -365 
L 4538 -365 
z
M 4051 38 
L 1440 38 
L 1440 1056 
L 4051 1056 
L 4051 38 
z
M 3488 2541 
C 2835 2406 1651 2368 998 2368 
L 928 2368 
L 928 3245 
L 2950 3245 
L 2950 4794 
L 429 4794 
L 429 4390 
L 2458 4390 
L 2458 3642 
L 442 3642 
L 442 1958 
L 966 1958 
C 1754 1958 2963 2042 3546 2144 
L 3488 2541 
z
" transform="scale(0.015625)"/>
      <path id="AppleSDGothicNeo-Regular-c758" d="M 4352 5146 
L 4352 -448 
L 4838 -448 
L 4838 5146 
L 4352 5146 
z
M 3469 3379 
C 3469 4198 2842 4710 2016 4710 
C 1203 4710 557 4166 557 3379 
C 557 2630 1190 2080 2016 2080 
C 2822 2080 3469 2586 3469 3379 
z
M 2995 3379 
C 2995 2854 2547 2490 2016 2490 
C 1472 2490 1030 2861 1030 3379 
C 1030 3904 1478 4294 2016 4294 
C 2560 4294 2995 3942 2995 3379 
z
M 4026 973 
L 3981 1370 
C 3571 1318 2848 1274 2067 1248 
C 1389 1210 730 1197 250 1203 
L 339 774 
C 762 781 1376 800 2035 832 
C 2746 864 3546 915 4026 973 
z
" transform="scale(0.015625)"/>
      <path id="AppleSDGothicNeo-Regular-c744" d="M 5293 2317 
L 5293 2726 
L 243 2726 
L 243 2317 
L 5293 2317 
z
M 4730 4096 
C 4730 4710 3987 5069 2771 5069 
C 1568 5069 826 4710 826 4096 
C 826 3482 1568 3130 2771 3130 
C 3987 3130 4730 3482 4730 4096 
z
M 2771 4672 
C 3661 4672 4237 4448 4237 4096 
C 4237 3750 3661 3533 2771 3533 
C 1894 3533 1325 3750 1325 4096 
C 1325 4448 1894 4672 2771 4672 
z
M 4845 -397 
L 4845 0 
L 1318 0 
L 1318 563 
L 4659 563 
L 4659 1818 
L 819 1818 
L 819 1427 
L 4173 1427 
L 4173 934 
L 832 934 
L 832 -397 
L 4845 -397 
z
" transform="scale(0.015625)"/>
      <path id="AppleSDGothicNeo-Regular-baa8" d="M 5293 262 
L 5293 672 
L 3002 672 
L 3002 2010 
L 4672 2010 
L 4672 4646 
L 851 4646 
L 851 2010 
L 2515 2010 
L 2515 672 
L 243 672 
L 243 262 
L 5293 262 
z
M 4186 2413 
L 1338 2413 
L 1338 4243 
L 4186 4243 
L 4186 2413 
z
" transform="scale(0.015625)"/>
      <path id="AppleSDGothicNeo-Regular-bc29" d="M 5395 3270 
L 5395 3674 
L 4544 3674 
L 4544 5146 
L 4058 5146 
L 4058 1805 
L 4544 1805 
L 4544 3270 
L 5395 3270 
z
M 4602 627 
C 4602 1267 3968 1690 2765 1690 
C 1587 1690 947 1267 947 627 
C 947 -19 1587 -435 2765 -435 
C 3942 -435 4602 -19 4602 627 
z
M 2765 1293 
C 3622 1293 4102 1037 4102 627 
C 4102 218 3622 -38 2765 -38 
C 1946 -38 1453 218 1453 627 
C 1453 1030 1933 1293 2765 1293 
z
M 3053 2182 
L 3053 4845 
L 2560 4845 
L 2560 3923 
L 915 3923 
L 915 4845 
L 429 4845 
L 429 2182 
L 3053 2182 
z
M 2560 2586 
L 915 2586 
L 915 3520 
L 2560 3520 
L 2560 2586 
z
" transform="scale(0.015625)"/>
      <path id="AppleSDGothicNeo-Regular-d558" d="M 5453 2374 
L 5453 2784 
L 4544 2784 
L 4544 5146 
L 4058 5146 
L 4058 -448 
L 4544 -448 
L 4544 2374 
L 5453 2374 
z
M 2694 4346 
L 2694 4762 
L 1050 4762 
L 1050 4346 
L 2694 4346 
z
M 3520 3398 
L 3520 3802 
L 218 3802 
L 218 3398 
L 3520 3398 
z
M 3187 1882 
C 3187 2541 2662 3040 1882 3040 
C 1101 3040 576 2534 576 1882 
C 576 1229 1101 730 1882 730 
C 2662 730 3187 1235 3187 1882 
z
M 2701 1882 
C 2701 1446 2362 1133 1882 1133 
C 1414 1133 1062 1446 1062 1882 
C 1062 2323 1414 2630 1882 2630 
C 2355 2630 2701 2323 2701 1882 
z
" transform="scale(0.015625)"/>
      <path id="AppleSDGothicNeo-Regular-b294" d="M 5293 1850 
L 5293 2259 
L 243 2259 
L 243 1850 
L 5293 1850 
z
M 4755 -326 
L 4755 77 
L 1389 77 
L 1389 1325 
L 902 1325 
L 902 -326 
L 4755 -326 
z
M 4730 2957 
L 4730 3360 
L 1408 3360 
L 1408 4909 
L 922 4909 
L 922 2957 
L 4730 2957 
z
" transform="scale(0.015625)"/>
      <path id="AppleSDGothicNeo-Regular-b4e0" d="M 4698 -275 
L 4698 134 
L 1357 134 
L 1357 1267 
L 870 1267 
L 870 -275 
L 4698 -275 
z
M 5293 1766 
L 5293 2170 
L 243 2170 
L 243 1766 
L 5293 1766 
z
M 4698 2912 
L 4698 3315 
L 1350 3315 
L 1350 4442 
L 4659 4442 
L 4659 4851 
L 864 4851 
L 864 2912 
L 4698 2912 
z
" transform="scale(0.015625)"/>
      <path id="AppleSDGothicNeo-Regular-ae30" d="M 4813 -448 
L 4813 5146 
L 4326 5146 
L 4326 -448 
L 4813 -448 
z
M 3168 4550 
L 506 4550 
L 506 4141 
L 2650 4141 
C 2547 2880 1715 1664 301 1043 
L 582 659 
C 2029 1344 3142 2733 3168 4550 
z
" transform="scale(0.015625)"/>
      <path id="AppleSDGothicNeo-Regular-c220" d="M 4890 -403 
L 4890 0 
L 1299 0 
L 1299 493 
L 4685 493 
L 4685 1754 
L 3002 1754 
L 3002 2355 
L 5293 2355 
L 5293 2758 
L 243 2758 
L 243 2355 
L 2515 2355 
L 2515 1754 
L 813 1754 
L 813 1357 
L 4198 1357 
L 4198 870 
L 813 870 
L 813 -403 
L 4890 -403 
z
M 5018 3501 
C 4160 3578 3027 4160 3027 4915 
L 3027 5075 
L 2522 5075 
L 2522 4915 
C 2522 4166 1510 3597 538 3494 
L 755 3091 
C 1734 3251 2547 3770 2765 4314 
C 3034 3782 3872 3258 4806 3091 
L 5018 3501 
z
" transform="scale(0.015625)"/>
     </defs>
     <use xlink:href="#AppleSDGothicNeo-Regular-c0ac"/>
     <use xlink:href="#AppleSDGothicNeo-Regular-b78c" transform="translate(86.499985 0)"/>
     <use xlink:href="#AppleSDGothicNeo-Regular-c758" transform="translate(172.999969 0)"/>
     <use xlink:href="#AppleSDGothicNeo-Regular-20" transform="translate(259.499954 0)"/>
     <use xlink:href="#AppleSDGothicNeo-Regular-c9c0" transform="translate(285.799942 0)"/>
     <use xlink:href="#AppleSDGothicNeo-Regular-b2a5" transform="translate(372.299927 0)"/>
     <use xlink:href="#AppleSDGothicNeo-Regular-c744" transform="translate(458.799911 0)"/>
     <use xlink:href="#AppleSDGothicNeo-Regular-20" transform="translate(545.299896 0)"/>
     <use xlink:href="#AppleSDGothicNeo-Regular-baa8" transform="translate(571.599884 0)"/>
     <use xlink:href="#AppleSDGothicNeo-Regular-bc29" transform="translate(658.099869 0)"/>
     <use xlink:href="#AppleSDGothicNeo-Regular-d558" transform="translate(744.599854 0)"/>
     <use xlink:href="#AppleSDGothicNeo-Regular-b294" transform="translate(831.099838 0)"/>
     <use xlink:href="#AppleSDGothicNeo-Regular-20" transform="translate(917.599823 0)"/>
     <use xlink:href="#AppleSDGothicNeo-Regular-baa8" transform="translate(943.899811 0)"/>
     <use xlink:href="#AppleSDGothicNeo-Regular-b4e0" transform="translate(1030.399796 0)"/>
     <use xlink:href="#AppleSDGothicNeo-Regular-20" transform="translate(1116.89978 0)"/>
     <use xlink:href="#AppleSDGothicNeo-Regular-ae30" transform="translate(1143.199768 0)"/>
     <use xlink:href="#AppleSDGothicNeo-Regular-c220" transform="translate(1229.699753 0)"/>
    </g>
   </g>
   <g id="text_3">
    <!-- 머신러닝 (ML) -->
    <g style="fill: #4a148c" transform="translate(210.852187 263.392356) scale(0.12 -0.12)">
     <defs>
      <path id="AppleSDGothicNeo-Regular-ba38" d="M 4326 2650 
L 4326 -448 
L 4813 -448 
L 4813 5146 
L 4326 5146 
L 4326 3059 
L 3290 3059 
L 3290 2650 
L 4326 2650 
z
M 3034 998 
L 3034 4570 
L 448 4570 
L 448 998 
L 3034 998 
z
M 2547 1402 
L 941 1402 
L 941 4166 
L 2547 4166 
L 2547 1402 
z
" transform="scale(0.015625)"/>
      <path id="AppleSDGothicNeo-Regular-c2e0" d="M 4813 1082 
L 4813 5146 
L 4326 5146 
L 4326 1082 
L 4813 1082 
z
M 3622 2355 
C 2957 2592 2202 3283 2202 4218 
L 2202 4826 
L 1709 4826 
L 1709 4205 
C 1709 3309 986 2490 250 2163 
L 544 1779 
C 1152 2086 1798 2733 1965 3334 
C 2195 2746 2771 2214 3347 1965 
L 3622 2355 
z
M 4934 -275 
L 4934 128 
L 1690 128 
L 1690 1446 
L 1203 1446 
L 1203 -275 
L 4934 -275 
z
" transform="scale(0.015625)"/>
      <path id="AppleSDGothicNeo-Regular-b7ec" d="M 4806 -448 
L 4806 5146 
L 4320 5146 
L 4320 2963 
L 3315 2963 
L 3315 2547 
L 4320 2547 
L 4320 -448 
L 4806 -448 
z
M 3418 1466 
C 2720 1344 1651 1293 922 1293 
L 922 2650 
L 2982 2650 
L 2982 4614 
L 435 4614 
L 435 4211 
L 2496 4211 
L 2496 3059 
L 435 3059 
L 435 877 
L 838 877 
C 1670 877 2893 960 3469 1062 
L 3418 1466 
z
" transform="scale(0.015625)"/>
      <path id="AppleSDGothicNeo-Regular-b2dd" d="M 4813 1722 
L 4813 5146 
L 4326 5146 
L 4326 1722 
L 4813 1722 
z
M 4858 608 
C 4858 1261 4166 1664 2950 1664 
C 1734 1664 1050 1261 1050 608 
C 1050 -38 1734 -442 2950 -442 
C 4166 -442 4858 -38 4858 608 
z
M 4358 608 
C 4358 192 3840 -38 2950 -38 
C 2074 -38 1555 192 1555 608 
C 1555 1024 2074 1267 2950 1267 
C 3840 1267 4358 1024 4358 608 
z
M 3757 2989 
C 3040 2854 1952 2739 1050 2739 
L 1050 4774 
L 557 4774 
L 557 2310 
L 877 2310 
C 1824 2310 3187 2445 3808 2579 
L 3757 2989 
z
" transform="scale(0.015625)"/>
      <path id="AppleSDGothicNeo-Regular-4d" d="M 550 269 
L 1024 269 
L 1024 3898 
L 1043 3898 
L 2285 269 
L 2758 269 
L 4013 3898 
L 4032 3898 
L 4032 269 
L 4544 269 
L 4544 4563 
L 3795 4563 
L 2560 934 
L 2547 934 
L 1306 4563 
L 550 4563 
L 550 269 
z
" transform="scale(0.015625)"/>
      <path id="AppleSDGothicNeo-Regular-4c" d="M 550 269 
L 3002 269 
L 3002 698 
L 1062 698 
L 1062 4563 
L 550 4563 
L 550 269 
z
" transform="scale(0.015625)"/>
     </defs>
     <use xlink:href="#AppleSDGothicNeo-Regular-ba38"/>
     <use xlink:href="#AppleSDGothicNeo-Regular-c2e0" transform="translate(86.499985 0)"/>
     <use xlink:href="#AppleSDGothicNeo-Regular-b7ec" transform="translate(172.999969 0)"/>
     <use xlink:href="#AppleSDGothicNeo-Regular-b2dd" transform="translate(259.499954 0)"/>
     <use xlink:href="#AppleSDGothicNeo-Regular-20" transform="translate(345.999939 0)"/>
     <use xlink:href="#AppleSDGothicNeo-Regular-28" transform="translate(372.299927 0)"/>
     <use xlink:href="#AppleSDGothicNeo-Regular-4d" transform="translate(403.999924 0)"/>
     <use xlink:href="#AppleSDGothicNeo-Regular-4c" transform="translate(483.599915 0)"/>
     <use xlink:href="#AppleSDGothicNeo-Regular-29" transform="translate(534.099899 0)"/>
    </g>
   </g>
   <g id="text_4">
    <!-- 데이터에서 패턴을 학습 -->
    <g style="fill: #555555" transform="translate(203.508281 280.929383) scale(0.09 -0.09)">
     <defs>
      <path id="AppleSDGothicNeo-Regular-b370" d="M 4960 -448 
L 4960 5146 
L 4480 5146 
L 4480 -448 
L 4960 -448 
z
M 3366 2573 
L 3366 -160 
L 3846 -160 
L 3846 5011 
L 3366 5011 
L 3366 2982 
L 2067 2982 
L 2067 2573 
L 3366 2573 
z
M 915 1363 
L 915 4064 
L 2656 4064 
L 2656 4467 
L 429 4467 
L 429 947 
L 1043 947 
C 1792 960 2419 1024 2944 1114 
L 2886 1530 
C 2368 1421 1594 1325 915 1363 
z
" transform="scale(0.015625)"/>
      <path id="AppleSDGothicNeo-Regular-c774" d="M 4845 -448 
L 4845 5146 
L 4358 5146 
L 4358 -448 
L 4845 -448 
z
M 429 2752 
C 429 1562 954 768 1869 768 
C 2797 768 3315 1562 3315 2746 
C 3315 3930 2797 4723 1869 4723 
C 954 4723 429 3930 429 2752 
z
M 2854 2746 
C 2854 1830 2464 1190 1869 1190 
C 1280 1190 890 1830 890 2746 
C 890 3667 1280 4301 1869 4301 
C 2464 4301 2854 3667 2854 2746 
z
" transform="scale(0.015625)"/>
      <path id="AppleSDGothicNeo-Regular-d130" d="M 922 1267 
L 922 2682 
L 2861 2682 
L 2861 3078 
L 922 3078 
L 922 4237 
L 3085 4237 
L 3085 4640 
L 435 4640 
L 435 851 
L 1011 851 
C 1997 851 2938 934 3552 1050 
L 3494 1459 
C 2938 1338 1965 1267 1043 1267 
L 922 1267 
z
M 4819 -448 
L 4819 5146 
L 4333 5146 
L 4333 3002 
L 3226 3002 
L 3226 2586 
L 4333 2586 
L 4333 -448 
L 4819 -448 
z
" transform="scale(0.015625)"/>
      <path id="AppleSDGothicNeo-Regular-c5d0" d="M 1562 4659 
C 749 4659 333 3866 333 2746 
C 333 1619 749 832 1562 832 
C 2330 832 2739 1517 2790 2528 
L 3392 2528 
L 3392 -179 
L 3866 -179 
L 3866 5037 
L 3392 5037 
L 3392 2931 
L 2790 2931 
C 2752 3949 2336 4659 1562 4659 
z
M 2310 2746 
C 2310 1837 2016 1261 1562 1261 
C 1114 1261 826 1837 826 2746 
C 826 3648 1114 4230 1562 4230 
C 2016 4230 2310 3648 2310 2746 
z
M 4960 -448 
L 4960 5146 
L 4480 5146 
L 4480 -448 
L 4960 -448 
z
" transform="scale(0.015625)"/>
      <path id="AppleSDGothicNeo-Regular-c11c" d="M 4832 -448 
L 4832 5146 
L 4346 5146 
L 4346 3149 
L 3040 3149 
L 3040 2739 
L 4346 2739 
L 4346 -448 
L 4832 -448 
z
M 3590 1261 
C 2822 1709 2157 2618 2157 3642 
L 2157 4659 
L 1651 4659 
L 1651 3622 
C 1651 2630 1005 1638 192 1126 
L 512 762 
C 1158 1229 1709 1920 1907 2618 
C 2131 1946 2778 1235 3290 890 
L 3590 1261 
z
" transform="scale(0.015625)"/>
      <path id="AppleSDGothicNeo-Regular-d328" d="M 4973 -448 
L 4973 5146 
L 4499 5146 
L 4499 2867 
L 3821 2867 
L 3821 5011 
L 3347 5011 
L 3347 -160 
L 3821 -160 
L 3821 2464 
L 4499 2464 
L 4499 -448 
L 4973 -448 
z
M 3059 1114 
C 3053 1242 3046 1370 3027 1498 
C 2835 1472 2586 1446 2317 1427 
C 2387 2176 2458 2944 2522 3693 
L 2035 3744 
C 1978 2970 1933 2163 1882 1395 
C 1830 1389 1779 1389 1734 1389 
C 1587 1382 1453 1370 1306 1370 
C 1261 2157 1203 2957 1158 3731 
L 672 3674 
C 730 2912 787 2125 851 1363 
L 166 1363 
L 243 928 
C 717 934 1242 960 1760 986 
C 2259 1018 2765 1062 3059 1114 
z
M 2886 4032 
L 2886 4442 
L 269 4442 
L 269 4032 
L 2886 4032 
z
" transform="scale(0.015625)"/>
      <path id="AppleSDGothicNeo-Regular-d134" d="M 4813 1062 
L 4813 5146 
L 4326 5146 
L 4326 3565 
L 3315 3565 
L 3315 3155 
L 4326 3155 
L 4326 1062 
L 4813 1062 
z
M 4966 -262 
L 4966 147 
L 1715 147 
L 1715 1402 
L 1229 1402 
L 1229 -262 
L 4966 -262 
z
M 960 2189 
L 960 3130 
L 2925 3130 
L 2925 3526 
L 960 3526 
L 960 4301 
L 3014 4301 
L 3014 4704 
L 480 4704 
L 480 1779 
L 986 1779 
C 1971 1786 2739 1818 3373 1939 
L 3309 2336 
C 2752 2221 1997 2189 1338 2189 
L 960 2189 
z
" transform="scale(0.015625)"/>
      <path id="AppleSDGothicNeo-Regular-d559" d="M 5395 3098 
L 5395 3507 
L 4544 3507 
L 4544 5146 
L 4058 5146 
L 4058 1677 
L 4544 1677 
L 4544 3098 
L 5395 3098 
z
M 2630 4608 
L 2630 5024 
L 1018 5024 
L 1018 4608 
L 2630 4608 
z
M 3424 3814 
L 3424 4218 
L 218 4218 
L 218 3814 
L 3424 3814 
z
M 3085 2624 
C 3085 3194 2541 3552 1811 3552 
C 1075 3552 538 3194 538 2624 
C 538 2061 1082 1696 1811 1696 
C 2541 1696 3085 2067 3085 2624 
z
M 2598 2624 
C 2598 2291 2240 2086 1811 2086 
C 1395 2086 1018 2291 1018 2624 
C 1018 2957 1389 3162 1811 3162 
C 2240 3162 2598 2957 2598 2624 
z
M 922 1370 
L 922 966 
L 4058 966 
L 4058 -448 
L 4544 -448 
L 4544 1370 
L 922 1370 
z
" transform="scale(0.015625)"/>
      <path id="AppleSDGothicNeo-Regular-c2b5" d="M 5030 3418 
C 4166 3514 3027 4109 3027 4896 
L 3027 5075 
L 2522 5075 
L 2522 4896 
C 2522 4109 1402 3514 525 3418 
L 755 2995 
C 1600 3162 2528 3686 2771 4269 
C 3046 3686 3955 3155 4800 2995 
L 5030 3418 
z
M 5293 2144 
L 5293 2554 
L 243 2554 
L 243 2144 
L 5293 2144 
z
M 4653 -371 
L 4653 1754 
L 4160 1754 
L 4160 1094 
L 1376 1094 
L 1376 1747 
L 890 1747 
L 890 -371 
L 4653 -371 
z
M 4160 32 
L 1376 32 
L 1376 698 
L 4160 698 
L 4160 32 
z
" transform="scale(0.015625)"/>
     </defs>
     <use xlink:href="#AppleSDGothicNeo-Regular-b370"/>
     <use xlink:href="#AppleSDGothicNeo-Regular-c774" transform="translate(86.499985 0)"/>
     <use xlink:href="#AppleSDGothicNeo-Regular-d130" transform="translate(172.999969 0)"/>
     <use xlink:href="#AppleSDGothicNeo-Regular-c5d0" transform="translate(259.499954 0)"/>
     <use xlink:href="#AppleSDGothicNeo-Regular-c11c" transform="translate(345.999939 0)"/>
     <use xlink:href="#AppleSDGothicNeo-Regular-20" transform="translate(432.499924 0)"/>
     <use xlink:href="#AppleSDGothicNeo-Regular-d328" transform="translate(458.799911 0)"/>
     <use xlink:href="#AppleSDGothicNeo-Regular-d134" transform="translate(545.299896 0)"/>
     <use xlink:href="#AppleSDGothicNeo-Regular-c744" transform="translate(631.799881 0)"/>
     <use xlink:href="#AppleSDGothicNeo-Regular-20" transform="translate(718.299866 0)"/>
     <use xlink:href="#AppleSDGothicNeo-Regular-d559" transform="translate(744.599854 0)"/>
     <use xlink:href="#AppleSDGothicNeo-Regular-c2b5" transform="translate(831.099838 0)"/>
    </g>
   </g>
   <g id="text_5">
    <!-- 딥러닝 (DL) -->
    <g style="fill: #2e7d32" transform="translate(216.917812 197.991267) scale(0.12 -0.12)">
     <defs>
      <path id="AppleSDGothicNeo-Regular-b525" d="M 4813 -371 
L 4813 1843 
L 4326 1843 
L 4326 1107 
L 1677 1107 
L 1677 1824 
L 1190 1824 
L 1190 -371 
L 4813 -371 
z
M 4326 32 
L 1677 32 
L 1677 717 
L 4326 717 
L 4326 32 
z
M 4806 2138 
L 4806 5146 
L 4320 5146 
L 4320 2138 
L 4806 2138 
z
M 1050 2822 
L 1050 4352 
L 3194 4352 
L 3194 4755 
L 557 4755 
L 557 2406 
L 998 2406 
C 2016 2406 3123 2470 3898 2630 
L 3846 3040 
C 3053 2874 1990 2822 1050 2822 
z
" transform="scale(0.015625)"/>
      <path id="AppleSDGothicNeo-Regular-44" d="M 550 269 
L 1830 269 
C 3226 269 3853 1056 3853 2406 
L 3853 2528 
C 3853 3898 3130 4563 1824 4563 
L 550 4563 
L 550 269 
z
M 1056 704 
L 1056 4128 
L 1773 4128 
C 2758 4128 3302 3718 3302 2528 
L 3302 2336 
C 3302 1190 2854 704 1843 704 
L 1056 704 
z
" transform="scale(0.015625)"/>
     </defs>
     <use xlink:href="#AppleSDGothicNeo-Regular-b525"/>
     <use xlink:href="#AppleSDGothicNeo-Regular-b7ec" transform="translate(86.499985 0)"/>
     <use xlink:href="#AppleSDGothicNeo-Regular-b2dd" transform="translate(172.999969 0)"/>
     <use xlink:href="#AppleSDGothicNeo-Regular-20" transform="translate(259.499954 0)"/>
     <use xlink:href="#AppleSDGothicNeo-Regular-28" transform="translate(285.799942 0)"/>
     <use xlink:href="#AppleSDGothicNeo-Regular-44" transform="translate(317.499939 0)"/>
     <use xlink:href="#AppleSDGothicNeo-Regular-4c" transform="translate(382.499924 0)"/>
     <use xlink:href="#AppleSDGothicNeo-Regular-29" transform="translate(432.999908 0)"/>
    </g>
   </g>
   <g id="text_6">
    <!-- 인공 신경망으로 복잡한 패턴 학습 -->
    <g style="fill: #555555" transform="translate(185.571562 215.555013) scale(0.09 -0.09)">
     <defs>
      <path id="AppleSDGothicNeo-Regular-acbd" d="M 4858 640 
C 4858 1286 4166 1696 2957 1696 
C 1734 1696 1050 1286 1050 640 
C 1050 -13 1734 -422 2957 -422 
C 4166 -422 4858 -13 4858 640 
z
M 2957 1286 
C 3840 1286 4358 1050 4358 640 
C 4358 224 3840 -19 2957 -19 
C 2074 -19 1555 224 1555 640 
C 1555 1050 2074 1286 2957 1286 
z
M 3091 2560 
L 4326 2560 
L 4326 1613 
L 4813 1613 
L 4813 5146 
L 4326 5146 
L 4326 4134 
L 3181 4134 
L 3181 3731 
L 4326 3731 
L 4326 2963 
L 3091 2963 
L 3091 2560 
z
M 3123 4710 
L 550 4710 
L 550 4294 
L 2573 4294 
C 2406 3347 1459 2419 307 2099 
L 550 1683 
C 2029 2202 3040 3302 3123 4710 
z
" transform="scale(0.015625)"/>
      <path id="AppleSDGothicNeo-Regular-b9dd" d="M 5395 3270 
L 5395 3680 
L 4544 3680 
L 4544 5146 
L 4058 5146 
L 4058 1766 
L 4544 1766 
L 4544 3270 
L 5395 3270 
z
M 4608 640 
C 4608 1274 3968 1715 2752 1715 
C 1536 1715 909 1286 909 640 
C 909 0 1536 -435 2752 -435 
C 3968 -435 4608 0 4608 640 
z
M 2752 1318 
C 3597 1318 4109 1056 4109 640 
C 4109 218 3597 -38 2752 -38 
C 1907 -38 1408 230 1408 640 
C 1408 1050 1907 1318 2752 1318 
z
M 3110 2266 
L 3110 4704 
L 442 4704 
L 442 2266 
L 3110 2266 
z
M 2624 2669 
L 928 2669 
L 928 4301 
L 2624 4301 
L 2624 2669 
z
" transform="scale(0.015625)"/>
      <path id="AppleSDGothicNeo-Regular-c73c" d="M 5293 320 
L 5293 730 
L 243 730 
L 243 320 
L 5293 320 
z
M 4800 3245 
C 4800 4096 3994 4659 2758 4659 
C 1542 4659 730 4096 730 3245 
C 730 2387 1542 1830 2758 1830 
C 3987 1830 4800 2387 4800 3245 
z
M 4314 3238 
C 4314 2643 3693 2246 2758 2246 
C 1830 2246 1216 2643 1216 3238 
C 1216 3846 1830 4250 2758 4250 
C 3699 4250 4314 3846 4314 3238 
z
" transform="scale(0.015625)"/>
      <path id="AppleSDGothicNeo-Regular-b85c" d="M 5293 262 
L 5293 672 
L 3002 672 
L 3002 1626 
L 4826 1626 
L 4826 2035 
L 1350 2035 
L 1350 2970 
L 4666 2970 
L 4666 4678 
L 858 4678 
L 858 4269 
L 4179 4269 
L 4179 3373 
L 864 3373 
L 864 1626 
L 2515 1626 
L 2515 672 
L 243 672 
L 243 262 
L 5293 262 
z
" transform="scale(0.015625)"/>
      <path id="AppleSDGothicNeo-Regular-bcf5" d="M 4659 2893 
L 4659 5011 
L 4166 5011 
L 4166 4333 
L 1370 4333 
L 1370 5011 
L 883 5011 
L 883 2893 
L 2515 2893 
L 2515 2291 
L 243 2291 
L 243 1888 
L 5293 1888 
L 5293 2291 
L 3002 2291 
L 3002 2893 
L 4659 2893 
z
M 794 1331 
L 794 928 
L 4186 928 
L 4186 -486 
L 4672 -486 
L 4672 1331 
L 794 1331 
z
M 4166 3296 
L 1370 3296 
L 1370 3930 
L 4166 3930 
L 4166 3296 
z
" transform="scale(0.015625)"/>
      <path id="AppleSDGothicNeo-Regular-c7a1" d="M 4538 -384 
L 4538 1837 
L 4058 1837 
L 4058 1133 
L 1498 1133 
L 1498 1830 
L 1011 1830 
L 1011 -384 
L 4538 -384 
z
M 288 4358 
L 1574 4358 
C 1574 4275 1574 4198 1568 4134 
C 1542 3392 851 2675 147 2406 
L 422 2029 
C 1024 2285 1664 2899 1818 3424 
C 2029 2893 2637 2374 3168 2163 
L 3443 2554 
C 2803 2765 2118 3398 2074 4128 
C 2067 4198 2067 4275 2067 4358 
L 3315 4358 
L 3315 4768 
L 288 4768 
L 288 4358 
z
M 4058 19 
L 1498 19 
L 1498 736 
L 4058 736 
L 4058 19 
z
M 5389 3366 
L 5389 3770 
L 4538 3770 
L 4538 5146 
L 4051 5146 
L 4051 2125 
L 4538 2125 
L 4538 3366 
L 5389 3366 
z
" transform="scale(0.015625)"/>
      <path id="AppleSDGothicNeo-Regular-d55c" d="M 5395 2842 
L 5395 3251 
L 4544 3251 
L 4544 5146 
L 4058 5146 
L 4058 1018 
L 4544 1018 
L 4544 2842 
L 5395 2842 
z
M 4762 -269 
L 4762 141 
L 1523 141 
L 1523 1165 
L 1037 1165 
L 1037 -269 
L 4762 -269 
z
M 2630 4518 
L 2630 4947 
L 1018 4947 
L 1018 4518 
L 2630 4518 
z
M 3494 3693 
L 3494 4096 
L 218 4096 
L 218 3693 
L 3494 3693 
z
M 3174 2413 
C 3174 3014 2611 3392 1856 3392 
C 1107 3392 544 3014 544 2413 
C 544 1824 1114 1434 1856 1434 
C 2611 1434 3174 1824 3174 2413 
z
M 2714 2413 
C 2714 2048 2310 1824 1856 1824 
C 1408 1824 1005 2048 1005 2413 
C 1005 2784 1408 3008 1856 3008 
C 2310 3008 2714 2784 2714 2413 
z
" transform="scale(0.015625)"/>
     </defs>
     <use xlink:href="#AppleSDGothicNeo-Regular-c778"/>
     <use xlink:href="#AppleSDGothicNeo-Regular-acf5" transform="translate(86.499985 0)"/>
     <use xlink:href="#AppleSDGothicNeo-Regular-20" transform="translate(172.999969 0)"/>
     <use xlink:href="#AppleSDGothicNeo-Regular-c2e0" transform="translate(199.299957 0)"/>
     <use xlink:href="#AppleSDGothicNeo-Regular-acbd" transform="translate(285.799942 0)"/>
     <use xlink:href="#AppleSDGothicNeo-Regular-b9dd" transform="translate(372.299927 0)"/>
     <use xlink:href="#AppleSDGothicNeo-Regular-c73c" transform="translate(458.799911 0)"/>
     <use xlink:href="#AppleSDGothicNeo-Regular-b85c" transform="translate(545.299896 0)"/>
     <use xlink:href="#AppleSDGothicNeo-Regular-20" transform="translate(631.799881 0)"/>
     <use xlink:href="#AppleSDGothicNeo-Regular-bcf5" transform="translate(658.099869 0)"/>
     <use xlink:href="#AppleSDGothicNeo-Regular-c7a1" transform="translate(744.599854 0)"/>
     <use xlink:href="#AppleSDGothicNeo-Regular-d55c" transform="translate(831.099838 0)"/>
     <use xlink:href="#AppleSDGothicNeo-Regular-20" transform="translate(917.599823 0)"/>
     <use xlink:href="#AppleSDGothicNeo-Regular-d328" transform="translate(943.899811 0)"/>
     <use xlink:href="#AppleSDGothicNeo-Regular-d134" transform="translate(1030.399796 0)"/>
     <use xlink:href="#AppleSDGothicNeo-Regular-20" transform="translate(1116.89978 0)"/>
     <use xlink:href="#AppleSDGothicNeo-Regular-d559" transform="translate(1143.199768 0)"/>
     <use xlink:href="#AppleSDGothicNeo-Regular-c2b5" transform="translate(1229.699753 0)"/>
    </g>
   </g>
   <g id="text_7">
    <!-- LLM -->
    <g style="fill: #f57f17" transform="translate(233.964375 132.529241) scale(0.12 -0.12)">
     <use xlink:href="#AppleSDGothicNeo-Regular-4c"/>
     <use xlink:href="#AppleSDGothicNeo-Regular-4c" transform="translate(50.499985 0)"/>
     <use xlink:href="#AppleSDGothicNeo-Regular-4d" transform="translate(100.999969 0)"/>
    </g>
   </g>
   <g id="text_8">
    <!-- 대규모 언어모델 -->
    <g style="fill: #555555" transform="translate(216.369141 150.127205) scale(0.09 -0.09)">
     <defs>
      <path id="AppleSDGothicNeo-Regular-b300" d="M 4960 -448 
L 4960 5146 
L 4480 5146 
L 4480 2944 
L 3731 2944 
L 3731 5011 
L 3258 5011 
L 3258 -160 
L 3731 -160 
L 3731 2534 
L 4480 2534 
L 4480 -448 
L 4960 -448 
z
M 902 1414 
L 902 4051 
L 2586 4051 
L 2586 4461 
L 416 4461 
L 416 992 
L 787 992 
C 1517 992 2458 1056 2989 1158 
L 2944 1555 
C 2470 1453 1632 1414 1069 1414 
L 902 1414 
z
" transform="scale(0.015625)"/>
      <path id="AppleSDGothicNeo-Regular-addc" d="M 4621 4749 
L 838 4749 
L 838 4346 
L 4122 4346 
C 4122 3834 4058 2886 3904 2323 
L 243 2323 
L 243 1914 
L 1536 1914 
L 1536 -448 
L 2022 -448 
L 2022 1914 
L 3501 1914 
L 3501 -448 
L 3987 -448 
L 3987 1914 
L 5293 1914 
L 5293 2323 
L 4397 2323 
C 4563 3078 4621 4090 4621 4749 
z
" transform="scale(0.015625)"/>
      <path id="AppleSDGothicNeo-Regular-c5b8" d="M 4326 3194 
L 4326 1069 
L 4813 1069 
L 4813 5146 
L 4326 5146 
L 4326 3597 
L 3405 3597 
L 3405 3194 
L 4326 3194 
z
M 4934 -262 
L 4934 141 
L 1690 141 
L 1690 1485 
L 1203 1485 
L 1203 -262 
L 4934 -262 
z
M 1728 4774 
C 909 4774 275 4198 275 3366 
C 275 2534 909 1984 1734 1984 
C 2554 1984 3181 2541 3181 3373 
C 3181 4205 2547 4774 1728 4774 
z
M 1728 4346 
C 2310 4346 2707 3942 2707 3366 
C 2707 2810 2310 2413 1734 2413 
C 1178 2413 755 2810 755 3373 
C 755 3942 1171 4346 1728 4346 
z
" transform="scale(0.015625)"/>
      <path id="AppleSDGothicNeo-Regular-c5b4" d="M 314 2778 
C 314 1587 826 800 1728 800 
C 2579 800 3078 1504 3130 2579 
L 4326 2579 
L 4326 -448 
L 4813 -448 
L 4813 5146 
L 4326 5146 
L 4326 2995 
L 3130 2995 
C 3066 4058 2573 4755 1728 4755 
C 826 4755 314 3962 314 2778 
z
M 2656 2771 
C 2656 1862 2278 1222 1728 1222 
C 1171 1222 800 1862 800 2771 
C 800 3693 1171 4333 1728 4333 
C 2278 4333 2656 3693 2656 2771 
z
" transform="scale(0.015625)"/>
      <path id="AppleSDGothicNeo-Regular-b378" d="M 5165 -410 
L 5165 0 
L 1741 0 
L 1741 563 
L 4960 563 
L 4960 1894 
L 1235 1894 
L 1235 1491 
L 4467 1491 
L 4467 934 
L 1254 934 
L 1254 -410 
L 5165 -410 
z
M 3891 2253 
L 3891 5043 
L 3424 5043 
L 3424 3930 
L 2202 3930 
L 2202 3546 
L 3424 3546 
L 3424 2253 
L 3891 2253 
z
M 4960 2189 
L 4960 5146 
L 4474 5146 
L 4474 2189 
L 4960 2189 
z
M 947 2803 
L 947 4403 
L 2656 4403 
L 2656 4806 
L 454 4806 
L 454 2381 
L 813 2381 
C 1555 2381 2477 2458 3002 2560 
L 2957 2970 
C 2458 2861 1664 2803 947 2803 
z
" transform="scale(0.015625)"/>
     </defs>
     <use xlink:href="#AppleSDGothicNeo-Regular-b300"/>
     <use xlink:href="#AppleSDGothicNeo-Regular-addc" transform="translate(86.499985 0)"/>
     <use xlink:href="#AppleSDGothicNeo-Regular-baa8" transform="translate(172.999969 0)"/>
     <use xlink:href="#AppleSDGothicNeo-Regular-20" transform="translate(259.499954 0)"/>
     <use xlink:href="#AppleSDGothicNeo-Regular-c5b8" transform="translate(285.799942 0)"/>
     <use xlink:href="#AppleSDGothicNeo-Regular-c5b4" transform="translate(372.299927 0)"/>
     <use xlink:href="#AppleSDGothicNeo-Regular-baa8" transform="translate(458.799911 0)"/>
     <use xlink:href="#AppleSDGothicNeo-Regular-b378" transform="translate(545.299896 0)"/>
    </g>
   </g>
   <g id="text_9">
    <!-- AI 기술 계층 구조 -->
    <g style="fill: #002060" transform="translate(196.899219 32.35375) scale(0.14 -0.14)">
     <defs>
      <path id="AppleSDGothicNeo-Regular-acc4" d="M 3898 -166 
L 3898 5011 
L 3424 5011 
L 3424 3610 
L 2598 3610 
L 2598 3200 
L 3424 3200 
L 3424 2176 
L 2470 2176 
L 2470 1773 
L 3424 1773 
L 3424 -166 
L 3898 -166 
z
M 4960 -448 
L 4960 5146 
L 4480 5146 
L 4480 -448 
L 4960 -448 
z
M 2534 4448 
L 416 4448 
L 416 4038 
L 2048 4038 
C 1971 2874 1370 1747 205 1114 
L 525 749 
C 1818 1574 2496 2739 2534 4448 
z
" transform="scale(0.015625)"/>
      <path id="AppleSDGothicNeo-Regular-ce35" d="M 4730 518 
C 4730 1139 4045 1485 2765 1485 
C 1491 1485 813 1114 813 518 
C 813 -90 1491 -448 2765 -448 
C 4045 -448 4730 -96 4730 518 
z
M 5024 2989 
C 4243 3046 3219 3315 3040 3878 
L 4787 3878 
L 4787 4275 
L 755 4275 
L 755 3878 
L 2496 3878 
C 2330 3309 1344 3014 525 2970 
L 704 2579 
C 1568 2682 2483 2963 2765 3526 
C 3078 2970 3994 2688 4806 2579 
L 5024 2989 
z
M 2765 1069 
C 3674 1069 4237 864 4237 518 
C 4237 160 3674 -38 2765 -38 
C 1862 -38 1306 160 1306 518 
C 1306 864 1862 1069 2765 1069 
z
M 5293 1869 
L 5293 2278 
L 243 2278 
L 243 1869 
L 5293 1869 
z
M 3661 4710 
L 3661 5133 
L 1869 5133 
L 1869 4710 
L 3661 4710 
z
" transform="scale(0.015625)"/>
      <path id="AppleSDGothicNeo-Regular-ad6c" d="M 4634 4730 
L 838 4730 
L 838 4326 
L 4128 4326 
C 4128 3776 4096 2854 3942 2253 
L 243 2253 
L 243 1843 
L 2522 1843 
L 2522 -448 
L 3008 -448 
L 3008 1843 
L 5293 1843 
L 5293 2253 
L 4429 2253 
C 4614 3117 4634 3968 4634 4730 
z
" transform="scale(0.015625)"/>
      <path id="AppleSDGothicNeo-Regular-c870" d="M 4870 4186 
L 4870 4576 
L 672 4576 
L 672 4186 
L 2515 4186 
L 2515 4070 
C 2515 3174 1331 2368 448 2214 
L 678 1805 
C 1606 2042 2534 2726 2765 3360 
C 3034 2746 3955 2048 4851 1792 
L 5101 2202 
C 4262 2368 3027 3187 3027 4070 
L 3027 4186 
L 4870 4186 
z
M 5293 262 
L 5293 672 
L 3002 672 
L 3002 2067 
L 2515 2067 
L 2515 672 
L 243 672 
L 243 262 
L 5293 262 
z
" transform="scale(0.015625)"/>
     </defs>
     <use xlink:href="#AppleSDGothicNeo-Regular-41"/>
     <use xlink:href="#AppleSDGothicNeo-Regular-49" transform="translate(60.499985 0)"/>
     <use xlink:href="#AppleSDGothicNeo-Regular-20" transform="translate(86.399979 0)"/>
     <use xlink:href="#AppleSDGothicNeo-Regular-ae30" transform="translate(112.699966 0)"/>
     <use xlink:href="#AppleSDGothicNeo-Regular-c220" transform="translate(199.199951 0)"/>
     <use xlink:href="#AppleSDGothicNeo-Regular-20" transform="translate(285.699936 0)"/>
     <use xlink:href="#AppleSDGothicNeo-Regular-acc4" transform="translate(311.999924 0)"/>
     <use xlink:href="#AppleSDGothicNeo-Regular-ce35" transform="translate(398.499908 0)"/>
     <use xlink:href="#AppleSDGothicNeo-Regular-20" transform="translate(484.999893 0)"/>
     <use xlink:href="#AppleSDGothicNeo-Regular-ad6c" transform="translate(511.299881 0)"/>
     <use xlink:href="#AppleSDGothicNeo-Regular-c870" transform="translate(597.799866 0)"/>
    </g>
   </g>
  </g>
 </g>
 <defs>
  <clipPath id="p8175d7d5f0">
   <rect x="21.6" y="50.35375" width="446.4" height="360.36"/>
  </clipPath>
 </defs>
</svg>
