<?xml version="1.0" encoding="utf-8" standalone="no"?>
<!DOCTYPE svg PUBLIC "-//W3C//DTD SVG 1.1//EN"
  "http://www.w3.org/Graphics/SVG/1.1/DTD/svg11.dtd">
<svg xmlns:xlink="http://www.w3.org/1999/xlink" width="601.2pt" height="321.43375pt" viewBox="0 0 601.2 321.43375" xmlns="http://www.w3.org/2000/svg" version="1.1">
 <metadata>
  <rdf:RDF xmlns:dc="http://purl.org/dc/elements/1.1/" xmlns:cc="http://creativecommons.org/ns#" xmlns:rdf="http://www.w3.org/1999/02/22-rdf-syntax-ns#">
   <cc:Work>
    <dc:type rdf:resource="http://purl.org/dc/dcmitype/StillImage"/>
    <dc:date>2026-02-18T23:23:36.652534</dc:date>
    <dc:format>image/svg+xml</dc:format>
    <dc:creator>
     <cc:Agent>
      <dc:title>Matplotlib v3.10.8, https://matplotlib.org/</dc:title>
     </cc:Agent>
    </dc:creator>
   </cc:Work>
  </rdf:RDF>
 </metadata>
 <defs>
  <style type="text/css">*{stroke-linejoin: round; stroke-linecap: butt}</style>
 </defs>
 <g id="figure_1">
  <g id="patch_1">
   <path d="M 0 321.43375 
L 601.2 321.43375 
L 601.2 0 
L 0 0 
z
" style="fill: #ffffff"/>
  </g>
  <g id="axes_1">
   <g id="patch_2">
    <path d="M 74.383784 205.48393 
L 234.334644 205.48393 
Q 241.189681 205.48393 241.189681 198.470811 
L 241.189681 95.611741 
Q 241.189681 88.598623 234.334644 88.598623 
L 74.383784 88.598623 
Q 67.528747 88.598623 67.528747 95.611741 
L 67.528747 198.470811 
Q 67.528747 205.48393 74.383784 205.48393 
z
" clip-path="url(#pfdd2556feb)" style="fill: #e3f2fd; stroke: #002060; stroke-width: 1.2; stroke-linejoin: miter"/>
   </g>
   <g id="patch_3">
    <path d="M 312.025061 205.48393 
L 517.676167 205.48393 
Q 524.531204 205.48393 524.531204 198.470811 
L 524.531204 95.611741 
Q 524.531204 88.598623 517.676167 88.598623 
L 312.025061 88.598623 
Q 305.170025 88.598623 305.170025 95.611741 
L 305.170025 198.470811 
Q 305.170025 205.48393 312.025061 205.48393 
z
" clip-path="url(#pfdd2556feb)" style="fill: #e8f5e9; stroke: #2e7d32; stroke-width: 1.2; stroke-linejoin: miter"/>
   </g>
   <g id="patch_4">
    <path d="M 152.074201 266.26429 
L 449.125799 266.26429 
Q 455.980835 266.26429 455.980835 259.251171 
L 455.980835 219.510167 
Q 455.980835 212.497048 449.125799 212.497048 
L 152.074201 212.497048 
Q 145.219165 212.497048 145.219165 219.510167 
L 145.219165 259.251171 
Q 145.219165 266.26429 152.074201 266.26429 
z
" clip-path="url(#pfdd2556feb)" style="fill: #fffde7; stroke: #f57f17; stroke-width: 1.2; stroke-linejoin: miter"/>
   </g>
   <g id="text_1">
    <!-- 정형 데이터 -->
    <g style="fill: #002060" transform="translate(126.831401 127.63734) scale(0.12 -0.12)">
     <defs>
      <path id="AppleSDGothicNeo-Regular-c815" d="M 4858 614 
C 4858 1274 4179 1683 2976 1683 
C 1779 1683 1107 1274 1107 614 
C 1107 -38 1779 -448 2976 -448 
C 4179 -448 4858 -38 4858 614 
z
M 390 4269 
L 1664 4269 
C 1664 4166 1664 4032 1658 3968 
C 1632 3174 922 2464 218 2195 
L 480 1805 
C 1082 2067 1754 2739 1907 3264 
C 2138 2758 2739 2234 3322 2003 
L 3610 2394 
C 2925 2598 2208 3206 2163 3968 
C 2157 4032 2157 4160 2157 4269 
L 3418 4269 
L 3418 4678 
L 390 4678 
L 390 4269 
z
M 2976 1274 
C 3853 1274 4358 1037 4358 614 
C 4358 198 3853 -38 2976 -38 
C 2118 -38 1600 198 1600 614 
C 1600 1037 2118 1274 2976 1274 
z
M 4326 3283 
L 4326 1670 
L 4813 1670 
L 4813 5146 
L 4326 5146 
L 4326 3693 
L 3200 3693 
L 3200 3283 
L 4326 3283 
z
" transform="scale(0.015625)"/>
      <path id="AppleSDGothicNeo-Regular-d615" d="M 4838 525 
C 4838 1120 4192 1491 2976 1491 
C 1760 1491 1133 1126 1133 525 
C 1133 -70 1760 -435 2976 -435 
C 4192 -435 4838 -70 4838 525 
z
M 2976 1094 
C 3827 1094 4333 883 4333 525 
C 4333 160 3827 -38 2976 -38 
C 2131 -38 1638 166 1638 525 
C 1638 877 2131 1094 2976 1094 
z
M 4813 1491 
L 4813 5146 
L 4326 5146 
L 4326 3686 
L 3341 3686 
L 3341 3290 
L 4326 3290 
L 4326 2650 
L 3341 2650 
L 3341 2246 
L 4326 2246 
L 4326 1491 
L 4813 1491 
z
M 2643 4621 
L 2643 5037 
L 1043 5037 
L 1043 4621 
L 2643 4621 
z
M 3386 3827 
L 3386 4218 
L 262 4218 
L 262 3827 
L 3386 3827 
z
M 3155 2611 
C 3155 3187 2605 3539 1862 3539 
C 1133 3539 582 3187 582 2611 
C 582 2042 1139 1683 1862 1683 
C 2605 1683 3155 2048 3155 2611 
z
M 2669 2611 
C 2669 2266 2304 2074 1862 2074 
C 1440 2074 1062 2266 1062 2611 
C 1062 2957 1434 3149 1862 3149 
C 2304 3149 2669 2957 2669 2611 
z
" transform="scale(0.015625)"/>
      <path id="AppleSDGothicNeo-Regular-20" transform="scale(0.015625)"/>
      <path id="AppleSDGothicNeo-Regular-b370" d="M 4960 -448 
L 4960 5146 
L 4480 5146 
L 4480 -448 
L 4960 -448 
z
M 3366 2573 
L 3366 -160 
L 3846 -160 
L 3846 5011 
L 3366 5011 
L 3366 2982 
L 2067 2982 
L 2067 2573 
L 3366 2573 
z
M 915 1363 
L 915 4064 
L 2656 4064 
L 2656 4467 
L 429 4467 
L 429 947 
L 1043 947 
C 1792 960 2419 1024 2944 1114 
L 2886 1530 
C 2368 1421 1594 1325 915 1363 
z
" transform="scale(0.015625)"/>
      <path id="AppleSDGothicNeo-Regular-c774" d="M 4845 -448 
L 4845 5146 
L 4358 5146 
L 4358 -448 
L 4845 -448 
z
M 429 2752 
C 429 1562 954 768 1869 768 
C 2797 768 3315 1562 3315 2746 
C 3315 3930 2797 4723 1869 4723 
C 954 4723 429 3930 429 2752 
z
M 2854 2746 
C 2854 1830 2464 1190 1869 1190 
C 1280 1190 890 1830 890 2746 
C 890 3667 1280 4301 1869 4301 
C 2464 4301 2854 3667 2854 2746 
z
" transform="scale(0.015625)"/>
      <path id="AppleSDGothicNeo-Regular-d130" d="M 922 1267 
L 922 2682 
L 2861 2682 
L 2861 3078 
L 922 3078 
L 922 4237 
L 3085 4237 
L 3085 4640 
L 435 4640 
L 435 851 
L 1011 851 
C 1997 851 2938 934 3552 1050 
L 3494 1459 
C 2938 1338 1965 1267 1043 1267 
L 922 1267 
z
M 4819 -448 
L 4819 5146 
L 4333 5146 
L 4333 3002 
L 3226 3002 
L 3226 2586 
L 4333 2586 
L 4333 -448 
L 4819 -448 
z
" transform="scale(0.015625)"/>
     </defs>
     <use xlink:href="#AppleSDGothicNeo-Regular-c815"/>
     <use xlink:href="#AppleSDGothicNeo-Regular-d615" transform="translate(86.499985 0)"/>
     <use xlink:href="#AppleSDGothicNeo-Regular-20" transform="translate(172.999969 0)"/>
     <use xlink:href="#AppleSDGothicNeo-Regular-b370" transform="translate(199.299957 0)"/>
     <use xlink:href="#AppleSDGothicNeo-Regular-c774" transform="translate(285.799942 0)"/>
     <use xlink:href="#AppleSDGothicNeo-Regular-d130" transform="translate(372.299927 0)"/>
    </g>
   </g>
   <g id="text_2">
    <!-- 숫자, 표, 거래 기록 -->
    <g style="fill: #555555" transform="translate(121.528198 164.082004) scale(0.09 -0.09)">
     <defs>
      <path id="AppleSDGothicNeo-Regular-c22b" d="M 2515 4896 
C 2515 4109 1408 3507 531 3411 
L 755 2995 
C 1606 3155 2509 3674 2765 4262 
C 3040 3674 3955 3149 4781 2989 
L 5011 3411 
C 4166 3488 3021 4109 3021 4896 
L 3021 5075 
L 2515 5075 
L 2515 4896 
z
M 3002 1555 
L 3002 2163 
L 5293 2163 
L 5293 2566 
L 243 2566 
L 243 2163 
L 2515 2163 
L 2515 1555 
L 3002 1555 
z
M 4979 -64 
C 4051 -13 3014 538 3014 1178 
L 3014 1318 
L 2515 1318 
L 2515 1178 
C 2515 538 1574 -6 550 -51 
L 794 -448 
C 1613 -371 2502 115 2758 563 
C 3021 122 3942 -384 4749 -467 
L 4979 -64 
z
" transform="scale(0.015625)"/>
      <path id="AppleSDGothicNeo-Regular-c790" d="M 3558 1229 
C 2790 1664 2106 2541 2106 3584 
L 2106 4147 
L 3398 4147 
L 3398 4557 
L 307 4557 
L 307 4147 
L 1600 4147 
L 1600 3571 
C 1600 2566 954 1581 128 1094 
L 448 730 
C 1120 1197 1664 1888 1856 2566 
C 2054 1901 2739 1197 3264 864 
L 3558 1229 
z
M 5453 2464 
L 5453 2874 
L 4544 2874 
L 4544 5146 
L 4058 5146 
L 4058 -448 
L 4544 -448 
L 4544 2464 
L 5453 2464 
z
" transform="scale(0.015625)"/>
      <path id="AppleSDGothicNeo-Regular-2c" d="M 122 -563 
L 467 -563 
L 941 685 
L 358 685 
L 122 -563 
z
" transform="scale(0.015625)"/>
      <path id="AppleSDGothicNeo-Regular-d45c" d="M 5293 262 
L 5293 672 
L 3910 672 
L 3910 1862 
L 3424 1862 
L 3424 672 
L 2099 672 
L 2099 1862 
L 1613 1862 
L 1613 672 
L 243 672 
L 243 262 
L 5293 262 
z
M 4774 2150 
L 4774 2560 
L 3904 2560 
L 4096 3885 
L 3616 3962 
L 3450 2560 
L 2074 2560 
L 1971 3968 
L 1466 3917 
L 1613 2560 
L 736 2560 
L 736 2150 
L 4774 2150 
z
M 4781 4243 
L 4781 4653 
L 730 4653 
L 730 4243 
L 4781 4243 
z
" transform="scale(0.015625)"/>
      <path id="AppleSDGothicNeo-Regular-ac70" d="M 4326 2496 
L 4326 -448 
L 4813 -448 
L 4813 5146 
L 4326 5146 
L 4326 2912 
L 3059 2912 
L 3059 2496 
L 4326 2496 
z
M 3078 4550 
L 442 4550 
L 442 4141 
L 2554 4141 
C 2458 2880 1651 1664 237 1043 
L 518 659 
C 1958 1344 3053 2733 3078 4550 
z
" transform="scale(0.015625)"/>
      <path id="AppleSDGothicNeo-Regular-b798" d="M 4960 -448 
L 4960 5146 
L 4480 5146 
L 4480 2912 
L 3750 2912 
L 3750 5011 
L 3270 5011 
L 3270 -160 
L 3750 -160 
L 3750 2502 
L 4480 2502 
L 4480 -448 
L 4960 -448 
z
M 2938 1491 
C 2317 1363 1402 1312 896 1312 
L 896 2605 
L 2566 2605 
L 2566 4550 
L 397 4550 
L 397 4147 
L 2080 4147 
L 2080 3008 
L 410 3008 
L 410 902 
L 774 902 
C 1472 902 2394 979 2989 1088 
L 2938 1491 
z
" transform="scale(0.015625)"/>
      <path id="AppleSDGothicNeo-Regular-ae30" d="M 4813 -448 
L 4813 5146 
L 4326 5146 
L 4326 -448 
L 4813 -448 
z
M 3168 4550 
L 506 4550 
L 506 4141 
L 2650 4141 
C 2547 2880 1715 1664 301 1043 
L 582 659 
C 2029 1344 3142 2733 3168 4550 
z
" transform="scale(0.015625)"/>
      <path id="AppleSDGothicNeo-Regular-b85d" d="M 4742 2682 
L 4742 3072 
L 1363 3072 
L 1363 3635 
L 4646 3635 
L 4646 4928 
L 870 4928 
L 870 4538 
L 4160 4538 
L 4160 4000 
L 877 4000 
L 877 2682 
L 2515 2682 
L 2515 2093 
L 243 2093 
L 243 1683 
L 5293 1683 
L 5293 2093 
L 3002 2093 
L 3002 2682 
L 4742 2682 
z
M 781 1197 
L 781 794 
L 4166 794 
L 4166 -486 
L 4659 -486 
L 4659 1197 
L 781 1197 
z
" transform="scale(0.015625)"/>
     </defs>
     <use xlink:href="#AppleSDGothicNeo-Regular-c22b"/>
     <use xlink:href="#AppleSDGothicNeo-Regular-c790" transform="translate(86.499985 0)"/>
     <use xlink:href="#AppleSDGothicNeo-Regular-2c" transform="translate(172.999969 0)"/>
     <use xlink:href="#AppleSDGothicNeo-Regular-20" transform="translate(195.59996 0)"/>
     <use xlink:href="#AppleSDGothicNeo-Regular-d45c" transform="translate(221.899948 0)"/>
     <use xlink:href="#AppleSDGothicNeo-Regular-2c" transform="translate(308.399933 0)"/>
     <use xlink:href="#AppleSDGothicNeo-Regular-20" transform="translate(330.999924 0)"/>
     <use xlink:href="#AppleSDGothicNeo-Regular-ac70" transform="translate(357.299911 0)"/>
     <use xlink:href="#AppleSDGothicNeo-Regular-b798" transform="translate(443.799896 0)"/>
     <use xlink:href="#AppleSDGothicNeo-Regular-20" transform="translate(530.299881 0)"/>
     <use xlink:href="#AppleSDGothicNeo-Regular-ae30" transform="translate(556.599869 0)"/>
     <use xlink:href="#AppleSDGothicNeo-Regular-b85d" transform="translate(643.099854 0)"/>
    </g>
    <!-- 회귀, 분류, 시계열 -->
    <g style="fill: #555555" transform="translate(122.711558 173.525254) scale(0.09 -0.09)">
     <defs>
      <path id="AppleSDGothicNeo-Regular-d68c" d="M 3443 2368 
C 3443 2950 2906 3309 2093 3309 
C 1286 3309 749 2944 749 2368 
C 749 1862 1178 1504 1850 1440 
L 1850 864 
C 1254 845 691 851 269 851 
L 352 422 
C 826 429 1453 448 2074 480 
C 2758 525 3584 589 4026 653 
L 3981 1043 
C 3622 986 2957 934 2336 896 
L 2336 1440 
C 3008 1504 3443 1850 3443 2368 
z
M 4832 -448 
L 4832 5146 
L 4352 5146 
L 4352 -448 
L 4832 -448 
z
M 2963 2368 
C 2963 2048 2618 1824 2093 1824 
C 1574 1824 1222 2048 1222 2368 
C 1222 2688 1574 2906 2093 2906 
C 2618 2906 2963 2688 2963 2368 
z
M 3770 3603 
L 3770 4006 
L 448 4006 
L 448 3603 
L 3770 3603 
z
M 2880 4461 
L 2880 4870 
L 1274 4870 
L 1274 4461 
L 2880 4461 
z
" transform="scale(0.015625)"/>
      <path id="AppleSDGothicNeo-Regular-adc0" d="M 2253 -262 
L 2253 1965 
C 2925 2003 3520 2048 3994 2106 
L 3962 2490 
C 3725 2464 3469 2445 3200 2419 
C 3334 3072 3405 3853 3392 4653 
L 595 4653 
L 595 4250 
L 2886 4250 
C 2899 3834 2854 3002 2707 2387 
C 2534 2374 2355 2368 2170 2368 
C 1542 2342 877 2330 205 2330 
L 288 1882 
C 742 1888 1306 1907 1760 1933 
L 1760 -262 
L 2253 -262 
z
M 4832 5146 
L 4346 5146 
L 4346 -448 
L 4832 -448 
L 4832 5146 
z
" transform="scale(0.015625)"/>
      <path id="AppleSDGothicNeo-Regular-bd84" d="M 4653 2829 
L 4653 4966 
L 4160 4966 
L 4160 4275 
L 1363 4275 
L 1363 4966 
L 877 4966 
L 877 2829 
L 4653 2829 
z
M 3002 723 
L 3002 1798 
L 5293 1798 
L 5293 2202 
L 243 2202 
L 243 1798 
L 2515 1798 
L 2515 723 
L 3002 723 
z
M 4730 -269 
L 4730 134 
L 1370 134 
L 1370 1248 
L 883 1248 
L 883 -269 
L 4730 -269 
z
M 4160 3238 
L 1363 3238 
L 1363 3872 
L 4160 3872 
L 4160 3238 
z
" transform="scale(0.015625)"/>
      <path id="AppleSDGothicNeo-Regular-b958" d="M 4838 2381 
L 4838 2790 
L 1318 2790 
L 1318 3475 
L 4685 3475 
L 4685 4922 
L 845 4922 
L 845 4512 
L 4198 4512 
L 4198 3878 
L 832 3878 
L 832 2381 
L 4838 2381 
z
M 2054 -454 
L 2054 1350 
L 3462 1350 
L 3462 -454 
L 3955 -454 
L 3955 1350 
L 5293 1350 
L 5293 1760 
L 243 1760 
L 243 1350 
L 1568 1350 
L 1568 -454 
L 2054 -454 
z
" transform="scale(0.015625)"/>
      <path id="AppleSDGothicNeo-Regular-c2dc" d="M 4851 -448 
L 4851 5146 
L 4358 5146 
L 4358 -448 
L 4851 -448 
z
M 3648 1267 
C 2874 1728 2195 2643 2195 3667 
L 2195 4659 
L 1702 4659 
L 1702 3648 
C 1702 2656 1030 1638 211 1126 
L 531 762 
C 1178 1222 1754 1907 1958 2605 
C 2176 1933 2835 1242 3341 896 
L 3648 1267 
z
" transform="scale(0.015625)"/>
      <path id="AppleSDGothicNeo-Regular-acc4" d="M 3898 -166 
L 3898 5011 
L 3424 5011 
L 3424 3610 
L 2598 3610 
L 2598 3200 
L 3424 3200 
L 3424 2176 
L 2470 2176 
L 2470 1773 
L 3424 1773 
L 3424 -166 
L 3898 -166 
z
M 4960 -448 
L 4960 5146 
L 4480 5146 
L 4480 -448 
L 4960 -448 
z
M 2534 4448 
L 416 4448 
L 416 4038 
L 2048 4038 
C 1971 2874 1370 1747 205 1114 
L 525 749 
C 1818 1574 2496 2739 2534 4448 
z
" transform="scale(0.015625)"/>
      <path id="AppleSDGothicNeo-Regular-c5f4" d="M 3283 4096 
L 4326 4096 
L 4326 3315 
L 3283 3315 
L 3283 2899 
L 4326 2899 
L 4326 2214 
L 4813 2214 
L 4813 5146 
L 4326 5146 
L 4326 4506 
L 3283 4506 
L 3283 4096 
z
M 5024 -410 
L 5024 -6 
L 1709 -6 
L 1709 621 
L 4813 621 
L 4813 1965 
L 1216 1965 
L 1216 1562 
L 4326 1562 
L 4326 992 
L 1222 992 
L 1222 -410 
L 5024 -410 
z
M 1728 4954 
C 947 4954 314 4410 314 3635 
C 314 2842 954 2336 1728 2336 
C 2502 2336 3136 2848 3136 3635 
C 3136 4416 2502 4954 1728 4954 
z
M 1728 4531 
C 2285 4531 2656 4173 2656 3635 
C 2656 3098 2285 2758 1728 2758 
C 1197 2758 787 3098 787 3642 
C 787 4179 1203 4531 1728 4531 
z
" transform="scale(0.015625)"/>
     </defs>
     <use xlink:href="#AppleSDGothicNeo-Regular-d68c"/>
     <use xlink:href="#AppleSDGothicNeo-Regular-adc0" transform="translate(86.499985 0)"/>
     <use xlink:href="#AppleSDGothicNeo-Regular-2c" transform="translate(172.999969 0)"/>
     <use xlink:href="#AppleSDGothicNeo-Regular-20" transform="translate(195.59996 0)"/>
     <use xlink:href="#AppleSDGothicNeo-Regular-bd84" transform="translate(221.899948 0)"/>
     <use xlink:href="#AppleSDGothicNeo-Regular-b958" transform="translate(308.399933 0)"/>
     <use xlink:href="#AppleSDGothicNeo-Regular-2c" transform="translate(394.899918 0)"/>
     <use xlink:href="#AppleSDGothicNeo-Regular-20" transform="translate(417.499908 0)"/>
     <use xlink:href="#AppleSDGothicNeo-Regular-c2dc" transform="translate(443.799896 0)"/>
     <use xlink:href="#AppleSDGothicNeo-Regular-acc4" transform="translate(530.299881 0)"/>
     <use xlink:href="#AppleSDGothicNeo-Regular-c5f4" transform="translate(616.799866 0)"/>
    </g>
   </g>
   <g id="patch_5">
    <path d="M 254.614686 147.041276 
Q 275.46595 147.041276 294.081146 147.041276 
" style="fill: none; stroke: #002060; stroke-width: 2; stroke-linecap: round"/>
    <path d="M 290.081146 145.041276 
L 294.081146 147.041276 
L 290.081146 149.041276 
" style="fill: none; stroke: #002060; stroke-width: 2; stroke-linecap: round"/>
   </g>
   <g id="text_3">
    <!-- 전환 -->
    <g style="fill: #002060" transform="translate(266.814865 126.924371) scale(0.1 -0.1)">
     <defs>
      <path id="AppleSDGothicNeo-Regular-c804" d="M 403 4243 
L 1664 4243 
C 1664 3994 1664 3872 1658 3795 
C 1632 3059 928 2349 224 2074 
L 506 1696 
C 1107 1958 1754 2566 1907 3085 
C 2138 2579 2733 2048 3264 1830 
L 3539 2221 
C 2899 2432 2208 3072 2163 3789 
C 2157 3872 2157 3987 2157 4243 
L 3411 4243 
L 3411 4653 
L 403 4653 
L 403 4243 
z
M 4813 1050 
L 4813 5146 
L 4326 5146 
L 4326 3590 
L 3213 3590 
L 3213 3181 
L 4326 3181 
L 4326 1050 
L 4813 1050 
z
M 4934 -262 
L 4934 147 
L 1651 147 
L 1651 1459 
L 1165 1459 
L 1165 -262 
L 4934 -262 
z
" transform="scale(0.015625)"/>
      <path id="AppleSDGothicNeo-Regular-d658" d="M 3757 1466 
L 3731 1843 
C 3398 1792 2784 1741 2195 1702 
L 2195 2067 
C 2810 2118 3290 2368 3290 2861 
C 3290 3411 2688 3674 1965 3674 
C 1254 3674 653 3405 653 2854 
C 653 2374 1107 2125 1702 2067 
L 1702 1677 
C 1139 1658 576 1658 166 1658 
L 250 1248 
C 640 1248 1338 1267 1965 1306 
C 2630 1350 3354 1414 3757 1466 
z
M 5434 2733 
L 5434 3142 
L 4557 3142 
L 4557 5158 
L 4064 5158 
L 4064 794 
L 4557 794 
L 4557 2733 
L 5434 2733 
z
M 4698 -352 
L 4698 51 
L 1498 51 
L 1498 1037 
L 1011 1037 
L 1011 -352 
L 4698 -352 
z
M 3571 3859 
L 3571 4256 
L 320 4256 
L 320 3859 
L 3571 3859 
z
M 2835 2861 
C 2835 2579 2458 2438 1965 2438 
C 1478 2438 1114 2573 1114 2861 
C 1114 3149 1478 3283 1965 3283 
C 2458 3283 2835 3149 2835 2861 
z
M 2752 4595 
L 2752 5005 
L 1210 5005 
L 1210 4595 
L 2752 4595 
z
" transform="scale(0.015625)"/>
     </defs>
     <use xlink:href="#AppleSDGothicNeo-Regular-c804"/>
     <use xlink:href="#AppleSDGothicNeo-Regular-d658" transform="translate(86.499985 0)"/>
    </g>
   </g>
   <g id="text_4">
    <!-- 비정형 데이터 -->
    <g style="fill: #2e7d32" transform="translate(382.132802 127.63734) scale(0.12 -0.12)">
     <defs>
      <path id="AppleSDGothicNeo-Regular-be44" d="M 4838 -448 
L 4838 5146 
L 4352 5146 
L 4352 -448 
L 4838 -448 
z
M 3187 941 
L 3187 4672 
L 2701 4672 
L 2701 3238 
L 1024 3238 
L 1024 4672 
L 544 4672 
L 544 941 
L 3187 941 
z
M 2701 1350 
L 1024 1350 
L 1024 2835 
L 2701 2835 
L 2701 1350 
z
" transform="scale(0.015625)"/>
     </defs>
     <use xlink:href="#AppleSDGothicNeo-Regular-be44"/>
     <use xlink:href="#AppleSDGothicNeo-Regular-c815" transform="translate(86.499985 0)"/>
     <use xlink:href="#AppleSDGothicNeo-Regular-d615" transform="translate(172.999969 0)"/>
     <use xlink:href="#AppleSDGothicNeo-Regular-20" transform="translate(259.499954 0)"/>
     <use xlink:href="#AppleSDGothicNeo-Regular-b370" transform="translate(285.799942 0)"/>
     <use xlink:href="#AppleSDGothicNeo-Regular-c774" transform="translate(372.299927 0)"/>
     <use xlink:href="#AppleSDGothicNeo-Regular-d130" transform="translate(458.799911 0)"/>
    </g>
   </g>
   <g id="text_5">
    <!-- 텍스트, 이미지, 음성 -->
    <g style="fill: #555555" transform="translate(379.310458 164.082004) scale(0.09 -0.09)">
     <defs>
      <path id="AppleSDGothicNeo-Regular-d14d" d="M 986 2515 
L 986 3258 
L 2336 3258 
L 2336 3654 
L 986 3654 
L 986 4326 
L 2586 4326 
L 2586 4730 
L 506 4730 
L 506 2093 
L 864 2093 
C 1600 2093 2349 2144 2886 2253 
L 2822 2656 
C 2362 2554 1792 2515 1120 2515 
L 986 2515 
z
M 1184 1491 
L 1184 1088 
L 4467 1088 
L 4467 -448 
L 4960 -448 
L 4960 1491 
L 1184 1491 
z
M 3891 1818 
L 3891 5043 
L 3424 5043 
L 3424 3706 
L 2637 3706 
L 2637 3302 
L 3424 3302 
L 3424 1818 
L 3891 1818 
z
M 4960 1766 
L 4960 5146 
L 4474 5146 
L 4474 1766 
L 4960 1766 
z
" transform="scale(0.015625)"/>
      <path id="AppleSDGothicNeo-Regular-c2a4" d="M 5107 2266 
C 4250 2458 3021 3322 3021 4237 
L 3021 4678 
L 2515 4678 
L 2515 4237 
C 2515 3322 1350 2458 442 2278 
L 698 1862 
C 1670 2138 2560 2931 2758 3501 
C 2989 2931 3898 2138 4838 1856 
L 5107 2266 
z
M 5293 320 
L 5293 730 
L 243 730 
L 243 320 
L 5293 320 
z
" transform="scale(0.015625)"/>
      <path id="AppleSDGothicNeo-Regular-d2b8" d="M 4525 2976 
L 4525 3386 
L 1350 3386 
L 1350 4198 
L 4634 4198 
L 4634 4608 
L 858 4608 
L 858 1696 
L 4691 1696 
L 4691 2106 
L 1350 2106 
L 1350 2976 
L 4525 2976 
z
M 5293 262 
L 5293 672 
L 243 672 
L 243 262 
L 5293 262 
z
" transform="scale(0.015625)"/>
      <path id="AppleSDGothicNeo-Regular-bbf8" d="M 4800 -448 
L 4800 5146 
L 4314 5146 
L 4314 -448 
L 4800 -448 
z
M 3194 992 
L 3194 4570 
L 550 4570 
L 550 992 
L 3194 992 
z
M 2707 1395 
L 1043 1395 
L 1043 4166 
L 2707 4166 
L 2707 1395 
z
" transform="scale(0.015625)"/>
      <path id="AppleSDGothicNeo-Regular-c9c0" d="M 3699 1248 
C 2931 1664 2221 2566 2221 3610 
L 2221 4179 
L 3526 4179 
L 3526 4582 
L 410 4582 
L 410 4179 
L 1715 4179 
L 1715 3603 
C 1715 2547 1043 1594 224 1114 
L 525 755 
C 1171 1171 1786 1888 1971 2586 
C 2163 1926 2874 1222 3398 883 
L 3699 1248 
z
M 4346 5146 
L 4346 -448 
L 4832 -448 
L 4832 5146 
L 4346 5146 
z
" transform="scale(0.015625)"/>
      <path id="AppleSDGothicNeo-Regular-c74c" d="M 5293 2035 
L 5293 2445 
L 243 2445 
L 243 2035 
L 5293 2035 
z
M 4678 -371 
L 4678 1453 
L 864 1453 
L 864 -371 
L 4678 -371 
z
M 4192 32 
L 1350 32 
L 1350 1056 
L 4192 1056 
L 4192 32 
z
M 4723 3949 
C 4723 4582 3994 4998 2765 4998 
C 1542 4998 819 4582 819 3949 
C 819 3315 1542 2899 2765 2899 
C 3994 2899 4723 3315 4723 3949 
z
M 4250 3949 
C 4250 3539 3661 3290 2765 3290 
C 1869 3290 1293 3539 1293 3949 
C 1293 4365 1869 4608 2765 4608 
C 3661 4608 4250 4365 4250 3949 
z
" transform="scale(0.015625)"/>
      <path id="AppleSDGothicNeo-Regular-c131" d="M 4326 3456 
L 4326 1670 
L 4813 1670 
L 4813 5146 
L 4326 5146 
L 4326 3859 
L 3123 3859 
L 3123 3456 
L 4326 3456 
z
M 4870 614 
C 4870 1267 4198 1670 2995 1670 
C 1798 1670 1126 1267 1126 614 
C 1126 -38 1798 -442 2995 -442 
C 4198 -442 4870 -38 4870 614 
z
M 2995 1274 
C 3866 1274 4378 1030 4378 614 
C 4378 192 3866 -45 2995 -45 
C 2138 -45 1619 192 1619 614 
C 1619 1030 2138 1274 2995 1274 
z
M 3424 2483 
C 2790 2714 2054 3386 2054 4282 
L 2054 4826 
L 1562 4826 
L 1562 4269 
C 1562 3379 979 2662 173 2291 
L 474 1914 
C 1120 2240 1651 2829 1824 3405 
C 2042 2848 2598 2362 3136 2106 
L 3424 2483 
z
" transform="scale(0.015625)"/>
     </defs>
     <use xlink:href="#AppleSDGothicNeo-Regular-d14d"/>
     <use xlink:href="#AppleSDGothicNeo-Regular-c2a4" transform="translate(86.499985 0)"/>
     <use xlink:href="#AppleSDGothicNeo-Regular-d2b8" transform="translate(172.999969 0)"/>
     <use xlink:href="#AppleSDGothicNeo-Regular-2c" transform="translate(259.499954 0)"/>
     <use xlink:href="#AppleSDGothicNeo-Regular-20" transform="translate(282.099945 0)"/>
     <use xlink:href="#AppleSDGothicNeo-Regular-c774" transform="translate(308.399933 0)"/>
     <use xlink:href="#AppleSDGothicNeo-Regular-bbf8" transform="translate(394.899918 0)"/>
     <use xlink:href="#AppleSDGothicNeo-Regular-c9c0" transform="translate(481.399902 0)"/>
     <use xlink:href="#AppleSDGothicNeo-Regular-2c" transform="translate(567.899887 0)"/>
     <use xlink:href="#AppleSDGothicNeo-Regular-20" transform="translate(590.499878 0)"/>
     <use xlink:href="#AppleSDGothicNeo-Regular-c74c" transform="translate(616.799866 0)"/>
     <use xlink:href="#AppleSDGothicNeo-Regular-c131" transform="translate(703.29985 0)"/>
    </g>
    <!-- 생성, 대화, 멀티모달 -->
    <g style="fill: #555555" transform="translate(379.310458 173.525254) scale(0.09 -0.09)">
     <defs>
      <path id="AppleSDGothicNeo-Regular-c0dd" d="M 5011 595 
C 5011 1229 4301 1626 3104 1626 
C 1907 1626 1203 1229 1203 595 
C 1203 -38 1907 -435 3104 -435 
C 4301 -435 5011 -38 5011 595 
z
M 4960 1613 
L 4960 5146 
L 4474 5146 
L 4474 3667 
L 3776 3667 
L 3776 5043 
L 3302 5043 
L 3302 1888 
L 3776 1888 
L 3776 3258 
L 4474 3258 
L 4474 1613 
L 4960 1613 
z
M 3104 1216 
C 3962 1216 4493 973 4493 595 
C 4493 211 3962 -32 3104 -32 
C 2253 -32 1715 211 1715 595 
C 1715 973 2253 1216 3104 1216 
z
M 3072 2477 
C 2541 2707 1862 3277 1862 4134 
L 1862 4819 
L 1389 4819 
L 1389 4122 
C 1389 3283 787 2605 192 2285 
L 493 1914 
C 1011 2214 1498 2816 1638 3270 
C 1830 2835 2310 2342 2810 2106 
L 3072 2477 
z
" transform="scale(0.015625)"/>
      <path id="AppleSDGothicNeo-Regular-b300" d="M 4960 -448 
L 4960 5146 
L 4480 5146 
L 4480 2944 
L 3731 2944 
L 3731 5011 
L 3258 5011 
L 3258 -160 
L 3731 -160 
L 3731 2534 
L 4480 2534 
L 4480 -448 
L 4960 -448 
z
M 902 1414 
L 902 4051 
L 2586 4051 
L 2586 4461 
L 416 4461 
L 416 992 
L 787 992 
C 1517 992 2458 1056 2989 1158 
L 2944 1555 
C 2470 1453 1632 1414 1069 1414 
L 902 1414 
z
" transform="scale(0.015625)"/>
      <path id="AppleSDGothicNeo-Regular-d654" d="M 3731 1062 
C 3360 1005 2765 954 2144 915 
L 2144 1446 
C 2803 1510 3232 1856 3232 2368 
C 3232 2957 2701 3315 1907 3315 
C 1120 3315 582 2950 582 2368 
C 582 1862 1005 1517 1651 1446 
L 1651 890 
C 1114 870 544 870 147 883 
L 237 461 
C 704 461 1293 461 1914 499 
C 2586 544 3328 614 3763 666 
L 3731 1062 
z
M 5453 2246 
L 5453 2662 
L 4557 2662 
L 4557 5146 
L 4064 5146 
L 4064 -448 
L 4557 -448 
L 4557 2246 
L 5453 2246 
z
M 2758 2368 
C 2758 2054 2419 1830 1907 1830 
C 1402 1830 1050 2054 1050 2368 
C 1050 2694 1402 2912 1907 2912 
C 2419 2912 2758 2694 2758 2368 
z
M 3590 3603 
L 3590 4006 
L 262 4006 
L 262 3603 
L 3590 3603 
z
M 2701 4461 
L 2701 4870 
L 1094 4870 
L 1094 4461 
L 2701 4461 
z
" transform="scale(0.015625)"/>
      <path id="AppleSDGothicNeo-Regular-ba40" d="M 4326 3533 
L 4326 2266 
L 4813 2266 
L 4813 5146 
L 4326 5146 
L 4326 3942 
L 3360 3942 
L 3360 3533 
L 4326 3533 
z
M 5024 -410 
L 5024 -6 
L 1722 -6 
L 1722 627 
L 4819 627 
L 4819 1971 
L 1210 1971 
L 1210 1568 
L 4333 1568 
L 4333 1005 
L 1235 1005 
L 1235 -410 
L 5024 -410 
z
M 3078 2554 
L 3078 4864 
L 493 4864 
L 493 2554 
L 3078 2554 
z
M 2592 2957 
L 979 2957 
L 979 4461 
L 2592 4461 
L 2592 2957 
z
" transform="scale(0.015625)"/>
      <path id="AppleSDGothicNeo-Regular-d2f0" d="M 3718 1504 
C 3162 1389 1926 1299 1050 1325 
L 1050 2643 
L 3059 2643 
L 3059 3040 
L 1050 3040 
L 1050 4211 
L 3162 4211 
L 3162 4614 
L 557 4614 
L 557 902 
L 1043 902 
C 1933 902 3162 986 3770 1101 
L 3718 1504 
z
M 4832 -448 
L 4832 5146 
L 4346 5146 
L 4346 -448 
L 4832 -448 
z
" transform="scale(0.015625)"/>
      <path id="AppleSDGothicNeo-Regular-baa8" d="M 5293 262 
L 5293 672 
L 3002 672 
L 3002 2010 
L 4672 2010 
L 4672 4646 
L 851 4646 
L 851 2010 
L 2515 2010 
L 2515 672 
L 243 672 
L 243 262 
L 5293 262 
z
M 4186 2413 
L 1338 2413 
L 1338 4243 
L 4186 4243 
L 4186 2413 
z
" transform="scale(0.015625)"/>
      <path id="AppleSDGothicNeo-Regular-b2ec" d="M 5389 3494 
L 5389 3904 
L 4538 3904 
L 4538 5146 
L 4051 5146 
L 4051 2291 
L 4538 2291 
L 4538 3494 
L 5389 3494 
z
M 4749 -390 
L 4749 13 
L 1472 13 
L 1472 659 
L 4538 659 
L 4538 1997 
L 966 1997 
L 966 1600 
L 4051 1600 
L 4051 1030 
L 986 1030 
L 986 -390 
L 4749 -390 
z
M 890 2893 
L 890 4371 
L 2995 4371 
L 2995 4781 
L 403 4781 
L 403 2490 
L 858 2490 
C 1824 2490 2912 2566 3533 2669 
L 3482 3066 
C 2944 2957 1946 2893 1165 2893 
L 890 2893 
z
" transform="scale(0.015625)"/>
     </defs>
     <use xlink:href="#AppleSDGothicNeo-Regular-c0dd"/>
     <use xlink:href="#AppleSDGothicNeo-Regular-c131" transform="translate(86.499985 0)"/>
     <use xlink:href="#AppleSDGothicNeo-Regular-2c" transform="translate(172.999969 0)"/>
     <use xlink:href="#AppleSDGothicNeo-Regular-20" transform="translate(195.59996 0)"/>
     <use xlink:href="#AppleSDGothicNeo-Regular-b300" transform="translate(221.899948 0)"/>
     <use xlink:href="#AppleSDGothicNeo-Regular-d654" transform="translate(308.399933 0)"/>
     <use xlink:href="#AppleSDGothicNeo-Regular-2c" transform="translate(394.899918 0)"/>
     <use xlink:href="#AppleSDGothicNeo-Regular-20" transform="translate(417.499908 0)"/>
     <use xlink:href="#AppleSDGothicNeo-Regular-ba40" transform="translate(443.799896 0)"/>
     <use xlink:href="#AppleSDGothicNeo-Regular-d2f0" transform="translate(530.299881 0)"/>
     <use xlink:href="#AppleSDGothicNeo-Regular-baa8" transform="translate(616.799866 0)"/>
     <use xlink:href="#AppleSDGothicNeo-Regular-b2ec" transform="translate(703.29985 0)"/>
    </g>
   </g>
   <g id="text_6">
    <!-- 데이터의 종류가 AI의 가능성을 결정한다 -->
    <g style="fill: #f57f17" transform="translate(221.820312 242.696294) scale(0.1 -0.1)">
     <defs>
      <path id="AppleSDGothicNeo-Regular-c758" d="M 4352 5146 
L 4352 -448 
L 4838 -448 
L 4838 5146 
L 4352 5146 
z
M 3469 3379 
C 3469 4198 2842 4710 2016 4710 
C 1203 4710 557 4166 557 3379 
C 557 2630 1190 2080 2016 2080 
C 2822 2080 3469 2586 3469 3379 
z
M 2995 3379 
C 2995 2854 2547 2490 2016 2490 
C 1472 2490 1030 2861 1030 3379 
C 1030 3904 1478 4294 2016 4294 
C 2560 4294 2995 3942 2995 3379 
z
M 4026 973 
L 3981 1370 
C 3571 1318 2848 1274 2067 1248 
C 1389 1210 730 1197 250 1203 
L 339 774 
C 762 781 1376 800 2035 832 
C 2746 864 3546 915 4026 973 
z
" transform="scale(0.015625)"/>
      <path id="AppleSDGothicNeo-Regular-c885" d="M 4730 531 
C 4730 1152 4019 1485 2765 1485 
C 1517 1485 813 1126 813 531 
C 813 -77 1517 -435 2765 -435 
C 4019 -435 4730 -83 4730 531 
z
M 5043 3277 
C 4262 3354 3232 3789 3053 4454 
L 4832 4454 
L 4832 4858 
L 704 4858 
L 704 4454 
L 2490 4454 
C 2323 3795 1370 3354 506 3270 
L 730 2867 
C 1715 3008 2547 3507 2765 4026 
C 3046 3514 3885 3021 4819 2867 
L 5043 3277 
z
M 2765 1094 
C 3674 1094 4237 890 4237 531 
C 4237 160 3674 -38 2765 -38 
C 1862 -38 1306 160 1306 531 
C 1306 890 1862 1094 2765 1094 
z
M 5293 1939 
L 5293 2349 
L 3008 2349 
L 3008 3194 
L 2522 3194 
L 2522 2349 
L 243 2349 
L 243 1939 
L 5293 1939 
z
" transform="scale(0.015625)"/>
      <path id="AppleSDGothicNeo-Regular-ac00" d="M 4544 5146 
L 4058 5146 
L 4058 -448 
L 4544 -448 
L 4544 2400 
L 5459 2400 
L 5459 2816 
L 4544 2816 
L 4544 5146 
z
M 3091 4544 
L 461 4544 
L 461 4134 
L 2566 4134 
C 2464 2874 1664 1696 269 1050 
L 570 666 
C 2010 1414 3059 2726 3091 4544 
z
" transform="scale(0.015625)"/>
      <path id="AppleSDGothicNeo-Regular-41" d="M 122 269 
L 608 269 
L 1050 1523 
L 2771 1523 
L 3226 269 
L 3757 269 
L 2189 4563 
L 1696 4563 
L 122 269 
z
M 1901 3885 
L 1914 3885 
L 2611 1952 
L 1197 1952 
L 1901 3885 
z
" transform="scale(0.015625)"/>
      <path id="AppleSDGothicNeo-Regular-49" d="M 576 269 
L 1082 269 
L 1082 4563 
L 576 4563 
L 576 269 
z
" transform="scale(0.015625)"/>
      <path id="AppleSDGothicNeo-Regular-b2a5" d="M 5293 2131 
L 5293 2534 
L 243 2534 
L 243 2131 
L 5293 2131 
z
M 4710 3142 
L 4710 3546 
L 1434 3546 
L 1434 4998 
L 947 4998 
L 947 3142 
L 4710 3142 
z
M 4742 627 
C 4742 1293 3994 1664 2771 1664 
C 1555 1664 819 1293 819 627 
C 819 -45 1555 -416 2778 -416 
C 3994 -416 4742 -45 4742 627 
z
M 2771 1267 
C 3661 1267 4250 1062 4250 627 
C 4250 192 3661 -13 2771 -13 
C 1894 -13 1312 192 1312 627 
C 1312 1062 1894 1267 2771 1267 
z
" transform="scale(0.015625)"/>
      <path id="AppleSDGothicNeo-Regular-c744" d="M 5293 2317 
L 5293 2726 
L 243 2726 
L 243 2317 
L 5293 2317 
z
M 4730 4096 
C 4730 4710 3987 5069 2771 5069 
C 1568 5069 826 4710 826 4096 
C 826 3482 1568 3130 2771 3130 
C 3987 3130 4730 3482 4730 4096 
z
M 2771 4672 
C 3661 4672 4237 4448 4237 4096 
C 4237 3750 3661 3533 2771 3533 
C 1894 3533 1325 3750 1325 4096 
C 1325 4448 1894 4672 2771 4672 
z
M 4845 -397 
L 4845 0 
L 1318 0 
L 1318 563 
L 4659 563 
L 4659 1818 
L 819 1818 
L 819 1427 
L 4173 1427 
L 4173 934 
L 832 934 
L 832 -397 
L 4845 -397 
z
" transform="scale(0.015625)"/>
      <path id="AppleSDGothicNeo-Regular-acb0" d="M 5024 -416 
L 5024 -32 
L 1683 -32 
L 1683 640 
L 4813 640 
L 4813 1990 
L 1178 1990 
L 1178 1606 
L 4326 1606 
L 4326 992 
L 1197 992 
L 1197 -416 
L 5024 -416 
z
M 3104 4838 
L 550 4838 
L 550 4429 
L 2547 4429 
C 2362 3514 1542 2771 314 2464 
L 557 2067 
C 1952 2470 2989 3366 3104 4838 
z
M 3162 3936 
L 4326 3936 
L 4326 3290 
L 3091 3290 
L 3091 2899 
L 4326 2899 
L 4326 2298 
L 4813 2298 
L 4813 5146 
L 4326 5146 
L 4326 4320 
L 3162 4320 
L 3162 3936 
z
" transform="scale(0.015625)"/>
      <path id="AppleSDGothicNeo-Regular-d55c" d="M 5395 2842 
L 5395 3251 
L 4544 3251 
L 4544 5146 
L 4058 5146 
L 4058 1018 
L 4544 1018 
L 4544 2842 
L 5395 2842 
z
M 4762 -269 
L 4762 141 
L 1523 141 
L 1523 1165 
L 1037 1165 
L 1037 -269 
L 4762 -269 
z
M 2630 4518 
L 2630 4947 
L 1018 4947 
L 1018 4518 
L 2630 4518 
z
M 3494 3693 
L 3494 4096 
L 218 4096 
L 218 3693 
L 3494 3693 
z
M 3174 2413 
C 3174 3014 2611 3392 1856 3392 
C 1107 3392 544 3014 544 2413 
C 544 1824 1114 1434 1856 1434 
C 2611 1434 3174 1824 3174 2413 
z
M 2714 2413 
C 2714 2048 2310 1824 1856 1824 
C 1408 1824 1005 2048 1005 2413 
C 1005 2784 1408 3008 1856 3008 
C 2310 3008 2714 2784 2714 2413 
z
" transform="scale(0.015625)"/>
      <path id="AppleSDGothicNeo-Regular-b2e4" d="M 4557 5146 
L 4070 5146 
L 4070 -448 
L 4557 -448 
L 4557 2515 
L 5466 2515 
L 5466 2925 
L 4557 2925 
L 4557 5146 
z
M 954 1338 
L 954 4154 
L 3117 4154 
L 3117 4563 
L 461 4563 
L 461 922 
L 1011 922 
C 1984 922 3091 998 3693 1114 
L 3642 1517 
C 3104 1402 1997 1338 1274 1338 
L 954 1338 
z
" transform="scale(0.015625)"/>
     </defs>
     <use xlink:href="#AppleSDGothicNeo-Regular-b370"/>
     <use xlink:href="#AppleSDGothicNeo-Regular-c774" transform="translate(86.499985 0)"/>
     <use xlink:href="#AppleSDGothicNeo-Regular-d130" transform="translate(172.999969 0)"/>
     <use xlink:href="#AppleSDGothicNeo-Regular-c758" transform="translate(259.499954 0)"/>
     <use xlink:href="#AppleSDGothicNeo-Regular-20" transform="translate(345.999939 0)"/>
     <use xlink:href="#AppleSDGothicNeo-Regular-c885" transform="translate(372.299927 0)"/>
     <use xlink:href="#AppleSDGothicNeo-Regular-b958" transform="translate(458.799911 0)"/>
     <use xlink:href="#AppleSDGothicNeo-Regular-ac00" transform="translate(545.299896 0)"/>
     <use xlink:href="#AppleSDGothicNeo-Regular-20" transform="translate(631.799881 0)"/>
     <use xlink:href="#AppleSDGothicNeo-Regular-41" transform="translate(658.099869 0)"/>
     <use xlink:href="#AppleSDGothicNeo-Regular-49" transform="translate(718.599854 0)"/>
     <use xlink:href="#AppleSDGothicNeo-Regular-c758" transform="translate(744.499847 0)"/>
     <use xlink:href="#AppleSDGothicNeo-Regular-20" transform="translate(830.999832 0)"/>
     <use xlink:href="#AppleSDGothicNeo-Regular-ac00" transform="translate(857.29982 0)"/>
     <use xlink:href="#AppleSDGothicNeo-Regular-b2a5" transform="translate(943.799805 0)"/>
     <use xlink:href="#AppleSDGothicNeo-Regular-c131" transform="translate(1030.299789 0)"/>
     <use xlink:href="#AppleSDGothicNeo-Regular-c744" transform="translate(1116.799774 0)"/>
     <use xlink:href="#AppleSDGothicNeo-Regular-20" transform="translate(1203.299759 0)"/>
     <use xlink:href="#AppleSDGothicNeo-Regular-acb0" transform="translate(1229.599747 0)"/>
     <use xlink:href="#AppleSDGothicNeo-Regular-c815" transform="translate(1316.099731 0)"/>
     <use xlink:href="#AppleSDGothicNeo-Regular-d55c" transform="translate(1402.599716 0)"/>
     <use xlink:href="#AppleSDGothicNeo-Regular-b2e4" transform="translate(1489.099701 0)"/>
    </g>
   </g>
   <g id="text_7">
    <!-- 정형 데이터에서 비정형 데이터로 -->
    <g style="fill: #002060" transform="translate(210.307656 32.35375) scale(0.14 -0.14)">
     <defs>
      <path id="AppleSDGothicNeo-Regular-c5d0" d="M 1562 4659 
C 749 4659 333 3866 333 2746 
C 333 1619 749 832 1562 832 
C 2330 832 2739 1517 2790 2528 
L 3392 2528 
L 3392 -179 
L 3866 -179 
L 3866 5037 
L 3392 5037 
L 3392 2931 
L 2790 2931 
C 2752 3949 2336 4659 1562 4659 
z
M 2310 2746 
C 2310 1837 2016 1261 1562 1261 
C 1114 1261 826 1837 826 2746 
C 826 3648 1114 4230 1562 4230 
C 2016 4230 2310 3648 2310 2746 
z
M 4960 -448 
L 4960 5146 
L 4480 5146 
L 4480 -448 
L 4960 -448 
z
" transform="scale(0.015625)"/>
      <path id="AppleSDGothicNeo-Regular-c11c" d="M 4832 -448 
L 4832 5146 
L 4346 5146 
L 4346 3149 
L 3040 3149 
L 3040 2739 
L 4346 2739 
L 4346 -448 
L 4832 -448 
z
M 3590 1261 
C 2822 1709 2157 2618 2157 3642 
L 2157 4659 
L 1651 4659 
L 1651 3622 
C 1651 2630 1005 1638 192 1126 
L 512 762 
C 1158 1229 1709 1920 1907 2618 
C 2131 1946 2778 1235 3290 890 
L 3590 1261 
z
" transform="scale(0.015625)"/>
      <path id="AppleSDGothicNeo-Regular-b85c" d="M 5293 262 
L 5293 672 
L 3002 672 
L 3002 1626 
L 4826 1626 
L 4826 2035 
L 1350 2035 
L 1350 2970 
L 4666 2970 
L 4666 4678 
L 858 4678 
L 858 4269 
L 4179 4269 
L 4179 3373 
L 864 3373 
L 864 1626 
L 2515 1626 
L 2515 672 
L 243 672 
L 243 262 
L 5293 262 
z
" transform="scale(0.015625)"/>
     </defs>
     <use xlink:href="#AppleSDGothicNeo-Regular-c815"/>
     <use xlink:href="#AppleSDGothicNeo-Regular-d615" transform="translate(86.499985 0)"/>
     <use xlink:href="#AppleSDGothicNeo-Regular-20" transform="translate(172.999969 0)"/>
     <use xlink:href="#AppleSDGothicNeo-Regular-b370" transform="translate(199.299957 0)"/>
     <use xlink:href="#AppleSDGothicNeo-Regular-c774" transform="translate(285.799942 0)"/>
     <use xlink:href="#AppleSDGothicNeo-Regular-d130" transform="translate(372.299927 0)"/>
     <use xlink:href="#AppleSDGothicNeo-Regular-c5d0" transform="translate(458.799911 0)"/>
     <use xlink:href="#AppleSDGothicNeo-Regular-c11c" transform="translate(545.299896 0)"/>
     <use xlink:href="#AppleSDGothicNeo-Regular-20" transform="translate(631.799881 0)"/>
     <use xlink:href="#AppleSDGothicNeo-Regular-be44" transform="translate(658.099869 0)"/>
     <use xlink:href="#AppleSDGothicNeo-Regular-c815" transform="translate(744.599854 0)"/>
     <use xlink:href="#AppleSDGothicNeo-Regular-d615" transform="translate(831.099838 0)"/>
     <use xlink:href="#AppleSDGothicNeo-Regular-20" transform="translate(917.599823 0)"/>
     <use xlink:href="#AppleSDGothicNeo-Regular-b370" transform="translate(943.899811 0)"/>
     <use xlink:href="#AppleSDGothicNeo-Regular-c774" transform="translate(1030.399796 0)"/>
     <use xlink:href="#AppleSDGothicNeo-Regular-d130" transform="translate(1116.89978 0)"/>
     <use xlink:href="#AppleSDGothicNeo-Regular-b85c" transform="translate(1203.399765 0)"/>
    </g>
   </g>
  </g>
 </g>
 <defs>
  <clipPath id="pfdd2556feb">
   <rect x="21.6" y="50.35375" width="558" height="249.48"/>
  </clipPath>
 </defs>
</svg>
