<?xml version="1.0" encoding="utf-8" standalone="no"?>
<!DOCTYPE svg PUBLIC "-//W3C//DTD SVG 1.1//EN"
  "http://www.w3.org/Graphics/SVG/1.1/DTD/svg11.dtd">
<svg xmlns:xlink="http://www.w3.org/1999/xlink" width="657pt" height="293.71375pt" viewBox="0 0 657 293.71375" xmlns="http://www.w3.org/2000/svg" version="1.1">
 <metadata>
  <rdf:RDF xmlns:dc="http://purl.org/dc/elements/1.1/" xmlns:cc="http://creativecommons.org/ns#" xmlns:rdf="http://www.w3.org/1999/02/22-rdf-syntax-ns#">
   <cc:Work>
    <dc:type rdf:resource="http://purl.org/dc/dcmitype/StillImage"/>
    <dc:date>2026-02-18T23:39:37.800568</dc:date>
    <dc:format>image/svg+xml</dc:format>
    <dc:creator>
     <cc:Agent>
      <dc:title>Matplotlib v3.10.8, https://matplotlib.org/</dc:title>
     </cc:Agent>
    </dc:creator>
   </cc:Work>
  </rdf:RDF>
 </metadata>
 <defs>
  <style type="text/css">*{stroke-linejoin: round; stroke-linecap: butt}</style>
 </defs>
 <g id="figure_1">
  <g id="patch_1">
   <path d="M 0 293.71375 
L 657 293.71375 
L 657 0 
L 0 0 
z
" style="fill: #ffffff"/>
  </g>
  <g id="axes_1">
   <g id="patch_2">
    <path d="M 35.55 277.339129 
L 621.45 277.339129 
Q 635.881034 277.339129 635.881034 261.408095 
L 635.881034 61.059405 
Q 635.881034 45.128371 621.45 45.128371 
L 35.55 45.128371 
Q 21.118966 45.128371 21.118966 61.059405 
L 21.118966 261.408095 
Q 21.118966 277.339129 35.55 277.339129 
z
" clip-path="url(#pcedb142def)" style="fill: #eef3fa; stroke: #e0e0e0; stroke-width: 0.8; stroke-linejoin: miter"/>
   </g>
   <g id="patch_3">
    <path d="M 73.551724 232.923405 
L 227.482759 232.923405 
Q 234.698276 232.923405 234.698276 224.957888 
L 234.698276 92.199267 
Q 234.698276 84.23375 227.482759 84.23375 
L 73.551724 84.23375 
Q 66.336207 84.23375 66.336207 92.199267 
L 66.336207 224.957888 
Q 66.336207 232.923405 73.551724 232.923405 
z
" clip-path="url(#pcedb142def)" style="fill: #ffffff; stroke: #4080c0; stroke-width: 1.5; stroke-linejoin: miter"/>
   </g>
   <g id="patch_4">
    <path d="M 246.724138 232.923405 
L 400.655172 232.923405 
Q 407.87069 232.923405 407.87069 224.957888 
L 407.87069 92.199267 
Q 407.87069 84.23375 400.655172 84.23375 
L 246.724138 84.23375 
Q 239.508621 84.23375 239.508621 92.199267 
L 239.508621 224.957888 
Q 239.508621 232.923405 246.724138 232.923405 
z
" clip-path="url(#pcedb142def)" style="fill: #ffffff; stroke: #9060b0; stroke-width: 1.5; stroke-linejoin: miter"/>
   </g>
   <g id="patch_5">
    <path d="M 419.896552 232.923405 
L 573.827586 232.923405 
Q 581.043103 232.923405 581.043103 224.957888 
L 581.043103 92.199267 
Q 581.043103 84.23375 573.827586 84.23375 
L 419.896552 84.23375 
Q 412.681034 84.23375 412.681034 92.199267 
L 412.681034 224.957888 
Q 412.681034 232.923405 419.896552 232.923405 
z
" clip-path="url(#pcedb142def)" style="fill: #ffffff; stroke: #558838; stroke-width: 1.5; stroke-linejoin: miter"/>
   </g>
   <g id="text_1">
    <!-- Classical ML -->
    <g style="fill: #4080c0" transform="translate(125.321929 127.554337) scale(0.1 -0.1)">
     <defs>
      <path id="AppleSDGothicNeo-Regular-43" d="M 2182 198 
C 2688 198 3078 314 3366 480 
L 3366 909 
C 3098 774 2778 627 2246 627 
C 1261 627 851 1267 851 2368 
L 851 2579 
C 851 3718 1427 4205 2240 4205 
C 2662 4205 2982 4109 3322 3974 
L 3322 4397 
C 3059 4538 2726 4634 2266 4634 
C 1171 4634 314 4032 314 2496 
L 314 2368 
C 314 915 1024 198 2182 198 
z
" transform="scale(0.015625)"/>
      <path id="AppleSDGothicNeo-Regular-6c" d="M 480 269 
L 973 269 
L 973 4851 
L 480 4851 
L 480 269 
z
" transform="scale(0.015625)"/>
      <path id="AppleSDGothicNeo-Regular-61" d="M 1242 211 
C 1670 211 1939 365 2086 544 
L 2118 544 
L 2170 269 
L 2566 269 
L 2566 2566 
C 2566 3213 2176 3501 1478 3501 
C 1114 3501 806 3443 531 3328 
L 531 2976 
C 730 3034 979 3078 1286 3078 
C 1856 3078 2074 2950 2074 2458 
L 2074 2125 
L 1216 2022 
C 608 1952 250 1658 250 1101 
C 250 506 666 211 1242 211 
z
M 1363 595 
C 998 595 762 768 762 1114 
C 762 1478 954 1638 1344 1677 
L 2074 1760 
L 2074 826 
C 1939 691 1658 595 1363 595 
z
" transform="scale(0.015625)"/>
      <path id="AppleSDGothicNeo-Regular-73" d="M 1274 218 
C 1971 218 2394 550 2394 1152 
C 2394 1702 2144 1907 1536 2067 
L 1216 2157 
C 877 2253 742 2368 742 2643 
C 742 2938 954 3085 1382 3085 
C 1734 3085 2054 3002 2221 2918 
L 2221 3315 
C 2054 3405 1779 3501 1357 3501 
C 627 3501 275 3136 275 2598 
C 275 2061 589 1850 1050 1722 
L 1363 1638 
C 1766 1523 1914 1395 1914 1101 
C 1914 813 1709 634 1203 634 
C 755 634 525 730 250 832 
L 250 442 
C 512 294 858 218 1274 218 
z
" transform="scale(0.015625)"/>
      <path id="AppleSDGothicNeo-Regular-69" d="M 486 269 
L 973 269 
L 973 3437 
L 486 3437 
L 486 269 
z
M 480 4077 
L 979 4077 
L 979 4589 
L 480 4589 
L 480 4077 
z
" transform="scale(0.015625)"/>
      <path id="AppleSDGothicNeo-Regular-63" d="M 1734 211 
C 2176 211 2458 339 2662 461 
L 2662 858 
C 2502 768 2221 634 1792 634 
C 1114 634 774 998 774 1811 
L 774 1965 
C 774 2694 1152 3085 1728 3085 
C 2144 3085 2349 3008 2630 2880 
L 2630 3290 
C 2419 3424 2170 3501 1754 3501 
C 934 3501 269 3014 269 1888 
L 269 1792 
C 269 749 826 211 1734 211 
z
" transform="scale(0.015625)"/>
      <path id="AppleSDGothicNeo-Regular-20" transform="scale(0.015625)"/>
      <path id="AppleSDGothicNeo-Regular-4d" d="M 550 269 
L 1024 269 
L 1024 3898 
L 1043 3898 
L 2285 269 
L 2758 269 
L 4013 3898 
L 4032 3898 
L 4032 269 
L 4544 269 
L 4544 4563 
L 3795 4563 
L 2560 934 
L 2547 934 
L 1306 4563 
L 550 4563 
L 550 269 
z
" transform="scale(0.015625)"/>
      <path id="AppleSDGothicNeo-Regular-4c" d="M 550 269 
L 3002 269 
L 3002 698 
L 1062 698 
L 1062 4563 
L 550 4563 
L 550 269 
z
" transform="scale(0.015625)"/>
     </defs>
     <use xlink:href="#AppleSDGothicNeo-Regular-43"/>
     <use xlink:href="#AppleSDGothicNeo-Regular-6c" transform="translate(56.999985 0)"/>
     <use xlink:href="#AppleSDGothicNeo-Regular-61" transform="translate(79.699982 0)"/>
     <use xlink:href="#AppleSDGothicNeo-Regular-73" transform="translate(126.899979 0)"/>
     <use xlink:href="#AppleSDGothicNeo-Regular-73" transform="translate(168.399963 0)"/>
     <use xlink:href="#AppleSDGothicNeo-Regular-69" transform="translate(209.899948 0)"/>
     <use xlink:href="#AppleSDGothicNeo-Regular-63" transform="translate(232.599945 0)"/>
     <use xlink:href="#AppleSDGothicNeo-Regular-61" transform="translate(277.59993 0)"/>
     <use xlink:href="#AppleSDGothicNeo-Regular-6c" transform="translate(324.799927 0)"/>
     <use xlink:href="#AppleSDGothicNeo-Regular-20" transform="translate(347.499924 0)"/>
     <use xlink:href="#AppleSDGothicNeo-Regular-4d" transform="translate(373.799911 0)"/>
     <use xlink:href="#AppleSDGothicNeo-Regular-4c" transform="translate(453.399902 0)"/>
    </g>
    <!-- 1990~2010s -->
    <g style="fill: #4080c0" transform="translate(124.551616 137.709337) scale(0.1 -0.1)">
     <defs>
      <path id="AppleSDGothicNeo-Regular-31" d="M 1146 243 
L 1632 243 
L 1632 4634 
L 1363 4634 
L 352 4160 
L 352 3866 
L 1146 4051 
L 1146 243 
z
" transform="scale(0.015625)"/>
      <path id="AppleSDGothicNeo-Regular-39" d="M 1696 4634 
C 826 4634 307 3949 307 3142 
C 307 2323 896 1798 1619 1798 
C 2093 1798 2445 2010 2675 2272 
C 2630 1069 2227 621 1523 621 
C 1178 621 832 723 646 832 
L 506 461 
C 704 326 1107 192 1549 192 
C 2586 192 3187 979 3187 2477 
L 3187 2758 
C 3187 3974 2656 4634 1696 4634 
z
M 1702 4211 
C 2387 4211 2675 3686 2675 2886 
L 2675 2765 
C 2496 2515 2131 2227 1722 2227 
C 1203 2227 813 2515 813 3187 
C 813 3782 1146 4211 1702 4211 
z
" transform="scale(0.015625)"/>
      <path id="AppleSDGothicNeo-Regular-30" d="M 2022 192 
C 2893 192 3558 787 3558 2240 
L 3558 2630 
C 3558 4122 2867 4634 2029 4634 
C 1184 4634 448 4122 448 2605 
L 448 2246 
C 448 794 1139 192 2022 192 
z
M 2022 614 
C 1350 614 992 1126 992 2195 
L 992 2669 
C 992 3744 1357 4211 2029 4211 
C 2688 4211 3040 3718 3040 2637 
L 3040 2163 
C 3040 1062 2682 614 2022 614 
z
" transform="scale(0.015625)"/>
      <path id="AppleSDGothicNeo-Regular-7e" d="M 1843 2547 
C 1670 2688 1434 2867 1184 2867 
C 800 2867 474 2643 326 1984 
L 704 1856 
C 800 2202 915 2419 1133 2419 
C 1312 2419 1434 2323 1632 2150 
C 1651 2131 1664 2106 1690 2086 
C 1920 1907 2138 1792 2387 1792 
C 2701 1792 3110 2074 3206 2688 
L 2829 2797 
C 2778 2464 2630 2240 2413 2240 
C 2202 2240 2054 2368 1843 2547 
z
" transform="scale(0.015625)"/>
      <path id="AppleSDGothicNeo-Regular-32" d="M 397 269 
L 3066 269 
L 3066 704 
L 1107 704 
L 1779 1382 
C 2522 2138 2970 2650 2970 3392 
C 2970 4160 2502 4640 1638 4640 
C 1152 4640 717 4422 448 4250 
L 595 3846 
C 845 4019 1190 4198 1555 4198 
C 2163 4198 2438 3917 2438 3347 
C 2438 2733 2029 2266 1421 1632 
L 397 570 
L 397 269 
z
" transform="scale(0.015625)"/>
     </defs>
     <use xlink:href="#AppleSDGothicNeo-Regular-31"/>
     <use xlink:href="#AppleSDGothicNeo-Regular-39" transform="translate(35.699997 0)"/>
     <use xlink:href="#AppleSDGothicNeo-Regular-39" transform="translate(91.099991 0)"/>
     <use xlink:href="#AppleSDGothicNeo-Regular-30" transform="translate(146.499985 0)"/>
     <use xlink:href="#AppleSDGothicNeo-Regular-7e" transform="translate(209.499969 0)"/>
     <use xlink:href="#AppleSDGothicNeo-Regular-32" transform="translate(262.799957 0)"/>
     <use xlink:href="#AppleSDGothicNeo-Regular-30" transform="translate(316.099945 0)"/>
     <use xlink:href="#AppleSDGothicNeo-Regular-31" transform="translate(379.09993 0)"/>
     <use xlink:href="#AppleSDGothicNeo-Regular-30" transform="translate(414.799927 0)"/>
     <use xlink:href="#AppleSDGothicNeo-Regular-73" transform="translate(477.799911 0)"/>
    </g>
   </g>
   <g id="text_2">
    <!-- SVM, Random Forest -->
    <g style="fill: #666666" transform="translate(111.003726 186.095021) scale(0.09 -0.09)">
     <defs>
      <path id="AppleSDGothicNeo-Regular-53" d="M 1472 192 
C 2477 192 2912 691 2912 1440 
C 2912 2163 2509 2432 1875 2650 
L 1453 2784 
C 966 2950 813 3130 813 3539 
C 813 3949 1107 4205 1632 4205 
C 2106 4205 2445 4083 2694 3968 
L 2694 4397 
C 2458 4512 2157 4634 1651 4634 
C 755 4634 314 4160 314 3494 
C 314 2842 653 2534 1254 2336 
L 1670 2189 
C 2189 2022 2400 1843 2400 1402 
C 2400 934 2112 627 1453 627 
C 998 627 576 742 250 909 
L 250 480 
C 538 320 947 192 1472 192 
z
" transform="scale(0.015625)"/>
      <path id="AppleSDGothicNeo-Regular-56" d="M 1683 269 
L 2157 269 
L 3712 4563 
L 3232 4563 
L 1952 954 
L 1939 954 
L 653 4563 
L 128 4563 
L 1683 269 
z
" transform="scale(0.015625)"/>
      <path id="AppleSDGothicNeo-Regular-2c" d="M 122 -563 
L 467 -563 
L 941 685 
L 358 685 
L 122 -563 
z
" transform="scale(0.015625)"/>
      <path id="AppleSDGothicNeo-Regular-52" d="M 550 269 
L 1056 269 
L 1056 2112 
L 1875 2112 
L 2944 269 
L 3520 269 
L 2381 2202 
L 2381 2234 
C 2912 2400 3219 2746 3219 3360 
C 3219 4134 2746 4563 1798 4563 
L 550 4563 
L 550 269 
z
M 1056 2509 
L 1056 4134 
L 1760 4134 
C 2419 4134 2682 3885 2682 3354 
C 2682 2797 2438 2509 1766 2509 
L 1056 2509 
z
" transform="scale(0.015625)"/>
      <path id="AppleSDGothicNeo-Regular-6e" d="M 467 269 
L 954 269 
L 954 2848 
C 1216 2970 1549 3078 1850 3078 
C 2355 3078 2490 2918 2490 2534 
L 2490 269 
L 2976 269 
L 2976 2637 
C 2976 3251 2675 3501 2054 3501 
C 1664 3501 1254 3360 960 3168 
L 934 3168 
L 934 3443 
L 467 3443 
L 467 269 
z
" transform="scale(0.015625)"/>
      <path id="AppleSDGothicNeo-Regular-64" d="M 1600 211 
C 2029 211 2336 346 2528 531 
L 2554 531 
L 2611 269 
L 3021 269 
L 3021 4851 
L 2528 4851 
L 2528 3290 
C 2355 3392 2086 3501 1696 3501 
C 877 3501 282 3002 282 1850 
L 282 1766 
C 282 595 966 211 1600 211 
z
M 1747 614 
C 1178 614 794 896 794 1786 
L 794 1914 
C 794 2771 1158 3085 1760 3085 
C 2086 3085 2381 2995 2528 2880 
L 2528 883 
C 2368 755 2118 614 1747 614 
z
" transform="scale(0.015625)"/>
      <path id="AppleSDGothicNeo-Regular-6f" d="M 1702 211 
C 2560 211 3149 813 3149 1824 
L 3149 1914 
C 3149 2918 2605 3501 1709 3501 
C 851 3501 269 2899 269 1894 
L 269 1798 
C 269 787 806 211 1702 211 
z
M 1715 614 
C 1184 614 768 902 768 1786 
L 768 1946 
C 768 2688 1126 3098 1702 3098 
C 2221 3098 2650 2810 2650 1926 
L 2650 1766 
C 2650 1018 2291 614 1715 614 
z
" transform="scale(0.015625)"/>
      <path id="AppleSDGothicNeo-Regular-6d" d="M 467 269 
L 954 269 
L 954 2848 
C 1210 2970 1491 3078 1760 3078 
C 2182 3078 2336 2918 2336 2534 
L 2336 269 
L 2822 269 
L 2822 2637 
C 2822 2714 2816 2771 2803 2848 
C 3104 2982 3373 3078 3622 3078 
C 4051 3078 4205 2918 4205 2534 
L 4205 269 
L 4685 269 
L 4685 2637 
C 4685 3251 4365 3501 3814 3501 
C 3456 3501 3085 3373 2739 3149 
L 2714 3149 
C 2566 3386 2310 3501 1952 3501 
C 1594 3501 1254 3354 960 3168 
L 934 3168 
L 934 3443 
L 467 3443 
L 467 269 
z
" transform="scale(0.015625)"/>
      <path id="AppleSDGothicNeo-Regular-46" d="M 550 269 
L 1056 269 
L 1056 2195 
L 2586 2195 
L 2586 2630 
L 1056 2630 
L 1056 4134 
L 3040 4134 
L 3040 4563 
L 550 4563 
L 550 269 
z
" transform="scale(0.015625)"/>
      <path id="AppleSDGothicNeo-Regular-72" d="M 467 269 
L 960 269 
L 960 2765 
C 1184 2925 1491 3040 1811 3040 
C 1862 3040 1958 3034 2042 3021 
L 2042 3462 
C 2010 3469 1920 3475 1850 3475 
C 1491 3475 1146 3290 966 3085 
L 934 3085 
L 934 3443 
L 467 3443 
L 467 269 
z
" transform="scale(0.015625)"/>
      <path id="AppleSDGothicNeo-Regular-65" d="M 1773 211 
C 2285 211 2650 371 2842 506 
L 2842 870 
C 2554 736 2272 634 1850 634 
C 1171 634 794 941 768 1734 
L 2931 1734 
L 2931 2010 
C 2931 2995 2522 3501 1651 3501 
C 922 3501 269 3008 269 1901 
L 269 1811 
C 269 819 774 211 1773 211 
z
M 1638 3104 
C 2157 3104 2419 2816 2419 2125 
L 768 2125 
C 819 2874 1242 3104 1638 3104 
z
" transform="scale(0.015625)"/>
      <path id="AppleSDGothicNeo-Regular-74" d="M 1472 230 
C 1747 230 1882 301 2010 358 
L 2010 691 
C 1882 653 1734 634 1600 634 
C 1235 634 1133 755 1133 1062 
L 1133 3034 
L 1946 3034 
L 1946 3437 
L 1133 3437 
L 1133 4192 
L 646 4192 
L 646 3437 
L 192 3437 
L 192 3034 
L 646 3034 
L 646 986 
C 646 448 973 230 1472 230 
z
" transform="scale(0.015625)"/>
     </defs>
     <use xlink:href="#AppleSDGothicNeo-Regular-53"/>
     <use xlink:href="#AppleSDGothicNeo-Regular-56" transform="translate(50.399994 0)"/>
     <use xlink:href="#AppleSDGothicNeo-Regular-4d" transform="translate(110.399979 0)"/>
     <use xlink:href="#AppleSDGothicNeo-Regular-2c" transform="translate(189.999969 0)"/>
     <use xlink:href="#AppleSDGothicNeo-Regular-20" transform="translate(212.59996 0)"/>
     <use xlink:href="#AppleSDGothicNeo-Regular-52" transform="translate(238.899948 0)"/>
     <use xlink:href="#AppleSDGothicNeo-Regular-61" transform="translate(296.699936 0)"/>
     <use xlink:href="#AppleSDGothicNeo-Regular-6e" transform="translate(343.899933 0)"/>
     <use xlink:href="#AppleSDGothicNeo-Regular-64" transform="translate(397.499924 0)"/>
     <use xlink:href="#AppleSDGothicNeo-Regular-6f" transform="translate(451.999908 0)"/>
     <use xlink:href="#AppleSDGothicNeo-Regular-6d" transform="translate(505.399902 0)"/>
     <use xlink:href="#AppleSDGothicNeo-Regular-20" transform="translate(585.69989 0)"/>
     <use xlink:href="#AppleSDGothicNeo-Regular-46" transform="translate(611.999878 0)"/>
     <use xlink:href="#AppleSDGothicNeo-Regular-6f" transform="translate(663.599869 0)"/>
     <use xlink:href="#AppleSDGothicNeo-Regular-72" transform="translate(716.999863 0)"/>
     <use xlink:href="#AppleSDGothicNeo-Regular-65" transform="translate(751.599854 0)"/>
     <use xlink:href="#AppleSDGothicNeo-Regular-73" transform="translate(801.599838 0)"/>
     <use xlink:href="#AppleSDGothicNeo-Regular-74" transform="translate(843.099823 0)"/>
    </g>
    <!-- 정형 데이터 중심 -->
    <g style="fill: #666666" transform="translate(120.903023 195.344209) scale(0.09 -0.09)">
     <defs>
      <path id="AppleSDGothicNeo-Regular-c815" d="M 4858 614 
C 4858 1274 4179 1683 2976 1683 
C 1779 1683 1107 1274 1107 614 
C 1107 -38 1779 -448 2976 -448 
C 4179 -448 4858 -38 4858 614 
z
M 390 4269 
L 1664 4269 
C 1664 4166 1664 4032 1658 3968 
C 1632 3174 922 2464 218 2195 
L 480 1805 
C 1082 2067 1754 2739 1907 3264 
C 2138 2758 2739 2234 3322 2003 
L 3610 2394 
C 2925 2598 2208 3206 2163 3968 
C 2157 4032 2157 4160 2157 4269 
L 3418 4269 
L 3418 4678 
L 390 4678 
L 390 4269 
z
M 2976 1274 
C 3853 1274 4358 1037 4358 614 
C 4358 198 3853 -38 2976 -38 
C 2118 -38 1600 198 1600 614 
C 1600 1037 2118 1274 2976 1274 
z
M 4326 3283 
L 4326 1670 
L 4813 1670 
L 4813 5146 
L 4326 5146 
L 4326 3693 
L 3200 3693 
L 3200 3283 
L 4326 3283 
z
" transform="scale(0.015625)"/>
      <path id="AppleSDGothicNeo-Regular-d615" d="M 4838 525 
C 4838 1120 4192 1491 2976 1491 
C 1760 1491 1133 1126 1133 525 
C 1133 -70 1760 -435 2976 -435 
C 4192 -435 4838 -70 4838 525 
z
M 2976 1094 
C 3827 1094 4333 883 4333 525 
C 4333 160 3827 -38 2976 -38 
C 2131 -38 1638 166 1638 525 
C 1638 877 2131 1094 2976 1094 
z
M 4813 1491 
L 4813 5146 
L 4326 5146 
L 4326 3686 
L 3341 3686 
L 3341 3290 
L 4326 3290 
L 4326 2650 
L 3341 2650 
L 3341 2246 
L 4326 2246 
L 4326 1491 
L 4813 1491 
z
M 2643 4621 
L 2643 5037 
L 1043 5037 
L 1043 4621 
L 2643 4621 
z
M 3386 3827 
L 3386 4218 
L 262 4218 
L 262 3827 
L 3386 3827 
z
M 3155 2611 
C 3155 3187 2605 3539 1862 3539 
C 1133 3539 582 3187 582 2611 
C 582 2042 1139 1683 1862 1683 
C 2605 1683 3155 2048 3155 2611 
z
M 2669 2611 
C 2669 2266 2304 2074 1862 2074 
C 1440 2074 1062 2266 1062 2611 
C 1062 2957 1434 3149 1862 3149 
C 2304 3149 2669 2957 2669 2611 
z
" transform="scale(0.015625)"/>
      <path id="AppleSDGothicNeo-Regular-b370" d="M 4960 -448 
L 4960 5146 
L 4480 5146 
L 4480 -448 
L 4960 -448 
z
M 3366 2573 
L 3366 -160 
L 3846 -160 
L 3846 5011 
L 3366 5011 
L 3366 2982 
L 2067 2982 
L 2067 2573 
L 3366 2573 
z
M 915 1363 
L 915 4064 
L 2656 4064 
L 2656 4467 
L 429 4467 
L 429 947 
L 1043 947 
C 1792 960 2419 1024 2944 1114 
L 2886 1530 
C 2368 1421 1594 1325 915 1363 
z
" transform="scale(0.015625)"/>
      <path id="AppleSDGothicNeo-Regular-c774" d="M 4845 -448 
L 4845 5146 
L 4358 5146 
L 4358 -448 
L 4845 -448 
z
M 429 2752 
C 429 1562 954 768 1869 768 
C 2797 768 3315 1562 3315 2746 
C 3315 3930 2797 4723 1869 4723 
C 954 4723 429 3930 429 2752 
z
M 2854 2746 
C 2854 1830 2464 1190 1869 1190 
C 1280 1190 890 1830 890 2746 
C 890 3667 1280 4301 1869 4301 
C 2464 4301 2854 3667 2854 2746 
z
" transform="scale(0.015625)"/>
      <path id="AppleSDGothicNeo-Regular-d130" d="M 922 1267 
L 922 2682 
L 2861 2682 
L 2861 3078 
L 922 3078 
L 922 4237 
L 3085 4237 
L 3085 4640 
L 435 4640 
L 435 851 
L 1011 851 
C 1997 851 2938 934 3552 1050 
L 3494 1459 
C 2938 1338 1965 1267 1043 1267 
L 922 1267 
z
M 4819 -448 
L 4819 5146 
L 4333 5146 
L 4333 3002 
L 3226 3002 
L 3226 2586 
L 4333 2586 
L 4333 -448 
L 4819 -448 
z
" transform="scale(0.015625)"/>
      <path id="AppleSDGothicNeo-Regular-c911" d="M 4736 563 
C 4736 1158 4083 1504 3002 1549 
L 3002 2138 
L 5293 2138 
L 5293 2541 
L 243 2541 
L 243 2138 
L 2515 2138 
L 2515 1549 
C 1446 1498 806 1152 806 563 
C 806 -77 1549 -429 2765 -429 
C 3987 -429 4736 -77 4736 563 
z
M 5030 3302 
C 4256 3373 3219 3789 3053 4454 
L 4813 4454 
L 4813 4851 
L 717 4851 
L 717 4454 
L 2496 4454 
C 2336 3789 1376 3373 506 3296 
L 723 2886 
C 1709 3034 2547 3494 2765 4013 
C 3046 3501 3878 3046 4813 2893 
L 5030 3302 
z
M 2765 1152 
C 3648 1152 4237 960 4237 563 
C 4237 154 3654 -32 2765 -32 
C 1888 -32 1306 154 1306 563 
C 1306 960 1888 1152 2765 1152 
z
" transform="scale(0.015625)"/>
      <path id="AppleSDGothicNeo-Regular-c2ec" d="M 4832 1965 
L 4832 5146 
L 4346 5146 
L 4346 1965 
L 4832 1965 
z
M 3571 2560 
C 2938 2784 2182 3475 2182 4371 
L 2182 4883 
L 1690 4883 
L 1690 4352 
C 1690 3462 1056 2752 275 2394 
L 576 2016 
C 1280 2400 1779 2918 1952 3494 
C 2170 2931 2752 2432 3283 2170 
L 3571 2560 
z
M 4838 -371 
L 4838 1626 
L 1152 1626 
L 1152 -371 
L 4838 -371 
z
M 4352 32 
L 1645 32 
L 1645 1222 
L 4352 1222 
L 4352 32 
z
" transform="scale(0.015625)"/>
     </defs>
     <use xlink:href="#AppleSDGothicNeo-Regular-c815"/>
     <use xlink:href="#AppleSDGothicNeo-Regular-d615" transform="translate(86.499985 0)"/>
     <use xlink:href="#AppleSDGothicNeo-Regular-20" transform="translate(172.999969 0)"/>
     <use xlink:href="#AppleSDGothicNeo-Regular-b370" transform="translate(199.299957 0)"/>
     <use xlink:href="#AppleSDGothicNeo-Regular-c774" transform="translate(285.799942 0)"/>
     <use xlink:href="#AppleSDGothicNeo-Regular-d130" transform="translate(372.299927 0)"/>
     <use xlink:href="#AppleSDGothicNeo-Regular-20" transform="translate(458.799911 0)"/>
     <use xlink:href="#AppleSDGothicNeo-Regular-c911" transform="translate(485.099899 0)"/>
     <use xlink:href="#AppleSDGothicNeo-Regular-c2ec" transform="translate(571.599884 0)"/>
    </g>
   </g>
   <g id="text_3">
    <!-- 전환점 -->
    <g style="fill: #9060b0" transform="translate(310.714655 127.554337) scale(0.1 -0.1)">
     <defs>
      <path id="AppleSDGothicNeo-Regular-c804" d="M 403 4243 
L 1664 4243 
C 1664 3994 1664 3872 1658 3795 
C 1632 3059 928 2349 224 2074 
L 506 1696 
C 1107 1958 1754 2566 1907 3085 
C 2138 2579 2733 2048 3264 1830 
L 3539 2221 
C 2899 2432 2208 3072 2163 3789 
C 2157 3872 2157 3987 2157 4243 
L 3411 4243 
L 3411 4653 
L 403 4653 
L 403 4243 
z
M 4813 1050 
L 4813 5146 
L 4326 5146 
L 4326 3590 
L 3213 3590 
L 3213 3181 
L 4326 3181 
L 4326 1050 
L 4813 1050 
z
M 4934 -262 
L 4934 147 
L 1651 147 
L 1651 1459 
L 1165 1459 
L 1165 -262 
L 4934 -262 
z
" transform="scale(0.015625)"/>
      <path id="AppleSDGothicNeo-Regular-d658" d="M 3757 1466 
L 3731 1843 
C 3398 1792 2784 1741 2195 1702 
L 2195 2067 
C 2810 2118 3290 2368 3290 2861 
C 3290 3411 2688 3674 1965 3674 
C 1254 3674 653 3405 653 2854 
C 653 2374 1107 2125 1702 2067 
L 1702 1677 
C 1139 1658 576 1658 166 1658 
L 250 1248 
C 640 1248 1338 1267 1965 1306 
C 2630 1350 3354 1414 3757 1466 
z
M 5434 2733 
L 5434 3142 
L 4557 3142 
L 4557 5158 
L 4064 5158 
L 4064 794 
L 4557 794 
L 4557 2733 
L 5434 2733 
z
M 4698 -352 
L 4698 51 
L 1498 51 
L 1498 1037 
L 1011 1037 
L 1011 -352 
L 4698 -352 
z
M 3571 3859 
L 3571 4256 
L 320 4256 
L 320 3859 
L 3571 3859 
z
M 2835 2861 
C 2835 2579 2458 2438 1965 2438 
C 1478 2438 1114 2573 1114 2861 
C 1114 3149 1478 3283 1965 3283 
C 2458 3283 2835 3149 2835 2861 
z
M 2752 4595 
L 2752 5005 
L 1210 5005 
L 1210 4595 
L 2752 4595 
z
" transform="scale(0.015625)"/>
      <path id="AppleSDGothicNeo-Regular-c810" d="M 4819 -365 
L 4819 1574 
L 1229 1574 
L 1229 -365 
L 4819 -365 
z
M 371 4307 
L 1664 4307 
C 1664 4198 1664 4045 1658 3968 
C 1632 3174 922 2464 218 2195 
L 480 1805 
C 1082 2067 1754 2739 1907 3264 
C 2138 2758 2739 2208 3270 1990 
L 3546 2374 
C 2906 2586 2208 3206 2163 3968 
C 2157 4038 2157 4192 2157 4307 
L 3424 4307 
L 3424 4710 
L 371 4710 
L 371 4307 
z
M 4333 38 
L 1715 38 
L 1715 1178 
L 4333 1178 
L 4333 38 
z
M 4813 1882 
L 4813 5146 
L 4326 5146 
L 4326 3680 
L 3219 3680 
L 3219 3277 
L 4326 3277 
L 4326 1882 
L 4813 1882 
z
" transform="scale(0.015625)"/>
     </defs>
     <use xlink:href="#AppleSDGothicNeo-Regular-c804"/>
     <use xlink:href="#AppleSDGothicNeo-Regular-d658" transform="translate(86.499985 0)"/>
     <use xlink:href="#AppleSDGothicNeo-Regular-c810" transform="translate(172.999969 0)"/>
    </g>
    <!-- 2017~2022 -->
    <g style="fill: #9060b0" transform="translate(299.83028 137.709337) scale(0.1 -0.1)">
     <defs>
      <path id="AppleSDGothicNeo-Regular-37" d="M 710 243 
L 1274 243 
L 2957 4218 
L 2957 4544 
L 218 4544 
L 218 4115 
L 2400 4115 
L 710 243 
z
" transform="scale(0.015625)"/>
     </defs>
     <use xlink:href="#AppleSDGothicNeo-Regular-32"/>
     <use xlink:href="#AppleSDGothicNeo-Regular-30" transform="translate(53.299988 0)"/>
     <use xlink:href="#AppleSDGothicNeo-Regular-31" transform="translate(116.299973 0)"/>
     <use xlink:href="#AppleSDGothicNeo-Regular-37" transform="translate(151.999969 0)"/>
     <use xlink:href="#AppleSDGothicNeo-Regular-7e" transform="translate(200.999954 0)"/>
     <use xlink:href="#AppleSDGothicNeo-Regular-32" transform="translate(254.299942 0)"/>
     <use xlink:href="#AppleSDGothicNeo-Regular-30" transform="translate(307.59993 0)"/>
     <use xlink:href="#AppleSDGothicNeo-Regular-32" transform="translate(370.599915 0)"/>
     <use xlink:href="#AppleSDGothicNeo-Regular-32" transform="translate(423.899902 0)"/>
    </g>
   </g>
   <g id="text_4">
    <!-- Transformer 등장 -->
    <g style="fill: #666666" transform="translate(291.479499 186.191349) scale(0.09 -0.09)">
     <defs>
      <path id="AppleSDGothicNeo-Regular-54" d="M 1491 269 
L 1990 269 
L 1990 4134 
L 3302 4134 
L 3302 4563 
L 179 4563 
L 179 4134 
L 1491 4134 
L 1491 269 
z
" transform="scale(0.015625)"/>
      <path id="AppleSDGothicNeo-Regular-66" d="M 653 269 
L 1146 269 
L 1146 3034 
L 1875 3034 
L 1875 3437 
L 1146 3437 
L 1146 3866 
C 1146 4307 1357 4486 1734 4486 
C 1952 4486 2086 4461 2182 4442 
L 2182 4787 
C 2067 4845 1894 4896 1645 4896 
C 1069 4896 653 4595 653 3898 
L 653 3437 
L 186 3437 
L 186 3034 
L 653 3034 
L 653 269 
z
" transform="scale(0.015625)"/>
      <path id="AppleSDGothicNeo-Regular-b4f1" d="M 5293 2048 
L 5293 2451 
L 243 2451 
L 243 2048 
L 5293 2048 
z
M 4698 3008 
L 4698 3418 
L 1350 3418 
L 1350 4499 
L 4672 4499 
L 4672 4909 
L 864 4909 
L 864 3008 
L 4698 3008 
z
M 4762 576 
C 4762 1216 4006 1562 2771 1562 
C 1549 1562 800 1216 800 576 
C 800 -64 1549 -410 2778 -410 
C 4006 -410 4762 -64 4762 576 
z
M 2771 1146 
C 3674 1146 4269 947 4269 576 
C 4269 211 3680 13 2771 13 
C 1882 13 1286 211 1286 576 
C 1286 947 1882 1146 2771 1146 
z
" transform="scale(0.015625)"/>
      <path id="AppleSDGothicNeo-Regular-c7a5" d="M 4621 621 
C 4621 1293 3910 1696 2739 1696 
C 1568 1696 864 1293 864 621 
C 864 -38 1568 -442 2739 -442 
C 3910 -442 4621 -38 4621 621 
z
M 275 4333 
L 1562 4333 
C 1562 4192 1555 4083 1555 4032 
C 1530 3290 819 2586 115 2317 
L 397 1939 
C 998 2195 1651 2797 1805 3322 
C 2035 2816 2605 2310 3142 2093 
L 3411 2483 
C 2771 2694 2106 3309 2061 4026 
C 2054 4083 2054 4192 2054 4333 
L 3328 4333 
L 3328 4742 
L 275 4742 
L 275 4333 
z
M 4122 621 
C 4122 205 3584 -38 2739 -38 
C 1894 -38 1370 205 1370 621 
C 1370 1056 1894 1286 2739 1286 
C 3584 1286 4122 1056 4122 621 
z
M 5408 3187 
L 5408 3597 
L 4544 3597 
L 4544 5146 
L 4058 5146 
L 4058 1709 
L 4544 1709 
L 4544 3187 
L 5408 3187 
z
" transform="scale(0.015625)"/>
     </defs>
     <use xlink:href="#AppleSDGothicNeo-Regular-54"/>
     <use xlink:href="#AppleSDGothicNeo-Regular-72" transform="translate(54.399994 0)"/>
     <use xlink:href="#AppleSDGothicNeo-Regular-61" transform="translate(88.999985 0)"/>
     <use xlink:href="#AppleSDGothicNeo-Regular-6e" transform="translate(136.199982 0)"/>
     <use xlink:href="#AppleSDGothicNeo-Regular-73" transform="translate(189.799973 0)"/>
     <use xlink:href="#AppleSDGothicNeo-Regular-66" transform="translate(231.299957 0)"/>
     <use xlink:href="#AppleSDGothicNeo-Regular-6f" transform="translate(263.599945 0)"/>
     <use xlink:href="#AppleSDGothicNeo-Regular-72" transform="translate(316.999939 0)"/>
     <use xlink:href="#AppleSDGothicNeo-Regular-6d" transform="translate(351.59993 0)"/>
     <use xlink:href="#AppleSDGothicNeo-Regular-65" transform="translate(431.899918 0)"/>
     <use xlink:href="#AppleSDGothicNeo-Regular-72" transform="translate(481.899902 0)"/>
     <use xlink:href="#AppleSDGothicNeo-Regular-20" transform="translate(516.499893 0)"/>
     <use xlink:href="#AppleSDGothicNeo-Regular-b4f1" transform="translate(542.799881 0)"/>
     <use xlink:href="#AppleSDGothicNeo-Regular-c7a5" transform="translate(629.299866 0)"/>
    </g>
    <!-- GPT, ChatGPT -->
    <g style="fill: #666666" transform="translate(297.243718 195.330849) scale(0.09 -0.09)">
     <defs>
      <path id="AppleSDGothicNeo-Regular-47" d="M 2298 198 
C 2842 198 3283 314 3616 435 
L 3616 2349 
L 2195 2349 
L 2195 1926 
L 3117 1926 
L 3117 755 
C 2912 678 2611 627 2310 627 
C 1158 627 851 1344 851 2342 
L 851 2515 
C 851 3424 1229 4205 2298 4205 
C 2867 4205 3194 4064 3456 3942 
L 3456 4384 
C 3200 4512 2867 4634 2336 4634 
C 1254 4634 307 4058 307 2445 
L 307 2330 
C 307 858 1082 198 2298 198 
z
" transform="scale(0.015625)"/>
      <path id="AppleSDGothicNeo-Regular-50" d="M 550 269 
L 1062 269 
L 1062 1990 
L 1939 1990 
C 2758 1990 3309 2451 3309 3296 
C 3309 4102 2842 4563 1875 4563 
L 550 4563 
L 550 269 
z
M 1062 2413 
L 1062 4134 
L 1824 4134 
C 2522 4134 2765 3872 2765 3264 
C 2765 2688 2502 2413 1837 2413 
L 1062 2413 
z
" transform="scale(0.015625)"/>
      <path id="AppleSDGothicNeo-Regular-68" d="M 467 269 
L 954 269 
L 954 2842 
C 1216 2970 1549 3078 1850 3078 
C 2355 3078 2490 2918 2490 2534 
L 2490 269 
L 2976 269 
L 2976 2630 
C 2976 3245 2675 3501 2054 3501 
C 1664 3501 1261 3366 986 3168 
L 954 3168 
L 954 4851 
L 467 4851 
L 467 269 
z
" transform="scale(0.015625)"/>
     </defs>
     <use xlink:href="#AppleSDGothicNeo-Regular-47"/>
     <use xlink:href="#AppleSDGothicNeo-Regular-50" transform="translate(63.299988 0)"/>
     <use xlink:href="#AppleSDGothicNeo-Regular-54" transform="translate(118.599976 0)"/>
     <use xlink:href="#AppleSDGothicNeo-Regular-2c" transform="translate(172.999969 0)"/>
     <use xlink:href="#AppleSDGothicNeo-Regular-20" transform="translate(195.59996 0)"/>
     <use xlink:href="#AppleSDGothicNeo-Regular-43" transform="translate(221.899948 0)"/>
     <use xlink:href="#AppleSDGothicNeo-Regular-68" transform="translate(278.899933 0)"/>
     <use xlink:href="#AppleSDGothicNeo-Regular-61" transform="translate(332.499924 0)"/>
     <use xlink:href="#AppleSDGothicNeo-Regular-74" transform="translate(379.699921 0)"/>
     <use xlink:href="#AppleSDGothicNeo-Regular-47" transform="translate(414.699905 0)"/>
     <use xlink:href="#AppleSDGothicNeo-Regular-50" transform="translate(477.999893 0)"/>
     <use xlink:href="#AppleSDGothicNeo-Regular-54" transform="translate(533.299881 0)"/>
    </g>
   </g>
   <g id="text_5">
    <!-- LLM 시대 -->
    <g style="fill: #558838" transform="translate(477.867538 127.605119) scale(0.1 -0.1)">
     <defs>
      <path id="AppleSDGothicNeo-Regular-c2dc" d="M 4851 -448 
L 4851 5146 
L 4358 5146 
L 4358 -448 
L 4851 -448 
z
M 3648 1267 
C 2874 1728 2195 2643 2195 3667 
L 2195 4659 
L 1702 4659 
L 1702 3648 
C 1702 2656 1030 1638 211 1126 
L 531 762 
C 1178 1222 1754 1907 1958 2605 
C 2176 1933 2835 1242 3341 896 
L 3648 1267 
z
" transform="scale(0.015625)"/>
      <path id="AppleSDGothicNeo-Regular-b300" d="M 4960 -448 
L 4960 5146 
L 4480 5146 
L 4480 2944 
L 3731 2944 
L 3731 5011 
L 3258 5011 
L 3258 -160 
L 3731 -160 
L 3731 2534 
L 4480 2534 
L 4480 -448 
L 4960 -448 
z
M 902 1414 
L 902 4051 
L 2586 4051 
L 2586 4461 
L 416 4461 
L 416 992 
L 787 992 
C 1517 992 2458 1056 2989 1158 
L 2944 1555 
C 2470 1453 1632 1414 1069 1414 
L 902 1414 
z
" transform="scale(0.015625)"/>
     </defs>
     <use xlink:href="#AppleSDGothicNeo-Regular-4c"/>
     <use xlink:href="#AppleSDGothicNeo-Regular-4c" transform="translate(50.499985 0)"/>
     <use xlink:href="#AppleSDGothicNeo-Regular-4d" transform="translate(100.999969 0)"/>
     <use xlink:href="#AppleSDGothicNeo-Regular-20" transform="translate(180.59996 0)"/>
     <use xlink:href="#AppleSDGothicNeo-Regular-c2dc" transform="translate(206.899948 0)"/>
     <use xlink:href="#AppleSDGothicNeo-Regular-b300" transform="translate(293.399933 0)"/>
    </g>
    <!-- 2020s~ -->
    <g style="fill: #558838" transform="translate(480.492538 137.760119) scale(0.1 -0.1)">
     <use xlink:href="#AppleSDGothicNeo-Regular-32"/>
     <use xlink:href="#AppleSDGothicNeo-Regular-30" transform="translate(53.299988 0)"/>
     <use xlink:href="#AppleSDGothicNeo-Regular-32" transform="translate(116.299973 0)"/>
     <use xlink:href="#AppleSDGothicNeo-Regular-30" transform="translate(169.59996 0)"/>
     <use xlink:href="#AppleSDGothicNeo-Regular-73" transform="translate(232.599945 0)"/>
     <use xlink:href="#AppleSDGothicNeo-Regular-7e" transform="translate(274.09993 0)"/>
    </g>
   </g>
   <g id="text_6">
    <!-- 텍스트 생성 중심 -->
    <g style="fill: #666666" transform="translate(467.24785 186.043693) scale(0.09 -0.09)">
     <defs>
      <path id="AppleSDGothicNeo-Regular-d14d" d="M 986 2515 
L 986 3258 
L 2336 3258 
L 2336 3654 
L 986 3654 
L 986 4326 
L 2586 4326 
L 2586 4730 
L 506 4730 
L 506 2093 
L 864 2093 
C 1600 2093 2349 2144 2886 2253 
L 2822 2656 
C 2362 2554 1792 2515 1120 2515 
L 986 2515 
z
M 1184 1491 
L 1184 1088 
L 4467 1088 
L 4467 -448 
L 4960 -448 
L 4960 1491 
L 1184 1491 
z
M 3891 1818 
L 3891 5043 
L 3424 5043 
L 3424 3706 
L 2637 3706 
L 2637 3302 
L 3424 3302 
L 3424 1818 
L 3891 1818 
z
M 4960 1766 
L 4960 5146 
L 4474 5146 
L 4474 1766 
L 4960 1766 
z
" transform="scale(0.015625)"/>
      <path id="AppleSDGothicNeo-Regular-c2a4" d="M 5107 2266 
C 4250 2458 3021 3322 3021 4237 
L 3021 4678 
L 2515 4678 
L 2515 4237 
C 2515 3322 1350 2458 442 2278 
L 698 1862 
C 1670 2138 2560 2931 2758 3501 
C 2989 2931 3898 2138 4838 1856 
L 5107 2266 
z
M 5293 320 
L 5293 730 
L 243 730 
L 243 320 
L 5293 320 
z
" transform="scale(0.015625)"/>
      <path id="AppleSDGothicNeo-Regular-d2b8" d="M 4525 2976 
L 4525 3386 
L 1350 3386 
L 1350 4198 
L 4634 4198 
L 4634 4608 
L 858 4608 
L 858 1696 
L 4691 1696 
L 4691 2106 
L 1350 2106 
L 1350 2976 
L 4525 2976 
z
M 5293 262 
L 5293 672 
L 243 672 
L 243 262 
L 5293 262 
z
" transform="scale(0.015625)"/>
      <path id="AppleSDGothicNeo-Regular-c0dd" d="M 5011 595 
C 5011 1229 4301 1626 3104 1626 
C 1907 1626 1203 1229 1203 595 
C 1203 -38 1907 -435 3104 -435 
C 4301 -435 5011 -38 5011 595 
z
M 4960 1613 
L 4960 5146 
L 4474 5146 
L 4474 3667 
L 3776 3667 
L 3776 5043 
L 3302 5043 
L 3302 1888 
L 3776 1888 
L 3776 3258 
L 4474 3258 
L 4474 1613 
L 4960 1613 
z
M 3104 1216 
C 3962 1216 4493 973 4493 595 
C 4493 211 3962 -32 3104 -32 
C 2253 -32 1715 211 1715 595 
C 1715 973 2253 1216 3104 1216 
z
M 3072 2477 
C 2541 2707 1862 3277 1862 4134 
L 1862 4819 
L 1389 4819 
L 1389 4122 
C 1389 3283 787 2605 192 2285 
L 493 1914 
C 1011 2214 1498 2816 1638 3270 
C 1830 2835 2310 2342 2810 2106 
L 3072 2477 
z
" transform="scale(0.015625)"/>
      <path id="AppleSDGothicNeo-Regular-c131" d="M 4326 3456 
L 4326 1670 
L 4813 1670 
L 4813 5146 
L 4326 5146 
L 4326 3859 
L 3123 3859 
L 3123 3456 
L 4326 3456 
z
M 4870 614 
C 4870 1267 4198 1670 2995 1670 
C 1798 1670 1126 1267 1126 614 
C 1126 -38 1798 -442 2995 -442 
C 4198 -442 4870 -38 4870 614 
z
M 2995 1274 
C 3866 1274 4378 1030 4378 614 
C 4378 192 3866 -45 2995 -45 
C 2138 -45 1619 192 1619 614 
C 1619 1030 2138 1274 2995 1274 
z
M 3424 2483 
C 2790 2714 2054 3386 2054 4282 
L 2054 4826 
L 1562 4826 
L 1562 4269 
C 1562 3379 979 2662 173 2291 
L 474 1914 
C 1120 2240 1651 2829 1824 3405 
C 2042 2848 2598 2362 3136 2106 
L 3424 2483 
z
" transform="scale(0.015625)"/>
     </defs>
     <use xlink:href="#AppleSDGothicNeo-Regular-d14d"/>
     <use xlink:href="#AppleSDGothicNeo-Regular-c2a4" transform="translate(86.499985 0)"/>
     <use xlink:href="#AppleSDGothicNeo-Regular-d2b8" transform="translate(172.999969 0)"/>
     <use xlink:href="#AppleSDGothicNeo-Regular-20" transform="translate(259.499954 0)"/>
     <use xlink:href="#AppleSDGothicNeo-Regular-c0dd" transform="translate(285.799942 0)"/>
     <use xlink:href="#AppleSDGothicNeo-Regular-c131" transform="translate(372.299927 0)"/>
     <use xlink:href="#AppleSDGothicNeo-Regular-20" transform="translate(458.799911 0)"/>
     <use xlink:href="#AppleSDGothicNeo-Regular-c911" transform="translate(485.099899 0)"/>
     <use xlink:href="#AppleSDGothicNeo-Regular-c2ec" transform="translate(571.599884 0)"/>
    </g>
    <!-- 멀티모달, 바이브 코딩 -->
    <g style="fill: #666666" transform="translate(458.446131 195.486943) scale(0.09 -0.09)">
     <defs>
      <path id="AppleSDGothicNeo-Regular-ba40" d="M 4326 3533 
L 4326 2266 
L 4813 2266 
L 4813 5146 
L 4326 5146 
L 4326 3942 
L 3360 3942 
L 3360 3533 
L 4326 3533 
z
M 5024 -410 
L 5024 -6 
L 1722 -6 
L 1722 627 
L 4819 627 
L 4819 1971 
L 1210 1971 
L 1210 1568 
L 4333 1568 
L 4333 1005 
L 1235 1005 
L 1235 -410 
L 5024 -410 
z
M 3078 2554 
L 3078 4864 
L 493 4864 
L 493 2554 
L 3078 2554 
z
M 2592 2957 
L 979 2957 
L 979 4461 
L 2592 4461 
L 2592 2957 
z
" transform="scale(0.015625)"/>
      <path id="AppleSDGothicNeo-Regular-d2f0" d="M 3718 1504 
C 3162 1389 1926 1299 1050 1325 
L 1050 2643 
L 3059 2643 
L 3059 3040 
L 1050 3040 
L 1050 4211 
L 3162 4211 
L 3162 4614 
L 557 4614 
L 557 902 
L 1043 902 
C 1933 902 3162 986 3770 1101 
L 3718 1504 
z
M 4832 -448 
L 4832 5146 
L 4346 5146 
L 4346 -448 
L 4832 -448 
z
" transform="scale(0.015625)"/>
      <path id="AppleSDGothicNeo-Regular-baa8" d="M 5293 262 
L 5293 672 
L 3002 672 
L 3002 2010 
L 4672 2010 
L 4672 4646 
L 851 4646 
L 851 2010 
L 2515 2010 
L 2515 672 
L 243 672 
L 243 262 
L 5293 262 
z
M 4186 2413 
L 1338 2413 
L 1338 4243 
L 4186 4243 
L 4186 2413 
z
" transform="scale(0.015625)"/>
      <path id="AppleSDGothicNeo-Regular-b2ec" d="M 5389 3494 
L 5389 3904 
L 4538 3904 
L 4538 5146 
L 4051 5146 
L 4051 2291 
L 4538 2291 
L 4538 3494 
L 5389 3494 
z
M 4749 -390 
L 4749 13 
L 1472 13 
L 1472 659 
L 4538 659 
L 4538 1997 
L 966 1997 
L 966 1600 
L 4051 1600 
L 4051 1030 
L 986 1030 
L 986 -390 
L 4749 -390 
z
M 890 2893 
L 890 4371 
L 2995 4371 
L 2995 4781 
L 403 4781 
L 403 2490 
L 858 2490 
C 1824 2490 2912 2566 3533 2669 
L 3482 3066 
C 2944 2957 1946 2893 1165 2893 
L 890 2893 
z
" transform="scale(0.015625)"/>
      <path id="AppleSDGothicNeo-Regular-bc14" d="M 5453 2509 
L 5453 2925 
L 4544 2925 
L 4544 5146 
L 4058 5146 
L 4058 -448 
L 4544 -448 
L 4544 2509 
L 5453 2509 
z
M 3059 941 
L 3059 4672 
L 2566 4672 
L 2566 3251 
L 915 3251 
L 915 4672 
L 429 4672 
L 429 941 
L 3059 941 
z
M 2566 1350 
L 915 1350 
L 915 2848 
L 2566 2848 
L 2566 1350 
z
" transform="scale(0.015625)"/>
      <path id="AppleSDGothicNeo-Regular-be0c" d="M 5293 314 
L 5293 723 
L 243 723 
L 243 314 
L 5293 314 
z
M 4666 1837 
L 4666 4653 
L 4179 4653 
L 4179 3635 
L 1350 3635 
L 1350 4646 
L 864 4646 
L 864 1837 
L 4666 1837 
z
M 4179 2240 
L 1350 2240 
L 1350 3238 
L 4179 3238 
L 4179 2240 
z
" transform="scale(0.015625)"/>
      <path id="AppleSDGothicNeo-Regular-cf54" d="M 832 4557 
L 832 4154 
L 4160 4154 
L 4160 3712 
C 4160 3546 4154 3366 4147 3168 
L 678 3040 
L 755 2611 
L 4122 2784 
C 4083 2253 4026 1734 3962 1466 
L 4435 1414 
C 4595 2125 4659 3213 4659 3962 
L 4659 4557 
L 832 4557 
z
M 5293 314 
L 5293 723 
L 2707 723 
L 2707 2202 
L 2221 2202 
L 2221 723 
L 243 723 
L 243 314 
L 5293 314 
z
" transform="scale(0.015625)"/>
      <path id="AppleSDGothicNeo-Regular-b529" d="M 4813 1722 
L 4813 5146 
L 4326 5146 
L 4326 1722 
L 4813 1722 
z
M 4858 608 
C 4858 1261 4166 1664 2950 1664 
C 1734 1664 1050 1261 1050 608 
C 1050 -38 1734 -442 2950 -442 
C 4166 -442 4858 -38 4858 608 
z
M 4358 608 
C 4358 198 3840 -38 2950 -38 
C 2074 -38 1555 198 1555 608 
C 1555 1024 2074 1267 2950 1267 
C 3840 1267 4358 1024 4358 608 
z
M 1050 2720 
L 1050 4320 
L 3194 4320 
L 3194 4723 
L 557 4723 
L 557 2304 
L 998 2304 
C 2016 2304 3066 2368 3846 2528 
L 3795 2925 
C 3002 2765 1990 2720 1050 2720 
z
" transform="scale(0.015625)"/>
     </defs>
     <use xlink:href="#AppleSDGothicNeo-Regular-ba40"/>
     <use xlink:href="#AppleSDGothicNeo-Regular-d2f0" transform="translate(86.499985 0)"/>
     <use xlink:href="#AppleSDGothicNeo-Regular-baa8" transform="translate(172.999969 0)"/>
     <use xlink:href="#AppleSDGothicNeo-Regular-b2ec" transform="translate(259.499954 0)"/>
     <use xlink:href="#AppleSDGothicNeo-Regular-2c" transform="translate(345.999939 0)"/>
     <use xlink:href="#AppleSDGothicNeo-Regular-20" transform="translate(368.59993 0)"/>
     <use xlink:href="#AppleSDGothicNeo-Regular-bc14" transform="translate(394.899918 0)"/>
     <use xlink:href="#AppleSDGothicNeo-Regular-c774" transform="translate(481.399902 0)"/>
     <use xlink:href="#AppleSDGothicNeo-Regular-be0c" transform="translate(567.899887 0)"/>
     <use xlink:href="#AppleSDGothicNeo-Regular-20" transform="translate(654.399872 0)"/>
     <use xlink:href="#AppleSDGothicNeo-Regular-cf54" transform="translate(680.69986 0)"/>
     <use xlink:href="#AppleSDGothicNeo-Regular-b529" transform="translate(767.199844 0)"/>
    </g>
   </g>
   <g id="patch_6">
    <path d="M 229.47924 158.578578 
Q 237.101771 158.578578 242.488234 158.578578 
" style="fill: none; stroke: #bdbdbd; stroke-width: 2; stroke-linecap: round"/>
    <path d="M 238.488234 156.578578 
L 242.488234 158.578578 
L 238.488234 160.578578 
" style="fill: none; stroke: #bdbdbd; stroke-width: 2; stroke-linecap: round"/>
   </g>
   <g id="patch_7">
    <path d="M 402.651653 158.578578 
Q 410.274185 158.578578 415.660648 158.578578 
" style="fill: none; stroke: #bdbdbd; stroke-width: 2; stroke-linecap: round"/>
    <path d="M 411.660648 156.578578 
L 415.660648 158.578578 
L 411.660648 160.578578 
" style="fill: none; stroke: #bdbdbd; stroke-width: 2; stroke-linecap: round"/>
   </g>
   <g id="text_7">
    <!-- ML/AI 시대 구분 -->
    <g style="fill: #333333" transform="translate(283.077656 32.35375) scale(0.14 -0.14)">
     <defs>
      <path id="AppleSDGothicNeo-Regular-2f" d="M 58 -384 
L 499 -384 
L 2003 4941 
L 1562 4941 
L 58 -384 
z
" transform="scale(0.015625)"/>
      <path id="AppleSDGothicNeo-Regular-41" d="M 122 269 
L 608 269 
L 1050 1523 
L 2771 1523 
L 3226 269 
L 3757 269 
L 2189 4563 
L 1696 4563 
L 122 269 
z
M 1901 3885 
L 1914 3885 
L 2611 1952 
L 1197 1952 
L 1901 3885 
z
" transform="scale(0.015625)"/>
      <path id="AppleSDGothicNeo-Regular-49" d="M 576 269 
L 1082 269 
L 1082 4563 
L 576 4563 
L 576 269 
z
" transform="scale(0.015625)"/>
      <path id="AppleSDGothicNeo-Regular-ad6c" d="M 4634 4730 
L 838 4730 
L 838 4326 
L 4128 4326 
C 4128 3776 4096 2854 3942 2253 
L 243 2253 
L 243 1843 
L 2522 1843 
L 2522 -448 
L 3008 -448 
L 3008 1843 
L 5293 1843 
L 5293 2253 
L 4429 2253 
C 4614 3117 4634 3968 4634 4730 
z
" transform="scale(0.015625)"/>
      <path id="AppleSDGothicNeo-Regular-bd84" d="M 4653 2829 
L 4653 4966 
L 4160 4966 
L 4160 4275 
L 1363 4275 
L 1363 4966 
L 877 4966 
L 877 2829 
L 4653 2829 
z
M 3002 723 
L 3002 1798 
L 5293 1798 
L 5293 2202 
L 243 2202 
L 243 1798 
L 2515 1798 
L 2515 723 
L 3002 723 
z
M 4730 -269 
L 4730 134 
L 1370 134 
L 1370 1248 
L 883 1248 
L 883 -269 
L 4730 -269 
z
M 4160 3238 
L 1363 3238 
L 1363 3872 
L 4160 3872 
L 4160 3238 
z
" transform="scale(0.015625)"/>
     </defs>
     <use xlink:href="#AppleSDGothicNeo-Regular-4d"/>
     <use xlink:href="#AppleSDGothicNeo-Regular-4c" transform="translate(79.599991 0)"/>
     <use xlink:href="#AppleSDGothicNeo-Regular-2f" transform="translate(130.099976 0)"/>
     <use xlink:href="#AppleSDGothicNeo-Regular-41" transform="translate(163.899963 0)"/>
     <use xlink:href="#AppleSDGothicNeo-Regular-49" transform="translate(224.399948 0)"/>
     <use xlink:href="#AppleSDGothicNeo-Regular-20" transform="translate(250.299942 0)"/>
     <use xlink:href="#AppleSDGothicNeo-Regular-c2dc" transform="translate(276.59993 0)"/>
     <use xlink:href="#AppleSDGothicNeo-Regular-b300" transform="translate(363.099915 0)"/>
     <use xlink:href="#AppleSDGothicNeo-Regular-20" transform="translate(449.599899 0)"/>
     <use xlink:href="#AppleSDGothicNeo-Regular-ad6c" transform="translate(475.899887 0)"/>
     <use xlink:href="#AppleSDGothicNeo-Regular-bd84" transform="translate(562.399872 0)"/>
    </g>
   </g>
  </g>
 </g>
 <defs>
  <clipPath id="pcedb142def">
   <rect x="21.6" y="50.35375" width="613.8" height="221.76"/>
  </clipPath>
 </defs>
</svg>
