<?xml version="1.0" encoding="utf-8" standalone="no"?>
<!DOCTYPE svg PUBLIC "-//W3C//DTD SVG 1.1//EN"
  "http://www.w3.org/Graphics/SVG/1.1/DTD/svg11.dtd">
<svg xmlns:xlink="http://www.w3.org/1999/xlink" width="601.2pt" height="321.43375pt" viewBox="0 0 601.2 321.43375" xmlns="http://www.w3.org/2000/svg" version="1.1">
 <metadata>
  <rdf:RDF xmlns:dc="http://purl.org/dc/elements/1.1/" xmlns:cc="http://creativecommons.org/ns#" xmlns:rdf="http://www.w3.org/1999/02/22-rdf-syntax-ns#">
   <cc:Work>
    <dc:type rdf:resource="http://purl.org/dc/dcmitype/StillImage"/>
    <dc:date>2026-02-18T23:23:36.613038</dc:date>
    <dc:format>image/svg+xml</dc:format>
    <dc:creator>
     <cc:Agent>
      <dc:title>Matplotlib v3.10.8, https://matplotlib.org/</dc:title>
     </cc:Agent>
    </dc:creator>
   </cc:Work>
  </rdf:RDF>
 </metadata>
 <defs>
  <style type="text/css">*{stroke-linejoin: round; stroke-linecap: butt}</style>
 </defs>
 <g id="figure_1">
  <g id="patch_1">
   <path d="M 0 321.43375 
L 601.2 321.43375 
L 601.2 0 
L 0 0 
z
" style="fill: #ffffff"/>
  </g>
  <g id="axes_1">
   <g id="patch_2">
    <path d="M 60.082759 205.48393 
L 256.869592 205.48393 
Q 263.429154 205.48393 263.429154 198.470811 
L 263.429154 95.611741 
Q 263.429154 88.598623 256.869592 88.598623 
L 60.082759 88.598623 
Q 53.523197 88.598623 53.523197 95.611741 
L 53.523197 198.470811 
Q 53.523197 205.48393 60.082759 205.48393 
z
" clip-path="url(#p39336c9efa)" style="fill: #ffebee; stroke: #c62828; stroke-width: 1.2; stroke-linejoin: miter"/>
   </g>
   <g id="patch_3">
    <path d="M 344.330408 205.48393 
L 541.117241 205.48393 
Q 547.676803 205.48393 547.676803 198.470811 
L 547.676803 95.611741 
Q 547.676803 88.598623 541.117241 88.598623 
L 344.330408 88.598623 
Q 337.770846 88.598623 337.770846 95.611741 
L 337.770846 198.470811 
Q 337.770846 205.48393 344.330408 205.48393 
z
" clip-path="url(#p39336c9efa)" style="fill: #e8f5e9; stroke: #2e7d32; stroke-width: 1.2; stroke-linejoin: miter"/>
   </g>
   <g id="patch_4">
    <path d="M 169.408777 270.939702 
L 431.791223 270.939702 
Q 438.350784 270.939702 438.350784 263.926584 
L 438.350784 224.185579 
Q 438.350784 217.172461 431.791223 217.172461 
L 169.408777 217.172461 
Q 162.849216 217.172461 162.849216 224.185579 
L 162.849216 263.926584 
Q 162.849216 270.939702 169.408777 270.939702 
z
" clip-path="url(#p39336c9efa)" style="fill: #fffde7; stroke: #f57f17; stroke-width: 1.2; stroke-linejoin: miter"/>
   </g>
   <g id="text_1">
    <!-- 검색 AI -->
    <g style="fill: #c62828" transform="translate(139.905472 123.293021) scale(0.13 -0.13)">
     <defs>
      <path id="AppleSDGothicNeo-Regular-ac80" d="M 4326 3277 
L 4326 1907 
L 4813 1907 
L 4813 5146 
L 4326 5146 
L 4326 3686 
L 3098 3686 
L 3098 3277 
L 4326 3277 
z
M 4813 -371 
L 4813 1613 
L 1210 1613 
L 1210 -371 
L 4813 -371 
z
M 4326 32 
L 1696 32 
L 1696 1210 
L 4326 1210 
L 4326 32 
z
M 563 4762 
L 563 4346 
L 2541 4346 
C 2387 3379 1414 2547 288 2285 
L 544 1875 
C 1984 2336 2989 3270 3078 4762 
L 563 4762 
z
" transform="scale(0.015625)"/>
      <path id="AppleSDGothicNeo-Regular-c0c9" d="M 4960 1792 
L 4960 5146 
L 4474 5146 
L 4474 3706 
L 3763 3706 
L 3763 5043 
L 3290 5043 
L 3290 1837 
L 3763 1837 
L 3763 3296 
L 4474 3296 
L 4474 1792 
L 4960 1792 
z
M 4960 -448 
L 4960 1491 
L 1203 1491 
L 1203 1082 
L 4467 1082 
L 4467 -448 
L 4960 -448 
z
M 3040 2464 
C 2502 2694 1862 3277 1862 4134 
L 1862 4819 
L 1389 4819 
L 1389 4122 
C 1389 3283 787 2605 192 2285 
L 493 1914 
C 1011 2214 1498 2816 1638 3270 
C 1830 2835 2272 2330 2771 2093 
L 3040 2464 
z
" transform="scale(0.015625)"/>
      <path id="AppleSDGothicNeo-Regular-20" transform="scale(0.015625)"/>
      <path id="AppleSDGothicNeo-Regular-41" d="M 122 269 
L 608 269 
L 1050 1523 
L 2771 1523 
L 3226 269 
L 3757 269 
L 2189 4563 
L 1696 4563 
L 122 269 
z
M 1901 3885 
L 1914 3885 
L 2611 1952 
L 1197 1952 
L 1901 3885 
z
" transform="scale(0.015625)"/>
      <path id="AppleSDGothicNeo-Regular-49" d="M 576 269 
L 1082 269 
L 1082 4563 
L 576 4563 
L 576 269 
z
" transform="scale(0.015625)"/>
     </defs>
     <use xlink:href="#AppleSDGothicNeo-Regular-ac80"/>
     <use xlink:href="#AppleSDGothicNeo-Regular-c0c9" transform="translate(86.499985 0)"/>
     <use xlink:href="#AppleSDGothicNeo-Regular-20" transform="translate(172.999969 0)"/>
     <use xlink:href="#AppleSDGothicNeo-Regular-41" transform="translate(199.299957 0)"/>
     <use xlink:href="#AppleSDGothicNeo-Regular-49" transform="translate(259.799942 0)"/>
    </g>
   </g>
   <g id="text_2">
    <!-- 기존 정보를 찾아서 보여줌 -->
    <g style="fill: #333333" transform="translate(112.108597 154.709892) scale(0.09 -0.09)">
     <defs>
      <path id="AppleSDGothicNeo-Regular-ae30" d="M 4813 -448 
L 4813 5146 
L 4326 5146 
L 4326 -448 
L 4813 -448 
z
M 3168 4550 
L 506 4550 
L 506 4141 
L 2650 4141 
C 2547 2880 1715 1664 301 1043 
L 582 659 
C 2029 1344 3142 2733 3168 4550 
z
" transform="scale(0.015625)"/>
      <path id="AppleSDGothicNeo-Regular-c874" d="M 5050 3091 
C 4211 3168 3072 3674 3027 4422 
L 4832 4422 
L 4832 4832 
L 691 4832 
L 691 4422 
L 2515 4422 
C 2470 3680 1440 3168 506 3085 
L 730 2675 
C 1715 2829 2547 3315 2765 3827 
C 3046 3322 3891 2835 4826 2675 
L 5050 3091 
z
M 5293 1728 
L 5293 2138 
L 3002 2138 
L 3002 3046 
L 2515 3046 
L 2515 2138 
L 243 2138 
L 243 1728 
L 5293 1728 
z
M 4774 -275 
L 4774 134 
L 1350 134 
L 1350 1299 
L 864 1299 
L 864 -275 
L 4774 -275 
z
" transform="scale(0.015625)"/>
      <path id="AppleSDGothicNeo-Regular-c815" d="M 4858 614 
C 4858 1274 4179 1683 2976 1683 
C 1779 1683 1107 1274 1107 614 
C 1107 -38 1779 -448 2976 -448 
C 4179 -448 4858 -38 4858 614 
z
M 390 4269 
L 1664 4269 
C 1664 4166 1664 4032 1658 3968 
C 1632 3174 922 2464 218 2195 
L 480 1805 
C 1082 2067 1754 2739 1907 3264 
C 2138 2758 2739 2234 3322 2003 
L 3610 2394 
C 2925 2598 2208 3206 2163 3968 
C 2157 4032 2157 4160 2157 4269 
L 3418 4269 
L 3418 4678 
L 390 4678 
L 390 4269 
z
M 2976 1274 
C 3853 1274 4358 1037 4358 614 
C 4358 198 3853 -38 2976 -38 
C 2118 -38 1600 198 1600 614 
C 1600 1037 2118 1274 2976 1274 
z
M 4326 3283 
L 4326 1670 
L 4813 1670 
L 4813 5146 
L 4326 5146 
L 4326 3693 
L 3200 3693 
L 3200 3283 
L 4326 3283 
z
" transform="scale(0.015625)"/>
      <path id="AppleSDGothicNeo-Regular-bcf4" d="M 4678 1798 
L 4678 4762 
L 4192 4762 
L 4192 3731 
L 1344 3731 
L 1344 4762 
L 851 4762 
L 851 1798 
L 2515 1798 
L 2515 659 
L 243 659 
L 243 250 
L 5293 250 
L 5293 659 
L 3002 659 
L 3002 1798 
L 4678 1798 
z
M 4192 2202 
L 1344 2202 
L 1344 3328 
L 4192 3328 
L 4192 2202 
z
" transform="scale(0.015625)"/>
      <path id="AppleSDGothicNeo-Regular-b97c" d="M 5293 2163 
L 5293 2541 
L 243 2541 
L 243 2163 
L 5293 2163 
z
M 4870 -346 
L 4870 38 
L 1312 38 
L 1312 550 
L 4698 550 
L 4698 1722 
L 832 1722 
L 832 1363 
L 4211 1363 
L 4211 896 
L 826 896 
L 826 -346 
L 4870 -346 
z
M 4774 2982 
L 4774 3347 
L 1370 3347 
L 1370 3789 
L 4666 3789 
L 4666 4960 
L 877 4960 
L 877 4576 
L 4179 4576 
L 4179 4141 
L 883 4141 
L 883 2982 
L 4774 2982 
z
" transform="scale(0.015625)"/>
      <path id="AppleSDGothicNeo-Regular-cc3e" d="M 4960 -90 
C 4077 -6 3251 634 3130 1165 
L 4659 1165 
L 4659 1562 
L 979 1562 
L 979 1165 
L 2586 1165 
C 2464 602 1677 0 736 -90 
L 986 -461 
C 1862 -339 2643 230 2854 704 
C 3059 243 3930 -346 4723 -467 
L 4960 -90 
z
M 3341 3718 
L 3341 4115 
L 301 4115 
L 301 3718 
L 1568 3718 
C 1517 3040 864 2426 154 2214 
L 429 1843 
C 1062 2067 1645 2605 1830 3104 
C 2086 2598 2669 2150 3162 1997 
L 3418 2374 
C 2797 2528 2138 3059 2074 3718 
L 3341 3718 
z
M 5395 3232 
L 5395 3642 
L 4544 3642 
L 4544 5146 
L 4058 5146 
L 4058 1850 
L 4544 1850 
L 4544 3232 
L 5395 3232 
z
M 2579 4595 
L 2579 4992 
L 1062 4992 
L 1062 4595 
L 2579 4595 
z
" transform="scale(0.015625)"/>
      <path id="AppleSDGothicNeo-Regular-c544" d="M 5459 2483 
L 5459 2893 
L 4544 2893 
L 4544 5146 
L 4058 5146 
L 4058 -448 
L 4544 -448 
L 4544 2483 
L 5459 2483 
z
M 320 2752 
C 320 1562 845 768 1754 768 
C 2662 768 3181 1562 3181 2746 
C 3181 3930 2662 4723 1754 4723 
C 845 4723 320 3930 320 2752 
z
M 2707 2746 
C 2707 1830 2336 1190 1754 1190 
C 1171 1190 794 1830 794 2746 
C 794 3667 1171 4301 1754 4301 
C 2336 4301 2707 3667 2707 2746 
z
" transform="scale(0.015625)"/>
      <path id="AppleSDGothicNeo-Regular-c11c" d="M 4832 -448 
L 4832 5146 
L 4346 5146 
L 4346 3149 
L 3040 3149 
L 3040 2739 
L 4346 2739 
L 4346 -448 
L 4832 -448 
z
M 3590 1261 
C 2822 1709 2157 2618 2157 3642 
L 2157 4659 
L 1651 4659 
L 1651 3622 
C 1651 2630 1005 1638 192 1126 
L 512 762 
C 1158 1229 1709 1920 1907 2618 
C 2131 1946 2778 1235 3290 890 
L 3590 1261 
z
" transform="scale(0.015625)"/>
      <path id="AppleSDGothicNeo-Regular-c5ec" d="M 4346 3494 
L 4346 2099 
L 3213 2099 
L 3213 1696 
L 4346 1696 
L 4346 -448 
L 4832 -448 
L 4832 5146 
L 4346 5146 
L 4346 3898 
L 3213 3898 
L 3213 3494 
L 4346 3494 
z
M 275 2778 
C 275 1587 774 800 1658 800 
C 2554 800 3046 1587 3046 2771 
C 3046 3962 2554 4755 1658 4755 
C 774 4755 275 3962 275 2778 
z
M 2566 2771 
C 2566 1862 2208 1222 1658 1222 
C 1120 1222 755 1862 755 2771 
C 755 3693 1120 4333 1658 4333 
C 2208 4333 2566 3693 2566 2771 
z
" transform="scale(0.015625)"/>
      <path id="AppleSDGothicNeo-Regular-c90c" d="M 4678 -371 
L 4678 1459 
L 3008 1459 
L 3008 2125 
L 5293 2125 
L 5293 2534 
L 243 2534 
L 243 2125 
L 2522 2125 
L 2522 1459 
L 851 1459 
L 851 -371 
L 4678 -371 
z
M 5043 3309 
C 4256 3379 3194 3834 3046 4518 
L 4832 4518 
L 4832 4922 
L 704 4922 
L 704 4518 
L 2502 4518 
C 2355 3840 1389 3386 506 3302 
L 730 2893 
C 1715 3040 2547 3539 2765 4058 
C 3046 3546 3885 3053 4819 2899 
L 5043 3309 
z
M 4192 32 
L 1344 32 
L 1344 1056 
L 4192 1056 
L 4192 32 
z
" transform="scale(0.015625)"/>
     </defs>
     <use xlink:href="#AppleSDGothicNeo-Regular-ae30"/>
     <use xlink:href="#AppleSDGothicNeo-Regular-c874" transform="translate(86.499985 0)"/>
     <use xlink:href="#AppleSDGothicNeo-Regular-20" transform="translate(172.999969 0)"/>
     <use xlink:href="#AppleSDGothicNeo-Regular-c815" transform="translate(199.299957 0)"/>
     <use xlink:href="#AppleSDGothicNeo-Regular-bcf4" transform="translate(285.799942 0)"/>
     <use xlink:href="#AppleSDGothicNeo-Regular-b97c" transform="translate(372.299927 0)"/>
     <use xlink:href="#AppleSDGothicNeo-Regular-20" transform="translate(458.799911 0)"/>
     <use xlink:href="#AppleSDGothicNeo-Regular-cc3e" transform="translate(485.099899 0)"/>
     <use xlink:href="#AppleSDGothicNeo-Regular-c544" transform="translate(571.599884 0)"/>
     <use xlink:href="#AppleSDGothicNeo-Regular-c11c" transform="translate(658.099869 0)"/>
     <use xlink:href="#AppleSDGothicNeo-Regular-20" transform="translate(744.599854 0)"/>
     <use xlink:href="#AppleSDGothicNeo-Regular-bcf4" transform="translate(770.899841 0)"/>
     <use xlink:href="#AppleSDGothicNeo-Regular-c5ec" transform="translate(857.399826 0)"/>
     <use xlink:href="#AppleSDGothicNeo-Regular-c90c" transform="translate(943.899811 0)"/>
    </g>
   </g>
   <g id="text_3">
    <!-- 사용자가 직접 읽고 -->
    <g style="fill: #555555" transform="translate(124.969457 178.124412) scale(0.09 -0.09)">
     <defs>
      <path id="AppleSDGothicNeo-Regular-c0ac" d="M 5446 2477 
L 5446 2886 
L 4544 2886 
L 4544 5146 
L 4058 5146 
L 4058 -448 
L 4544 -448 
L 4544 2477 
L 5446 2477 
z
M 3526 1286 
C 2752 1741 2048 2656 2048 3674 
L 2048 4653 
L 1549 4653 
L 1549 3661 
C 1549 2669 890 1664 77 1165 
L 390 787 
C 1050 1248 1594 1958 1792 2656 
C 2016 1978 2643 1312 3219 915 
L 3526 1286 
z
" transform="scale(0.015625)"/>
      <path id="AppleSDGothicNeo-Regular-c6a9" d="M 4723 3968 
C 4723 4608 3994 5024 2765 5024 
C 1542 5024 819 4608 819 3968 
C 819 3597 1069 3296 1530 3117 
L 1530 2317 
L 243 2317 
L 243 1914 
L 5293 1914 
L 5293 2317 
L 3987 2317 
L 3987 3110 
C 4461 3290 4723 3590 4723 3968 
z
M 4762 570 
C 4762 1210 4006 1562 2771 1562 
C 1549 1562 800 1210 800 570 
C 800 -70 1549 -416 2778 -416 
C 4006 -416 4762 -70 4762 570 
z
M 4250 3968 
C 4250 3565 3661 3315 2765 3315 
C 1869 3315 1293 3565 1293 3968 
C 1293 4384 1869 4634 2765 4634 
C 3661 4634 4250 4384 4250 3968 
z
M 2771 1139 
C 3674 1139 4269 941 4269 570 
C 4269 205 3680 6 2771 6 
C 1882 6 1286 205 1286 570 
C 1286 941 1882 1139 2771 1139 
z
M 2765 2925 
C 3040 2925 3277 2944 3501 2976 
L 3501 2317 
L 2016 2317 
L 2016 2982 
C 2240 2944 2490 2925 2765 2925 
z
" transform="scale(0.015625)"/>
      <path id="AppleSDGothicNeo-Regular-c790" d="M 3558 1229 
C 2790 1664 2106 2541 2106 3584 
L 2106 4147 
L 3398 4147 
L 3398 4557 
L 307 4557 
L 307 4147 
L 1600 4147 
L 1600 3571 
C 1600 2566 954 1581 128 1094 
L 448 730 
C 1120 1197 1664 1888 1856 2566 
C 2054 1901 2739 1197 3264 864 
L 3558 1229 
z
M 5453 2464 
L 5453 2874 
L 4544 2874 
L 4544 5146 
L 4058 5146 
L 4058 -448 
L 4544 -448 
L 4544 2464 
L 5453 2464 
z
" transform="scale(0.015625)"/>
      <path id="AppleSDGothicNeo-Regular-ac00" d="M 4544 5146 
L 4058 5146 
L 4058 -448 
L 4544 -448 
L 4544 2400 
L 5459 2400 
L 5459 2816 
L 4544 2816 
L 4544 5146 
z
M 3091 4544 
L 461 4544 
L 461 4134 
L 2566 4134 
C 2464 2874 1664 1696 269 1050 
L 570 666 
C 2010 1414 3059 2726 3091 4544 
z
" transform="scale(0.015625)"/>
      <path id="AppleSDGothicNeo-Regular-c9c1" d="M 461 4320 
L 1734 4320 
C 1734 4224 1734 4096 1728 4032 
C 1696 3290 992 2566 288 2298 
L 570 1920 
C 1171 2176 1824 2797 1971 3322 
C 2202 2816 2784 2310 3322 2093 
L 3590 2483 
C 2957 2694 2272 3309 2234 4026 
C 2227 4096 2227 4218 2227 4320 
L 3539 4320 
L 3539 4730 
L 461 4730 
L 461 4320 
z
M 1075 1530 
L 1075 1126 
L 4326 1126 
L 4326 -448 
L 4813 -448 
L 4813 1530 
L 1075 1530 
z
M 4813 1824 
L 4813 5139 
L 4326 5139 
L 4326 1824 
L 4813 1824 
z
" transform="scale(0.015625)"/>
      <path id="AppleSDGothicNeo-Regular-c811" d="M 4819 -378 
L 4819 1862 
L 4333 1862 
L 4333 1133 
L 1709 1133 
L 1709 1843 
L 1222 1843 
L 1222 -378 
L 4819 -378 
z
M 416 4371 
L 1664 4371 
C 1664 4282 1664 4173 1658 4090 
C 1632 3354 915 2630 211 2362 
L 486 1978 
C 1088 2240 1754 2861 1907 3379 
C 2138 2874 2739 2355 3270 2138 
L 3533 2528 
C 2893 2739 2208 3366 2163 4083 
C 2157 4166 2157 4275 2157 4371 
L 3437 4371 
L 3437 4781 
L 416 4781 
L 416 4371 
z
M 4813 2157 
L 4813 5146 
L 4326 5146 
L 4326 3789 
L 3258 3789 
L 3258 3386 
L 4326 3386 
L 4326 2157 
L 4813 2157 
z
M 4333 26 
L 1709 26 
L 1709 742 
L 4333 742 
L 4333 26 
z
" transform="scale(0.015625)"/>
      <path id="AppleSDGothicNeo-Regular-c77d" d="M 4813 2138 
L 4813 5146 
L 4326 5146 
L 4326 2138 
L 4813 2138 
z
M 4819 -448 
L 4819 1843 
L 3098 1843 
L 3098 1453 
L 4326 1453 
L 4326 -448 
L 4819 -448 
z
M 3174 -282 
L 3117 90 
C 2790 0 1971 -45 1408 -45 
L 1408 557 
L 2765 557 
L 2765 1843 
L 934 1843 
L 934 1466 
L 2310 1466 
L 2310 902 
L 947 902 
L 947 -422 
L 1594 -422 
C 2150 -422 2816 -352 3174 -282 
z
M 1850 4902 
C 1043 4902 390 4384 390 3635 
C 390 2867 1050 2381 1850 2381 
C 2650 2381 3296 2874 3296 3635 
C 3296 4390 2650 4902 1850 4902 
z
M 1850 4474 
C 2432 4474 2822 4134 2822 3635 
C 2822 3142 2432 2810 1850 2810 
C 1293 2810 864 3142 864 3642 
C 864 4141 1299 4474 1850 4474 
z
" transform="scale(0.015625)"/>
      <path id="AppleSDGothicNeo-Regular-ace0" d="M 5293 358 
L 5293 768 
L 2656 768 
L 2656 2790 
L 2170 2790 
L 2170 768 
L 243 768 
L 243 358 
L 5293 358 
z
M 4614 4563 
L 762 4563 
L 762 4154 
L 4109 4154 
L 4109 3610 
C 4109 2874 4038 2029 3910 1504 
L 4390 1427 
C 4557 2138 4608 3008 4614 3859 
L 4614 4563 
z
" transform="scale(0.015625)"/>
     </defs>
     <use xlink:href="#AppleSDGothicNeo-Regular-c0ac"/>
     <use xlink:href="#AppleSDGothicNeo-Regular-c6a9" transform="translate(86.499985 0)"/>
     <use xlink:href="#AppleSDGothicNeo-Regular-c790" transform="translate(172.999969 0)"/>
     <use xlink:href="#AppleSDGothicNeo-Regular-ac00" transform="translate(259.499954 0)"/>
     <use xlink:href="#AppleSDGothicNeo-Regular-20" transform="translate(345.999939 0)"/>
     <use xlink:href="#AppleSDGothicNeo-Regular-c9c1" transform="translate(372.299927 0)"/>
     <use xlink:href="#AppleSDGothicNeo-Regular-c811" transform="translate(458.799911 0)"/>
     <use xlink:href="#AppleSDGothicNeo-Regular-20" transform="translate(545.299896 0)"/>
     <use xlink:href="#AppleSDGothicNeo-Regular-c77d" transform="translate(571.599884 0)"/>
     <use xlink:href="#AppleSDGothicNeo-Regular-ace0" transform="translate(658.099869 0)"/>
    </g>
    <!-- 원하는 정보를 골라야 함 -->
    <g style="fill: #555555" transform="translate(116.001097 187.3736) scale(0.09 -0.09)">
     <defs>
      <path id="AppleSDGothicNeo-Regular-c6d0" d="M 3501 3846 
C 3501 4480 2880 4883 2016 4883 
C 1152 4883 518 4480 518 3853 
C 518 3200 1152 2822 2016 2822 
C 2880 2822 3501 3206 3501 3846 
z
M 4838 845 
L 4838 5146 
L 4352 5146 
L 4352 1837 
L 3174 1837 
L 3174 1453 
L 4352 1453 
L 4352 845 
L 4838 845 
z
M 4954 -314 
L 4954 96 
L 1440 96 
L 1440 1306 
L 954 1306 
L 954 -314 
L 4954 -314 
z
M 3021 3846 
C 3021 3469 2618 3219 2016 3219 
C 1414 3219 1005 3469 1005 3846 
C 1005 4230 1414 4480 2016 4480 
C 2618 4480 3021 4224 3021 3846 
z
M 2298 1069 
L 2298 2118 
C 2886 2157 3507 2195 3859 2246 
L 3821 2624 
C 3277 2566 2669 2509 2048 2483 
C 1440 2464 755 2458 179 2464 
L 256 2048 
C 723 2048 1280 2067 1811 2086 
L 1811 1069 
L 2298 1069 
z
" transform="scale(0.015625)"/>
      <path id="AppleSDGothicNeo-Regular-d558" d="M 5453 2374 
L 5453 2784 
L 4544 2784 
L 4544 5146 
L 4058 5146 
L 4058 -448 
L 4544 -448 
L 4544 2374 
L 5453 2374 
z
M 2694 4346 
L 2694 4762 
L 1050 4762 
L 1050 4346 
L 2694 4346 
z
M 3520 3398 
L 3520 3802 
L 218 3802 
L 218 3398 
L 3520 3398 
z
M 3187 1882 
C 3187 2541 2662 3040 1882 3040 
C 1101 3040 576 2534 576 1882 
C 576 1229 1101 730 1882 730 
C 2662 730 3187 1235 3187 1882 
z
M 2701 1882 
C 2701 1446 2362 1133 1882 1133 
C 1414 1133 1062 1446 1062 1882 
C 1062 2323 1414 2630 1882 2630 
C 2355 2630 2701 2323 2701 1882 
z
" transform="scale(0.015625)"/>
      <path id="AppleSDGothicNeo-Regular-b294" d="M 5293 1850 
L 5293 2259 
L 243 2259 
L 243 1850 
L 5293 1850 
z
M 4755 -326 
L 4755 77 
L 1389 77 
L 1389 1325 
L 902 1325 
L 902 -326 
L 4755 -326 
z
M 4730 2957 
L 4730 3360 
L 1408 3360 
L 1408 4909 
L 922 4909 
L 922 2957 
L 4730 2957 
z
" transform="scale(0.015625)"/>
      <path id="AppleSDGothicNeo-Regular-ace8" d="M 4864 -352 
L 4864 51 
L 1299 51 
L 1299 608 
L 4659 608 
L 4659 1926 
L 794 1926 
L 794 1523 
L 4166 1523 
L 4166 973 
L 813 973 
L 813 -352 
L 4864 -352 
z
M 5293 2413 
L 5293 2810 
L 2790 2810 
L 2790 3846 
L 2304 3846 
L 2304 2810 
L 243 2810 
L 243 2413 
L 5293 2413 
z
M 4672 4909 
L 800 4909 
L 800 4499 
L 4173 4499 
C 4173 4371 4173 4269 4166 4154 
C 4160 3904 4122 3475 4058 3226 
L 4538 3168 
C 4627 3539 4672 4115 4672 4493 
L 4672 4909 
z
" transform="scale(0.015625)"/>
      <path id="AppleSDGothicNeo-Regular-b77c" d="M 4538 5146 
L 4058 5146 
L 4058 -448 
L 4538 -448 
L 4538 2483 
L 5440 2483 
L 5440 2893 
L 4538 2893 
L 4538 5146 
z
M 3565 1485 
C 2816 1344 1824 1286 934 1293 
L 934 2643 
L 3021 2643 
L 3021 4627 
L 435 4627 
L 435 4224 
L 2534 4224 
L 2534 3046 
L 448 3046 
L 448 883 
L 922 883 
C 1837 883 3002 966 3629 1094 
L 3565 1485 
z
" transform="scale(0.015625)"/>
      <path id="AppleSDGothicNeo-Regular-c57c" d="M 320 2752 
C 320 1562 845 768 1754 768 
C 2662 768 3181 1562 3181 2746 
C 3181 3930 2662 4723 1754 4723 
C 845 4723 320 3930 320 2752 
z
M 2707 2746 
C 2707 1830 2336 1190 1754 1190 
C 1171 1190 794 1830 794 2746 
C 794 3667 1171 4301 1754 4301 
C 2336 4301 2707 3667 2707 2746 
z
M 5453 3738 
L 4474 3738 
L 4474 5146 
L 3987 5146 
L 3987 -448 
L 4474 -448 
L 4474 1619 
L 5453 1619 
L 5453 2029 
L 4474 2029 
L 4474 3328 
L 5453 3328 
L 5453 3738 
z
" transform="scale(0.015625)"/>
      <path id="AppleSDGothicNeo-Regular-d568" d="M 5395 3091 
L 5395 3501 
L 4544 3501 
L 4544 5146 
L 4058 5146 
L 4058 1664 
L 4544 1664 
L 4544 3091 
L 5395 3091 
z
M 4544 -371 
L 4544 1376 
L 1005 1376 
L 1005 -371 
L 4544 -371 
z
M 4058 32 
L 1491 32 
L 1491 979 
L 4058 979 
L 4058 32 
z
M 2630 4614 
L 2630 5024 
L 1062 5024 
L 1062 4614 
L 2630 4614 
z
M 3475 3814 
L 3475 4218 
L 218 4218 
L 218 3814 
L 3475 3814 
z
M 3142 2650 
C 3142 3226 2579 3571 1843 3571 
C 1094 3571 544 3226 544 2650 
C 544 2086 1101 1728 1843 1728 
C 2579 1728 3142 2093 3142 2650 
z
M 2662 2650 
C 2662 2310 2278 2106 1843 2106 
C 1414 2106 1011 2310 1011 2650 
C 1011 2995 1408 3194 1843 3194 
C 2278 3194 2662 2995 2662 2650 
z
" transform="scale(0.015625)"/>
     </defs>
     <use xlink:href="#AppleSDGothicNeo-Regular-c6d0"/>
     <use xlink:href="#AppleSDGothicNeo-Regular-d558" transform="translate(86.499985 0)"/>
     <use xlink:href="#AppleSDGothicNeo-Regular-b294" transform="translate(172.999969 0)"/>
     <use xlink:href="#AppleSDGothicNeo-Regular-20" transform="translate(259.499954 0)"/>
     <use xlink:href="#AppleSDGothicNeo-Regular-c815" transform="translate(285.799942 0)"/>
     <use xlink:href="#AppleSDGothicNeo-Regular-bcf4" transform="translate(372.299927 0)"/>
     <use xlink:href="#AppleSDGothicNeo-Regular-b97c" transform="translate(458.799911 0)"/>
     <use xlink:href="#AppleSDGothicNeo-Regular-20" transform="translate(545.299896 0)"/>
     <use xlink:href="#AppleSDGothicNeo-Regular-ace8" transform="translate(571.599884 0)"/>
     <use xlink:href="#AppleSDGothicNeo-Regular-b77c" transform="translate(658.099869 0)"/>
     <use xlink:href="#AppleSDGothicNeo-Regular-c57c" transform="translate(744.599854 0)"/>
     <use xlink:href="#AppleSDGothicNeo-Regular-20" transform="translate(831.099838 0)"/>
     <use xlink:href="#AppleSDGothicNeo-Regular-d568" transform="translate(857.399826 0)"/>
    </g>
   </g>
   <g id="patch_5">
    <path d="M 280.733946 147.041276 
Q 300.599849 147.041276 318.229683 147.041276 
" style="fill: none; stroke: #002060; stroke-width: 2; stroke-linecap: round"/>
    <path d="M 314.229683 145.041276 
L 318.229683 147.041276 
L 314.229683 149.041276 
" style="fill: none; stroke: #002060; stroke-width: 2; stroke-linecap: round"/>
   </g>
   <g id="text_4">
    <!-- vs -->
    <g style="fill: #002060" transform="translate(294.250781 128.228434) scale(0.14 -0.14)">
     <defs>
      <path id="AppleSDGothicNeo-Regular-76" d="M 1331 269 
L 1818 269 
L 2995 3443 
L 2515 3443 
L 1600 890 
L 1574 890 
L 685 3443 
L 154 3443 
L 1331 269 
z
" transform="scale(0.015625)"/>
      <path id="AppleSDGothicNeo-Regular-73" d="M 1274 218 
C 1971 218 2394 550 2394 1152 
C 2394 1702 2144 1907 1536 2067 
L 1216 2157 
C 877 2253 742 2368 742 2643 
C 742 2938 954 3085 1382 3085 
C 1734 3085 2054 3002 2221 2918 
L 2221 3315 
C 2054 3405 1779 3501 1357 3501 
C 627 3501 275 3136 275 2598 
C 275 2061 589 1850 1050 1722 
L 1363 1638 
C 1766 1523 1914 1395 1914 1101 
C 1914 813 1709 634 1203 634 
C 755 634 525 730 250 832 
L 250 442 
C 512 294 858 218 1274 218 
z
" transform="scale(0.015625)"/>
     </defs>
     <use xlink:href="#AppleSDGothicNeo-Regular-76"/>
     <use xlink:href="#AppleSDGothicNeo-Regular-73" transform="translate(49.199997 0)"/>
    </g>
   </g>
   <g id="text_5">
    <!-- 생성형 AI -->
    <g style="fill: #2e7d32" transform="translate(418.530621 123.286927) scale(0.13 -0.13)">
     <defs>
      <path id="AppleSDGothicNeo-Regular-c0dd" d="M 5011 595 
C 5011 1229 4301 1626 3104 1626 
C 1907 1626 1203 1229 1203 595 
C 1203 -38 1907 -435 3104 -435 
C 4301 -435 5011 -38 5011 595 
z
M 4960 1613 
L 4960 5146 
L 4474 5146 
L 4474 3667 
L 3776 3667 
L 3776 5043 
L 3302 5043 
L 3302 1888 
L 3776 1888 
L 3776 3258 
L 4474 3258 
L 4474 1613 
L 4960 1613 
z
M 3104 1216 
C 3962 1216 4493 973 4493 595 
C 4493 211 3962 -32 3104 -32 
C 2253 -32 1715 211 1715 595 
C 1715 973 2253 1216 3104 1216 
z
M 3072 2477 
C 2541 2707 1862 3277 1862 4134 
L 1862 4819 
L 1389 4819 
L 1389 4122 
C 1389 3283 787 2605 192 2285 
L 493 1914 
C 1011 2214 1498 2816 1638 3270 
C 1830 2835 2310 2342 2810 2106 
L 3072 2477 
z
" transform="scale(0.015625)"/>
      <path id="AppleSDGothicNeo-Regular-c131" d="M 4326 3456 
L 4326 1670 
L 4813 1670 
L 4813 5146 
L 4326 5146 
L 4326 3859 
L 3123 3859 
L 3123 3456 
L 4326 3456 
z
M 4870 614 
C 4870 1267 4198 1670 2995 1670 
C 1798 1670 1126 1267 1126 614 
C 1126 -38 1798 -442 2995 -442 
C 4198 -442 4870 -38 4870 614 
z
M 2995 1274 
C 3866 1274 4378 1030 4378 614 
C 4378 192 3866 -45 2995 -45 
C 2138 -45 1619 192 1619 614 
C 1619 1030 2138 1274 2995 1274 
z
M 3424 2483 
C 2790 2714 2054 3386 2054 4282 
L 2054 4826 
L 1562 4826 
L 1562 4269 
C 1562 3379 979 2662 173 2291 
L 474 1914 
C 1120 2240 1651 2829 1824 3405 
C 2042 2848 2598 2362 3136 2106 
L 3424 2483 
z
" transform="scale(0.015625)"/>
      <path id="AppleSDGothicNeo-Regular-d615" d="M 4838 525 
C 4838 1120 4192 1491 2976 1491 
C 1760 1491 1133 1126 1133 525 
C 1133 -70 1760 -435 2976 -435 
C 4192 -435 4838 -70 4838 525 
z
M 2976 1094 
C 3827 1094 4333 883 4333 525 
C 4333 160 3827 -38 2976 -38 
C 2131 -38 1638 166 1638 525 
C 1638 877 2131 1094 2976 1094 
z
M 4813 1491 
L 4813 5146 
L 4326 5146 
L 4326 3686 
L 3341 3686 
L 3341 3290 
L 4326 3290 
L 4326 2650 
L 3341 2650 
L 3341 2246 
L 4326 2246 
L 4326 1491 
L 4813 1491 
z
M 2643 4621 
L 2643 5037 
L 1043 5037 
L 1043 4621 
L 2643 4621 
z
M 3386 3827 
L 3386 4218 
L 262 4218 
L 262 3827 
L 3386 3827 
z
M 3155 2611 
C 3155 3187 2605 3539 1862 3539 
C 1133 3539 582 3187 582 2611 
C 582 2042 1139 1683 1862 1683 
C 2605 1683 3155 2048 3155 2611 
z
M 2669 2611 
C 2669 2266 2304 2074 1862 2074 
C 1440 2074 1062 2266 1062 2611 
C 1062 2957 1434 3149 1862 3149 
C 2304 3149 2669 2957 2669 2611 
z
" transform="scale(0.015625)"/>
     </defs>
     <use xlink:href="#AppleSDGothicNeo-Regular-c0dd"/>
     <use xlink:href="#AppleSDGothicNeo-Regular-c131" transform="translate(86.499985 0)"/>
     <use xlink:href="#AppleSDGothicNeo-Regular-d615" transform="translate(172.999969 0)"/>
     <use xlink:href="#AppleSDGothicNeo-Regular-20" transform="translate(259.499954 0)"/>
     <use xlink:href="#AppleSDGothicNeo-Regular-41" transform="translate(285.799942 0)"/>
     <use xlink:href="#AppleSDGothicNeo-Regular-49" transform="translate(346.299927 0)"/>
    </g>
   </g>
   <g id="text_6">
    <!-- 질문을 이해하고 답변을 생성 -->
    <g style="fill: #333333" transform="translate(392.463746 154.696532) scale(0.09 -0.09)">
     <defs>
      <path id="AppleSDGothicNeo-Regular-c9c8" d="M 5018 -410 
L 5018 -6 
L 1651 -6 
L 1651 608 
L 4813 608 
L 4813 1952 
L 1158 1952 
L 1158 1555 
L 4326 1555 
L 4326 973 
L 1158 973 
L 1158 -410 
L 5018 -410 
z
M 454 4397 
L 1741 4397 
L 1741 4230 
C 1728 3488 1043 2784 262 2509 
L 538 2138 
C 1178 2394 1837 3014 1984 3539 
C 2214 3034 2803 2528 3341 2310 
L 3610 2688 
C 2970 2899 2253 3507 2246 4224 
L 2240 4397 
L 3552 4397 
L 3552 4806 
L 454 4806 
L 454 4397 
z
M 4813 2259 
L 4813 5146 
L 4326 5146 
L 4326 2259 
L 4813 2259 
z
" transform="scale(0.015625)"/>
      <path id="AppleSDGothicNeo-Regular-bb38" d="M 4659 2867 
L 4659 4838 
L 877 4838 
L 877 2867 
L 4659 2867 
z
M 4173 3270 
L 1363 3270 
L 1363 4435 
L 4173 4435 
L 4173 3270 
z
M 3021 736 
L 3021 1837 
L 5293 1837 
L 5293 2240 
L 243 2240 
L 243 1837 
L 2534 1837 
L 2534 736 
L 3021 736 
z
M 4723 -269 
L 4723 134 
L 1357 134 
L 1357 1312 
L 870 1312 
L 870 -269 
L 4723 -269 
z
" transform="scale(0.015625)"/>
      <path id="AppleSDGothicNeo-Regular-c744" d="M 5293 2317 
L 5293 2726 
L 243 2726 
L 243 2317 
L 5293 2317 
z
M 4730 4096 
C 4730 4710 3987 5069 2771 5069 
C 1568 5069 826 4710 826 4096 
C 826 3482 1568 3130 2771 3130 
C 3987 3130 4730 3482 4730 4096 
z
M 2771 4672 
C 3661 4672 4237 4448 4237 4096 
C 4237 3750 3661 3533 2771 3533 
C 1894 3533 1325 3750 1325 4096 
C 1325 4448 1894 4672 2771 4672 
z
M 4845 -397 
L 4845 0 
L 1318 0 
L 1318 563 
L 4659 563 
L 4659 1818 
L 819 1818 
L 819 1427 
L 4173 1427 
L 4173 934 
L 832 934 
L 832 -397 
L 4845 -397 
z
" transform="scale(0.015625)"/>
      <path id="AppleSDGothicNeo-Regular-c774" d="M 4845 -448 
L 4845 5146 
L 4358 5146 
L 4358 -448 
L 4845 -448 
z
M 429 2752 
C 429 1562 954 768 1869 768 
C 2797 768 3315 1562 3315 2746 
C 3315 3930 2797 4723 1869 4723 
C 954 4723 429 3930 429 2752 
z
M 2854 2746 
C 2854 1830 2464 1190 1869 1190 
C 1280 1190 890 1830 890 2746 
C 890 3667 1280 4301 1869 4301 
C 2464 4301 2854 3667 2854 2746 
z
" transform="scale(0.015625)"/>
      <path id="AppleSDGothicNeo-Regular-d574" d="M 4960 -448 
L 4960 5146 
L 4480 5146 
L 4480 2861 
L 3808 2861 
L 3808 5011 
L 3334 5011 
L 3334 -166 
L 3808 -166 
L 3808 2451 
L 4480 2451 
L 4480 -448 
L 4960 -448 
z
M 2912 1939 
C 2912 2611 2413 3059 1690 3059 
C 973 3059 467 2618 467 1939 
C 467 1299 973 826 1690 826 
C 2413 826 2912 1267 2912 1939 
z
M 2445 1939 
C 2445 1517 2131 1229 1690 1229 
C 1248 1229 941 1504 941 1939 
C 941 2368 1248 2650 1690 2650 
C 2131 2650 2445 2368 2445 1939 
z
M 3014 3379 
L 3014 3782 
L 230 3782 
L 230 3379 
L 3014 3379 
z
M 2413 4294 
L 2413 4717 
L 883 4717 
L 883 4294 
L 2413 4294 
z
" transform="scale(0.015625)"/>
      <path id="AppleSDGothicNeo-Regular-b2f5" d="M 5389 3418 
L 5389 3827 
L 4538 3827 
L 4538 5146 
L 4051 5146 
L 4051 2144 
L 4538 2144 
L 4538 3418 
L 5389 3418 
z
M 4538 -371 
L 4538 1856 
L 4058 1856 
L 4058 1133 
L 1510 1133 
L 1510 1837 
L 1024 1837 
L 1024 -371 
L 4538 -371 
z
M 4058 32 
L 1510 32 
L 1510 742 
L 4058 742 
L 4058 32 
z
M 947 2803 
L 947 4365 
L 2957 4365 
L 2957 4774 
L 454 4774 
L 454 2400 
L 915 2400 
C 1875 2400 2848 2483 3462 2592 
L 3424 2995 
C 2880 2886 1997 2803 1222 2803 
L 947 2803 
z
" transform="scale(0.015625)"/>
      <path id="AppleSDGothicNeo-Regular-bcc0" d="M 4813 5146 
L 4326 5146 
L 4326 4211 
L 3258 4211 
L 3258 3802 
L 4326 3802 
L 4326 2970 
L 3258 2970 
L 3258 2566 
L 4326 2566 
L 4326 1018 
L 4813 1018 
L 4813 5146 
z
M 4954 -262 
L 4954 147 
L 1696 147 
L 1696 1434 
L 1210 1434 
L 1210 -262 
L 4954 -262 
z
M 2950 1946 
L 2950 4774 
L 2458 4774 
L 2458 3750 
L 979 3750 
L 979 4774 
L 493 4774 
L 493 1946 
L 2950 1946 
z
M 2458 2349 
L 979 2349 
L 979 3347 
L 2458 3347 
L 2458 2349 
z
" transform="scale(0.015625)"/>
     </defs>
     <use xlink:href="#AppleSDGothicNeo-Regular-c9c8"/>
     <use xlink:href="#AppleSDGothicNeo-Regular-bb38" transform="translate(86.499985 0)"/>
     <use xlink:href="#AppleSDGothicNeo-Regular-c744" transform="translate(172.999969 0)"/>
     <use xlink:href="#AppleSDGothicNeo-Regular-20" transform="translate(259.499954 0)"/>
     <use xlink:href="#AppleSDGothicNeo-Regular-c774" transform="translate(285.799942 0)"/>
     <use xlink:href="#AppleSDGothicNeo-Regular-d574" transform="translate(372.299927 0)"/>
     <use xlink:href="#AppleSDGothicNeo-Regular-d558" transform="translate(458.799911 0)"/>
     <use xlink:href="#AppleSDGothicNeo-Regular-ace0" transform="translate(545.299896 0)"/>
     <use xlink:href="#AppleSDGothicNeo-Regular-20" transform="translate(631.799881 0)"/>
     <use xlink:href="#AppleSDGothicNeo-Regular-b2f5" transform="translate(658.099869 0)"/>
     <use xlink:href="#AppleSDGothicNeo-Regular-bcc0" transform="translate(744.599854 0)"/>
     <use xlink:href="#AppleSDGothicNeo-Regular-c744" transform="translate(831.099838 0)"/>
     <use xlink:href="#AppleSDGothicNeo-Regular-20" transform="translate(917.599823 0)"/>
     <use xlink:href="#AppleSDGothicNeo-Regular-c0dd" transform="translate(943.899811 0)"/>
     <use xlink:href="#AppleSDGothicNeo-Regular-c131" transform="translate(1030.399796 0)"/>
    </g>
   </g>
   <g id="text_7">
    <!-- 대화하듯 추가 질문으로 -->
    <g style="fill: #555555" transform="translate(401.432106 178.128631) scale(0.09 -0.09)">
     <defs>
      <path id="AppleSDGothicNeo-Regular-b300" d="M 4960 -448 
L 4960 5146 
L 4480 5146 
L 4480 2944 
L 3731 2944 
L 3731 5011 
L 3258 5011 
L 3258 -160 
L 3731 -160 
L 3731 2534 
L 4480 2534 
L 4480 -448 
L 4960 -448 
z
M 902 1414 
L 902 4051 
L 2586 4051 
L 2586 4461 
L 416 4461 
L 416 992 
L 787 992 
C 1517 992 2458 1056 2989 1158 
L 2944 1555 
C 2470 1453 1632 1414 1069 1414 
L 902 1414 
z
" transform="scale(0.015625)"/>
      <path id="AppleSDGothicNeo-Regular-d654" d="M 3731 1062 
C 3360 1005 2765 954 2144 915 
L 2144 1446 
C 2803 1510 3232 1856 3232 2368 
C 3232 2957 2701 3315 1907 3315 
C 1120 3315 582 2950 582 2368 
C 582 1862 1005 1517 1651 1446 
L 1651 890 
C 1114 870 544 870 147 883 
L 237 461 
C 704 461 1293 461 1914 499 
C 2586 544 3328 614 3763 666 
L 3731 1062 
z
M 5453 2246 
L 5453 2662 
L 4557 2662 
L 4557 5146 
L 4064 5146 
L 4064 -448 
L 4557 -448 
L 4557 2246 
L 5453 2246 
z
M 2758 2368 
C 2758 2054 2419 1830 1907 1830 
C 1402 1830 1050 2054 1050 2368 
C 1050 2694 1402 2912 1907 2912 
C 2419 2912 2758 2694 2758 2368 
z
M 3590 3603 
L 3590 4006 
L 262 4006 
L 262 3603 
L 3590 3603 
z
M 2701 4461 
L 2701 4870 
L 1094 4870 
L 1094 4461 
L 2701 4461 
z
" transform="scale(0.015625)"/>
      <path id="AppleSDGothicNeo-Regular-b4ef" d="M 5293 1978 
L 5293 2387 
L 243 2387 
L 243 1978 
L 5293 1978 
z
M 4698 2944 
L 4698 3354 
L 1350 3354 
L 1350 4448 
L 4672 4448 
L 4672 4858 
L 864 4858 
L 864 2944 
L 4698 2944 
z
M 4960 -6 
C 3987 77 3014 787 3014 1434 
L 3014 1632 
L 2515 1632 
L 2515 1434 
C 2515 781 1619 102 589 13 
L 806 -378 
C 1766 -237 2541 326 2758 806 
C 3034 294 3949 -282 4755 -390 
L 4960 -6 
z
" transform="scale(0.015625)"/>
      <path id="AppleSDGothicNeo-Regular-cd94" d="M 5030 2579 
C 4179 2662 3181 3091 3040 3757 
L 4813 3757 
L 4813 4166 
L 717 4166 
L 717 3757 
L 2509 3757 
C 2362 3091 1414 2656 518 2566 
L 736 2157 
C 1702 2278 2509 2752 2765 3270 
C 3053 2758 3898 2298 4806 2170 
L 5030 2579 
z
M 3002 -454 
L 3002 1325 
L 5293 1325 
L 5293 1734 
L 243 1734 
L 243 1325 
L 2515 1325 
L 2515 -454 
L 3002 -454 
z
M 3680 4653 
L 3680 5075 
L 1856 5075 
L 1856 4653 
L 3680 4653 
z
" transform="scale(0.015625)"/>
      <path id="AppleSDGothicNeo-Regular-c73c" d="M 5293 320 
L 5293 730 
L 243 730 
L 243 320 
L 5293 320 
z
M 4800 3245 
C 4800 4096 3994 4659 2758 4659 
C 1542 4659 730 4096 730 3245 
C 730 2387 1542 1830 2758 1830 
C 3987 1830 4800 2387 4800 3245 
z
M 4314 3238 
C 4314 2643 3693 2246 2758 2246 
C 1830 2246 1216 2643 1216 3238 
C 1216 3846 1830 4250 2758 4250 
C 3699 4250 4314 3846 4314 3238 
z
" transform="scale(0.015625)"/>
      <path id="AppleSDGothicNeo-Regular-b85c" d="M 5293 262 
L 5293 672 
L 3002 672 
L 3002 1626 
L 4826 1626 
L 4826 2035 
L 1350 2035 
L 1350 2970 
L 4666 2970 
L 4666 4678 
L 858 4678 
L 858 4269 
L 4179 4269 
L 4179 3373 
L 864 3373 
L 864 1626 
L 2515 1626 
L 2515 672 
L 243 672 
L 243 262 
L 5293 262 
z
" transform="scale(0.015625)"/>
     </defs>
     <use xlink:href="#AppleSDGothicNeo-Regular-b300"/>
     <use xlink:href="#AppleSDGothicNeo-Regular-d654" transform="translate(86.499985 0)"/>
     <use xlink:href="#AppleSDGothicNeo-Regular-d558" transform="translate(172.999969 0)"/>
     <use xlink:href="#AppleSDGothicNeo-Regular-b4ef" transform="translate(259.499954 0)"/>
     <use xlink:href="#AppleSDGothicNeo-Regular-20" transform="translate(345.999939 0)"/>
     <use xlink:href="#AppleSDGothicNeo-Regular-cd94" transform="translate(372.299927 0)"/>
     <use xlink:href="#AppleSDGothicNeo-Regular-ac00" transform="translate(458.799911 0)"/>
     <use xlink:href="#AppleSDGothicNeo-Regular-20" transform="translate(545.299896 0)"/>
     <use xlink:href="#AppleSDGothicNeo-Regular-c9c8" transform="translate(571.599884 0)"/>
     <use xlink:href="#AppleSDGothicNeo-Regular-bb38" transform="translate(658.099869 0)"/>
     <use xlink:href="#AppleSDGothicNeo-Regular-c73c" transform="translate(744.599854 0)"/>
     <use xlink:href="#AppleSDGothicNeo-Regular-b85c" transform="translate(831.099838 0)"/>
    </g>
    <!-- 답변을 개선 -->
    <g style="fill: #555555" transform="translate(422.077965 187.377819) scale(0.09 -0.09)">
     <defs>
      <path id="AppleSDGothicNeo-Regular-ac1c" d="M 4960 -448 
L 4960 5146 
L 4480 5146 
L 4480 2944 
L 3750 2944 
L 3750 5011 
L 3270 5011 
L 3270 -166 
L 3750 -166 
L 3750 2541 
L 4480 2541 
L 4480 -448 
L 4960 -448 
z
M 2656 4486 
L 416 4486 
L 416 4077 
L 2144 4077 
C 2093 2938 1408 1747 224 1075 
L 550 717 
C 1875 1517 2637 2822 2656 4486 
z
" transform="scale(0.015625)"/>
      <path id="AppleSDGothicNeo-Regular-c120" d="M 4813 1082 
L 4813 5146 
L 4326 5146 
L 4326 3731 
L 3136 3731 
L 3136 3322 
L 4326 3322 
L 4326 1082 
L 4813 1082 
z
M 4934 -275 
L 4934 128 
L 1702 128 
L 1702 1434 
L 1216 1434 
L 1216 -275 
L 4934 -275 
z
M 3514 2298 
C 2854 2541 2106 3213 2106 4147 
L 2106 4826 
L 1613 4826 
L 1613 4128 
C 1613 3226 934 2464 192 2138 
L 493 1760 
C 1101 2067 1702 2675 1869 3277 
C 2106 2688 2675 2163 3238 1914 
L 3514 2298 
z
" transform="scale(0.015625)"/>
     </defs>
     <use xlink:href="#AppleSDGothicNeo-Regular-b2f5"/>
     <use xlink:href="#AppleSDGothicNeo-Regular-bcc0" transform="translate(86.499985 0)"/>
     <use xlink:href="#AppleSDGothicNeo-Regular-c744" transform="translate(172.999969 0)"/>
     <use xlink:href="#AppleSDGothicNeo-Regular-20" transform="translate(259.499954 0)"/>
     <use xlink:href="#AppleSDGothicNeo-Regular-ac1c" transform="translate(285.799942 0)"/>
     <use xlink:href="#AppleSDGothicNeo-Regular-c120" transform="translate(372.299927 0)"/>
    </g>
   </g>
   <g id="text_8">
    <!-- 핵심: '찾아준다' vs '만들어준다' -->
    <g style="fill: #f57f17" transform="translate(239.065625 247.381863) scale(0.1 -0.1)">
     <defs>
      <path id="AppleSDGothicNeo-Regular-d575" d="M 4960 1690 
L 4960 5146 
L 4474 5146 
L 4474 3539 
L 3795 3539 
L 3795 5043 
L 3322 5043 
L 3322 1747 
L 3795 1747 
L 3795 3136 
L 4474 3136 
L 4474 1690 
L 4960 1690 
z
M 2810 2669 
C 2810 3206 2310 3526 1651 3526 
C 986 3526 486 3206 486 2669 
C 486 2125 986 1805 1651 1805 
C 2310 1805 2810 2125 2810 2669 
z
M 4960 -448 
L 4960 1408 
L 1203 1408 
L 1203 1011 
L 4467 1011 
L 4467 -448 
L 4960 -448 
z
M 3059 3763 
L 3059 4160 
L 218 4160 
L 218 3763 
L 3059 3763 
z
M 2349 2669 
C 2349 2374 2042 2195 1651 2195 
C 1254 2195 954 2374 954 2669 
C 954 2963 1254 3136 1651 3136 
C 2035 3136 2349 2963 2349 2669 
z
M 2362 4557 
L 2362 4966 
L 928 4966 
L 928 4557 
L 2362 4557 
z
" transform="scale(0.015625)"/>
      <path id="AppleSDGothicNeo-Regular-c2ec" d="M 4832 1965 
L 4832 5146 
L 4346 5146 
L 4346 1965 
L 4832 1965 
z
M 3571 2560 
C 2938 2784 2182 3475 2182 4371 
L 2182 4883 
L 1690 4883 
L 1690 4352 
C 1690 3462 1056 2752 275 2394 
L 576 2016 
C 1280 2400 1779 2918 1952 3494 
C 2170 2931 2752 2432 3283 2170 
L 3571 2560 
z
M 4838 -371 
L 4838 1626 
L 1152 1626 
L 1152 -371 
L 4838 -371 
z
M 4352 32 
L 1645 32 
L 1645 1222 
L 4352 1222 
L 4352 32 
z
" transform="scale(0.015625)"/>
      <path id="AppleSDGothicNeo-Regular-3a" d="M 640 3014 
L 1190 3014 
L 1190 3590 
L 640 3590 
L 640 3014 
z
M 640 659 
L 1190 659 
L 1190 1242 
L 640 1242 
L 640 659 
z
" transform="scale(0.015625)"/>
      <path id="AppleSDGothicNeo-Regular-27" d="M 422 3603 
L 851 3603 
L 902 4717 
L 365 4717 
L 422 3603 
z
" transform="scale(0.015625)"/>
      <path id="AppleSDGothicNeo-Regular-c900" d="M 5050 3091 
C 4211 3168 3072 3674 3027 4422 
L 4832 4422 
L 4832 4832 
L 691 4832 
L 691 4422 
L 2515 4422 
C 2470 3680 1440 3168 506 3085 
L 730 2675 
C 1715 2829 2547 3315 2765 3827 
C 3046 3322 3891 2835 4826 2675 
L 5050 3091 
z
M 3008 774 
L 3008 1882 
L 5293 1882 
L 5293 2285 
L 243 2285 
L 243 1882 
L 2522 1882 
L 2522 774 
L 3008 774 
z
M 4774 -275 
L 4774 134 
L 1350 134 
L 1350 1363 
L 864 1363 
L 864 -275 
L 4774 -275 
z
" transform="scale(0.015625)"/>
      <path id="AppleSDGothicNeo-Regular-b2e4" d="M 4557 5146 
L 4070 5146 
L 4070 -448 
L 4557 -448 
L 4557 2515 
L 5466 2515 
L 5466 2925 
L 4557 2925 
L 4557 5146 
z
M 954 1338 
L 954 4154 
L 3117 4154 
L 3117 4563 
L 461 4563 
L 461 922 
L 1011 922 
C 1984 922 3091 998 3693 1114 
L 3642 1517 
C 3104 1402 1997 1338 1274 1338 
L 954 1338 
z
" transform="scale(0.015625)"/>
      <path id="AppleSDGothicNeo-Regular-b9cc" d="M 3085 2061 
L 3085 4653 
L 435 4653 
L 435 2061 
L 3085 2061 
z
M 2598 2464 
L 922 2464 
L 922 4250 
L 2598 4250 
L 2598 2464 
z
M 5395 3066 
L 5395 3475 
L 4544 3475 
L 4544 5146 
L 4058 5146 
L 4058 1082 
L 4544 1082 
L 4544 3066 
L 5395 3066 
z
M 4762 -256 
L 4762 147 
L 1530 147 
L 1530 1466 
L 1043 1466 
L 1043 -256 
L 4762 -256 
z
" transform="scale(0.015625)"/>
      <path id="AppleSDGothicNeo-Regular-b4e4" d="M 5293 2355 
L 5293 2746 
L 243 2746 
L 243 2355 
L 5293 2355 
z
M 4813 -352 
L 4813 32 
L 1325 32 
L 1325 614 
L 4640 614 
L 4640 1875 
L 832 1875 
L 832 1491 
L 4154 1491 
L 4154 973 
L 838 973 
L 838 -352 
L 4813 -352 
z
M 4723 3213 
L 4723 3603 
L 1350 3603 
L 1350 4499 
L 4659 4499 
L 4659 4896 
L 858 4896 
L 858 3213 
L 4723 3213 
z
" transform="scale(0.015625)"/>
      <path id="AppleSDGothicNeo-Regular-c5b4" d="M 314 2778 
C 314 1587 826 800 1728 800 
C 2579 800 3078 1504 3130 2579 
L 4326 2579 
L 4326 -448 
L 4813 -448 
L 4813 5146 
L 4326 5146 
L 4326 2995 
L 3130 2995 
C 3066 4058 2573 4755 1728 4755 
C 826 4755 314 3962 314 2778 
z
M 2656 2771 
C 2656 1862 2278 1222 1728 1222 
C 1171 1222 800 1862 800 2771 
C 800 3693 1171 4333 1728 4333 
C 2278 4333 2656 3693 2656 2771 
z
" transform="scale(0.015625)"/>
     </defs>
     <use xlink:href="#AppleSDGothicNeo-Regular-d575"/>
     <use xlink:href="#AppleSDGothicNeo-Regular-c2ec" transform="translate(86.499985 0)"/>
     <use xlink:href="#AppleSDGothicNeo-Regular-3a" transform="translate(172.999969 0)"/>
     <use xlink:href="#AppleSDGothicNeo-Regular-20" transform="translate(201.399963 0)"/>
     <use xlink:href="#AppleSDGothicNeo-Regular-27" transform="translate(227.699951 0)"/>
     <use xlink:href="#AppleSDGothicNeo-Regular-cc3e" transform="translate(247.999939 0)"/>
     <use xlink:href="#AppleSDGothicNeo-Regular-c544" transform="translate(334.499924 0)"/>
     <use xlink:href="#AppleSDGothicNeo-Regular-c900" transform="translate(420.999908 0)"/>
     <use xlink:href="#AppleSDGothicNeo-Regular-b2e4" transform="translate(507.499893 0)"/>
     <use xlink:href="#AppleSDGothicNeo-Regular-27" transform="translate(593.999878 0)"/>
     <use xlink:href="#AppleSDGothicNeo-Regular-20" transform="translate(614.299866 0)"/>
     <use xlink:href="#AppleSDGothicNeo-Regular-76" transform="translate(640.599854 0)"/>
     <use xlink:href="#AppleSDGothicNeo-Regular-73" transform="translate(689.79985 0)"/>
     <use xlink:href="#AppleSDGothicNeo-Regular-20" transform="translate(731.299835 0)"/>
     <use xlink:href="#AppleSDGothicNeo-Regular-27" transform="translate(757.599823 0)"/>
     <use xlink:href="#AppleSDGothicNeo-Regular-b9cc" transform="translate(777.899811 0)"/>
     <use xlink:href="#AppleSDGothicNeo-Regular-b4e4" transform="translate(864.399796 0)"/>
     <use xlink:href="#AppleSDGothicNeo-Regular-c5b4" transform="translate(950.89978 0)"/>
     <use xlink:href="#AppleSDGothicNeo-Regular-c900" transform="translate(1037.399765 0)"/>
     <use xlink:href="#AppleSDGothicNeo-Regular-b2e4" transform="translate(1123.89975 0)"/>
     <use xlink:href="#AppleSDGothicNeo-Regular-27" transform="translate(1210.399734 0)"/>
    </g>
   </g>
   <g id="text_9">
    <!-- 검색 AI vs 생성형 AI -->
    <g style="fill: #002060" transform="translate(244.515781 32.35375) scale(0.14 -0.14)">
     <use xlink:href="#AppleSDGothicNeo-Regular-ac80"/>
     <use xlink:href="#AppleSDGothicNeo-Regular-c0c9" transform="translate(86.499985 0)"/>
     <use xlink:href="#AppleSDGothicNeo-Regular-20" transform="translate(172.999969 0)"/>
     <use xlink:href="#AppleSDGothicNeo-Regular-41" transform="translate(199.299957 0)"/>
     <use xlink:href="#AppleSDGothicNeo-Regular-49" transform="translate(259.799942 0)"/>
     <use xlink:href="#AppleSDGothicNeo-Regular-20" transform="translate(285.699936 0)"/>
     <use xlink:href="#AppleSDGothicNeo-Regular-76" transform="translate(311.999924 0)"/>
     <use xlink:href="#AppleSDGothicNeo-Regular-73" transform="translate(361.199921 0)"/>
     <use xlink:href="#AppleSDGothicNeo-Regular-20" transform="translate(402.699905 0)"/>
     <use xlink:href="#AppleSDGothicNeo-Regular-c0dd" transform="translate(428.999893 0)"/>
     <use xlink:href="#AppleSDGothicNeo-Regular-c131" transform="translate(515.499878 0)"/>
     <use xlink:href="#AppleSDGothicNeo-Regular-d615" transform="translate(601.999863 0)"/>
     <use xlink:href="#AppleSDGothicNeo-Regular-20" transform="translate(688.499847 0)"/>
     <use xlink:href="#AppleSDGothicNeo-Regular-41" transform="translate(714.799835 0)"/>
     <use xlink:href="#AppleSDGothicNeo-Regular-49" transform="translate(775.29982 0)"/>
    </g>
   </g>
  </g>
 </g>
 <defs>
  <clipPath id="p39336c9efa">
   <rect x="21.6" y="50.35375" width="558" height="249.48"/>
  </clipPath>
 </defs>
</svg>
