<?xml version="1.0" encoding="utf-8" standalone="no"?>
<!DOCTYPE svg PUBLIC "-//W3C//DTD SVG 1.1//EN"
  "http://www.w3.org/Graphics/SVG/1.1/DTD/svg11.dtd">
<svg xmlns:xlink="http://www.w3.org/1999/xlink" width="601.2pt" height="376.87375pt" viewBox="0 0 601.2 376.87375" xmlns="http://www.w3.org/2000/svg" version="1.1">
 <metadata>
  <rdf:RDF xmlns:dc="http://purl.org/dc/elements/1.1/" xmlns:cc="http://creativecommons.org/ns#" xmlns:rdf="http://www.w3.org/1999/02/22-rdf-syntax-ns#">
   <cc:Work>
    <dc:type rdf:resource="http://purl.org/dc/dcmitype/StillImage"/>
    <dc:date>2026-02-18T23:39:38.005957</dc:date>
    <dc:format>image/svg+xml</dc:format>
    <dc:creator>
     <cc:Agent>
      <dc:title>Matplotlib v3.10.8, https://matplotlib.org/</dc:title>
     </cc:Agent>
    </dc:creator>
   </cc:Work>
  </rdf:RDF>
 </metadata>
 <defs>
  <style type="text/css">*{stroke-linejoin: round; stroke-linecap: butt}</style>
 </defs>
 <g id="figure_1">
  <g id="patch_1">
   <path d="M 0 376.87375 
L 601.2 376.87375 
L 601.2 0 
L 0 0 
z
" style="fill: #ffffff"/>
  </g>
  <g id="axes_1">
   <g id="patch_2">
    <path d="M 34.281818 354.149788 
L 566.918182 354.149788 
Q 581.009091 354.149788 581.009091 340.553474 
L 581.009091 65.074026 
Q 581.009091 51.477712 566.918182 51.477712 
L 34.281818 51.477712 
Q 20.190909 51.477712 20.190909 65.074026 
L 20.190909 340.553474 
Q 20.190909 354.149788 34.281818 354.149788 
z
" clip-path="url(#pd3052e2dab)" style="fill: #eef3fa; stroke: #e0e0e0; stroke-width: 0.8; stroke-linejoin: miter"/>
   </g>
   <g id="patch_3">
    <path d="M 84.539394 167.463334 
L 272.418182 167.463334 
Q 278.054545 167.463334 278.054545 162.024808 
L 278.054545 112.171657 
Q 278.054545 106.733132 272.418182 106.733132 
L 84.539394 106.733132 
Q 78.90303 106.733132 78.90303 112.171657 
L 78.90303 162.024808 
Q 78.90303 167.463334 84.539394 167.463334 
z
" clip-path="url(#pd3052e2dab)" style="fill: #ffffff; stroke: #4080c0; stroke-width: 1.5; stroke-linejoin: miter"/>
   </g>
   <g id="patch_4">
    <path d="M 84.539394 230.912799 
L 272.418182 230.912799 
Q 278.054545 230.912799 278.054545 225.474273 
L 278.054545 175.621122 
Q 278.054545 170.182597 272.418182 170.182597 
L 84.539394 170.182597 
Q 78.90303 170.182597 78.90303 175.621122 
L 78.90303 225.474273 
Q 78.90303 230.912799 84.539394 230.912799 
z
" clip-path="url(#pd3052e2dab)" style="fill: #ffffff; stroke: #9060b0; stroke-width: 1.5; stroke-linejoin: miter"/>
   </g>
   <g id="patch_5">
    <path d="M 84.539394 294.362264 
L 272.418182 294.362264 
Q 278.054545 294.362264 278.054545 288.923738 
L 278.054545 239.070587 
Q 278.054545 233.632062 272.418182 233.632062 
L 84.539394 233.632062 
Q 78.90303 233.632062 78.90303 239.070587 
L 78.90303 288.923738 
Q 78.90303 294.362264 84.539394 294.362264 
z
" clip-path="url(#pd3052e2dab)" style="fill: #ffffff; stroke: #558838; stroke-width: 1.5; stroke-linejoin: miter"/>
   </g>
   <g id="patch_6">
    <path d="M 319.387879 167.463334 
L 507.266667 167.463334 
Q 512.90303 167.463334 512.90303 162.024808 
L 512.90303 112.171657 
Q 512.90303 106.733132 507.266667 106.733132 
L 319.387879 106.733132 
Q 313.751515 106.733132 313.751515 112.171657 
L 313.751515 162.024808 
Q 313.751515 167.463334 319.387879 167.463334 
z
" clip-path="url(#pd3052e2dab)" style="fill: #ffffff; stroke: #e07050; stroke-width: 1.5; stroke-linejoin: miter"/>
   </g>
   <g id="patch_7">
    <path d="M 319.387879 230.912799 
L 507.266667 230.912799 
Q 512.90303 230.912799 512.90303 225.474273 
L 512.90303 175.621122 
Q 512.90303 170.182597 507.266667 170.182597 
L 319.387879 170.182597 
Q 313.751515 170.182597 313.751515 175.621122 
L 313.751515 225.474273 
Q 313.751515 230.912799 319.387879 230.912799 
z
" clip-path="url(#pd3052e2dab)" style="fill: #ffffff; stroke: #d04040; stroke-width: 1.5; stroke-linejoin: miter"/>
   </g>
   <g id="patch_8">
    <path d="M 319.387879 294.362264 
L 507.266667 294.362264 
Q 512.90303 294.362264 512.90303 288.923738 
L 512.90303 239.070587 
Q 512.90303 233.632062 507.266667 233.632062 
L 319.387879 233.632062 
Q 313.751515 233.632062 313.751515 239.070587 
L 313.751515 288.923738 
Q 313.751515 294.362264 319.387879 294.362264 
z
" clip-path="url(#pd3052e2dab)" style="fill: #ffffff; stroke: #4080c0; stroke-width: 1.5; stroke-linejoin: miter"/>
   </g>
   <g id="text_1">
    <!-- 첫 질문 -->
    <g style="fill: #4080c0" transform="translate(162.75996 133.964451) scale(0.11 -0.11)">
     <defs>
      <path id="AppleSDGothicNeo-Regular-ccab" d="M 384 3686 
L 1658 3686 
C 1638 2938 973 2285 250 2067 
L 512 1696 
C 1152 1920 1734 2470 1914 2970 
C 2176 2464 2778 2010 3270 1862 
L 3526 2240 
C 2880 2394 2202 2950 2170 3686 
L 3398 3686 
L 3398 4083 
L 384 4083 
L 384 3686 
z
M 5178 -64 
C 4358 58 3302 672 3302 1472 
L 3302 1638 
L 2790 1638 
L 2790 1472 
C 2790 672 1805 38 902 -77 
L 1133 -474 
C 1952 -314 2835 250 3040 781 
C 3270 256 4205 -326 4941 -467 
L 5178 -64 
z
M 4813 5146 
L 4326 5146 
L 4326 3302 
L 3238 3302 
L 3238 2893 
L 4326 2893 
L 4326 1344 
L 4813 1344 
L 4813 5146 
z
M 1114 4582 
L 2701 4582 
L 2701 5005 
L 1114 5005 
L 1114 4582 
z
" transform="scale(0.015625)"/>
      <path id="AppleSDGothicNeo-Regular-20" transform="scale(0.015625)"/>
      <path id="AppleSDGothicNeo-Regular-c9c8" d="M 5018 -410 
L 5018 -6 
L 1651 -6 
L 1651 608 
L 4813 608 
L 4813 1952 
L 1158 1952 
L 1158 1555 
L 4326 1555 
L 4326 973 
L 1158 973 
L 1158 -410 
L 5018 -410 
z
M 454 4397 
L 1741 4397 
L 1741 4230 
C 1728 3488 1043 2784 262 2509 
L 538 2138 
C 1178 2394 1837 3014 1984 3539 
C 2214 3034 2803 2528 3341 2310 
L 3610 2688 
C 2970 2899 2253 3507 2246 4224 
L 2240 4397 
L 3552 4397 
L 3552 4806 
L 454 4806 
L 454 4397 
z
M 4813 2259 
L 4813 5146 
L 4326 5146 
L 4326 2259 
L 4813 2259 
z
" transform="scale(0.015625)"/>
      <path id="AppleSDGothicNeo-Regular-bb38" d="M 4659 2867 
L 4659 4838 
L 877 4838 
L 877 2867 
L 4659 2867 
z
M 4173 3270 
L 1363 3270 
L 1363 4435 
L 4173 4435 
L 4173 3270 
z
M 3021 736 
L 3021 1837 
L 5293 1837 
L 5293 2240 
L 243 2240 
L 243 1837 
L 2534 1837 
L 2534 736 
L 3021 736 
z
M 4723 -269 
L 4723 134 
L 1357 134 
L 1357 1312 
L 870 1312 
L 870 -269 
L 4723 -269 
z
" transform="scale(0.015625)"/>
     </defs>
     <use xlink:href="#AppleSDGothicNeo-Regular-ccab"/>
     <use xlink:href="#AppleSDGothicNeo-Regular-20" transform="translate(86.499985 0)"/>
     <use xlink:href="#AppleSDGothicNeo-Regular-c9c8" transform="translate(112.799973 0)"/>
     <use xlink:href="#AppleSDGothicNeo-Regular-bb38" transform="translate(199.299957 0)"/>
    </g>
   </g>
   <g id="text_2">
    <!-- 일반적인 질문으로 시작 -->
    <g style="fill: #666666" transform="translate(137.187069 151.412557) scale(0.09 -0.09)">
     <defs>
      <path id="AppleSDGothicNeo-Regular-c77c" d="M 4813 2317 
L 4813 5146 
L 4326 5146 
L 4326 2317 
L 4813 2317 
z
M 5018 -371 
L 5018 26 
L 1677 26 
L 1677 666 
L 4813 666 
L 4813 2022 
L 1171 2022 
L 1171 1626 
L 4326 1626 
L 4326 1043 
L 1190 1043 
L 1190 -371 
L 5018 -371 
z
M 1850 4973 
C 1043 4973 390 4461 390 3706 
C 390 2944 1050 2458 1850 2458 
C 2650 2458 3296 2950 3296 3706 
C 3296 4467 2650 4973 1850 4973 
z
M 1850 4550 
C 2432 4550 2822 4205 2822 3706 
C 2822 3213 2432 2880 1850 2880 
C 1293 2880 864 3213 864 3712 
C 864 4211 1299 4550 1850 4550 
z
" transform="scale(0.015625)"/>
      <path id="AppleSDGothicNeo-Regular-bc18" d="M 5395 3072 
L 5395 3482 
L 4544 3482 
L 4544 5146 
L 4058 5146 
L 4058 1088 
L 4544 1088 
L 4544 3072 
L 5395 3072 
z
M 4762 -256 
L 4762 147 
L 1472 147 
L 1472 1466 
L 986 1466 
L 986 -256 
L 4762 -256 
z
M 3059 1933 
L 3059 4768 
L 2566 4768 
L 2566 3808 
L 902 3808 
L 902 4768 
L 416 4768 
L 416 1933 
L 3059 1933 
z
M 2566 2330 
L 902 2330 
L 902 3411 
L 2566 3411 
L 2566 2330 
z
" transform="scale(0.015625)"/>
      <path id="AppleSDGothicNeo-Regular-c801" d="M 390 4301 
L 1664 4301 
C 1664 4192 1664 4038 1658 3968 
C 1632 3174 922 2464 218 2195 
L 480 1805 
C 1082 2067 1754 2739 1907 3264 
C 2138 2758 2720 2202 3258 1984 
L 3526 2374 
C 2886 2586 2208 3206 2163 3968 
C 2157 4038 2157 4186 2157 4301 
L 3405 4301 
L 3405 4710 
L 390 4710 
L 390 4301 
z
M 1088 1517 
L 1088 1114 
L 4326 1114 
L 4326 -448 
L 4819 -448 
L 4819 1517 
L 1088 1517 
z
M 4813 1811 
L 4813 5146 
L 4326 5146 
L 4326 3654 
L 3206 3654 
L 3206 3251 
L 4326 3251 
L 4326 1811 
L 4813 1811 
z
" transform="scale(0.015625)"/>
      <path id="AppleSDGothicNeo-Regular-c778" d="M 4813 1062 
L 4813 5146 
L 4326 5146 
L 4326 1062 
L 4813 1062 
z
M 4954 -262 
L 4954 141 
L 1651 141 
L 1651 1466 
L 1165 1466 
L 1165 -262 
L 4954 -262 
z
M 1869 4774 
C 1024 4774 365 4205 365 3373 
C 365 2541 1024 1990 1875 1990 
C 2726 1990 3379 2547 3379 3379 
C 3379 4211 2720 4774 1869 4774 
z
M 1869 4352 
C 2490 4352 2918 3949 2918 3373 
C 2918 2816 2490 2419 1875 2419 
C 1286 2419 832 2816 832 3379 
C 832 3949 1280 4352 1869 4352 
z
" transform="scale(0.015625)"/>
      <path id="AppleSDGothicNeo-Regular-c73c" d="M 5293 320 
L 5293 730 
L 243 730 
L 243 320 
L 5293 320 
z
M 4800 3245 
C 4800 4096 3994 4659 2758 4659 
C 1542 4659 730 4096 730 3245 
C 730 2387 1542 1830 2758 1830 
C 3987 1830 4800 2387 4800 3245 
z
M 4314 3238 
C 4314 2643 3693 2246 2758 2246 
C 1830 2246 1216 2643 1216 3238 
C 1216 3846 1830 4250 2758 4250 
C 3699 4250 4314 3846 4314 3238 
z
" transform="scale(0.015625)"/>
      <path id="AppleSDGothicNeo-Regular-b85c" d="M 5293 262 
L 5293 672 
L 3002 672 
L 3002 1626 
L 4826 1626 
L 4826 2035 
L 1350 2035 
L 1350 2970 
L 4666 2970 
L 4666 4678 
L 858 4678 
L 858 4269 
L 4179 4269 
L 4179 3373 
L 864 3373 
L 864 1626 
L 2515 1626 
L 2515 672 
L 243 672 
L 243 262 
L 5293 262 
z
" transform="scale(0.015625)"/>
      <path id="AppleSDGothicNeo-Regular-c2dc" d="M 4851 -448 
L 4851 5146 
L 4358 5146 
L 4358 -448 
L 4851 -448 
z
M 3648 1267 
C 2874 1728 2195 2643 2195 3667 
L 2195 4659 
L 1702 4659 
L 1702 3648 
C 1702 2656 1030 1638 211 1126 
L 531 762 
C 1178 1222 1754 1907 1958 2605 
C 2176 1933 2835 1242 3341 896 
L 3648 1267 
z
" transform="scale(0.015625)"/>
      <path id="AppleSDGothicNeo-Regular-c791" d="M 275 4333 
L 1562 4333 
C 1562 4192 1555 4083 1555 4032 
C 1530 3290 819 2586 115 2317 
L 397 1939 
C 998 2195 1651 2797 1805 3322 
C 2035 2816 2605 2310 3142 2093 
L 3411 2483 
C 2771 2694 2106 3309 2061 4026 
C 2054 4083 2054 4192 2054 4333 
L 3328 4333 
L 3328 4742 
L 275 4742 
L 275 4333 
z
M 934 1530 
L 934 1126 
L 4058 1126 
L 4058 -454 
L 4544 -454 
L 4544 1530 
L 934 1530 
z
M 5389 3226 
L 5389 3635 
L 4538 3635 
L 4538 5146 
L 4051 5146 
L 4051 1824 
L 4538 1824 
L 4538 3226 
L 5389 3226 
z
" transform="scale(0.015625)"/>
     </defs>
     <use xlink:href="#AppleSDGothicNeo-Regular-c77c"/>
     <use xlink:href="#AppleSDGothicNeo-Regular-bc18" transform="translate(86.499985 0)"/>
     <use xlink:href="#AppleSDGothicNeo-Regular-c801" transform="translate(172.999969 0)"/>
     <use xlink:href="#AppleSDGothicNeo-Regular-c778" transform="translate(259.499954 0)"/>
     <use xlink:href="#AppleSDGothicNeo-Regular-20" transform="translate(345.999939 0)"/>
     <use xlink:href="#AppleSDGothicNeo-Regular-c9c8" transform="translate(372.299927 0)"/>
     <use xlink:href="#AppleSDGothicNeo-Regular-bb38" transform="translate(458.799911 0)"/>
     <use xlink:href="#AppleSDGothicNeo-Regular-c73c" transform="translate(545.299896 0)"/>
     <use xlink:href="#AppleSDGothicNeo-Regular-b85c" transform="translate(631.799881 0)"/>
     <use xlink:href="#AppleSDGothicNeo-Regular-20" transform="translate(718.299866 0)"/>
     <use xlink:href="#AppleSDGothicNeo-Regular-c2dc" transform="translate(744.599854 0)"/>
     <use xlink:href="#AppleSDGothicNeo-Regular-c791" transform="translate(831.099838 0)"/>
    </g>
   </g>
   <g id="text_3">
    <!-- 범위 좁히기 -->
    <g style="fill: #9060b0" transform="translate(153.24496 197.391572) scale(0.11 -0.11)">
     <defs>
      <path id="AppleSDGothicNeo-Regular-bc94" d="M 4326 3309 
L 4326 1933 
L 4813 1933 
L 4813 5146 
L 4326 5146 
L 4326 3725 
L 3302 3725 
L 3302 3309 
L 4326 3309 
z
M 4819 -371 
L 4819 1638 
L 1235 1638 
L 1235 -371 
L 4819 -371 
z
M 4333 32 
L 1722 32 
L 1722 1242 
L 4333 1242 
L 4333 32 
z
M 3008 2202 
L 3008 4819 
L 2522 4819 
L 2522 3898 
L 979 3898 
L 979 4819 
L 493 4819 
L 493 2202 
L 3008 2202 
z
M 2522 2605 
L 979 2605 
L 979 3494 
L 2522 3494 
L 2522 2605 
z
" transform="scale(0.015625)"/>
      <path id="AppleSDGothicNeo-Regular-c704" d="M 3520 3667 
C 3520 4378 2918 4870 2054 4870 
C 1184 4870 582 4378 582 3667 
C 582 2970 1184 2477 2054 2477 
C 2912 2477 3520 2970 3520 3667 
z
M 4864 -448 
L 4864 5146 
L 4371 5146 
L 4371 -448 
L 4864 -448 
z
M 3046 3667 
C 3046 3168 2611 2886 2054 2886 
C 1491 2886 1050 3168 1050 3667 
C 1050 4173 1491 4461 2054 4461 
C 2611 4461 3046 4173 3046 3667 
z
M 2272 -282 
L 2272 1664 
C 2912 1696 3635 1741 4058 1798 
L 4038 2176 
C 3494 2118 2784 2074 2086 2054 
C 1466 2029 858 2035 192 2035 
L 269 1600 
C 762 1606 1261 1613 1786 1638 
L 1786 -282 
L 2272 -282 
z
" transform="scale(0.015625)"/>
      <path id="AppleSDGothicNeo-Regular-c881" d="M 4653 -371 
L 4653 1734 
L 4160 1734 
L 4160 1082 
L 1370 1082 
L 1370 1734 
L 883 1734 
L 883 -371 
L 4653 -371 
z
M 5050 3322 
C 4269 3392 3238 3834 3053 4493 
L 4832 4493 
L 4832 4896 
L 698 4896 
L 698 4493 
L 2490 4493 
C 2323 3840 1370 3392 506 3315 
L 730 2906 
C 1715 3059 2547 3546 2765 4064 
C 3046 3552 3891 3059 4826 2906 
L 5050 3322 
z
M 5293 2086 
L 5293 2490 
L 3002 2490 
L 3002 3258 
L 2515 3258 
L 2515 2490 
L 243 2490 
L 243 2086 
L 5293 2086 
z
M 4160 32 
L 1370 32 
L 1370 685 
L 4160 685 
L 4160 32 
z
" transform="scale(0.015625)"/>
      <path id="AppleSDGothicNeo-Regular-d788" d="M 4845 -448 
L 4845 5146 
L 4358 5146 
L 4358 -448 
L 4845 -448 
z
M 2810 4365 
L 2810 4774 
L 1178 4774 
L 1178 4365 
L 2810 4365 
z
M 3674 3398 
L 3674 3802 
L 352 3802 
L 352 3398 
L 3674 3398 
z
M 3341 1882 
C 3341 2541 2816 3040 2035 3040 
C 1254 3040 730 2534 730 1882 
C 730 1229 1254 730 2035 730 
C 2816 730 3341 1235 3341 1882 
z
M 2854 1882 
C 2854 1440 2522 1126 2035 1126 
C 1555 1126 1210 1440 1210 1882 
C 1210 2330 1555 2637 2035 2637 
C 2509 2637 2854 2330 2854 1882 
z
" transform="scale(0.015625)"/>
      <path id="AppleSDGothicNeo-Regular-ae30" d="M 4813 -448 
L 4813 5146 
L 4326 5146 
L 4326 -448 
L 4813 -448 
z
M 3168 4550 
L 506 4550 
L 506 4141 
L 2650 4141 
C 2547 2880 1715 1664 301 1043 
L 582 659 
C 2029 1344 3142 2733 3168 4550 
z
" transform="scale(0.015625)"/>
     </defs>
     <use xlink:href="#AppleSDGothicNeo-Regular-bc94"/>
     <use xlink:href="#AppleSDGothicNeo-Regular-c704" transform="translate(86.499985 0)"/>
     <use xlink:href="#AppleSDGothicNeo-Regular-20" transform="translate(172.999969 0)"/>
     <use xlink:href="#AppleSDGothicNeo-Regular-c881" transform="translate(199.299957 0)"/>
     <use xlink:href="#AppleSDGothicNeo-Regular-d788" transform="translate(285.799942 0)"/>
     <use xlink:href="#AppleSDGothicNeo-Regular-ae30" transform="translate(372.299927 0)"/>
    </g>
   </g>
   <g id="text_4">
    <!-- '그중에서 ~에 집중해줘' -->
    <g style="fill: #666666" transform="translate(136.854491 214.857803) scale(0.09 -0.09)">
     <defs>
      <path id="AppleSDGothicNeo-Regular-27" d="M 422 3603 
L 851 3603 
L 902 4717 
L 365 4717 
L 422 3603 
z
" transform="scale(0.015625)"/>
      <path id="AppleSDGothicNeo-Regular-adf8" d="M 5293 378 
L 5293 787 
L 243 787 
L 243 378 
L 5293 378 
z
M 4570 4518 
L 768 4518 
L 768 4115 
L 4070 4115 
C 4070 3200 3987 1984 3834 1274 
L 4320 1210 
C 4493 2067 4570 3232 4570 4518 
z
" transform="scale(0.015625)"/>
      <path id="AppleSDGothicNeo-Regular-c911" d="M 4736 563 
C 4736 1158 4083 1504 3002 1549 
L 3002 2138 
L 5293 2138 
L 5293 2541 
L 243 2541 
L 243 2138 
L 2515 2138 
L 2515 1549 
C 1446 1498 806 1152 806 563 
C 806 -77 1549 -429 2765 -429 
C 3987 -429 4736 -77 4736 563 
z
M 5030 3302 
C 4256 3373 3219 3789 3053 4454 
L 4813 4454 
L 4813 4851 
L 717 4851 
L 717 4454 
L 2496 4454 
C 2336 3789 1376 3373 506 3296 
L 723 2886 
C 1709 3034 2547 3494 2765 4013 
C 3046 3501 3878 3046 4813 2893 
L 5030 3302 
z
M 2765 1152 
C 3648 1152 4237 960 4237 563 
C 4237 154 3654 -32 2765 -32 
C 1888 -32 1306 154 1306 563 
C 1306 960 1888 1152 2765 1152 
z
" transform="scale(0.015625)"/>
      <path id="AppleSDGothicNeo-Regular-c5d0" d="M 1562 4659 
C 749 4659 333 3866 333 2746 
C 333 1619 749 832 1562 832 
C 2330 832 2739 1517 2790 2528 
L 3392 2528 
L 3392 -179 
L 3866 -179 
L 3866 5037 
L 3392 5037 
L 3392 2931 
L 2790 2931 
C 2752 3949 2336 4659 1562 4659 
z
M 2310 2746 
C 2310 1837 2016 1261 1562 1261 
C 1114 1261 826 1837 826 2746 
C 826 3648 1114 4230 1562 4230 
C 2016 4230 2310 3648 2310 2746 
z
M 4960 -448 
L 4960 5146 
L 4480 5146 
L 4480 -448 
L 4960 -448 
z
" transform="scale(0.015625)"/>
      <path id="AppleSDGothicNeo-Regular-c11c" d="M 4832 -448 
L 4832 5146 
L 4346 5146 
L 4346 3149 
L 3040 3149 
L 3040 2739 
L 4346 2739 
L 4346 -448 
L 4832 -448 
z
M 3590 1261 
C 2822 1709 2157 2618 2157 3642 
L 2157 4659 
L 1651 4659 
L 1651 3622 
C 1651 2630 1005 1638 192 1126 
L 512 762 
C 1158 1229 1709 1920 1907 2618 
C 2131 1946 2778 1235 3290 890 
L 3590 1261 
z
" transform="scale(0.015625)"/>
      <path id="AppleSDGothicNeo-Regular-7e" d="M 1843 2547 
C 1670 2688 1434 2867 1184 2867 
C 800 2867 474 2643 326 1984 
L 704 1856 
C 800 2202 915 2419 1133 2419 
C 1312 2419 1434 2323 1632 2150 
C 1651 2131 1664 2106 1690 2086 
C 1920 1907 2138 1792 2387 1792 
C 2701 1792 3110 2074 3206 2688 
L 2829 2797 
C 2778 2464 2630 2240 2413 2240 
C 2202 2240 2054 2368 1843 2547 
z
" transform="scale(0.015625)"/>
      <path id="AppleSDGothicNeo-Regular-c9d1" d="M 4813 -371 
L 4813 1850 
L 4326 1850 
L 4326 1139 
L 1696 1139 
L 1696 1830 
L 1210 1830 
L 1210 -371 
L 4813 -371 
z
M 461 4346 
L 1734 4346 
C 1734 4269 1728 4198 1728 4154 
C 1696 3411 973 2675 269 2406 
L 550 2029 
C 1152 2285 1824 2918 1971 3443 
C 2202 2938 2797 2426 3334 2208 
L 3603 2598 
C 2963 2810 2272 3430 2234 4147 
C 2227 4192 2227 4269 2227 4346 
L 3539 4346 
L 3539 4755 
L 461 4755 
L 461 4346 
z
M 4326 32 
L 1696 32 
L 1696 749 
L 4326 749 
L 4326 32 
z
M 4813 2138 
L 4813 5146 
L 4326 5146 
L 4326 2138 
L 4813 2138 
z
" transform="scale(0.015625)"/>
      <path id="AppleSDGothicNeo-Regular-d574" d="M 4960 -448 
L 4960 5146 
L 4480 5146 
L 4480 2861 
L 3808 2861 
L 3808 5011 
L 3334 5011 
L 3334 -166 
L 3808 -166 
L 3808 2451 
L 4480 2451 
L 4480 -448 
L 4960 -448 
z
M 2912 1939 
C 2912 2611 2413 3059 1690 3059 
C 973 3059 467 2618 467 1939 
C 467 1299 973 826 1690 826 
C 2413 826 2912 1267 2912 1939 
z
M 2445 1939 
C 2445 1517 2131 1229 1690 1229 
C 1248 1229 941 1504 941 1939 
C 941 2368 1248 2650 1690 2650 
C 2131 2650 2445 2368 2445 1939 
z
M 3014 3379 
L 3014 3782 
L 230 3782 
L 230 3379 
L 3014 3379 
z
M 2413 4294 
L 2413 4717 
L 883 4717 
L 883 4294 
L 2413 4294 
z
" transform="scale(0.015625)"/>
      <path id="AppleSDGothicNeo-Regular-c918" d="M 3034 934 
L 4384 934 
L 4384 -448 
L 4870 -448 
L 4870 5146 
L 4384 5146 
L 4384 1331 
L 3034 1331 
L 3034 934 
z
M 3558 4339 
L 3558 4742 
L 506 4742 
L 506 4339 
L 1824 4339 
L 1824 4320 
C 1824 3514 998 3034 410 2886 
L 627 2522 
C 1248 2707 1907 3168 2067 3597 
C 2285 3187 2976 2758 3494 2643 
L 3712 3040 
C 3187 3155 2304 3533 2304 4326 
L 2304 4339 
L 3558 4339 
z
M 2278 -282 
L 2278 1773 
C 2957 1811 3571 1862 3968 1907 
L 3930 2291 
C 3482 2240 2790 2195 2067 2163 
C 1453 2144 851 2131 192 2131 
L 262 1709 
C 736 1722 1280 1734 1792 1754 
L 1792 -282 
L 2278 -282 
z
" transform="scale(0.015625)"/>
     </defs>
     <use xlink:href="#AppleSDGothicNeo-Regular-27"/>
     <use xlink:href="#AppleSDGothicNeo-Regular-adf8" transform="translate(20.299988 0)"/>
     <use xlink:href="#AppleSDGothicNeo-Regular-c911" transform="translate(106.799973 0)"/>
     <use xlink:href="#AppleSDGothicNeo-Regular-c5d0" transform="translate(193.299957 0)"/>
     <use xlink:href="#AppleSDGothicNeo-Regular-c11c" transform="translate(279.799942 0)"/>
     <use xlink:href="#AppleSDGothicNeo-Regular-20" transform="translate(366.299927 0)"/>
     <use xlink:href="#AppleSDGothicNeo-Regular-7e" transform="translate(392.599915 0)"/>
     <use xlink:href="#AppleSDGothicNeo-Regular-c5d0" transform="translate(445.899902 0)"/>
     <use xlink:href="#AppleSDGothicNeo-Regular-20" transform="translate(532.399887 0)"/>
     <use xlink:href="#AppleSDGothicNeo-Regular-c9d1" transform="translate(558.699875 0)"/>
     <use xlink:href="#AppleSDGothicNeo-Regular-c911" transform="translate(645.19986 0)"/>
     <use xlink:href="#AppleSDGothicNeo-Regular-d574" transform="translate(731.699844 0)"/>
     <use xlink:href="#AppleSDGothicNeo-Regular-c918" transform="translate(818.199829 0)"/>
     <use xlink:href="#AppleSDGothicNeo-Regular-27" transform="translate(904.699814 0)"/>
    </g>
   </g>
   <g id="text_5">
    <!-- 구체화 -->
    <g style="fill: #558838" transform="translate(164.206288 260.841037) scale(0.11 -0.11)">
     <defs>
      <path id="AppleSDGothicNeo-Regular-ad6c" d="M 4634 4730 
L 838 4730 
L 838 4326 
L 4128 4326 
C 4128 3776 4096 2854 3942 2253 
L 243 2253 
L 243 1843 
L 2522 1843 
L 2522 -448 
L 3008 -448 
L 3008 1843 
L 5293 1843 
L 5293 2253 
L 4429 2253 
C 4614 3117 4634 3968 4634 4730 
z
" transform="scale(0.015625)"/>
      <path id="AppleSDGothicNeo-Regular-ccb4" d="M 2938 3322 
L 2938 3731 
L 282 3731 
L 282 3322 
L 1357 3322 
L 1357 3123 
C 1357 2080 813 1382 173 992 
L 448 659 
C 979 986 1478 1587 1606 2176 
C 1766 1594 2291 1062 2752 806 
L 3040 1165 
C 2470 1459 1856 2086 1856 3136 
L 1856 3322 
L 2938 3322 
z
M 3386 2317 
L 3386 -166 
L 3859 -166 
L 3859 5011 
L 3386 5011 
L 3386 2720 
L 2496 2720 
L 2496 2317 
L 3386 2317 
z
M 4986 -448 
L 4986 5146 
L 4506 5146 
L 4506 -448 
L 4986 -448 
z
M 877 4269 
L 2355 4269 
L 2355 4704 
L 877 4704 
L 877 4269 
z
" transform="scale(0.015625)"/>
      <path id="AppleSDGothicNeo-Regular-d654" d="M 3731 1062 
C 3360 1005 2765 954 2144 915 
L 2144 1446 
C 2803 1510 3232 1856 3232 2368 
C 3232 2957 2701 3315 1907 3315 
C 1120 3315 582 2950 582 2368 
C 582 1862 1005 1517 1651 1446 
L 1651 890 
C 1114 870 544 870 147 883 
L 237 461 
C 704 461 1293 461 1914 499 
C 2586 544 3328 614 3763 666 
L 3731 1062 
z
M 5453 2246 
L 5453 2662 
L 4557 2662 
L 4557 5146 
L 4064 5146 
L 4064 -448 
L 4557 -448 
L 4557 2246 
L 5453 2246 
z
M 2758 2368 
C 2758 2054 2419 1830 1907 1830 
C 1402 1830 1050 2054 1050 2368 
C 1050 2694 1402 2912 1907 2912 
C 2419 2912 2758 2694 2758 2368 
z
M 3590 3603 
L 3590 4006 
L 262 4006 
L 262 3603 
L 3590 3603 
z
M 2701 4461 
L 2701 4870 
L 1094 4870 
L 1094 4461 
L 2701 4461 
z
" transform="scale(0.015625)"/>
     </defs>
     <use xlink:href="#AppleSDGothicNeo-Regular-ad6c"/>
     <use xlink:href="#AppleSDGothicNeo-Regular-ccb4" transform="translate(86.499985 0)"/>
     <use xlink:href="#AppleSDGothicNeo-Regular-d654" transform="translate(172.999969 0)"/>
    </g>
   </g>
   <g id="text_6">
    <!-- '예를 들어 설명해줘' -->
    <g style="fill: #666666" transform="translate(143.14535 278.307268) scale(0.09 -0.09)">
     <defs>
      <path id="AppleSDGothicNeo-Regular-c608" d="M 1523 4691 
C 704 4691 288 3885 288 2746 
C 288 1594 704 794 1523 794 
C 2048 794 2400 1120 2592 1658 
L 3392 1658 
L 3392 -166 
L 3866 -166 
L 3866 5037 
L 3392 5037 
L 3392 3814 
L 2592 3814 
C 2406 4358 2048 4691 1523 4691 
z
M 2285 2746 
C 2285 1798 1990 1216 1523 1216 
C 1050 1216 762 1798 762 2746 
C 762 3674 1050 4269 1523 4269 
C 1990 4269 2285 3674 2285 2746 
z
M 4960 -448 
L 4960 5146 
L 4480 5146 
L 4480 -448 
L 4960 -448 
z
M 3392 3405 
L 3392 2067 
L 2694 2067 
C 2733 2266 2758 2496 2758 2746 
C 2758 2976 2739 3200 2701 3405 
L 3392 3405 
z
" transform="scale(0.015625)"/>
      <path id="AppleSDGothicNeo-Regular-b97c" d="M 5293 2163 
L 5293 2541 
L 243 2541 
L 243 2163 
L 5293 2163 
z
M 4870 -346 
L 4870 38 
L 1312 38 
L 1312 550 
L 4698 550 
L 4698 1722 
L 832 1722 
L 832 1363 
L 4211 1363 
L 4211 896 
L 826 896 
L 826 -346 
L 4870 -346 
z
M 4774 2982 
L 4774 3347 
L 1370 3347 
L 1370 3789 
L 4666 3789 
L 4666 4960 
L 877 4960 
L 877 4576 
L 4179 4576 
L 4179 4141 
L 883 4141 
L 883 2982 
L 4774 2982 
z
" transform="scale(0.015625)"/>
      <path id="AppleSDGothicNeo-Regular-b4e4" d="M 5293 2355 
L 5293 2746 
L 243 2746 
L 243 2355 
L 5293 2355 
z
M 4813 -352 
L 4813 32 
L 1325 32 
L 1325 614 
L 4640 614 
L 4640 1875 
L 832 1875 
L 832 1491 
L 4154 1491 
L 4154 973 
L 838 973 
L 838 -352 
L 4813 -352 
z
M 4723 3213 
L 4723 3603 
L 1350 3603 
L 1350 4499 
L 4659 4499 
L 4659 4896 
L 858 4896 
L 858 3213 
L 4723 3213 
z
" transform="scale(0.015625)"/>
      <path id="AppleSDGothicNeo-Regular-c5b4" d="M 314 2778 
C 314 1587 826 800 1728 800 
C 2579 800 3078 1504 3130 2579 
L 4326 2579 
L 4326 -448 
L 4813 -448 
L 4813 5146 
L 4326 5146 
L 4326 2995 
L 3130 2995 
C 3066 4058 2573 4755 1728 4755 
C 826 4755 314 3962 314 2778 
z
M 2656 2771 
C 2656 1862 2278 1222 1728 1222 
C 1171 1222 800 1862 800 2771 
C 800 3693 1171 4333 1728 4333 
C 2278 4333 2656 3693 2656 2771 
z
" transform="scale(0.015625)"/>
      <path id="AppleSDGothicNeo-Regular-c124" d="M 4326 3622 
L 4326 2259 
L 4813 2259 
L 4813 5146 
L 4326 5146 
L 4326 4032 
L 3181 4032 
L 3181 3622 
L 4326 3622 
z
M 3488 2797 
C 2893 2995 2106 3584 2106 4493 
L 2106 4954 
L 1613 4954 
L 1613 4474 
C 1613 3578 934 2918 198 2630 
L 499 2266 
C 1165 2579 1696 3085 1862 3661 
C 2131 3072 2675 2637 3213 2419 
L 3488 2797 
z
M 5024 -410 
L 5024 -6 
L 1690 -6 
L 1690 602 
L 4819 602 
L 4819 1952 
L 1171 1952 
L 1171 1549 
L 4333 1549 
L 4333 973 
L 1203 973 
L 1203 -410 
L 5024 -410 
z
" transform="scale(0.015625)"/>
      <path id="AppleSDGothicNeo-Regular-ba85" d="M 4858 614 
C 4858 1274 4166 1690 2957 1690 
C 1734 1690 1050 1274 1050 614 
C 1050 -38 1734 -448 2957 -448 
C 4166 -448 4858 -38 4858 614 
z
M 2957 1274 
C 3840 1274 4358 1037 4358 614 
C 4358 198 3840 -38 2957 -38 
C 2074 -38 1555 198 1555 614 
C 1555 1037 2074 1274 2957 1274 
z
M 3322 3840 
L 4326 3840 
L 4326 3091 
L 3315 3091 
L 3315 2688 
L 4326 2688 
L 4326 1664 
L 4813 1664 
L 4813 5146 
L 4326 5146 
L 4326 4243 
L 3322 4243 
L 3322 3840 
z
M 3053 2157 
L 3053 4717 
L 493 4717 
L 493 2157 
L 3053 2157 
z
M 2560 2554 
L 979 2554 
L 979 4314 
L 2560 4314 
L 2560 2554 
z
" transform="scale(0.015625)"/>
     </defs>
     <use xlink:href="#AppleSDGothicNeo-Regular-27"/>
     <use xlink:href="#AppleSDGothicNeo-Regular-c608" transform="translate(20.299988 0)"/>
     <use xlink:href="#AppleSDGothicNeo-Regular-b97c" transform="translate(106.799973 0)"/>
     <use xlink:href="#AppleSDGothicNeo-Regular-20" transform="translate(193.299957 0)"/>
     <use xlink:href="#AppleSDGothicNeo-Regular-b4e4" transform="translate(219.599945 0)"/>
     <use xlink:href="#AppleSDGothicNeo-Regular-c5b4" transform="translate(306.09993 0)"/>
     <use xlink:href="#AppleSDGothicNeo-Regular-20" transform="translate(392.599915 0)"/>
     <use xlink:href="#AppleSDGothicNeo-Regular-c124" transform="translate(418.899902 0)"/>
     <use xlink:href="#AppleSDGothicNeo-Regular-ba85" transform="translate(505.399887 0)"/>
     <use xlink:href="#AppleSDGothicNeo-Regular-d574" transform="translate(591.899872 0)"/>
     <use xlink:href="#AppleSDGothicNeo-Regular-c918" transform="translate(678.399857 0)"/>
     <use xlink:href="#AppleSDGothicNeo-Regular-27" transform="translate(764.899841 0)"/>
    </g>
   </g>
   <g id="text_7">
    <!-- 형식 바꾸기 -->
    <g style="fill: #e07050" transform="translate(388.093445 133.947263) scale(0.11 -0.11)">
     <defs>
      <path id="AppleSDGothicNeo-Regular-d615" d="M 4838 525 
C 4838 1120 4192 1491 2976 1491 
C 1760 1491 1133 1126 1133 525 
C 1133 -70 1760 -435 2976 -435 
C 4192 -435 4838 -70 4838 525 
z
M 2976 1094 
C 3827 1094 4333 883 4333 525 
C 4333 160 3827 -38 2976 -38 
C 2131 -38 1638 166 1638 525 
C 1638 877 2131 1094 2976 1094 
z
M 4813 1491 
L 4813 5146 
L 4326 5146 
L 4326 3686 
L 3341 3686 
L 3341 3290 
L 4326 3290 
L 4326 2650 
L 3341 2650 
L 3341 2246 
L 4326 2246 
L 4326 1491 
L 4813 1491 
z
M 2643 4621 
L 2643 5037 
L 1043 5037 
L 1043 4621 
L 2643 4621 
z
M 3386 3827 
L 3386 4218 
L 262 4218 
L 262 3827 
L 3386 3827 
z
M 3155 2611 
C 3155 3187 2605 3539 1862 3539 
C 1133 3539 582 3187 582 2611 
C 582 2042 1139 1683 1862 1683 
C 2605 1683 3155 2048 3155 2611 
z
M 2669 2611 
C 2669 2266 2304 2074 1862 2074 
C 1440 2074 1062 2266 1062 2611 
C 1062 2957 1434 3149 1862 3149 
C 2304 3149 2669 2957 2669 2611 
z
" transform="scale(0.015625)"/>
      <path id="AppleSDGothicNeo-Regular-c2dd" d="M 4813 1811 
L 4813 5146 
L 4326 5146 
L 4326 1811 
L 4813 1811 
z
M 3622 2528 
C 2950 2758 2163 3443 2163 4339 
L 2163 4915 
L 1670 4915 
L 1670 4320 
C 1670 3430 992 2669 198 2342 
L 499 1952 
C 1203 2310 1760 2886 1933 3469 
C 2157 2893 2778 2387 3334 2144 
L 3622 2528 
z
M 4813 -448 
L 4813 1504 
L 1082 1504 
L 1082 1101 
L 4326 1101 
L 4326 -448 
L 4813 -448 
z
" transform="scale(0.015625)"/>
      <path id="AppleSDGothicNeo-Regular-bc14" d="M 5453 2509 
L 5453 2925 
L 4544 2925 
L 4544 5146 
L 4058 5146 
L 4058 -448 
L 4544 -448 
L 4544 2509 
L 5453 2509 
z
M 3059 941 
L 3059 4672 
L 2566 4672 
L 2566 3251 
L 915 3251 
L 915 4672 
L 429 4672 
L 429 941 
L 3059 941 
z
M 2566 1350 
L 915 1350 
L 915 2848 
L 2566 2848 
L 2566 1350 
z
" transform="scale(0.015625)"/>
      <path id="AppleSDGothicNeo-Regular-afb8" d="M 4710 4768 
L 2880 4768 
L 2880 4365 
L 4211 4365 
C 4218 3757 4115 2931 3987 2432 
L 2176 2432 
C 2342 3110 2458 3930 2458 4768 
L 646 4768 
L 646 4365 
L 1952 4365 
C 1952 3712 1824 2925 1690 2432 
L 243 2432 
L 243 2022 
L 2522 2022 
L 2522 -454 
L 3008 -454 
L 3008 2022 
L 5293 2022 
L 5293 2432 
L 4474 2432 
C 4627 3110 4710 3930 4710 4768 
z
" transform="scale(0.015625)"/>
     </defs>
     <use xlink:href="#AppleSDGothicNeo-Regular-d615"/>
     <use xlink:href="#AppleSDGothicNeo-Regular-c2dd" transform="translate(86.499985 0)"/>
     <use xlink:href="#AppleSDGothicNeo-Regular-20" transform="translate(172.999969 0)"/>
     <use xlink:href="#AppleSDGothicNeo-Regular-bc14" transform="translate(199.299957 0)"/>
     <use xlink:href="#AppleSDGothicNeo-Regular-afb8" transform="translate(285.799942 0)"/>
     <use xlink:href="#AppleSDGothicNeo-Regular-ae30" transform="translate(372.299927 0)"/>
    </g>
   </g>
   <g id="text_8">
    <!-- '표로 정리해줘' -->
    <g style="fill: #666666" transform="translate(386.962195 151.408338) scale(0.09 -0.09)">
     <defs>
      <path id="AppleSDGothicNeo-Regular-d45c" d="M 5293 262 
L 5293 672 
L 3910 672 
L 3910 1862 
L 3424 1862 
L 3424 672 
L 2099 672 
L 2099 1862 
L 1613 1862 
L 1613 672 
L 243 672 
L 243 262 
L 5293 262 
z
M 4774 2150 
L 4774 2560 
L 3904 2560 
L 4096 3885 
L 3616 3962 
L 3450 2560 
L 2074 2560 
L 1971 3968 
L 1466 3917 
L 1613 2560 
L 736 2560 
L 736 2150 
L 4774 2150 
z
M 4781 4243 
L 4781 4653 
L 730 4653 
L 730 4243 
L 4781 4243 
z
" transform="scale(0.015625)"/>
      <path id="AppleSDGothicNeo-Regular-c815" d="M 4858 614 
C 4858 1274 4179 1683 2976 1683 
C 1779 1683 1107 1274 1107 614 
C 1107 -38 1779 -448 2976 -448 
C 4179 -448 4858 -38 4858 614 
z
M 390 4269 
L 1664 4269 
C 1664 4166 1664 4032 1658 3968 
C 1632 3174 922 2464 218 2195 
L 480 1805 
C 1082 2067 1754 2739 1907 3264 
C 2138 2758 2739 2234 3322 2003 
L 3610 2394 
C 2925 2598 2208 3206 2163 3968 
C 2157 4032 2157 4160 2157 4269 
L 3418 4269 
L 3418 4678 
L 390 4678 
L 390 4269 
z
M 2976 1274 
C 3853 1274 4358 1037 4358 614 
C 4358 198 3853 -38 2976 -38 
C 2118 -38 1600 198 1600 614 
C 1600 1037 2118 1274 2976 1274 
z
M 4326 3283 
L 4326 1670 
L 4813 1670 
L 4813 5146 
L 4326 5146 
L 4326 3693 
L 3200 3693 
L 3200 3283 
L 4326 3283 
z
" transform="scale(0.015625)"/>
      <path id="AppleSDGothicNeo-Regular-b9ac" d="M 4352 5146 
L 4352 -448 
L 4838 -448 
L 4838 5146 
L 4352 5146 
z
M 3840 1478 
C 3162 1357 2054 1306 1165 1306 
L 1030 1306 
L 1030 2643 
L 3155 2643 
L 3155 4627 
L 518 4627 
L 518 4224 
L 2662 4224 
L 2662 3046 
L 544 3046 
L 544 890 
L 1114 890 
C 2342 890 3302 986 3885 1075 
L 3840 1478 
z
" transform="scale(0.015625)"/>
     </defs>
     <use xlink:href="#AppleSDGothicNeo-Regular-27"/>
     <use xlink:href="#AppleSDGothicNeo-Regular-d45c" transform="translate(20.299988 0)"/>
     <use xlink:href="#AppleSDGothicNeo-Regular-b85c" transform="translate(106.799973 0)"/>
     <use xlink:href="#AppleSDGothicNeo-Regular-20" transform="translate(193.299957 0)"/>
     <use xlink:href="#AppleSDGothicNeo-Regular-c815" transform="translate(219.599945 0)"/>
     <use xlink:href="#AppleSDGothicNeo-Regular-b9ac" transform="translate(306.09993 0)"/>
     <use xlink:href="#AppleSDGothicNeo-Regular-d574" transform="translate(392.599915 0)"/>
     <use xlink:href="#AppleSDGothicNeo-Regular-c918" transform="translate(479.099899 0)"/>
     <use xlink:href="#AppleSDGothicNeo-Regular-27" transform="translate(565.599884 0)"/>
    </g>
   </g>
   <g id="text_9">
    <!-- 수준 조절 -->
    <g style="fill: #d04040" transform="translate(392.850945 197.396728) scale(0.11 -0.11)">
     <defs>
      <path id="AppleSDGothicNeo-Regular-c218" d="M 3002 -454 
L 3002 1574 
L 5293 1574 
L 5293 1984 
L 243 1984 
L 243 1574 
L 2515 1574 
L 2515 -454 
L 3002 -454 
z
M 5088 2995 
C 4102 3117 3027 3834 3027 4595 
L 3027 4954 
L 2515 4954 
L 2515 4595 
C 2515 3834 1530 3123 454 2982 
L 691 2566 
C 1542 2733 2496 3277 2765 3930 
C 3104 3277 4019 2752 4858 2579 
L 5088 2995 
z
" transform="scale(0.015625)"/>
      <path id="AppleSDGothicNeo-Regular-c900" d="M 5050 3091 
C 4211 3168 3072 3674 3027 4422 
L 4832 4422 
L 4832 4832 
L 691 4832 
L 691 4422 
L 2515 4422 
C 2470 3680 1440 3168 506 3085 
L 730 2675 
C 1715 2829 2547 3315 2765 3827 
C 3046 3322 3891 2835 4826 2675 
L 5050 3091 
z
M 3008 774 
L 3008 1882 
L 5293 1882 
L 5293 2285 
L 243 2285 
L 243 1882 
L 2522 1882 
L 2522 774 
L 3008 774 
z
M 4774 -275 
L 4774 134 
L 1350 134 
L 1350 1363 
L 864 1363 
L 864 -275 
L 4774 -275 
z
" transform="scale(0.015625)"/>
      <path id="AppleSDGothicNeo-Regular-c870" d="M 4870 4186 
L 4870 4576 
L 672 4576 
L 672 4186 
L 2515 4186 
L 2515 4070 
C 2515 3174 1331 2368 448 2214 
L 678 1805 
C 1606 2042 2534 2726 2765 3360 
C 3034 2746 3955 2048 4851 1792 
L 5101 2202 
C 4262 2368 3027 3187 3027 4070 
L 3027 4186 
L 4870 4186 
z
M 5293 262 
L 5293 672 
L 3002 672 
L 3002 2067 
L 2515 2067 
L 2515 672 
L 243 672 
L 243 262 
L 5293 262 
z
" transform="scale(0.015625)"/>
      <path id="AppleSDGothicNeo-Regular-c808" d="M 5024 -410 
L 5024 0 
L 1702 0 
L 1702 621 
L 4819 621 
L 4819 1971 
L 1197 1971 
L 1197 1562 
L 4333 1562 
L 4333 998 
L 1216 998 
L 1216 -410 
L 5024 -410 
z
M 352 4410 
L 1658 4410 
L 1658 4224 
C 1651 3482 915 2803 211 2534 
L 474 2163 
C 1075 2419 1754 2995 1907 3520 
C 2138 3014 2733 2534 3264 2317 
L 3533 2694 
C 2893 2906 2176 3501 2163 4218 
L 2157 4410 
L 3437 4410 
L 3437 4819 
L 352 4819 
L 352 4410 
z
M 4813 2266 
L 4813 5146 
L 4326 5146 
L 4326 3853 
L 3238 3853 
L 3238 3450 
L 4326 3450 
L 4326 2266 
L 4813 2266 
z
" transform="scale(0.015625)"/>
     </defs>
     <use xlink:href="#AppleSDGothicNeo-Regular-c218"/>
     <use xlink:href="#AppleSDGothicNeo-Regular-c900" transform="translate(86.499985 0)"/>
     <use xlink:href="#AppleSDGothicNeo-Regular-20" transform="translate(172.999969 0)"/>
     <use xlink:href="#AppleSDGothicNeo-Regular-c870" transform="translate(199.299957 0)"/>
     <use xlink:href="#AppleSDGothicNeo-Regular-c808" transform="translate(285.799942 0)"/>
    </g>
   </g>
   <g id="text_10">
    <!-- '쉽게 설명해줘' -->
    <g style="fill: #666666" transform="translate(386.962195 214.857803) scale(0.09 -0.09)">
     <defs>
      <path id="AppleSDGothicNeo-Regular-c27d" d="M 4826 -371 
L 4826 1606 
L 4346 1606 
L 4346 1043 
L 1581 1043 
L 1581 1594 
L 1101 1594 
L 1101 -371 
L 4826 -371 
z
M 3699 3514 
C 3072 3648 2298 4064 2298 4813 
L 2298 4973 
L 1811 4973 
L 1811 4800 
C 1811 4013 986 3494 378 3366 
L 646 3002 
C 1222 3162 1888 3635 2054 4077 
C 2291 3654 2944 3251 3456 3142 
L 3699 3514 
z
M 2317 1504 
L 2317 2291 
C 2925 2330 3635 2381 4000 2438 
L 3962 2810 
C 3552 2758 2758 2714 2029 2675 
C 1370 2650 704 2630 230 2630 
L 314 2214 
C 672 2221 1235 2240 1830 2266 
L 1830 1504 
L 2317 1504 
z
M 4346 32 
L 1581 32 
L 1581 640 
L 4346 640 
L 4346 32 
z
M 4826 1888 
L 4826 5146 
L 4339 5146 
L 4339 1888 
L 4826 1888 
z
" transform="scale(0.015625)"/>
      <path id="AppleSDGothicNeo-Regular-ac8c" d="M 4960 -448 
L 4960 5146 
L 4480 5146 
L 4480 -448 
L 4960 -448 
z
M 3872 -166 
L 3872 5011 
L 3405 5011 
L 3405 2970 
L 2464 2970 
L 2464 2560 
L 3405 2560 
L 3405 -166 
L 3872 -166 
z
M 2605 4493 
L 403 4493 
L 403 4083 
L 2106 4083 
C 2048 2944 1357 1766 186 1107 
L 518 749 
C 1837 1600 2566 2829 2605 4493 
z
" transform="scale(0.015625)"/>
     </defs>
     <use xlink:href="#AppleSDGothicNeo-Regular-27"/>
     <use xlink:href="#AppleSDGothicNeo-Regular-c27d" transform="translate(20.299988 0)"/>
     <use xlink:href="#AppleSDGothicNeo-Regular-ac8c" transform="translate(106.799973 0)"/>
     <use xlink:href="#AppleSDGothicNeo-Regular-20" transform="translate(193.299957 0)"/>
     <use xlink:href="#AppleSDGothicNeo-Regular-c124" transform="translate(219.599945 0)"/>
     <use xlink:href="#AppleSDGothicNeo-Regular-ba85" transform="translate(306.09993 0)"/>
     <use xlink:href="#AppleSDGothicNeo-Regular-d574" transform="translate(392.599915 0)"/>
     <use xlink:href="#AppleSDGothicNeo-Regular-c918" transform="translate(479.099899 0)"/>
     <use xlink:href="#AppleSDGothicNeo-Regular-27" transform="translate(565.599884 0)"/>
    </g>
   </g>
   <g id="text_11">
    <!-- 비판 요청 -->
    <g style="fill: #4080c0" transform="translate(392.850945 260.852209) scale(0.11 -0.11)">
     <defs>
      <path id="AppleSDGothicNeo-Regular-be44" d="M 4838 -448 
L 4838 5146 
L 4352 5146 
L 4352 -448 
L 4838 -448 
z
M 3187 941 
L 3187 4672 
L 2701 4672 
L 2701 3238 
L 1024 3238 
L 1024 4672 
L 544 4672 
L 544 941 
L 3187 941 
z
M 2701 1350 
L 1024 1350 
L 1024 2835 
L 2701 2835 
L 2701 1350 
z
" transform="scale(0.015625)"/>
      <path id="AppleSDGothicNeo-Regular-d310" d="M 3674 2317 
C 3482 2278 3130 2259 2739 2234 
L 2886 3872 
L 2413 3930 
L 2304 2214 
C 2202 2208 2093 2202 1997 2202 
L 1485 2182 
L 1350 3930 
L 858 3866 
L 1043 2176 
L 237 2176 
L 307 1747 
C 806 1747 1434 1766 2029 1798 
C 2637 1830 3296 1869 3706 1933 
L 3674 2317 
z
M 4538 5146 
L 4058 5146 
L 4058 1082 
L 4538 1082 
L 4538 3046 
L 5395 3046 
L 5395 3462 
L 4538 3462 
L 4538 5146 
z
M 4755 -256 
L 4755 147 
L 1517 147 
L 1517 1350 
L 1030 1350 
L 1030 -256 
L 4755 -256 
z
M 3366 4198 
L 3366 4602 
L 384 4602 
L 384 4198 
L 3366 4198 
z
" transform="scale(0.015625)"/>
      <path id="AppleSDGothicNeo-Regular-c694" d="M 4781 3322 
C 4781 4186 3981 4774 2758 4774 
C 1555 4774 749 4186 749 3322 
C 749 2458 1555 1882 2758 1882 
C 3974 1882 4781 2458 4781 3322 
z
M 4314 3322 
C 4314 2694 3693 2272 2758 2272 
C 1830 2272 1216 2694 1216 3322 
C 1216 3949 1830 4371 2758 4371 
C 3699 4371 4314 3949 4314 3322 
z
M 5293 262 
L 5293 672 
L 4026 672 
L 4026 1715 
L 3539 1728 
L 3539 672 
L 1978 672 
L 1978 1728 
L 1491 1715 
L 1491 672 
L 243 672 
L 243 262 
L 5293 262 
z
" transform="scale(0.015625)"/>
      <path id="AppleSDGothicNeo-Regular-ccad" d="M 4858 563 
C 4858 1203 4160 1600 2918 1600 
C 1677 1600 979 1203 979 563 
C 979 -64 1677 -461 2918 -461 
C 4160 -461 4858 -64 4858 563 
z
M 384 3680 
L 1651 3680 
C 1638 2976 966 2304 237 2086 
L 499 1715 
C 1146 1939 1728 2502 1907 3002 
C 2170 2496 2758 2029 3251 1875 
L 3501 2259 
C 2854 2413 2189 2989 2163 3680 
L 3398 3680 
L 3398 4077 
L 384 4077 
L 384 3680 
z
M 4358 563 
C 4358 166 3821 -64 2918 -64 
C 2022 -64 1478 166 1478 563 
C 1478 960 2022 1203 2918 1203 
C 3821 1203 4358 960 4358 563 
z
M 4813 5146 
L 4326 5146 
L 4326 3347 
L 3206 3347 
L 3206 2938 
L 4326 2938 
L 4326 1613 
L 4813 1613 
L 4813 5146 
z
M 1120 4602 
L 2694 4602 
L 2694 5024 
L 1120 5024 
L 1120 4602 
z
" transform="scale(0.015625)"/>
     </defs>
     <use xlink:href="#AppleSDGothicNeo-Regular-be44"/>
     <use xlink:href="#AppleSDGothicNeo-Regular-d310" transform="translate(86.499985 0)"/>
     <use xlink:href="#AppleSDGothicNeo-Regular-20" transform="translate(172.999969 0)"/>
     <use xlink:href="#AppleSDGothicNeo-Regular-c694" transform="translate(199.299957 0)"/>
     <use xlink:href="#AppleSDGothicNeo-Regular-ccad" transform="translate(285.799942 0)"/>
    </g>
   </g>
   <g id="text_12">
    <!-- '문제점을 지적해줘' -->
    <g style="fill: #666666" transform="translate(379.177195 278.307268) scale(0.09 -0.09)">
     <defs>
      <path id="AppleSDGothicNeo-Regular-c81c" d="M 3098 1229 
C 2406 1677 1882 2368 1882 3469 
L 1882 4083 
L 2957 4083 
L 2957 4486 
L 288 4486 
L 288 4083 
L 1402 4083 
L 1402 3456 
C 1402 2368 813 1485 154 1062 
L 480 723 
C 1024 1107 1530 1773 1645 2394 
C 1805 1805 2394 1152 2790 870 
L 3098 1229 
z
M 3853 -166 
L 3853 5011 
L 3373 5011 
L 3373 3091 
L 2477 3091 
L 2477 2688 
L 3373 2688 
L 3373 -166 
L 3853 -166 
z
M 4960 -448 
L 4960 5146 
L 4480 5146 
L 4480 -448 
L 4960 -448 
z
" transform="scale(0.015625)"/>
      <path id="AppleSDGothicNeo-Regular-c810" d="M 4819 -365 
L 4819 1574 
L 1229 1574 
L 1229 -365 
L 4819 -365 
z
M 371 4307 
L 1664 4307 
C 1664 4198 1664 4045 1658 3968 
C 1632 3174 922 2464 218 2195 
L 480 1805 
C 1082 2067 1754 2739 1907 3264 
C 2138 2758 2739 2208 3270 1990 
L 3546 2374 
C 2906 2586 2208 3206 2163 3968 
C 2157 4038 2157 4192 2157 4307 
L 3424 4307 
L 3424 4710 
L 371 4710 
L 371 4307 
z
M 4333 38 
L 1715 38 
L 1715 1178 
L 4333 1178 
L 4333 38 
z
M 4813 1882 
L 4813 5146 
L 4326 5146 
L 4326 3680 
L 3219 3680 
L 3219 3277 
L 4326 3277 
L 4326 1882 
L 4813 1882 
z
" transform="scale(0.015625)"/>
      <path id="AppleSDGothicNeo-Regular-c744" d="M 5293 2317 
L 5293 2726 
L 243 2726 
L 243 2317 
L 5293 2317 
z
M 4730 4096 
C 4730 4710 3987 5069 2771 5069 
C 1568 5069 826 4710 826 4096 
C 826 3482 1568 3130 2771 3130 
C 3987 3130 4730 3482 4730 4096 
z
M 2771 4672 
C 3661 4672 4237 4448 4237 4096 
C 4237 3750 3661 3533 2771 3533 
C 1894 3533 1325 3750 1325 4096 
C 1325 4448 1894 4672 2771 4672 
z
M 4845 -397 
L 4845 0 
L 1318 0 
L 1318 563 
L 4659 563 
L 4659 1818 
L 819 1818 
L 819 1427 
L 4173 1427 
L 4173 934 
L 832 934 
L 832 -397 
L 4845 -397 
z
" transform="scale(0.015625)"/>
      <path id="AppleSDGothicNeo-Regular-c9c0" d="M 3699 1248 
C 2931 1664 2221 2566 2221 3610 
L 2221 4179 
L 3526 4179 
L 3526 4582 
L 410 4582 
L 410 4179 
L 1715 4179 
L 1715 3603 
C 1715 2547 1043 1594 224 1114 
L 525 755 
C 1171 1171 1786 1888 1971 2586 
C 2163 1926 2874 1222 3398 883 
L 3699 1248 
z
M 4346 5146 
L 4346 -448 
L 4832 -448 
L 4832 5146 
L 4346 5146 
z
" transform="scale(0.015625)"/>
     </defs>
     <use xlink:href="#AppleSDGothicNeo-Regular-27"/>
     <use xlink:href="#AppleSDGothicNeo-Regular-bb38" transform="translate(20.299988 0)"/>
     <use xlink:href="#AppleSDGothicNeo-Regular-c81c" transform="translate(106.799973 0)"/>
     <use xlink:href="#AppleSDGothicNeo-Regular-c810" transform="translate(193.299957 0)"/>
     <use xlink:href="#AppleSDGothicNeo-Regular-c744" transform="translate(279.799942 0)"/>
     <use xlink:href="#AppleSDGothicNeo-Regular-20" transform="translate(366.299927 0)"/>
     <use xlink:href="#AppleSDGothicNeo-Regular-c9c0" transform="translate(392.599915 0)"/>
     <use xlink:href="#AppleSDGothicNeo-Regular-c801" transform="translate(479.099899 0)"/>
     <use xlink:href="#AppleSDGothicNeo-Regular-d574" transform="translate(565.599884 0)"/>
     <use xlink:href="#AppleSDGothicNeo-Regular-c918" transform="translate(652.099869 0)"/>
     <use xlink:href="#AppleSDGothicNeo-Regular-27" transform="translate(738.599854 0)"/>
    </g>
   </g>
   <g id="patch_9">
    <path d="M 178.478788 164.026414 
Q 178.478788 168.823102 178.478788 171.942739 
" style="fill: none; stroke: #bdbdbd; stroke-width: 1.5; stroke-linecap: round"/>
    <path d="M 180.478788 167.942739 
L 178.478788 171.942739 
L 176.478788 167.942739 
" style="fill: none; stroke: #bdbdbd; stroke-width: 1.5; stroke-linecap: round"/>
   </g>
   <g id="patch_10">
    <path d="M 178.478788 227.475879 
Q 178.478788 232.272567 178.478788 235.392203 
" style="fill: none; stroke: #bdbdbd; stroke-width: 1.5; stroke-linecap: round"/>
    <path d="M 180.478788 231.392203 
L 178.478788 235.392203 
L 176.478788 231.392203 
" style="fill: none; stroke: #bdbdbd; stroke-width: 1.5; stroke-linecap: round"/>
   </g>
   <g id="text_13">
    <!-- 단계적 심화 -->
    <g style="fill: #4080c0" transform="translate(150.950975 98.016364) scale(0.12 -0.12)">
     <defs>
      <path id="AppleSDGothicNeo-Regular-b2e8" d="M 5389 3117 
L 5389 3526 
L 4538 3526 
L 4538 5146 
L 4051 5146 
L 4051 1088 
L 4538 1088 
L 4538 3117 
L 5389 3117 
z
M 4755 -256 
L 4755 147 
L 1555 147 
L 1555 1453 
L 1062 1453 
L 1062 -256 
L 4755 -256 
z
M 922 2400 
L 922 4237 
L 3002 4237 
L 3002 4646 
L 435 4646 
L 435 1997 
L 890 1997 
C 1856 1997 2918 2080 3539 2189 
L 3494 2586 
C 2957 2477 1971 2400 1197 2400 
L 922 2400 
z
" transform="scale(0.015625)"/>
      <path id="AppleSDGothicNeo-Regular-acc4" d="M 3898 -166 
L 3898 5011 
L 3424 5011 
L 3424 3610 
L 2598 3610 
L 2598 3200 
L 3424 3200 
L 3424 2176 
L 2470 2176 
L 2470 1773 
L 3424 1773 
L 3424 -166 
L 3898 -166 
z
M 4960 -448 
L 4960 5146 
L 4480 5146 
L 4480 -448 
L 4960 -448 
z
M 2534 4448 
L 416 4448 
L 416 4038 
L 2048 4038 
C 1971 2874 1370 1747 205 1114 
L 525 749 
C 1818 1574 2496 2739 2534 4448 
z
" transform="scale(0.015625)"/>
      <path id="AppleSDGothicNeo-Regular-c2ec" d="M 4832 1965 
L 4832 5146 
L 4346 5146 
L 4346 1965 
L 4832 1965 
z
M 3571 2560 
C 2938 2784 2182 3475 2182 4371 
L 2182 4883 
L 1690 4883 
L 1690 4352 
C 1690 3462 1056 2752 275 2394 
L 576 2016 
C 1280 2400 1779 2918 1952 3494 
C 2170 2931 2752 2432 3283 2170 
L 3571 2560 
z
M 4838 -371 
L 4838 1626 
L 1152 1626 
L 1152 -371 
L 4838 -371 
z
M 4352 32 
L 1645 32 
L 1645 1222 
L 4352 1222 
L 4352 32 
z
" transform="scale(0.015625)"/>
     </defs>
     <use xlink:href="#AppleSDGothicNeo-Regular-b2e8"/>
     <use xlink:href="#AppleSDGothicNeo-Regular-acc4" transform="translate(86.499985 0)"/>
     <use xlink:href="#AppleSDGothicNeo-Regular-c801" transform="translate(172.999969 0)"/>
     <use xlink:href="#AppleSDGothicNeo-Regular-20" transform="translate(259.499954 0)"/>
     <use xlink:href="#AppleSDGothicNeo-Regular-c2ec" transform="translate(285.799942 0)"/>
     <use xlink:href="#AppleSDGothicNeo-Regular-d654" transform="translate(372.299927 0)"/>
    </g>
   </g>
   <g id="text_14">
    <!-- 전략적 변환 -->
    <g style="fill: #e07050" transform="translate(385.79946 98.027614) scale(0.12 -0.12)">
     <defs>
      <path id="AppleSDGothicNeo-Regular-c804" d="M 403 4243 
L 1664 4243 
C 1664 3994 1664 3872 1658 3795 
C 1632 3059 928 2349 224 2074 
L 506 1696 
C 1107 1958 1754 2566 1907 3085 
C 2138 2579 2733 2048 3264 1830 
L 3539 2221 
C 2899 2432 2208 3072 2163 3789 
C 2157 3872 2157 3987 2157 4243 
L 3411 4243 
L 3411 4653 
L 403 4653 
L 403 4243 
z
M 4813 1050 
L 4813 5146 
L 4326 5146 
L 4326 3590 
L 3213 3590 
L 3213 3181 
L 4326 3181 
L 4326 1050 
L 4813 1050 
z
M 4934 -262 
L 4934 147 
L 1651 147 
L 1651 1459 
L 1165 1459 
L 1165 -262 
L 4934 -262 
z
" transform="scale(0.015625)"/>
      <path id="AppleSDGothicNeo-Regular-b7b5" d="M 3546 2566 
C 2886 2438 1658 2394 1011 2394 
L 941 2394 
L 941 3245 
L 2970 3245 
L 2970 4800 
L 435 4800 
L 435 4397 
L 2483 4397 
L 2483 3642 
L 448 3642 
L 448 1984 
L 979 1984 
C 1760 1984 3008 2067 3584 2170 
L 3546 2566 
z
M 5389 3072 
L 4538 3072 
L 4538 3814 
L 5389 3814 
L 5389 4224 
L 4538 4224 
L 4538 5146 
L 4051 5146 
L 4051 1696 
L 4538 1696 
L 4538 2669 
L 5389 2669 
L 5389 3072 
z
M 890 1408 
L 890 1005 
L 4058 1005 
L 4058 -448 
L 4544 -448 
L 4544 1408 
L 890 1408 
z
" transform="scale(0.015625)"/>
      <path id="AppleSDGothicNeo-Regular-bcc0" d="M 4813 5146 
L 4326 5146 
L 4326 4211 
L 3258 4211 
L 3258 3802 
L 4326 3802 
L 4326 2970 
L 3258 2970 
L 3258 2566 
L 4326 2566 
L 4326 1018 
L 4813 1018 
L 4813 5146 
z
M 4954 -262 
L 4954 147 
L 1696 147 
L 1696 1434 
L 1210 1434 
L 1210 -262 
L 4954 -262 
z
M 2950 1946 
L 2950 4774 
L 2458 4774 
L 2458 3750 
L 979 3750 
L 979 4774 
L 493 4774 
L 493 1946 
L 2950 1946 
z
M 2458 2349 
L 979 2349 
L 979 3347 
L 2458 3347 
L 2458 2349 
z
" transform="scale(0.015625)"/>
      <path id="AppleSDGothicNeo-Regular-d658" d="M 3757 1466 
L 3731 1843 
C 3398 1792 2784 1741 2195 1702 
L 2195 2067 
C 2810 2118 3290 2368 3290 2861 
C 3290 3411 2688 3674 1965 3674 
C 1254 3674 653 3405 653 2854 
C 653 2374 1107 2125 1702 2067 
L 1702 1677 
C 1139 1658 576 1658 166 1658 
L 250 1248 
C 640 1248 1338 1267 1965 1306 
C 2630 1350 3354 1414 3757 1466 
z
M 5434 2733 
L 5434 3142 
L 4557 3142 
L 4557 5158 
L 4064 5158 
L 4064 794 
L 4557 794 
L 4557 2733 
L 5434 2733 
z
M 4698 -352 
L 4698 51 
L 1498 51 
L 1498 1037 
L 1011 1037 
L 1011 -352 
L 4698 -352 
z
M 3571 3859 
L 3571 4256 
L 320 4256 
L 320 3859 
L 3571 3859 
z
M 2835 2861 
C 2835 2579 2458 2438 1965 2438 
C 1478 2438 1114 2573 1114 2861 
C 1114 3149 1478 3283 1965 3283 
C 2458 3283 2835 3149 2835 2861 
z
M 2752 4595 
L 2752 5005 
L 1210 5005 
L 1210 4595 
L 2752 4595 
z
" transform="scale(0.015625)"/>
     </defs>
     <use xlink:href="#AppleSDGothicNeo-Regular-c804"/>
     <use xlink:href="#AppleSDGothicNeo-Regular-b7b5" transform="translate(86.499985 0)"/>
     <use xlink:href="#AppleSDGothicNeo-Regular-c801" transform="translate(172.999969 0)"/>
     <use xlink:href="#AppleSDGothicNeo-Regular-20" transform="translate(259.499954 0)"/>
     <use xlink:href="#AppleSDGothicNeo-Regular-bcc0" transform="translate(285.799942 0)"/>
     <use xlink:href="#AppleSDGothicNeo-Regular-d658" transform="translate(372.299927 0)"/>
    </g>
   </g>
   <g id="text_15">
    <!-- 멀티턴 대화 전략 -->
    <g style="fill: #333333" transform="translate(254.533438 32.35375) scale(0.14 -0.14)">
     <defs>
      <path id="AppleSDGothicNeo-Regular-ba40" d="M 4326 3533 
L 4326 2266 
L 4813 2266 
L 4813 5146 
L 4326 5146 
L 4326 3942 
L 3360 3942 
L 3360 3533 
L 4326 3533 
z
M 5024 -410 
L 5024 -6 
L 1722 -6 
L 1722 627 
L 4819 627 
L 4819 1971 
L 1210 1971 
L 1210 1568 
L 4333 1568 
L 4333 1005 
L 1235 1005 
L 1235 -410 
L 5024 -410 
z
M 3078 2554 
L 3078 4864 
L 493 4864 
L 493 2554 
L 3078 2554 
z
M 2592 2957 
L 979 2957 
L 979 4461 
L 2592 4461 
L 2592 2957 
z
" transform="scale(0.015625)"/>
      <path id="AppleSDGothicNeo-Regular-d2f0" d="M 3718 1504 
C 3162 1389 1926 1299 1050 1325 
L 1050 2643 
L 3059 2643 
L 3059 3040 
L 1050 3040 
L 1050 4211 
L 3162 4211 
L 3162 4614 
L 557 4614 
L 557 902 
L 1043 902 
C 1933 902 3162 986 3770 1101 
L 3718 1504 
z
M 4832 -448 
L 4832 5146 
L 4346 5146 
L 4346 -448 
L 4832 -448 
z
" transform="scale(0.015625)"/>
      <path id="AppleSDGothicNeo-Regular-d134" d="M 4813 1062 
L 4813 5146 
L 4326 5146 
L 4326 3565 
L 3315 3565 
L 3315 3155 
L 4326 3155 
L 4326 1062 
L 4813 1062 
z
M 4966 -262 
L 4966 147 
L 1715 147 
L 1715 1402 
L 1229 1402 
L 1229 -262 
L 4966 -262 
z
M 960 2189 
L 960 3130 
L 2925 3130 
L 2925 3526 
L 960 3526 
L 960 4301 
L 3014 4301 
L 3014 4704 
L 480 4704 
L 480 1779 
L 986 1779 
C 1971 1786 2739 1818 3373 1939 
L 3309 2336 
C 2752 2221 1997 2189 1338 2189 
L 960 2189 
z
" transform="scale(0.015625)"/>
      <path id="AppleSDGothicNeo-Regular-b300" d="M 4960 -448 
L 4960 5146 
L 4480 5146 
L 4480 2944 
L 3731 2944 
L 3731 5011 
L 3258 5011 
L 3258 -160 
L 3731 -160 
L 3731 2534 
L 4480 2534 
L 4480 -448 
L 4960 -448 
z
M 902 1414 
L 902 4051 
L 2586 4051 
L 2586 4461 
L 416 4461 
L 416 992 
L 787 992 
C 1517 992 2458 1056 2989 1158 
L 2944 1555 
C 2470 1453 1632 1414 1069 1414 
L 902 1414 
z
" transform="scale(0.015625)"/>
     </defs>
     <use xlink:href="#AppleSDGothicNeo-Regular-ba40"/>
     <use xlink:href="#AppleSDGothicNeo-Regular-d2f0" transform="translate(86.499985 0)"/>
     <use xlink:href="#AppleSDGothicNeo-Regular-d134" transform="translate(172.999969 0)"/>
     <use xlink:href="#AppleSDGothicNeo-Regular-20" transform="translate(259.499954 0)"/>
     <use xlink:href="#AppleSDGothicNeo-Regular-b300" transform="translate(285.799942 0)"/>
     <use xlink:href="#AppleSDGothicNeo-Regular-d654" transform="translate(372.299927 0)"/>
     <use xlink:href="#AppleSDGothicNeo-Regular-20" transform="translate(458.799911 0)"/>
     <use xlink:href="#AppleSDGothicNeo-Regular-c804" transform="translate(485.099899 0)"/>
     <use xlink:href="#AppleSDGothicNeo-Regular-b7b5" transform="translate(571.599884 0)"/>
    </g>
   </g>
  </g>
 </g>
 <defs>
  <clipPath id="pd3052e2dab">
   <rect x="21.6" y="50.35375" width="558" height="304.92"/>
  </clipPath>
 </defs>
</svg>
