<?xml version="1.0" encoding="utf-8" standalone="no"?>
<!DOCTYPE svg PUBLIC "-//W3C//DTD SVG 1.1//EN"
  "http://www.w3.org/Graphics/SVG/1.1/DTD/svg11.dtd">
<svg xmlns:xlink="http://www.w3.org/1999/xlink" width="545.4pt" height="432.31375pt" viewBox="0 0 545.4 432.31375" xmlns="http://www.w3.org/2000/svg" version="1.1">
 <metadata>
  <rdf:RDF xmlns:dc="http://purl.org/dc/elements/1.1/" xmlns:cc="http://creativecommons.org/ns#" xmlns:rdf="http://www.w3.org/1999/02/22-rdf-syntax-ns#">
   <cc:Work>
    <dc:type rdf:resource="http://purl.org/dc/dcmitype/StillImage"/>
    <dc:date>2026-02-18T23:39:37.882237</dc:date>
    <dc:format>image/svg+xml</dc:format>
    <dc:creator>
     <cc:Agent>
      <dc:title>Matplotlib v3.10.8, https://matplotlib.org/</dc:title>
     </cc:Agent>
    </dc:creator>
   </cc:Work>
  </rdf:RDF>
 </metadata>
 <defs>
  <style type="text/css">*{stroke-linejoin: round; stroke-linecap: butt}</style>
 </defs>
 <g id="figure_1">
  <g id="patch_1">
   <path d="M 0 432.31375 
L 545.4 432.31375 
L 545.4 0 
L 0 0 
z
" style="fill: #ffffff"/>
  </g>
  <g id="axes_1">
   <g id="patch_2">
    <path d="M 33.013636 407.022436 
L 512.386364 407.022436 
Q 525.94712 407.022436 525.94712 393.31706 
L 525.94712 67.75044 
Q 525.94712 54.045064 512.386364 54.045064 
L 33.013636 54.045064 
Q 19.45288 54.045064 19.45288 67.75044 
L 19.45288 393.31706 
Q 19.45288 407.022436 33.013636 407.022436 
z
" clip-path="url(#p536f5ed79c)" style="fill: #eef3fa; stroke: #e0e0e0; stroke-width: 0.8; stroke-linejoin: miter"/>
   </g>
   <g id="patch_3">
    <path d="M 80.589289 189.417624 
L 252.358866 189.417624 
Q 261.39937 189.417624 261.39937 180.280707 
L 261.39937 88.911539 
Q 261.39937 79.774622 252.358866 79.774622 
L 80.589289 79.774622 
Q 71.548785 79.774622 71.548785 88.911539 
L 71.548785 180.280707 
Q 71.548785 189.417624 80.589289 189.417624 
z
" clip-path="url(#p536f5ed79c)" style="fill: #ffffff; stroke: #4080c0; stroke-width: 1.5; stroke-linejoin: miter"/>
   </g>
   <g id="patch_4">
    <path d="M 284.00063 189.417624 
L 455.770207 189.417624 
Q 464.810711 189.417624 464.810711 180.280707 
L 464.810711 88.911539 
Q 464.810711 79.774622 455.770207 79.774622 
L 284.00063 79.774622 
Q 274.960126 79.774622 274.960126 88.911539 
L 274.960126 180.280707 
Q 274.960126 189.417624 284.00063 189.417624 
z
" clip-path="url(#p536f5ed79c)" style="fill: #ffffff; stroke: #9060b0; stroke-width: 1.5; stroke-linejoin: miter"/>
   </g>
   <g id="patch_5">
    <path d="M 80.589289 312.766002 
L 252.358866 312.766002 
Q 261.39937 312.766002 261.39937 303.629085 
L 261.39937 212.259916 
Q 261.39937 203.122999 252.358866 203.122999 
L 80.589289 203.122999 
Q 71.548785 203.122999 71.548785 212.259916 
L 71.548785 303.629085 
Q 71.548785 312.766002 80.589289 312.766002 
z
" clip-path="url(#p536f5ed79c)" style="fill: #ffffff; stroke: #558838; stroke-width: 1.5; stroke-linejoin: miter"/>
   </g>
   <g id="patch_6">
    <path d="M 284.00063 312.766002 
L 455.770207 312.766002 
Q 464.810711 312.766002 464.810711 303.629085 
L 464.810711 212.259916 
Q 464.810711 203.122999 455.770207 203.122999 
L 284.00063 203.122999 
Q 274.960126 203.122999 274.960126 212.259916 
L 274.960126 303.629085 
Q 274.960126 312.766002 284.00063 312.766002 
z
" clip-path="url(#p536f5ed79c)" style="fill: #ffffff; stroke: #e07050; stroke-width: 1.5; stroke-linejoin: miter"/>
   </g>
   <g id="text_1">
    <!-- 01 구체적으로 -->
    <g style="fill: #4080c0" transform="translate(133.024077 115.726956) scale(0.12 -0.12)">
     <defs>
      <path id="AppleSDGothicNeo-Regular-30" d="M 2022 192 
C 2893 192 3558 787 3558 2240 
L 3558 2630 
C 3558 4122 2867 4634 2029 4634 
C 1184 4634 448 4122 448 2605 
L 448 2246 
C 448 794 1139 192 2022 192 
z
M 2022 614 
C 1350 614 992 1126 992 2195 
L 992 2669 
C 992 3744 1357 4211 2029 4211 
C 2688 4211 3040 3718 3040 2637 
L 3040 2163 
C 3040 1062 2682 614 2022 614 
z
" transform="scale(0.015625)"/>
      <path id="AppleSDGothicNeo-Regular-31" d="M 1146 243 
L 1632 243 
L 1632 4634 
L 1363 4634 
L 352 4160 
L 352 3866 
L 1146 4051 
L 1146 243 
z
" transform="scale(0.015625)"/>
      <path id="AppleSDGothicNeo-Regular-20" transform="scale(0.015625)"/>
      <path id="AppleSDGothicNeo-Regular-ad6c" d="M 4634 4730 
L 838 4730 
L 838 4326 
L 4128 4326 
C 4128 3776 4096 2854 3942 2253 
L 243 2253 
L 243 1843 
L 2522 1843 
L 2522 -448 
L 3008 -448 
L 3008 1843 
L 5293 1843 
L 5293 2253 
L 4429 2253 
C 4614 3117 4634 3968 4634 4730 
z
" transform="scale(0.015625)"/>
      <path id="AppleSDGothicNeo-Regular-ccb4" d="M 2938 3322 
L 2938 3731 
L 282 3731 
L 282 3322 
L 1357 3322 
L 1357 3123 
C 1357 2080 813 1382 173 992 
L 448 659 
C 979 986 1478 1587 1606 2176 
C 1766 1594 2291 1062 2752 806 
L 3040 1165 
C 2470 1459 1856 2086 1856 3136 
L 1856 3322 
L 2938 3322 
z
M 3386 2317 
L 3386 -166 
L 3859 -166 
L 3859 5011 
L 3386 5011 
L 3386 2720 
L 2496 2720 
L 2496 2317 
L 3386 2317 
z
M 4986 -448 
L 4986 5146 
L 4506 5146 
L 4506 -448 
L 4986 -448 
z
M 877 4269 
L 2355 4269 
L 2355 4704 
L 877 4704 
L 877 4269 
z
" transform="scale(0.015625)"/>
      <path id="AppleSDGothicNeo-Regular-c801" d="M 390 4301 
L 1664 4301 
C 1664 4192 1664 4038 1658 3968 
C 1632 3174 922 2464 218 2195 
L 480 1805 
C 1082 2067 1754 2739 1907 3264 
C 2138 2758 2720 2202 3258 1984 
L 3526 2374 
C 2886 2586 2208 3206 2163 3968 
C 2157 4038 2157 4186 2157 4301 
L 3405 4301 
L 3405 4710 
L 390 4710 
L 390 4301 
z
M 1088 1517 
L 1088 1114 
L 4326 1114 
L 4326 -448 
L 4819 -448 
L 4819 1517 
L 1088 1517 
z
M 4813 1811 
L 4813 5146 
L 4326 5146 
L 4326 3654 
L 3206 3654 
L 3206 3251 
L 4326 3251 
L 4326 1811 
L 4813 1811 
z
" transform="scale(0.015625)"/>
      <path id="AppleSDGothicNeo-Regular-c73c" d="M 5293 320 
L 5293 730 
L 243 730 
L 243 320 
L 5293 320 
z
M 4800 3245 
C 4800 4096 3994 4659 2758 4659 
C 1542 4659 730 4096 730 3245 
C 730 2387 1542 1830 2758 1830 
C 3987 1830 4800 2387 4800 3245 
z
M 4314 3238 
C 4314 2643 3693 2246 2758 2246 
C 1830 2246 1216 2643 1216 3238 
C 1216 3846 1830 4250 2758 4250 
C 3699 4250 4314 3846 4314 3238 
z
" transform="scale(0.015625)"/>
      <path id="AppleSDGothicNeo-Regular-b85c" d="M 5293 262 
L 5293 672 
L 3002 672 
L 3002 1626 
L 4826 1626 
L 4826 2035 
L 1350 2035 
L 1350 2970 
L 4666 2970 
L 4666 4678 
L 858 4678 
L 858 4269 
L 4179 4269 
L 4179 3373 
L 864 3373 
L 864 1626 
L 2515 1626 
L 2515 672 
L 243 672 
L 243 262 
L 5293 262 
z
" transform="scale(0.015625)"/>
     </defs>
     <use xlink:href="#AppleSDGothicNeo-Regular-30"/>
     <use xlink:href="#AppleSDGothicNeo-Regular-31" transform="translate(62.999985 0)"/>
     <use xlink:href="#AppleSDGothicNeo-Regular-20" transform="translate(98.699982 0)"/>
     <use xlink:href="#AppleSDGothicNeo-Regular-ad6c" transform="translate(124.999969 0)"/>
     <use xlink:href="#AppleSDGothicNeo-Regular-ccb4" transform="translate(211.499954 0)"/>
     <use xlink:href="#AppleSDGothicNeo-Regular-c801" transform="translate(297.999939 0)"/>
     <use xlink:href="#AppleSDGothicNeo-Regular-c73c" transform="translate(384.499924 0)"/>
     <use xlink:href="#AppleSDGothicNeo-Regular-b85c" transform="translate(470.999908 0)"/>
    </g>
   </g>
   <g id="text_2">
    <!-- 원하는 것을 -->
    <g style="fill: #666666" transform="translate(143.534234 151.006832) scale(0.1 -0.1)">
     <defs>
      <path id="AppleSDGothicNeo-Regular-c6d0" d="M 3501 3846 
C 3501 4480 2880 4883 2016 4883 
C 1152 4883 518 4480 518 3853 
C 518 3200 1152 2822 2016 2822 
C 2880 2822 3501 3206 3501 3846 
z
M 4838 845 
L 4838 5146 
L 4352 5146 
L 4352 1837 
L 3174 1837 
L 3174 1453 
L 4352 1453 
L 4352 845 
L 4838 845 
z
M 4954 -314 
L 4954 96 
L 1440 96 
L 1440 1306 
L 954 1306 
L 954 -314 
L 4954 -314 
z
M 3021 3846 
C 3021 3469 2618 3219 2016 3219 
C 1414 3219 1005 3469 1005 3846 
C 1005 4230 1414 4480 2016 4480 
C 2618 4480 3021 4224 3021 3846 
z
M 2298 1069 
L 2298 2118 
C 2886 2157 3507 2195 3859 2246 
L 3821 2624 
C 3277 2566 2669 2509 2048 2483 
C 1440 2464 755 2458 179 2464 
L 256 2048 
C 723 2048 1280 2067 1811 2086 
L 1811 1069 
L 2298 1069 
z
" transform="scale(0.015625)"/>
      <path id="AppleSDGothicNeo-Regular-d558" d="M 5453 2374 
L 5453 2784 
L 4544 2784 
L 4544 5146 
L 4058 5146 
L 4058 -448 
L 4544 -448 
L 4544 2374 
L 5453 2374 
z
M 2694 4346 
L 2694 4762 
L 1050 4762 
L 1050 4346 
L 2694 4346 
z
M 3520 3398 
L 3520 3802 
L 218 3802 
L 218 3398 
L 3520 3398 
z
M 3187 1882 
C 3187 2541 2662 3040 1882 3040 
C 1101 3040 576 2534 576 1882 
C 576 1229 1101 730 1882 730 
C 2662 730 3187 1235 3187 1882 
z
M 2701 1882 
C 2701 1446 2362 1133 1882 1133 
C 1414 1133 1062 1446 1062 1882 
C 1062 2323 1414 2630 1882 2630 
C 2355 2630 2701 2323 2701 1882 
z
" transform="scale(0.015625)"/>
      <path id="AppleSDGothicNeo-Regular-b294" d="M 5293 1850 
L 5293 2259 
L 243 2259 
L 243 1850 
L 5293 1850 
z
M 4755 -326 
L 4755 77 
L 1389 77 
L 1389 1325 
L 902 1325 
L 902 -326 
L 4755 -326 
z
M 4730 2957 
L 4730 3360 
L 1408 3360 
L 1408 4909 
L 922 4909 
L 922 2957 
L 4730 2957 
z
" transform="scale(0.015625)"/>
      <path id="AppleSDGothicNeo-Regular-ac83" d="M 4326 3200 
L 4326 1389 
L 4813 1389 
L 4813 5146 
L 4326 5146 
L 4326 3616 
L 3098 3616 
L 3098 3200 
L 4326 3200 
z
M 5190 -32 
C 4307 96 3302 774 3302 1574 
L 3302 1888 
L 2790 1888 
L 2790 1574 
C 2790 762 1741 64 845 -45 
L 1069 -442 
C 1914 -282 2822 320 3040 902 
C 3315 294 4173 -282 4973 -416 
L 5190 -32 
z
M 531 4672 
L 531 4262 
L 2541 4262 
C 2413 3251 1517 2400 288 2080 
L 544 1670 
C 1984 2170 2995 3136 3078 4672 
L 531 4672 
z
" transform="scale(0.015625)"/>
      <path id="AppleSDGothicNeo-Regular-c744" d="M 5293 2317 
L 5293 2726 
L 243 2726 
L 243 2317 
L 5293 2317 
z
M 4730 4096 
C 4730 4710 3987 5069 2771 5069 
C 1568 5069 826 4710 826 4096 
C 826 3482 1568 3130 2771 3130 
C 3987 3130 4730 3482 4730 4096 
z
M 2771 4672 
C 3661 4672 4237 4448 4237 4096 
C 4237 3750 3661 3533 2771 3533 
C 1894 3533 1325 3750 1325 4096 
C 1325 4448 1894 4672 2771 4672 
z
M 4845 -397 
L 4845 0 
L 1318 0 
L 1318 563 
L 4659 563 
L 4659 1818 
L 819 1818 
L 819 1427 
L 4173 1427 
L 4173 934 
L 832 934 
L 832 -397 
L 4845 -397 
z
" transform="scale(0.015625)"/>
     </defs>
     <use xlink:href="#AppleSDGothicNeo-Regular-c6d0"/>
     <use xlink:href="#AppleSDGothicNeo-Regular-d558" transform="translate(86.499985 0)"/>
     <use xlink:href="#AppleSDGothicNeo-Regular-b294" transform="translate(172.999969 0)"/>
     <use xlink:href="#AppleSDGothicNeo-Regular-20" transform="translate(259.499954 0)"/>
     <use xlink:href="#AppleSDGothicNeo-Regular-ac83" transform="translate(285.799942 0)"/>
     <use xlink:href="#AppleSDGothicNeo-Regular-c744" transform="translate(372.299927 0)"/>
    </g>
    <!-- 정확히 표현 -->
    <g style="fill: #666666" transform="translate(143.534234 161.354957) scale(0.1 -0.1)">
     <defs>
      <path id="AppleSDGothicNeo-Regular-c815" d="M 4858 614 
C 4858 1274 4179 1683 2976 1683 
C 1779 1683 1107 1274 1107 614 
C 1107 -38 1779 -448 2976 -448 
C 4179 -448 4858 -38 4858 614 
z
M 390 4269 
L 1664 4269 
C 1664 4166 1664 4032 1658 3968 
C 1632 3174 922 2464 218 2195 
L 480 1805 
C 1082 2067 1754 2739 1907 3264 
C 2138 2758 2739 2234 3322 2003 
L 3610 2394 
C 2925 2598 2208 3206 2163 3968 
C 2157 4032 2157 4160 2157 4269 
L 3418 4269 
L 3418 4678 
L 390 4678 
L 390 4269 
z
M 2976 1274 
C 3853 1274 4358 1037 4358 614 
C 4358 198 3853 -38 2976 -38 
C 2118 -38 1600 198 1600 614 
C 1600 1037 2118 1274 2976 1274 
z
M 4326 3283 
L 4326 1670 
L 4813 1670 
L 4813 5146 
L 4326 5146 
L 4326 3693 
L 3200 3693 
L 3200 3283 
L 4326 3283 
z
" transform="scale(0.015625)"/>
      <path id="AppleSDGothicNeo-Regular-d655" d="M 3750 1690 
L 3706 2067 
C 3379 2016 2771 1965 2182 1939 
L 2182 2291 
C 2784 2342 3251 2579 3251 3034 
C 3251 3552 2656 3782 1946 3782 
C 1235 3782 653 3546 653 3027 
C 653 2573 1101 2349 1690 2291 
L 1690 1914 
C 1120 1888 550 1875 147 1875 
L 224 1472 
C 614 1472 1382 1504 2016 1542 
C 2675 1574 3347 1645 3750 1690 
z
M 5402 2880 
L 5402 3290 
L 4557 3290 
L 4557 5146 
L 4064 5146 
L 4064 1427 
L 4557 1427 
L 4557 2880 
L 5402 2880 
z
M 890 1133 
L 890 730 
L 4064 730 
L 4064 -486 
L 4557 -486 
L 4557 1133 
L 890 1133 
z
M 3558 3968 
L 3558 4365 
L 346 4365 
L 346 3968 
L 3558 3968 
z
M 2784 3034 
C 2784 2771 2413 2643 1946 2643 
C 1472 2643 1114 2765 1114 3034 
C 1114 3290 1466 3418 1946 3418 
C 2413 3418 2784 3290 2784 3034 
z
M 2720 4672 
L 2720 5075 
L 1184 5075 
L 1184 4672 
L 2720 4672 
z
" transform="scale(0.015625)"/>
      <path id="AppleSDGothicNeo-Regular-d788" d="M 4845 -448 
L 4845 5146 
L 4358 5146 
L 4358 -448 
L 4845 -448 
z
M 2810 4365 
L 2810 4774 
L 1178 4774 
L 1178 4365 
L 2810 4365 
z
M 3674 3398 
L 3674 3802 
L 352 3802 
L 352 3398 
L 3674 3398 
z
M 3341 1882 
C 3341 2541 2816 3040 2035 3040 
C 1254 3040 730 2534 730 1882 
C 730 1229 1254 730 2035 730 
C 2816 730 3341 1235 3341 1882 
z
M 2854 1882 
C 2854 1440 2522 1126 2035 1126 
C 1555 1126 1210 1440 1210 1882 
C 1210 2330 1555 2637 2035 2637 
C 2509 2637 2854 2330 2854 1882 
z
" transform="scale(0.015625)"/>
      <path id="AppleSDGothicNeo-Regular-d45c" d="M 5293 262 
L 5293 672 
L 3910 672 
L 3910 1862 
L 3424 1862 
L 3424 672 
L 2099 672 
L 2099 1862 
L 1613 1862 
L 1613 672 
L 243 672 
L 243 262 
L 5293 262 
z
M 4774 2150 
L 4774 2560 
L 3904 2560 
L 4096 3885 
L 3616 3962 
L 3450 2560 
L 2074 2560 
L 1971 3968 
L 1466 3917 
L 1613 2560 
L 736 2560 
L 736 2150 
L 4774 2150 
z
M 4781 4243 
L 4781 4653 
L 730 4653 
L 730 4243 
L 4781 4243 
z
" transform="scale(0.015625)"/>
      <path id="AppleSDGothicNeo-Regular-d604" d="M 4934 -262 
L 4934 141 
L 1664 141 
L 1664 1210 
L 1178 1210 
L 1178 -262 
L 4934 -262 
z
M 3392 3110 
L 4326 3110 
L 4326 2394 
L 3392 2394 
L 3392 1997 
L 4326 1997 
L 4326 947 
L 4813 947 
L 4813 5146 
L 4326 5146 
L 4326 3507 
L 3392 3507 
L 3392 3110 
z
M 2669 4518 
L 2669 4954 
L 1056 4954 
L 1056 4518 
L 2669 4518 
z
M 3450 3686 
L 3450 4083 
L 262 4083 
L 262 3686 
L 3450 3686 
z
M 3213 2445 
C 3213 3040 2643 3411 1882 3411 
C 1126 3411 550 3040 550 2445 
C 550 1862 1133 1472 1882 1472 
C 2643 1472 3213 1862 3213 2445 
z
M 2739 2445 
C 2739 2093 2355 1869 1882 1869 
C 1408 1869 1030 2093 1030 2445 
C 1030 2797 1408 3021 1882 3021 
C 2355 3021 2739 2797 2739 2445 
z
" transform="scale(0.015625)"/>
     </defs>
     <use xlink:href="#AppleSDGothicNeo-Regular-c815"/>
     <use xlink:href="#AppleSDGothicNeo-Regular-d655" transform="translate(86.499985 0)"/>
     <use xlink:href="#AppleSDGothicNeo-Regular-d788" transform="translate(172.999969 0)"/>
     <use xlink:href="#AppleSDGothicNeo-Regular-20" transform="translate(259.499954 0)"/>
     <use xlink:href="#AppleSDGothicNeo-Regular-d45c" transform="translate(285.799942 0)"/>
     <use xlink:href="#AppleSDGothicNeo-Regular-d604" transform="translate(372.299927 0)"/>
    </g>
   </g>
   <g id="text_3">
    <!-- 02 맥락 제공 -->
    <g style="fill: #9060b0" transform="translate(338.991981 115.726956) scale(0.12 -0.12)">
     <defs>
      <path id="AppleSDGothicNeo-Regular-32" d="M 397 269 
L 3066 269 
L 3066 704 
L 1107 704 
L 1779 1382 
C 2522 2138 2970 2650 2970 3392 
C 2970 4160 2502 4640 1638 4640 
C 1152 4640 717 4422 448 4250 
L 595 3846 
C 845 4019 1190 4198 1555 4198 
C 2163 4198 2438 3917 2438 3347 
C 2438 2733 2029 2266 1421 1632 
L 397 570 
L 397 269 
z
" transform="scale(0.015625)"/>
      <path id="AppleSDGothicNeo-Regular-b9e5" d="M 2733 2163 
L 2733 4678 
L 448 4678 
L 448 2163 
L 2733 2163 
z
M 4960 1830 
L 4960 5146 
L 4474 5146 
L 4474 3706 
L 3802 3706 
L 3802 5043 
L 3334 5043 
L 3334 1862 
L 3802 1862 
L 3802 3302 
L 4474 3302 
L 4474 1830 
L 4960 1830 
z
M 4960 -448 
L 4960 1523 
L 1184 1523 
L 1184 1120 
L 4467 1120 
L 4467 -448 
L 4960 -448 
z
M 2253 2560 
L 928 2560 
L 928 4282 
L 2253 4282 
L 2253 2560 
z
" transform="scale(0.015625)"/>
      <path id="AppleSDGothicNeo-Regular-b77d" d="M 5389 3264 
L 5389 3674 
L 4538 3674 
L 4538 5146 
L 4058 5146 
L 4058 1715 
L 4538 1715 
L 4538 3264 
L 5389 3264 
z
M 896 1421 
L 896 1018 
L 4051 1018 
L 4051 -448 
L 4538 -448 
L 4538 1421 
L 896 1421 
z
M 3546 2566 
C 2886 2438 1658 2394 1011 2394 
L 941 2394 
L 941 3245 
L 2970 3245 
L 2970 4800 
L 435 4800 
L 435 4397 
L 2483 4397 
L 2483 3642 
L 448 3642 
L 448 1984 
L 979 1984 
C 1760 1984 3008 2067 3584 2170 
L 3546 2566 
z
" transform="scale(0.015625)"/>
      <path id="AppleSDGothicNeo-Regular-c81c" d="M 3098 1229 
C 2406 1677 1882 2368 1882 3469 
L 1882 4083 
L 2957 4083 
L 2957 4486 
L 288 4486 
L 288 4083 
L 1402 4083 
L 1402 3456 
C 1402 2368 813 1485 154 1062 
L 480 723 
C 1024 1107 1530 1773 1645 2394 
C 1805 1805 2394 1152 2790 870 
L 3098 1229 
z
M 3853 -166 
L 3853 5011 
L 3373 5011 
L 3373 3091 
L 2477 3091 
L 2477 2688 
L 3373 2688 
L 3373 -166 
L 3853 -166 
z
M 4960 -448 
L 4960 5146 
L 4480 5146 
L 4480 -448 
L 4960 -448 
z
" transform="scale(0.015625)"/>
      <path id="AppleSDGothicNeo-Regular-acf5" d="M 4762 608 
C 4762 1235 4064 1619 2758 1619 
C 1453 1619 742 1235 742 608 
C 742 -19 1453 -397 2758 -397 
C 4064 -397 4762 -19 4762 608 
z
M 4282 608 
C 4282 218 3693 -6 2758 -6 
C 1811 -6 1229 218 1229 608 
C 1229 992 1811 1222 2758 1222 
C 3693 1222 4282 992 4282 608 
z
M 5293 2074 
L 5293 2477 
L 2810 2477 
L 2810 3661 
L 2323 3661 
L 2323 2477 
L 243 2477 
L 243 2074 
L 5293 2074 
z
M 4698 4838 
L 800 4838 
L 800 4435 
L 4198 4435 
L 4192 3981 
C 4186 3725 4147 3219 4058 2912 
L 4538 2848 
C 4627 3194 4698 3872 4698 4339 
L 4698 4838 
z
" transform="scale(0.015625)"/>
     </defs>
     <use xlink:href="#AppleSDGothicNeo-Regular-30"/>
     <use xlink:href="#AppleSDGothicNeo-Regular-32" transform="translate(62.999985 0)"/>
     <use xlink:href="#AppleSDGothicNeo-Regular-20" transform="translate(116.299973 0)"/>
     <use xlink:href="#AppleSDGothicNeo-Regular-b9e5" transform="translate(142.59996 0)"/>
     <use xlink:href="#AppleSDGothicNeo-Regular-b77d" transform="translate(229.099945 0)"/>
     <use xlink:href="#AppleSDGothicNeo-Regular-20" transform="translate(315.59993 0)"/>
     <use xlink:href="#AppleSDGothicNeo-Regular-c81c" transform="translate(341.899918 0)"/>
     <use xlink:href="#AppleSDGothicNeo-Regular-acf5" transform="translate(428.399902 0)"/>
    </g>
   </g>
   <g id="text_4">
    <!-- 나의 상황과 -->
    <g style="fill: #666666" transform="translate(346.945575 151.042457) scale(0.1 -0.1)">
     <defs>
      <path id="AppleSDGothicNeo-Regular-b098" d="M 3578 1632 
C 2970 1485 1875 1402 915 1395 
L 915 4589 
L 429 4589 
L 429 966 
L 768 966 
C 1619 966 2963 1062 3648 1222 
L 3578 1632 
z
M 4538 5146 
L 4051 5146 
L 4051 -448 
L 4538 -448 
L 4538 2509 
L 5453 2509 
L 5453 2925 
L 4538 2925 
L 4538 5146 
z
" transform="scale(0.015625)"/>
      <path id="AppleSDGothicNeo-Regular-c758" d="M 4352 5146 
L 4352 -448 
L 4838 -448 
L 4838 5146 
L 4352 5146 
z
M 3469 3379 
C 3469 4198 2842 4710 2016 4710 
C 1203 4710 557 4166 557 3379 
C 557 2630 1190 2080 2016 2080 
C 2822 2080 3469 2586 3469 3379 
z
M 2995 3379 
C 2995 2854 2547 2490 2016 2490 
C 1472 2490 1030 2861 1030 3379 
C 1030 3904 1478 4294 2016 4294 
C 2560 4294 2995 3942 2995 3379 
z
M 4026 973 
L 3981 1370 
C 3571 1318 2848 1274 2067 1248 
C 1389 1210 730 1197 250 1203 
L 339 774 
C 762 781 1376 800 2035 832 
C 2746 864 3546 915 4026 973 
z
" transform="scale(0.015625)"/>
      <path id="AppleSDGothicNeo-Regular-c0c1" d="M 3405 2566 
C 2771 2784 2035 3469 2035 4358 
L 2035 4877 
L 1542 4877 
L 1542 4339 
C 1542 3450 941 2746 141 2368 
L 410 1990 
C 1062 2330 1632 2886 1805 3482 
C 2029 2918 2579 2438 3117 2176 
L 3405 2566 
z
M 4621 627 
C 4621 1293 3917 1702 2739 1702 
C 1568 1702 870 1293 870 627 
C 870 -38 1568 -442 2739 -442 
C 3917 -442 4621 -38 4621 627 
z
M 2739 1299 
C 3590 1299 4122 1056 4122 627 
C 4122 198 3590 -38 2739 -38 
C 1894 -38 1370 198 1370 627 
C 1370 1056 1894 1299 2739 1299 
z
M 5395 3219 
L 5395 3629 
L 4544 3629 
L 4544 5146 
L 4058 5146 
L 4058 1696 
L 4544 1696 
L 4544 3219 
L 5395 3219 
z
" transform="scale(0.015625)"/>
      <path id="AppleSDGothicNeo-Regular-d669" d="M 4608 448 
C 4608 1024 3866 1338 2752 1338 
C 1638 1338 928 1030 928 448 
C 928 -141 1626 -448 2758 -448 
C 3885 -448 4608 -141 4608 448 
z
M 3181 3066 
C 3181 3571 2605 3808 1901 3808 
C 1203 3808 634 3571 634 3059 
C 634 2611 1069 2374 1651 2330 
L 1651 1971 
C 1094 1952 544 1939 147 1939 
L 224 1523 
C 614 1523 1331 1555 1958 1587 
C 2624 1626 3328 1690 3731 1747 
L 3686 2125 
C 3360 2074 2746 2029 2150 1997 
L 2150 2330 
C 2733 2381 3181 2618 3181 3066 
z
M 5402 2867 
L 5402 3277 
L 4557 3277 
L 4557 5146 
L 4064 5146 
L 4064 1350 
L 4557 1350 
L 4557 2867 
L 5402 2867 
z
M 2758 928 
C 3565 928 4083 768 4083 442 
C 4083 115 3578 -38 2758 -38 
C 1965 -38 1453 122 1453 442 
C 1453 762 1958 928 2758 928 
z
M 3501 3974 
L 3501 4371 
L 346 4371 
L 346 3974 
L 3501 3974 
z
M 2714 3066 
C 2714 2803 2355 2688 1901 2688 
C 1453 2688 1101 2797 1101 3066 
C 1101 3322 1453 3430 1901 3430 
C 2355 3430 2714 3322 2714 3066 
z
M 2682 4678 
L 2682 5082 
L 1146 5082 
L 1146 4678 
L 2682 4678 
z
" transform="scale(0.015625)"/>
      <path id="AppleSDGothicNeo-Regular-acfc" d="M 5485 2394 
L 5485 2810 
L 4576 2810 
L 4576 5146 
L 4090 5146 
L 4090 -448 
L 4576 -448 
L 4576 2394 
L 5485 2394 
z
M 3770 966 
L 3731 1370 
C 3232 1293 2528 1242 1856 1210 
L 1856 2963 
L 1363 2963 
L 1363 1197 
C 947 1184 448 1190 141 1190 
L 211 762 
C 678 762 1299 781 1862 806 
C 2406 838 3232 896 3770 966 
z
M 3347 4557 
L 422 4557 
L 422 4147 
L 2854 4147 
C 2880 3520 2803 2598 2682 2054 
L 3149 1990 
C 3270 2534 3360 3699 3347 4557 
z
" transform="scale(0.015625)"/>
     </defs>
     <use xlink:href="#AppleSDGothicNeo-Regular-b098"/>
     <use xlink:href="#AppleSDGothicNeo-Regular-c758" transform="translate(86.499985 0)"/>
     <use xlink:href="#AppleSDGothicNeo-Regular-20" transform="translate(172.999969 0)"/>
     <use xlink:href="#AppleSDGothicNeo-Regular-c0c1" transform="translate(199.299957 0)"/>
     <use xlink:href="#AppleSDGothicNeo-Regular-d669" transform="translate(285.799942 0)"/>
     <use xlink:href="#AppleSDGothicNeo-Regular-acfc" transform="translate(372.299927 0)"/>
    </g>
    <!-- 배경 정보 전달 -->
    <g style="fill: #666666" transform="translate(341.305731 161.319332) scale(0.1 -0.1)">
     <defs>
      <path id="AppleSDGothicNeo-Regular-bc30" d="M 2662 954 
L 2662 4589 
L 2182 4589 
L 2182 3219 
L 909 3219 
L 909 4589 
L 429 4589 
L 429 954 
L 2662 954 
z
M 4960 -448 
L 4960 5146 
L 4480 5146 
L 4480 2848 
L 3795 2848 
L 3795 5011 
L 3322 5011 
L 3322 -166 
L 3795 -166 
L 3795 2438 
L 4480 2438 
L 4480 -448 
L 4960 -448 
z
M 2182 1363 
L 909 1363 
L 909 2816 
L 2182 2816 
L 2182 1363 
z
" transform="scale(0.015625)"/>
      <path id="AppleSDGothicNeo-Regular-acbd" d="M 4858 640 
C 4858 1286 4166 1696 2957 1696 
C 1734 1696 1050 1286 1050 640 
C 1050 -13 1734 -422 2957 -422 
C 4166 -422 4858 -13 4858 640 
z
M 2957 1286 
C 3840 1286 4358 1050 4358 640 
C 4358 224 3840 -19 2957 -19 
C 2074 -19 1555 224 1555 640 
C 1555 1050 2074 1286 2957 1286 
z
M 3091 2560 
L 4326 2560 
L 4326 1613 
L 4813 1613 
L 4813 5146 
L 4326 5146 
L 4326 4134 
L 3181 4134 
L 3181 3731 
L 4326 3731 
L 4326 2963 
L 3091 2963 
L 3091 2560 
z
M 3123 4710 
L 550 4710 
L 550 4294 
L 2573 4294 
C 2406 3347 1459 2419 307 2099 
L 550 1683 
C 2029 2202 3040 3302 3123 4710 
z
" transform="scale(0.015625)"/>
      <path id="AppleSDGothicNeo-Regular-bcf4" d="M 4678 1798 
L 4678 4762 
L 4192 4762 
L 4192 3731 
L 1344 3731 
L 1344 4762 
L 851 4762 
L 851 1798 
L 2515 1798 
L 2515 659 
L 243 659 
L 243 250 
L 5293 250 
L 5293 659 
L 3002 659 
L 3002 1798 
L 4678 1798 
z
M 4192 2202 
L 1344 2202 
L 1344 3328 
L 4192 3328 
L 4192 2202 
z
" transform="scale(0.015625)"/>
      <path id="AppleSDGothicNeo-Regular-c804" d="M 403 4243 
L 1664 4243 
C 1664 3994 1664 3872 1658 3795 
C 1632 3059 928 2349 224 2074 
L 506 1696 
C 1107 1958 1754 2566 1907 3085 
C 2138 2579 2733 2048 3264 1830 
L 3539 2221 
C 2899 2432 2208 3072 2163 3789 
C 2157 3872 2157 3987 2157 4243 
L 3411 4243 
L 3411 4653 
L 403 4653 
L 403 4243 
z
M 4813 1050 
L 4813 5146 
L 4326 5146 
L 4326 3590 
L 3213 3590 
L 3213 3181 
L 4326 3181 
L 4326 1050 
L 4813 1050 
z
M 4934 -262 
L 4934 147 
L 1651 147 
L 1651 1459 
L 1165 1459 
L 1165 -262 
L 4934 -262 
z
" transform="scale(0.015625)"/>
      <path id="AppleSDGothicNeo-Regular-b2ec" d="M 5389 3494 
L 5389 3904 
L 4538 3904 
L 4538 5146 
L 4051 5146 
L 4051 2291 
L 4538 2291 
L 4538 3494 
L 5389 3494 
z
M 4749 -390 
L 4749 13 
L 1472 13 
L 1472 659 
L 4538 659 
L 4538 1997 
L 966 1997 
L 966 1600 
L 4051 1600 
L 4051 1030 
L 986 1030 
L 986 -390 
L 4749 -390 
z
M 890 2893 
L 890 4371 
L 2995 4371 
L 2995 4781 
L 403 4781 
L 403 2490 
L 858 2490 
C 1824 2490 2912 2566 3533 2669 
L 3482 3066 
C 2944 2957 1946 2893 1165 2893 
L 890 2893 
z
" transform="scale(0.015625)"/>
     </defs>
     <use xlink:href="#AppleSDGothicNeo-Regular-bc30"/>
     <use xlink:href="#AppleSDGothicNeo-Regular-acbd" transform="translate(86.499985 0)"/>
     <use xlink:href="#AppleSDGothicNeo-Regular-20" transform="translate(172.999969 0)"/>
     <use xlink:href="#AppleSDGothicNeo-Regular-c815" transform="translate(199.299957 0)"/>
     <use xlink:href="#AppleSDGothicNeo-Regular-bcf4" transform="translate(285.799942 0)"/>
     <use xlink:href="#AppleSDGothicNeo-Regular-20" transform="translate(372.299927 0)"/>
     <use xlink:href="#AppleSDGothicNeo-Regular-c804" transform="translate(398.599915 0)"/>
     <use xlink:href="#AppleSDGothicNeo-Regular-b2ec" transform="translate(485.099899 0)"/>
    </g>
   </g>
   <g id="text_5">
    <!-- 03 역할 부여 -->
    <g style="fill: #558838" transform="translate(135.562827 239.080958) scale(0.12 -0.12)">
     <defs>
      <path id="AppleSDGothicNeo-Regular-33" d="M 1491 205 
C 2445 205 3053 730 3053 1478 
C 3053 2144 2630 2458 2074 2566 
C 2560 2726 2893 3040 2893 3571 
C 2893 4243 2368 4634 1600 4634 
C 1229 4634 723 4474 467 4301 
L 544 3891 
C 813 4045 1146 4198 1498 4198 
C 2022 4198 2362 4013 2362 3488 
C 2362 3008 1984 2726 1427 2726 
L 1043 2726 
L 1043 2291 
L 1459 2291 
C 2112 2291 2534 2029 2534 1478 
C 2534 947 2138 634 1427 634 
C 1107 634 678 755 435 915 
L 326 512 
C 563 346 992 205 1491 205 
z
" transform="scale(0.015625)"/>
      <path id="AppleSDGothicNeo-Regular-c5ed" d="M 3309 3955 
L 4326 3955 
L 4326 3040 
L 3309 3040 
L 3302 2637 
L 4326 2637 
L 4326 1850 
L 4813 1850 
L 4813 5146 
L 4326 5146 
L 4326 4365 
L 3302 4365 
L 3309 3955 
z
M 1062 1555 
L 1062 1152 
L 4326 1152 
L 4326 -454 
L 4813 -454 
L 4813 1555 
L 1062 1555 
z
M 1741 4819 
C 954 4819 301 4282 301 3469 
C 301 2662 954 2150 1741 2150 
C 2528 2150 3174 2662 3174 3475 
C 3174 4294 2528 4819 1741 4819 
z
M 1741 4403 
C 2317 4403 2688 4032 2688 3469 
C 2688 2912 2310 2547 1741 2547 
C 1190 2547 787 2912 787 3475 
C 787 4038 1190 4403 1741 4403 
z
" transform="scale(0.015625)"/>
      <path id="AppleSDGothicNeo-Regular-d560" d="M 5395 3258 
L 5395 3667 
L 4544 3667 
L 4544 5146 
L 4058 5146 
L 4058 1965 
L 4544 1965 
L 4544 3258 
L 5395 3258 
z
M 4755 -416 
L 4755 -38 
L 1510 -38 
L 1510 474 
L 4544 474 
L 4544 1677 
L 998 1677 
L 998 1306 
L 4058 1306 
L 4058 832 
L 1024 832 
L 1024 -416 
L 4755 -416 
z
M 2662 4640 
L 2662 5050 
L 1050 5050 
L 1050 4640 
L 2662 4640 
z
M 3501 3885 
L 3501 4282 
L 218 4282 
L 218 3885 
L 3501 3885 
z
M 3174 2822 
C 3174 3366 2605 3667 1856 3667 
C 1114 3667 544 3366 544 2822 
C 544 2272 1126 1971 1856 1971 
C 2624 1971 3174 2272 3174 2822 
z
M 2707 2822 
C 2707 2509 2298 2349 1856 2349 
C 1421 2349 1011 2509 1011 2822 
C 1011 3136 1414 3290 1856 3290 
C 2298 3290 2707 3136 2707 2822 
z
" transform="scale(0.015625)"/>
      <path id="AppleSDGothicNeo-Regular-bd80" d="M 4678 2464 
L 4678 4928 
L 4192 4928 
L 4192 4102 
L 1344 4102 
L 1344 4928 
L 851 4928 
L 851 2464 
L 4678 2464 
z
M 3002 -454 
L 3002 1389 
L 5293 1389 
L 5293 1798 
L 243 1798 
L 243 1389 
L 2515 1389 
L 2515 -454 
L 3002 -454 
z
M 4192 2867 
L 1344 2867 
L 1344 3706 
L 4192 3706 
L 4192 2867 
z
" transform="scale(0.015625)"/>
      <path id="AppleSDGothicNeo-Regular-c5ec" d="M 4346 3494 
L 4346 2099 
L 3213 2099 
L 3213 1696 
L 4346 1696 
L 4346 -448 
L 4832 -448 
L 4832 5146 
L 4346 5146 
L 4346 3898 
L 3213 3898 
L 3213 3494 
L 4346 3494 
z
M 275 2778 
C 275 1587 774 800 1658 800 
C 2554 800 3046 1587 3046 2771 
C 3046 3962 2554 4755 1658 4755 
C 774 4755 275 3962 275 2778 
z
M 2566 2771 
C 2566 1862 2208 1222 1658 1222 
C 1120 1222 755 1862 755 2771 
C 755 3693 1120 4333 1658 4333 
C 2208 4333 2566 3693 2566 2771 
z
" transform="scale(0.015625)"/>
     </defs>
     <use xlink:href="#AppleSDGothicNeo-Regular-30"/>
     <use xlink:href="#AppleSDGothicNeo-Regular-33" transform="translate(62.999985 0)"/>
     <use xlink:href="#AppleSDGothicNeo-Regular-20" transform="translate(116.599976 0)"/>
     <use xlink:href="#AppleSDGothicNeo-Regular-c5ed" transform="translate(142.899963 0)"/>
     <use xlink:href="#AppleSDGothicNeo-Regular-d560" transform="translate(229.399948 0)"/>
     <use xlink:href="#AppleSDGothicNeo-Regular-20" transform="translate(315.899933 0)"/>
     <use xlink:href="#AppleSDGothicNeo-Regular-bd80" transform="translate(342.199921 0)"/>
     <use xlink:href="#AppleSDGothicNeo-Regular-c5ec" transform="translate(428.699905 0)"/>
    </g>
   </g>
   <g id="text_6">
    <!-- AI에게 -->
    <g style="fill: #666666" transform="translate(153.503765 274.385209) scale(0.1 -0.1)">
     <defs>
      <path id="AppleSDGothicNeo-Regular-41" d="M 122 269 
L 608 269 
L 1050 1523 
L 2771 1523 
L 3226 269 
L 3757 269 
L 2189 4563 
L 1696 4563 
L 122 269 
z
M 1901 3885 
L 1914 3885 
L 2611 1952 
L 1197 1952 
L 1901 3885 
z
" transform="scale(0.015625)"/>
      <path id="AppleSDGothicNeo-Regular-49" d="M 576 269 
L 1082 269 
L 1082 4563 
L 576 4563 
L 576 269 
z
" transform="scale(0.015625)"/>
      <path id="AppleSDGothicNeo-Regular-c5d0" d="M 1562 4659 
C 749 4659 333 3866 333 2746 
C 333 1619 749 832 1562 832 
C 2330 832 2739 1517 2790 2528 
L 3392 2528 
L 3392 -179 
L 3866 -179 
L 3866 5037 
L 3392 5037 
L 3392 2931 
L 2790 2931 
C 2752 3949 2336 4659 1562 4659 
z
M 2310 2746 
C 2310 1837 2016 1261 1562 1261 
C 1114 1261 826 1837 826 2746 
C 826 3648 1114 4230 1562 4230 
C 2016 4230 2310 3648 2310 2746 
z
M 4960 -448 
L 4960 5146 
L 4480 5146 
L 4480 -448 
L 4960 -448 
z
" transform="scale(0.015625)"/>
      <path id="AppleSDGothicNeo-Regular-ac8c" d="M 4960 -448 
L 4960 5146 
L 4480 5146 
L 4480 -448 
L 4960 -448 
z
M 3872 -166 
L 3872 5011 
L 3405 5011 
L 3405 2970 
L 2464 2970 
L 2464 2560 
L 3405 2560 
L 3405 -166 
L 3872 -166 
z
M 2605 4493 
L 403 4493 
L 403 4083 
L 2106 4083 
C 2048 2944 1357 1766 186 1107 
L 518 749 
C 1837 1600 2566 2829 2605 4493 
z
" transform="scale(0.015625)"/>
     </defs>
     <use xlink:href="#AppleSDGothicNeo-Regular-41"/>
     <use xlink:href="#AppleSDGothicNeo-Regular-49" transform="translate(60.499985 0)"/>
     <use xlink:href="#AppleSDGothicNeo-Regular-c5d0" transform="translate(86.399979 0)"/>
     <use xlink:href="#AppleSDGothicNeo-Regular-ac8c" transform="translate(172.899963 0)"/>
    </g>
    <!-- 전문가 역할 부여 -->
    <g style="fill: #666666" transform="translate(133.56939 284.673334) scale(0.1 -0.1)">
     <defs>
      <path id="AppleSDGothicNeo-Regular-bb38" d="M 4659 2867 
L 4659 4838 
L 877 4838 
L 877 2867 
L 4659 2867 
z
M 4173 3270 
L 1363 3270 
L 1363 4435 
L 4173 4435 
L 4173 3270 
z
M 3021 736 
L 3021 1837 
L 5293 1837 
L 5293 2240 
L 243 2240 
L 243 1837 
L 2534 1837 
L 2534 736 
L 3021 736 
z
M 4723 -269 
L 4723 134 
L 1357 134 
L 1357 1312 
L 870 1312 
L 870 -269 
L 4723 -269 
z
" transform="scale(0.015625)"/>
      <path id="AppleSDGothicNeo-Regular-ac00" d="M 4544 5146 
L 4058 5146 
L 4058 -448 
L 4544 -448 
L 4544 2400 
L 5459 2400 
L 5459 2816 
L 4544 2816 
L 4544 5146 
z
M 3091 4544 
L 461 4544 
L 461 4134 
L 2566 4134 
C 2464 2874 1664 1696 269 1050 
L 570 666 
C 2010 1414 3059 2726 3091 4544 
z
" transform="scale(0.015625)"/>
     </defs>
     <use xlink:href="#AppleSDGothicNeo-Regular-c804"/>
     <use xlink:href="#AppleSDGothicNeo-Regular-bb38" transform="translate(86.499985 0)"/>
     <use xlink:href="#AppleSDGothicNeo-Regular-ac00" transform="translate(172.999969 0)"/>
     <use xlink:href="#AppleSDGothicNeo-Regular-20" transform="translate(259.499954 0)"/>
     <use xlink:href="#AppleSDGothicNeo-Regular-c5ed" transform="translate(285.799942 0)"/>
     <use xlink:href="#AppleSDGothicNeo-Regular-d560" transform="translate(372.299927 0)"/>
     <use xlink:href="#AppleSDGothicNeo-Regular-20" transform="translate(458.799911 0)"/>
     <use xlink:href="#AppleSDGothicNeo-Regular-bd80" transform="translate(485.099899 0)"/>
     <use xlink:href="#AppleSDGothicNeo-Regular-c5ec" transform="translate(571.599884 0)"/>
    </g>
   </g>
   <g id="text_7">
    <!-- 04 출력 형식 -->
    <g style="fill: #e07050" transform="translate(338.859794 239.123146) scale(0.12 -0.12)">
     <defs>
      <path id="AppleSDGothicNeo-Regular-34" d="M 2214 166 
L 2682 166 
L 2682 1171 
L 3398 1171 
L 3398 1587 
L 2682 1587 
L 2682 4621 
L 2285 4621 
L 186 1555 
L 186 1171 
L 2214 1171 
L 2214 166 
z
M 730 1587 
L 2214 3814 
L 2214 1587 
L 730 1587 
z
" transform="scale(0.015625)"/>
      <path id="AppleSDGothicNeo-Regular-cd9c" d="M 4864 -346 
L 4864 32 
L 1350 32 
L 1350 512 
L 4659 512 
L 4659 1690 
L 3002 1690 
L 3002 2150 
L 5293 2150 
L 5293 2547 
L 243 2547 
L 243 2150 
L 2515 2150 
L 2515 1690 
L 851 1690 
L 851 1312 
L 4173 1312 
L 4173 870 
L 858 870 
L 858 -346 
L 4864 -346 
z
M 5024 3194 
C 4218 3251 3283 3526 3066 3962 
L 4742 3962 
L 4742 4358 
L 794 4358 
L 794 3962 
L 2470 3962 
C 2272 3520 1395 3245 525 3187 
L 736 2790 
C 1600 2880 2445 3168 2765 3667 
C 3098 3168 4013 2886 4813 2790 
L 5024 3194 
z
M 3661 4730 
L 3661 5120 
L 1869 5120 
L 1869 4730 
L 3661 4730 
z
" transform="scale(0.015625)"/>
      <path id="AppleSDGothicNeo-Regular-b825" d="M 3194 2419 
C 2656 2323 1875 2304 1120 2304 
L 928 2304 
L 928 3219 
L 2931 3219 
L 2931 4819 
L 442 4819 
L 442 4416 
L 2445 4416 
L 2445 3616 
L 442 3616 
L 442 1907 
L 1101 1907 
C 1754 1907 2701 1946 3238 2035 
L 3194 2419 
z
M 4813 1696 
L 4813 5146 
L 4326 5146 
L 4326 4301 
L 3302 4301 
L 3302 3898 
L 4326 3898 
L 4326 3142 
L 3302 3142 
L 3302 2746 
L 4326 2746 
L 4326 1696 
L 4813 1696 
z
M 1037 1389 
L 1037 986 
L 4326 986 
L 4326 -499 
L 4813 -499 
L 4813 1389 
L 1037 1389 
z
" transform="scale(0.015625)"/>
      <path id="AppleSDGothicNeo-Regular-d615" d="M 4838 525 
C 4838 1120 4192 1491 2976 1491 
C 1760 1491 1133 1126 1133 525 
C 1133 -70 1760 -435 2976 -435 
C 4192 -435 4838 -70 4838 525 
z
M 2976 1094 
C 3827 1094 4333 883 4333 525 
C 4333 160 3827 -38 2976 -38 
C 2131 -38 1638 166 1638 525 
C 1638 877 2131 1094 2976 1094 
z
M 4813 1491 
L 4813 5146 
L 4326 5146 
L 4326 3686 
L 3341 3686 
L 3341 3290 
L 4326 3290 
L 4326 2650 
L 3341 2650 
L 3341 2246 
L 4326 2246 
L 4326 1491 
L 4813 1491 
z
M 2643 4621 
L 2643 5037 
L 1043 5037 
L 1043 4621 
L 2643 4621 
z
M 3386 3827 
L 3386 4218 
L 262 4218 
L 262 3827 
L 3386 3827 
z
M 3155 2611 
C 3155 3187 2605 3539 1862 3539 
C 1133 3539 582 3187 582 2611 
C 582 2042 1139 1683 1862 1683 
C 2605 1683 3155 2048 3155 2611 
z
M 2669 2611 
C 2669 2266 2304 2074 1862 2074 
C 1440 2074 1062 2266 1062 2611 
C 1062 2957 1434 3149 1862 3149 
C 2304 3149 2669 2957 2669 2611 
z
" transform="scale(0.015625)"/>
      <path id="AppleSDGothicNeo-Regular-c2dd" d="M 4813 1811 
L 4813 5146 
L 4326 5146 
L 4326 1811 
L 4813 1811 
z
M 3622 2528 
C 2950 2758 2163 3443 2163 4339 
L 2163 4915 
L 1670 4915 
L 1670 4320 
C 1670 3430 992 2669 198 2342 
L 499 1952 
C 1203 2310 1760 2886 1933 3469 
C 2157 2893 2778 2387 3334 2144 
L 3622 2528 
z
M 4813 -448 
L 4813 1504 
L 1082 1504 
L 1082 1101 
L 4326 1101 
L 4326 -448 
L 4813 -448 
z
" transform="scale(0.015625)"/>
     </defs>
     <use xlink:href="#AppleSDGothicNeo-Regular-30"/>
     <use xlink:href="#AppleSDGothicNeo-Regular-34" transform="translate(62.999985 0)"/>
     <use xlink:href="#AppleSDGothicNeo-Regular-20" transform="translate(118.499969 0)"/>
     <use xlink:href="#AppleSDGothicNeo-Regular-cd9c" transform="translate(144.799957 0)"/>
     <use xlink:href="#AppleSDGothicNeo-Regular-b825" transform="translate(231.299942 0)"/>
     <use xlink:href="#AppleSDGothicNeo-Regular-20" transform="translate(317.799927 0)"/>
     <use xlink:href="#AppleSDGothicNeo-Regular-d615" transform="translate(344.099915 0)"/>
     <use xlink:href="#AppleSDGothicNeo-Regular-c2dd" transform="translate(430.599899 0)"/>
    </g>
   </g>
   <g id="text_8">
    <!-- 답변의 형태를 -->
    <g style="fill: #666666" transform="translate(342.620575 274.390834) scale(0.1 -0.1)">
     <defs>
      <path id="AppleSDGothicNeo-Regular-b2f5" d="M 5389 3418 
L 5389 3827 
L 4538 3827 
L 4538 5146 
L 4051 5146 
L 4051 2144 
L 4538 2144 
L 4538 3418 
L 5389 3418 
z
M 4538 -371 
L 4538 1856 
L 4058 1856 
L 4058 1133 
L 1510 1133 
L 1510 1837 
L 1024 1837 
L 1024 -371 
L 4538 -371 
z
M 4058 32 
L 1510 32 
L 1510 742 
L 4058 742 
L 4058 32 
z
M 947 2803 
L 947 4365 
L 2957 4365 
L 2957 4774 
L 454 4774 
L 454 2400 
L 915 2400 
C 1875 2400 2848 2483 3462 2592 
L 3424 2995 
C 2880 2886 1997 2803 1222 2803 
L 947 2803 
z
" transform="scale(0.015625)"/>
      <path id="AppleSDGothicNeo-Regular-bcc0" d="M 4813 5146 
L 4326 5146 
L 4326 4211 
L 3258 4211 
L 3258 3802 
L 4326 3802 
L 4326 2970 
L 3258 2970 
L 3258 2566 
L 4326 2566 
L 4326 1018 
L 4813 1018 
L 4813 5146 
z
M 4954 -262 
L 4954 147 
L 1696 147 
L 1696 1434 
L 1210 1434 
L 1210 -262 
L 4954 -262 
z
M 2950 1946 
L 2950 4774 
L 2458 4774 
L 2458 3750 
L 979 3750 
L 979 4774 
L 493 4774 
L 493 1946 
L 2950 1946 
z
M 2458 2349 
L 979 2349 
L 979 3347 
L 2458 3347 
L 2458 2349 
z
" transform="scale(0.015625)"/>
      <path id="AppleSDGothicNeo-Regular-d0dc" d="M 4960 -448 
L 4960 5146 
L 4480 5146 
L 4480 2893 
L 3738 2893 
L 3738 5011 
L 3264 5011 
L 3264 -160 
L 3738 -160 
L 3738 2490 
L 4480 2490 
L 4480 -448 
L 4960 -448 
z
M 947 1363 
L 947 2611 
L 2579 2611 
L 2579 3002 
L 947 3002 
L 947 4109 
L 2650 4109 
L 2650 4512 
L 454 4512 
L 454 954 
L 762 954 
C 1760 954 2432 1005 2963 1120 
L 2899 1517 
C 2464 1414 1779 1363 1152 1363 
L 947 1363 
z
" transform="scale(0.015625)"/>
      <path id="AppleSDGothicNeo-Regular-b97c" d="M 5293 2163 
L 5293 2541 
L 243 2541 
L 243 2163 
L 5293 2163 
z
M 4870 -346 
L 4870 38 
L 1312 38 
L 1312 550 
L 4698 550 
L 4698 1722 
L 832 1722 
L 832 1363 
L 4211 1363 
L 4211 896 
L 826 896 
L 826 -346 
L 4870 -346 
z
M 4774 2982 
L 4774 3347 
L 1370 3347 
L 1370 3789 
L 4666 3789 
L 4666 4960 
L 877 4960 
L 877 4576 
L 4179 4576 
L 4179 4141 
L 883 4141 
L 883 2982 
L 4774 2982 
z
" transform="scale(0.015625)"/>
     </defs>
     <use xlink:href="#AppleSDGothicNeo-Regular-b2f5"/>
     <use xlink:href="#AppleSDGothicNeo-Regular-bcc0" transform="translate(86.499985 0)"/>
     <use xlink:href="#AppleSDGothicNeo-Regular-c758" transform="translate(172.999969 0)"/>
     <use xlink:href="#AppleSDGothicNeo-Regular-20" transform="translate(259.499954 0)"/>
     <use xlink:href="#AppleSDGothicNeo-Regular-d615" transform="translate(285.799942 0)"/>
     <use xlink:href="#AppleSDGothicNeo-Regular-d0dc" transform="translate(372.299927 0)"/>
     <use xlink:href="#AppleSDGothicNeo-Regular-b97c" transform="translate(458.799911 0)"/>
    </g>
    <!-- 명시 -->
    <g style="fill: #666666" transform="translate(361.235419 284.667709) scale(0.1 -0.1)">
     <defs>
      <path id="AppleSDGothicNeo-Regular-ba85" d="M 4858 614 
C 4858 1274 4166 1690 2957 1690 
C 1734 1690 1050 1274 1050 614 
C 1050 -38 1734 -448 2957 -448 
C 4166 -448 4858 -38 4858 614 
z
M 2957 1274 
C 3840 1274 4358 1037 4358 614 
C 4358 198 3840 -38 2957 -38 
C 2074 -38 1555 198 1555 614 
C 1555 1037 2074 1274 2957 1274 
z
M 3322 3840 
L 4326 3840 
L 4326 3091 
L 3315 3091 
L 3315 2688 
L 4326 2688 
L 4326 1664 
L 4813 1664 
L 4813 5146 
L 4326 5146 
L 4326 4243 
L 3322 4243 
L 3322 3840 
z
M 3053 2157 
L 3053 4717 
L 493 4717 
L 493 2157 
L 3053 2157 
z
M 2560 2554 
L 979 2554 
L 979 4314 
L 2560 4314 
L 2560 2554 
z
" transform="scale(0.015625)"/>
      <path id="AppleSDGothicNeo-Regular-c2dc" d="M 4851 -448 
L 4851 5146 
L 4358 5146 
L 4358 -448 
L 4851 -448 
z
M 3648 1267 
C 2874 1728 2195 2643 2195 3667 
L 2195 4659 
L 1702 4659 
L 1702 3648 
C 1702 2656 1030 1638 211 1126 
L 531 762 
C 1178 1222 1754 1907 1958 2605 
C 2176 1933 2835 1242 3341 896 
L 3648 1267 
z
" transform="scale(0.015625)"/>
     </defs>
     <use xlink:href="#AppleSDGothicNeo-Regular-ba85"/>
     <use xlink:href="#AppleSDGothicNeo-Regular-c2dc" transform="translate(86.499985 0)"/>
    </g>
   </g>
   <g id="text_9">
    <!-- 프롬프트 4원칙 -->
    <g style="fill: #333333" transform="translate(230.644219 32.35375) scale(0.14 -0.14)">
     <defs>
      <path id="AppleSDGothicNeo-Regular-d504" d="M 4813 1805 
L 4813 2214 
L 3898 2214 
L 4122 3763 
L 3642 3840 
L 3443 2214 
L 2067 2214 
L 1952 3846 
L 1453 3776 
L 1606 2214 
L 691 2214 
L 691 1805 
L 4813 1805 
z
M 5293 294 
L 5293 710 
L 243 710 
L 243 294 
L 5293 294 
z
M 4819 4147 
L 4819 4557 
L 685 4557 
L 685 4147 
L 4819 4147 
z
" transform="scale(0.015625)"/>
      <path id="AppleSDGothicNeo-Regular-b86c" d="M 4723 2733 
L 4723 3117 
L 1402 3117 
L 1402 3680 
L 4614 3680 
L 4614 4954 
L 896 4954 
L 896 4570 
L 4128 4570 
L 4128 4051 
L 915 4051 
L 915 2733 
L 2515 2733 
L 2515 2170 
L 243 2170 
L 243 1766 
L 5293 1766 
L 5293 2170 
L 3002 2170 
L 3002 2733 
L 4723 2733 
z
M 4653 -371 
L 4653 1286 
L 890 1286 
L 890 -371 
L 4653 -371 
z
M 4160 32 
L 1376 32 
L 1376 883 
L 4160 883 
L 4160 32 
z
" transform="scale(0.015625)"/>
      <path id="AppleSDGothicNeo-Regular-d2b8" d="M 4525 2976 
L 4525 3386 
L 1350 3386 
L 1350 4198 
L 4634 4198 
L 4634 4608 
L 858 4608 
L 858 1696 
L 4691 1696 
L 4691 2106 
L 1350 2106 
L 1350 2976 
L 4525 2976 
z
M 5293 262 
L 5293 672 
L 243 672 
L 243 262 
L 5293 262 
z
" transform="scale(0.015625)"/>
      <path id="AppleSDGothicNeo-Regular-ce59" d="M 3654 2381 
C 2982 2534 2278 3066 2234 3731 
L 3514 3731 
L 3514 4134 
L 461 4134 
L 461 3731 
L 1734 3731 
C 1690 3040 979 2426 262 2208 
L 531 1824 
C 1171 2054 1805 2579 1984 3085 
C 2253 2566 2886 2138 3398 1984 
L 3654 2381 
z
M 4819 -448 
L 4819 1504 
L 1088 1504 
L 1088 1101 
L 4333 1101 
L 4333 -448 
L 4819 -448 
z
M 4813 1805 
L 4813 5146 
L 4326 5146 
L 4326 1805 
L 4813 1805 
z
M 2746 4614 
L 2746 5024 
L 1222 5024 
L 1222 4614 
L 2746 4614 
z
" transform="scale(0.015625)"/>
     </defs>
     <use xlink:href="#AppleSDGothicNeo-Regular-d504"/>
     <use xlink:href="#AppleSDGothicNeo-Regular-b86c" transform="translate(86.499985 0)"/>
     <use xlink:href="#AppleSDGothicNeo-Regular-d504" transform="translate(172.999969 0)"/>
     <use xlink:href="#AppleSDGothicNeo-Regular-d2b8" transform="translate(259.499954 0)"/>
     <use xlink:href="#AppleSDGothicNeo-Regular-20" transform="translate(345.999939 0)"/>
     <use xlink:href="#AppleSDGothicNeo-Regular-34" transform="translate(372.299927 0)"/>
     <use xlink:href="#AppleSDGothicNeo-Regular-c6d0" transform="translate(427.799911 0)"/>
     <use xlink:href="#AppleSDGothicNeo-Regular-ce59" transform="translate(514.299896 0)"/>
    </g>
   </g>
   <g id="patch_7">
    <path d="M 268.179748 230.53375 
C 274.173672 230.53375 279.922908 228.126942 284.161252 223.843398 
C 288.399597 219.559853 290.781008 213.749305 290.781008 207.691458 
C 290.781008 201.633611 288.399597 195.823063 284.161252 191.539518 
C 279.922908 187.255974 274.173672 184.849166 268.179748 184.849166 
C 262.185824 184.849166 256.436588 187.255974 252.198244 191.539518 
C 247.959899 195.823063 245.578488 201.633611 245.578488 207.691458 
C 245.578488 213.749305 247.959899 219.559853 252.198244 223.843398 
C 256.436588 228.126942 262.185824 230.53375 268.179748 230.53375 
z
" clip-path="url(#p536f5ed79c)" style="fill: #e5edf8; stroke: #4080c0; stroke-width: 1.5; stroke-linejoin: miter"/>
   </g>
   <g id="text_10">
    <!-- 4원칙 -->
    <g style="fill: #4080c0" transform="translate(255.612248 211.333489) scale(0.11 -0.11)">
     <use xlink:href="#AppleSDGothicNeo-Regular-34"/>
     <use xlink:href="#AppleSDGothicNeo-Regular-c6d0" transform="translate(55.499985 0)"/>
     <use xlink:href="#AppleSDGothicNeo-Regular-ce59" transform="translate(141.999969 0)"/>
    </g>
   </g>
  </g>
 </g>
 <defs>
  <clipPath id="p536f5ed79c">
   <rect x="21.6" y="50.35375" width="502.2" height="360.36"/>
  </clipPath>
 </defs>
</svg>
