<?xml version="1.0" encoding="utf-8" standalone="no"?>
<!DOCTYPE svg PUBLIC "-//W3C//DTD SVG 1.1//EN"
  "http://www.w3.org/Graphics/SVG/1.1/DTD/svg11.dtd">
<svg xmlns:xlink="http://www.w3.org/1999/xlink" width="601.2pt" height="321.43375pt" viewBox="0 0 601.2 321.43375" xmlns="http://www.w3.org/2000/svg" version="1.1">
 <metadata>
  <rdf:RDF xmlns:dc="http://purl.org/dc/elements/1.1/" xmlns:cc="http://creativecommons.org/ns#" xmlns:rdf="http://www.w3.org/1999/02/22-rdf-syntax-ns#">
   <cc:Work>
    <dc:type rdf:resource="http://purl.org/dc/dcmitype/StillImage"/>
    <dc:date>2026-02-18T23:39:38.028195</dc:date>
    <dc:format>image/svg+xml</dc:format>
    <dc:creator>
     <cc:Agent>
      <dc:title>Matplotlib v3.10.8, https://matplotlib.org/</dc:title>
     </cc:Agent>
    </dc:creator>
   </cc:Work>
  </rdf:RDF>
 </metadata>
 <defs>
  <style type="text/css">*{stroke-linejoin: round; stroke-linecap: butt}</style>
 </defs>
 <g id="figure_1">
  <g id="patch_1">
   <path d="M 0 321.43375 
L 601.2 321.43375 
L 601.2 0 
L 0 0 
z
" style="fill: #ffffff"/>
  </g>
  <g id="axes_1">
   <g id="patch_2">
    <path d="M 34.281818 303.526642 
L 566.918182 303.526642 
Q 580.628256 303.526642 580.628256 287.789888 
L 580.628256 62.397612 
Q 580.628256 46.660858 566.918182 46.660858 
L 34.281818 46.660858 
Q 20.571744 46.660858 20.571744 62.397612 
L 20.571744 287.789888 
Q 20.571744 303.526642 34.281818 303.526642 
z
" clip-path="url(#pa49af34b59)" style="fill: #eef3fa; stroke: #e0e0e0; stroke-width: 0.8; stroke-linejoin: miter"/>
   </g>
   <g id="patch_3">
    <path d="M 74.383784 257.449427 
L 152.074201 257.449427 
Q 157.558231 257.449427 157.558231 251.154726 
L 157.558231 104.278359 
Q 157.558231 97.983657 152.074201 97.983657 
L 74.383784 97.983657 
Q 68.899754 97.983657 68.899754 104.278359 
L 68.899754 251.154726 
Q 68.899754 257.449427 74.383784 257.449427 
z
" clip-path="url(#pa49af34b59)" style="fill: #ffffff; stroke: #d04040; stroke-width: 1.5; stroke-linejoin: miter"/>
   </g>
   <g id="patch_4">
    <path d="M 165.784275 257.449427 
L 243.474693 257.449427 
Q 248.958722 257.449427 248.958722 251.154726 
L 248.958722 104.278359 
Q 248.958722 97.983657 243.474693 97.983657 
L 165.784275 97.983657 
Q 160.300246 97.983657 160.300246 104.278359 
L 160.300246 251.154726 
Q 160.300246 257.449427 165.784275 257.449427 
z
" clip-path="url(#pa49af34b59)" style="fill: #ffffff; stroke: #e07050; stroke-width: 1.5; stroke-linejoin: miter"/>
   </g>
   <g id="patch_5">
    <path d="M 257.184767 257.449427 
L 334.875184 257.449427 
Q 340.359214 257.449427 340.359214 251.154726 
L 340.359214 104.278359 
Q 340.359214 97.983657 334.875184 97.983657 
L 257.184767 97.983657 
Q 251.700737 97.983657 251.700737 104.278359 
L 251.700737 251.154726 
Q 251.700737 257.449427 257.184767 257.449427 
z
" clip-path="url(#pa49af34b59)" style="fill: #ffffff; stroke: #4080c0; stroke-width: 1.5; stroke-linejoin: miter"/>
   </g>
   <g id="patch_6">
    <path d="M 348.585258 257.449427 
L 426.275676 257.449427 
Q 431.759705 257.449427 431.759705 251.154726 
L 431.759705 104.278359 
Q 431.759705 97.983657 426.275676 97.983657 
L 348.585258 97.983657 
Q 343.101229 97.983657 343.101229 104.278359 
L 343.101229 251.154726 
Q 343.101229 257.449427 348.585258 257.449427 
z
" clip-path="url(#pa49af34b59)" style="fill: #ffffff; stroke: #9060b0; stroke-width: 1.5; stroke-linejoin: miter"/>
   </g>
   <g id="patch_7">
    <path d="M 439.985749 257.449427 
L 517.676167 257.449427 
Q 523.160197 257.449427 523.160197 251.154726 
L 523.160197 104.278359 
Q 523.160197 97.983657 517.676167 97.983657 
L 439.985749 97.983657 
Q 434.50172 97.983657 434.50172 104.278359 
L 434.50172 251.154726 
Q 434.50172 257.449427 439.985749 257.449427 
z
" clip-path="url(#pa49af34b59)" style="fill: #ffffff; stroke: #558838; stroke-width: 1.5; stroke-linejoin: miter"/>
   </g>
   <g id="text_1">
    <!-- 환각 -->
    <g style="fill: #d04040" transform="translate(105.443993 134.197116) scale(0.09 -0.09)">
     <defs>
      <path id="AppleSDGothicNeo-Regular-d658" d="M 3757 1466 
L 3731 1843 
C 3398 1792 2784 1741 2195 1702 
L 2195 2067 
C 2810 2118 3290 2368 3290 2861 
C 3290 3411 2688 3674 1965 3674 
C 1254 3674 653 3405 653 2854 
C 653 2374 1107 2125 1702 2067 
L 1702 1677 
C 1139 1658 576 1658 166 1658 
L 250 1248 
C 640 1248 1338 1267 1965 1306 
C 2630 1350 3354 1414 3757 1466 
z
M 5434 2733 
L 5434 3142 
L 4557 3142 
L 4557 5158 
L 4064 5158 
L 4064 794 
L 4557 794 
L 4557 2733 
L 5434 2733 
z
M 4698 -352 
L 4698 51 
L 1498 51 
L 1498 1037 
L 1011 1037 
L 1011 -352 
L 4698 -352 
z
M 3571 3859 
L 3571 4256 
L 320 4256 
L 320 3859 
L 3571 3859 
z
M 2835 2861 
C 2835 2579 2458 2438 1965 2438 
C 1478 2438 1114 2573 1114 2861 
C 1114 3149 1478 3283 1965 3283 
C 2458 3283 2835 3149 2835 2861 
z
M 2752 4595 
L 2752 5005 
L 1210 5005 
L 1210 4595 
L 2752 4595 
z
" transform="scale(0.015625)"/>
      <path id="AppleSDGothicNeo-Regular-ac01" d="M 5395 3322 
L 5395 3731 
L 4544 3731 
L 4544 5146 
L 4058 5146 
L 4058 1824 
L 4544 1824 
L 4544 3322 
L 5395 3322 
z
M 838 1530 
L 838 1126 
L 4058 1126 
L 4058 -486 
L 4544 -486 
L 4544 1530 
L 838 1530 
z
M 2989 4762 
L 448 4762 
L 448 4346 
L 2458 4346 
C 2304 3398 1344 2566 224 2317 
L 486 1907 
C 1907 2349 2880 3302 2989 4762 
z
" transform="scale(0.015625)"/>
     </defs>
     <use xlink:href="#AppleSDGothicNeo-Regular-d658"/>
     <use xlink:href="#AppleSDGothicNeo-Regular-ac01" transform="translate(86.499985 0)"/>
    </g>
    <!-- (Hallucination) -->
    <g style="fill: #d04040" transform="translate(85.82329 143.336616) scale(0.09 -0.09)">
     <defs>
      <path id="AppleSDGothicNeo-Regular-28" d="M 1472 -384 
L 1914 -384 
C 1344 256 883 1235 883 2221 
L 883 2374 
C 883 3392 1344 4307 1914 4941 
L 1472 4941 
C 883 4339 365 3469 365 2330 
L 365 2227 
C 365 1094 883 218 1472 -384 
z
" transform="scale(0.015625)"/>
      <path id="AppleSDGothicNeo-Regular-48" d="M 550 269 
L 1062 269 
L 1062 2272 
L 3213 2272 
L 3213 269 
L 3718 269 
L 3718 4563 
L 3213 4563 
L 3213 2701 
L 1062 2701 
L 1062 4563 
L 550 4563 
L 550 269 
z
" transform="scale(0.015625)"/>
      <path id="AppleSDGothicNeo-Regular-61" d="M 1242 211 
C 1670 211 1939 365 2086 544 
L 2118 544 
L 2170 269 
L 2566 269 
L 2566 2566 
C 2566 3213 2176 3501 1478 3501 
C 1114 3501 806 3443 531 3328 
L 531 2976 
C 730 3034 979 3078 1286 3078 
C 1856 3078 2074 2950 2074 2458 
L 2074 2125 
L 1216 2022 
C 608 1952 250 1658 250 1101 
C 250 506 666 211 1242 211 
z
M 1363 595 
C 998 595 762 768 762 1114 
C 762 1478 954 1638 1344 1677 
L 2074 1760 
L 2074 826 
C 1939 691 1658 595 1363 595 
z
" transform="scale(0.015625)"/>
      <path id="AppleSDGothicNeo-Regular-6c" d="M 480 269 
L 973 269 
L 973 4851 
L 480 4851 
L 480 269 
z
" transform="scale(0.015625)"/>
      <path id="AppleSDGothicNeo-Regular-75" d="M 1421 211 
C 1805 211 2144 358 2432 557 
L 2458 557 
L 2502 269 
L 2925 269 
L 2925 3443 
L 2438 3443 
L 2438 883 
C 2176 755 1894 634 1555 634 
C 1088 634 941 800 941 1210 
L 941 3443 
L 448 3443 
L 448 1139 
C 448 525 800 211 1421 211 
z
" transform="scale(0.015625)"/>
      <path id="AppleSDGothicNeo-Regular-63" d="M 1734 211 
C 2176 211 2458 339 2662 461 
L 2662 858 
C 2502 768 2221 634 1792 634 
C 1114 634 774 998 774 1811 
L 774 1965 
C 774 2694 1152 3085 1728 3085 
C 2144 3085 2349 3008 2630 2880 
L 2630 3290 
C 2419 3424 2170 3501 1754 3501 
C 934 3501 269 3014 269 1888 
L 269 1792 
C 269 749 826 211 1734 211 
z
" transform="scale(0.015625)"/>
      <path id="AppleSDGothicNeo-Regular-69" d="M 486 269 
L 973 269 
L 973 3437 
L 486 3437 
L 486 269 
z
M 480 4077 
L 979 4077 
L 979 4589 
L 480 4589 
L 480 4077 
z
" transform="scale(0.015625)"/>
      <path id="AppleSDGothicNeo-Regular-6e" d="M 467 269 
L 954 269 
L 954 2848 
C 1216 2970 1549 3078 1850 3078 
C 2355 3078 2490 2918 2490 2534 
L 2490 269 
L 2976 269 
L 2976 2637 
C 2976 3251 2675 3501 2054 3501 
C 1664 3501 1254 3360 960 3168 
L 934 3168 
L 934 3443 
L 467 3443 
L 467 269 
z
" transform="scale(0.015625)"/>
      <path id="AppleSDGothicNeo-Regular-74" d="M 1472 230 
C 1747 230 1882 301 2010 358 
L 2010 691 
C 1882 653 1734 634 1600 634 
C 1235 634 1133 755 1133 1062 
L 1133 3034 
L 1946 3034 
L 1946 3437 
L 1133 3437 
L 1133 4192 
L 646 4192 
L 646 3437 
L 192 3437 
L 192 3034 
L 646 3034 
L 646 986 
C 646 448 973 230 1472 230 
z
" transform="scale(0.015625)"/>
      <path id="AppleSDGothicNeo-Regular-6f" d="M 1702 211 
C 2560 211 3149 813 3149 1824 
L 3149 1914 
C 3149 2918 2605 3501 1709 3501 
C 851 3501 269 2899 269 1894 
L 269 1798 
C 269 787 806 211 1702 211 
z
M 1715 614 
C 1184 614 768 902 768 1786 
L 768 1946 
C 768 2688 1126 3098 1702 3098 
C 2221 3098 2650 2810 2650 1926 
L 2650 1766 
C 2650 1018 2291 614 1715 614 
z
" transform="scale(0.015625)"/>
      <path id="AppleSDGothicNeo-Regular-29" d="M 115 -384 
L 550 -384 
C 1146 218 1651 1088 1651 2227 
L 1651 2330 
C 1651 3462 1146 4339 550 4941 
L 115 4941 
C 678 4301 1146 3322 1146 2336 
L 1146 2176 
C 1146 1165 678 250 115 -384 
z
" transform="scale(0.015625)"/>
     </defs>
     <use xlink:href="#AppleSDGothicNeo-Regular-28"/>
     <use xlink:href="#AppleSDGothicNeo-Regular-48" transform="translate(31.699997 0)"/>
     <use xlink:href="#AppleSDGothicNeo-Regular-61" transform="translate(98.499985 0)"/>
     <use xlink:href="#AppleSDGothicNeo-Regular-6c" transform="translate(145.699982 0)"/>
     <use xlink:href="#AppleSDGothicNeo-Regular-6c" transform="translate(168.399979 0)"/>
     <use xlink:href="#AppleSDGothicNeo-Regular-75" transform="translate(191.099976 0)"/>
     <use xlink:href="#AppleSDGothicNeo-Regular-63" transform="translate(244.09996 0)"/>
     <use xlink:href="#AppleSDGothicNeo-Regular-69" transform="translate(289.099945 0)"/>
     <use xlink:href="#AppleSDGothicNeo-Regular-6e" transform="translate(311.799942 0)"/>
     <use xlink:href="#AppleSDGothicNeo-Regular-61" transform="translate(365.399933 0)"/>
     <use xlink:href="#AppleSDGothicNeo-Regular-74" transform="translate(412.59993 0)"/>
     <use xlink:href="#AppleSDGothicNeo-Regular-69" transform="translate(447.599915 0)"/>
     <use xlink:href="#AppleSDGothicNeo-Regular-6f" transform="translate(470.299911 0)"/>
     <use xlink:href="#AppleSDGothicNeo-Regular-6e" transform="translate(523.699905 0)"/>
     <use xlink:href="#AppleSDGothicNeo-Regular-29" transform="translate(577.299896 0)"/>
    </g>
   </g>
   <g id="text_2">
    <!-- 사실이 아닌 정보를 -->
    <g style="fill: #666666" transform="translate(83.445243 207.660549) scale(0.08 -0.08)">
     <defs>
      <path id="AppleSDGothicNeo-Regular-c0ac" d="M 5446 2477 
L 5446 2886 
L 4544 2886 
L 4544 5146 
L 4058 5146 
L 4058 -448 
L 4544 -448 
L 4544 2477 
L 5446 2477 
z
M 3526 1286 
C 2752 1741 2048 2656 2048 3674 
L 2048 4653 
L 1549 4653 
L 1549 3661 
C 1549 2669 890 1664 77 1165 
L 390 787 
C 1050 1248 1594 1958 1792 2656 
C 2016 1978 2643 1312 3219 915 
L 3526 1286 
z
" transform="scale(0.015625)"/>
      <path id="AppleSDGothicNeo-Regular-c2e4" d="M 4813 2285 
L 4813 5146 
L 4326 5146 
L 4326 2285 
L 4813 2285 
z
M 3584 2778 
C 2893 3027 2157 3571 2157 4474 
L 2157 4954 
L 1664 4954 
L 1664 4454 
C 1664 3558 954 2886 230 2598 
L 499 2227 
C 1171 2547 1754 3091 1926 3667 
C 2189 3078 2752 2618 3309 2400 
L 3584 2778 
z
M 5024 -384 
L 5024 13 
L 1664 13 
L 1664 640 
L 4813 640 
L 4813 1978 
L 1165 1978 
L 1165 1581 
L 4326 1581 
L 4326 1005 
L 1178 1005 
L 1178 -384 
L 5024 -384 
z
" transform="scale(0.015625)"/>
      <path id="AppleSDGothicNeo-Regular-c774" d="M 4845 -448 
L 4845 5146 
L 4358 5146 
L 4358 -448 
L 4845 -448 
z
M 429 2752 
C 429 1562 954 768 1869 768 
C 2797 768 3315 1562 3315 2746 
C 3315 3930 2797 4723 1869 4723 
C 954 4723 429 3930 429 2752 
z
M 2854 2746 
C 2854 1830 2464 1190 1869 1190 
C 1280 1190 890 1830 890 2746 
C 890 3667 1280 4301 1869 4301 
C 2464 4301 2854 3667 2854 2746 
z
" transform="scale(0.015625)"/>
      <path id="AppleSDGothicNeo-Regular-20" transform="scale(0.015625)"/>
      <path id="AppleSDGothicNeo-Regular-c544" d="M 5459 2483 
L 5459 2893 
L 4544 2893 
L 4544 5146 
L 4058 5146 
L 4058 -448 
L 4544 -448 
L 4544 2483 
L 5459 2483 
z
M 320 2752 
C 320 1562 845 768 1754 768 
C 2662 768 3181 1562 3181 2746 
C 3181 3930 2662 4723 1754 4723 
C 845 4723 320 3930 320 2752 
z
M 2707 2746 
C 2707 1830 2336 1190 1754 1190 
C 1171 1190 794 1830 794 2746 
C 794 3667 1171 4301 1754 4301 
C 2336 4301 2707 3667 2707 2746 
z
" transform="scale(0.015625)"/>
      <path id="AppleSDGothicNeo-Regular-b2cc" d="M 4813 1062 
L 4813 5146 
L 4326 5146 
L 4326 1062 
L 4813 1062 
z
M 4928 -262 
L 4928 147 
L 1638 147 
L 1638 1530 
L 1152 1530 
L 1152 -262 
L 4928 -262 
z
M 3757 2874 
C 3040 2739 1952 2618 1050 2618 
L 1050 4749 
L 557 4749 
L 557 2189 
L 877 2189 
C 1824 2189 3187 2323 3808 2464 
L 3757 2874 
z
" transform="scale(0.015625)"/>
      <path id="AppleSDGothicNeo-Regular-c815" d="M 4858 614 
C 4858 1274 4179 1683 2976 1683 
C 1779 1683 1107 1274 1107 614 
C 1107 -38 1779 -448 2976 -448 
C 4179 -448 4858 -38 4858 614 
z
M 390 4269 
L 1664 4269 
C 1664 4166 1664 4032 1658 3968 
C 1632 3174 922 2464 218 2195 
L 480 1805 
C 1082 2067 1754 2739 1907 3264 
C 2138 2758 2739 2234 3322 2003 
L 3610 2394 
C 2925 2598 2208 3206 2163 3968 
C 2157 4032 2157 4160 2157 4269 
L 3418 4269 
L 3418 4678 
L 390 4678 
L 390 4269 
z
M 2976 1274 
C 3853 1274 4358 1037 4358 614 
C 4358 198 3853 -38 2976 -38 
C 2118 -38 1600 198 1600 614 
C 1600 1037 2118 1274 2976 1274 
z
M 4326 3283 
L 4326 1670 
L 4813 1670 
L 4813 5146 
L 4326 5146 
L 4326 3693 
L 3200 3693 
L 3200 3283 
L 4326 3283 
z
" transform="scale(0.015625)"/>
      <path id="AppleSDGothicNeo-Regular-bcf4" d="M 4678 1798 
L 4678 4762 
L 4192 4762 
L 4192 3731 
L 1344 3731 
L 1344 4762 
L 851 4762 
L 851 1798 
L 2515 1798 
L 2515 659 
L 243 659 
L 243 250 
L 5293 250 
L 5293 659 
L 3002 659 
L 3002 1798 
L 4678 1798 
z
M 4192 2202 
L 1344 2202 
L 1344 3328 
L 4192 3328 
L 4192 2202 
z
" transform="scale(0.015625)"/>
      <path id="AppleSDGothicNeo-Regular-b97c" d="M 5293 2163 
L 5293 2541 
L 243 2541 
L 243 2163 
L 5293 2163 
z
M 4870 -346 
L 4870 38 
L 1312 38 
L 1312 550 
L 4698 550 
L 4698 1722 
L 832 1722 
L 832 1363 
L 4211 1363 
L 4211 896 
L 826 896 
L 826 -346 
L 4870 -346 
z
M 4774 2982 
L 4774 3347 
L 1370 3347 
L 1370 3789 
L 4666 3789 
L 4666 4960 
L 877 4960 
L 877 4576 
L 4179 4576 
L 4179 4141 
L 883 4141 
L 883 2982 
L 4774 2982 
z
" transform="scale(0.015625)"/>
     </defs>
     <use xlink:href="#AppleSDGothicNeo-Regular-c0ac"/>
     <use xlink:href="#AppleSDGothicNeo-Regular-c2e4" transform="translate(86.499985 0)"/>
     <use xlink:href="#AppleSDGothicNeo-Regular-c774" transform="translate(172.999969 0)"/>
     <use xlink:href="#AppleSDGothicNeo-Regular-20" transform="translate(259.499954 0)"/>
     <use xlink:href="#AppleSDGothicNeo-Regular-c544" transform="translate(285.799942 0)"/>
     <use xlink:href="#AppleSDGothicNeo-Regular-b2cc" transform="translate(372.299927 0)"/>
     <use xlink:href="#AppleSDGothicNeo-Regular-20" transform="translate(458.799911 0)"/>
     <use xlink:href="#AppleSDGothicNeo-Regular-c815" transform="translate(485.099899 0)"/>
     <use xlink:href="#AppleSDGothicNeo-Regular-bcf4" transform="translate(571.599884 0)"/>
     <use xlink:href="#AppleSDGothicNeo-Regular-b97c" transform="translate(658.099869 0)"/>
    </g>
    <!-- 자신있게 답함 -->
    <g style="fill: #666666" transform="translate(91.417118 216.017049) scale(0.08 -0.08)">
     <defs>
      <path id="AppleSDGothicNeo-Regular-c790" d="M 3558 1229 
C 2790 1664 2106 2541 2106 3584 
L 2106 4147 
L 3398 4147 
L 3398 4557 
L 307 4557 
L 307 4147 
L 1600 4147 
L 1600 3571 
C 1600 2566 954 1581 128 1094 
L 448 730 
C 1120 1197 1664 1888 1856 2566 
C 2054 1901 2739 1197 3264 864 
L 3558 1229 
z
M 5453 2464 
L 5453 2874 
L 4544 2874 
L 4544 5146 
L 4058 5146 
L 4058 -448 
L 4544 -448 
L 4544 2464 
L 5453 2464 
z
" transform="scale(0.015625)"/>
      <path id="AppleSDGothicNeo-Regular-c2e0" d="M 4813 1082 
L 4813 5146 
L 4326 5146 
L 4326 1082 
L 4813 1082 
z
M 3622 2355 
C 2957 2592 2202 3283 2202 4218 
L 2202 4826 
L 1709 4826 
L 1709 4205 
C 1709 3309 986 2490 250 2163 
L 544 1779 
C 1152 2086 1798 2733 1965 3334 
C 2195 2746 2771 2214 3347 1965 
L 3622 2355 
z
M 4934 -275 
L 4934 128 
L 1690 128 
L 1690 1446 
L 1203 1446 
L 1203 -275 
L 4934 -275 
z
" transform="scale(0.015625)"/>
      <path id="AppleSDGothicNeo-Regular-c788" d="M 4813 1894 
L 4813 5146 
L 4326 5146 
L 4326 1894 
L 4813 1894 
z
M 5056 -461 
L 5350 -115 
C 4819 83 4262 698 4262 1389 
L 4262 1709 
L 3776 1709 
L 3776 1370 
C 3776 691 3258 83 2656 -211 
L 2963 -538 
C 3418 -314 3885 192 4026 614 
C 4160 211 4666 -275 5050 -461 
L 5056 -461 
z
M 2976 307 
C 2547 474 2150 864 2150 1459 
L 2150 1690 
L 1664 1690 
L 1664 1414 
C 1664 736 1101 122 531 -128 
L 826 -474 
C 1306 -243 1798 294 1933 717 
C 2061 410 2362 122 2643 -26 
L 2976 307 
z
M 1830 4832 
C 1037 4832 378 4294 378 3482 
C 378 2669 1037 2157 1830 2157 
C 2624 2157 3277 2669 3277 3488 
C 3277 4294 2624 4832 1830 4832 
z
M 1830 4435 
C 2419 4435 2810 4038 2810 3482 
C 2810 2931 2413 2554 1830 2554 
C 1267 2554 851 2931 851 3488 
C 851 4038 1267 4435 1830 4435 
z
" transform="scale(0.015625)"/>
      <path id="AppleSDGothicNeo-Regular-ac8c" d="M 4960 -448 
L 4960 5146 
L 4480 5146 
L 4480 -448 
L 4960 -448 
z
M 3872 -166 
L 3872 5011 
L 3405 5011 
L 3405 2970 
L 2464 2970 
L 2464 2560 
L 3405 2560 
L 3405 -166 
L 3872 -166 
z
M 2605 4493 
L 403 4493 
L 403 4083 
L 2106 4083 
C 2048 2944 1357 1766 186 1107 
L 518 749 
C 1837 1600 2566 2829 2605 4493 
z
" transform="scale(0.015625)"/>
      <path id="AppleSDGothicNeo-Regular-b2f5" d="M 5389 3418 
L 5389 3827 
L 4538 3827 
L 4538 5146 
L 4051 5146 
L 4051 2144 
L 4538 2144 
L 4538 3418 
L 5389 3418 
z
M 4538 -371 
L 4538 1856 
L 4058 1856 
L 4058 1133 
L 1510 1133 
L 1510 1837 
L 1024 1837 
L 1024 -371 
L 4538 -371 
z
M 4058 32 
L 1510 32 
L 1510 742 
L 4058 742 
L 4058 32 
z
M 947 2803 
L 947 4365 
L 2957 4365 
L 2957 4774 
L 454 4774 
L 454 2400 
L 915 2400 
C 1875 2400 2848 2483 3462 2592 
L 3424 2995 
C 2880 2886 1997 2803 1222 2803 
L 947 2803 
z
" transform="scale(0.015625)"/>
      <path id="AppleSDGothicNeo-Regular-d568" d="M 5395 3091 
L 5395 3501 
L 4544 3501 
L 4544 5146 
L 4058 5146 
L 4058 1664 
L 4544 1664 
L 4544 3091 
L 5395 3091 
z
M 4544 -371 
L 4544 1376 
L 1005 1376 
L 1005 -371 
L 4544 -371 
z
M 4058 32 
L 1491 32 
L 1491 979 
L 4058 979 
L 4058 32 
z
M 2630 4614 
L 2630 5024 
L 1062 5024 
L 1062 4614 
L 2630 4614 
z
M 3475 3814 
L 3475 4218 
L 218 4218 
L 218 3814 
L 3475 3814 
z
M 3142 2650 
C 3142 3226 2579 3571 1843 3571 
C 1094 3571 544 3226 544 2650 
C 544 2086 1101 1728 1843 1728 
C 2579 1728 3142 2093 3142 2650 
z
M 2662 2650 
C 2662 2310 2278 2106 1843 2106 
C 1414 2106 1011 2310 1011 2650 
C 1011 2995 1408 3194 1843 3194 
C 2278 3194 2662 2995 2662 2650 
z
" transform="scale(0.015625)"/>
     </defs>
     <use xlink:href="#AppleSDGothicNeo-Regular-c790"/>
     <use xlink:href="#AppleSDGothicNeo-Regular-c2e0" transform="translate(86.499985 0)"/>
     <use xlink:href="#AppleSDGothicNeo-Regular-c788" transform="translate(172.999969 0)"/>
     <use xlink:href="#AppleSDGothicNeo-Regular-ac8c" transform="translate(259.499954 0)"/>
     <use xlink:href="#AppleSDGothicNeo-Regular-20" transform="translate(345.999939 0)"/>
     <use xlink:href="#AppleSDGothicNeo-Regular-b2f5" transform="translate(372.299927 0)"/>
     <use xlink:href="#AppleSDGothicNeo-Regular-d568" transform="translate(458.799911 0)"/>
    </g>
   </g>
   <g id="text_3">
    <!-- 최신 정보 -->
    <g style="fill: #e07050" transform="translate(187.876125 134.16196) scale(0.09 -0.09)">
     <defs>
      <path id="AppleSDGothicNeo-Regular-cd5c" d="M 518 3578 
L 1837 3578 
L 1837 3565 
C 1837 2906 1152 2298 352 2093 
L 582 1702 
C 1261 1914 1939 2464 2086 2938 
C 2310 2451 3014 2003 3610 1862 
L 3814 2253 
C 3078 2387 2336 2938 2336 3558 
L 2336 3578 
L 3693 3578 
L 3693 3981 
L 518 3981 
L 518 3578 
z
M 4864 -448 
L 4864 5146 
L 4378 5146 
L 4378 -448 
L 4864 -448 
z
M 4058 762 
L 4019 1165 
C 3661 1114 2970 1069 2342 1043 
L 2342 2125 
L 1856 2125 
L 1856 1018 
C 1261 992 698 986 269 992 
L 352 563 
C 826 563 1453 582 2074 621 
C 2758 659 3616 717 4058 762 
z
M 1299 4512 
L 2854 4512 
L 2854 4947 
L 1299 4947 
L 1299 4512 
z
" transform="scale(0.015625)"/>
     </defs>
     <use xlink:href="#AppleSDGothicNeo-Regular-cd5c"/>
     <use xlink:href="#AppleSDGothicNeo-Regular-c2e0" transform="translate(86.499985 0)"/>
     <use xlink:href="#AppleSDGothicNeo-Regular-20" transform="translate(172.999969 0)"/>
     <use xlink:href="#AppleSDGothicNeo-Regular-c815" transform="translate(199.299957 0)"/>
     <use xlink:href="#AppleSDGothicNeo-Regular-bcf4" transform="translate(285.799942 0)"/>
    </g>
    <!-- 부족 -->
    <g style="fill: #e07050" transform="translate(196.844484 143.30146) scale(0.09 -0.09)">
     <defs>
      <path id="AppleSDGothicNeo-Regular-bd80" d="M 4678 2464 
L 4678 4928 
L 4192 4928 
L 4192 4102 
L 1344 4102 
L 1344 4928 
L 851 4928 
L 851 2464 
L 4678 2464 
z
M 3002 -454 
L 3002 1389 
L 5293 1389 
L 5293 1798 
L 243 1798 
L 243 1389 
L 2515 1389 
L 2515 -454 
L 3002 -454 
z
M 4192 2867 
L 1344 2867 
L 1344 3706 
L 4192 3706 
L 4192 2867 
z
" transform="scale(0.015625)"/>
      <path id="AppleSDGothicNeo-Regular-c871" d="M 5043 3309 
C 4256 3379 3194 3834 3046 4518 
L 4832 4518 
L 4832 4922 
L 704 4922 
L 704 4518 
L 2502 4518 
C 2355 3840 1389 3386 506 3302 
L 730 2893 
C 1715 3040 2547 3539 2765 4058 
C 3046 3546 3885 3053 4819 2899 
L 5043 3309 
z
M 5293 1965 
L 5293 2374 
L 2995 2374 
L 2995 3258 
L 2509 3258 
L 2509 2374 
L 243 2374 
L 243 1965 
L 5293 1965 
z
M 819 1382 
L 819 979 
L 4160 979 
L 4160 -486 
L 4646 -486 
L 4646 1382 
L 819 1382 
z
" transform="scale(0.015625)"/>
     </defs>
     <use xlink:href="#AppleSDGothicNeo-Regular-bd80"/>
     <use xlink:href="#AppleSDGothicNeo-Regular-c871" transform="translate(86.499985 0)"/>
    </g>
   </g>
   <g id="text_4">
    <!-- 학습 데이터 이후 -->
    <g style="fill: #666666" transform="translate(178.305734 207.731799) scale(0.08 -0.08)">
     <defs>
      <path id="AppleSDGothicNeo-Regular-d559" d="M 5395 3098 
L 5395 3507 
L 4544 3507 
L 4544 5146 
L 4058 5146 
L 4058 1677 
L 4544 1677 
L 4544 3098 
L 5395 3098 
z
M 2630 4608 
L 2630 5024 
L 1018 5024 
L 1018 4608 
L 2630 4608 
z
M 3424 3814 
L 3424 4218 
L 218 4218 
L 218 3814 
L 3424 3814 
z
M 3085 2624 
C 3085 3194 2541 3552 1811 3552 
C 1075 3552 538 3194 538 2624 
C 538 2061 1082 1696 1811 1696 
C 2541 1696 3085 2067 3085 2624 
z
M 2598 2624 
C 2598 2291 2240 2086 1811 2086 
C 1395 2086 1018 2291 1018 2624 
C 1018 2957 1389 3162 1811 3162 
C 2240 3162 2598 2957 2598 2624 
z
M 922 1370 
L 922 966 
L 4058 966 
L 4058 -448 
L 4544 -448 
L 4544 1370 
L 922 1370 
z
" transform="scale(0.015625)"/>
      <path id="AppleSDGothicNeo-Regular-c2b5" d="M 5030 3418 
C 4166 3514 3027 4109 3027 4896 
L 3027 5075 
L 2522 5075 
L 2522 4896 
C 2522 4109 1402 3514 525 3418 
L 755 2995 
C 1600 3162 2528 3686 2771 4269 
C 3046 3686 3955 3155 4800 2995 
L 5030 3418 
z
M 5293 2144 
L 5293 2554 
L 243 2554 
L 243 2144 
L 5293 2144 
z
M 4653 -371 
L 4653 1754 
L 4160 1754 
L 4160 1094 
L 1376 1094 
L 1376 1747 
L 890 1747 
L 890 -371 
L 4653 -371 
z
M 4160 32 
L 1376 32 
L 1376 698 
L 4160 698 
L 4160 32 
z
" transform="scale(0.015625)"/>
      <path id="AppleSDGothicNeo-Regular-b370" d="M 4960 -448 
L 4960 5146 
L 4480 5146 
L 4480 -448 
L 4960 -448 
z
M 3366 2573 
L 3366 -160 
L 3846 -160 
L 3846 5011 
L 3366 5011 
L 3366 2982 
L 2067 2982 
L 2067 2573 
L 3366 2573 
z
M 915 1363 
L 915 4064 
L 2656 4064 
L 2656 4467 
L 429 4467 
L 429 947 
L 1043 947 
C 1792 960 2419 1024 2944 1114 
L 2886 1530 
C 2368 1421 1594 1325 915 1363 
z
" transform="scale(0.015625)"/>
      <path id="AppleSDGothicNeo-Regular-d130" d="M 922 1267 
L 922 2682 
L 2861 2682 
L 2861 3078 
L 922 3078 
L 922 4237 
L 3085 4237 
L 3085 4640 
L 435 4640 
L 435 851 
L 1011 851 
C 1997 851 2938 934 3552 1050 
L 3494 1459 
C 2938 1338 1965 1267 1043 1267 
L 922 1267 
z
M 4819 -448 
L 4819 5146 
L 4333 5146 
L 4333 3002 
L 3226 3002 
L 3226 2586 
L 4333 2586 
L 4333 -448 
L 4819 -448 
z
" transform="scale(0.015625)"/>
      <path id="AppleSDGothicNeo-Regular-d6c4" d="M 4493 2714 
C 4493 3302 3763 3571 2771 3571 
C 1786 3571 1050 3302 1050 2714 
C 1050 2138 1786 1862 2771 1862 
C 3763 1862 4493 2138 4493 2714 
z
M 3008 -454 
L 3008 1146 
L 5293 1146 
L 5293 1555 
L 243 1555 
L 243 1146 
L 2522 1146 
L 2522 -454 
L 3008 -454 
z
M 5024 3814 
L 5024 4224 
L 531 4224 
L 531 3814 
L 5024 3814 
z
M 3987 2714 
C 3987 2387 3334 2266 2771 2266 
C 2221 2266 1555 2387 1555 2714 
C 1555 3059 2221 3168 2771 3168 
C 3334 3168 3987 3059 3987 2714 
z
M 3706 4646 
L 3706 5062 
L 1837 5062 
L 1837 4646 
L 3706 4646 
z
" transform="scale(0.015625)"/>
     </defs>
     <use xlink:href="#AppleSDGothicNeo-Regular-d559"/>
     <use xlink:href="#AppleSDGothicNeo-Regular-c2b5" transform="translate(86.499985 0)"/>
     <use xlink:href="#AppleSDGothicNeo-Regular-20" transform="translate(172.999969 0)"/>
     <use xlink:href="#AppleSDGothicNeo-Regular-b370" transform="translate(199.299957 0)"/>
     <use xlink:href="#AppleSDGothicNeo-Regular-c774" transform="translate(285.799942 0)"/>
     <use xlink:href="#AppleSDGothicNeo-Regular-d130" transform="translate(372.299927 0)"/>
     <use xlink:href="#AppleSDGothicNeo-Regular-20" transform="translate(458.799911 0)"/>
     <use xlink:href="#AppleSDGothicNeo-Regular-c774" transform="translate(485.099899 0)"/>
     <use xlink:href="#AppleSDGothicNeo-Regular-d6c4" transform="translate(571.599884 0)"/>
    </g>
    <!-- 정보를 모름 -->
    <g style="fill: #666666" transform="translate(186.277609 215.953299) scale(0.08 -0.08)">
     <defs>
      <path id="AppleSDGothicNeo-Regular-baa8" d="M 5293 262 
L 5293 672 
L 3002 672 
L 3002 2010 
L 4672 2010 
L 4672 4646 
L 851 4646 
L 851 2010 
L 2515 2010 
L 2515 672 
L 243 672 
L 243 262 
L 5293 262 
z
M 4186 2413 
L 1338 2413 
L 1338 4243 
L 4186 4243 
L 4186 2413 
z
" transform="scale(0.015625)"/>
      <path id="AppleSDGothicNeo-Regular-b984" d="M 4723 2694 
L 4723 3078 
L 1402 3078 
L 1402 3654 
L 4614 3654 
L 4614 4947 
L 890 4947 
L 890 4563 
L 4128 4563 
L 4128 4019 
L 915 4019 
L 915 2694 
L 4723 2694 
z
M 5293 1805 
L 5293 2202 
L 243 2202 
L 243 1805 
L 5293 1805 
z
M 4646 -371 
L 4646 1299 
L 890 1299 
L 890 -371 
L 4646 -371 
z
M 4160 13 
L 1376 13 
L 1376 915 
L 4160 915 
L 4160 13 
z
" transform="scale(0.015625)"/>
     </defs>
     <use xlink:href="#AppleSDGothicNeo-Regular-c815"/>
     <use xlink:href="#AppleSDGothicNeo-Regular-bcf4" transform="translate(86.499985 0)"/>
     <use xlink:href="#AppleSDGothicNeo-Regular-b97c" transform="translate(172.999969 0)"/>
     <use xlink:href="#AppleSDGothicNeo-Regular-20" transform="translate(259.499954 0)"/>
     <use xlink:href="#AppleSDGothicNeo-Regular-baa8" transform="translate(285.799942 0)"/>
     <use xlink:href="#AppleSDGothicNeo-Regular-b984" transform="translate(372.299927 0)"/>
    </g>
   </g>
   <g id="text_5">
    <!-- 개인 경험 -->
    <g style="fill: #4080c0" transform="translate(279.276616 134.102054) scale(0.09 -0.09)">
     <defs>
      <path id="AppleSDGothicNeo-Regular-ac1c" d="M 4960 -448 
L 4960 5146 
L 4480 5146 
L 4480 2944 
L 3750 2944 
L 3750 5011 
L 3270 5011 
L 3270 -166 
L 3750 -166 
L 3750 2541 
L 4480 2541 
L 4480 -448 
L 4960 -448 
z
M 2656 4486 
L 416 4486 
L 416 4077 
L 2144 4077 
C 2093 2938 1408 1747 224 1075 
L 550 717 
C 1875 1517 2637 2822 2656 4486 
z
" transform="scale(0.015625)"/>
      <path id="AppleSDGothicNeo-Regular-c778" d="M 4813 1062 
L 4813 5146 
L 4326 5146 
L 4326 1062 
L 4813 1062 
z
M 4954 -262 
L 4954 141 
L 1651 141 
L 1651 1466 
L 1165 1466 
L 1165 -262 
L 4954 -262 
z
M 1869 4774 
C 1024 4774 365 4205 365 3373 
C 365 2541 1024 1990 1875 1990 
C 2726 1990 3379 2547 3379 3379 
C 3379 4211 2720 4774 1869 4774 
z
M 1869 4352 
C 2490 4352 2918 3949 2918 3373 
C 2918 2816 2490 2419 1875 2419 
C 1286 2419 832 2816 832 3379 
C 832 3949 1280 4352 1869 4352 
z
" transform="scale(0.015625)"/>
      <path id="AppleSDGothicNeo-Regular-acbd" d="M 4858 640 
C 4858 1286 4166 1696 2957 1696 
C 1734 1696 1050 1286 1050 640 
C 1050 -13 1734 -422 2957 -422 
C 4166 -422 4858 -13 4858 640 
z
M 2957 1286 
C 3840 1286 4358 1050 4358 640 
C 4358 224 3840 -19 2957 -19 
C 2074 -19 1555 224 1555 640 
C 1555 1050 2074 1286 2957 1286 
z
M 3091 2560 
L 4326 2560 
L 4326 1613 
L 4813 1613 
L 4813 5146 
L 4326 5146 
L 4326 4134 
L 3181 4134 
L 3181 3731 
L 4326 3731 
L 4326 2963 
L 3091 2963 
L 3091 2560 
z
M 3123 4710 
L 550 4710 
L 550 4294 
L 2573 4294 
C 2406 3347 1459 2419 307 2099 
L 550 1683 
C 2029 2202 3040 3302 3123 4710 
z
" transform="scale(0.015625)"/>
      <path id="AppleSDGothicNeo-Regular-d5d8" d="M 4819 -365 
L 4819 1389 
L 1203 1389 
L 1203 -365 
L 4819 -365 
z
M 4333 38 
L 1690 38 
L 1690 986 
L 4333 986 
L 4333 38 
z
M 4813 1690 
L 4813 5146 
L 4326 5146 
L 4326 3341 
L 3366 3341 
L 3366 2938 
L 4326 2938 
L 4326 1690 
L 4813 1690 
z
M 2688 4614 
L 2688 5024 
L 1082 5024 
L 1082 4614 
L 2688 4614 
z
M 3501 3821 
L 3501 4218 
L 237 4218 
L 237 3821 
L 3501 3821 
z
M 3206 2650 
C 3206 3226 2637 3571 1882 3571 
C 1126 3571 557 3226 557 2650 
C 557 2086 1133 1728 1882 1728 
C 2637 1728 3206 2093 3206 2650 
z
M 2726 2650 
C 2726 2310 2330 2106 1882 2106 
C 1453 2106 1037 2310 1037 2650 
C 1037 2995 1446 3194 1882 3194 
C 2330 3194 2726 2995 2726 2650 
z
" transform="scale(0.015625)"/>
     </defs>
     <use xlink:href="#AppleSDGothicNeo-Regular-ac1c"/>
     <use xlink:href="#AppleSDGothicNeo-Regular-c778" transform="translate(86.499985 0)"/>
     <use xlink:href="#AppleSDGothicNeo-Regular-20" transform="translate(172.999969 0)"/>
     <use xlink:href="#AppleSDGothicNeo-Regular-acbd" transform="translate(199.299957 0)"/>
     <use xlink:href="#AppleSDGothicNeo-Regular-d5d8" transform="translate(285.799942 0)"/>
    </g>
    <!-- 부재 -->
    <g style="fill: #4080c0" transform="translate(288.244975 143.361366) scale(0.09 -0.09)">
     <defs>
      <path id="AppleSDGothicNeo-Regular-c7ac" d="M 4960 -448 
L 4960 5146 
L 4480 5146 
L 4480 2899 
L 3789 2899 
L 3789 5011 
L 3322 5011 
L 3322 -166 
L 3789 -166 
L 3789 2496 
L 4480 2496 
L 4480 -448 
L 4960 -448 
z
M 3059 1261 
C 2470 1626 1882 2413 1882 3520 
L 1882 4070 
L 2957 4070 
L 2957 4474 
L 288 4474 
L 288 4070 
L 1402 4070 
L 1402 3501 
C 1402 2419 813 1536 154 1114 
L 480 768 
C 1024 1158 1530 1818 1645 2438 
C 1805 1850 2355 1178 2752 902 
L 3059 1261 
z
" transform="scale(0.015625)"/>
     </defs>
     <use xlink:href="#AppleSDGothicNeo-Regular-bd80"/>
     <use xlink:href="#AppleSDGothicNeo-Regular-c7ac" transform="translate(86.499985 0)"/>
    </g>
   </g>
   <g id="text_6">
    <!-- 자기만의 경험이나 -->
    <g style="fill: #666666" transform="translate(267.2981 207.713799) scale(0.08 -0.08)">
     <defs>
      <path id="AppleSDGothicNeo-Regular-ae30" d="M 4813 -448 
L 4813 5146 
L 4326 5146 
L 4326 -448 
L 4813 -448 
z
M 3168 4550 
L 506 4550 
L 506 4141 
L 2650 4141 
C 2547 2880 1715 1664 301 1043 
L 582 659 
C 2029 1344 3142 2733 3168 4550 
z
" transform="scale(0.015625)"/>
      <path id="AppleSDGothicNeo-Regular-b9cc" d="M 3085 2061 
L 3085 4653 
L 435 4653 
L 435 2061 
L 3085 2061 
z
M 2598 2464 
L 922 2464 
L 922 4250 
L 2598 4250 
L 2598 2464 
z
M 5395 3066 
L 5395 3475 
L 4544 3475 
L 4544 5146 
L 4058 5146 
L 4058 1082 
L 4544 1082 
L 4544 3066 
L 5395 3066 
z
M 4762 -256 
L 4762 147 
L 1530 147 
L 1530 1466 
L 1043 1466 
L 1043 -256 
L 4762 -256 
z
" transform="scale(0.015625)"/>
      <path id="AppleSDGothicNeo-Regular-c758" d="M 4352 5146 
L 4352 -448 
L 4838 -448 
L 4838 5146 
L 4352 5146 
z
M 3469 3379 
C 3469 4198 2842 4710 2016 4710 
C 1203 4710 557 4166 557 3379 
C 557 2630 1190 2080 2016 2080 
C 2822 2080 3469 2586 3469 3379 
z
M 2995 3379 
C 2995 2854 2547 2490 2016 2490 
C 1472 2490 1030 2861 1030 3379 
C 1030 3904 1478 4294 2016 4294 
C 2560 4294 2995 3942 2995 3379 
z
M 4026 973 
L 3981 1370 
C 3571 1318 2848 1274 2067 1248 
C 1389 1210 730 1197 250 1203 
L 339 774 
C 762 781 1376 800 2035 832 
C 2746 864 3546 915 4026 973 
z
" transform="scale(0.015625)"/>
      <path id="AppleSDGothicNeo-Regular-b098" d="M 3578 1632 
C 2970 1485 1875 1402 915 1395 
L 915 4589 
L 429 4589 
L 429 966 
L 768 966 
C 1619 966 2963 1062 3648 1222 
L 3578 1632 
z
M 4538 5146 
L 4051 5146 
L 4051 -448 
L 4538 -448 
L 4538 2509 
L 5453 2509 
L 5453 2925 
L 4538 2925 
L 4538 5146 
z
" transform="scale(0.015625)"/>
     </defs>
     <use xlink:href="#AppleSDGothicNeo-Regular-c790"/>
     <use xlink:href="#AppleSDGothicNeo-Regular-ae30" transform="translate(86.499985 0)"/>
     <use xlink:href="#AppleSDGothicNeo-Regular-b9cc" transform="translate(172.999969 0)"/>
     <use xlink:href="#AppleSDGothicNeo-Regular-c758" transform="translate(259.499954 0)"/>
     <use xlink:href="#AppleSDGothicNeo-Regular-20" transform="translate(345.999939 0)"/>
     <use xlink:href="#AppleSDGothicNeo-Regular-acbd" transform="translate(372.299927 0)"/>
     <use xlink:href="#AppleSDGothicNeo-Regular-d5d8" transform="translate(458.799911 0)"/>
     <use xlink:href="#AppleSDGothicNeo-Regular-c774" transform="translate(545.299896 0)"/>
     <use xlink:href="#AppleSDGothicNeo-Regular-b098" transform="translate(631.799881 0)"/>
    </g>
    <!-- 감정이 없음 -->
    <g style="fill: #666666" transform="translate(277.6781 215.963799) scale(0.08 -0.08)">
     <defs>
      <path id="AppleSDGothicNeo-Regular-ac10" d="M 5395 3270 
L 5395 3674 
L 4544 3674 
L 4544 5146 
L 4058 5146 
L 4058 1914 
L 4544 1914 
L 4544 3270 
L 5395 3270 
z
M 4544 -371 
L 4544 1626 
L 1030 1626 
L 1030 -371 
L 4544 -371 
z
M 4058 32 
L 1517 32 
L 1517 1222 
L 4058 1222 
L 4058 32 
z
M 461 4717 
L 461 4307 
L 2490 4307 
C 2355 3296 1286 2496 186 2266 
L 410 1862 
C 1837 2272 2957 3181 3040 4717 
L 461 4717 
z
" transform="scale(0.015625)"/>
      <path id="AppleSDGothicNeo-Regular-c5c6" d="M 4813 2138 
L 4813 5146 
L 4326 5146 
L 4326 3814 
L 3386 3814 
L 3386 3411 
L 4326 3411 
L 4326 2138 
L 4813 2138 
z
M 5363 -83 
C 4762 205 4378 781 4378 1389 
L 4378 1862 
L 3904 1862 
L 3904 1389 
C 3904 794 3578 179 2944 -109 
L 3213 -467 
C 3654 -230 4032 230 4134 602 
C 4256 224 4666 -205 5075 -442 
L 5363 -83 
z
M 2810 -371 
L 2810 1798 
L 2349 1798 
L 2349 1101 
L 1363 1101 
L 1363 1798 
L 902 1798 
L 902 -371 
L 2810 -371 
z
M 2349 13 
L 1363 13 
L 1363 730 
L 2349 730 
L 2349 13 
z
M 1728 4870 
C 941 4870 288 4346 288 3558 
C 288 2765 947 2266 1728 2266 
C 2515 2266 3162 2765 3162 3565 
C 3162 4358 2515 4870 1728 4870 
z
M 1728 4448 
C 2304 4448 2675 4083 2675 3558 
C 2675 3027 2298 2669 1728 2669 
C 1178 2669 774 3027 774 3565 
C 774 4090 1178 4448 1728 4448 
z
" transform="scale(0.015625)"/>
      <path id="AppleSDGothicNeo-Regular-c74c" d="M 5293 2035 
L 5293 2445 
L 243 2445 
L 243 2035 
L 5293 2035 
z
M 4678 -371 
L 4678 1453 
L 864 1453 
L 864 -371 
L 4678 -371 
z
M 4192 32 
L 1350 32 
L 1350 1056 
L 4192 1056 
L 4192 32 
z
M 4723 3949 
C 4723 4582 3994 4998 2765 4998 
C 1542 4998 819 4582 819 3949 
C 819 3315 1542 2899 2765 2899 
C 3994 2899 4723 3315 4723 3949 
z
M 4250 3949 
C 4250 3539 3661 3290 2765 3290 
C 1869 3290 1293 3539 1293 3949 
C 1293 4365 1869 4608 2765 4608 
C 3661 4608 4250 4365 4250 3949 
z
" transform="scale(0.015625)"/>
     </defs>
     <use xlink:href="#AppleSDGothicNeo-Regular-ac10"/>
     <use xlink:href="#AppleSDGothicNeo-Regular-c815" transform="translate(86.499985 0)"/>
     <use xlink:href="#AppleSDGothicNeo-Regular-c774" transform="translate(172.999969 0)"/>
     <use xlink:href="#AppleSDGothicNeo-Regular-20" transform="translate(259.499954 0)"/>
     <use xlink:href="#AppleSDGothicNeo-Regular-c5c6" transform="translate(285.799942 0)"/>
     <use xlink:href="#AppleSDGothicNeo-Regular-c74c" transform="translate(372.299927 0)"/>
    </g>
   </g>
   <g id="text_7">
    <!-- 수학적 -->
    <g style="fill: #9060b0" transform="translate(375.752967 134.106272) scale(0.09 -0.09)">
     <defs>
      <path id="AppleSDGothicNeo-Regular-c218" d="M 3002 -454 
L 3002 1574 
L 5293 1574 
L 5293 1984 
L 243 1984 
L 243 1574 
L 2515 1574 
L 2515 -454 
L 3002 -454 
z
M 5088 2995 
C 4102 3117 3027 3834 3027 4595 
L 3027 4954 
L 2515 4954 
L 2515 4595 
C 2515 3834 1530 3123 454 2982 
L 691 2566 
C 1542 2733 2496 3277 2765 3930 
C 3104 3277 4019 2752 4858 2579 
L 5088 2995 
z
" transform="scale(0.015625)"/>
      <path id="AppleSDGothicNeo-Regular-c801" d="M 390 4301 
L 1664 4301 
C 1664 4192 1664 4038 1658 3968 
C 1632 3174 922 2464 218 2195 
L 480 1805 
C 1082 2067 1754 2739 1907 3264 
C 2138 2758 2720 2202 3258 1984 
L 3526 2374 
C 2886 2586 2208 3206 2163 3968 
C 2157 4038 2157 4186 2157 4301 
L 3405 4301 
L 3405 4710 
L 390 4710 
L 390 4301 
z
M 1088 1517 
L 1088 1114 
L 4326 1114 
L 4326 -448 
L 4819 -448 
L 4819 1517 
L 1088 1517 
z
M 4813 1811 
L 4813 5146 
L 4326 5146 
L 4326 3654 
L 3206 3654 
L 3206 3251 
L 4326 3251 
L 4326 1811 
L 4813 1811 
z
" transform="scale(0.015625)"/>
     </defs>
     <use xlink:href="#AppleSDGothicNeo-Regular-c218"/>
     <use xlink:href="#AppleSDGothicNeo-Regular-d559" transform="translate(86.499985 0)"/>
     <use xlink:href="#AppleSDGothicNeo-Regular-c801" transform="translate(172.999969 0)"/>
    </g>
    <!-- 추론 한계 -->
    <g style="fill: #9060b0" transform="translate(370.677107 143.365585) scale(0.09 -0.09)">
     <defs>
      <path id="AppleSDGothicNeo-Regular-cd94" d="M 5030 2579 
C 4179 2662 3181 3091 3040 3757 
L 4813 3757 
L 4813 4166 
L 717 4166 
L 717 3757 
L 2509 3757 
C 2362 3091 1414 2656 518 2566 
L 736 2157 
C 1702 2278 2509 2752 2765 3270 
C 3053 2758 3898 2298 4806 2170 
L 5030 2579 
z
M 3002 -454 
L 3002 1325 
L 5293 1325 
L 5293 1734 
L 243 1734 
L 243 1325 
L 2515 1325 
L 2515 -454 
L 3002 -454 
z
M 3680 4653 
L 3680 5075 
L 1856 5075 
L 1856 4653 
L 3680 4653 
z
" transform="scale(0.015625)"/>
      <path id="AppleSDGothicNeo-Regular-b860" d="M 4762 2554 
L 4762 2944 
L 1357 2944 
L 1357 3571 
L 4653 3571 
L 4653 4909 
L 870 4909 
L 870 4525 
L 4160 4525 
L 4160 3936 
L 870 3936 
L 870 2554 
L 2515 2554 
L 2515 1907 
L 243 1907 
L 243 1504 
L 5293 1504 
L 5293 1907 
L 3002 1907 
L 3002 2554 
L 4762 2554 
z
M 4717 -275 
L 4717 134 
L 1363 134 
L 1363 1165 
L 877 1165 
L 877 -275 
L 4717 -275 
z
" transform="scale(0.015625)"/>
      <path id="AppleSDGothicNeo-Regular-d55c" d="M 5395 2842 
L 5395 3251 
L 4544 3251 
L 4544 5146 
L 4058 5146 
L 4058 1018 
L 4544 1018 
L 4544 2842 
L 5395 2842 
z
M 4762 -269 
L 4762 141 
L 1523 141 
L 1523 1165 
L 1037 1165 
L 1037 -269 
L 4762 -269 
z
M 2630 4518 
L 2630 4947 
L 1018 4947 
L 1018 4518 
L 2630 4518 
z
M 3494 3693 
L 3494 4096 
L 218 4096 
L 218 3693 
L 3494 3693 
z
M 3174 2413 
C 3174 3014 2611 3392 1856 3392 
C 1107 3392 544 3014 544 2413 
C 544 1824 1114 1434 1856 1434 
C 2611 1434 3174 1824 3174 2413 
z
M 2714 2413 
C 2714 2048 2310 1824 1856 1824 
C 1408 1824 1005 2048 1005 2413 
C 1005 2784 1408 3008 1856 3008 
C 2310 3008 2714 2784 2714 2413 
z
" transform="scale(0.015625)"/>
      <path id="AppleSDGothicNeo-Regular-acc4" d="M 3898 -166 
L 3898 5011 
L 3424 5011 
L 3424 3610 
L 2598 3610 
L 2598 3200 
L 3424 3200 
L 3424 2176 
L 2470 2176 
L 2470 1773 
L 3424 1773 
L 3424 -166 
L 3898 -166 
z
M 4960 -448 
L 4960 5146 
L 4480 5146 
L 4480 -448 
L 4960 -448 
z
M 2534 4448 
L 416 4448 
L 416 4038 
L 2048 4038 
C 1971 2874 1370 1747 205 1114 
L 525 749 
C 1818 1574 2496 2739 2534 4448 
z
" transform="scale(0.015625)"/>
     </defs>
     <use xlink:href="#AppleSDGothicNeo-Regular-cd94"/>
     <use xlink:href="#AppleSDGothicNeo-Regular-b860" transform="translate(86.499985 0)"/>
     <use xlink:href="#AppleSDGothicNeo-Regular-20" transform="translate(172.999969 0)"/>
     <use xlink:href="#AppleSDGothicNeo-Regular-d55c" transform="translate(199.299957 0)"/>
     <use xlink:href="#AppleSDGothicNeo-Regular-acc4" transform="translate(285.799942 0)"/>
    </g>
   </g>
   <g id="text_8">
    <!-- 복잡한 계산에서 -->
    <g style="fill: #666666" transform="translate(362.158592 207.747299) scale(0.08 -0.08)">
     <defs>
      <path id="AppleSDGothicNeo-Regular-bcf5" d="M 4659 2893 
L 4659 5011 
L 4166 5011 
L 4166 4333 
L 1370 4333 
L 1370 5011 
L 883 5011 
L 883 2893 
L 2515 2893 
L 2515 2291 
L 243 2291 
L 243 1888 
L 5293 1888 
L 5293 2291 
L 3002 2291 
L 3002 2893 
L 4659 2893 
z
M 794 1331 
L 794 928 
L 4186 928 
L 4186 -486 
L 4672 -486 
L 4672 1331 
L 794 1331 
z
M 4166 3296 
L 1370 3296 
L 1370 3930 
L 4166 3930 
L 4166 3296 
z
" transform="scale(0.015625)"/>
      <path id="AppleSDGothicNeo-Regular-c7a1" d="M 4538 -384 
L 4538 1837 
L 4058 1837 
L 4058 1133 
L 1498 1133 
L 1498 1830 
L 1011 1830 
L 1011 -384 
L 4538 -384 
z
M 288 4358 
L 1574 4358 
C 1574 4275 1574 4198 1568 4134 
C 1542 3392 851 2675 147 2406 
L 422 2029 
C 1024 2285 1664 2899 1818 3424 
C 2029 2893 2637 2374 3168 2163 
L 3443 2554 
C 2803 2765 2118 3398 2074 4128 
C 2067 4198 2067 4275 2067 4358 
L 3315 4358 
L 3315 4768 
L 288 4768 
L 288 4358 
z
M 4058 19 
L 1498 19 
L 1498 736 
L 4058 736 
L 4058 19 
z
M 5389 3366 
L 5389 3770 
L 4538 3770 
L 4538 5146 
L 4051 5146 
L 4051 2125 
L 4538 2125 
L 4538 3366 
L 5389 3366 
z
" transform="scale(0.015625)"/>
      <path id="AppleSDGothicNeo-Regular-c0b0" d="M 5395 3027 
L 5395 3437 
L 4544 3437 
L 4544 5146 
L 4058 5146 
L 4058 1082 
L 4544 1082 
L 4544 3027 
L 5395 3027 
z
M 4742 -269 
L 4742 134 
L 1530 134 
L 1530 1472 
L 1043 1472 
L 1043 -269 
L 4742 -269 
z
M 3437 2374 
C 2765 2618 2042 3296 2042 4230 
L 2042 4845 
L 1549 4845 
L 1549 4211 
C 1549 3315 877 2509 134 2176 
L 435 1786 
C 1043 2093 1638 2739 1805 3334 
C 2035 2758 2566 2253 3155 1984 
L 3437 2374 
z
" transform="scale(0.015625)"/>
      <path id="AppleSDGothicNeo-Regular-c5d0" d="M 1562 4659 
C 749 4659 333 3866 333 2746 
C 333 1619 749 832 1562 832 
C 2330 832 2739 1517 2790 2528 
L 3392 2528 
L 3392 -179 
L 3866 -179 
L 3866 5037 
L 3392 5037 
L 3392 2931 
L 2790 2931 
C 2752 3949 2336 4659 1562 4659 
z
M 2310 2746 
C 2310 1837 2016 1261 1562 1261 
C 1114 1261 826 1837 826 2746 
C 826 3648 1114 4230 1562 4230 
C 2016 4230 2310 3648 2310 2746 
z
M 4960 -448 
L 4960 5146 
L 4480 5146 
L 4480 -448 
L 4960 -448 
z
" transform="scale(0.015625)"/>
      <path id="AppleSDGothicNeo-Regular-c11c" d="M 4832 -448 
L 4832 5146 
L 4346 5146 
L 4346 3149 
L 3040 3149 
L 3040 2739 
L 4346 2739 
L 4346 -448 
L 4832 -448 
z
M 3590 1261 
C 2822 1709 2157 2618 2157 3642 
L 2157 4659 
L 1651 4659 
L 1651 3622 
C 1651 2630 1005 1638 192 1126 
L 512 762 
C 1158 1229 1709 1920 1907 2618 
C 2131 1946 2778 1235 3290 890 
L 3590 1261 
z
" transform="scale(0.015625)"/>
     </defs>
     <use xlink:href="#AppleSDGothicNeo-Regular-bcf5"/>
     <use xlink:href="#AppleSDGothicNeo-Regular-c7a1" transform="translate(86.499985 0)"/>
     <use xlink:href="#AppleSDGothicNeo-Regular-d55c" transform="translate(172.999969 0)"/>
     <use xlink:href="#AppleSDGothicNeo-Regular-20" transform="translate(259.499954 0)"/>
     <use xlink:href="#AppleSDGothicNeo-Regular-acc4" transform="translate(285.799942 0)"/>
     <use xlink:href="#AppleSDGothicNeo-Regular-c0b0" transform="translate(372.299927 0)"/>
     <use xlink:href="#AppleSDGothicNeo-Regular-c5d0" transform="translate(458.799911 0)"/>
     <use xlink:href="#AppleSDGothicNeo-Regular-c11c" transform="translate(545.299896 0)"/>
    </g>
    <!-- 실수 -->
    <g style="fill: #666666" transform="translate(380.510467 215.977799) scale(0.08 -0.08)">
     <use xlink:href="#AppleSDGothicNeo-Regular-c2e4"/>
     <use xlink:href="#AppleSDGothicNeo-Regular-c218" transform="translate(86.499985 0)"/>
    </g>
   </g>
   <g id="text_9">
    <!-- 일관성 -->
    <g style="fill: #558838" transform="translate(467.153458 134.157741) scale(0.09 -0.09)">
     <defs>
      <path id="AppleSDGothicNeo-Regular-c77c" d="M 4813 2317 
L 4813 5146 
L 4326 5146 
L 4326 2317 
L 4813 2317 
z
M 5018 -371 
L 5018 26 
L 1677 26 
L 1677 666 
L 4813 666 
L 4813 2022 
L 1171 2022 
L 1171 1626 
L 4326 1626 
L 4326 1043 
L 1190 1043 
L 1190 -371 
L 5018 -371 
z
M 1850 4973 
C 1043 4973 390 4461 390 3706 
C 390 2944 1050 2458 1850 2458 
C 2650 2458 3296 2950 3296 3706 
C 3296 4467 2650 4973 1850 4973 
z
M 1850 4550 
C 2432 4550 2822 4205 2822 3706 
C 2822 3213 2432 2880 1850 2880 
C 1293 2880 864 3213 864 3712 
C 864 4211 1299 4550 1850 4550 
z
" transform="scale(0.015625)"/>
      <path id="AppleSDGothicNeo-Regular-ad00" d="M 5402 2938 
L 5402 3347 
L 4563 3347 
L 4563 5146 
L 4077 5146 
L 4077 947 
L 4563 947 
L 4563 2938 
L 5402 2938 
z
M 4787 -314 
L 4787 96 
L 1472 96 
L 1472 1318 
L 986 1318 
L 986 -314 
L 4787 -314 
z
M 3738 1952 
L 3686 2342 
C 3232 2266 2541 2221 1875 2195 
L 1875 3507 
L 1395 3507 
L 1395 2182 
C 979 2170 467 2170 147 2170 
L 211 1734 
C 666 1734 1344 1766 1920 1786 
C 2451 1811 3232 1875 3738 1952 
z
M 3309 4742 
L 486 4742 
L 486 4333 
L 2810 4333 
C 2822 3904 2765 3226 2662 2848 
L 3136 2771 
C 3251 3238 3328 4038 3309 4742 
z
" transform="scale(0.015625)"/>
      <path id="AppleSDGothicNeo-Regular-c131" d="M 4326 3456 
L 4326 1670 
L 4813 1670 
L 4813 5146 
L 4326 5146 
L 4326 3859 
L 3123 3859 
L 3123 3456 
L 4326 3456 
z
M 4870 614 
C 4870 1267 4198 1670 2995 1670 
C 1798 1670 1126 1267 1126 614 
C 1126 -38 1798 -442 2995 -442 
C 4198 -442 4870 -38 4870 614 
z
M 2995 1274 
C 3866 1274 4378 1030 4378 614 
C 4378 192 3866 -45 2995 -45 
C 2138 -45 1619 192 1619 614 
C 1619 1030 2138 1274 2995 1274 
z
M 3424 2483 
C 2790 2714 2054 3386 2054 4282 
L 2054 4826 
L 1562 4826 
L 1562 4269 
C 1562 3379 979 2662 173 2291 
L 474 1914 
C 1120 2240 1651 2829 1824 3405 
C 2042 2848 2598 2362 3136 2106 
L 3424 2483 
z
" transform="scale(0.015625)"/>
     </defs>
     <use xlink:href="#AppleSDGothicNeo-Regular-c77c"/>
     <use xlink:href="#AppleSDGothicNeo-Regular-ad00" transform="translate(86.499985 0)"/>
     <use xlink:href="#AppleSDGothicNeo-Regular-c131" transform="translate(172.999969 0)"/>
    </g>
    <!-- 부족 -->
    <g style="fill: #558838" transform="translate(471.045958 143.297241) scale(0.09 -0.09)">
     <use xlink:href="#AppleSDGothicNeo-Regular-bd80"/>
     <use xlink:href="#AppleSDGothicNeo-Regular-c871" transform="translate(86.499985 0)"/>
    </g>
   </g>
   <g id="text_10">
    <!-- 같은 질문에 -->
    <g style="fill: #666666" transform="translate(460.479083 207.728049) scale(0.08 -0.08)">
     <defs>
      <path id="AppleSDGothicNeo-Regular-ac19" d="M 5395 3334 
L 5395 3744 
L 4544 3744 
L 4544 5146 
L 4058 5146 
L 4058 2106 
L 4544 2106 
L 4544 3334 
L 5395 3334 
z
M 4710 -397 
L 4710 -19 
L 1504 -19 
L 1504 538 
L 4512 538 
L 4512 909 
L 1504 909 
L 1504 1427 
L 4582 1427 
L 4582 1811 
L 1018 1811 
L 1018 -397 
L 4710 -397 
z
M 429 4774 
L 429 4371 
L 2426 4371 
C 2234 3322 1382 2637 224 2317 
L 474 1926 
C 1888 2349 2854 3245 2982 4774 
L 429 4774 
z
" transform="scale(0.015625)"/>
      <path id="AppleSDGothicNeo-Regular-c740" d="M 5293 1862 
L 5293 2272 
L 243 2272 
L 243 1862 
L 5293 1862 
z
M 4723 -288 
L 4723 122 
L 1395 122 
L 1395 1344 
L 909 1344 
L 909 -288 
L 4723 -288 
z
M 4717 3885 
C 4717 4589 3987 4979 2771 4979 
C 1555 4979 826 4589 826 3885 
C 826 3168 1549 2778 2765 2778 
C 3987 2778 4717 3168 4717 3885 
z
M 2771 4576 
C 3661 4576 4237 4346 4237 3878 
C 4237 3424 3654 3187 2765 3187 
C 1882 3187 1312 3424 1312 3878 
C 1312 4346 1888 4576 2771 4576 
z
" transform="scale(0.015625)"/>
      <path id="AppleSDGothicNeo-Regular-c9c8" d="M 5018 -410 
L 5018 -6 
L 1651 -6 
L 1651 608 
L 4813 608 
L 4813 1952 
L 1158 1952 
L 1158 1555 
L 4326 1555 
L 4326 973 
L 1158 973 
L 1158 -410 
L 5018 -410 
z
M 454 4397 
L 1741 4397 
L 1741 4230 
C 1728 3488 1043 2784 262 2509 
L 538 2138 
C 1178 2394 1837 3014 1984 3539 
C 2214 3034 2803 2528 3341 2310 
L 3610 2688 
C 2970 2899 2253 3507 2246 4224 
L 2240 4397 
L 3552 4397 
L 3552 4806 
L 454 4806 
L 454 4397 
z
M 4813 2259 
L 4813 5146 
L 4326 5146 
L 4326 2259 
L 4813 2259 
z
" transform="scale(0.015625)"/>
      <path id="AppleSDGothicNeo-Regular-bb38" d="M 4659 2867 
L 4659 4838 
L 877 4838 
L 877 2867 
L 4659 2867 
z
M 4173 3270 
L 1363 3270 
L 1363 4435 
L 4173 4435 
L 4173 3270 
z
M 3021 736 
L 3021 1837 
L 5293 1837 
L 5293 2240 
L 243 2240 
L 243 1837 
L 2534 1837 
L 2534 736 
L 3021 736 
z
M 4723 -269 
L 4723 134 
L 1357 134 
L 1357 1312 
L 870 1312 
L 870 -269 
L 4723 -269 
z
" transform="scale(0.015625)"/>
     </defs>
     <use xlink:href="#AppleSDGothicNeo-Regular-ac19"/>
     <use xlink:href="#AppleSDGothicNeo-Regular-c740" transform="translate(86.499985 0)"/>
     <use xlink:href="#AppleSDGothicNeo-Regular-20" transform="translate(172.999969 0)"/>
     <use xlink:href="#AppleSDGothicNeo-Regular-c9c8" transform="translate(199.299957 0)"/>
     <use xlink:href="#AppleSDGothicNeo-Regular-bb38" transform="translate(285.799942 0)"/>
     <use xlink:href="#AppleSDGothicNeo-Regular-c5d0" transform="translate(372.299927 0)"/>
    </g>
    <!-- 다른 답변 -->
    <g style="fill: #666666" transform="translate(463.939083 215.949549) scale(0.08 -0.08)">
     <defs>
      <path id="AppleSDGothicNeo-Regular-b2e4" d="M 4557 5146 
L 4070 5146 
L 4070 -448 
L 4557 -448 
L 4557 2515 
L 5466 2515 
L 5466 2925 
L 4557 2925 
L 4557 5146 
z
M 954 1338 
L 954 4154 
L 3117 4154 
L 3117 4563 
L 461 4563 
L 461 922 
L 1011 922 
C 1984 922 3091 998 3693 1114 
L 3642 1517 
C 3104 1402 1997 1338 1274 1338 
L 954 1338 
z
" transform="scale(0.015625)"/>
      <path id="AppleSDGothicNeo-Regular-b978" d="M 4762 2470 
L 4762 2867 
L 1363 2867 
L 1363 3520 
L 4653 3520 
L 4653 4902 
L 877 4902 
L 877 4506 
L 4160 4506 
L 4160 3891 
L 877 3891 
L 877 2470 
L 4762 2470 
z
M 5293 1542 
L 5293 1946 
L 243 1946 
L 243 1542 
L 5293 1542 
z
M 4723 -282 
L 4723 122 
L 1357 122 
L 1357 1171 
L 870 1171 
L 870 -282 
L 4723 -282 
z
" transform="scale(0.015625)"/>
      <path id="AppleSDGothicNeo-Regular-bcc0" d="M 4813 5146 
L 4326 5146 
L 4326 4211 
L 3258 4211 
L 3258 3802 
L 4326 3802 
L 4326 2970 
L 3258 2970 
L 3258 2566 
L 4326 2566 
L 4326 1018 
L 4813 1018 
L 4813 5146 
z
M 4954 -262 
L 4954 147 
L 1696 147 
L 1696 1434 
L 1210 1434 
L 1210 -262 
L 4954 -262 
z
M 2950 1946 
L 2950 4774 
L 2458 4774 
L 2458 3750 
L 979 3750 
L 979 4774 
L 493 4774 
L 493 1946 
L 2950 1946 
z
M 2458 2349 
L 979 2349 
L 979 3347 
L 2458 3347 
L 2458 2349 
z
" transform="scale(0.015625)"/>
     </defs>
     <use xlink:href="#AppleSDGothicNeo-Regular-b2e4"/>
     <use xlink:href="#AppleSDGothicNeo-Regular-b978" transform="translate(86.499985 0)"/>
     <use xlink:href="#AppleSDGothicNeo-Regular-20" transform="translate(172.999969 0)"/>
     <use xlink:href="#AppleSDGothicNeo-Regular-b2f5" transform="translate(199.299957 0)"/>
     <use xlink:href="#AppleSDGothicNeo-Regular-bcc0" transform="translate(285.799942 0)"/>
    </g>
   </g>
   <g id="text_11">
    <!-- AI의 5가지 한계 -->
    <g style="fill: #333333" transform="translate(257.101562 32.35375) scale(0.14 -0.14)">
     <defs>
      <path id="AppleSDGothicNeo-Regular-41" d="M 122 269 
L 608 269 
L 1050 1523 
L 2771 1523 
L 3226 269 
L 3757 269 
L 2189 4563 
L 1696 4563 
L 122 269 
z
M 1901 3885 
L 1914 3885 
L 2611 1952 
L 1197 1952 
L 1901 3885 
z
" transform="scale(0.015625)"/>
      <path id="AppleSDGothicNeo-Regular-49" d="M 576 269 
L 1082 269 
L 1082 4563 
L 576 4563 
L 576 269 
z
" transform="scale(0.015625)"/>
      <path id="AppleSDGothicNeo-Regular-35" d="M 1395 192 
C 2342 192 2906 838 2906 1606 
C 2906 2509 2374 2918 1510 2918 
C 1331 2918 1069 2874 896 2829 
L 986 4134 
L 2752 4134 
L 2752 4570 
L 576 4570 
L 422 2317 
C 621 2406 1024 2528 1318 2528 
C 1990 2528 2374 2266 2374 1613 
C 2374 1005 1978 621 1299 621 
C 947 621 525 768 288 928 
L 192 518 
C 448 333 896 192 1395 192 
z
" transform="scale(0.015625)"/>
      <path id="AppleSDGothicNeo-Regular-ac00" d="M 4544 5146 
L 4058 5146 
L 4058 -448 
L 4544 -448 
L 4544 2400 
L 5459 2400 
L 5459 2816 
L 4544 2816 
L 4544 5146 
z
M 3091 4544 
L 461 4544 
L 461 4134 
L 2566 4134 
C 2464 2874 1664 1696 269 1050 
L 570 666 
C 2010 1414 3059 2726 3091 4544 
z
" transform="scale(0.015625)"/>
      <path id="AppleSDGothicNeo-Regular-c9c0" d="M 3699 1248 
C 2931 1664 2221 2566 2221 3610 
L 2221 4179 
L 3526 4179 
L 3526 4582 
L 410 4582 
L 410 4179 
L 1715 4179 
L 1715 3603 
C 1715 2547 1043 1594 224 1114 
L 525 755 
C 1171 1171 1786 1888 1971 2586 
C 2163 1926 2874 1222 3398 883 
L 3699 1248 
z
M 4346 5146 
L 4346 -448 
L 4832 -448 
L 4832 5146 
L 4346 5146 
z
" transform="scale(0.015625)"/>
     </defs>
     <use xlink:href="#AppleSDGothicNeo-Regular-41"/>
     <use xlink:href="#AppleSDGothicNeo-Regular-49" transform="translate(60.499985 0)"/>
     <use xlink:href="#AppleSDGothicNeo-Regular-c758" transform="translate(86.399979 0)"/>
     <use xlink:href="#AppleSDGothicNeo-Regular-20" transform="translate(172.899963 0)"/>
     <use xlink:href="#AppleSDGothicNeo-Regular-35" transform="translate(199.199951 0)"/>
     <use xlink:href="#AppleSDGothicNeo-Regular-ac00" transform="translate(249.099945 0)"/>
     <use xlink:href="#AppleSDGothicNeo-Regular-c9c0" transform="translate(335.59993 0)"/>
     <use xlink:href="#AppleSDGothicNeo-Regular-20" transform="translate(422.099915 0)"/>
     <use xlink:href="#AppleSDGothicNeo-Regular-d55c" transform="translate(448.399902 0)"/>
     <use xlink:href="#AppleSDGothicNeo-Regular-acc4" transform="translate(534.899887 0)"/>
    </g>
   </g>
  </g>
 </g>
 <defs>
  <clipPath id="pa49af34b59">
   <rect x="21.6" y="50.35375" width="558" height="249.48"/>
  </clipPath>
 </defs>
</svg>
